<svg width="30" height="21" viewBox="0 0 30 21" fill="none" xmlns="http://www.w3.org/2000/svg">
<g clip-path="url(#clip0_1_1703)">
<path d="M13.1923 7.6488C13.1923 7.6488 13.6616 10.5054 13.6037 10.8775C13.5973 10.9214 13.5944 10.9658 13.5949 11.0102C13.5878 11.0706 13.5851 11.141 13.6307 11.1956C13.5802 11.3014 13.5783 11.3921 13.6954 11.4305C13.5742 11.5863 13.5726 11.6909 13.7573 11.6907C13.569 11.9094 13.5673 12.0233 13.8099 12.0369C13.563 12.2556 13.5606 12.3739 13.8275 12.3638C13.5548 12.6095 13.5514 12.7265 13.8137 12.7729C13.5431 12.9561 13.5386 13.0676 13.799 13.0076C13.5265 13.2797 13.5195 13.3803 13.8269 13.2481C13.5032 13.5655 13.4941 13.65 13.8311 13.3583C13.4727 13.7979 13.4606 13.8613 13.8311 13.5094C13.4326 13.9612 13.4172 13.9982 13.3601 14.1395C13.3582 14.071 13.2966 14.1134 13.0026 14.3089C13.1482 14.1842 13.0615 14.2128 12.8975 14.2731C12.8773 14.2609 12.7799 14.2802 12.6844 14.2975C12.4932 14.3316 12.3099 14.3569 12.1924 14.3912C11.8985 14.4769 11.487 14.7054 11.634 14.905C11.781 15.1047 11.8103 15.2194 12.1924 15.248C12.5745 15.2765 13.1916 15.1337 13.3679 15.248C13.5441 15.3622 14.8667 15.1337 14.8667 15.1337L16.4528 14.5908C16.4528 14.5908 16.8937 12.4194 16.8937 11.9051C16.8937 11.3907 15.6594 7.79405 15.6594 7.79405L13.1923 7.6488Z" fill="#F6F7CE"/>
<path d="M29.4441 6.19165C29.4441 6.19165 30.0026 6.47746 29.7678 8.44878C29.703 8.99651 29.6485 9.41396 29.6046 9.74994C29.5957 9.81705 29.5875 9.88098 29.601 9.78742C29.5734 9.98768 29.5677 10.0318 29.603 9.79286C29.5565 10.1171 29.5514 10.158 29.6095 9.79921C29.5358 10.2783 29.5264 10.353 29.6114 9.80752C29.5217 10.3856 29.5143 10.4574 29.4735 10.8815C29.5091 10.4886 29.5127 10.4502 29.5237 10.3388C29.5177 10.3974 29.5125 10.4481 29.468 10.8829C29.5035 10.5383 29.4994 10.5776 29.468 10.8882C29.4889 10.6853 29.4831 10.744 29.4664 10.8926C29.4769 10.8028 29.4722 10.8555 29.4664 10.9043C29.4672 10.8921 29.4672 10.8759 29.4606 10.8963C29.4667 10.8824 29.4654 10.9128 29.4659 10.9131C29.4678 10.898 29.4716 10.8542 29.4659 10.8947C29.4727 10.8505 29.4682 10.9098 29.4643 10.9604C29.4564 11.0632 29.4505 11.138 29.4424 11.2403C29.4465 11.1933 29.4492 11.1617 29.4543 11.1122C29.4593 11.0626 29.4661 10.9952 29.4758 10.9054C29.4701 10.9642 29.4641 11.0292 29.4596 11.0868C29.4515 11.2012 29.451 11.2842 29.4541 11.4557C29.4496 11.2335 29.4476 11.2956 29.4559 11.613C29.4457 11.393 29.4452 11.4259 29.4481 11.6814C29.4445 11.4938 29.4444 11.5284 29.4457 11.7181C29.4444 11.5999 29.4457 11.6374 29.4476 11.7483C29.4476 11.703 29.4494 11.7317 29.4505 11.7776C29.457 11.8157 29.463 11.8707 29.4645 11.8904C29.4659 11.91 29.4627 11.8942 29.4509 11.8186C29.4632 11.9028 29.4734 11.9728 29.4832 12.0359C29.4931 12.0991 29.5009 12.1555 29.5096 12.2134C29.5183 12.2713 29.5277 12.3308 29.5387 12.3987C29.5493 12.4694 29.5617 12.5486 29.6358 12.5087C29.5619 12.5521 29.5588 12.5311 29.5902 12.4768C29.569 12.5912 29.5823 12.6733 29.7639 12.5958C29.5994 12.7771 29.6033 12.8019 29.8407 12.665C29.6155 12.8793 29.6237 12.9326 30.0002 13.0058C29.6478 13.0932 29.6629 13.2003 29.7964 13.4592C29.6886 13.4115 29.6993 13.5162 29.7067 13.6185C29.7443 14.1295 29.7014 14.5769 29.4442 14.7912C28.8271 15.3051 28.6214 15.2838 28.0038 15.2803C27.3862 15.2768 25.7114 15.1342 25.7114 15.1342C25.7114 15.1342 25.7206 15.0859 25.7344 15.0132C25.7481 14.9405 25.7667 14.8446 25.7629 14.8638C25.8033 14.6522 25.8216 14.5553 25.779 14.776C25.8486 14.4106 25.8579 14.3624 25.8579 14.3624C25.8579 14.3624 25.8902 14.3242 26.1314 14.029C25.9797 14.212 26.0364 14.138 26.173 13.95C26.1322 13.9941 26.1714 13.9243 26.1832 13.8744C26.1861 13.8535 26.1812 13.7988 26.1696 13.7242C26.1118 13.3504 25.8873 12.4774 25.8873 12.4774L26.0132 12.1076C26.0395 12.0309 26.0689 11.9442 26.0336 11.8535C26.1337 11.7544 26.1688 11.6511 26.145 11.5018C26.2434 11.432 26.2829 11.3161 26.324 11.1956L27.4155 7.99143L29.4441 6.19165Z" fill="#F6F7CE"/>
<path opacity="0.4" d="M29.6179 5.93689C29.6179 5.93689 30.4873 8.47241 28.5803 10.1019C28.4531 10.2105 28.3322 10.3201 28.2742 10.3725C28.1027 10.5402 27.9937 10.6506 27.9622 10.6816C27.7877 10.8712 27.6905 10.9812 27.5242 11.1742C27.5068 11.1994 27.4205 11.3078 27.3394 11.4147C27.2402 11.5452 27.1488 11.6737 27.2065 11.7934C26.9799 11.924 26.9037 12.0458 26.9021 12.2789C26.7634 12.2805 26.7001 12.3936 26.6431 12.5009C26.3007 13.1454 26.1837 13.5891 26.1837 13.5891L25.7116 11.4642L27.7639 7.10354L29.6179 5.93689Z" fill="#E0E0E0"/>
<path opacity="0.4" d="M13.9871 15.0125C13.9871 15.0125 14.0664 14.6448 14.4296 14.4299C14.7928 14.215 15.5847 14.4313 15.3377 13.2953C15.2942 13.1037 15.2402 12.9144 15.1758 12.7281C15.142 12.6279 15.1053 12.5255 15.0909 12.4849C15.0273 12.3186 14.986 12.214 14.9994 12.2422C14.9007 12.005 14.8565 11.9004 14.8426 11.859C14.767 11.6935 14.7214 11.5912 14.7549 11.6453C14.6304 11.3906 14.5851 11.2924 14.7413 11.5814C14.4962 11.1026 14.4529 11.0108 14.2363 11.5017C14.3679 10.8367 14.3271 10.7531 14.0128 10.7534C14.2504 10.5974 14.2143 10.5249 14.0118 10.4058C14.1483 10.3919 14.1183 10.3322 14.0209 10.2315C14.0661 10.2276 14.0437 10.1827 14.0102 10.1322C14.0059 10.1087 13.9981 10.0858 13.9871 10.0642C13.9725 10.0307 13.9482 9.97203 13.9172 9.89616C13.7314 9.44138 13.3067 8.36964 13.3067 8.36964L14.2494 8.27246L17.18 11.8493L16.2199 14.7636L14.2494 15.1224L13.9871 15.0125Z" fill="#E0E0E0"/>
<path d="M25.9469 15.306C26.0257 15.2353 26.0937 15.1548 26.1489 15.0667C26.1992 14.9879 26.236 14.9022 26.2578 14.8128C26.2775 14.7167 26.2775 14.6131 26.3729 14.5558C26.2162 14.4349 26.1877 14.3636 26.3738 14.2397C26.1294 14.2194 26.0997 14.1466 26.1634 13.9481C26.045 13.9984 26.021 13.923 26.0081 13.8286C25.9844 13.7568 25.9724 13.6821 25.9726 13.607C25.9694 13.4429 26.005 13.2683 26.1081 13.078C26.2005 12.9066 26.2652 12.7119 26.3415 12.4958C26.3669 12.4237 26.3936 12.3494 26.4018 12.32C26.4525 12.1956 26.4847 12.1166 26.4036 12.2774C26.5574 11.9537 26.5978 11.8693 26.8082 11.475C26.6906 11.6981 26.7425 11.61 26.8956 11.3589C26.8603 11.4292 26.9264 11.3367 27.001 11.2421C27.0756 11.1475 27.1586 11.0508 27.2518 10.9519C27.3451 10.8531 27.4482 10.7523 27.3697 10.5783C27.6391 10.5809 27.7152 10.5091 27.7452 10.2741C27.8659 10.3602 27.9405 10.283 28.0146 10.2021C28.0879 10.1243 28.1603 10.0425 28.2321 9.95907C29.0899 8.95792 29.7669 7.70089 29.7669 6.99235C29.7669 6.42089 29.6569 5.74242 29.2005 5.06425C29.1771 5.03308 29.1578 4.99945 29.1429 4.96405C29.1047 4.92868 29.0793 4.89482 29.0859 4.84314C29.0263 4.82681 28.999 4.79311 29.0262 4.74263C28.9842 4.73401 28.9559 4.72132 28.9433 4.70681C28.9223 4.68262 28.9166 4.65678 28.9373 4.63819C28.8525 4.62444 28.8213 4.59073 28.8564 4.58378C28.7575 4.52332 28.7242 4.49022 28.7928 4.5206C28.6858 4.43294 28.6618 4.41979 28.7454 4.51607C28.6295 4.38458 28.6209 4.36251 28.7727 4.46226C28.5845 4.32926 28.5565 4.31807 28.7154 4.4866C28.5212 4.28407 28.5128 4.26125 28.7724 4.4136C28.4743 4.2283 28.4435 4.21802 28.6865 4.47027C28.4014 4.18401 28.3903 4.16028 28.762 4.36266C28.3493 4.12749 28.3197 4.11842 28.5882 4.46453C28.2758 4.0897 28.2614 4.06975 28.5947 4.32745C28.2182 4.03726 28.1901 4.02517 28.1205 4.26623C28.1491 3.99418 28.1376 3.97559 28.0881 3.87841C28.1009 3.94929 28.0756 3.94098 27.8889 3.92375C28.0366 3.91136 28.023 3.89035 27.9445 3.75387C27.9793 3.88037 27.9512 3.85967 27.857 3.79437C27.895 3.81674 27.8673 3.79528 27.8023 3.81569C27.812 3.7519 27.7843 3.73014 27.7901 3.78652C27.7296 3.68616 27.7023 3.66394 27.7937 3.75629C27.648 3.62026 27.6209 3.59744 27.8126 3.70838C27.6087 3.58746 27.581 3.56434 27.8497 3.62963C27.5666 3.5524 27.5797 3.56373 27.8227 3.68374C27.539 3.53079 27.5059 3.50237 27.8851 3.5917C27.5276 3.51507 27.5089 3.50222 27.8588 3.53593C27.516 3.51053 27.5419 3.53169 27.8479 3.64036C27.5284 3.51945 27.4893 3.48771 27.7882 3.42348C27.4614 3.46036 27.4729 3.46549 27.891 3.48303C27.4393 3.44056 27.3944 3.41048 27.3681 3.21808C27.3643 3.39839 27.3792 3.41652 27.5252 3.39355C27.3748 3.40368 27.3438 3.36952 27.2382 3.16956C27.3192 3.3597 27.325 3.38403 27.2111 3.40081C27.2983 3.36106 27.2654 3.31345 27.1339 3.13193C27.2455 3.28382 27.2586 3.30181 27.1712 3.16896C27.2319 3.27868 27.1921 3.23773 27.0869 3.10125C27.1738 3.20795 27.1954 3.21929 27.1578 3.08991C27.1685 3.19571 27.1201 3.1617 27.0356 3.08024C27.0662 3.12981 27.0609 3.13223 27.0086 3.09293C27.0338 3.10911 27.0123 3.08356 26.9762 3.04759C26.9681 3.04124 26.9461 3.02477 26.9154 3.00331C26.9223 3.00013 26.8951 2.97731 26.8344 2.90794C26.8398 2.93152 26.8123 2.90884 26.7508 2.83237C26.7569 2.86365 26.7291 2.84098 26.6669 2.73655C26.6731 2.79609 26.6449 2.77373 26.6334 2.65901C26.5881 2.72929 26.5595 2.70722 26.5833 2.60581C26.5023 2.66339 26.4729 2.64163 26.5129 2.54233C26.4143 2.59855 26.3848 2.57709 26.4238 2.47658C26.3253 2.53477 26.2944 2.51377 26.3238 2.41477C26.2345 2.4722 26.2039 2.45165 26.2223 2.36172C26.1414 2.41099 26.1108 2.39104 26.1217 2.30716C26.0475 2.35144 26.0157 2.33179 26.0189 2.25592C25.9511 2.2934 25.9184 2.27436 25.9152 2.20725C25.8524 2.23748 25.818 2.21874 25.8109 2.15783C25.7512 2.18262 25.7171 2.16493 25.7009 2.11249C25.6476 2.13017 25.6127 2.11249 25.589 2.06866C25.5707 2.07356 25.5512 2.07381 25.5327 2.06941C25.5142 2.065 25.4973 2.05608 25.4837 2.04357C25.4325 2.03178 25.3956 2.01636 25.4079 2.03601C25.3882 2.03371 25.3693 2.02687 25.353 2.01611C25.3368 2.00535 25.3236 1.991 25.3147 1.97435C25.272 1.98115 25.2424 1.98341 25.2377 1.96331C25.2053 1.94291 25.1668 1.92916 25.1488 1.8823C25.0876 1.9024 25.0477 1.88941 25.0444 1.8291C24.9663 1.86462 24.925 1.85253 24.9192 1.77983C24.8415 1.82955 24.7989 1.81867 24.7712 1.73373C24.713 1.79766 24.6693 1.78769 24.6801 1.70441C24.5807 1.7688 24.5357 1.75988 24.5707 1.66058C24.4446 1.74325 24.3983 1.73615 24.4422 1.60798C24.3045 1.72104 24.2569 1.71378 24.3312 1.56491C24.1601 1.70245 24.1111 1.697 24.1803 1.51473C24.0115 1.68733 23.961 1.6831 23.9821 1.48571C23.8586 1.676 23.8065 1.67312 23.7336 1.49463C23.7013 1.66859 23.6474 1.66693 23.5211 1.55614C23.5656 1.66542 23.5383 1.66526 23.4402 1.58954C23.4836 1.66421 23.4564 1.66345 23.3726 1.61766C23.3996 1.6639 23.3716 1.66511 23.3096 1.64456C23.3148 1.66693 23.2861 1.66753 23.2458 1.66209C23.2214 1.66914 23.1958 1.67256 23.1702 1.67222L23.0817 1.6766C23.0223 1.68008 22.9621 1.68416 22.9008 1.68794C22.8394 1.69171 22.7778 1.69957 22.7138 1.70305C22.6293 1.71546 22.5439 1.72218 22.4583 1.72315C22.3764 1.74174 22.2917 1.74685 22.2079 1.73827C22.1241 1.76502 22.0441 1.77303 21.9714 1.69897C21.8874 1.78875 21.8106 1.79645 21.7326 1.80265C21.6602 1.81142 21.5869 1.81882 21.5144 1.82593C19.35 2.04039 18.5584 2.09284 18.3064 2.01939C18.0125 1.93369 16.9252 1.36223 15.8672 1.47649C14.8093 1.59075 13.7513 1.61932 13.3101 1.21955C12.8689 0.819788 11.7824 0.820241 11.7824 0.820241C11.7824 0.820241 11.6934 0.105802 10.6059 0.44889C10.6059 0.44889 10.0476 0.020257 9.10709 0.020257C8.1666 0.020257 7.34296 -0.0940049 7.16752 0.220215C7.16752 0.220215 5.60991 0.105953 5.4335 0.134519C5.25709 0.163084 5.08084 0.220215 5.16904 0.563152C5.25725 0.906089 5.40421 1.24887 5.40421 1.3917C5.40421 1.53453 5.25725 1.64864 5.58046 1.96316C5.90367 2.27768 6.52095 2.16312 6.6679 2.53447C6.81486 2.90582 6.7854 3.4203 7.63769 4.02018C7.90926 4.21106 8.1648 4.42105 8.40209 4.64832C8.45776 4.70106 8.51263 4.75411 8.56766 4.80595C8.59582 4.83618 8.62366 4.86369 8.65117 4.8587C8.67949 4.91916 8.70749 4.94803 8.75103 4.89755C8.76479 5.00531 8.79408 5.03448 8.88051 4.94788C8.84668 5.09902 8.87015 5.13332 9.03021 5.03856C8.93149 5.19423 8.96936 5.21993 9.18445 5.16657C9.03976 5.27978 9.07229 5.31303 9.29629 5.29474C9.13978 5.37893 9.1749 5.41157 9.37106 5.40659C9.24692 5.47928 9.28366 5.51435 9.44195 5.50755C9.37219 5.59823 9.42479 5.64675 9.57434 5.64584C9.53501 5.74801 9.59247 5.8 9.74347 5.80167C9.71272 5.90746 9.77584 5.96278 9.92749 5.96036C9.88331 6.05618 9.92587 6.09216 10.057 6.07266C10.0126 6.16334 10.056 6.19856 10.1864 6.18118C10.1444 6.26839 10.1887 6.30285 10.2866 6.27957C10.2339 6.34003 10.2347 6.34169 10.2732 6.26657C10.2586 6.36013 10.3148 6.40063 10.4057 6.42028C10.4169 6.47394 10.4629 6.50673 10.5155 6.53681C10.5611 6.57537 10.6091 6.61145 10.6592 6.64488C10.7137 6.68311 10.7752 6.72589 10.8495 6.77727C10.7383 6.69959 10.8319 6.76216 11.0525 6.90922C11.0193 6.88504 11.1132 6.94474 11.2064 7.00323C11.2996 7.06172 11.3924 7.1184 11.4841 7.17371C11.5759 7.22903 11.6664 7.28299 11.7177 7.35402C11.8441 7.38758 11.9313 7.43836 11.9766 7.55882C12.1014 7.53675 12.1839 7.58451 12.2647 7.64724C12.3447 7.67987 12.4214 7.71897 12.494 7.76407C12.7145 7.89269 12.9038 8.0068 13.0463 8.10564C13.3785 8.33644 13.7789 9.0808 14.1191 9.82139C14.1677 9.92718 14.2151 10.033 14.2324 10.0714C14.3064 10.2411 14.3506 10.3434 14.3652 10.3218C14.4349 10.5425 14.475 10.6392 14.8955 10.7843C14.5508 10.8224 14.5862 10.9096 15.0561 11.0739C14.6515 11.0716 14.6817 11.1466 15.1003 11.3542C14.7356 11.2811 14.7594 11.3408 15.0901 11.4779C14.8128 11.4735 14.8473 11.5578 15.0901 11.6384C14.9174 11.7298 14.9533 11.8175 15.1872 11.946C15.0253 11.9946 15.0621 12.0843 15.2058 12.2482C15.1333 12.2644 15.1684 12.3548 15.233 12.4822C15.2364 12.5351 15.2692 12.625 15.3003 12.7142C15.3935 12.9816 15.4706 13.2414 15.5147 13.477C15.6322 14.1056 15.456 14.5057 15.0151 14.5342C14.5743 14.5628 14.3098 14.7912 14.1334 14.9342C13.957 15.0771 13.6632 15.0198 13.8097 15.3057C13.9562 15.5915 14.7207 15.477 14.9264 15.5342C15.1321 15.5913 15.5738 15.5056 16.484 15.5342C17.3943 15.5627 17.8359 15.677 18.2179 15.4199C18.5999 15.1628 19.0996 13.2199 19.0409 12.5342C18.9821 11.8485 18.4238 10.6199 18.7764 10.3056C19.0585 10.0541 18.908 10.3149 19.3481 10.5461C19.4637 10.6039 19.5838 10.6536 19.7074 10.6947C19.9477 10.7384 20.0821 10.7541 19.7828 10.7514C20.3347 10.7631 20.4528 10.7566 21.0834 10.7133C20.6739 10.7326 20.7759 10.7152 21.0811 10.6708C20.9678 10.6811 21.0557 10.6643 21.1381 10.6534C21.2112 10.6422 21.2854 10.6396 21.3592 10.6457C21.4938 10.6608 21.602 10.7213 21.6858 10.8771C21.7985 11.0855 21.8798 11.3076 21.9273 11.5368C21.9434 11.6103 21.9579 11.6855 21.9716 11.7635C21.9854 11.8415 21.999 11.9231 21.9829 11.8391C22.0281 12.0947 22.0438 12.1851 21.9991 11.9571C22.08 12.3782 22.1012 12.4808 22.1772 12.8262C22.1526 12.7012 22.1843 12.8144 22.2192 12.9276C22.2542 13.0408 22.2924 13.1543 22.3272 13.2559C22.3681 13.3768 22.4057 13.4844 22.3982 13.4552C22.4735 13.6903 22.5038 13.7878 22.5583 13.9898C22.55 13.967 22.5661 14.0485 22.5907 14.2052C22.5779 14.1901 22.5729 14.2496 22.5551 14.3074C22.5331 14.3466 22.496 14.3765 22.4513 14.3911C22.0987 14.5054 21.0407 14.3625 20.6293 14.9624C20.2178 15.5623 20.7175 15.3625 20.7175 15.3625C20.7175 15.3625 20.835 15.5482 21.6579 15.5839C22.4809 15.6196 25.5355 15.4767 25.9469 15.306Z" fill="#FEFFCF"/>
<path d="M5.43351 0.134489C5.49376 0.129272 5.55434 0.12806 5.61478 0.130862L5.15481 0.322054C5.18847 0.188144 5.31099 0.15444 5.43351 0.134489Z" fill="#FEFFCF"/>
<path d="M7.95151 0.577327C8.00347 0.882328 8.45583 0.938098 7.98874 1.24234C7.89535 1.3028 7.82268 1.33801 7.8926 1.26124C7.69839 1.37217 7.64692 1.37157 7.73464 1.15786C7.54415 1.35162 7.493 1.33227 7.41774 1.08229C7.37065 1.29101 7.29927 1.26955 7.12836 1.14864C7.11622 1.24083 7.00439 1.23373 6.8618 1.24204C6.27139 1.2768 7.24246 2.30954 5.40421 1.39182C5.37897 1.22859 5.24819 0.87069 5.16905 0.563271C5.14218 0.458682 5.14008 0.380845 5.15481 0.322203L5.61478 0.130859C5.61478 0.130859 6.98286 0.530625 7.13856 0.532892C7.29426 0.535159 7.89972 0.272024 7.95151 0.577327Z" fill="#F6F7CE"/>
<path d="M5.4335 0.134489C5.49376 0.129272 5.55433 0.12806 5.61477 0.130862C5.71803 0.232277 5.78859 0.337924 5.75687 0.420295C5.69213 0.587305 5.44613 0.799959 5.28137 0.935834C5.24285 0.818549 5.2019 0.690836 5.16905 0.563122C5.08084 0.220186 5.25725 0.163055 5.4335 0.134489Z" fill="#10111A"/>
<path d="M8.12015 0.570803C8.12015 0.570803 7.6508 0.161062 7.38877 0.669649C7.38877 0.669649 7.75244 1.11037 8.12015 0.570803Z" fill="#10111A"/>
<path d="M6.6773 2.55913L6.67195 2.55383L6.67627 2.55615L6.6773 2.55913Z" fill="#E0E0E0"/>
<path d="M6.67114 2.54311L6.6679 2.53449C6.52095 2.16314 5.90383 2.27756 5.58046 1.96318C5.53 1.91531 5.48463 1.86297 5.44499 1.80691C6.55817 1.77849 6.66208 2.45016 6.67114 2.54311Z" fill="#E0E0E0"/>
<path d="M21.9533 9.1805C21.9966 9.12358 22.0446 9.06996 22.0969 9.02014C22.0526 9.07631 22.0047 9.12986 21.9533 9.1805Z" fill="#E0E0E0"/>
<path opacity="0.4" d="M7.63769 4.02032C6.80402 3.43344 6.81389 2.92863 6.67713 2.55925L6.67195 2.55396L6.67697 2.55879L6.676 2.55607C6.73507 2.58857 7.49802 3.0169 7.76328 3.63053C7.9473 4.05614 8.43397 4.3034 8.73792 4.42099C8.81383 4.45046 8.8784 4.47162 8.89313 4.46149C8.96952 4.49958 8.99623 4.50608 8.92825 4.44638C8.99623 4.50593 9.02763 4.53177 8.94249 4.45394C9.13024 4.61928 9.20145 4.68065 8.99105 4.48583C9.36071 4.82499 9.4481 4.90721 9.73085 5.18409C9.6161 5.07663 9.69654 5.16384 9.76726 5.25135C9.82731 5.32768 9.87748 5.4043 9.90079 5.46809C9.9474 5.59535 10.2369 5.76236 10.605 5.96443C10.6971 6.01491 10.7939 6.06766 10.8978 6.11436C10.9924 6.17723 11.0939 6.23422 11.1952 6.29316C11.3571 6.38762 11.5189 6.48722 11.6694 6.59181C11.7447 6.64426 11.817 6.69761 11.8405 6.70849C11.9538 6.80719 12.0185 6.86326 11.9069 6.73343C12.1357 6.97752 12.1891 7.03571 12.2357 7.09511C12.2882 7.16176 12.3329 7.22705 12.5131 7.49276C12.411 7.35431 12.4436 7.41643 12.5151 7.54853C12.4978 7.53674 12.5196 7.59493 12.5368 7.651C12.553 7.70402 12.5659 7.75786 12.5755 7.81227C12.5087 7.77297 12.4385 7.73221 12.3651 7.69C12.2922 7.64783 12.2166 7.6043 12.1271 7.61518C12.0609 7.51437 11.9815 7.46797 11.8416 7.47538C11.8169 7.37245 11.733 7.32333 11.6426 7.27436C11.5631 7.22222 11.4767 7.17038 11.3896 7.11717C11.3025 7.06397 11.2147 7.00956 11.1268 6.95394C11.0389 6.89832 10.9487 6.84074 11.0366 6.9012C10.8609 6.78285 10.7631 6.71696 10.6665 6.65076C10.6179 6.61766 10.5702 6.58456 10.5184 6.54163C10.5113 6.54345 10.4889 6.52652 10.4566 6.48118C10.385 6.45201 10.3035 6.39306 10.2662 6.26051C10.2177 6.32943 10.2138 6.32505 10.2691 6.26233C10.1678 6.28772 10.1261 6.25507 10.172 6.16907C10.0439 6.18902 10.0029 6.15577 10.0498 6.0669C9.92199 6.08852 9.88201 6.05466 9.92846 5.9611C9.77665 5.96352 9.71369 5.90821 9.74444 5.80241C9.59344 5.80075 9.53598 5.74875 9.57531 5.64658C9.42577 5.64749 9.37317 5.59852 9.44292 5.50829C9.28464 5.51509 9.24871 5.48003 9.37203 5.40733C9.17588 5.41232 9.14076 5.37967 9.29726 5.29548C9.07327 5.31377 9.04073 5.28037 9.18542 5.16732C8.97033 5.22112 8.93246 5.19498 9.03119 5.0393C8.87112 5.13376 8.84765 5.09885 8.88148 4.94862C8.79473 5.03522 8.76543 5.00605 8.752 4.89829C8.70846 4.94877 8.68046 4.92035 8.65214 4.85944C8.62463 4.86443 8.59679 4.83693 8.56863 4.8067C8.5136 4.75516 8.45874 4.70181 8.40306 4.64906C8.16549 4.42155 7.90962 4.21135 7.63769 4.02032Z" fill="#E0E0E0"/>
<path opacity="0.4" d="M16.1659 15.3635C16.5543 15.39 17.3723 15.1956 17.956 15.1217C18.5398 15.0478 18.5787 13.3915 18.686 12.5425C18.7933 11.6935 18.1896 10.9858 18.3475 10.5886C18.5055 10.1914 18.3475 8.88325 18.3475 8.88325C18.7779 9.39818 18.8816 8.71306 18.8816 8.71306C18.9302 9.09001 19.0509 9.37808 19.211 9.59889C19.2644 9.67235 19.3222 9.7384 19.2843 9.77119C19.4439 9.85659 19.508 9.90903 19.2806 9.98627C19.6397 10.0014 19.7075 10.042 19.5951 10.3943C19.8443 10.1119 19.9134 10.1416 20.1164 10.4699C20.0299 10.1849 20.0777 10.2004 20.2916 10.4182C20.1709 10.2172 20.2164 10.2184 20.4195 10.3463C20.3062 10.2384 20.3514 10.2571 20.4622 10.3161C20.4431 10.2592 20.4902 10.2418 20.5669 10.2158C20.5686 10.2325 20.576 10.2481 20.5882 10.2604C20.6003 10.2726 20.6165 10.2808 20.6341 10.2836C20.6691 10.2908 20.7084 10.279 20.7521 10.2533C20.7822 10.3073 20.8296 10.3064 20.8688 10.2972C20.8832 10.3016 20.8985 10.303 20.9136 10.3014C20.869 10.135 20.8373 9.96587 20.8189 9.79523C20.6895 8.54741 21.4566 8.11304 21.4566 8.11304C21.2219 9.726 21.6994 9.42932 21.9527 9.18054C21.4196 9.87956 21.702 10.9186 21.702 10.9186L21.6758 10.8852C21.6345 10.833 21.5965 10.7794 21.5602 10.724C21.5082 10.6839 21.4454 10.6581 21.3786 10.6493C21.3044 10.6404 21.2293 10.6414 21.1554 10.6522C21.0745 10.662 20.9852 10.6786 21.0803 10.6702C20.7922 10.7134 20.688 10.7315 21.0824 10.712C20.4637 10.7574 20.3436 10.7642 19.7877 10.7535C20.0867 10.7557 19.9495 10.74 19.7067 10.6957C19.6287 10.6665 19.4941 10.6185 19.3894 10.5682C19.075 10.417 19.0307 10.2465 18.9635 10.2107L18.9922 10.3029L18.9388 10.2113L18.9346 10.2041C18.9009 10.2054 18.8557 10.2353 18.7758 10.3067C18.4231 10.6209 18.9815 11.8495 19.0402 12.5352C19.099 13.221 18.5994 15.1639 18.2173 15.421C17.8351 15.678 17.3944 15.5638 16.4834 15.5352C15.5724 15.5067 15.1315 15.5924 14.9258 15.5352C14.766 15.4908 14.2695 15.5503 13.9871 15.4445C14.0316 15.4125 14.0806 15.3864 14.1327 15.3669C14.7458 15.1474 15.7766 15.3371 16.1659 15.3635Z" fill="#E0E0E0"/>
<path opacity="0.4" d="M22.1762 12.8268C22.1025 12.4876 22.0825 12.3904 22.0062 11.9971C22.0474 12.2069 22.0321 12.1206 21.9829 11.8448C22.0041 11.9565 21.9914 11.8788 21.9758 11.7899C21.9653 11.7295 21.952 11.6572 21.9375 11.5871C21.9229 11.517 21.9069 11.4485 21.8889 11.3805C21.913 11.4435 21.9386 11.5115 21.9653 11.5839C21.992 11.6563 22.0198 11.7328 22.047 11.7901C22.0763 11.893 22.1051 11.9764 22.1793 11.8505C22.1631 12.1477 22.1917 12.2364 22.5748 12.292C22.2485 12.417 22.2765 12.5092 22.4232 12.7383C22.3304 12.6951 22.3563 12.789 22.3809 12.8828C22.4055 12.9767 22.4283 13.0707 22.4494 13.1638C22.4704 13.2569 22.4894 13.3494 22.5081 13.344C22.5224 13.5308 22.5363 13.6198 22.6065 13.626C22.558 13.7922 22.5662 13.8769 22.6227 14.0868C22.5759 14.0383 22.5768 14.1157 22.5836 14.2429C22.5738 14.1888 22.5735 14.1885 22.5836 14.2429C22.5755 14.1408 22.5703 14.0859 22.5897 14.1479C22.5496 13.965 22.5339 13.8988 22.5344 13.8985C22.4947 13.7578 22.4714 13.6828 22.4049 13.4724C22.4211 13.5264 22.3926 13.4451 22.3482 13.3133C22.3354 13.2784 22.3061 13.1924 22.2777 13.107C22.2492 13.0216 22.2215 12.9339 22.2031 12.8769C22.1687 12.7618 22.1456 12.6758 22.1762 12.8268Z" fill="#E0E0E0"/>
<path opacity="0.4" d="M21.6562 15.5845C20.8332 15.5489 20.7157 15.3631 20.7157 15.3631C20.907 15.3359 21.6686 15.4178 21.8881 15.4187C22.1076 15.4196 22.9919 15.465 23.2513 15.4607C23.5108 15.4565 24.3671 15.2292 24.6006 15.4187C24.636 15.4443 24.6768 15.4623 24.7204 15.4715C23.6411 15.5566 22.1859 15.6075 21.6562 15.5845Z" fill="#E0E0E0"/>
<path d="M20.6903 15.372C20.6981 15.3676 20.7067 15.3645 20.7157 15.363C20.7157 15.363 20.7058 15.367 20.6903 15.372Z" fill="#E0E0E0"/>
<path opacity="0.4" d="M29.4441 14.7916C28.8269 15.3055 28.6212 15.2842 28.0036 15.2807C27.5521 15.2783 26.5341 15.201 26.0204 15.1598L26.1833 15.0147C26.1833 15.0147 27.5579 15.1345 27.9475 15.1217C28.337 15.1088 28.9854 14.9459 29.1937 14.7396C29.2961 14.6379 29.5062 14.4482 29.6925 14.2821C29.6559 14.5004 29.5798 14.6785 29.4441 14.7916Z" fill="#E0E0E0"/>
<path opacity="0.4" d="M6.67606 2.55616L6.67503 2.55334L6.67606 2.55616Z" fill="#E0E0E0"/>
<path opacity="0.4" d="M21.7012 10.9072L21.7026 10.918L21.7012 10.9072Z" fill="#E0E0E0"/>
<path opacity="0.4" d="M26.1764 13.9383C26.1246 14.0045 26.1346 13.9873 26.179 13.9221C26.1346 13.9873 26.1246 14.0045 26.1764 13.9383Z" fill="#E0E0E0"/>
<path opacity="0.4" d="M26.022 13.8435C26.0183 13.9021 26.0254 13.9277 26.065 13.8778C26.0408 13.9786 26.0488 14.0039 26.1238 13.9177C26.049 14.0039 26.0408 13.9782 26.065 13.8778C26.0249 13.9277 26.0183 13.9021 26.022 13.8435Z" fill="#E0E0E0"/>
<path d="M27.9418 5.33525C27.8591 5.21131 27.8609 5.23943 27.9455 5.35762C27.8646 5.29444 27.8659 5.32134 27.9444 5.39525C27.8669 5.37379 27.8667 5.39933 27.9298 5.4542C27.8651 5.44936 27.8635 5.47384 27.8952 5.52115C27.8589 5.52115 27.856 5.54503 27.885 5.56347C27.8486 5.59067 27.844 5.61304 27.8916 5.62C27.8334 5.65687 27.8269 5.67834 27.8996 5.68529C27.8131 5.7205 27.8054 5.74121 27.901 5.75542C27.8363 5.78716 27.7963 5.81587 27.7827 5.84157C27.7743 5.8854 27.7924 5.9256 27.8243 5.91578C27.7526 5.97759 27.6948 5.98953 27.6754 5.959C27.6335 6.05664 27.6302 6.11181 27.6578 6.11014C27.5733 6.16077 27.5192 6.15473 27.5262 6.07493C27.4307 6.19357 27.3967 6.23861 27.4407 6.25282C27.3197 6.28667 27.2779 6.28985 27.3321 6.21942C27.1902 6.31736 27.1442 6.34169 27.2455 6.27126C27.1034 6.36376 27.0622 6.3834 27.0657 6.37706C27.0427 6.39368 27.0648 6.38507 27.2081 6.31131C27.0102 6.41016 26.9338 6.44386 26.9015 6.47862C26.9086 6.45625 26.9599 6.43494 27.136 6.36376C26.9081 6.45716 26.8053 6.50069 26.7538 6.5418C26.7377 6.52215 26.7741 6.50008 26.8359 6.44613C26.7979 6.48285 26.7422 6.51127 26.6666 6.5557C26.6342 6.56069 26.5818 6.58185 26.4923 6.61948C26.4489 6.62807 26.406 6.63882 26.3638 6.65168C26.1799 6.70125 26.0563 6.73299 26.2283 6.48663C26.0375 6.74085 26.1429 6.71667 26.3542 6.66165C26.2819 6.68508 26.3154 6.67752 26.3806 6.67465C26.3128 6.67782 26.2767 6.68568 26.3521 6.65803C26.1375 6.71606 26.0344 6.73858 26.2227 6.4753C26.0626 6.73526 26.1686 6.7147 26.3602 6.6748C26.2715 6.69521 26.2685 6.69642 26.3602 6.67586C26.1599 6.71848 26.0527 6.73919 26.2233 6.47575C26.0359 6.74599 26.1246 6.73193 26.3552 6.68206C26.2096 6.71954 26.2066 6.7209 26.3552 6.68463C26.1137 6.73752 26.0239 6.75249 26.2257 6.4824C26.0069 6.76095 26.0801 6.75445 26.3552 6.70533C26.149 6.75067 26.1448 6.75385 26.3585 6.71924C26.0639 6.76806 25.9862 6.77969 26.2427 6.52276C26.0144 6.78302 26.0762 6.77969 26.3604 6.73994C26.0709 6.77697 26.0043 6.77879 26.2278 6.4892C25.9716 6.78876 26.0064 6.79707 26.3513 6.74614C25.9938 6.80539 25.9467 6.80493 26.2401 6.52124C25.966 6.83486 25.9372 6.84302 26.2542 6.56281C25.8797 6.86161 25.8512 6.87189 26.3028 6.73103C25.787 6.89486 25.7525 6.90741 26.3114 6.95245C25.6849 6.93159 25.6522 6.94323 26.2685 7.00776C25.586 6.95109 25.551 6.97134 26.0419 7.23447C25.4992 6.98328 25.4824 6.97466 26.1926 7.0132C25.446 6.98751 25.4142 7.0132 25.8771 7.30037C25.3558 7.02635 25.329 7.0132 25.9343 6.93597C25.2687 7.03421 25.2352 7.06882 25.6496 7.36491C25.1653 7.08651 25.1289 7.06958 25.4125 7.06096C25.0915 7.08273 25.0906 7.11281 25.4002 7.4163C25.0875 7.11402 25.0852 7.08454 25.4002 7.06112C25.0603 7.09316 25.0383 7.13094 25.1606 7.44667C25.0061 7.13895 24.9967 7.10918 24.9811 7.07638C24.9574 7.12293 24.9274 7.16707 24.8301 7.4098C24.8973 7.17311 24.8971 7.13608 24.6973 7.09512C24.8591 7.14953 24.8206 7.20001 24.6686 7.35523C24.7843 7.20802 24.7864 7.16555 24.577 7.11341C24.7499 7.1778 24.7115 7.23281 24.5882 7.32682C24.6892 7.23825 24.7054 7.18868 24.5446 7.12142C24.6777 7.19699 24.6338 7.25654 24.5432 7.31941C24.6241 7.26002 24.6594 7.20485 24.5396 7.13079C24.6662 7.17281 24.6125 7.22888 24.5073 7.30385C24.5531 7.28692 24.5482 7.28873 24.5009 7.30551C24.595 7.23659 24.6466 7.18263 24.5369 7.1456C24.6223 7.18928 24.5464 7.25004 24.461 7.30687C24.4666 7.31292 24.4627 7.31488 24.4571 7.31035C24.5348 7.25911 24.6108 7.20137 24.5429 7.17039C24.6223 7.18399 24.5372 7.23795 24.4401 7.29417C24.4215 7.30911 24.4018 7.32294 24.3813 7.33559C24.3813 7.33634 24.4074 7.32138 24.4346 7.30536C24.5233 7.25699 24.6126 7.20712 24.5608 7.21951C24.5853 7.21271 24.4676 7.26803 24.3805 7.31019C24.3071 7.34617 24.264 7.36899 24.2613 7.37685C24.2585 7.38471 24.2956 7.37775 24.3745 7.35765C24.4535 7.33755 24.5778 7.30279 24.6421 7.37277C24.5984 7.29523 24.4793 7.32652 24.3867 7.35554C24.2982 7.38214 24.2365 7.40662 24.204 7.43111C24.1068 7.50668 24.2732 7.58829 24.7202 7.78886C23.9087 7.46224 23.8765 7.46557 24.313 7.94423C23.8133 7.47101 23.7628 7.47388 23.8092 7.91234C23.6661 7.47675 23.6184 7.4766 23.5863 7.80866C23.5253 7.47343 23.4799 7.4704 23.4119 7.75349C23.3908 7.46164 23.3471 7.45589 23.2824 7.6959C23.2622 7.44169 23.2206 7.43322 23.1545 7.64301C23.0765 7.39922 22.9789 7.36702 22.8289 7.49398C22.7938 7.28873 22.7062 7.24294 22.5771 7.3569C22.5397 7.14016 22.4607 7.08318 22.3159 7.20273C22.3094 6.96091 22.2374 6.89471 22.1092 7.0392C22.0983 6.75672 22.0315 6.68447 21.9473 6.89471C21.9012 6.53606 21.8381 6.45973 21.7625 6.63082C21.714 6.30542 21.6533 6.22743 21.9774 6.18783C21.5322 6.07221 21.472 5.99482 22.0605 6.02157C21.3506 5.84293 21.2894 5.76857 21.4828 5.54609C21.1645 5.62529 21.1009 5.55621 21.0575 5.46644C20.9695 5.42593 20.9016 5.36457 20.8329 5.47052C20.7605 5.25212 20.6872 5.20088 20.4729 5.42518C20.5331 5.11096 20.4525 5.07211 20.2195 5.22023C20.2075 4.98158 20.0869 4.91462 19.9349 4.89483C19.9086 4.76877 19.8509 4.68988 19.7673 4.63033C19.7825 4.52347 19.7716 4.43596 19.6923 4.39017C19.7813 4.25611 19.8016 4.16346 19.6677 4.26291C19.8574 3.97786 19.893 3.88415 19.7648 4.48478C19.9636 3.69885 19.9984 3.60817 20.3201 3.43481C20.0511 3.43043 20.0693 3.34413 20.1402 3.20644C20.0728 3.18301 20.0592 3.10669 20.0202 3.03626C19.9812 2.96583 19.9181 2.90386 19.8229 2.84884C19.7207 2.7897 19.6122 2.74042 19.4992 2.70178C19.3906 2.6646 19.2817 2.63846 19.2519 2.55911C19.0647 2.60203 18.9567 2.59206 18.9493 2.41447C18.7433 2.58223 18.6379 2.58238 18.6622 2.38545C18.4315 2.58752 18.3306 2.59236 18.382 2.38046C18.1347 2.60097 18.0397 2.6046 17.9667 2.44092C17.8576 2.60475 17.7704 2.60158 17.6613 2.52948C17.6055 2.58238 17.5276 2.56651 17.5157 2.45391C17.3972 2.52147 17.3287 2.50062 17.3674 2.33527C17.1743 2.4583 17.0884 2.43653 17.1099 2.2467C16.9027 2.393 16.8024 2.37109 16.9686 2.16085C16.5943 2.32711 16.4849 2.3058 16.4391 1.97631C16.2602 2.26348 16.145 2.24217 15.9211 2.13592C15.9118 2.20151 15.7946 2.18201 15.6784 2.16327C15.2131 2.0877 14.7626 2.0283 14.4514 1.99989C13.6729 1.92916 13.5562 1.99989 12.5727 1.39019C11.5892 0.780491 11.75 1.06569 11.75 1.06569C11.5558 1.43493 11.3817 1.70048 11.2321 1.89001C11.1574 1.98508 11.0884 2.06125 11.1145 2.06624C10.9641 2.18383 10.9086 2.23008 11.1252 2.13879C10.812 2.2999 10.7709 2.32348 11.1161 2.21738C10.7042 2.35522 10.6791 2.36353 10.9887 2.31078C10.6443 2.372 10.6354 2.3723 10.6354 2.3723V1.84391C10.796 1.87973 10.9251 1.796 11.028 1.71484C11.6458 1.22802 11.3213 0.834448 11.2085 0.626631C11.0769 0.384807 10.4061 0.656859 10.2504 0.415035C10.0947 0.173211 8.53804 0.303493 8.12015 0.130891C7.70226 -0.0417105 7.13855 0.532924 6.62599 0.414884C6.43905 0.371809 6.22347 0.265255 6.02473 0.147215C6.53017 0.173513 7.16752 0.220215 7.16752 0.220215C7.34377 -0.0940049 8.16676 0.020257 9.10709 0.020257C10.0474 0.020257 10.6059 0.44889 10.6059 0.44889C11.6934 0.105802 11.7824 0.820241 11.7824 0.820241C11.7824 0.820241 12.8697 0.820241 13.3106 1.22031C13.7514 1.62038 14.8094 1.59166 15.8677 1.47725C16.926 1.36283 18.0119 1.9346 18.3058 2.02029C18.5578 2.09375 19.3494 2.0413 21.5137 1.82683C21.5859 1.81973 21.6594 1.81172 21.7319 1.80356C21.8099 1.79736 21.8868 1.78965 21.9708 1.69988C22.0435 1.77393 22.1234 1.76592 22.2073 1.73917C22.291 1.74776 22.3757 1.74264 22.4576 1.72406C22.5432 1.72309 22.6286 1.71637 22.7132 1.70396C22.7771 1.70018 22.8391 1.69459 22.9001 1.68884C22.9611 1.6831 23.0217 1.68098 23.0811 1.67751C23.1108 1.67584 23.1403 1.67448 23.1696 1.67312C23.1952 1.67346 23.2207 1.67005 23.2452 1.663C23.2855 1.66844 23.3141 1.66783 23.3089 1.64547C23.3709 1.66602 23.3989 1.66481 23.3719 1.61856C23.4551 1.6639 23.4829 1.66511 23.4396 1.59045C23.5381 1.66602 23.5655 1.66602 23.5205 1.55705C23.6467 1.66783 23.7003 1.6695 23.733 1.49553C23.8058 1.67403 23.8579 1.6769 23.9814 1.48662C23.9604 1.68401 24.0109 1.68824 24.1797 1.51564C24.1104 1.69791 24.1595 1.70335 24.3305 1.56581C24.2562 1.71529 24.3038 1.72194 24.4415 1.60889C24.3977 1.73645 24.444 1.74492 24.5701 1.66149C24.5351 1.76079 24.5801 1.7697 24.6795 1.70532C24.6686 1.7886 24.7118 1.79857 24.7706 1.73464C24.7983 1.81958 24.8408 1.83046 24.9185 1.78074C24.9243 1.85343 24.9656 1.86553 25.0438 1.83001C25.047 1.89046 25.087 1.90331 25.1482 1.88321C25.1661 1.93006 25.2051 1.94367 25.237 1.96422C25.2417 1.98432 25.2713 1.98205 25.3141 1.97525C25.323 1.99191 25.3361 2.00626 25.3524 2.01702C25.3686 2.02778 25.3875 2.03461 25.4073 2.03692C25.395 2.01727 25.4319 2.03269 25.483 2.04448C25.4966 2.05699 25.5136 2.0659 25.5321 2.07031C25.5506 2.07472 25.57 2.07446 25.5884 2.06956C25.612 2.114 25.647 2.13108 25.7002 2.1134C25.7164 2.16584 25.7506 2.18352 25.8103 2.15874C25.8182 2.21919 25.8517 2.23793 25.9145 2.20816C25.9177 2.27527 25.9504 2.29431 26.0183 2.25683C26.015 2.3324 26.0469 2.35235 26.121 2.30806C26.1102 2.39195 26.1414 2.4119 26.2217 2.36263C26.2032 2.45331 26.2338 2.47311 26.3232 2.41568C26.2945 2.51467 26.3246 2.53568 26.4232 2.47749C26.3842 2.578 26.4136 2.59946 26.5122 2.54324C26.4722 2.64254 26.5012 2.66415 26.5826 2.60672C26.5588 2.70813 26.5875 2.7302 26.6328 2.65992C26.6443 2.77463 26.6724 2.797 26.6663 2.73745C26.7284 2.84189 26.7563 2.86456 26.7501 2.83328C26.8116 2.9099 26.8391 2.93257 26.8338 2.90885C26.894 2.97822 26.9212 3.00104 26.9147 3.00422C26.9455 3.02568 26.9675 3.04215 26.9756 3.0485C27.0112 3.08402 27.0327 3.10895 27.0079 3.09384C27.0602 3.13314 27.0656 3.13072 27.035 3.08115C27.1195 3.16261 27.1678 3.19707 27.1572 3.09082C27.1947 3.22019 27.1734 3.20886 27.0863 3.10215C27.1915 3.23818 27.2319 3.27959 27.1706 3.16986C27.258 3.30272 27.2449 3.28473 27.1332 3.13284C27.2648 3.3142 27.2976 3.36196 27.2104 3.40171C27.3237 3.38494 27.3182 3.3606 27.2376 3.17032C27.3431 3.37043 27.3742 3.40458 27.5246 3.39446C27.3789 3.41743 27.3637 3.39929 27.3674 3.21898C27.3938 3.41139 27.4386 3.44146 27.8903 3.48393C27.4723 3.4664 27.4608 3.46126 27.7876 3.42438C27.4886 3.48862 27.5278 3.52111 27.8473 3.64127C27.5412 3.5326 27.5153 3.51144 27.8581 3.53668C27.5082 3.50313 27.527 3.51597 27.8845 3.5926C27.5053 3.50192 27.5383 3.53215 27.822 3.68465C27.5793 3.56464 27.566 3.55331 27.8491 3.63054C27.5804 3.56525 27.6081 3.58837 27.812 3.70928C27.6202 3.59835 27.6474 3.62072 27.7931 3.75719C27.7016 3.66515 27.7283 3.68737 27.7895 3.78742C27.7837 3.73105 27.8113 3.75281 27.8016 3.81659C27.8664 3.79619 27.8944 3.81765 27.8563 3.79528C27.9505 3.86012 27.9787 3.88128 27.9439 3.75478C28.0224 3.8908 28.036 3.91226 27.8882 3.92466C28.075 3.94159 28.1002 3.9499 28.0875 3.87932C28.1334 3.99312 28.1731 4.02214 28.5497 4.31944C28.2508 4.08033 28.2886 4.1095 28.7501 4.35526C28.3605 4.13913 28.3705 4.16089 28.6724 4.46861C28.4089 4.19051 28.437 4.19837 28.7708 4.39969C28.4723 4.22784 28.4795 4.24946 28.706 4.48055C28.5133 4.28029 28.5403 4.28936 28.769 4.44413C28.5701 4.34513 28.6026 4.3749 28.7761 4.49204C28.6659 4.43445 28.6968 4.46423 28.815 4.5401C28.7569 4.52408 28.786 4.55416 28.8752 4.60585C28.8428 4.61416 28.8703 4.64424 28.9529 4.64817C28.9435 4.65721 28.9382 4.66922 28.938 4.68178C28.9377 4.69434 28.9426 4.70652 28.9516 4.71588C28.9634 4.73099 28.9899 4.74172 29.0299 4.74882C29.0003 4.79507 29.0249 4.8253 29.0818 4.83724C29.0723 4.88591 29.0953 4.91614 29.1372 4.94712C29.1398 4.97735 29.1613 5.00758 29.1822 5.0378C29.3747 5.31628 29.5219 5.61984 29.6192 5.9386C29.6192 5.9386 29.7833 6.41802 29.8124 7.09316C29.7979 7.06172 29.7832 7.02847 29.7684 6.99341C29.6323 6.66725 29.4779 6.34805 29.3057 6.03714C29.2545 5.94646 29.2037 5.8594 29.1558 5.77643C29.103 5.69647 29.0534 5.61984 29.0042 5.5479C28.8075 5.26074 28.6217 5.05065 28.4591 4.91493C28.4126 4.87527 28.3625 4.83937 28.3095 4.80762C28.2685 4.78137 28.224 4.76013 28.1771 4.74444C28.1409 4.73177 28.1025 4.72567 28.0638 4.72646C28.0313 4.72749 27.9997 4.73662 27.9722 4.75291C27.9593 4.76089 27.9472 4.77005 27.9361 4.78026C27.924 4.79417 27.9138 4.80762 27.912 4.79779C27.8958 4.83815 27.8876 4.85523 27.8939 4.81291C27.8738 4.89331 27.8682 4.91402 27.8777 4.8383C27.8589 4.95921 27.8557 4.98294 27.827 5.01181C27.8517 5.03463 27.8508 5.06229 27.9329 5.3159C27.8513 5.11897 27.8538 5.1501 27.9418 5.33525Z" fill="#FDFFBC"/>
<path d="M7.75697 1.7632C7.75454 1.77076 7.7827 1.75111 7.83174 1.72058C8.02758 1.59846 8.55471 1.30222 8.92857 1.3917C9.02416 1.41703 9.11138 1.46443 9.18219 1.52954C9.25777 1.59528 9.32397 1.67705 9.44114 1.6113C9.4371 1.85041 9.48419 1.94185 9.78652 1.94275C9.5588 2.11233 9.58599 2.19108 9.78328 2.31954C9.62014 2.31365 9.62678 2.35733 9.72016 2.43713C9.62095 2.3797 9.62743 2.39602 9.70252 2.46645C9.65397 2.44272 9.67258 2.47325 9.69961 2.5118C9.71984 2.54474 9.74816 2.586 9.77746 2.62984C9.80675 2.67367 9.83864 2.72052 9.86922 2.76677C9.93801 2.87529 10.0036 2.98365 9.99708 2.77841C10.102 3.18815 10.1348 3.28427 10.576 2.99242C10.1345 3.43632 10.1013 3.49239 10.4266 3.71547C9.91438 3.54242 9.82035 3.56116 9.97086 3.80268C9.64183 3.58368 9.55751 3.58746 9.94982 3.84198C9.3887 3.58323 9.30422 3.57522 9.91875 3.90017C9.1257 3.55058 9.03183 3.53396 8.70393 3.47562C8.84522 3.49919 8.77644 3.46231 8.50033 3.30936C8.65716 3.36407 8.60666 3.30271 8.49612 3.19011C8.51392 3.17394 8.47168 3.10638 8.42863 3.04502C8.34237 2.92244 8.25287 2.8242 8.11967 2.8242C8.06415 2.8242 8.00281 2.80259 7.98889 2.82042C7.88046 2.72808 7.81896 2.67518 7.91428 2.85655C7.70874 2.54928 7.65889 2.47688 7.82608 2.88677C7.58331 2.32453 7.55676 2.24443 7.47244 1.84209C7.53961 2.0883 7.54851 2.01243 7.58153 1.79494C7.61293 1.87655 7.66892 1.8167 7.75697 1.7632Z" fill="#FDFFBC"/>
<path d="M10.6354 0.877351C10.6354 0.877351 11.7521 0.56313 10.6354 1.64816C10.6354 1.64877 11.135 0.991612 10.6354 0.877351Z" fill="#A0A0A0"/>
<path d="M5.40421 1.39172C5.50339 1.45808 5.60714 1.51827 5.7148 1.57188C5.7415 1.58564 5.76821 1.59909 5.79572 1.61118C5.82323 1.62327 5.8501 1.63672 5.8781 1.64791L5.96129 1.68267L6.04577 1.71471C6.07377 1.72559 6.10307 1.73345 6.13155 1.74297L6.17476 1.75673C6.18917 1.76096 6.2039 1.76443 6.21846 1.76852C6.24759 1.77592 6.27656 1.78454 6.30618 1.79104C6.3358 1.79753 6.36542 1.80298 6.39504 1.80857C6.51404 1.82968 6.63579 1.8338 6.75612 1.82081H6.6658H6.64347L6.62097 1.81885L6.57614 1.81476L6.53147 1.81129L6.48713 1.80434C6.45767 1.79905 6.42789 1.79602 6.39876 1.78922C6.28155 1.76459 6.16652 1.73164 6.05467 1.69068C5.94187 1.65079 5.83139 1.60539 5.7237 1.55465C5.6964 1.54246 5.66942 1.52971 5.64277 1.51641C5.61591 1.50357 5.5892 1.49012 5.56266 1.47636C5.50893 1.44916 5.45649 1.42074 5.40421 1.39172Z" fill="#A0A0A0"/>
<path d="M21.6855 7.79504C21.4984 8.00941 21.3495 8.25055 21.2446 8.50918C21.1946 8.64049 21.1567 8.77554 21.1313 8.91288C21.1081 9.05102 21.0979 9.19081 21.1009 9.33063C21.1104 9.61011 21.1667 9.88647 21.2679 10.1497C21.3174 10.2803 21.3765 10.4077 21.4446 10.5308C21.5118 10.6542 21.5893 10.7724 21.6762 10.8845L21.7025 10.9179L21.697 10.8757C21.6766 10.7125 21.6655 10.5484 21.6636 10.3841C21.6602 10.2197 21.6682 10.0552 21.6876 9.89181C21.7058 9.72854 21.7443 9.56781 21.8023 9.41285C21.8326 9.33638 21.8719 9.26332 21.9197 9.19505C21.967 9.12733 22.027 9.06809 22.0967 9.02019C22.0258 9.06694 21.9644 9.12531 21.9158 9.19249C21.8664 9.26028 21.8254 9.33309 21.7936 9.40952C21.7322 9.56437 21.6911 9.72561 21.6714 9.88969C21.6502 10.0538 21.6403 10.219 21.6419 10.3842C21.6433 10.5495 21.6541 10.7147 21.6743 10.8789L21.6952 10.8701C21.5255 10.6454 21.3899 10.3998 21.2922 10.1404C21.191 9.87998 21.1342 9.60631 21.1239 9.32942C21.1205 9.19092 21.1294 9.0524 21.1506 8.91529C21.1743 8.77876 21.2105 8.64437 21.2587 8.51356C21.3597 8.25461 21.5037 8.01213 21.6855 7.79504Z" fill="#A0A0A0"/>
<path d="M19.0406 7.79504C18.9948 7.99274 18.9565 8.19194 18.9255 8.39265C18.8949 8.59321 18.8702 8.79468 18.8548 8.99721C18.8389 9.19979 18.835 9.40302 18.843 9.606C18.8519 9.80883 18.8774 10.0124 18.938 10.2083L18.96 10.1989C18.8894 10.0795 18.8217 9.95861 18.7569 9.83619C18.6921 9.71362 18.6287 9.59028 18.5699 9.46469C18.5112 9.33909 18.4566 9.21183 18.4107 9.0817C18.3876 9.01635 18.3685 8.94984 18.3534 8.8825C18.3366 8.81534 18.3307 8.74619 18.3361 8.6774C18.329 8.74625 18.3331 8.81571 18.3484 8.8834C18.3621 8.95118 18.3799 9.01819 18.4016 9.08412C18.4456 9.21546 18.4968 9.34461 18.555 9.47104C18.6693 9.7242 18.7997 9.9698 18.9399 10.2106L18.9933 10.3022L18.9619 10.2012C18.9327 10.1044 18.9111 10.0057 18.8972 9.90602C18.8829 9.80626 18.8731 9.7056 18.8685 9.60464C18.8596 9.40262 18.8626 9.20029 18.8774 8.99857C18.8909 8.79665 18.9122 8.59518 18.9402 8.39401C18.9682 8.19284 18.9993 7.99364 19.0406 7.79504Z" fill="#A0A0A0"/>
<path d="M8.92825 4.44637C8.93327 4.49066 8.87193 4.47056 8.81205 4.44637C8.75221 4.4224 8.69371 4.39561 8.63677 4.36612C8.52216 4.3073 8.41378 4.23848 8.31308 4.16057C8.10931 4.00625 7.94407 3.81038 7.7628 3.62991C7.58153 3.44945 7.40318 3.26718 7.22126 3.08762C7.03934 2.90807 6.85662 2.72957 6.67098 2.55334L6.93803 2.82782L7.20653 3.10108L7.74354 3.6473L8.01139 3.92086C8.1001 4.01294 8.19661 4.09821 8.29997 4.17583C8.40284 4.25257 8.51335 4.31993 8.62997 4.377C8.6884 4.40466 8.74779 4.4305 8.808 4.45257C8.86821 4.47464 8.93262 4.49353 8.92825 4.44637Z" fill="#A0A0A0"/>
<path d="M10.6354 2.37285C10.684 2.34383 10.7304 2.3133 11.0714 2.09007C10.8223 2.24952 10.8675 2.21627 11.0868 2.06105C10.956 2.14765 10.9994 2.11229 11.0984 2.03505C11.074 2.04911 11.1054 2.02115 11.136 1.99258C11.1666 1.96402 11.1969 1.93485 11.2265 1.90538C11.2857 1.84613 11.3427 1.78446 11.3962 1.72023C11.5047 1.59102 11.5956 1.4498 11.6669 1.29976C11.7016 1.22404 11.7294 1.14573 11.75 1.06564C11.7697 0.985055 11.7805 0.902818 11.7824 0.82019C11.7759 0.901878 11.7613 0.98283 11.7389 1.06201C11.7159 1.14067 11.6861 1.21741 11.6495 1.29144C11.5762 1.43824 11.4847 1.57647 11.3768 1.7033C11.3067 1.78871 11.2314 1.87026 11.1512 1.94754C11.1112 1.98608 11.0703 2.02402 11.0839 2.01798C10.9984 2.08901 10.9669 2.11637 11.074 2.03672C10.9029 2.17017 10.8704 2.19647 11.0648 2.05334C10.8058 2.24846 10.7718 2.27401 11.045 2.07919C10.704 2.32403 10.6699 2.34837 10.6354 2.37285Z" fill="#A0A0A0"/>
<path d="M20.6275 14.9629C20.6252 14.9697 20.6244 14.9769 20.6252 14.984C20.626 14.9911 20.6284 14.9979 20.6322 15.0042C20.6357 15.0104 20.64 15.0163 20.645 15.0217C20.6501 15.0268 20.656 15.0312 20.6611 15.0368C20.673 15.0452 20.6857 15.0525 20.699 15.0586C20.7121 15.0648 20.7257 15.0702 20.7396 15.0746C20.7952 15.0912 20.8525 15.1023 20.9105 15.1078C20.9682 15.1139 21.0261 15.1172 21.084 15.1175C21.142 15.1196 21.1991 15.119 21.2562 15.124C21.3707 15.13 21.4844 15.1452 21.5961 15.1693C21.6522 15.1814 21.7074 15.1966 21.7615 15.2147C21.8164 15.2322 21.8693 15.2543 21.9198 15.2809C21.8227 15.218 21.7123 15.1799 21.6008 15.1503C21.4884 15.1228 21.3734 15.1054 21.2574 15.0983C21.1412 15.0918 21.0261 15.0973 20.912 15.0882C20.8548 15.085 20.7982 15.0763 20.7429 15.0623C20.7291 15.0591 20.7156 15.0547 20.7026 15.0493C20.6892 15.0445 20.6765 15.0383 20.6645 15.0309C20.6592 15.0268 20.6532 15.0229 20.6484 15.0184C20.6434 15.0138 20.6389 15.0087 20.6351 15.0032C20.6308 14.9974 20.6279 14.9908 20.6266 14.9838C20.6253 14.9769 20.6256 14.9697 20.6275 14.9629Z" fill="#A0A0A0"/>
<path d="M11.8633 14.5309C11.9181 14.51 11.9743 14.4927 12.0317 14.4792C12.0882 14.4649 12.1461 14.4559 12.2045 14.4521C12.2622 14.4478 12.3202 14.4526 12.3762 14.4662C12.4037 14.4737 12.4299 14.4847 12.4542 14.4988C12.4663 14.506 12.4777 14.514 12.4885 14.5227L12.5209 14.5517C12.5667 14.5904 12.6214 14.6186 12.6808 14.6341C12.7383 14.6496 12.7974 14.6594 12.8571 14.6633C12.916 14.6681 12.9751 14.6696 13.0332 14.6767C13.0621 14.6792 13.0905 14.686 13.1172 14.697C13.13 14.7031 13.1411 14.712 13.1495 14.723C13.1575 14.735 13.162 14.7487 13.1626 14.7629C13.1633 14.7483 13.1599 14.7338 13.1528 14.7208C13.1448 14.7084 13.1337 14.6981 13.1204 14.6906C13.0937 14.6775 13.0649 14.6685 13.0351 14.664C12.9764 14.6543 12.9173 14.6507 12.859 14.6435C12.801 14.6377 12.7436 14.627 12.6876 14.6117C12.632 14.5965 12.5809 14.5694 12.5384 14.5327L12.506 14.5033C12.494 14.494 12.4813 14.4854 12.468 14.4778C12.4417 14.4628 12.4133 14.4513 12.3837 14.4436C12.3251 14.4296 12.2642 14.4257 12.2042 14.4323C12.0851 14.4455 11.9696 14.4789 11.8633 14.5309Z" fill="#A0A0A0"/>
<path d="M14.1326 14.9345C14.1778 14.9149 14.2246 14.8984 14.2724 14.8852C14.3195 14.8715 14.368 14.8623 14.4171 14.858C14.4654 14.8533 14.5141 14.8569 14.561 14.8687C14.6074 14.8811 14.6487 14.9063 14.6795 14.941C14.6962 14.9603 14.7161 14.9772 14.7382 14.991C14.7615 15.0054 14.7895 15.0115 14.8172 15.0082C14.8431 15.004 14.8681 14.9957 14.891 14.9836C14.9138 14.973 14.9353 14.9617 14.9577 14.9534C15.0015 14.9338 15.0516 14.9305 15.098 14.944C15.1453 14.959 15.1892 14.9821 15.2275 15.0122C15.1919 14.9779 15.1493 14.9507 15.1022 14.9322C15.078 14.9237 15.0523 14.9197 15.0265 14.9203C15.0005 14.9213 14.975 14.9264 14.9509 14.9354C14.9023 14.9505 14.8602 14.9807 14.8149 14.9863C14.7696 14.9919 14.7301 14.9605 14.6992 14.9259C14.6647 14.8881 14.6188 14.8609 14.5675 14.848C14.5178 14.8358 14.4661 14.8332 14.4153 14.8403C14.3153 14.8539 14.2192 14.8859 14.1326 14.9345Z" fill="#A0A0A0"/>
<path d="M8.00638 18.3708C8.00638 18.3708 8.31259 18.7282 8.51684 19.0083C8.56782 19.0783 8.61249 19.1434 8.60796 19.1071C8.67626 19.2506 8.69552 19.2924 8.62059 19.1223C8.69552 19.3438 8.71009 19.3831 8.60149 19.1792C8.75573 19.4752 8.7868 19.5279 8.94379 19.7977C8.85251 19.6386 8.88731 19.6964 8.95998 19.8251C8.94832 19.8087 8.97422 19.8632 8.98927 19.9115C9.00432 19.9599 9.00869 20.0022 8.99575 20.0345C8.93101 20.1955 8.825 20.1403 8.67432 20.2613C8.52364 20.3822 8.18684 20.5802 8.61735 20.6606C9.04786 20.741 9.26376 20.617 9.39292 20.6773C9.52207 20.7376 10.074 20.7346 10.1816 20.5885C10.2892 20.4423 10.5053 20.2408 10.5053 20.2408L10.1627 20.1319C10.1627 20.1319 10.1167 19.6546 10.1167 19.5152C10.1167 19.3759 9.87975 18.4308 9.90128 18.27C9.9228 18.1092 9.85822 17.3409 9.72907 17.3631C9.59992 17.3854 8.2218 17.7674 8.13569 17.8277C8.04959 17.8881 8.00638 18.3708 8.00638 18.3708Z" fill="#F6F7CE"/>
<path opacity="0.4" d="M8.61703 20.5427C8.80622 20.5781 9.07813 20.6133 9.18802 20.5957C9.29791 20.5782 9.50605 20.637 9.63844 20.626C9.70091 20.6204 9.76614 20.6627 9.81793 20.7091C9.64313 20.7242 9.46008 20.7091 9.39259 20.6778C9.26312 20.6174 9.0477 20.7416 8.61703 20.661C8.56868 20.6533 8.52166 20.6396 8.47719 20.6202C8.47363 20.5785 8.48884 20.5188 8.61703 20.5427Z" fill="#E0E0E0"/>
<path opacity="0.4" d="M9.73943 20.5098C9.75189 20.3133 9.89577 20.1842 9.96261 19.9841C10.0295 19.784 9.96876 18.7435 9.96876 18.7435C10.0322 19.0627 10.1167 19.433 10.1167 19.5162C10.1167 19.6555 10.1627 20.1328 10.1627 20.1328L10.4261 20.2167L10.0944 20.6502C10.022 20.6816 9.92086 20.7005 9.81647 20.709C9.7642 20.6543 9.73659 20.583 9.73943 20.5098Z" fill="#E0E0E0"/>
<path d="M4.9703 17.7877C4.9703 17.7877 4.96852 17.8046 4.96577 17.8299C4.96156 17.8652 4.95606 17.9089 4.95897 17.9008C4.94133 18.0158 4.93195 18.079 4.85555 17.9449C4.90864 18.2169 4.89488 18.2925 4.6759 18.5271C4.86268 18.4488 4.84406 18.5292 4.79551 18.6418C4.80198 18.6871 4.77852 18.766 4.7523 18.8396C4.6997 18.9867 4.63658 19.1149 4.56116 19.1953C4.5181 19.2406 4.46842 19.2884 4.4142 19.3361C4.35998 19.3839 4.30091 19.4324 4.28003 19.3857C4.17904 19.529 4.11543 19.5772 4.09811 19.375C3.98757 19.6723 3.92316 19.7191 3.98482 19.3992C3.79789 19.8101 3.73687 19.8542 3.96168 19.4072C3.62261 19.9386 3.56904 19.9788 3.30442 20.1854C3.47387 20.0538 3.43212 20.0887 3.26104 20.2342C3.35103 20.1645 3.30021 20.1982 3.22026 20.2449C3.19274 20.252 3.13594 20.272 3.07686 20.2885C2.89883 20.3382 2.70073 20.3575 2.49422 20.442C2.14981 20.5827 1.82676 20.4621 1.61151 20.442C1.39625 20.4219 1.18083 20.5425 1.07304 20.4219C0.965254 20.3013 0.922364 20.2208 1.30999 20.0398C1.36534 20.014 1.42425 19.9873 1.4851 19.96C1.54596 19.9328 1.60892 19.9047 1.64598 19.9093C1.7358 19.8479 1.79957 19.8186 1.83081 19.9508C1.92549 19.7605 1.98731 19.7311 2.20144 19.8207C2.10611 19.6718 2.16308 19.642 2.31586 19.6198C2.26876 19.5828 2.31764 19.5532 2.36183 19.5237C2.40103 19.4972 2.43809 19.4681 2.47269 19.4365C2.68811 19.2355 2.83879 18.6524 2.88184 18.3909C2.92489 18.1294 3.11846 17.2451 3.11846 17.2451L4.9703 17.7877Z" fill="#F6F7CE"/>
<path d="M9.94433 20.4823C9.94433 20.4823 9.81485 20.7638 10.1385 20.7034C10.4622 20.6429 10.6338 20.6716 10.849 20.5976C11.0643 20.5235 11.5382 20.6234 11.7104 20.4827C11.8826 20.342 12.1411 19.7587 11.7104 18.9343C11.6908 18.8964 11.6745 18.8571 11.6618 18.8167C11.6486 18.7742 11.6377 18.7287 11.663 18.7381C11.6202 18.6323 11.6144 18.5811 11.7403 18.6433C11.6037 18.4738 11.6005 18.4175 11.8081 18.2981C11.7377 18.2981 11.6906 18.2927 11.6615 18.2779C11.6481 18.2714 11.6372 18.2611 11.6303 18.2486C11.6233 18.2361 11.6207 18.2219 11.6227 18.2079C11.624 18.173 11.6379 18.1295 11.6728 18.1553C11.6277 18.0948 11.6126 18.0879 11.6052 18.158C11.5982 18.0486 11.599 18.0156 11.5952 18.1385C11.6008 17.949 11.6018 17.9153 11.5952 18.1003C11.6036 17.8471 11.6047 17.8131 11.6058 17.7775C11.6079 17.7184 11.6101 17.6581 11.618 17.4229C11.6141 17.5356 11.6159 17.4735 11.618 17.3775C11.618 17.3473 11.6193 17.2843 11.6198 17.2199C11.6235 16.5769 11.563 15.8723 11.1964 15.2631C11.153 15.1911 11.1054 15.1204 11.0849 15.0891C11.0269 15.0167 10.9996 14.9833 11.0751 15.0674C10.953 14.9248 10.9335 14.9011 11.07 15.0488C10.8714 14.8354 10.8288 14.7935 10.6681 14.7394C10.7864 14.7494 10.7864 14.7471 10.8202 14.7743C10.762 14.7258 10.7192 14.6901 10.5289 14.5296C10.6453 14.6266 10.6137 14.5985 10.5127 14.5092C10.5419 14.5319 10.5022 14.4932 10.448 14.4398C10.5012 14.49 10.5233 14.5075 10.508 14.4794C10.5171 14.4744 10.4888 14.424 10.4417 14.3381C10.4828 14.4622 10.4381 14.4465 10.3353 14.3705C10.363 14.4036 10.3326 14.3762 10.303 14.3337C10.2788 14.2875 10.262 14.2382 10.2531 14.1874C10.1884 14.2375 10.1379 14.2526 10.0913 14.2453C10.0447 14.2381 10.0018 14.2089 9.95905 14.1697C9.92669 14.1717 9.89432 14.164 9.92507 14.1454C9.8244 14.1395 9.78734 14.1229 9.88752 14.0626C9.67712 14.0747 9.60332 14.0449 9.56188 13.8248C9.52725 13.8799 9.49714 13.9137 9.46558 13.9306C9.43402 13.9476 9.40457 13.9485 9.39664 13.9344C9.33821 13.925 9.30212 13.9012 9.34647 13.839C9.25211 13.8939 9.23059 13.9009 9.33789 13.8567C9.17394 13.8978 9.13898 13.8879 9.26571 13.768C9.03459 13.8596 8.9658 13.8427 8.81917 13.6536C8.83001 13.8127 8.76301 13.7996 8.63337 13.7443C8.63062 13.7769 8.56523 13.7674 8.50098 13.7594C8.43673 13.7514 8.37312 13.7443 8.31065 13.74C8.21694 13.7326 8.1255 13.7287 8.14427 13.6426C7.9473 13.7264 7.86072 13.7283 7.68754 13.5836C7.69223 13.7367 7.61066 13.7434 7.47568 13.732C7.4527 13.7608 7.37647 13.7715 7.30316 13.7837C6.89273 13.8516 6.49693 13.9817 6.13139 14.1687C5.97634 14.2411 4.75748 14.1838 4.16981 14.4055C4.10967 14.4273 4.05256 14.4558 3.99971 14.4903C3.95828 14.5186 3.91053 14.5434 3.84725 14.5385C3.80501 14.5872 3.74707 14.6061 3.68201 14.6192C3.61949 14.6394 3.55536 14.6548 3.49022 14.6655C3.14953 14.7259 2.74314 14.7391 2.42203 14.7642C2.34872 14.7698 2.27993 14.7761 2.3314 14.7565C2.15482 14.7917 2.09866 14.8007 2.28446 14.7318C2.00236 14.8225 1.96239 14.8364 1.93212 14.8527C1.90186 14.8691 1.86738 14.8875 1.60843 15.0272C1.78808 14.9306 1.74519 14.9549 1.58108 15.0483C1.65342 15.0096 1.60471 15.04 1.54871 15.0772L1.48009 15.1243L1.4168 15.1682C1.34543 15.2244 1.29137 15.2679 1.37424 15.1859C1.18375 15.3625 1.13017 15.4126 0.925763 15.6242C1.0253 15.5224 0.974317 15.5809 0.83788 15.7433C0.876562 15.7061 0.82995 15.7726 0.786737 15.8433C0.695095 15.9934 0.624078 16.1536 0.575366 16.3203C0.316412 17.2051 -0.0920886 17.1046 0.0155392 17.3057C0.123167 17.5069 0.209755 17.608 0.40397 17.608C0.598186 17.608 1.20074 17.6884 1.43752 17.5276C1.6743 17.3668 2.32169 17.366 2.60168 17.366C2.88168 17.366 3.18303 17.6274 3.76439 17.7682C3.84741 17.7883 3.92785 17.8121 3.98094 17.8127C4.08274 17.8642 4.15703 17.8925 4.15508 17.7475C4.29913 17.9505 4.36678 17.9803 4.41177 17.7475C4.49447 18.0383 4.55452 18.0667 4.60777 17.8518C4.66636 18.1192 4.71815 18.1432 4.71798 17.9445C4.81266 18.184 4.85539 18.2014 4.77609 17.9839C4.93114 18.2241 4.96415 18.2307 4.81509 17.9739C5.02404 18.2309 5.06482 18.2407 4.8774 17.9576C5.15853 18.2764 5.21145 18.3018 4.93292 17.9591C5.32458 18.3636 5.38495 18.3998 5.65621 18.5687C5.50812 18.478 5.57108 18.5211 5.691 18.6021C5.69489 18.6075 5.75574 18.6515 5.8132 18.6938C5.87065 18.7361 5.92471 18.7769 5.97294 18.8138C6.26232 19.0351 6.75757 19.3165 6.75757 19.6383C6.75757 19.9601 6.99435 19.9802 6.82231 20.2616C6.76566 20.3541 6.51804 20.3488 6.36817 20.4232C6.06066 20.5752 5.84298 20.7836 6.26248 20.9051C6.69703 21.0323 7.16285 21.0323 7.59739 20.9051C7.81281 20.8447 8.09264 20.8649 8.22196 20.7442C8.35127 20.6234 8.24348 20.2817 8.20043 19.94C8.15738 19.5982 8.13569 18.6329 8.28654 18.4518C8.43738 18.2708 8.30806 18.3714 9.01857 18.1301C9.72907 17.8887 9.51381 18.1905 9.77228 18.4928C10.0308 18.7951 10.2675 19.1967 10.3967 19.3776C10.5258 19.5585 10.6767 19.6993 10.5045 19.8401C10.3323 19.9808 10.1083 19.9873 9.97912 20.2085C9.84997 20.4298 9.94433 20.4823 9.94433 20.4823Z" fill="#FEFFCF"/>
<path d="M0.176575 17.0536C0.270284 17.2106 0.201337 17.3671 0.123813 17.4733C0.0832119 17.4204 0.047684 17.3643 0.0176415 17.3055C-0.0385192 17.1997 0.0461265 17.1772 0.176575 17.0536Z" fill="#10111A"/>
<path d="M1.31759 16.3817C1.31759 16.3817 0.990339 16.2514 0.964767 16.566C0.964767 16.566 1.24476 16.7312 1.31759 16.3817Z" fill="#10111A"/>
<path opacity="0.4" d="M2.30728 17.245C2.41313 17.2224 2.73472 17.2047 2.86711 16.8868C2.86711 16.8868 2.8833 17.2745 3.09272 17.3632C3.1764 17.3988 3.45785 17.5275 3.77976 17.6679C3.86069 17.7031 3.94323 17.739 4.02027 17.766C4.10928 17.8097 4.19247 17.8445 4.24782 17.7285C4.35399 17.9099 4.43233 17.9416 4.52927 17.7934C4.57928 17.9979 4.64807 18.023 4.68756 17.8937C4.77075 18.0644 4.8248 18.0807 4.84228 17.9299C4.91333 18.1023 4.94797 18.1073 4.9402 17.938C4.98973 18.1043 5.01886 18.107 5.01611 17.9401C5.09282 18.1215 5.13749 18.1336 5.12519 17.9494C5.23848 18.1658 5.294 18.186 5.37621 17.9796C5.41247 18.2365 5.47526 18.2645 5.70881 18.2279C5.60328 18.3298 5.66851 18.3663 5.77452 18.4102C5.7975 18.4475 5.86111 18.4919 5.92164 18.5402C6.10339 18.6848 6.25828 18.8633 6.32819 19.0723C6.20471 18.9794 6.07571 18.8929 5.97294 18.8143C5.92439 18.7775 5.87065 18.7366 5.8132 18.6943C5.75574 18.652 5.69489 18.608 5.69101 18.6026C5.57108 18.5216 5.50812 18.4793 5.65621 18.5692C5.38495 18.4004 5.32459 18.3641 4.93292 17.9596C5.21145 18.3023 5.15853 18.277 4.8774 17.9581C5.06482 18.2412 5.02404 18.2312 4.81509 17.9744C4.96415 18.2314 4.93114 18.2246 4.77609 17.9844C4.85539 18.2013 4.81267 18.1845 4.71799 17.945C4.71799 18.1437 4.66636 18.1197 4.60777 17.8523C4.55452 18.0672 4.49448 18.0388 4.41177 17.748C4.36678 17.9808 4.29848 17.951 4.15508 17.748C4.15703 17.893 4.08274 17.8647 3.98094 17.8132C3.92785 17.8132 3.84741 17.7888 3.76439 17.7687C3.18303 17.6267 2.88087 17.366 2.60168 17.366C2.3225 17.366 1.67576 17.366 1.43882 17.5268C1.3388 17.5948 1.17339 17.6196 1.00102 17.6256C1.06301 17.5859 1.13746 17.5349 1.22146 17.4745C1.46746 17.2927 2.20111 17.2674 2.30728 17.245Z" fill="#E0E0E0"/>
<path opacity="0.4" d="M8.00638 19.6419C8.01188 19.3245 8.04506 18.5576 8.13245 18.3755C8.21985 18.1934 9.48711 17.9463 9.56285 17.8226C9.6386 17.699 9.82893 17.2634 9.82893 17.2634C9.82893 17.2634 9.67631 17.858 9.75189 18.1053C9.82747 18.3525 10.7701 19.4773 10.5815 19.6944C10.577 19.5982 10.4821 19.4961 10.3965 19.377C10.267 19.1956 10.0306 18.7939 9.77212 18.4922C9.51365 18.1905 9.72907 17.889 9.0184 18.1295C8.30773 18.3699 8.43705 18.2703 8.28637 18.4512C8.13569 18.6322 8.15689 19.5975 8.20027 19.9394C8.21645 20.0644 8.24041 20.1893 8.25869 20.3035C8.25869 20.3035 8.00104 19.9599 8.00638 19.6419Z" fill="#E0E0E0"/>
<path opacity="0.4" d="M10.5038 20.5399C10.6089 20.4128 11.0755 20.419 11.2836 20.5088C11.4917 20.5985 11.7096 20.4817 11.6997 20.3029C11.6944 20.2084 11.8217 20.0289 11.9425 19.8806C11.9248 20.1926 11.8041 20.4042 11.7093 20.4817C11.5371 20.6224 11.0633 20.5219 10.8479 20.5966C10.6325 20.6712 10.4605 20.6419 10.1374 20.7024C10.0487 20.719 9.99434 20.7098 9.96181 20.6872C9.96618 20.6885 10.3996 20.6668 10.5038 20.5399Z" fill="#E0E0E0"/>
<path opacity="0.4" d="M7.29312 20.843C7.37744 20.7028 7.95507 20.7194 8.1064 20.6541C8.15495 20.6331 8.21176 20.6453 8.26614 20.6715C8.25785 20.6985 8.24263 20.7233 8.2218 20.7436C8.09232 20.8645 7.81265 20.8442 7.59723 20.9045C7.2582 21.0035 6.89881 21.0257 6.54879 20.9692C6.54879 20.9692 7.20864 20.9833 7.29312 20.843Z" fill="#E0E0E0"/>
<path opacity="0.4" d="M1.61118 20.442C1.39576 20.4219 1.18051 20.5425 1.07272 20.4219C1.04939 20.3975 1.02919 20.3706 1.01251 20.3418C1.05446 20.3257 1.09777 20.3128 1.14199 20.3034C1.59127 20.2056 1.90688 20.4898 2.08572 20.4225C2.17942 20.3871 2.32233 20.4225 2.43708 20.4632C2.11355 20.5702 1.81446 20.4609 1.61118 20.442Z" fill="#E0E0E0"/>
<path d="M1.93406 14.8518C1.96433 14.8357 2.0043 14.8224 2.2864 14.7309C2.1006 14.7998 2.15692 14.7913 2.33334 14.7555C2.28187 14.7751 2.35065 14.7688 2.42397 14.7632C2.74475 14.7381 3.15115 14.7254 3.49216 14.6645C3.55729 14.6538 3.62142 14.6384 3.68394 14.6183C3.74868 14.6051 3.80695 14.5862 3.84919 14.5375C3.91247 14.5424 3.96022 14.5176 4.00165 14.4893C4.0545 14.4548 4.11161 14.4263 4.17175 14.4045C4.75941 14.1822 5.97828 14.2401 6.13333 14.1677C6.49887 13.9807 6.89467 13.8506 7.30509 13.7828C7.37841 13.7705 7.45464 13.7598 7.47762 13.7311C7.6126 13.7424 7.69417 13.7357 7.68948 13.5826C7.86265 13.7273 7.94924 13.7255 8.14621 13.6416C8.12743 13.7277 8.21888 13.7323 8.31259 13.7391C8.37506 13.7439 8.4385 13.7504 8.50292 13.7584C8.56766 13.7664 8.63239 13.7759 8.63531 13.7433C8.76479 13.7988 8.83195 13.8119 8.82111 13.6526C8.96774 13.8417 9.03653 13.8586 9.26764 13.767C9.14092 13.8869 9.17588 13.8969 9.33983 13.8558C9.23252 13.8999 9.25405 13.8929 9.3484 13.8381C9.30406 13.9002 9.34015 13.9241 9.39858 13.9334C9.40651 13.9475 9.43677 13.9469 9.46752 13.9297C9.49827 13.9124 9.52919 13.8786 9.56382 13.8239C9.60509 14.0439 9.67841 14.0737 9.88946 14.0616C9.78927 14.1221 9.82634 14.1385 9.927 14.1444C9.89609 14.163 9.92862 14.1707 9.96099 14.1688C10.0037 14.2079 10.0463 14.2372 10.0932 14.2443C10.1402 14.2514 10.1903 14.2365 10.2551 14.1864C10.2607 14.2359 10.2753 14.2841 10.2984 14.329C10.3224 14.3666 10.3509 14.3911 10.3344 14.3636C10.425 14.4272 10.4706 14.4392 10.4477 14.3217C10.4813 14.4018 10.5009 14.4493 10.4962 14.4632C10.4915 14.4771 10.4638 14.4597 10.4036 14.4079C10.4865 14.4871 10.536 14.5329 10.5085 14.5119C10.6017 14.5915 10.6178 14.6042 10.5194 14.5221C10.6548 14.6341 10.6754 14.6515 10.532 14.5341C10.7231 14.6928 10.75 14.7166 10.5713 14.6015C10.8173 14.7774 10.8576 14.8144 11.0763 15.0316C10.888 14.8454 10.891 14.8516 11.0601 15.0467C10.9193 14.8858 10.9444 14.9139 11.0747 15.065C11.017 14.9993 11.062 15.0575 11.1044 15.1175C11.1468 15.1775 11.1839 15.2363 11.2193 15.2975C11.574 15.9099 11.6275 16.6145 11.6215 17.2547C11.6215 17.3187 11.6198 17.3822 11.6201 17.3864C11.6134 17.3882 11.6075 17.3308 11.6003 17.2726C11.5631 16.9735 11.4995 16.6777 11.4102 16.3884C11.3835 16.3029 11.3548 16.2194 11.3244 16.1392C11.294 16.0589 11.2608 15.982 11.2328 15.9061C11.192 15.8367 11.1557 15.7684 11.118 15.7056C10.8914 15.3277 10.6068 15.1478 10.3007 15.4043C10.2261 15.4671 10.1591 15.5189 10.1101 15.5404C10.0366 15.6047 9.98058 15.6378 9.96439 15.6028C9.87716 15.688 9.82925 15.7051 9.81452 15.6682C9.73683 15.726 9.69233 15.7297 9.66028 15.716C9.60315 15.7267 9.55848 15.7198 9.53825 15.7226C9.46461 15.6981 9.41541 15.6833 9.4536 15.7048C9.30891 15.6486 9.25162 15.6292 9.42399 15.6812C9.12473 15.586 9.05514 15.5635 9.44373 15.5017C8.89977 15.5187 8.81399 15.4964 9.28302 15.2901C8.62236 15.4553 8.51635 15.4359 9.10968 15.2063C8.28054 15.4028 8.15058 15.3889 9.02795 15.1896C7.83029 15.3675 7.67864 15.3498 8.20124 15.0408C7.4158 15.305 7.30477 15.2781 7.21996 14.9604C7.11687 15.2174 7.03999 15.1829 6.92524 15.0895C6.91326 15.1104 6.86341 15.0718 6.82376 15.0321C6.62502 14.8336 6.6781 14.608 6.54862 14.5049C6.34923 14.3461 5.91208 14.4791 5.50552 14.6313C5.43771 14.6566 5.37071 14.6825 5.31681 14.6444C5.25401 14.7278 5.19996 14.7439 5.11127 14.6684C5.08893 14.7694 5.03212 14.7791 4.94052 14.7556C4.91737 14.794 4.8596 14.7992 4.80182 14.8031C4.68658 14.8111 4.5728 14.814 4.46679 14.8196C4.40076 14.823 4.33732 14.8276 4.40384 14.7927C4.22127 14.8425 4.1677 14.8531 4.36192 14.7439C4.07383 14.8834 4.03321 14.9033 4.00084 14.9299C3.97818 14.9486 3.94241 14.9642 3.63312 15.0971C3.85 14.9913 3.79319 15.0014 3.59266 15.0501C3.66371 15.0188 3.59121 15.0254 3.51303 15.0304C3.20099 15.0505 2.80237 15.0455 2.48062 15.0428C2.39969 15.0428 2.3246 15.0419 2.29757 15.0662C2.18816 15.0425 2.12714 15.0434 2.16388 15.164C2.02518 15.0475 1.98407 15.0507 1.97339 15.2237C1.92678 15.06 1.89457 15.0726 1.81899 15.2178C1.82401 15.1078 1.78581 15.132 1.72107 15.2012C1.70489 15.1914 1.66151 15.2263 1.61668 15.2659C1.57185 15.3055 1.52524 15.3496 1.52378 15.3912C1.42975 15.4454 1.38071 15.497 1.46568 15.6106C1.28166 15.606 1.23149 15.6634 1.21126 15.8212C1.13146 15.7823 1.08178 15.8438 1.03193 15.9066C0.883678 16.0947 0.740606 16.2939 0.621002 16.4809C0.556021 16.5844 0.480115 16.6816 0.394417 16.7709C0.472923 16.6275 0.534308 16.4764 0.577465 16.3204C0.626177 16.1537 0.697194 15.9935 0.788836 15.8434C0.832049 15.7727 0.878661 15.7062 0.83998 15.7433C0.976416 15.581 1.0274 15.5225 0.927862 15.6242C1.13227 15.4126 1.18585 15.3623 1.37634 15.1859C1.29347 15.268 1.34753 15.2245 1.4189 15.1683L1.48219 15.1244L1.55081 15.0773C1.60746 15.0401 1.65617 15.0097 1.58318 15.0484C1.74729 14.955 1.79018 14.9307 1.61053 15.0272C1.86884 14.8873 1.90396 14.8678 1.93406 14.8518Z" fill="#FDFFBC"/>
<path d="M11.6486 18.1528C11.6172 18.1058 11.607 18.1377 11.6123 18.1779C11.6167 18.1528 11.6366 18.136 11.6915 18.1561C11.6366 18.1596 11.6167 18.2002 11.6236 18.2113C11.6306 18.2223 11.6649 18.2019 11.7387 18.1679C11.6622 18.2049 11.6254 18.2268 11.618 18.2169C11.6105 18.2069 11.6304 18.165 11.6866 18.1564C11.6304 18.1413 11.6099 18.159 11.6057 18.1792C11.6018 18.1436 11.6143 18.1091 11.6486 18.1528Z" fill="#FDFFBC"/>
<path d="M1.53284 16.6935C1.53284 16.6935 1.61247 16.2954 1.95559 16.2794C2.2987 16.2634 2.51703 16.4457 2.43627 16.6935C2.35551 16.9414 2.43514 16.9807 1.95559 17.0536C1.47604 17.1264 0.976577 17.0173 1.14118 16.8864C1.30577 16.7555 1.53284 16.6935 1.53284 16.6935Z" fill="#FDFFBC"/>
<path d="M10.5038 20.2408C10.5038 20.2408 10.2884 20.442 10.1801 20.5884C10.1574 20.6156 10.1274 20.6367 10.0932 20.6498L10.425 20.2163L10.5038 20.2408Z" fill="#F6F7CE"/>
<path d="M2.98024 17.4733L3.06359 17.4979C3.06359 17.5012 3.06213 17.5047 3.06132 17.5082C3.01034 17.4858 2.98024 17.4733 2.98024 17.4733Z" fill="#E0E0E0"/>
<path opacity="0.4" d="M3.90049 18.2662C4.35949 18.1717 4.30818 18.138 3.92461 17.9224C4.19716 18.0694 4.1376 18.0347 3.92542 17.9101C4.01362 17.9654 3.94921 17.931 3.87962 17.895C3.81892 17.8636 3.75289 17.8303 3.68799 17.7983C3.42806 17.6703 3.18319 17.5617 3.061 17.5087C3.061 17.5052 3.06245 17.5017 3.06326 17.4984L3.6642 17.6759L3.90341 17.7807C3.97381 17.811 4.05473 17.8471 4.07464 17.7759C4.22354 17.9212 4.31158 17.9597 4.36208 17.7365C4.48039 18.0338 4.56131 18.069 4.62362 17.8648C4.70212 18.1309 4.76184 18.1571 4.7408 17.9589C4.84632 18.1941 4.87028 18.205 4.76831 17.9801C4.87092 18.205 4.90459 18.237 4.77964 18.0132C4.89294 18.3013 4.87934 18.3696 4.71588 18.5606C4.84843 18.5085 4.83127 18.5791 4.79826 18.6652C4.78866 18.7281 4.77195 18.79 4.74841 18.8496C4.70196 18.9781 4.64709 19.0914 4.583 19.17C4.60916 19.0629 4.62594 18.954 4.63317 18.8443C4.63698 18.7844 4.63649 18.7243 4.63172 18.6645C4.6267 18.604 4.6165 18.5455 4.58818 18.5738C4.58284 18.4338 4.55921 18.3808 4.45951 18.5738C4.49576 18.2836 4.45563 18.2405 3.90049 18.2662Z" fill="#E0E0E0"/>
<path d="M2.08491 15.9175C2.08491 15.9175 2.62321 15.6756 2.51542 16.2794C2.51542 16.2794 2.40779 15.9376 2.08491 15.9175Z" fill="#A0A0A0"/>
<path d="M0.997941 17.214C0.992642 17.2368 0.985501 17.2593 0.976577 17.2811C0.968083 17.3029 0.958137 17.3242 0.946797 17.3449C0.901524 17.4274 0.834735 17.498 0.752582 17.5501C0.71106 17.5762 0.66707 17.5986 0.621162 17.6171C0.633139 17.6136 0.645277 17.6101 0.657092 17.6062C0.669265 17.6028 0.68121 17.5988 0.69286 17.5941C0.716142 17.5848 0.738693 17.5739 0.76035 17.5616C0.848772 17.5122 0.918475 17.4382 0.959745 17.35C0.98085 17.3071 0.993776 17.2611 0.997941 17.214Z" fill="#A0A0A0"/>
<path d="M1.95559 15.8697C2.00915 15.8296 2.0649 15.7922 2.12261 15.7575C2.17973 15.7223 2.23957 15.6912 2.30162 15.6643C2.36275 15.6367 2.42841 15.619 2.49583 15.6118C2.52866 15.6092 2.56171 15.6129 2.59294 15.6227C2.62391 15.633 2.65116 15.6512 2.6716 15.6753C2.71384 15.7231 2.731 15.787 2.7399 15.8493C2.74754 15.9125 2.74894 15.9763 2.7441 16.0398C2.734 16.1676 2.71492 16.2947 2.68697 16.4201C2.70397 16.3578 2.71837 16.2951 2.73132 16.2319C2.74427 16.1688 2.75301 16.105 2.75867 16.0407C2.76509 15.9763 2.76455 15.9115 2.75705 15.8471C2.74815 15.7835 2.7318 15.7169 2.68616 15.6641C2.66338 15.6378 2.63316 15.6179 2.59893 15.6068C2.56505 15.5964 2.52923 15.5927 2.49373 15.5958C2.42436 15.6033 2.357 15.6223 2.29482 15.652C2.17181 15.71 2.05771 15.7832 1.95559 15.8697Z" fill="#A0A0A0"/>
</g>
<defs>
<clipPath id="clip0_1_1703">
<rect width="30" height="21" fill="white"/>
</clipPath>
</defs>
</svg>
