<svg width="1440" height="657" viewBox="0 0 1440 657" fill="none" xmlns="http://www.w3.org/2000/svg">
<path d="M1687.05 527.169C1676.78 511.689 1453.47 243.371 1453.47 243.371C1453.47 243.371 1438.07 245.951 1412.41 227.891C1386.74 209.831 1289.21 85.9919 1289.21 85.9919C1289.21 85.9919 1258.4 91.1519 1243 85.9919C1227.6 80.8319 1212.2 52.4521 1207.07 52.4521C1201.94 52.4521 1181.4 93.7318 1166 80.8319C1153.17 70.512 1112.1 0.852539 1112.1 0.852539C1112.1 0.852539 1035.1 104.052 1022.27 122.112C1009.43 142.751 965.799 212.411 955.532 235.631C945.265 256.271 917.031 294.97 896.498 315.61C875.964 336.25 816.929 426.549 806.663 431.709C796.396 436.869 696.294 527.169 696.294 527.169H1687.05Z" fill="#DBDBDB"/>
<path d="M806.663 431.709C816.929 426.549 878.531 333.67 896.498 315.61C917.031 294.97 945.265 256.271 955.532 235.631C965.799 214.991 1009.43 142.751 1022.27 122.112C1029.97 109.212 1089 31.8123 1112.1 0.852539C1104.4 16.3324 1101.83 36.9723 1091.57 57.6121C1078.73 83.4119 1060.77 111.792 1060.77 111.792C1063.33 135.012 1047.93 165.971 1035.1 191.771C1024.83 220.151 994.033 289.81 994.033 289.81L1096.7 189.191C1096.7 189.191 1081.3 243.371 1065.9 264.011C1050.5 284.65 1014.57 356.89 1014.57 356.89L1071.03 297.55C1071.03 297.55 1024.83 364.63 1009.43 395.59C994.033 426.549 986.333 449.769 976.066 465.249C963.232 480.729 950.399 511.689 950.399 511.689L1040.23 374.95C1040.23 374.95 965.799 503.949 970.932 503.949C976.066 503.949 1029.97 434.289 1047.93 413.649C1063.33 390.43 1099.27 338.83 1099.27 338.83C1099.27 338.83 1050.5 436.869 1024.83 470.409C1001.73 503.949 1006.87 514.269 1006.87 514.269C1006.87 514.269 1065.9 442.029 1076.17 429.129C1083.87 413.649 1071.03 452.349 1058.2 470.409C1045.37 485.889 1032.53 529.749 1032.53 529.749H698.861C698.861 527.169 796.396 436.869 806.663 431.709Z" fill="url(#paint0_linear_1_3508)"/>
<path d="M1099.27 57.6122C1099.27 57.6122 1045.37 129.852 1032.53 158.231C1032.53 155.651 1076.17 93.7319 1099.27 57.6122Z" fill="white"/>
<g opacity="0.3">
<path d="M1099.27 186.611C1109.54 220.151 1132.64 287.231 1150.6 305.29C1168.57 325.93 1217.34 367.21 1209.64 362.05C1204.5 356.89 1173.7 343.99 1173.7 343.99C1173.7 343.99 1240.44 411.07 1245.57 413.65C1250.7 418.81 1353.37 524.589 1353.37 524.589C1353.37 524.589 1294.34 452.349 1309.74 460.089C1325.14 467.829 1389.31 524.589 1389.31 524.589H1414.97C1414.97 524.589 1381.61 501.369 1376.47 493.629C1368.77 488.469 1345.67 467.829 1340.54 460.089C1335.41 452.349 1314.87 431.709 1309.74 439.449C1307.17 444.609 1304.61 454.929 1294.34 439.449C1284.07 423.97 1255.84 385.27 1258.4 395.59C1260.97 405.91 1260.97 411.07 1245.57 387.85C1230.17 364.63 1176.27 302.71 1186.54 313.03C1194.24 323.35 1183.97 328.51 1173.7 315.61C1163.44 302.71 1119.8 243.371 1132.64 253.691C1145.47 264.011 1196.8 282.071 1217.34 307.87C1237.87 333.67 1263.54 367.21 1253.27 356.89C1243 346.57 1227.6 336.25 1232.74 343.99C1237.87 351.73 1289.21 398.17 1291.77 385.27C1294.34 372.37 1361.07 452.349 1361.07 452.349C1361.07 452.349 1296.91 367.21 1302.04 369.79C1307.17 372.37 1417.54 483.309 1412.41 480.729C1404.71 478.149 1394.44 480.729 1394.44 480.729L1432.94 527.169H1497.11C1497.11 527.169 1404.71 416.23 1391.87 408.49C1379.04 398.17 1361.07 380.11 1350.81 367.21C1337.97 354.31 1271.24 310.45 1253.27 289.811C1253.27 289.811 1312.31 351.73 1307.17 349.15C1302.04 349.15 1294.34 354.31 1294.34 362.05C1296.91 369.79 1273.8 331.09 1266.1 325.93C1258.4 323.35 1225.04 284.651 1214.77 284.651C1204.5 284.651 1148.04 233.051 1148.04 233.051L1235.3 279.491C1235.3 279.491 1168.57 238.211 1155.74 227.891C1142.9 214.991 1109.54 178.871 1099.27 186.611Z" fill="white"/>
<path d="M1237.87 158.232C1222.47 135.012 1212.2 116.952 1201.94 111.792C1191.67 106.632 1194.24 119.532 1199.37 129.852C1204.5 140.172 1260.97 225.311 1278.94 243.371C1294.34 261.431 1345.67 307.87 1358.51 318.19C1373.91 328.51 1476.58 465.249 1476.58 465.249C1476.58 465.249 1345.67 325.93 1314.87 302.71C1284.07 279.491 1201.94 171.131 1189.1 142.752C1176.27 116.952 1137.77 57.6123 1117.24 11.1726C1130.07 31.8125 1155.74 73.0921 1168.57 83.4121C1173.7 88.572 1178.84 85.992 1183.97 80.8321L1260.97 158.232L1191.67 75.6721C1199.37 65.3522 1207.07 55.0323 1209.64 55.0323C1214.77 55.0323 1230.17 83.4121 1245.57 88.572C1245.57 88.572 1286.64 153.072 1299.47 176.291C1312.31 199.511 1358.51 251.111 1376.47 264.011C1391.87 276.911 1435.51 331.09 1438.07 343.99C1443.21 356.89 1522.78 457.509 1525.34 457.509C1527.91 457.509 1520.21 436.869 1509.94 421.39C1499.68 403.33 1612.61 529.749 1612.61 529.749H1558.71C1558.71 529.749 1317.44 258.851 1309.74 245.951C1299.47 230.471 1255.84 178.871 1237.87 158.232Z" fill="white"/>
<path d="M1099.27 338.83C1122.37 385.27 1166 439.449 1166 439.449L1178.84 421.39L1250.7 527.169H1217.34L1173.7 467.829L1189.1 506.529C1189.1 506.529 1130.07 416.23 1132.64 421.39C1135.2 426.55 1178.84 527.169 1178.84 527.169C1178.84 527.169 1112.1 426.55 1109.54 413.65C1109.54 398.17 1089 369.79 1099.27 338.83Z" fill="white"/>
<path d="M1078.73 423.969C1099.27 447.189 1137.77 511.689 1137.77 511.689L1091.57 465.249L1099.27 491.049C1099.27 491.049 1063.33 457.509 1078.73 423.969Z" fill="white"/>
<path d="M1563.84 444.609C1558.71 436.869 1422.67 279.49 1422.67 279.49L1545.88 390.43C1545.88 390.43 1443.21 274.33 1427.81 253.691C1420.11 243.371 1489.41 315.61 1499.68 315.61C1509.94 318.19 1456.04 243.371 1456.04 243.371C1456.04 243.371 1671.65 501.369 1689.61 524.589C1689.61 524.589 1625.44 465.249 1594.64 436.869C1620.31 465.249 1669.08 524.589 1669.08 524.589H1633.14L1471.44 351.73C1466.31 354.31 1566.41 452.349 1563.84 444.609Z" fill="white"/>
</g>
<g clip-path="url(#clip0_1_3508)">
<path d="M494.819 41.2499C524.135 82.9961 533.907 95.2744 551.009 124.742C568.11 154.21 568.11 151.754 587.654 178.767C607.198 203.323 621.857 257.348 629.186 267.17C636.515 279.449 682.932 350.663 695.148 348.207C704.92 345.751 729.35 372.764 763.552 416.966C797.755 461.167 809.97 485.724 839.286 520.103C868.603 554.482 944.337 657.62 944.337 657.62H294.49L375.11 291.727L494.819 41.2499Z" fill="#EFEFEF"/>
<path d="M548.566 348.207C580.325 397.32 631.629 451.345 643.844 470.99C656.059 490.635 714.692 552.027 726.907 571.672C739.122 591.317 785.54 657.62 785.54 657.62H643.844L472.832 640.431L485.047 475.902L548.566 348.207Z" fill="white"/>
<g opacity="0.3">
<path d="M636.515 485.724C658.502 510.28 678.046 534.837 695.147 554.482C712.249 574.128 722.021 586.406 722.021 586.406C722.021 586.406 712.249 574.128 695.147 554.482C678.046 534.837 658.502 510.28 636.515 485.724C616.971 458.712 594.983 434.155 580.325 414.51C563.224 394.864 553.452 382.586 553.452 382.586C553.452 382.586 563.224 394.864 580.325 414.51C594.983 434.155 614.527 458.712 636.515 485.724Z" fill="white"/>
<path d="M560.781 525.014C560.781 525.014 614.528 603.595 653.616 657.62H656.059H675.603C629.186 606.051 560.781 525.014 560.781 525.014Z" fill="white"/>
<path d="M636.515 529.926C643.844 537.293 648.73 547.115 656.059 554.482C663.388 561.849 668.274 569.216 673.16 574.128C682.932 586.406 690.262 593.773 690.262 593.773C690.262 593.773 682.932 586.406 675.603 571.672C670.717 564.305 665.831 559.394 658.502 549.571C651.173 544.66 643.844 537.293 636.515 529.926C631.629 520.103 626.743 510.28 619.414 502.913C612.084 495.546 607.198 488.179 602.312 483.268C592.54 470.99 585.211 463.623 585.211 463.623C585.211 463.623 592.54 470.99 599.869 485.724C604.755 493.091 609.641 498.002 616.971 507.825C621.857 515.192 629.186 522.559 636.515 529.926Z" fill="white"/>
<path d="M680.489 583.95C680.489 583.95 702.477 615.874 729.35 652.709C675.603 591.317 609.641 512.736 609.641 512.736C609.641 512.736 665.831 593.773 709.806 655.164H744.008C709.806 618.329 680.489 583.95 680.489 583.95Z" fill="white"/>
</g>
<g opacity="0.3">
<path d="M594.983 281.904C590.097 274.537 582.768 267.17 575.439 259.803C570.553 252.436 563.224 245.069 558.338 237.702C553.452 230.335 546.123 222.968 543.68 218.057C533.908 205.779 529.021 198.412 529.021 198.412C529.021 198.412 536.351 205.779 546.123 215.601C551.009 220.513 555.895 227.88 563.224 235.247C568.11 242.614 575.439 249.981 582.768 257.348C585.211 264.715 590.097 272.081 594.983 281.904C602.312 286.815 607.198 294.182 612.085 299.094C621.857 311.372 626.743 318.739 626.743 318.739C626.743 318.739 619.414 311.372 609.641 301.549C607.198 294.182 599.869 289.271 594.983 281.904Z" fill="white"/>
<path d="M577.882 316.283C558.338 291.727 538.793 269.626 524.135 252.436C509.477 235.247 499.705 222.968 499.705 222.968C499.705 222.968 509.477 235.247 524.135 252.436C541.236 267.17 560.781 291.727 577.882 316.283C597.426 338.384 616.971 362.941 631.629 380.13C646.287 397.32 656.059 409.598 656.059 409.598C656.059 409.598 646.287 397.32 631.629 380.13C619.414 362.941 597.426 338.384 577.882 316.283Z" fill="white"/>
<path d="M673.16 478.357C687.818 498.002 700.034 510.28 700.034 510.28C700.034 510.28 687.818 498.002 673.16 478.357C656.059 458.712 634.072 434.155 614.528 409.598C592.54 385.042 572.996 358.03 555.895 340.84C541.237 321.195 529.021 308.917 529.021 308.917C529.021 308.917 538.794 321.195 555.895 340.84C570.553 360.485 592.54 385.042 614.528 409.598C636.515 434.155 656.059 458.712 673.16 478.357Z" fill="white"/>
<path d="M665.831 385.042C673.16 394.864 678.046 402.231 682.932 407.143C687.818 412.054 690.262 416.965 690.262 416.965C690.262 416.965 687.818 414.51 682.932 409.598C678.046 404.687 670.717 397.32 665.831 385.042C656.059 377.675 646.287 367.852 638.958 355.574C629.186 343.296 619.414 331.017 609.641 318.739C599.869 306.461 590.097 294.183 580.325 281.904C570.553 269.626 563.224 259.803 555.895 249.981C548.566 240.158 543.68 232.791 538.794 227.88C533.907 222.968 531.464 218.057 531.464 218.057C531.464 218.057 533.907 220.513 538.794 225.424C543.68 230.335 551.009 237.702 558.338 247.525C565.667 257.348 575.439 267.17 585.211 279.449C594.983 291.727 604.755 304.005 614.527 316.283C624.3 328.562 634.072 340.84 643.844 353.118C651.173 365.397 658.502 377.675 665.831 385.042Z" fill="white"/>
<path d="M675.603 360.485C670.717 355.574 665.831 348.207 658.502 340.84C653.616 333.473 646.287 326.106 638.958 318.739C631.629 311.372 626.743 304.005 621.857 296.638C616.97 289.271 609.641 281.904 607.198 276.993C597.426 264.715 592.54 257.348 592.54 257.348C592.54 257.348 599.869 264.715 609.641 274.537C614.527 279.448 619.414 286.815 626.743 294.182C631.629 301.549 638.958 308.916 646.287 316.283C653.616 323.65 658.502 331.017 663.388 338.384C665.831 348.207 670.717 355.574 675.603 360.485C685.375 370.308 692.705 377.675 692.705 377.675C692.705 377.675 685.375 372.763 675.603 360.485Z" fill="white"/>
<path d="M932.122 657.62C932.122 657.62 929.679 655.164 929.679 652.709C924.793 647.797 917.463 640.43 910.134 630.608C902.805 620.785 893.033 610.962 883.261 598.684C873.489 586.406 863.717 574.128 851.502 559.394C841.729 547.115 829.514 532.381 819.742 520.103C809.97 507.825 800.198 495.547 792.869 485.724C785.54 475.901 778.211 466.079 773.325 461.167C768.438 456.256 765.995 451.345 765.995 451.345C765.995 451.345 768.438 453.8 773.325 461.167C778.211 466.079 785.54 473.446 792.869 483.268C800.198 493.091 809.97 502.914 819.742 515.192C829.514 527.47 839.286 539.748 851.502 554.482C861.274 566.761 873.489 581.495 883.261 593.773C893.033 606.051 902.805 618.329 910.134 628.152C917.463 637.975 924.793 647.797 929.679 652.709C932.122 655.164 932.122 655.164 932.122 657.62Z" fill="white"/>
<path d="M700.034 495.546C712.249 510.28 724.464 527.47 736.679 539.748C748.894 554.482 758.666 566.761 768.438 579.039C778.211 591.317 785.54 601.14 790.426 608.507C795.312 615.874 797.755 618.329 797.755 618.329C797.755 618.329 795.312 615.874 787.983 608.507C783.097 601.14 773.325 593.773 763.552 581.494C753.78 569.216 741.565 556.938 729.35 542.204C717.135 527.47 704.92 512.736 692.705 498.002C680.489 483.268 668.274 466.079 656.059 453.8C643.844 439.066 634.072 426.788 624.3 414.51C614.528 402.231 607.198 392.409 602.312 385.042C597.426 377.675 594.983 375.219 594.983 375.219C594.983 375.219 597.426 377.675 604.755 385.042C609.641 392.409 619.414 399.776 629.186 412.054C638.958 424.332 651.173 436.611 663.388 451.345C675.603 466.079 687.818 480.813 700.034 495.546Z" fill="white"/>
<path d="M731.793 470.99C731.793 470.99 829.514 586.406 890.59 657.62H861.274C809.97 583.95 731.793 470.99 731.793 470.99Z" fill="white"/>
<path d="M836.843 586.406C827.071 574.128 817.299 559.394 807.527 549.571C797.755 537.293 787.983 525.014 780.654 515.192C773.325 505.369 765.996 498.002 763.552 490.635C758.666 485.724 756.223 480.813 756.223 480.813C756.223 480.813 758.666 483.268 763.552 488.18C768.439 493.091 775.768 500.458 783.097 510.281C790.426 520.103 800.198 529.926 809.97 542.204C819.742 554.482 829.514 566.761 841.729 579.039C851.502 591.317 861.274 606.051 871.046 615.874C880.818 628.152 890.59 640.43 897.919 650.253L900.362 652.709H897.919C890.59 642.886 880.818 633.063 871.046 620.785C858.831 613.418 849.059 598.684 836.843 586.406Z" fill="white"/>
<path d="M807.527 532.381C819.742 547.115 829.514 559.394 839.286 571.672C849.059 583.95 856.388 593.773 861.274 598.684C866.16 606.051 868.603 608.507 868.603 608.507C868.603 608.507 866.16 606.051 858.831 598.684C853.945 591.317 844.173 583.95 836.843 571.672C827.071 559.394 817.299 547.115 805.084 532.381C792.869 517.647 780.654 502.914 768.438 488.18C756.223 473.446 744.008 458.712 731.793 443.978C719.578 429.244 709.806 416.965 700.034 404.687C690.261 392.409 682.932 382.586 678.046 377.675C673.16 370.308 670.717 367.852 670.717 367.852C670.717 367.852 673.16 370.308 680.489 377.675C685.375 385.042 695.148 392.409 702.477 404.687C712.249 416.965 722.021 429.244 734.236 443.978C746.451 458.712 758.666 473.446 770.882 488.18C783.097 502.914 795.312 520.103 807.527 532.381Z" fill="white"/>
<path d="M775.768 559.394C763.552 544.66 751.337 529.926 739.122 515.192C726.907 500.458 717.135 488.179 707.363 475.901C697.591 463.623 690.262 453.8 685.375 448.889C680.489 441.522 678.046 439.066 678.046 439.066C678.046 439.066 680.489 441.522 687.818 448.889C692.705 456.256 702.477 463.623 709.806 475.901C719.578 488.179 729.35 500.458 741.565 515.192C753.78 529.926 765.995 544.66 778.211 559.394C790.426 574.127 802.641 588.861 814.856 603.595C827.071 618.329 836.843 630.608 846.616 642.886C851.502 650.253 856.388 655.164 858.831 660.076H856.388C851.502 655.164 849.059 650.253 844.173 645.342C834.4 633.063 824.628 620.785 812.413 606.051C802.641 591.317 790.426 574.127 775.768 559.394Z" fill="white"/>
</g>
<path d="M602.312 610.962C599.869 608.507 597.426 606.051 594.983 601.14L570.553 620.785L587.654 593.773C587.654 593.773 587.654 591.317 585.211 591.317L543.68 640.43L580.325 583.95C572.996 576.583 565.667 566.761 560.781 561.849C543.68 547.115 555.895 512.736 548.566 500.458C541.237 490.635 543.68 480.812 536.35 470.99L504.591 505.369C504.591 505.369 521.692 475.901 526.578 466.079C531.464 461.167 529.021 461.167 531.464 458.712C526.578 446.433 526.578 431.699 533.907 421.877C543.68 409.598 548.566 348.207 548.566 348.207L416.642 483.268C416.642 483.268 455.73 416.965 463.06 404.687C470.389 392.409 455.73 328.562 465.503 326.106C475.275 323.65 458.173 269.626 455.73 249.981C455.73 240.158 458.173 222.968 460.617 203.323L411.756 262.259C411.756 262.259 448.401 208.234 472.832 164.033C477.718 154.21 480.161 141.932 485.047 134.565C489.933 124.742 492.376 112.464 494.819 100.186L463.06 134.565L497.262 78.0847L485.047 87.9073C485.047 87.9073 499.705 65.8064 497.262 53.5281C497.262 48.6168 497.262 46.1611 494.819 43.7054C492.376 36.3385 392.212 154.21 367.781 173.855C350.68 188.589 274.946 259.803 262.731 281.904C250.516 304.005 250.516 419.421 213.87 439.066C177.225 458.712 -30.4329 603.595 -35.319 610.962L-57.3063 657.62H641.401C631.629 635.519 607.198 615.874 602.312 610.962Z" fill="#B5B0B0"/>
<path d="M602.312 610.962C599.869 608.507 597.426 606.051 594.983 601.14L570.553 620.785L587.654 593.773C587.654 593.773 587.654 591.317 585.211 591.317L543.68 640.43L580.325 583.95C572.996 576.583 565.667 566.761 560.781 561.849C543.68 547.115 555.895 512.736 548.566 500.458C541.237 490.635 543.68 480.812 536.35 470.99L504.591 505.369C504.591 505.369 521.692 475.901 526.578 466.079C531.464 461.167 529.021 461.167 531.464 458.712C526.578 446.433 526.578 431.699 533.907 421.877C543.68 409.598 548.566 348.207 548.566 348.207L416.642 483.268C416.642 483.268 455.73 416.965 463.06 404.687C470.389 392.409 455.73 328.562 465.503 326.106C475.275 323.65 458.173 269.626 455.73 249.981C455.73 240.158 458.173 222.968 460.617 203.323L411.756 262.259C411.756 262.259 448.401 208.234 472.832 164.033C477.718 154.21 480.161 141.932 485.047 134.565C489.933 124.742 492.376 112.464 494.819 100.186L463.06 134.565L497.262 78.0847L485.047 87.9073C485.047 87.9073 499.705 65.8064 497.262 53.5281C497.262 48.6168 497.262 46.1611 494.819 43.7054C492.376 36.3385 392.212 154.21 367.781 173.855C350.68 188.589 274.946 259.803 262.731 281.904C250.516 304.005 186.997 350.663 165.01 397.32C145.465 436.611 -27.9899 603.595 -32.8759 610.962L-54.8632 657.62H643.844C631.629 635.519 607.198 615.874 602.312 610.962Z" fill="url(#paint1_linear_1_3508)"/>
<g opacity="0.5">
<path d="M370.224 222.969C377.553 215.602 382.44 208.235 389.769 200.868C397.098 193.501 401.984 183.678 409.313 176.311C416.642 168.944 421.528 161.577 426.414 156.666C436.186 144.388 443.515 137.021 443.515 137.021C443.515 137.021 436.186 144.388 426.414 156.666C421.528 161.577 414.199 168.944 409.313 176.311C401.984 183.678 397.098 191.045 389.769 198.412C379.996 205.779 375.11 215.602 370.224 222.969C362.895 227.88 355.566 235.247 350.68 242.614C340.908 254.892 336.022 262.259 336.022 262.259C336.022 262.259 343.351 254.892 353.123 242.614C358.009 237.703 362.895 230.336 370.224 222.969Z" fill="#B5B0B0"/>
<path d="M160.124 603.596C160.124 603.596 169.896 591.317 186.997 571.672C194.326 561.849 204.098 552.027 213.87 539.749C223.642 527.47 233.415 515.192 245.63 502.914C255.402 490.635 267.617 478.357 277.389 466.079C287.161 453.8 296.933 443.978 304.262 434.155C318.921 414.51 331.136 402.232 331.136 402.232C331.136 402.232 321.364 414.51 304.262 434.155C296.933 443.978 287.161 453.8 277.389 466.079C267.617 478.357 257.845 490.635 245.63 502.914C235.858 515.192 223.642 527.47 213.87 539.749C204.098 552.027 194.326 561.849 186.997 571.672C169.896 588.862 160.124 603.596 160.124 603.596Z" fill="#B5B0B0"/>
<path d="M387.326 259.804C409.313 235.247 428.857 208.235 445.958 191.045C460.616 171.4 472.832 159.122 472.832 159.122C472.832 159.122 460.616 171.4 443.515 188.589C428.857 208.235 406.87 232.791 387.326 259.804C365.338 284.36 343.351 308.917 328.693 328.562C314.035 348.207 301.819 360.486 301.819 360.486C301.819 360.486 311.592 348.207 328.693 328.562C343.351 308.917 365.338 284.36 387.326 259.804Z" fill="#B5B0B0"/>
<path d="M226.085 478.357C211.427 498.002 199.212 510.281 199.212 510.281C199.212 510.281 208.984 498.002 226.085 478.357C243.187 461.168 262.731 434.155 284.718 409.599C306.705 385.042 326.25 358.03 343.351 340.84C358.009 321.195 370.224 308.917 370.224 308.917C370.224 308.917 360.452 321.195 343.351 340.84C328.693 360.486 306.705 385.042 284.718 409.599C262.731 434.155 240.744 458.712 226.085 478.357Z" fill="#B5B0B0"/>
<path d="M230.972 650.253C230.972 650.253 233.415 647.797 240.744 640.43C245.63 633.063 255.402 625.696 265.174 613.418C274.946 601.14 287.161 588.862 299.376 574.128C311.592 559.394 323.807 544.66 336.022 529.926C348.237 515.192 360.452 498.002 372.667 485.724C384.883 470.99 394.655 458.712 404.427 446.433C414.199 434.155 421.528 424.333 426.414 416.966C431.3 409.599 433.743 407.143 433.743 407.143C433.743 407.143 431.3 409.599 423.971 416.966C419.085 424.333 409.313 431.7 399.541 443.978C389.769 456.256 377.553 468.534 365.338 483.268C353.123 498.002 340.908 512.736 328.693 527.47C316.478 542.204 304.262 559.394 292.047 571.672C279.832 586.406 270.06 598.684 260.288 610.963C250.516 623.241 243.187 633.063 238.301 640.43C233.415 647.797 230.972 650.253 230.972 650.253Z" fill="#B5B0B0"/>
<path d="M318.921 439.067C340.908 414.51 360.452 387.498 377.553 370.308C392.212 350.663 404.427 338.385 404.427 338.385C404.427 338.385 394.655 350.663 377.553 370.308C360.452 387.498 340.908 412.054 318.921 439.067C296.933 463.623 274.946 488.18 260.288 507.825C245.63 527.47 233.415 539.749 233.415 539.749C233.415 539.749 243.187 527.47 260.288 507.825C277.389 488.18 299.376 463.623 318.921 439.067Z" fill="#B5B0B0"/>
<path d="M223.642 544.66C233.415 532.382 245.63 520.103 257.845 505.369C270.06 490.635 282.275 475.901 294.49 461.168C306.706 446.434 318.921 429.244 331.136 416.966C343.351 402.232 353.123 389.953 362.895 377.675C372.667 365.397 379.996 355.574 384.883 348.207C389.769 340.84 392.212 338.385 392.212 338.385C392.212 338.385 389.769 340.84 382.44 348.207C377.553 355.574 367.781 362.941 358.009 375.22C348.237 387.498 336.022 399.776 323.807 414.51C311.592 429.244 299.376 443.978 287.161 458.712C274.946 473.446 262.731 490.635 250.516 502.914C238.301 517.648 228.529 529.926 218.756 542.204C208.984 554.483 201.655 564.305 196.769 571.672C191.883 576.583 189.44 581.495 189.44 581.495C189.44 581.495 191.883 579.039 199.212 571.672C204.098 564.305 213.87 554.483 223.642 544.66Z" fill="#B5B0B0"/>
<path d="M306.706 522.559C294.49 537.293 284.718 552.027 274.946 561.85C265.174 574.128 257.845 583.951 252.959 591.317C248.073 598.684 245.63 603.596 245.63 603.596C245.63 603.596 248.073 598.684 255.402 593.773C260.288 586.406 270.06 579.039 279.832 566.761C289.604 554.483 301.819 542.204 311.592 527.47C323.807 512.736 336.022 498.003 348.237 483.269C360.452 468.535 372.667 451.345 384.883 436.611C397.098 421.877 406.87 407.143 416.642 397.321C426.414 385.042 433.743 375.22 438.629 367.853C443.515 360.486 445.958 355.574 445.958 355.574C445.958 355.574 443.515 360.486 436.186 365.397C431.3 372.764 421.528 380.131 411.756 392.409C401.984 404.688 389.769 416.966 379.997 431.7C367.781 446.434 355.566 461.168 343.351 475.902C331.136 493.091 318.921 507.825 306.706 522.559Z" fill="#B5B0B0"/>
<path d="M294.49 335.929C287.161 345.752 279.832 355.574 274.946 360.486C270.06 365.397 267.617 370.308 267.617 370.308C267.617 370.308 270.06 367.853 274.946 360.486C279.832 355.574 287.161 348.207 294.49 335.929C304.262 328.562 314.035 316.284 323.807 304.005C333.579 291.727 345.794 279.449 355.566 264.715C365.338 252.437 377.553 237.703 387.326 225.424C397.098 213.146 406.87 200.868 414.199 191.045C421.528 181.223 428.857 171.4 433.743 166.489C438.629 161.577 441.072 156.666 441.072 156.666C441.072 156.666 436.186 161.577 431.3 166.489C426.414 171.4 419.085 181.223 411.756 188.59C404.427 198.412 394.655 210.69 384.882 222.969C375.11 235.247 362.895 247.525 353.123 262.259C343.351 274.538 331.136 289.272 321.364 301.55C309.148 313.828 301.819 326.106 294.49 335.929Z" fill="#B5B0B0"/>
<path d="M282.275 308.917C287.161 304.006 294.49 296.639 299.376 289.272C306.705 281.905 311.592 274.538 318.921 267.171C326.25 259.804 331.136 249.981 338.465 242.614C345.794 235.247 350.68 227.88 355.566 222.969C365.338 210.691 372.667 203.324 372.667 203.324C372.667 203.324 365.338 210.691 355.566 222.969C350.68 227.88 343.351 235.247 338.465 242.614C331.136 249.981 326.25 257.348 318.921 264.715C311.592 272.082 306.705 281.905 299.376 289.272C292.047 294.183 287.161 301.55 282.275 308.917C272.503 318.74 265.174 328.562 265.174 328.562C265.174 328.562 272.503 321.195 282.275 308.917Z" fill="#B5B0B0"/>
<path d="M-35.319 657.62C-35.319 657.62 -32.8759 655.165 -32.8759 652.709C-27.9899 647.798 -20.6608 640.431 -13.3317 630.608C-6.00257 620.785 3.76954 610.963 13.5417 598.684C23.3138 586.406 33.0859 574.128 45.3011 559.394C55.0732 547.116 67.2883 532.382 77.0605 520.103C86.8326 507.825 96.6047 495.547 103.934 485.724C111.263 475.902 118.592 466.079 123.478 461.168C128.364 456.256 130.807 451.345 130.807 451.345C130.807 451.345 128.364 453.801 123.478 461.168C118.592 466.079 111.263 473.446 103.934 483.269C96.6047 493.091 86.8326 502.914 77.0605 515.192C67.2883 527.47 57.5162 539.749 45.3011 554.483C35.529 566.761 23.3138 581.495 13.5417 593.773C3.76954 606.051 -6.00257 618.33 -13.3317 628.152C-20.6608 637.975 -27.9899 647.798 -32.8759 652.709C-32.8759 655.165 -35.319 657.62 -35.319 657.62Z" fill="#B5B0B0"/>
<path d="M196.769 495.547C184.554 510.281 172.339 527.47 160.124 539.749C147.908 554.482 138.136 566.761 128.364 579.039C118.592 591.317 111.263 601.14 106.377 608.507C101.491 615.874 99.0478 618.33 99.0478 618.33C99.0478 618.33 101.491 615.874 108.82 608.507C113.706 601.14 123.478 593.773 133.25 581.495C143.022 569.216 155.237 556.938 167.453 542.204C179.668 527.47 191.883 512.736 204.098 498.002C216.313 483.268 228.528 466.079 240.744 453.801C252.959 439.067 262.731 426.788 272.503 414.51C282.275 402.232 289.604 392.409 294.49 385.042C299.376 377.675 301.819 375.219 301.819 375.219C301.819 375.219 299.376 377.675 292.047 385.042C287.161 392.409 277.389 399.776 267.617 412.054C257.845 424.333 245.63 436.611 233.415 451.345C223.642 466.079 211.427 480.813 196.769 495.547Z" fill="#B5B0B0"/>
<path d="M230.972 657.62H262.731C311.592 588.862 397.098 463.623 397.098 463.623C397.098 463.623 287.161 591.317 230.972 657.62Z" fill="#B5B0B0"/>
<path d="M411.756 657.62H433.743C470.389 603.596 529.021 520.103 529.021 520.103C529.021 520.103 455.73 606.051 411.756 657.62Z" fill="#B5B0B0"/>
<path d="M348.237 436.611C348.237 436.611 294.49 498.002 245.63 559.394C274.946 515.192 299.376 480.813 299.376 480.813C299.376 480.813 206.541 591.317 147.909 660.076H194.326C233.415 603.596 348.237 436.611 348.237 436.611Z" fill="#B5B0B0"/>
<path d="M165.01 473.446C165.01 473.446 67.2884 588.862 6.21259 660.076H35.529C86.8327 586.406 165.01 473.446 165.01 473.446Z" fill="#B5B0B0"/>
<path d="M467.946 510.281C467.946 510.281 401.984 588.862 348.237 650.253C375.11 610.962 397.098 581.495 397.098 581.495C397.098 581.495 365.338 618.329 328.693 660.076H365.338C409.313 593.773 467.946 510.281 467.946 510.281Z" fill="#B5B0B0"/>
<path d="M59.9593 588.861C69.7315 576.583 79.5035 561.849 89.2757 552.027C99.0478 539.748 108.82 527.47 116.149 517.647C123.478 507.825 130.807 500.458 133.25 493.091C138.136 488.179 140.579 483.268 140.579 483.268C140.579 483.268 138.136 485.724 133.25 490.635C128.364 495.546 121.035 502.913 113.706 512.736C106.377 522.559 96.6048 532.381 86.8327 544.66C77.0606 556.938 67.2884 569.216 55.0732 581.495C45.3011 593.773 35.529 608.507 25.7569 618.329C15.9847 630.608 6.21263 642.886 -1.11647 652.709L-3.55951 655.164H-1.11647C6.21263 645.342 15.9847 635.519 25.7569 623.241C40.4151 613.418 50.1872 601.14 59.9593 588.861Z" fill="#B5B0B0"/>
<path d="M406.87 569.217C411.756 564.305 416.642 556.938 423.971 549.571C428.857 542.204 436.186 534.837 443.515 525.015C450.844 517.648 455.73 507.825 463.059 500.458C467.946 493.091 475.275 485.724 480.161 478.357C489.933 466.079 494.819 456.256 494.819 456.256C494.819 456.256 487.49 463.623 477.718 475.902C472.832 480.813 467.946 488.18 460.617 495.547C455.73 502.914 448.401 510.281 441.072 520.103C433.743 527.47 428.857 537.293 421.528 544.66C416.642 554.483 409.313 561.85 406.87 569.217C397.098 581.495 389.769 588.862 389.769 588.862C389.769 588.862 397.098 581.495 406.87 569.217Z" fill="#B5B0B0"/>
<path d="M389.769 579.039C399.541 566.761 409.313 556.938 416.642 547.116C423.971 537.293 428.857 532.382 428.857 532.382C428.857 532.382 423.971 537.293 416.642 547.116C409.313 554.483 399.541 566.761 389.769 579.039C379.996 588.862 370.224 601.14 362.895 610.963C355.566 620.785 350.68 625.697 350.68 625.697C350.68 625.697 355.566 620.785 362.895 610.963C370.224 601.14 379.996 591.317 389.769 579.039Z" fill="#B5B0B0"/>
<path d="M89.2757 534.837C77.0605 549.571 67.2884 561.849 57.5163 574.128C47.7441 586.406 40.4151 596.229 35.529 601.14C30.6429 608.507 28.1999 610.963 28.1999 610.963C28.1999 610.963 30.6429 608.507 37.972 601.14C42.8581 593.773 52.6302 586.406 59.9593 574.128C69.7314 561.849 79.5035 549.571 91.7187 534.837C103.934 520.103 116.149 505.369 128.364 490.635C140.579 475.901 152.794 461.167 165.01 446.434C177.225 431.7 186.997 419.421 196.769 407.143C206.541 394.865 213.87 385.042 218.756 380.131C223.642 372.764 226.085 370.308 226.085 370.308C226.085 370.308 223.642 372.764 216.313 380.131C211.427 387.498 201.655 394.865 194.326 407.143C184.554 419.421 174.782 431.7 162.567 446.434C150.351 461.167 138.136 475.901 125.921 490.635C113.706 505.369 101.491 520.103 89.2757 534.837Z" fill="#B5B0B0"/>
<path d="M358.009 579.039C358.009 579.039 367.781 566.761 384.882 547.115C399.541 527.47 421.528 502.914 443.515 478.357C465.503 453.8 485.047 426.788 502.148 409.599C516.806 389.953 529.021 377.675 529.021 377.675C529.021 377.675 519.249 389.953 502.148 409.599C487.49 429.244 465.503 453.8 443.515 478.357C421.528 502.914 401.984 529.926 384.882 547.115C367.781 566.761 358.009 579.039 358.009 579.039Z" fill="#B5B0B0"/>
<path d="M121.035 561.849C133.25 547.115 145.465 532.381 157.681 517.647C169.896 502.914 179.668 490.635 189.44 478.357C199.212 466.079 206.541 456.256 211.427 451.345C216.313 443.978 218.756 441.522 218.756 441.522C218.756 441.522 216.313 443.978 208.984 451.345C204.098 458.712 194.326 466.079 186.997 478.357C177.225 490.635 167.453 502.914 155.238 517.647C143.022 532.381 130.807 547.115 118.592 561.849C106.377 576.583 94.1618 591.317 81.9466 606.051C69.7315 620.785 59.9593 633.063 50.1872 645.342C45.3011 652.709 40.4151 657.62 37.972 662.531H40.4151C45.3011 657.62 47.7442 652.709 52.6302 647.797C62.4024 635.519 72.1745 623.241 84.3897 608.507C96.6048 591.317 108.82 576.583 121.035 561.849Z" fill="#B5B0B0"/>
</g>
<path d="M-200.442 529.793C-192.142 518.669 -17.8477 315.665 -17.8477 315.665C-17.8477 315.665 -6.78131 318.446 12.5847 304.542C31.9508 290.638 106.648 196.088 106.648 196.088C106.648 196.088 131.548 198.869 142.614 196.088C156.447 193.307 167.513 171.06 170.28 171.06C175.813 171.06 189.646 201.649 200.712 193.307C211.778 184.964 244.977 132.128 244.977 132.128C244.977 132.128 305.842 209.992 316.908 226.677C327.975 240.582 361.174 296.199 366.707 312.885C375.007 329.57 397.139 357.379 410.972 374.064C427.572 387.968 474.603 457.49 482.903 463.052C491.203 463.052 568.667 529.793 568.667 529.793H-200.442Z" fill="white"/>
<path d="M482.903 460.271C474.603 457.49 427.572 387.968 410.972 371.283C397.139 354.598 375.007 326.789 366.707 310.104C358.407 293.418 325.208 240.582 316.908 223.896C311.375 215.554 267.11 157.155 247.744 132.128C253.277 143.251 256.044 159.936 264.343 173.841C275.41 196.088 289.243 215.554 289.243 215.554C289.243 232.239 300.309 254.486 308.609 276.733C316.908 296.199 341.808 349.036 341.808 349.036L261.577 273.952C261.577 273.952 272.643 315.665 286.476 332.351C292.009 349.036 319.675 401.873 319.675 401.873L275.41 357.379C275.41 357.379 311.375 407.434 325.208 432.462C339.041 454.709 341.808 471.394 352.874 485.299C361.174 496.422 372.24 521.45 372.24 521.45L303.075 418.558C303.075 418.558 361.174 515.888 355.64 515.888C350.107 515.888 308.609 463.052 297.542 446.367C283.709 429.681 258.81 390.749 258.81 390.749C258.81 390.749 297.542 463.052 316.908 490.861C336.274 515.888 330.741 524.231 330.741 524.231C330.741 524.231 283.709 471.394 278.176 460.271C272.643 449.147 283.709 476.956 292.009 490.861C300.309 501.984 311.375 535.355 311.375 535.355H568.667C568.667 529.793 491.203 463.052 482.903 460.271Z" fill="#EEEEEE"/>
<path d="M256.044 176.622C256.044 176.622 297.542 229.458 308.609 251.705C308.609 251.705 275.41 204.43 256.044 176.622Z" fill="white"/>
<g opacity="0.5">
<path d="M303.075 343.474C308.609 346.255 336.274 401.872 339.041 401.872C341.808 401.872 399.906 485.299 399.906 485.299C399.906 485.299 352.874 401.873 336.274 382.406C322.442 368.502 303.075 343.474 303.075 343.474Z" fill="#EEEEEE"/>
<path d="M383.306 429.681C369.473 412.996 416.505 485.299 427.571 501.984C441.404 515.888 452.471 532.574 452.471 532.574C452.471 532.574 405.439 454.709 383.306 429.681Z" fill="#EEEEEE"/>
<path d="M361.174 332.351C363.94 337.912 397.139 382.406 397.139 382.406L422.038 424.12L383.306 376.845L361.174 332.351Z" fill="#EEEEEE"/>
<path d="M391.606 401.873C391.606 401.873 444.171 465.833 455.237 488.08C455.237 488.08 413.739 435.243 391.606 401.873Z" fill="#EEEEEE"/>
<path d="M408.205 457.49C408.205 457.49 449.704 510.327 460.77 532.574C458.004 532.574 424.805 485.299 408.205 457.49Z" fill="#EEEEEE"/>
<path d="M480.136 454.709C480.136 454.709 513.335 499.203 521.635 515.888C524.402 515.888 496.736 479.737 480.136 454.709Z" fill="#EEEEEE"/>
</g>
<g opacity="0.3">
<path d="M256.044 273.952C247.744 298.98 231.144 349.036 217.312 362.94C203.479 376.845 167.513 410.215 170.28 404.653C175.813 401.873 197.946 390.749 197.946 390.749C197.946 390.749 145.381 440.805 139.847 443.586C134.314 446.367 56.85 527.012 56.85 527.012C56.85 527.012 103.882 474.175 90.049 479.737C78.9827 485.299 29.1842 527.012 29.1842 527.012H9.81816C9.81816 527.012 34.7174 507.546 40.2505 504.765C45.7837 499.203 65.1497 485.299 67.9163 479.737C70.6829 474.175 87.2824 460.271 90.049 463.052C92.8156 468.614 95.5821 474.175 103.882 463.052C112.182 451.928 134.314 424.12 131.548 429.681C128.781 435.243 128.781 440.805 139.847 424.12C150.914 407.434 192.412 360.159 186.879 368.502C181.346 376.845 189.646 379.626 195.179 368.502C203.479 357.379 236.678 312.884 225.611 321.227C214.545 329.57 175.813 343.474 159.213 362.94C142.614 382.406 123.248 407.434 131.548 399.092C139.847 390.749 153.68 387.968 148.147 393.53C142.614 399.092 103.882 432.462 103.882 424.12C101.115 415.777 48.5503 474.175 48.5503 474.175C48.5503 474.175 98.3487 410.215 92.8155 412.996C87.2823 415.777 1.51846 499.203 7.05162 496.422C12.5848 496.422 20.8845 496.422 20.8845 496.422L-9.54785 532.574H-56.5797C-56.5797 532.574 15.3513 449.147 26.4176 443.586C37.4839 438.024 51.3169 421.339 59.6166 412.996C67.9163 404.653 123.248 371.283 137.081 354.598C137.081 354.598 90.0489 401.873 95.5821 399.092C101.115 399.092 106.648 401.873 103.882 407.434C103.882 412.996 120.481 382.406 126.014 379.626C131.548 376.845 156.447 349.036 164.747 349.036C173.046 349.036 217.312 310.104 217.312 310.104L150.914 343.474C150.914 343.474 200.712 312.884 211.778 304.542C222.845 296.199 247.744 268.39 256.044 273.952Z" fill="white"/>
<path d="M148.147 251.705C161.98 235.02 167.513 221.116 175.813 215.554C184.113 212.773 181.346 221.116 178.579 229.458C173.046 237.801 128.781 301.761 117.715 315.665C103.882 329.57 67.9163 365.721 54.0835 371.283C43.0171 379.625 -37.2136 482.518 -37.2136 482.518C-37.2136 482.518 65.1498 376.845 87.2824 360.159C109.415 340.693 175.813 260.048 184.113 240.582C192.412 221.116 222.845 176.621 239.444 140.47C231.144 154.374 209.012 187.745 200.712 196.088C197.946 198.868 192.412 198.869 189.646 193.307L128.781 251.705L184.113 187.745C178.579 182.183 173.046 173.841 170.28 173.841C164.747 173.841 153.68 196.088 142.614 198.869C142.614 198.869 112.182 248.924 101.115 265.61C90.049 282.295 54.0835 321.227 40.2505 332.351C26.4177 343.474 -4.01468 382.406 -9.54784 393.53C-12.3144 404.653 -75.9457 479.737 -78.7123 479.737C-81.4789 479.737 -73.1791 465.833 -64.8794 451.928C-56.5797 438.024 -145.11 532.574 -145.11 532.574H-103.611C-103.611 532.574 84.5158 329.57 90.049 318.446C101.115 307.323 134.314 268.39 148.147 251.705Z" fill="white"/>
<path d="M256.044 387.968C236.678 421.339 203.479 463.052 203.479 463.052L192.412 449.147L137.081 529.793H161.98L195.179 485.299L184.113 513.108C184.113 513.108 231.144 446.367 228.378 449.147C225.611 454.709 192.412 529.793 192.412 529.793C192.412 529.793 244.977 454.709 247.744 443.586C250.51 435.243 264.343 412.996 256.044 387.968Z" fill="white"/>
<path d="M272.643 454.709C256.044 471.394 225.611 521.45 225.611 521.45L264.343 482.518L258.81 501.984C258.81 504.765 286.476 479.737 272.643 454.709Z" fill="white"/>
<path d="M-103.611 468.614C-100.845 463.052 7.05164 343.474 7.05164 343.474L-87.0121 426.9C-87.0121 426.9 -6.78127 340.693 4.28505 324.008C12.5848 315.665 -42.7468 371.283 -51.0465 371.283C-59.3463 374.064 -17.8476 318.446 -17.8476 318.446C-17.8476 318.446 -186.609 513.108 -197.675 529.793C-197.675 529.793 -147.877 485.299 -122.978 463.052C-142.344 485.299 -181.076 529.793 -181.076 529.793H-153.41L-26.1473 399.092C-28.9139 401.872 -106.378 474.175 -103.611 468.614Z" fill="white"/>
</g>
</g>
<defs>
<linearGradient id="paint0_linear_1_3508" x1="698.406" y1="263.386" x2="1111.61" y2="263.386" gradientUnits="userSpaceOnUse">
<stop stop-color="#EBEAEB"/>
<stop offset="0.165" stop-color="#EFEDEE"/>
<stop offset="0.4761" stop-color="#F3F2F2"/>
<stop offset="0.7415" stop-color="#FDFDFD"/>
<stop offset="0.928" stop-color="white"/>
</linearGradient>
<linearGradient id="paint1_linear_1_3508" x1="58.8111" y1="177.082" x2="597.952" y2="747.446" gradientUnits="userSpaceOnUse">
<stop offset="0.0720132" stop-color="white"/>
<stop offset="0.2585" stop-color="white"/>
<stop offset="0.5239" stop-color="white"/>
<stop offset="0.835" stop-color="white"/>
<stop offset="1" stop-color="white"/>
</linearGradient>
<clipPath id="clip0_1_3508">
<rect width="1582" height="492" fill="white" transform="translate(-282 41.25)"/>
</clipPath>
</defs>
</svg>
