<svg width="1920" height="773" viewBox="0 0 1920 773" fill="none" xmlns="http://www.w3.org/2000/svg">
<path d="M2102.53 769.279C2090.08 750.506 1819.26 425.1 1819.26 425.1C1819.26 425.1 1800.59 428.229 1769.46 406.327C1738.33 384.425 1620.04 234.238 1620.04 234.238C1620.04 234.238 1582.69 240.496 1564.01 234.238C1545.34 227.98 1526.66 193.562 1520.43 193.562C1514.21 193.562 1489.3 243.624 1470.63 227.98C1455.06 215.464 1405.26 130.984 1405.26 130.984C1405.26 130.984 1311.87 256.14 1296.31 278.042C1280.75 303.074 1227.83 387.554 1215.38 415.714C1202.93 440.745 1168.69 487.678 1143.78 512.71C1118.88 537.741 1047.29 647.252 1034.83 653.51C1022.38 659.768 900.983 769.279 900.983 769.279H2102.53Z" fill="#DBDBDB"/>
<path d="M1034.83 653.51C1047.28 647.252 1121.99 534.612 1143.78 512.71C1168.68 487.678 1202.93 440.745 1215.38 415.714C1227.83 390.683 1280.75 303.074 1296.31 278.042C1305.65 262.398 1377.24 168.531 1405.26 130.984C1395.92 149.758 1392.81 174.789 1380.36 199.82C1364.79 231.109 1343 265.527 1343 265.527C1346.11 293.687 1327.44 331.234 1311.87 362.523C1299.42 396.94 1262.07 481.421 1262.07 481.421L1386.58 359.394C1386.58 359.394 1367.9 425.101 1349.23 450.132C1330.55 475.163 1286.97 562.772 1286.97 562.772L1355.45 490.807C1355.45 490.807 1299.42 572.159 1280.75 609.705C1262.07 647.252 1252.73 675.412 1240.28 694.186C1224.72 712.959 1209.15 750.506 1209.15 750.506L1318.1 584.674C1318.1 584.674 1227.83 741.119 1234.05 741.119C1240.28 741.119 1305.65 656.639 1327.44 631.608C1346.11 603.448 1389.69 540.87 1389.69 540.87C1389.69 540.87 1330.55 659.768 1299.42 700.443C1271.41 741.119 1277.63 753.635 1277.63 753.635C1277.63 753.635 1349.23 666.026 1361.68 650.381C1371.02 631.608 1355.45 678.541 1339.89 700.443C1324.33 719.217 1308.76 772.408 1308.76 772.408H904.096C904.096 769.279 1022.38 659.768 1034.83 653.51Z" fill="url(#paint0_linear_17_19)"/>
<path d="M1389.69 199.82C1389.69 199.82 1324.33 287.429 1308.76 321.847C1308.76 318.718 1361.68 243.624 1389.69 199.82Z" fill="white"/>
<path d="M1318.1 468.905C1308.76 475.163 1268.29 559.643 1262.07 562.772C1255.84 562.772 1168.68 697.315 1168.68 697.315C1168.68 697.315 1243.39 565.901 1268.29 531.483C1286.97 509.581 1318.1 468.905 1318.1 468.905Z" fill="url(#paint1_linear_17_19)"/>
<path d="M1193.59 606.577C1215.38 581.546 1143.78 697.315 1125.11 722.346C1106.43 747.377 1084.64 769.279 1084.64 769.279C1084.64 769.279 1159.35 647.252 1193.59 606.577Z" fill="url(#paint2_linear_17_19)"/>
<path d="M1224.72 450.132C1221.6 459.518 1168.69 531.483 1168.69 531.483L1128.22 597.19L1187.36 522.096L1224.72 450.132Z" fill="url(#paint3_linear_17_19)"/>
<path d="M1181.14 559.643C1181.14 559.643 1100.2 659.768 1081.53 700.443C1078.41 700.443 1146.89 612.834 1181.14 559.643Z" fill="url(#paint4_linear_17_19)"/>
<path d="M1153.12 650.381C1153.12 650.381 1087.75 737.99 1072.19 772.408C1075.3 772.408 1128.22 697.315 1153.12 650.381Z" fill="url(#paint5_linear_17_19)"/>
<path d="M1041.06 647.252C1041.06 647.252 988.142 719.217 975.69 747.377C972.578 747.377 1016.16 684.799 1041.06 647.252Z" fill="url(#paint6_linear_17_19)"/>
<path d="M1389.7 356.265C1402.15 396.941 1430.16 478.292 1451.95 500.194C1473.74 525.225 1532.88 575.288 1523.55 569.03C1517.32 562.772 1479.97 547.128 1479.97 547.128C1479.97 547.128 1560.9 628.479 1567.13 631.608C1573.35 637.866 1697.86 766.151 1697.86 766.151C1697.86 766.151 1626.27 678.541 1644.95 687.928C1663.62 697.315 1741.44 766.151 1741.44 766.151H1772.57C1772.57 766.151 1732.1 737.991 1725.88 728.604C1716.54 722.346 1688.53 697.315 1682.3 687.928C1676.07 678.541 1651.17 653.51 1644.95 662.897C1641.83 669.155 1638.72 681.67 1626.27 662.897C1613.82 644.124 1579.58 597.19 1582.69 609.706C1585.8 622.221 1585.8 628.479 1567.13 600.319C1548.45 572.159 1483.08 497.065 1495.53 509.581C1504.87 522.097 1492.42 528.354 1479.97 512.71C1467.52 497.065 1414.6 425.101 1430.16 437.616C1445.73 450.132 1507.98 472.034 1532.88 503.323C1557.79 534.612 1588.92 575.288 1576.46 562.772C1564.01 550.257 1545.34 537.741 1551.56 547.128C1557.79 556.514 1620.04 612.835 1623.16 597.19C1626.27 581.546 1707.2 678.542 1707.2 678.542C1707.2 678.542 1629.38 575.288 1635.61 578.417C1641.83 581.546 1775.68 716.088 1769.46 712.959C1760.12 709.83 1747.67 712.959 1747.67 712.959L1794.36 769.28H1872.18C1872.18 769.28 1760.12 634.737 1744.56 625.35C1728.99 612.835 1707.2 590.932 1694.75 575.288C1679.19 559.643 1598.25 506.452 1576.46 481.421C1576.46 481.421 1648.06 556.514 1641.83 553.386C1635.61 553.386 1626.27 559.643 1626.27 569.03C1629.38 578.417 1601.37 531.483 1592.03 525.226C1582.69 522.097 1542.22 475.163 1529.77 475.163C1517.32 475.163 1448.84 412.585 1448.84 412.585L1554.67 468.905C1554.67 468.905 1473.74 418.843 1458.18 406.327C1442.61 390.683 1402.15 346.878 1389.7 356.265Z" fill="white"/>
<path d="M1557.79 321.847C1539.11 293.687 1526.66 271.785 1514.21 265.527C1501.76 259.269 1504.87 274.914 1511.09 287.429C1517.32 299.945 1585.8 403.199 1607.59 425.101C1626.27 447.003 1688.52 503.323 1704.09 515.839C1722.77 528.354 1847.28 694.186 1847.28 694.186C1847.28 694.186 1688.52 525.225 1651.17 497.065C1613.82 468.905 1514.21 337.492 1498.64 303.074C1483.08 271.785 1436.39 199.82 1411.48 143.5C1427.05 168.531 1458.18 218.594 1473.74 231.109C1479.97 237.367 1486.19 234.238 1492.42 227.98L1585.8 321.847L1501.76 221.722C1511.09 209.207 1520.43 196.691 1523.55 196.691C1529.77 196.691 1548.45 231.109 1567.12 237.367C1567.12 237.367 1616.93 315.589 1632.49 343.749C1648.06 371.91 1704.09 434.487 1725.88 450.132C1744.56 465.776 1797.47 531.483 1800.59 547.128C1806.81 562.772 1903.31 684.799 1906.42 684.799C1909.53 684.799 1900.2 659.768 1887.74 640.995C1875.29 619.092 2012.26 772.408 2012.26 772.408H1946.89C1946.89 772.408 1654.28 443.874 1644.95 428.23C1632.49 409.456 1579.58 346.878 1557.79 321.847Z" fill="white"/>
<path d="M1389.69 540.87C1417.71 597.19 1470.63 662.897 1470.63 662.897L1486.19 640.995L1573.35 769.279H1532.88L1479.97 697.315L1498.64 744.248C1498.64 744.248 1427.05 634.737 1430.16 640.995C1433.27 647.252 1486.19 769.279 1486.19 769.279C1486.19 769.279 1405.26 647.252 1402.15 631.608C1402.15 612.835 1377.24 578.417 1389.69 540.87Z" fill="white"/>
<path d="M1364.79 644.124C1389.7 672.284 1436.39 750.506 1436.39 750.506L1380.36 694.186L1389.7 725.475C1389.7 725.475 1346.12 684.799 1364.79 644.124Z" fill="white"/>
<path d="M1953.11 669.155C1946.89 659.768 1781.91 468.905 1781.91 468.905L1931.32 603.448C1931.32 603.448 1806.81 462.647 1788.13 437.616C1778.8 425.101 1862.84 512.71 1875.29 512.71C1887.74 515.839 1822.37 425.101 1822.37 425.101C1822.37 425.101 2083.85 737.99 2105.64 766.15C2105.64 766.15 2027.82 694.186 1990.47 659.768C2021.59 694.186 2080.74 766.15 2080.74 766.15H2037.16L1841.05 556.514C1834.83 559.643 1956.23 678.541 1953.11 669.155Z" fill="white"/>
<path d="M658.954 0.417969C694.507 48.0763 706.358 62.0934 727.098 95.7346C747.838 129.376 747.838 126.572 771.54 157.41C795.243 185.444 813.02 247.12 821.908 258.334C830.797 272.351 887.09 353.65 901.904 350.847C913.755 348.043 943.383 378.881 984.863 429.343C1026.34 479.805 1041.16 507.839 1076.71 547.087C1112.26 586.335 1204.11 704.079 1204.11 704.079H416.003L513.776 286.368L658.954 0.417969Z" fill="#D5D4D4"/>
<path d="M724.135 350.847C762.652 406.916 824.871 468.592 839.685 491.019C854.499 513.447 925.606 583.533 940.421 605.96C955.235 628.388 1011.53 704.08 1011.53 704.08H839.685L632.288 684.456L647.102 496.626L724.135 350.847Z" fill="#A8A8A8"/>
<g opacity="0.3">
<path d="M830.796 507.839C857.461 535.873 881.164 563.908 901.904 586.335C922.643 608.763 934.495 622.78 934.495 622.78C934.495 622.78 922.643 608.763 901.904 586.335C881.164 563.908 857.461 535.873 830.796 507.839C807.094 477.001 780.428 448.967 762.652 426.539C741.912 404.112 730.061 390.095 730.061 390.095C730.061 390.095 741.912 404.112 762.652 426.539C780.428 448.967 804.131 477.001 830.796 507.839Z" fill="#A8A8A8"/>
<path d="M738.949 552.695C738.949 552.695 804.131 642.404 851.536 704.08H854.499H878.201C821.908 645.208 738.949 552.695 738.949 552.695Z" fill="#A8A8A8"/>
<path d="M827.833 611.567C827.833 611.567 860.424 656.422 895.978 704.08H913.755C869.312 656.422 827.833 611.567 827.833 611.567Z" fill="#A8A8A8"/>
<path d="M893.015 619.977C881.164 605.959 869.313 594.746 860.424 583.532C851.536 575.122 845.61 566.711 845.61 566.711C845.61 566.711 851.536 572.318 860.424 583.532C869.313 594.746 881.164 605.959 893.015 619.977C904.867 633.994 916.718 648.011 925.606 656.421C934.495 664.831 940.42 673.242 940.42 673.242C940.42 673.242 934.495 667.635 925.606 656.421C916.718 645.207 904.867 631.19 893.015 619.977Z" fill="#A8A8A8"/>
<path d="M830.796 558.301C839.685 566.711 845.61 577.925 854.499 586.336C863.387 594.746 869.313 603.156 875.238 608.763C887.09 622.78 895.978 631.191 895.978 631.191C895.978 631.191 887.09 622.78 878.201 605.96C872.276 597.549 866.35 591.942 857.462 580.729C848.573 575.122 839.685 566.711 830.796 558.301C824.871 547.087 818.945 535.874 810.057 527.463C801.168 519.053 795.242 510.643 789.317 505.036C777.466 491.019 768.577 482.608 768.577 482.608C768.577 482.608 777.466 491.019 786.354 507.839C792.28 516.25 798.205 521.857 807.094 533.07C813.019 541.481 821.908 549.891 830.796 558.301Z" fill="#A8A8A8"/>
<path d="M884.127 619.977C884.127 619.977 910.792 656.421 943.383 698.473C878.201 628.387 798.205 538.677 798.205 538.677C798.205 538.677 866.35 631.19 919.68 701.276H961.16C919.68 659.225 884.127 619.977 884.127 619.977Z" fill="#A8A8A8"/>
<path d="M792.28 600.353C801.168 611.567 813.02 622.78 824.871 636.797C836.722 650.815 848.573 662.028 857.462 673.242C866.35 681.652 872.276 690.063 872.276 690.063C872.276 690.063 866.35 684.456 857.462 673.242C848.573 662.028 836.722 650.815 824.871 636.797C813.02 619.977 801.168 608.763 792.28 600.353C783.391 589.139 777.466 583.532 777.466 583.532C777.466 583.532 783.391 589.139 792.28 600.353Z" fill="#A8A8A8"/>
<path d="M907.829 617.173C916.717 628.387 928.568 639.601 940.42 653.618C952.271 667.635 964.122 678.849 973.011 690.062C981.899 698.473 987.825 706.883 987.825 706.883C987.825 706.883 981.899 701.276 973.011 690.062C964.122 678.849 952.271 667.635 940.42 653.618C928.568 639.601 916.717 625.583 907.829 617.173C898.94 605.959 893.015 600.353 893.015 600.353C893.015 600.353 898.94 605.959 907.829 617.173Z" fill="#A8A8A8"/>
</g>
<g opacity="0.3">
<path d="M780.429 275.154C774.503 266.744 765.615 258.334 756.726 249.923C750.8 241.513 741.912 233.103 735.986 224.693C730.061 216.282 721.172 207.872 718.21 202.265C706.358 188.248 700.433 179.838 700.433 179.838C700.433 179.838 709.321 188.248 721.172 199.462C727.098 205.069 733.024 213.479 741.912 221.889C747.838 230.299 756.726 238.71 765.615 247.12C768.577 255.53 774.503 263.941 780.429 275.154C789.317 280.761 795.243 289.172 801.168 294.778C813.02 308.796 818.945 317.206 818.945 317.206C818.945 317.206 810.057 308.796 798.205 297.582C795.243 289.172 786.354 283.565 780.429 275.154Z" fill="#A8A8A8"/>
<path d="M759.689 314.403C735.986 286.368 712.284 261.138 694.507 241.514C676.73 221.889 664.879 207.872 664.879 207.872C664.879 207.872 676.73 221.889 694.507 241.514C715.247 258.334 738.949 286.368 759.689 314.403C783.391 339.634 807.094 367.668 824.871 387.292C842.648 406.916 854.499 420.933 854.499 420.933C854.499 420.933 842.648 406.916 824.871 387.292C810.057 367.668 783.391 339.634 759.689 314.403Z" fill="#A8A8A8"/>
<path d="M875.239 499.429C893.015 521.857 907.829 535.874 907.829 535.874C907.829 535.874 893.015 521.857 875.239 499.429C854.499 477.002 827.834 448.968 804.131 420.933C777.466 392.899 753.763 362.061 733.024 342.437C715.247 320.01 700.433 305.992 700.433 305.992C700.433 305.992 712.284 320.01 733.024 342.437C750.8 364.865 777.466 392.899 804.131 420.933C830.796 448.968 854.499 477.002 875.239 499.429Z" fill="#A8A8A8"/>
<path d="M866.35 392.899C875.239 404.113 881.164 412.523 887.09 418.13C893.015 423.737 895.978 429.344 895.978 429.344C895.978 429.344 893.015 426.54 887.09 420.933C881.164 415.326 872.276 406.916 866.35 392.899C854.499 384.489 842.648 373.275 833.759 359.258C821.908 345.241 810.057 331.223 798.205 317.206C786.354 303.189 774.503 289.172 762.652 275.155C750.8 261.138 741.912 249.924 733.024 238.71C724.135 227.496 718.21 219.086 712.284 213.479C706.358 207.872 703.396 202.265 703.396 202.265C703.396 202.265 706.358 205.069 712.284 210.676C718.21 216.283 727.098 224.693 735.986 235.907C744.875 247.12 756.726 258.334 768.577 272.351C780.429 286.368 792.28 300.386 804.131 314.403C815.982 328.42 827.834 342.437 839.685 356.454C848.573 370.471 857.462 384.489 866.35 392.899Z" fill="#A8A8A8"/>
<path d="M878.201 364.864C872.276 359.257 866.35 350.847 857.462 342.437C851.536 334.027 842.648 325.616 833.759 317.206C824.871 308.796 818.945 300.385 813.019 291.975C807.094 283.565 798.205 275.154 795.243 269.548C783.391 255.53 777.466 247.12 777.466 247.12C777.466 247.12 786.354 255.53 798.205 266.744C804.131 272.351 810.057 280.761 818.945 289.172C824.871 297.582 833.759 305.992 842.648 314.402C851.536 322.813 857.462 331.223 863.387 339.633C866.35 350.847 872.276 359.257 878.201 364.864C890.053 376.078 898.941 384.488 898.941 384.488C898.941 384.488 890.053 378.881 878.201 364.864Z" fill="#A8A8A8"/>
<path d="M1189.3 704.08C1189.3 704.08 1186.33 701.276 1186.33 698.473C1180.41 692.866 1171.52 684.456 1162.63 673.242C1153.74 662.028 1141.89 650.814 1130.04 636.797C1118.19 622.78 1106.34 608.763 1091.52 591.942C1079.67 577.925 1064.86 561.105 1053.01 547.088C1041.16 533.07 1029.3 519.053 1020.42 507.84C1011.53 496.626 1002.64 485.412 996.714 479.805C990.788 474.198 987.825 468.592 987.825 468.592C987.825 468.592 990.788 471.395 996.714 479.805C1002.64 485.412 1011.53 493.822 1020.42 505.036C1029.3 516.25 1041.16 527.464 1053.01 541.481C1064.86 555.498 1076.71 569.515 1091.52 586.336C1103.37 600.353 1118.19 617.173 1130.04 631.19C1141.89 645.208 1153.74 659.225 1162.63 670.438C1171.52 681.652 1180.41 692.866 1186.33 698.473C1189.3 701.276 1189.3 701.276 1189.3 704.08Z" fill="#A8A8A8"/>
<path d="M907.83 519.053C922.644 535.874 937.458 555.498 952.272 569.515C967.086 586.335 978.937 600.352 990.788 614.37C1002.64 628.387 1011.53 639.6 1017.45 648.011C1023.38 656.421 1026.34 659.224 1026.34 659.224C1026.34 659.224 1023.38 656.421 1014.49 648.011C1008.57 639.6 996.714 631.19 984.863 617.173C973.012 603.156 958.197 589.139 943.383 572.318C928.569 555.498 913.755 538.677 898.941 521.856C884.127 505.036 869.313 485.412 854.499 471.395C839.685 454.574 827.834 440.557 815.982 426.54C804.131 412.523 795.243 401.309 789.317 392.899C783.391 384.488 780.429 381.685 780.429 381.685C780.429 381.685 783.392 384.488 792.28 392.899C798.206 401.309 810.057 409.719 821.908 423.736C833.759 437.754 848.573 451.771 863.387 468.591C878.201 485.412 893.016 502.232 907.83 519.053Z" fill="#A8A8A8"/>
<path d="M1026.34 681.652C999.677 653.618 975.974 622.78 955.235 603.156C937.458 580.729 922.644 566.711 922.644 566.711C922.644 566.711 934.495 580.729 955.235 603.156C975.974 622.78 1002.64 650.814 1026.34 681.652C1035.23 687.259 1041.16 695.669 1050.04 704.08H1047.08C1041.16 695.669 1032.27 687.259 1026.34 681.652Z" fill="#A8A8A8"/>
<path d="M946.346 491.019C946.346 491.019 1064.86 622.78 1138.93 704.079H1103.37C1041.16 619.976 946.346 491.019 946.346 491.019Z" fill="#A8A8A8"/>
<path d="M1073.75 622.78C1061.9 608.763 1050.04 591.943 1038.19 580.729C1026.34 566.712 1014.49 552.694 1005.6 541.481C996.714 530.267 987.826 521.857 984.863 513.446C978.938 507.84 975.975 502.233 975.975 502.233C975.975 502.233 978.938 505.036 984.863 510.643C990.789 516.25 999.677 524.66 1008.57 535.874C1017.45 547.088 1029.31 558.301 1041.16 572.319C1053.01 586.336 1064.86 600.353 1079.67 614.37C1091.52 628.387 1103.38 645.208 1115.23 656.422C1127.08 670.439 1138.93 684.456 1147.82 695.67L1150.78 698.473H1147.82C1138.93 687.259 1127.08 676.046 1115.23 662.028C1100.41 653.618 1088.56 636.798 1073.75 622.78Z" fill="#A8A8A8"/>
<path d="M1038.19 561.104C1053.01 577.925 1064.86 591.942 1076.71 605.959C1088.56 619.977 1097.45 631.19 1103.37 636.797C1109.3 645.207 1112.26 648.011 1112.26 648.011C1112.26 648.011 1109.3 645.207 1100.41 636.797C1094.49 628.387 1082.64 619.977 1073.75 605.959C1061.9 591.942 1050.04 577.925 1035.23 561.104C1020.42 544.284 1005.6 527.463 990.788 510.643C975.974 493.822 961.16 477.001 946.346 460.181C931.532 443.36 919.68 429.343 907.829 415.326C895.978 401.309 887.09 390.095 881.164 384.488C875.238 376.078 872.275 373.274 872.275 373.274C872.275 373.274 875.238 376.078 884.127 384.488C890.052 392.898 901.904 401.309 910.792 415.326C922.643 429.343 934.495 443.36 949.309 460.181C964.123 477.001 978.937 493.822 993.751 510.643C1008.56 527.463 1023.38 547.087 1038.19 561.104Z" fill="#A8A8A8"/>
<path d="M999.677 591.942C984.862 575.121 970.048 558.301 955.234 541.48C940.42 524.659 928.569 510.642 916.718 496.625C904.866 482.608 895.978 471.394 890.052 465.787C884.127 457.377 881.164 454.574 881.164 454.574C881.164 454.574 884.127 457.377 893.015 465.787C898.941 474.198 910.792 482.608 919.681 496.625C931.532 510.642 943.383 524.659 958.197 541.48C973.011 558.301 987.825 575.121 1002.64 591.942C1017.45 608.762 1032.27 625.583 1047.08 642.403C1061.9 659.224 1073.75 673.241 1085.6 687.258C1091.52 695.669 1097.45 701.276 1100.41 706.882H1097.45C1091.52 701.276 1088.56 695.669 1082.64 690.062C1070.78 676.045 1058.93 662.027 1044.12 645.207C1032.27 628.386 1017.45 608.762 999.677 591.942Z" fill="#A8A8A8"/>
</g>
<path d="M789.317 650.814C786.354 648.011 783.391 645.207 780.429 639.601L750.801 662.028L771.54 631.19C771.54 631.19 771.54 628.387 768.577 628.387L718.21 684.455L762.652 619.977C753.763 611.566 744.875 600.352 738.949 594.746C718.21 577.925 733.024 538.677 724.135 524.66C715.247 513.446 718.21 502.232 709.321 491.019L670.805 530.267C670.805 530.267 691.544 496.625 697.47 485.412C703.396 479.805 700.433 479.805 703.396 477.001C697.47 462.984 697.47 446.164 706.358 434.95C718.21 420.933 724.135 350.847 724.135 350.847L564.143 505.036C564.143 505.036 611.548 429.343 620.437 415.326C629.325 401.309 611.548 328.42 623.4 325.616C635.251 322.813 614.511 261.137 611.548 238.71C611.548 227.496 614.511 207.872 617.474 185.445L558.218 252.727C558.218 252.727 602.66 191.051 632.288 140.59C638.214 129.376 641.177 115.359 647.102 106.949C653.028 95.7348 655.991 81.7176 658.953 67.7005L620.437 106.949L661.916 42.4696L647.102 53.6833C647.102 53.6833 664.879 28.4524 661.916 14.4353C661.916 8.82842 661.916 6.02498 658.953 3.22155C655.991 -5.18874 534.515 129.376 504.887 151.803C484.148 168.624 392.3 249.924 377.486 275.154C362.672 300.385 362.672 432.147 318.23 454.574C273.788 477.002 21.9488 642.404 16.0232 650.814L-10.6421 704.079H836.722C824.871 678.849 795.243 656.421 789.317 650.814Z" fill="#B5B0B0"/>
<path d="M789.317 650.814C786.354 648.011 783.392 645.207 780.429 639.601L750.801 662.028L771.54 631.19C771.54 631.19 771.54 628.387 768.578 628.387L718.21 684.455L762.652 619.977C753.764 611.566 744.875 600.352 738.949 594.746C718.21 577.925 733.024 538.677 724.135 524.66C715.247 513.446 718.21 502.232 709.321 491.019L670.805 530.267C670.805 530.267 691.544 496.625 697.47 485.412C703.396 479.805 700.433 479.805 703.396 477.001C697.47 462.984 697.47 446.164 706.359 434.95C718.21 420.933 724.135 350.847 724.135 350.847L564.144 505.036C564.144 505.036 611.548 429.343 620.437 415.326C629.325 401.309 611.549 328.42 623.4 325.616C635.251 322.813 614.511 261.137 611.549 238.71C611.549 227.496 614.511 207.872 617.474 185.445L558.218 252.727C558.218 252.727 602.66 191.051 632.288 140.59C638.214 129.376 641.177 115.359 647.102 106.949C653.028 95.7348 655.991 81.7176 658.954 67.7005L620.437 106.949L661.916 42.4696L647.102 53.6833C647.102 53.6833 664.879 28.4524 661.916 14.4353C661.916 8.82842 661.916 6.02498 658.954 3.22155C655.991 -5.18874 534.515 129.376 504.887 151.803C484.148 168.624 392.3 249.924 377.486 275.154C362.672 300.385 285.639 353.65 258.974 406.916C235.271 451.771 24.9118 642.404 18.9861 650.814L-7.6792 704.079H839.685C824.871 678.849 795.243 656.421 789.317 650.814Z" fill="url(#paint7_linear_17_19)"/>
<g opacity="0.5">
<path d="M507.849 207.872C516.738 199.462 522.664 191.051 531.552 182.641C540.44 174.231 546.366 163.017 555.254 154.607C564.143 146.196 570.069 137.786 575.994 132.179C587.845 118.162 596.734 109.752 596.734 109.752C596.734 109.752 587.845 118.162 575.994 132.179C570.069 137.786 561.18 146.196 555.254 154.607C546.366 163.017 540.44 171.427 531.552 179.838C519.701 188.248 513.775 199.462 507.849 207.872C498.961 213.479 490.073 221.889 484.147 230.299C472.296 244.317 466.37 252.727 466.37 252.727C466.37 252.727 475.259 244.317 487.11 230.299C493.035 224.693 498.961 216.282 507.849 207.872Z" fill="#B5B0B0"/>
<path d="M253.048 642.405C253.048 642.405 264.899 628.387 285.639 605.96C294.527 594.746 306.378 583.532 318.23 569.515C330.081 555.498 341.932 541.481 356.746 527.464C368.598 513.447 383.412 499.429 395.263 485.412C407.114 471.395 418.965 460.181 427.854 448.968C445.631 426.54 460.445 412.523 460.445 412.523C460.445 412.523 448.593 426.54 427.854 448.968C418.965 460.181 407.114 471.395 395.263 485.412C383.412 499.429 371.56 513.447 356.746 527.464C344.895 541.481 330.081 555.498 318.23 569.515C306.378 583.532 294.527 594.746 285.639 605.96C264.899 625.584 253.048 642.405 253.048 642.405Z" fill="#B5B0B0"/>
<path d="M528.59 249.924C555.255 221.889 578.957 191.052 599.697 171.428C617.474 149 632.288 134.983 632.288 134.983C632.288 134.983 617.474 149 596.734 168.624C578.957 191.052 552.292 219.086 528.59 249.924C501.924 277.958 475.259 305.992 457.482 328.42C439.705 350.847 424.891 364.865 424.891 364.865C424.891 364.865 436.742 350.847 457.482 328.42C475.259 305.992 501.924 277.958 528.59 249.924Z" fill="#B5B0B0"/>
<path d="M333.044 499.429C315.267 521.857 300.453 535.874 300.453 535.874C300.453 535.874 312.304 521.857 333.044 499.429C353.783 479.805 377.486 448.968 404.151 420.933C430.816 392.899 454.519 362.061 475.259 342.437C493.035 320.01 507.849 305.992 507.849 305.992C507.849 305.992 495.998 320.01 475.259 342.437C457.482 364.865 430.816 392.899 404.151 420.933C377.486 448.968 350.82 477.002 333.044 499.429Z" fill="#B5B0B0"/>
<path d="M338.97 695.669C338.97 695.669 341.933 692.865 350.821 684.455C356.747 676.045 368.598 667.634 380.449 653.617C392.3 639.6 407.114 625.583 421.928 608.762C436.742 591.942 451.557 575.121 466.371 558.301C481.185 541.48 495.999 521.856 510.813 507.839C525.627 491.018 537.478 477.001 549.329 462.984C561.181 448.967 570.069 437.753 575.995 429.343C581.92 420.933 584.883 418.129 584.883 418.129C584.883 418.129 581.92 420.933 573.032 429.343C567.106 437.753 555.255 446.163 543.404 460.181C531.552 474.198 516.738 488.215 501.924 505.035C487.11 521.856 472.296 538.677 457.482 555.497C442.668 572.318 427.854 591.942 413.04 605.959C398.226 622.779 386.375 636.797 374.523 650.814C362.672 664.831 353.784 676.045 347.858 684.455C341.933 692.865 338.97 695.669 338.97 695.669Z" fill="#B5B0B0"/>
<path d="M445.631 454.574C472.296 426.54 495.999 395.702 516.738 376.078C534.515 353.651 549.329 339.634 549.329 339.634C549.329 339.634 537.478 353.651 516.738 376.078C495.999 395.702 472.296 423.737 445.631 454.574C418.966 482.609 392.3 510.643 374.523 533.071C356.747 555.498 341.933 569.515 341.933 569.515C341.933 569.515 353.784 555.498 374.523 533.071C395.263 510.643 421.929 482.609 445.631 454.574Z" fill="#B5B0B0"/>
<path d="M330.081 575.121C341.932 561.104 356.746 547.087 371.56 530.267C386.374 513.446 401.188 496.626 416.002 479.805C430.817 462.984 445.631 443.36 460.445 429.343C475.259 412.523 487.11 398.506 498.961 384.488C510.812 370.471 519.701 359.258 525.626 350.847C531.552 342.437 534.515 339.634 534.515 339.634C534.515 339.634 531.552 342.437 522.664 350.847C516.738 359.258 504.887 367.668 493.036 381.685C481.184 395.702 466.37 409.719 451.556 426.54C436.742 443.36 421.928 460.181 407.114 477.002C392.3 493.822 377.486 513.446 362.672 527.463C347.858 544.284 336.007 558.301 324.155 572.318C312.304 586.335 303.416 597.549 297.49 605.959C291.564 611.566 288.602 617.173 288.602 617.173C288.602 617.173 291.564 614.37 300.453 605.959C306.378 597.549 318.23 586.335 330.081 575.121Z" fill="#B5B0B0"/>
<path d="M430.817 549.891C416.003 566.711 404.152 583.532 392.3 594.746C380.449 608.763 371.561 619.976 365.635 628.387C359.709 636.797 356.747 642.404 356.747 642.404C356.747 642.404 359.709 636.797 368.598 631.19C374.523 622.78 386.375 614.37 398.226 600.352C410.077 586.335 424.891 572.318 436.742 555.498C451.557 538.677 466.371 521.856 481.185 505.036C495.999 488.215 510.813 468.591 525.627 451.771C540.441 434.95 552.292 418.13 564.143 406.916C575.995 392.899 584.883 381.685 590.809 373.275C596.734 364.864 599.697 359.258 599.697 359.258C599.697 359.258 596.734 364.864 587.846 370.471C581.92 378.882 570.069 387.292 558.218 401.309C546.367 415.326 531.552 429.343 519.701 446.164C504.887 462.984 490.073 479.805 475.259 496.626C460.445 516.25 445.631 533.07 430.817 549.891Z" fill="#B5B0B0"/>
<path d="M416.003 336.83C407.114 348.044 398.226 359.257 392.3 364.864C386.374 370.471 383.412 376.078 383.412 376.078C383.412 376.078 386.374 373.275 392.3 364.864C398.226 359.257 407.114 350.847 416.003 336.83C427.854 328.42 439.705 314.402 451.556 300.385C463.408 286.368 478.222 272.351 490.073 255.53C501.924 241.513 516.738 224.693 528.589 210.676C540.441 196.658 552.292 182.641 561.18 171.427C570.069 160.214 578.957 149 584.883 143.393C590.808 137.786 593.771 132.179 593.771 132.179C593.771 132.179 587.846 137.786 581.92 143.393C575.994 149 567.106 160.214 558.218 168.624C549.329 179.838 537.478 193.855 525.627 207.872C513.775 221.889 498.961 235.906 487.11 252.727C475.259 266.744 460.445 283.565 448.593 297.582C433.779 311.599 424.891 325.616 416.003 336.83Z" fill="#B5B0B0"/>
<path d="M401.188 305.992C407.114 300.385 416.002 291.975 421.928 283.565C430.817 275.155 436.742 266.744 445.631 258.334C454.519 249.924 460.445 238.71 469.333 230.3C478.222 221.889 484.147 213.479 490.073 207.872C501.924 193.855 510.812 185.445 510.812 185.445C510.812 185.445 501.924 193.855 490.073 207.872C484.147 213.479 475.259 221.889 469.333 230.3C460.445 238.71 454.519 247.12 445.631 255.53C436.742 263.941 430.817 275.155 421.928 283.565C413.04 289.172 407.114 297.582 401.188 305.992C389.337 317.206 380.449 328.42 380.449 328.42C380.449 328.42 389.337 320.009 401.188 305.992Z" fill="#B5B0B0"/>
<path d="M16.0229 704.079C16.0229 704.079 18.9858 701.276 18.9858 698.473C24.9114 692.866 33.7998 684.455 42.6883 673.242C51.5767 662.028 63.4279 650.814 75.2792 636.797C87.1304 622.78 98.9817 608.763 113.796 591.942C125.647 577.925 140.461 561.104 152.312 547.087C164.164 533.07 176.015 519.053 184.903 507.839C193.792 496.626 202.68 485.412 208.606 479.805C214.531 474.198 217.494 468.591 217.494 468.591C217.494 468.591 214.531 471.395 208.606 479.805C202.68 485.412 193.792 493.822 184.903 505.036C176.015 516.25 164.164 527.463 152.312 541.48C140.461 555.498 128.61 569.515 113.796 586.335C101.944 600.352 87.1304 617.173 75.2792 631.19C63.4279 645.207 51.5767 659.225 42.6883 670.438C33.7998 681.652 24.9114 692.866 18.9858 698.473C18.9858 701.276 16.0229 704.079 16.0229 704.079Z" fill="#B5B0B0"/>
<path d="M297.49 519.053C282.676 535.874 267.862 555.498 253.048 569.515C238.234 586.336 226.382 600.353 214.531 614.37C202.68 628.387 193.792 639.601 187.866 648.011C181.94 656.421 178.978 659.225 178.978 659.225C178.978 659.225 181.94 656.421 190.829 648.011C196.754 639.601 208.606 631.19 220.457 617.173C232.308 603.156 247.122 589.139 261.936 572.318C276.75 555.498 291.564 538.677 306.378 521.857C321.192 505.036 336.007 485.412 350.821 471.395C365.635 454.574 377.486 440.557 389.337 426.54C401.188 412.523 410.077 401.309 416.002 392.899C421.928 384.489 424.891 381.685 424.891 381.685C424.891 381.685 421.928 384.489 413.04 392.899C407.114 401.309 395.263 409.72 383.412 423.737C371.56 437.754 356.746 451.771 341.932 468.592C330.081 485.412 315.267 502.233 297.49 519.053Z" fill="#B5B0B0"/>
<path d="M590.809 704.08H605.623C638.214 659.225 667.842 619.977 667.842 619.977C667.842 619.977 632.288 659.225 590.809 704.08Z" fill="#B5B0B0"/>
<path d="M338.97 704.08H377.486C436.742 625.584 540.441 482.609 540.441 482.609C540.441 482.609 407.114 628.387 338.97 704.08Z" fill="#B5B0B0"/>
<path d="M558.217 704.079H584.883C629.325 642.404 700.432 547.087 700.432 547.087C700.432 547.087 611.548 645.207 558.217 704.079Z" fill="#B5B0B0"/>
<path d="M481.184 451.771C481.184 451.771 416.003 521.857 356.746 591.943C392.3 541.481 421.928 502.233 421.928 502.233C421.928 502.233 309.341 628.387 238.234 706.884H294.527C341.932 642.405 481.184 451.771 481.184 451.771Z" fill="#B5B0B0"/>
<path d="M380.449 704.079H395.263C427.854 662.028 454.519 622.78 454.519 622.78C454.519 622.78 418.965 662.028 380.449 704.079Z" fill="#B5B0B0"/>
<path d="M178.977 681.652C205.643 653.618 229.345 622.78 250.085 603.156C267.862 580.729 282.676 566.711 282.676 566.711C282.676 566.711 270.825 580.729 250.085 603.156C229.345 622.78 205.643 650.814 178.977 681.652C170.089 687.259 164.163 695.669 155.275 704.08H158.238C167.126 698.473 173.052 690.062 178.977 681.652Z" fill="#B5B0B0"/>
<path d="M258.973 493.823C258.973 493.823 140.461 625.584 66.3906 706.884H101.944C164.163 622.781 258.973 493.823 258.973 493.823Z" fill="#B5B0B0"/>
<path d="M626.362 535.873C626.362 535.873 546.366 625.583 481.184 695.669C513.775 650.814 540.441 617.173 540.441 617.173C540.441 617.173 501.924 659.224 457.482 706.883H501.924C555.255 631.19 626.362 535.873 626.362 535.873Z" fill="#B5B0B0"/>
<path d="M709.321 650.814C727.098 628.386 741.912 614.369 741.912 614.369C741.912 614.369 727.098 628.386 709.321 650.814C694.507 664.831 676.73 684.455 658.953 704.079H661.916C679.693 684.455 694.507 667.634 709.321 650.814Z" fill="#B5B0B0"/>
<path d="M504.887 704.08H522.664C561.181 653.618 596.734 605.96 596.734 605.96C596.734 605.96 552.292 656.422 504.887 704.08Z" fill="#B5B0B0"/>
<path d="M605.623 704.08H626.362C670.804 645.208 709.321 589.139 709.321 589.139C709.321 589.139 658.953 645.208 605.623 704.08Z" fill="#B5B0B0"/>
<path d="M131.573 625.583C143.424 611.566 155.275 594.745 167.126 583.532C178.978 569.514 190.829 555.497 199.717 544.283C208.606 533.07 217.494 524.659 220.457 516.249C226.383 510.642 229.345 505.035 229.345 505.035C229.345 505.035 226.383 507.839 220.457 513.446C214.531 519.053 205.643 527.463 196.754 538.677C187.866 549.89 176.015 561.104 164.164 575.121C152.312 589.138 140.461 603.156 125.647 617.173C113.796 631.19 101.945 648.011 90.0933 659.224C78.242 673.241 66.3908 687.259 57.5024 698.472L54.5396 701.276H57.5024C66.3908 690.062 78.242 678.848 90.0933 664.831C107.87 653.617 119.721 639.6 131.573 625.583Z" fill="#B5B0B0"/>
<path d="M581.92 664.832C573.032 676.046 567.106 681.653 567.106 681.653C567.106 681.653 575.994 676.046 581.92 664.832C590.808 656.422 602.66 642.405 614.511 628.387C626.362 614.37 638.213 603.157 647.102 591.943C655.99 580.729 661.916 575.122 661.916 575.122C661.916 575.122 655.99 580.729 647.102 591.943C638.213 600.353 626.362 614.37 614.511 628.387C602.66 642.405 590.808 653.618 581.92 664.832Z" fill="#B5B0B0"/>
<path d="M552.292 603.156C558.218 597.549 564.143 589.139 573.032 580.729C578.957 572.318 587.846 563.908 596.734 552.694C605.623 544.284 611.548 533.07 620.437 524.66C626.362 516.25 635.251 507.839 641.176 499.429C653.027 485.412 658.953 474.198 658.953 474.198C658.953 474.198 650.065 482.608 638.213 496.626C632.288 502.232 626.362 510.643 617.474 519.053C611.548 527.463 602.66 535.874 593.771 547.087C584.883 555.498 578.957 566.711 570.069 575.122C564.143 586.335 555.255 594.746 552.292 603.156C540.441 617.173 531.552 625.583 531.552 625.583C531.552 625.583 540.441 617.173 552.292 603.156Z" fill="#B5B0B0"/>
<path d="M531.552 614.37C543.404 600.353 555.255 589.139 564.143 577.925C573.032 566.711 578.957 561.104 578.957 561.104C578.957 561.104 573.032 566.711 564.143 577.925C555.255 586.335 543.404 600.353 531.552 614.37C519.701 625.583 507.85 639.601 498.962 650.814C490.073 662.028 484.147 667.635 484.147 667.635C484.147 667.635 490.073 662.028 498.962 650.814C507.85 639.601 519.701 628.387 531.552 614.37Z" fill="#B5B0B0"/>
<path d="M167.126 563.908C152.312 580.729 140.461 594.746 128.61 608.763C116.759 622.781 107.87 633.994 101.945 639.601C96.019 648.011 93.0562 650.815 93.0562 650.815C93.0562 650.815 96.019 648.011 104.907 639.601C110.833 631.191 122.684 622.781 131.573 608.763C143.424 594.746 155.275 580.729 170.089 563.908C184.903 547.088 199.717 530.267 214.531 513.447C229.345 496.626 244.16 479.805 258.974 462.985C273.788 446.164 285.639 432.147 297.49 418.13C309.341 404.113 318.23 392.899 324.155 387.292C330.081 378.882 333.044 376.078 333.044 376.078C333.044 376.078 330.081 378.882 321.193 387.292C315.267 395.702 303.416 404.113 294.527 418.13C282.676 432.147 270.825 446.164 256.011 462.985C241.197 479.805 226.383 496.626 211.569 513.447C196.755 530.267 181.94 547.088 167.126 563.908Z" fill="#B5B0B0"/>
<path d="M493.036 614.37C493.036 614.37 504.887 600.353 525.627 577.925C543.403 555.498 570.069 527.463 596.734 499.429C623.399 471.395 647.102 440.557 667.842 420.933C685.618 398.505 700.432 384.488 700.432 384.488C700.432 384.488 688.581 398.505 667.842 420.933C650.065 443.36 623.399 471.395 596.734 499.429C570.069 527.463 546.366 558.301 525.627 577.925C504.887 600.353 493.036 614.37 493.036 614.37Z" fill="#B5B0B0"/>
<path d="M205.643 594.746C220.457 577.925 235.271 561.105 250.085 544.284C264.899 527.464 276.75 513.447 288.602 499.429C300.453 485.412 309.341 474.199 315.267 468.592C321.192 460.181 324.155 457.378 324.155 457.378C324.155 457.378 321.192 460.181 312.304 468.592C306.378 477.002 294.527 485.412 285.639 499.429C273.787 513.447 261.936 527.464 247.122 544.284C232.308 561.105 217.494 577.925 202.68 594.746C187.866 611.567 173.052 628.387 158.238 645.208C143.424 662.028 131.573 676.045 119.721 690.063C113.796 698.473 107.87 704.08 104.907 709.687H107.87C113.796 704.08 116.758 698.473 122.684 692.866C134.535 678.849 146.387 664.832 161.201 648.011C176.015 628.387 190.829 611.567 205.643 594.746Z" fill="#B5B0B0"/>
</g>
<defs>
<linearGradient id="paint0_linear_17_19" x1="903.545" y1="449.375" x2="1404.67" y2="449.375" gradientUnits="userSpaceOnUse">
<stop stop-color="#EBEAEB"/>
<stop offset="0.165" stop-color="#EFEDEE"/>
<stop offset="0.4761" stop-color="#F3F2F2"/>
<stop offset="0.7415" stop-color="#FDFDFD"/>
<stop offset="0.928" stop-color="white"/>
</linearGradient>
<linearGradient id="paint1_linear_17_19" x1="1169.56" y1="582.963" x2="1318.58" y2="582.963" gradientUnits="userSpaceOnUse">
<stop stop-color="#F4F4F4"/>
<stop offset="0.165" stop-color="#EDECEC"/>
<stop offset="0.4761" stop-color="white"/>
<stop offset="0.7415" stop-color="#EFEFEF"/>
<stop offset="0.928" stop-color="white"/>
</linearGradient>
<linearGradient id="paint2_linear_17_19" x1="1083.44" y1="685.519" x2="1196.43" y2="685.519" gradientUnits="userSpaceOnUse">
<stop stop-color="#EFEFEF"/>
<stop offset="0.165" stop-color="white"/>
<stop offset="0.4761" stop-color="white"/>
<stop offset="0.7415" stop-color="white"/>
<stop offset="0.928" stop-color="white"/>
</linearGradient>
<linearGradient id="paint3_linear_17_19" x1="1129.83" y1="523.304" x2="1225.98" y2="523.304" gradientUnits="userSpaceOnUse">
<stop stop-color="white"/>
<stop offset="0.165" stop-color="white"/>
<stop offset="0.4761" stop-color="#F2F2F2"/>
<stop offset="0.7415" stop-color="#EBEBEB"/>
<stop offset="0.928" stop-color="white"/>
</linearGradient>
<linearGradient id="paint4_linear_17_19" x1="1079.89" y1="630.331" x2="1179.75" y2="630.331" gradientUnits="userSpaceOnUse">
<stop stop-color="#CDC8CC"/>
<stop offset="0.165" stop-color="#E4E4E4"/>
<stop offset="0.4761" stop-color="#E7E5E5"/>
<stop offset="0.7415" stop-color="white"/>
<stop offset="0.928" stop-color="white"/>
</linearGradient>
<linearGradient id="paint5_linear_17_19" x1="1074.2" y1="710.669" x2="1154.09" y2="710.669" gradientUnits="userSpaceOnUse">
<stop stop-color="#F0EEF0"/>
<stop offset="0.165" stop-color="#E6E6E6"/>
<stop offset="0.4761" stop-color="white"/>
<stop offset="0.7415" stop-color="white"/>
<stop offset="0.928" stop-color="white"/>
</linearGradient>
<linearGradient id="paint6_linear_17_19" x1="973.857" y1="697.005" x2="1039.64" y2="697.005" gradientUnits="userSpaceOnUse">
<stop stop-color="#F8F8F8"/>
<stop offset="0.165" stop-color="#F2F1F2"/>
<stop offset="0.4761" stop-color="white"/>
<stop offset="0.7415" stop-color="#EFEFEF"/>
<stop offset="0.928" stop-color="#EAEAEA"/>
</linearGradient>
<linearGradient id="paint7_linear_17_19" x1="130.18" y1="155.487" x2="742.474" y2="843.604" gradientUnits="userSpaceOnUse">
<stop offset="0.0720132" stop-color="#E0E0E0"/>
<stop offset="0.2585" stop-color="#FFF5F5"/>
<stop offset="0.5239" stop-color="#D9D7D7"/>
<stop offset="0.835" stop-color="#DDDDDD"/>
<stop offset="1" stop-color="#D1D1D1"/>
</linearGradient>
</defs>
</svg>
