<svg width="72" height="46" viewBox="0 0 72 46" fill="none" xmlns="http://www.w3.org/2000/svg">
<g clip-path="url(#clip0_18_3859)">
<path opacity="0.75" d="M3.39863 8.17153C-4.14854 13.1244 2.21939 19.1149 9.62505 25.53C12.8326 28.3602 10.8043 32.8413 16.0873 35.8602C23.0213 39.8696 29.059 37.6527 37.0307 38.7847C41.4647 39.4451 41.7949 44.1621 49.9552 45.0112C55.1911 45.53 60.5213 41.2847 66.2288 39.8225C74.6722 37.6998 72.4552 30.8602 67.9741 23.9734C65.5685 20.2942 67.2666 14.3036 61.7005 11.0961C54.5779 6.99228 46.3703 9.06775 38.21 7.98285C31.6062 7.08662 31.559 0.765869 25.2854 0.765869C20.2383 0.765869 19.4835 3.03002 15.4269 3.78474C11.276 4.49228 6.79486 5.95455 3.39863 8.17153Z" fill="#87C4DE"/>
<path opacity="0.5" d="M46.4647 11.0961H45.993L42.7383 14.964L43.1156 15.1527L46.4647 11.0961Z" fill="#87C4DE"/>
<path opacity="0.5" d="M50.4741 22.3225L13.493 9.96399C13.493 9.96399 9.05901 12.2281 9.67222 15.6715C10.1911 18.5961 11.5118 19.4923 18.0213 23.313C18.9647 23.8791 20.8986 25.0583 23.21 26.4263L16.3703 28.3602V28.7376L23.6345 26.7093C26.4647 28.4074 29.7666 30.2942 32.3137 31.5678C36.9364 33.8791 40.0968 35.4357 45.1911 34.8225C52.3137 33.9263 55.8986 31.8508 56.559 27.7942C57.2194 23.7376 50.4741 22.3225 50.4741 22.3225Z" fill="#87C4DE"/>
<path d="M55.8515 23.9734C55.8515 26.0489 54.9081 29.0206 50.6628 31.0017C48.1156 32.181 45.0967 33.5489 39.0118 32.8885C37.9269 32.7942 36.6062 32.3696 34.8609 31.5678C34.2949 31.2847 33.6816 31.0017 33.0213 30.6715C30.9458 29.5866 28.4458 28.1244 25.2382 26.1904C22.1722 24.3508 19.1062 22.747 16.6062 21.0489C15.993 20.6244 15.3798 20.1998 14.8609 19.7281C13.0213 18.2187 11.7949 16.5678 11.4647 14.5395C10.7571 9.06776 14.059 4.77531 21.842 4.49229C25.6628 4.35078 28.3515 5.34135 31.2288 6.89795C31.7477 7.18097 32.2194 7.46399 32.7854 7.79418C34.6722 8.92625 36.7477 10.2942 39.342 11.7564C42.6911 13.6904 46.0401 15.3885 48.776 16.9923C49.2005 17.2281 49.625 17.5112 50.0496 17.747C53.5401 19.8696 55.8986 21.8508 55.8515 23.9734Z" fill="#666666"/>
<path d="M49.908 23.9734C49.7665 24.1621 49.4835 24.3979 49.2948 24.6338L48.5873 25.1055L45.5684 23.313L39.5779 26.7093C38.5401 26.4734 37.5967 26.0489 36.6061 25.5772L42.0778 21.2847L33.3986 16.3319L26.9835 20.0112L25.1439 19.0206L31.276 14.8225L29.625 13.9734L29.2477 13.7847L27.6439 12.9829C21.0401 9.30361 17.5967 12.9829 17.5967 12.9829C17.7854 12.464 18.0684 12.0395 18.4929 11.6621C17.9741 11.9923 17.6911 12.4168 17.5967 12.9829C17.5024 11.3319 20.3326 9.86965 23.2571 10.0583C24.9552 10.1527 26.6061 10.6244 28.2099 11.4263C28.6345 11.6621 29.1061 11.8979 29.5307 12.181C29.7665 12.3225 30.0024 12.5112 30.2382 12.6527L46.2288 21.8508L47.6439 22.6527L49.908 23.9734Z" fill="#666666"/>
<path opacity="0.5" d="M49.2949 24.6338C48.4458 25.2941 47.4552 25.7658 45.9458 26.3319C45.0024 26.6149 44.1533 26.8036 43.3986 26.8979C40.8986 27.2281 38.9647 26.7092 37.0307 25.7658C36.5118 25.53 36.0401 25.247 35.5213 24.964C33.2571 23.6432 30.8043 21.8508 27.3137 20.1998C24.7666 18.7375 21.842 17.2753 19.9081 15.9074C19.342 15.53 18.8232 15.1055 18.4458 14.7281C17.9269 14.2092 17.5967 13.7375 17.5967 13.3602C17.5967 13.2187 17.5967 13.0772 17.5967 12.9357C17.8326 11.5677 19.5307 10.813 22.6439 10.6715C25.0496 10.813 27.3609 11.6621 29.625 13.2658L49.2949 24.6338Z" fill="#666666"/>
<path opacity="0.5" d="M43.9175 26.8036C43.7288 26.8508 43.5401 26.8508 43.3514 26.8979C43.5401 26.8508 43.7288 26.8508 43.9175 26.8036Z" fill="#666666"/>
<path d="M34.059 23.8791L42.4552 18.9263L45.5685 20.3885V20.7187L36.8892 25.6716C35.993 25.247 35.4269 24.3036 34.059 23.8791Z" fill="#4D4D4D"/>
<path d="M33.5402 23.7376L42.4553 18.5961L45.5685 20.3885L36.559 25.53C35.7571 25.1055 34.6722 24.4451 33.5402 23.7376Z" fill="#CCCCCC"/>
<path d="M19.8609 15.9074C19.2949 15.6715 18.7288 15.7659 18.3043 15.8602C17.2666 16.1432 16.3704 16.9451 16.0873 17.5112C15.3798 19.0678 16.276 20.5772 16.6062 20.9546C15.993 20.53 15.427 20.1055 14.8609 19.681C14.6722 18.9263 14.6722 18.03 15.1439 17.0866C15.5685 16.1432 16.7949 15.1998 18.0213 14.8225C18.1628 14.7753 18.2571 14.7753 18.3987 14.7281C18.776 15.1055 19.2949 15.53 19.8609 15.9074Z" fill="#999999"/>
<path d="M36.9835 25.7658C36.7005 25.7658 36.4175 25.7658 36.1345 25.8602C35.1439 26.1432 34.3892 26.9922 34.059 27.6998C33.2099 29.5394 34.342 31.0488 34.8609 31.5677C34.2948 31.2847 33.6816 31.0017 33.0213 30.6715C32.6439 29.7281 32.5024 28.5017 33.0684 27.2753C33.4458 26.4734 34.2477 25.4828 35.4269 25.0111C35.9929 25.247 36.5118 25.4828 36.9835 25.7658Z" fill="#999999"/>
<path d="M32.7383 7.79412C32.3609 7.74695 31.9835 7.79412 31.6533 7.88846C30.6156 8.17148 29.7194 8.97337 29.4364 9.53941C28.9647 10.53 29.2005 11.4734 29.4364 12.1337C29.0118 11.8507 28.5401 11.6149 28.1156 11.379C28.0213 10.6715 28.0684 9.91677 28.4458 9.11488C28.8703 8.21865 29.9552 7.32243 31.1345 6.94507C31.7005 7.18092 32.2194 7.46394 32.7383 7.79412Z" fill="#999999"/>
<path d="M50.0496 17.747C49.8609 17.747 49.7194 17.7941 49.5307 17.8413C48.5873 18.1243 47.7854 18.9734 47.4552 19.6809C46.8892 20.8602 47.2194 21.8979 47.5967 22.6526L46.1816 21.8507C46.0401 21.0489 46.0873 20.1998 46.5118 19.2564C46.842 18.5017 47.6439 17.5111 48.776 17.0394C49.2005 17.2753 49.625 17.5111 50.0496 17.747Z" fill="#999999"/>
<path d="M22.5024 17.2281L30.8986 12.2753L34.0118 13.7375V14.0677L25.2854 19.1149C24.342 18.6432 23.9175 17.6526 22.5024 17.2281Z" fill="#4D4D4D"/>
<path d="M21.7949 17.1337L30.9458 11.9451L34.059 13.7375L25.0024 18.9262L21.7949 17.1337Z" fill="#CCCCCC"/>
<path opacity="0.5" d="M47.1722 10.4357L45.8043 11.8036C46.3232 11.5677 46.9364 11.1904 46.9364 11.1904L47.1722 10.4357Z" fill="#E3CBAE"/>
<path opacity="0.5" d="M14.4364 29.6809L15.0496 29.4922L16.5118 28.6432C16.5118 28.6432 16.5118 28.6432 16.559 28.6432L14.2949 29.3979L14.4364 29.6809Z" fill="#E3CBAE"/>
<path d="M59.9552 34.0678C59.908 34.0678 59.908 34.0678 59.9552 34.0678C59.9552 33.8791 59.8609 33.7376 59.6722 33.5961V33.549H59.7193C59.908 33.6905 60.0024 33.8791 59.9552 34.0678Z" fill="white"/>
<path d="M58.9175 34.5866C58.7288 34.5866 58.4929 34.5394 58.3514 34.4923C58.3514 34.4923 58.3514 34.4923 58.3514 34.4451C58.3514 34.4451 58.3514 34.4451 58.3986 34.4451C58.8231 34.6338 59.4835 34.5866 59.7665 34.3036H59.8137V34.3508C59.5779 34.4923 59.2477 34.5866 58.9175 34.5866Z" fill="white"/>
<path d="M58.0212 34.2093C57.9741 34.2093 57.9741 34.1621 58.0212 34.2093C57.9741 34.1149 57.9269 34.0206 57.9741 33.9263C58.0212 33.7848 58.1627 33.6904 58.3043 33.5961H58.3514V33.6432C58.2099 33.7376 58.0684 33.8319 58.0212 33.9734C57.9741 33.9734 57.9741 34.0678 58.0212 34.2093C58.0212 34.1621 58.0212 34.1621 58.0212 34.2093Z" fill="white"/>
<path d="M59.6722 33.6432C59.4364 33.5017 59.1062 33.4545 58.776 33.5017C58.776 33.5017 58.7288 33.5017 58.7288 33.4545C58.7288 33.4545 58.7288 33.4073 58.776 33.4073C59.1062 33.3602 59.4364 33.4073 59.6722 33.5488C59.6722 33.596 59.6722 33.596 59.6722 33.6432C59.6722 33.596 59.6722 33.6432 59.6722 33.6432Z" fill="white"/>
<path d="M60.5684 33.8319C60.4741 33.6432 60.3326 33.5017 60.0967 33.3602V33.313H60.1439C60.3798 33.4545 60.5213 33.596 60.5684 33.8319C60.6156 33.7847 60.6156 33.8319 60.5684 33.8319C60.6156 33.8319 60.5684 33.8319 60.5684 33.8319Z" fill="white"/>
<path d="M59.8137 34.8225C59.7665 34.7753 59.8137 34.7753 59.8137 34.7753C60.2382 34.6338 60.5212 34.398 60.5684 34.1621C60.5684 34.1621 60.5684 34.1621 60.6156 34.1621C60.6156 34.1621 60.6156 34.1621 60.6156 34.2093C60.5684 34.4451 60.2382 34.681 59.8137 34.8225Z" fill="white"/>
<path d="M58.9647 34.964C58.1156 34.964 57.4552 34.5866 57.3137 34.1621C57.2194 33.8791 57.3609 33.5489 57.6911 33.3602H57.7383V33.4074C57.4081 33.6432 57.2666 33.8791 57.3609 34.1621C57.5496 34.6338 58.3986 35.0583 59.3892 34.8697H59.4364V34.9168C59.2477 34.964 59.1062 34.964 58.9647 34.964Z" fill="white"/>
<path d="M60.1439 33.3602C59.625 33.0772 58.8232 32.9828 58.1628 33.2187H58.1156V33.1715C58.776 32.9357 59.5779 33.03 60.0967 33.313C60.1439 33.313 60.1911 33.313 60.1439 33.3602Z" fill="white"/>
<path d="M61.559 33.7376C61.5118 33.7376 61.5118 33.7376 61.559 33.7376C61.4175 33.4545 61.1816 33.1715 60.8043 32.9828V32.9357H60.8514C61.2288 33.1243 61.4646 33.4074 61.559 33.7376C61.559 33.6904 61.559 33.7376 61.559 33.7376Z" fill="white"/>
<path d="M60.6628 35.1999C60.6628 35.1999 60.6156 35.1999 60.6628 35.1999C60.6156 35.1527 60.6156 35.1527 60.6628 35.1527C61.276 34.8697 61.6062 34.398 61.6062 33.9734C61.6062 33.9734 61.6061 33.9263 61.6533 33.9263C61.6533 33.9263 61.7005 33.9263 61.7005 33.9734C61.6533 34.398 61.276 34.8697 60.6628 35.1999Z" fill="white"/>
<path d="M58.9647 35.5301C58.7288 35.5301 58.5401 35.5301 58.3043 35.4829C58.3043 35.4829 58.2571 35.4829 58.3043 35.4358C58.3043 35.4358 58.3043 35.3886 58.3515 35.4358C59.0118 35.5301 59.7666 35.4829 60.3326 35.2471H60.3798V35.2942C59.9081 35.4829 59.4364 35.5301 58.9647 35.5301Z" fill="white"/>
<path d="M57.5024 35.2942C56.842 35.0583 56.4175 34.6338 56.3231 34.1621C56.2288 33.8319 56.3703 33.5017 56.6061 33.2659H56.6533V33.313C56.4175 33.5961 56.3231 33.8791 56.3703 34.1621C56.4646 34.5866 56.8892 35.0112 57.5024 35.247C57.5495 35.247 57.5495 35.247 57.5024 35.2942C57.5495 35.2942 57.5024 35.2942 57.5024 35.2942Z" fill="white"/>
<path d="M56.8892 33.0772C56.842 33.03 56.842 33.03 56.8892 33.03C57.4081 32.6527 58.2571 32.464 59.1534 32.464C59.1534 32.464 59.2005 32.464 59.2005 32.5112C59.2005 32.5112 59.2005 32.5583 59.1534 32.5583C59.1062 32.5583 59.059 32.5583 59.0118 32.5583C58.1628 32.5112 57.4081 32.747 56.8892 33.0772C56.9364 33.0772 56.8892 33.0772 56.8892 33.0772Z" fill="white"/>
<path d="M60.8043 32.9357C60.5684 32.7942 60.2382 32.6998 59.908 32.6055C59.908 32.6055 59.8609 32.6055 59.908 32.5583C59.908 32.5583 59.908 32.5111 59.9552 32.5583C60.2854 32.6527 60.6156 32.747 60.8514 32.8885C60.8514 32.8885 60.8514 32.9357 60.8043 32.9357C60.8514 32.9357 60.8514 32.9357 60.8043 32.9357Z" fill="white"/>
<path d="M47.2665 9.39791L46.7949 10.7187L46.0401 11.4734C46.0401 11.4734 45.2854 11.8979 45.0496 11.8979C44.6722 11.8507 44.5779 11.5677 44.6722 11.2375C44.7665 10.9545 45.1911 9.82244 46.1345 9.49225L46.8892 9.20923C47.0779 9.2564 47.1722 9.30357 47.2665 9.39791Z" fill="#666666"/>
<path d="M47.3609 9.6809C47.3609 9.49222 47.3137 9.35071 47.1722 9.35071L46.4175 9.63373C45.4269 9.96391 45.0496 11.0488 44.9552 11.379C44.8609 11.662 44.908 11.945 45.2854 11.945C45.3797 11.945 45.6156 11.8507 45.8043 11.7564L47.1722 10.4356L47.3609 9.6809Z" fill="#E3CBAE"/>
<path d="M46.0401 10.9545L39.3892 14.1149C39.2477 14.1621 39.1062 14.1149 39.0118 13.9734C38.9647 13.8319 39.0118 13.6904 39.1533 13.596L45.8986 10.6715C45.9458 10.6243 46.0401 10.6715 46.0873 10.7187C46.1345 10.813 46.0873 10.9074 46.0401 10.9545Z" fill="#999999"/>
<path d="M29.0118 24.7754C28.8703 25.1056 28.6817 25.8131 28.7288 26.332C28.8703 26.615 29.2005 26.9452 29.4835 27.0867C30.0024 28.0773 30.6628 28.549 31.559 28.6433C32.3137 28.6905 32.7854 28.4546 32.8326 27.9829C32.7383 26.9452 30.4269 26.0018 30.5684 24.7754H29.0118Z" fill="black"/>
<path d="M32.3609 21.9452C32.2666 22.5584 32.0779 23.0301 32.1251 23.549C32.1251 23.7848 32.2194 23.9735 32.4081 24.115C32.5968 24.3037 32.9269 24.5867 33.1628 24.681C33.6345 25.6716 34.2477 26.1905 35.0024 26.3792C35.8515 26.4263 36.1817 26.049 36.1817 25.5773C36.1345 24.8225 34.059 23.832 34.1534 22.1339L32.3609 21.9452Z" fill="black"/>
<path d="M34.7194 16.9451C34.5307 18.4546 34.1533 22.0867 34.1533 22.0867C34.1533 22.9357 33.3514 23.2659 32.6911 22.8414C32.6439 22.7942 32.5967 22.747 32.5496 22.6999C32.408 22.5112 32.3609 22.181 32.3609 21.898C32.0779 19.3508 31.559 19.115 31.842 17.747C31.842 17.6999 31.842 17.6527 31.8892 17.6055C31.4175 17.181 30.8043 16.8508 30.2382 16.5678C28.6345 15.8131 26.842 15.3885 26.4175 13.6904C26.4175 13.6433 26.4175 13.5961 26.3703 13.5018C26.3231 13.2187 26.3703 12.9829 26.4175 12.6999C26.4646 12.464 26.559 12.2282 26.6533 11.8508L29.059 11.7565H29.6722C30.8043 12.2282 31.4646 12.6527 34.059 15.247C34.2005 15.3885 34.342 15.5301 34.4835 15.6716C34.8609 16.2376 34.7194 16.615 34.7194 16.9451Z" fill="#755F00"/>
<path opacity="0.5" d="M32.5967 22.7471C32.4552 22.5584 32.4081 22.2282 32.4081 21.9452C32.125 19.398 31.6062 19.1622 31.8892 17.7942C31.8892 17.7471 31.8892 17.6999 31.9364 17.6527C31.4647 17.2282 30.8514 16.898 30.2854 16.615C28.6816 15.8603 26.8892 15.4357 26.4647 13.7376C26.4647 13.6905 26.4647 13.6433 26.4175 13.549C26.3703 13.2659 26.4175 13.0301 26.4647 12.7471C26.6533 13.0773 27.2194 13.549 27.9269 14.115C27.9741 14.1622 28.1156 14.1622 28.3043 14.1622C28.6345 14.115 29.1062 13.9263 29.3892 13.5018C29.342 14.2565 29.2948 14.7754 29.625 14.9641C30.8986 15.7659 31.9835 16.615 33.0684 16.8037C32.4081 17.7942 32.5496 21.049 32.5967 22.7471Z" fill="#A18300"/>
<path d="M30.5685 24.6338C30.5213 25.3885 30.2854 25.813 29.7194 25.53C29.5779 25.4828 29.342 25.3885 29.2005 25.1998C29.1534 25.1526 29.059 25.0583 29.059 24.964C28.6345 22.9828 27.9741 21.1432 28.0213 19.7753C28.0213 19.7281 28.0213 19.6809 28.0213 19.6338V19.5866C28.0213 19.3979 28.0685 19.2564 28.0685 19.0677C28.0685 19.0206 28.0685 18.9734 28.1156 18.9262C28.1156 18.8791 28.1156 18.8791 28.1156 18.8319C26.3232 17.1809 24.059 16.6149 23.4458 14.3036C23.3515 13.7847 23.4458 13.1715 23.5873 12.464C23.6345 12.2281 23.6817 11.9923 23.7288 11.8036H24.2949L26.6534 11.8979H27.3137H27.3609L27.8326 12.2753L27.7383 13.5017L28.2571 14.0677L29.0118 14.9168L30.2383 16.5206L30.71 17.1338C30.8986 17.4168 30.993 17.747 30.9458 18.0772C30.993 19.6338 30.8986 18.6432 30.5685 24.6338Z" fill="#755F00"/>
<path opacity="0.5" d="M29.1533 25.1998C29.1062 25.1526 29.0118 25.0583 29.0118 24.964C28.5873 22.9828 27.9269 21.1432 27.9741 19.7753C27.9741 19.7281 27.9741 19.6809 27.9741 19.6338V19.5866C27.9741 19.3979 28.0213 19.2092 28.0213 19.0677C28.0213 19.0206 28.0213 18.9734 28.0684 18.9262C28.0684 18.8791 28.0684 18.8791 28.0684 18.8319C26.276 17.1809 24.0118 16.6149 23.3986 14.3036C23.3043 13.7847 23.3986 13.1715 23.5401 12.464C23.5873 12.2281 23.6345 11.9923 23.6817 11.8036L26.276 12.9357C26.0401 14.0206 26.8892 14.4923 27.5024 15.4357C28.3515 16.8979 29.8137 17.0394 28.776 18.5489C28.5401 20.1998 28.4458 21.1432 29.1533 25.1998Z" fill="#A18300"/>
<path opacity="0.15" d="M24.2949 13.4074C24.0119 13.2187 23.7289 12.9357 23.5873 12.5111C23.5873 10.0111 23.9175 8.64323 24.3892 7.69983H26.1345C24.7666 9.3036 24.2005 11.2376 24.2949 13.4074Z" fill="#1D1D1B"/>
<path d="M31.0401 6.00173C31.0401 7.84135 30.5213 9.25645 30.1439 10.2942C29.908 10.9546 29.6722 11.4734 29.6722 11.8508C28.1156 13.0772 25.6628 14.2564 24.342 13.4546C24.059 13.2659 23.776 12.9829 23.6345 12.5583C23.6345 10.0583 23.9646 8.69041 24.4363 7.74701C24.7665 6.9923 25.0967 6.56777 25.3326 6.0489C26.3703 5.29418 27.4552 4.4923 28.5873 4.11494C29.7194 3.40739 29.7194 4.06777 30.5213 4.20928C30.8986 4.53947 30.993 4.96399 31.0401 5.48286C31.0401 5.62437 31.0401 5.81305 31.0401 6.00173Z" fill="#A18300"/>
<path d="M27.0308 5.71869L27.8326 4.06775L30.0496 5.15265L29.5779 6.37907C29.1534 7.8885 26.7949 6.99228 27.0308 5.71869Z" fill="#FFAD73"/>
<path opacity="0.3" d="M30.0496 5.8602C29.9553 6.42624 29.8138 7.51115 29.059 7.69983C28.3987 7.69983 27.5968 6.00171 27.8798 5.38851V4.63379L30.0496 5.8602Z" fill="#CEA55F"/>
<path d="M28.8703 1.52063C27.7854 1.52063 27.1722 2.0395 27.1251 3.21874C27.1722 4.44516 27.5496 5.43572 28.493 6.0961C28.9647 6.47346 29.4364 6.61497 30.0024 6.5678C30.6628 6.61497 30.7571 4.96403 30.8515 3.78478C30.8043 2.55837 30.0968 1.85082 28.8703 1.52063Z" fill="#FFAD73"/>
<path d="M30.8987 3.31306C30.6628 3.8791 29.6251 4.30363 28.5402 4.06778L28.3987 5.01118L27.927 4.77533L27.5024 5.24703L27.3609 5.01118C26.559 3.36023 26.7949 2.18099 28.0213 1.52061C29.6251 0.907404 31.2288 2.46401 30.8987 3.31306Z" fill="black"/>
<path d="M27.7854 5.19987C27.6911 5.10554 27.5968 5.0112 27.5024 4.86969C27.4552 4.72818 27.4552 4.58667 27.5024 4.49233C27.5496 4.35082 27.7383 4.30365 27.8326 4.35082C27.9269 4.39799 27.9741 4.44516 28.0213 4.5395C28.0685 4.63384 28.0685 4.72818 28.0685 4.82252C28.0685 4.91686 28.0685 5.0112 28.0685 5.05837C28.0685 5.10554 28.0685 5.19988 28.0213 5.24704C27.9741 5.29421 27.9269 5.29421 27.8798 5.29421C27.8798 5.24705 27.8326 5.19987 27.7854 5.19987Z" fill="#FFAD73"/>
<path d="M32.5968 14.4923C31.276 13.6904 30.6156 12.6055 30.1911 11.6149L29.9081 10.9074C30.2854 9.86963 31.0402 7.79416 31.0402 5.95454C31.0402 5.76586 31.0402 5.57718 31.0402 5.43567C31.1345 5.62435 31.2288 5.81303 31.276 6.04888L31.8892 10.2942C32.4552 11.096 33.4458 13.0772 33.4458 13.0772C33.776 13.6904 32.9741 14.7753 32.5968 14.4923Z" fill="#A18300"/>
<path opacity="0.5" d="M29.6722 11.8508C28.3515 11.6621 26.7477 10.1527 26.1345 8.36023L24.8609 12.3225L27.7383 15.247C27.1251 13.9263 29.4835 12.0395 29.6722 11.8508Z" fill="#A18300"/>
<path d="M27.9269 16.2848C28.0213 16.7093 28.21 16.898 28.6345 17.0867L29.1062 17.4169L29.3892 17.8414C29.5307 18.0773 29.7666 17.8886 29.6251 17.6999L29.9552 17.9829C30.1911 18.1244 30.2854 17.9829 30.1911 17.7942C30.5213 18.1716 30.7571 17.9358 30.5684 17.6527L30.4269 17.5112C30.5684 17.6527 30.8043 17.5584 30.5684 17.2754C30.1439 16.7093 30.0496 16.5207 29.5779 16.0961C29.2477 15.8603 29.0118 15.7188 28.776 15.6716L27.8326 15.0112L27.3609 15.6716L27.9269 16.2848Z" fill="#FFAD73"/>
<path d="M25.2855 6.00171C24.3892 6.47341 24.0119 7.27529 23.8232 8.59605C23.5873 10.5772 24.1062 13.2659 24.1062 13.2659C24.8138 14.3036 26.9364 16.1432 27.9741 16.4262C27.927 16.0489 28.3515 15.5772 28.8232 15.7187C27.8326 14.5394 26.7477 12.7942 26.0873 11.9451C26.0402 10.3885 26.5119 9.58661 26.3232 8.17152C26.276 7.36963 25.8987 6.28473 25.2855 6.00171Z" fill="#A18300"/>
<path d="M28.9175 25.1055L28.1156 20.9546C28.6816 21.5678 30.5213 21.9451 30.8515 20.8602L30.6628 25.1999C30.2382 26.3791 29.625 25.6715 28.9175 25.1055Z" fill="black"/>
<path d="M32.3137 22.4168C32.1722 20.7659 31.6534 18.9262 31.7477 18.3602C32.2194 18.8319 34.2005 19.3508 34.5307 18.2659L34.1534 22.4168C33.8232 23.6432 32.5496 23.3602 32.3137 22.4168Z" fill="black"/>
<path d="M18.3515 26.9922C18.8703 26.5205 18.4458 26.0488 18.4458 26.0488C18.1628 25.6715 17.0307 26.3319 17.0307 26.3319L14.3892 28.1243L14.0118 28.6904L14.342 29.3507L15.9458 28.7847L16.4647 28.4545C16.4175 28.5017 17.8326 27.5111 18.3515 26.9922Z" fill="#666666"/>
<path d="M18.5402 26.2376C18.2571 25.8602 17.1251 26.5206 17.1251 26.5206L14.4836 28.313L14.1062 28.8791L14.3421 29.3979L16.6062 28.6432C16.7949 28.5017 18.0213 27.6055 18.493 27.181C18.9647 26.7093 18.5402 26.2376 18.5402 26.2376Z" fill="#E3CBAE"/>
<path d="M31.7949 18.4545L17.0779 27.5111C17.0307 27.5583 16.9364 27.5111 16.8892 27.4639C16.8421 27.4168 16.8892 27.3224 16.9364 27.2752L31.5119 17.9828C31.6534 17.8885 31.7949 17.9356 31.8892 18.0771C31.9836 18.2186 31.8892 18.3602 31.7949 18.4545Z" fill="#999999"/>
<path d="M58.9647 34.0205C58.9647 34.0205 58.9175 34.0205 58.9647 34.0205L58.3043 18.596C56.559 18.4073 54.7194 18.1715 53.4458 17.3224C51.8892 17.2753 50.6628 17.2753 49.2948 16.4262C49.2005 16.4262 49.059 16.4262 48.9647 16.4262C47.5496 16.3319 46.0873 16.2847 44.5779 15.6243C42.7854 15.7658 41.1816 15.5771 39.8137 15.1054L36.5118 15.2941C36.5118 15.2941 36.4647 15.2941 36.4647 15.247C36.4647 15.247 36.4647 15.1998 36.5118 15.1998L39.8137 15.0111C41.1816 15.4828 42.7854 15.6715 44.5779 15.53C46.0873 16.1904 47.5496 16.2847 48.9647 16.3319C49.1062 16.3319 49.2005 16.3319 49.342 16.3319C50.7099 17.1337 51.9364 17.1809 53.493 17.2281C54.8137 18.0771 56.6533 18.313 58.3986 18.5017H58.4458V18.5488L58.9647 34.0205C59.0118 34.0205 58.9647 34.0205 58.9647 34.0205Z" fill="white"/>
<path d="M36.0473 14.6122L35.7344 14.7178L36.1868 16.0586L36.4997 15.953L36.0473 14.6122Z" fill="#3C3C3B"/>
<path d="M35.8515 14.8696C35.8987 14.5394 36.1345 14.4922 36.3704 14.6809C36.6062 14.8696 36.7477 15.2941 36.7006 15.6243C36.6534 15.9545 36.4175 16.0017 36.1817 15.813C35.8987 15.6243 35.7572 15.1998 35.8515 14.8696Z" fill="#534741"/>
<path d="M35.5213 15.0111C35.5685 14.6809 35.8043 14.6337 36.0402 14.8224C36.276 15.0111 36.4175 15.4356 36.3703 15.7658C36.3232 16.096 36.0873 16.1431 35.8515 15.9545C35.5685 15.7186 35.427 15.2941 35.5213 15.0111Z" fill="#E3CBAE"/>
<path d="M35.4741 15.1998C35.5213 15.0111 35.6628 14.964 35.8043 15.1055C35.9458 15.247 36.0402 15.4828 35.993 15.6715C35.9458 15.8602 35.8043 15.9074 35.6628 15.7659C35.5213 15.6715 35.427 15.3885 35.4741 15.1998Z" fill="#3C3C3B"/>
<path d="M35.4274 14.6189L35.2933 14.6642L35.8512 16.3178L35.9853 16.2726L35.4274 14.6189Z" fill="#706F6F"/>
<path d="M35.1911 14.9639C35.2854 14.5866 35.5684 14.4922 35.8514 14.7281C36.1345 15.0111 36.3231 15.53 36.2288 15.9073C36.1345 16.2847 35.8514 16.379 35.5684 16.1432C35.2854 15.8601 35.1439 15.3413 35.1911 14.9639Z" fill="#534741"/>
<path d="M35.0496 15.011C35.1439 14.6337 35.4269 14.5393 35.7099 14.7752C35.993 15.0582 36.1816 15.5771 36.0873 15.9544C35.993 16.3318 35.7099 16.4261 35.4269 16.1903C35.1439 15.9073 34.9552 15.3884 35.0496 15.011Z" fill="#E3CBAE"/>
<path d="M35.1911 15.1525C35.2383 14.8695 35.4741 14.8224 35.6628 15.011C35.8515 15.1997 35.993 15.5771 35.9458 15.8601C35.8986 16.1431 35.6628 16.1903 35.4741 16.0016C35.2854 15.8129 35.1439 15.4356 35.1911 15.1525Z" fill="#534741"/>
<path d="M35.5213 15.4356C35.5213 15.3884 35.5685 15.3413 35.6156 15.3884C35.6628 15.4356 35.6628 15.4828 35.6628 15.5771C35.6628 15.6243 35.6156 15.6715 35.5685 15.6243C35.5213 15.5299 35.5213 15.4828 35.5213 15.4356Z" fill="#1A1A1A"/>
<path d="M35.1439 14.8696L35.1911 15.1055L35.0024 15.1526L34.9553 14.9168L35.1439 14.8696Z" fill="#534741"/>
<path d="M35.0967 14.9168C35.0967 14.8696 35.1439 14.8696 35.1911 14.8696C35.2382 14.9168 35.2382 14.964 35.2382 15.0583C35.2382 15.1526 35.1911 15.1055 35.1439 15.1055C35.0967 15.0111 35.0967 14.964 35.0967 14.9168Z" fill="#534741"/>
<path d="M34.9081 14.9639C34.9081 14.9167 34.9552 14.9167 35.0024 14.9167C35.0496 14.9639 35.0496 15.0111 35.0496 15.1054C35.0496 15.1526 35.0024 15.1526 34.9553 15.1526C34.9081 15.1054 34.9081 15.0583 34.9081 14.9639Z" fill="#1A1A1A"/>
<path d="M34.908 13.9734L34.9552 14.9168L34.6722 15.247C34.5307 15.3413 34.342 15.2941 34.1062 15.2941L33.2571 14.9639L33.0213 14.6809L32.6439 14.2092C32.5024 13.7847 32.8797 13.313 33.3514 13.313L33.7288 13.5488L34.908 13.9734Z" fill="#FCAF75"/>
<path d="M58.3043 18.6903C56.1345 18.0771 54.0119 17.4639 51.7949 16.9922C49.6251 16.4734 47.4081 16.096 45.1911 15.7658C42.9741 15.4356 40.7571 15.1998 38.5402 15.0111C36.3232 14.8696 34.059 14.7752 31.842 14.8696C31.7005 14.8696 31.6062 14.7752 31.559 14.6337C31.559 14.4922 31.6534 14.3979 31.7949 14.3979C34.059 14.3507 36.276 14.4451 38.5402 14.6337C40.7571 14.8224 43.0213 15.1054 45.2383 15.4356C47.4552 15.813 49.6722 16.2375 51.842 16.7564C54.0119 17.2752 56.1817 17.8885 58.3043 18.5488C58.3515 18.5488 58.3515 18.596 58.3515 18.6432C58.3986 18.6432 58.3515 18.6903 58.3043 18.6903Z" fill="#534741"/>
<path d="M34.9081 13.9735L34.7194 14.5395C34.625 14.6338 34.5307 14.6338 34.4364 14.5395L34.4835 14.115C34.2477 14.1621 33.8231 13.9735 33.6816 13.7376L33.3986 13.5961C33.6816 13.4546 33.9175 13.3603 34.1533 13.4546C34.5307 13.5489 34.8137 13.6433 34.9081 13.9735Z" fill="#FFAD73"/>
<path d="M34.5779 15.247L34.5307 15.0583C34.5307 14.9168 34.2949 14.8697 34.2477 14.964C34.2005 14.8225 34.0118 14.7753 33.9175 14.8697C33.9175 14.681 33.6817 14.6338 33.5873 14.7282C33.5401 14.5866 33.2571 14.5395 33.3043 14.7753V14.8697L34.059 15.1999L34.5779 15.247Z" fill="#FFAD73"/>
</g>
<defs>
<clipPath id="clip0_18_3859">
<rect width="71.8868" height="45" fill="white" transform="translate(0.00238037 0.0583496)"/>
</clipPath>
</defs>
</svg>
