<svg width="71" height="46" viewBox="0 0 71 46" fill="none" xmlns="http://www.w3.org/2000/svg">
<g clip-path="url(#clip0_18_3964)">
<path opacity="0.75" d="M67.1493 4.75978C75.5482 8.1193 66.1327 16.2087 65.337 20.8059C64.7181 24.3865 67.282 28.7185 60.3861 33.0505C58.2201 34.4209 53.0482 34.3767 50.3959 35.9238C46.9038 37.9572 45.8871 42.5987 41.9529 43.8806C37.5325 45.2951 29.3105 43.4386 24.8458 43.8806C15.8281 44.8089 10.9215 47.0191 4.99808 43.8806C-3.00291 39.637 1.01969 36.5427 0.754461 32.9621C0.445031 29.1606 -1.01371 24.9611 2.78786 21.027C4.99808 18.7283 10.9657 17.9327 14.502 15.8993C18.5688 13.5564 21.1327 9.57805 25.7741 8.25192C30.504 6.88158 36.2505 3.78728 40.9362 3.52205C46.1965 3.21262 53.6228 -0.41213 57.9549 0.737182C60.1651 1.35604 65.2486 3.9641 67.1493 4.75978Z" fill="#7DBDD9"/>
<path d="M49.8655 15.413C49.8655 15.7225 49.6002 15.9877 49.2908 15.9877C48.9814 15.9877 48.7162 15.7225 48.7162 15.413C48.7162 15.1036 48.9814 14.8384 49.2908 14.8384C49.6002 14.8384 49.8655 15.1036 49.8655 15.413Z" fill="white"/>
<path d="M49.6445 15.2363C50.0839 15.2363 50.4401 14.88 50.4401 14.4406C50.4401 14.0011 50.0839 13.6449 49.6445 13.6449C49.205 13.6449 48.8488 14.0011 48.8488 14.4406C48.8488 14.88 49.205 15.2363 49.6445 15.2363Z" fill="white"/>
<path d="M51.5452 15.0594C51.5452 15.5014 51.1916 15.855 50.7496 15.855C50.3075 15.855 49.9539 15.5014 49.9539 15.0594C49.9539 14.6173 50.3075 14.2637 50.7496 14.2637C51.1916 14.2637 51.5452 14.6173 51.5452 15.0594Z" fill="white"/>
<path d="M52.0757 14.5732C52.0757 14.8384 51.8547 15.0594 51.5894 15.0594C51.3242 15.0594 51.1032 14.8384 51.1032 14.5732C51.1032 14.3079 51.3242 14.0869 51.5894 14.0869C51.8547 14.1311 52.0757 14.3521 52.0757 14.5732Z" fill="white"/>
<path d="M51.1474 13.6449C51.5136 13.6449 51.8105 13.348 51.8105 12.9818C51.8105 12.6156 51.5136 12.3187 51.1474 12.3187C50.7812 12.3187 50.4843 12.6156 50.4843 12.9818C50.4843 13.348 50.7812 13.6449 51.1474 13.6449Z" fill="white"/>
<path d="M52.6061 14.529C53.1677 14.529 53.6228 14.0738 53.6228 13.5123C53.6228 12.9508 53.1677 12.4956 52.6061 12.4956C52.0446 12.4956 51.5894 12.9508 51.5894 13.5123C51.5894 14.0738 52.0446 14.529 52.6061 14.529Z" fill="white"/>
<path d="M51.9431 11.4788C51.9431 11.5672 51.8547 11.6556 51.7663 11.6556C51.6779 11.6556 51.5894 11.5672 51.5894 11.4788C51.5894 11.3904 51.6779 11.302 51.7663 11.302C51.8547 11.302 51.9431 11.3904 51.9431 11.4788Z" fill="white"/>
<path d="M53.8439 12.4072C54.1124 12.4072 54.3301 12.1895 54.3301 11.9209C54.3301 11.6524 54.1124 11.4347 53.8439 11.4347C53.5753 11.4347 53.3576 11.6524 53.3576 11.9209C53.3576 12.1895 53.5753 12.4072 53.8439 12.4072Z" fill="white"/>
<path d="M55.7447 12.6282C56.1841 12.6282 56.5403 12.272 56.5403 11.8325C56.5403 11.3931 56.1841 11.0369 55.7447 11.0369C55.3052 11.0369 54.949 11.3931 54.949 11.8325C54.949 12.272 55.3052 12.6282 55.7447 12.6282Z" fill="white"/>
<path d="M53.004 10.7274C53.004 10.86 52.9156 10.9484 52.7829 10.9484C52.6503 10.9484 52.5619 10.86 52.5619 10.7274C52.5619 10.5948 52.6503 10.5063 52.7829 10.5063C52.9156 10.5063 53.004 10.5948 53.004 10.7274Z" fill="white"/>
<path d="M54.5069 13.3797C54.6534 13.3797 54.7722 13.2609 54.7722 13.1145C54.7722 12.968 54.6534 12.8492 54.5069 12.8492C54.3604 12.8492 54.2417 12.968 54.2417 13.1145C54.2417 13.2609 54.3604 13.3797 54.5069 13.3797Z" fill="white"/>
<path d="M50.0865 14.1754C50.4527 14.1754 50.7496 13.8785 50.7496 13.5123C50.7496 13.1461 50.4527 12.8492 50.0865 12.8492C49.7203 12.8492 49.4234 13.1461 49.4234 13.5123C49.4234 13.8785 49.7203 14.1754 50.0865 14.1754Z" fill="white"/>
<path d="M49.8213 12.4071C50.041 12.4071 50.2191 12.229 50.2191 12.0093C50.2191 11.7896 50.041 11.6115 49.8213 11.6115C49.6015 11.6115 49.4234 11.7896 49.4234 12.0093C49.4234 12.229 49.6015 12.4071 49.8213 12.4071Z" fill="white"/>
<path d="M51.3242 11.2136C51.3242 11.3904 51.1916 11.523 51.0148 11.523C50.838 11.523 50.7054 11.3904 50.7054 11.2136C50.7054 11.0368 50.838 10.9042 51.0148 10.9042C51.1916 10.9042 51.3242 11.0368 51.3242 11.2136Z" fill="white"/>
<path d="M52.8271 12.0535C52.8271 12.0977 52.7829 12.1419 52.7387 12.1419C52.6945 12.1419 52.6503 12.0977 52.6503 12.0535C52.6503 12.0093 52.6945 11.9651 52.7387 11.9651C52.7829 11.9651 52.8271 12.0093 52.8271 12.0535Z" fill="white"/>
<path d="M54.8163 10.7273C55.1581 10.7273 55.4352 10.4503 55.4352 10.1085C55.4352 9.7667 55.1581 9.48962 54.8163 9.48962C54.4746 9.48962 54.1975 9.7667 54.1975 10.1085C54.1975 10.4503 54.4746 10.7273 54.8163 10.7273Z" fill="white"/>
<path d="M53.6228 9.75484C53.6228 9.88745 53.5344 9.97586 53.4018 9.97586C53.2692 9.97586 53.1808 9.88745 53.1808 9.75484C53.1808 9.62222 53.2692 9.53381 53.4018 9.53381C53.5344 9.53381 53.6228 9.62222 53.6228 9.75484Z" fill="white"/>
<path d="M56.4519 10.3295C56.4519 10.4179 56.3635 10.5063 56.2751 10.5063C56.1867 10.5063 56.0983 10.4179 56.0983 10.3295C56.0983 10.2411 56.1867 10.1527 56.2751 10.1527C56.3635 10.1527 56.4519 10.2411 56.4519 10.3295Z" fill="white"/>
<path d="M57.6012 10.7716C57.6012 10.9042 57.4686 11.0368 57.336 11.0368C57.2034 11.0368 57.0708 10.9042 57.0708 10.7716C57.0708 10.639 57.2034 10.5063 57.336 10.5063C57.4686 10.5063 57.6012 10.639 57.6012 10.7716Z" fill="white"/>
<path d="M52.7387 14.3964C52.7387 15.0595 52.2083 15.5899 51.5452 15.5899C50.8822 15.5899 50.3517 15.0595 50.3517 14.3964C50.3517 13.7333 50.8822 13.2029 51.5452 13.2029C52.2083 13.2029 52.7387 13.7333 52.7387 14.3964Z" fill="white"/>
<path d="M51.9431 10.3295C51.9431 10.4622 51.8547 10.5506 51.7221 10.5506C51.5894 10.5506 51.501 10.4622 51.501 10.3295C51.501 10.1969 51.5894 10.1085 51.7221 10.1085C51.8547 10.1085 51.9431 10.2411 51.9431 10.3295Z" fill="white"/>
<path d="M57.8222 9.84329C57.8222 9.8875 57.778 9.9317 57.7338 9.9317C57.6896 9.9317 57.6454 9.8875 57.6454 9.84329C57.6454 9.79909 57.6896 9.75488 57.7338 9.75488C57.778 9.75488 57.8222 9.79909 57.8222 9.84329Z" fill="white"/>
<path d="M57.0708 9.04765C57.0708 9.13606 57.0266 9.18027 56.9382 9.18027C56.8497 9.18027 56.8055 9.13606 56.8055 9.04765C56.8055 8.95924 56.8497 8.91504 56.9382 8.91504C56.9824 8.91504 57.0708 8.95924 57.0708 9.04765Z" fill="white"/>
<path d="M58.2643 8.82658C58.2643 8.91499 58.2201 8.9592 58.1317 8.9592C58.0433 8.9592 57.9991 8.91499 57.9991 8.82658C57.9991 8.73817 58.0433 8.69397 58.1317 8.69397C58.2201 8.69397 58.2643 8.73817 58.2643 8.82658Z" fill="white"/>
<path d="M59.6788 8.51716C59.6788 8.60557 59.5904 8.73819 59.4578 8.73819C59.3252 8.73819 59.2368 8.64978 59.2368 8.51716C59.2368 8.38455 59.3252 8.29614 59.4578 8.29614C59.5904 8.29614 59.6788 8.38455 59.6788 8.51716Z" fill="white"/>
<path d="M32.9794 31.4592C32.9352 31.4592 32.9352 31.4592 32.9352 31.415C32.9352 31.3708 32.9352 31.3266 32.9794 31.3266L64.9833 12.3187C65.0275 12.3187 65.0718 12.3187 65.0718 12.3629C65.0718 12.4071 65.0718 12.4513 65.0275 12.4513L32.9794 31.4592C33.0236 31.4592 33.0236 31.4592 32.9794 31.4592Z" fill="white"/>
<path d="M22.8124 24.1212C22.8124 24.1212 22.7682 24.1212 22.7682 24.077C22.7682 24.0328 22.7682 23.9886 22.7682 23.9886L52.6945 4.5387C52.7387 4.5387 52.783 4.5387 52.783 4.5387C52.783 4.5829 52.783 4.6271 52.783 4.6271L22.8124 24.1212C22.8566 24.1212 22.8124 24.1212 22.8124 24.1212Z" fill="white"/>
<path d="M32.1395 30.8846C32.1395 30.8846 32.0953 30.8846 32.0953 30.8404C32.0953 30.7962 32.0953 30.752 32.0953 30.752L60.2535 12.9376C60.2977 12.9376 60.3419 12.9376 60.3419 12.9376C60.3419 12.9818 60.3419 13.026 60.3419 13.026L32.1395 30.8846C32.1837 30.8846 32.1395 30.8846 32.1395 30.8846Z" fill="white"/>
<path d="M23.5197 25.4916C23.5197 25.4916 23.4755 25.4916 23.4755 25.4474C23.4755 25.4032 23.4755 25.359 23.4755 25.359L51.6779 7.58887C51.7221 7.58887 51.7663 7.58887 51.7663 7.58887C51.7663 7.63307 51.7663 7.67728 51.7663 7.67728L23.5197 25.4916C23.5639 25.4916 23.5639 25.4916 23.5197 25.4916Z" fill="white"/>
<path d="M32.9794 28.0997C32.9794 28.0997 32.9352 28.0997 32.9352 28.0555C32.9352 28.0113 32.9352 27.9671 32.9352 27.9671L61.1376 10.0201C61.1818 10.0201 61.226 10.0201 61.226 10.0201C61.226 10.0643 61.226 10.1086 61.226 10.1086L32.9794 28.0997C33.0236 28.0997 33.0236 28.0997 32.9794 28.0997Z" fill="white"/>
<path d="M41.334 27.7018C41.2898 27.7018 41.2898 27.7018 41.2898 27.6576C41.2898 27.6134 41.2898 27.5692 41.334 27.5692L55.9215 19.5682C55.9657 19.5682 56.0099 19.5682 56.0099 19.6124C56.0099 19.6566 56.0099 19.7009 55.9657 19.7009L41.334 27.7018Z" fill="white"/>
<path d="M58.5737 18.4189C58.5295 18.4189 58.5295 18.4189 58.5295 18.3747C58.5295 18.3305 58.5295 18.2863 58.5737 18.2863L64.9833 14.4847C65.0275 14.4847 65.0718 14.4847 65.0718 14.5289C65.0718 14.5732 65.0718 14.6174 65.0276 14.6174L58.5737 18.4189Z" fill="white"/>
<path d="M61.7564 12.1419C61.7122 12.1419 61.7122 12.1419 61.7122 12.0977C61.7122 12.0535 61.7122 12.0093 61.7122 12.0093L64.9391 10.0643C64.9833 10.0643 65.0275 10.0643 65.0275 10.0643C65.0275 10.1085 65.0275 10.1527 65.0275 10.1527L61.7564 12.1419C61.8006 12.0977 61.8006 12.1419 61.7564 12.1419Z" fill="white"/>
<path d="M52.4293 7.27942C52.4293 7.27942 52.3851 7.27942 52.3851 7.23522C52.3851 7.19101 52.3851 7.14681 52.3851 7.14681L57.4686 4.0083C57.5128 4.0083 57.557 4.0083 57.557 4.0083C57.557 4.05251 57.557 4.09671 57.557 4.09671L52.4293 7.27942Z" fill="white"/>
<path d="M51.6336 9.35702C51.5894 9.35702 51.5894 9.35702 51.5894 9.31282C51.5894 9.26862 51.5894 9.22441 51.6336 9.22441L57.336 5.82068C57.3802 5.82068 57.4244 5.82068 57.4244 5.86488C57.4244 5.90909 57.4244 5.95329 57.3802 5.95329L51.6336 9.35702Z" fill="white"/>
<path opacity="0.5" d="M7.16411 34.3324C9.33012 31.3707 48.5393 18.021 48.5393 18.021L51.6337 19.7008C51.6337 19.7008 44.6936 27.0387 40.5384 29.5583C37.3557 31.5033 34.5266 33.2273 30.9902 35.2165C25.5531 38.2666 19.3645 41.3167 15.8724 41.6261C9.63955 42.2008 5.0865 42.2008 5.0865 42.2008C5.0865 42.2008 4.99809 37.2941 7.16411 34.3324Z" fill="#36B3D6"/>
<path d="M50.617 14.5288C50.617 14.5288 50.1307 18.9934 41.2899 26.0661C38.1071 28.5858 34.7034 30.4424 31.5207 32.2547C25.6857 35.5701 22.5472 37.8687 15.6513 38.7086C8.53445 39.5927 6.54526 35.8353 6.54526 35.8353L21.1327 23.5465L50.617 14.5288Z" fill="#534741"/>
<path d="M50.617 14.5288L43.3674 10.4178C36.1621 12.6281 29.3989 15.1035 25.3321 17.6674C18.7898 21.7342 12.6896 24.5632 9.06489 27.6575C6.14741 30.133 6.54525 35.7911 6.54525 35.7911C12.336 36.3658 17.0217 35.7911 20.6022 34.5976C24.669 33.2273 28.559 30.575 35.9411 26.2872C42.395 22.5298 46.1081 19.4797 50.617 14.5288Z" fill="#E3CBAE"/>
<path d="M7.16409 35.2607C7.29671 35.2607 7.42932 35.3049 7.56193 35.3049C8.71124 35.3933 9.86056 35.4375 10.9657 35.4375C14.502 35.4375 17.6847 34.9513 20.4254 34.023C20.558 33.9788 20.6464 33.9346 20.779 33.8903C23.6523 32.8736 26.5698 31.1497 30.8576 28.5858C32.2721 27.7459 33.8635 26.7735 35.6317 25.7568C41.6435 22.2646 45.224 19.4355 49.6444 14.7057L43.3232 11.1251C34.9244 13.7332 29.1336 16.0318 25.6415 18.1978C23.1219 19.745 20.7348 21.1153 18.4362 22.3972C14.8114 24.4748 11.6287 26.243 9.41851 28.0996C7.2967 29.9562 7.11989 33.8461 7.16409 35.2607Z" fill="#B59F8A"/>
<path d="M48.8488 15.5456L42.9696 12.1418L36.56 14.1752L45.0472 19.1703C46.2407 18.1536 47.5226 16.8717 48.8488 15.5456Z" fill="#534741"/>
<path d="M36.56 14.1752V14.9266L44.5167 19.6565L45.0472 19.1703L36.56 14.1752Z" fill="#E3CBAE"/>
<path d="M33.7309 26.8618L23.2545 20.8058L19.9391 22.7508L30.4156 28.8068L33.7309 26.8618Z" fill="#534741"/>
<path d="M19.9391 22.7509V23.5907L29.6641 29.2931L30.4156 28.8068L19.9391 22.7509Z" fill="#E3CBAE"/>
<path d="M7.56194 35.2606C8.71126 35.349 9.86057 35.3932 10.9657 35.3932C14.502 35.3932 17.6847 34.907 20.4254 33.9787C20.558 33.9345 20.6464 33.8903 20.779 33.8461L10.6562 28.0553C10.6562 28.0553 9.55114 28.5415 8.40183 30.9728C7.25251 33.3156 7.51774 35.128 7.56194 35.2606Z" fill="#534741"/>
<path opacity="0.5" d="M36.56 14.9266C36.56 14.9266 38.0187 18.6398 40.6268 20.0101C43.2348 21.4247 42.7044 21.071 42.7044 21.071L44.5167 19.6123L36.56 14.9266Z" fill="#998675"/>
<path opacity="0.5" d="M29.6641 29.293L26.4372 31.1938C26.4372 31.1938 19.1435 27.8785 19.9391 23.6349L29.6641 29.293Z" fill="#998675"/>
<path d="M48.5836 13.3795L49.7771 14.0868L49.8213 12.6722L48.5836 13.3795Z" fill="#CCCCCC"/>
<path d="M45.8429 13.2028L46.3733 13.8658L47.3016 14.3521L48.1415 13.8658L47.9205 13.689L47.2574 13.3796L45.8429 13.2028Z" fill="white"/>
<path d="M48.2299 8.07506C48.1415 8.03085 48.0089 8.03085 47.9205 8.11926L45.4451 9.578C45.1798 9.71062 45.003 10.0643 45.003 10.3737L44.9588 12.4955C44.9588 12.6281 45.003 12.7607 45.0914 12.8049L47.2574 14.0868C47.169 14.0426 47.1248 13.91 47.1248 13.7774L47.169 11.6556C47.169 11.3462 47.39 10.9925 47.6111 10.8599L50.0865 9.40119C50.2191 9.31278 50.3517 9.31278 50.3959 9.35698L48.2299 8.07506Z" fill="#EA1F3D"/>
<path d="M47.3016 11.0367C47.39 10.9483 47.4785 10.8599 47.5669 10.8157L50.0423 9.35694C50.2633 9.22433 50.4401 9.31274 50.4843 9.48955L50.9264 11.3019C51.0148 11.6114 50.7938 12.0534 50.4843 12.2302L47.5227 13.9542C47.2574 14.0868 47.0364 13.9984 47.0806 13.689L47.1248 11.5672C47.1248 11.3903 47.2132 11.2135 47.3016 11.0367Z" fill="#AD172D"/>
<path d="M49.7771 10.5946L48.3183 11.4345V11.3019L49.7771 10.462V10.5946Z" fill="#1A1A1A"/>
<path d="M49.7771 10.9041L48.3183 11.744V11.6114L49.7771 10.7273V10.9041Z" fill="#1A1A1A"/>
<path d="M49.7771 11.2136L48.3183 12.0534V11.8766L49.7771 11.0367V11.2136Z" fill="#1A1A1A"/>
<path d="M49.7771 11.5229L48.3183 12.3628V12.186L49.7771 11.3461V11.5229Z" fill="#1A1A1A"/>
<path d="M49.7771 11.8323L48.3183 12.6722V12.4954L49.7771 11.6555V11.8323Z" fill="#1A1A1A"/>
<path d="M41.2014 11.8766H41.334C41.7319 11.8324 41.9971 12.5397 41.5993 12.8491L40.9804 13.2469L40.2289 13.6006L39.8311 12.9817L41.2014 11.8766Z" fill="#E69C67"/>
<path d="M41.0688 11.8766L42.616 10.7715L43.4116 12.4512L41.4224 12.9817C41.8203 12.5839 41.4225 11.965 41.0688 11.8766Z" fill="#755F00"/>
<path d="M39.4332 13.8658C39.3448 13.8658 39.3006 13.8216 39.2564 13.7332C39.2122 13.6448 39.2564 13.5122 39.3448 13.4238L43.0138 11.4346C43.1022 11.3904 43.2348 11.4346 43.3232 11.523C43.3674 11.6114 43.3232 11.744 43.2348 11.8324L39.5658 13.8216C39.4774 13.8658 39.4774 13.8658 39.4332 13.8658Z" fill="#333333"/>
<path d="M41.2456 11.965L41.0246 12.5397C40.8478 12.7165 40.671 12.8491 40.4057 12.8491L40.2289 13.5122C40.0963 13.6448 40.0079 13.6448 39.9637 13.5122L40.0079 13.0701L39.8753 13.0259L39.8311 12.7607L40.0079 12.4071C40.5384 12.0976 40.892 11.744 41.2456 11.965Z" fill="#FFAD73"/>
<path d="M41.334 13.2911L41.4667 12.7606L41.113 12.7164L40.4942 13.2027V13.4679L40.2731 13.6447L40.4942 13.7773L41.334 13.2911Z" fill="#FFAD73"/>
<path d="M42.9254 24.6516C43.058 24.961 43.2348 25.6241 43.1906 26.1104C43.058 26.3756 42.7486 26.685 42.4834 26.8176C41.9971 27.7459 41.3782 28.188 40.5384 28.2764C39.8311 28.3206 39.3891 28.0995 39.3448 27.6575C39.4333 26.685 41.5993 25.8009 41.4667 24.6516H42.9254Z" fill="black"/>
<path d="M39.7869 21.9994C39.8753 22.574 40.0521 23.0161 40.0079 23.5023C40.0079 23.7234 39.9195 23.9002 39.7427 24.0328C39.5659 24.2096 39.2564 24.4748 39.0354 24.5632C38.5934 25.4915 38.0187 25.9778 37.3114 26.1546C36.5158 26.1988 36.2063 25.8452 36.2063 25.4031C36.2505 24.6959 38.1955 23.7676 38.1071 22.1762L39.7869 21.9994Z" fill="black"/>
<path d="M37.5767 17.358C37.7535 18.7725 38.1071 22.1762 38.1071 22.1762C38.1071 22.9719 38.8586 23.2813 39.4774 22.8835C39.5217 22.8393 39.5659 22.7951 39.6101 22.7509C39.7427 22.5741 39.7869 22.2646 39.7869 21.9994C40.0521 19.6124 40.5384 19.3914 40.2731 18.1094C40.2731 18.0652 40.2731 18.021 40.2289 17.9768C40.671 17.579 41.2456 17.2695 41.7761 17.0043C43.279 16.2971 44.9588 15.8992 45.3566 14.3079C45.3566 14.2637 45.3566 14.2195 45.4008 14.131C45.445 13.8658 45.4008 13.6448 45.3566 13.3796C45.3124 13.1585 45.224 12.9375 45.1356 12.5839L42.8812 12.4955H42.3065C41.2456 12.9375 40.6268 13.3354 38.1955 15.7666C38.0629 15.8992 37.9303 16.0318 37.7977 16.1644C37.4883 16.6507 37.5767 17.0043 37.5767 17.358Z" fill="#755F00"/>
<path opacity="0.5" d="M39.5659 22.7508C39.6985 22.574 39.7427 22.2646 39.7427 21.9994C40.0079 19.6123 40.4942 19.3913 40.2289 18.1094C40.2289 18.0652 40.2289 18.021 40.1847 17.9768C40.6268 17.5789 41.2014 17.2695 41.7319 17.0043C43.2348 16.297 44.9146 15.8992 45.3124 14.3078C45.3124 14.2636 45.3124 14.2194 45.3566 14.131C45.4008 13.8658 45.3566 13.6447 45.3124 13.3795C45.1356 13.6889 44.6052 14.131 43.9421 14.6614C43.8979 14.7056 43.7653 14.7056 43.5885 14.7056C43.3232 14.6614 42.8812 14.4846 42.616 14.0868C42.6602 14.7941 42.7044 15.2803 42.3949 15.4571C41.2014 16.2086 40.1847 17.0043 39.168 17.1811C39.7427 18.1536 39.6543 21.2037 39.5659 22.7508Z" fill="#A18300"/>
<path d="M41.5108 24.5191C41.5551 25.2263 41.7761 25.6242 42.3065 25.3589C42.4391 25.3147 42.6602 25.2263 42.7928 25.0495C42.837 25.0053 42.9254 24.9169 42.9254 24.8285C43.3232 22.9719 43.9421 21.2479 43.8979 19.966C43.8979 19.9218 43.8979 19.8776 43.8979 19.8334V19.7892C43.8979 19.6124 43.8537 19.4798 43.8537 19.3029C43.8537 19.2587 43.8537 19.2145 43.8095 19.1703C43.8095 19.1261 43.8095 19.1261 43.8095 19.0819C45.4892 17.5348 47.611 17.0043 48.1857 14.8383C48.2741 14.3521 48.1857 13.7774 48.0531 13.1143C48.0089 12.8933 47.9647 12.6723 47.9205 12.4955H47.39L45.1798 12.5839H44.5609H44.5167L44.0747 12.9375L44.1631 14.0868L43.6769 14.6173L42.9254 15.5456L41.7761 17.0485L41.334 17.6232C41.1572 17.8884 41.0688 18.1978 41.113 18.5073C41.0688 19.8334 41.1572 18.9051 41.5108 24.5191Z" fill="#755F00"/>
<path opacity="0.5" d="M42.7928 25.0937C42.837 25.0495 42.9254 24.9611 42.9254 24.8727C43.3232 23.0161 43.9421 21.2921 43.8979 20.0102C43.8979 19.966 43.8979 19.9218 43.8979 19.8776V19.8334C43.8979 19.6566 43.8537 19.4797 43.8537 19.3471C43.8537 19.3029 43.8537 19.2587 43.8095 19.2145C43.8095 19.1703 43.8095 19.1703 43.8095 19.1261C45.4892 17.579 47.6111 17.0485 48.1857 14.8825C48.2741 14.3963 48.1857 13.8216 48.0531 13.1585C48.0089 12.9375 47.9647 12.7165 47.9205 12.5397L45.4892 13.6006C45.7103 14.6173 44.9146 15.0593 44.3399 15.9434C43.5443 17.3137 42.1739 17.4464 43.1464 18.8609C43.3674 20.3638 43.4559 21.2921 42.7928 25.0937Z" fill="#A18300"/>
<path opacity="0.15" d="M47.3458 14.0426C47.6111 13.8658 47.8763 13.6005 48.0089 13.2027C48.0089 10.8599 47.6995 9.57793 47.2574 8.69385H45.6219C46.9038 10.1968 47.4784 11.965 47.3458 14.0426Z" fill="#1D1D1B"/>
<path d="M41.0246 7.05826C41.0246 8.78223 41.5109 10.1084 41.8645 11.0809C42.0855 11.6997 42.3065 12.186 42.3065 12.5396C43.7653 13.6889 46.0639 14.794 47.3016 14.0425C47.5669 13.8657 47.8321 13.6005 47.9647 13.2027C47.9647 10.8598 47.6553 9.57791 47.2132 8.69382C46.9038 7.98655 46.5944 7.58871 46.3733 7.10246C45.4008 6.39519 44.3841 5.64372 43.3232 5.29009C42.1739 4.67123 42.2181 5.33429 41.4667 5.4227C41.113 5.73213 41.0246 6.12997 40.9804 6.61622C41.0246 6.70462 41.0246 6.88144 41.0246 7.05826Z" fill="#A18300"/>
<path d="M44.782 6.79312L44.0305 5.24597L41.9971 6.30688L42.4391 7.45619C42.7928 8.82652 45.003 7.98664 44.782 6.79312Z" fill="#FFAD73"/>
<path opacity="0.3" d="M41.9971 6.92568C42.0855 7.45613 42.2181 8.47283 42.9254 8.64965C43.5443 8.64965 44.2957 7.05829 44.0305 6.48364V5.77637L41.9971 6.92568Z" fill="#CEA55F"/>
<path d="M43.058 2.90308C44.0747 2.90308 44.6494 3.38932 44.6936 4.49443C44.6494 5.64374 44.2957 6.57204 43.4116 7.1909C42.9696 7.54453 42.5275 7.67714 41.9971 7.63294C41.3782 7.67714 41.2898 6.12999 41.2014 5.02488C41.2456 3.83137 41.9529 3.21251 43.058 2.90308Z" fill="#FFAD73"/>
<path d="M41.2014 4.53865C41.4224 5.0691 42.3949 5.46694 43.4116 5.24592L43.5442 6.13001L43.9863 5.90898L44.3841 6.35103L44.5167 6.13001C45.2682 4.58286 45.0472 3.47775 43.8979 2.85889C42.3949 2.28423 40.892 3.74297 41.2014 4.53865Z" fill="black"/>
<path d="M44.0747 6.30688C44.1631 6.21847 44.2515 6.13007 44.3399 5.99745C44.3841 5.86484 44.3841 5.73223 44.3399 5.64382C44.2957 5.51121 44.1189 5.467 44.0305 5.51121C43.9421 5.55541 43.8979 5.59961 43.8537 5.68802C43.8095 5.77643 43.8095 5.86484 43.8095 5.95325C43.8095 6.04166 43.8095 6.13007 43.8095 6.17427C43.8095 6.21847 43.8095 6.30688 43.8537 6.35109C43.8979 6.39529 43.9421 6.39529 43.9863 6.39529C43.9863 6.39529 44.0305 6.35109 44.0747 6.30688Z" fill="#FFAD73"/>
<path opacity="0.5" d="M42.3507 12.5397C43.5885 12.3629 45.0914 10.9483 45.6661 9.26855L46.8596 12.9817L44.1631 15.7224C44.6936 14.4847 42.4834 12.7165 42.3507 12.5397Z" fill="#A18300"/>
<path d="M43.9421 16.6948C43.8537 17.0927 43.6769 17.2695 43.279 17.4463L42.837 17.7557L42.616 18.1978C42.4833 18.4188 42.2623 18.242 42.3949 18.0652L42.0855 18.3304C41.8645 18.463 41.7761 18.3304 41.8645 18.1536C41.5551 18.5072 41.334 18.2862 41.5109 18.021L41.6435 17.8884C41.5109 18.021 41.2898 17.9326 41.5109 17.6673C41.9087 17.1369 41.9971 16.9601 42.4391 16.5622C42.7486 16.3412 42.9696 16.2086 43.1906 16.1644L44.1189 15.5455L44.561 16.1644L43.9421 16.6948Z" fill="#FFAD73"/>
<path d="M46.4175 7.05835C47.2574 7.50039 47.611 8.25187 47.7879 9.48959C48.0531 11.3462 47.5226 13.8658 47.5226 13.8658C46.8596 14.8383 44.8704 16.5623 43.8979 16.8275C43.9421 16.4739 43.5442 16.0318 43.1022 16.1644C44.0305 15.0593 45.0472 13.4238 45.6661 12.6281C45.7103 11.1694 45.2682 10.4179 45.445 9.09175C45.5334 8.38448 45.8429 7.36778 46.4175 7.05835Z" fill="#A18300"/>
<path d="M43.058 24.9611L43.8095 21.0711C43.279 21.6457 41.5551 21.9994 41.2456 20.9827L41.4225 25.0495C41.7761 26.1546 42.3507 25.5357 43.058 24.9611Z" fill="black"/>
<path d="M39.8311 22.4856C39.9637 20.9384 40.4499 19.2144 40.3615 18.684C39.9195 19.126 38.0629 19.6123 37.7535 18.5956L38.1071 22.4856C38.4607 23.5907 39.6101 23.3254 39.8311 22.4856Z" fill="black"/>
<path opacity="0.5" d="M8.004 27.8785C9.9932 26.7291 13.4853 27.348 15.2535 27.1712C17.2869 26.9502 16.2702 29.8677 14.9441 31.1938C13.7064 32.4757 10.2142 32.3873 8.40184 31.3264C6.63367 30.3097 6.45685 28.7625 8.004 27.8785Z" fill="#CCCCCC"/>
<path d="M11.8056 32.299C10.612 32.299 9.33012 31.9896 8.35762 31.4591C7.38513 30.8845 6.85468 30.133 6.85468 29.4257C6.85468 28.8068 7.25251 28.2322 7.95978 27.8344C9.50693 26.9503 12.2476 27.0387 14.06 28.0996C15.0325 28.6742 15.5629 29.4257 15.5629 30.133C15.5629 30.7518 15.1651 31.3265 14.4578 31.7243C13.7505 32.078 12.8223 32.299 11.8056 32.299ZM8.04819 27.967C7.42933 28.3206 7.0757 28.8511 7.0757 29.3815C7.0757 30.0446 7.60615 30.7076 8.49024 31.2381C10.2142 32.2548 12.8665 32.3432 14.3694 31.5033C14.9883 31.1497 15.3419 30.6192 15.3419 30.0888C15.3419 29.4257 14.8115 28.7626 13.9274 28.2322C12.2034 27.2155 9.55114 27.1271 8.04819 27.967Z" fill="#534741"/>
<path d="M13.9274 28.0111L33.5099 16.4296C33.6867 16.3412 33.9077 16.3854 34.0403 16.5622C34.1287 16.739 34.0845 16.96 33.9077 17.0926L14.06 28.2763C14.0158 28.3205 13.9274 28.2763 13.8832 28.2321C13.839 28.1437 13.839 28.0553 13.9274 28.0111Z" fill="#38302C"/>
<path d="M7.91557 32.9178C7.87136 32.9178 7.87136 32.9178 7.91557 32.9178C7.87136 32.8736 7.87136 32.8736 7.91557 32.8736C9.50692 32.2105 11.2309 31.2822 13.0433 30.0887C15.2977 29.0278 17.0217 28.0553 18.392 27.0386C20.558 26.0661 22.6798 25.0052 23.8733 23.9443L29.3989 21.4689H29.4431V21.5131L23.8733 23.9443C22.6798 25.0494 20.558 26.0661 18.392 27.0386C17.0217 28.0553 15.2977 29.0278 13.0433 30.0887C11.2751 31.2822 9.50692 32.2547 7.91557 32.9178Z" fill="#999999"/>
<path d="M7.87138 32.7852L34.7918 17.0042C34.9244 16.9158 35.1012 16.96 35.1897 17.0927C35.2781 17.2253 35.2339 17.4021 35.1012 17.4905L7.95979 32.9178C7.91559 32.962 7.87138 32.9178 7.82718 32.8736C7.78297 32.8736 7.82718 32.8294 7.87138 32.7852Z" fill="#7A6960"/>
<path d="M30.095 20.1028L28.9559 21.3969L29.2546 21.6597L30.3936 20.3657L30.095 20.1028Z" fill="#3C3C3B"/>
<path d="M29.3989 21.4246C29.0452 21.5572 28.78 21.3362 28.8684 20.9826C28.9568 20.5847 29.3105 20.1869 29.6641 20.0543C30.0177 19.9217 30.283 20.1427 30.1946 20.4963C30.1061 20.8942 29.7525 21.292 29.3989 21.4246Z" fill="#534741"/>
<path d="M29.7083 21.6899C29.3547 21.8225 29.0894 21.6015 29.1778 21.2478C29.2662 20.85 29.6199 20.4522 29.9735 20.3195C30.3272 20.1869 30.5924 20.4079 30.504 20.7616C30.4156 21.1594 30.0619 21.6015 29.7083 21.6899Z" fill="#E3CBAE"/>
<path d="M29.9293 21.6015C29.7083 21.6899 29.5757 21.5573 29.6199 21.3362C29.6641 21.1152 29.8851 20.85 30.1061 20.7616C30.3272 20.6732 30.4598 20.8058 30.4156 21.0268C30.3714 21.292 30.1503 21.5131 29.9293 21.6015Z" fill="#3C3C3B"/>
<path d="M30.7324 20.3975L29.3305 21.9901L29.4632 22.1069L30.8651 20.5143L30.7324 20.3975Z" fill="#706F6F"/>
<path d="M29.8409 22.0435C29.3989 22.1761 29.0894 21.9551 29.1778 21.4688C29.2662 20.9826 29.7083 20.4963 30.1945 20.3195C30.6366 20.1869 30.946 20.4079 30.8576 20.8942C30.7692 21.3804 30.3272 21.9109 29.8409 22.0435Z" fill="#534741"/>
<path d="M30.0177 22.1761C29.5757 22.3087 29.2663 22.0876 29.3547 21.6014C29.4431 21.1152 29.8851 20.6289 30.3714 20.4521C30.8134 20.3195 31.1228 20.5405 31.0344 21.0267C30.9018 21.513 30.4598 22.0434 30.0177 22.1761Z" fill="#E3CBAE"/>
<path d="M30.0619 21.9109C29.7525 21.9993 29.5315 21.8224 29.5757 21.513C29.6641 21.1594 29.9735 20.8057 30.2829 20.7173C30.5924 20.6289 30.8134 20.8057 30.7692 21.1152C30.6808 21.4688 30.3713 21.8224 30.0619 21.9109Z" fill="#534741"/>
<path d="M30.1503 21.4688C30.0619 21.5131 30.0619 21.4688 30.0619 21.3804C30.0619 21.292 30.1503 21.2478 30.1945 21.2036C30.2829 21.1594 30.2829 21.2036 30.2829 21.292C30.2829 21.3362 30.2387 21.4246 30.1503 21.4688Z" fill="#1A1A1A"/>
<path d="M29.7967 22.1761L29.9735 21.9551L30.1945 22.1319L29.9735 22.3529L29.7967 22.1761Z" fill="#534741"/>
<path d="M29.8851 22.2203C29.8409 22.2203 29.7967 22.2203 29.7967 22.1319C29.7967 22.0435 29.8851 21.9993 29.9293 21.9551C29.9735 21.9551 30.0177 21.9551 30.0177 22.0435C30.0177 22.1319 29.9293 22.1761 29.8851 22.2203Z" fill="#534741"/>
<path d="M30.0619 22.3529C30.0177 22.3529 29.9735 22.3529 29.9735 22.2645C29.9735 22.1761 30.0619 22.1319 30.1061 22.0876C30.1503 22.0876 30.1945 22.0876 30.1945 22.1761C30.1945 22.2645 30.1503 22.3529 30.0619 22.3529Z" fill="#1A1A1A"/>
</g>
<defs>
<clipPath id="clip0_18_3964">
<rect width="70.6385" height="45" fill="white" transform="translate(0.00299072 0.516113)"/>
</clipPath>
</defs>
</svg>
