<svg width="82" height="78" viewBox="0 0 82 78" fill="none" xmlns="http://www.w3.org/2000/svg">
<g opacity="0.75">
<path d="M47.0735 42.553C47.057 42.553 47.0406 42.553 47.0406 42.5363C47.0241 42.5196 47.0406 42.4862 47.057 42.4862L56.0273 36.5145C56.0438 36.4978 56.0767 36.5145 56.0767 36.5312C56.0932 36.5478 56.0767 36.5812 56.0602 36.5812L47.09 42.553H47.0735Z" fill="white"/>
</g>
<g opacity="0.75">
<path d="M45.6744 44.4714C45.658 44.4714 45.6415 44.4714 45.6415 44.4547C45.6251 44.438 45.6415 44.4046 45.658 44.4046L51.0237 41.2686C51.0402 41.2519 51.0731 41.2686 51.0731 41.2853C51.0895 41.302 51.0731 41.3354 51.0566 41.3354L45.6909 44.4714H45.6744Z" fill="white"/>
</g>
<g opacity="0.75">
<path d="M52.6038 40.1676C52.5873 40.1676 52.5708 40.1676 52.5708 40.151C52.5544 40.1343 52.5708 40.1009 52.5873 40.1009L59.7142 35.914C59.7306 35.8973 59.7635 35.914 59.7635 35.9307C59.78 35.9474 59.7635 35.9807 59.7471 35.9807L52.6202 40.1676H52.6038Z" fill="white"/>
</g>
<g opacity="0.75">
<path d="M50.069 39.467C50.0526 39.467 50.0361 39.467 50.0361 39.4503C50.0197 39.4337 50.0361 39.4003 50.0526 39.4003L57.8378 33.9957C57.8543 33.979 57.8872 33.9957 57.8872 34.0124C57.9036 34.029 57.8872 34.0624 57.8707 34.0624L50.0855 39.467C50.0855 39.467 50.0855 39.467 50.069 39.467Z" fill="white"/>
</g>
<g opacity="0.75">
<path d="M51.5668 26.7229C51.5504 26.7229 51.5339 26.7229 51.5339 26.7062C51.5175 26.6895 51.5339 26.6562 51.5504 26.6562L54.7928 24.5877C54.8093 24.571 54.8422 24.5877 54.8422 24.6044C54.8587 24.6211 54.8422 24.6544 54.8258 24.6544L51.5833 26.7229C51.5668 26.7229 51.5668 26.7229 51.5668 26.7229Z" fill="white"/>
</g>
<g opacity="0.75">
<path d="M48.6371 27.3067C48.6207 27.3067 48.6042 27.3067 48.6042 27.29C48.5877 27.2733 48.5877 27.2399 48.6207 27.2399L52.5873 24.4209C52.6038 24.4042 52.6367 24.4042 52.6367 24.4376C52.6532 24.4542 52.6532 24.4876 52.6203 24.4876L48.6536 27.3067C48.6536 27.3067 48.6536 27.3067 48.6371 27.3067Z" fill="white"/>
</g>
<g opacity="0.75">
<path d="M50.6616 56.8486C50.6451 56.8486 50.6286 56.8486 50.6286 56.832C50.6122 56.8153 50.6286 56.7819 50.6451 56.7819L53.8382 54.8636C53.8547 54.8469 53.8876 54.8636 53.8876 54.8803C53.904 54.897 53.8876 54.9303 53.8711 54.9303L50.6945 56.8486C50.678 56.8486 50.678 56.8486 50.6616 56.8486Z" fill="white"/>
</g>
<g opacity="0.75">
<path d="M50.6122 56.4817C50.5957 56.4817 50.5793 56.4817 50.5793 56.465C50.5628 56.4483 50.5793 56.4149 50.5957 56.4149L51.8631 55.5809C51.8796 55.5642 51.9125 55.5809 51.9125 55.5976C51.9289 55.6142 51.9125 55.6476 51.896 55.6476L50.6286 56.4817C50.6286 56.4817 50.6286 56.4817 50.6122 56.4817Z" fill="white"/>
</g>
<g opacity="0.75">
<path d="M50.9414 55.8644C50.9249 55.8644 50.9085 55.8644 50.9085 55.8477C50.892 55.8311 50.892 55.7977 50.9249 55.7977L52.7354 54.5133C52.7519 54.4966 52.7848 54.4966 52.7848 54.53C52.8013 54.5466 52.8013 54.58 52.7684 54.58L50.9578 55.8644C50.9578 55.8644 50.9578 55.8644 50.9414 55.8644Z" fill="white"/>
</g>
<g opacity="0.75">
<path d="M50.7768 55.4974C50.7604 55.4974 50.7439 55.4974 50.7439 55.4807C50.7274 55.464 50.7274 55.4307 50.7604 55.4307L51.4846 54.9135C51.501 54.8969 51.534 54.8969 51.534 54.9302C51.5504 54.9469 51.5504 54.9803 51.5175 54.9803L50.7933 55.4974C50.7933 55.4807 50.7933 55.4974 50.7768 55.4974Z" fill="white"/>
</g>
<g opacity="0.75">
<path d="M52.3075 55.414C52.291 55.414 52.2746 55.414 52.2746 55.3974C52.2581 55.3807 52.2746 55.3473 52.291 55.3473L52.9165 54.947C52.9329 54.9303 52.9659 54.947 52.9659 54.9637C52.9823 54.9803 52.9659 55.0137 52.9494 55.0137L52.324 55.414C52.3075 55.414 52.3075 55.414 52.3075 55.414Z" fill="white"/>
</g>
<g opacity="0.75">
<path d="M14.3195 35.2301C14.3031 35.2301 14.2866 35.2301 14.2866 35.2135C14.2701 35.1968 14.2866 35.1634 14.3031 35.1634L17.0188 33.6455C17.0353 33.6288 17.0682 33.6455 17.0682 33.6621C17.0847 33.6788 17.0682 33.7122 17.0518 33.7122L14.336 35.2301H14.3195Z" fill="white"/>
</g>
<g opacity="0.75">
<path d="M16.8378 34.2293C16.8214 34.2293 16.8049 34.2293 16.8049 34.2126C16.7885 34.1959 16.8049 34.1626 16.8214 34.1626L18.6484 33.0783C18.6648 33.0616 18.6977 33.0783 18.6977 33.095C18.7142 33.1117 18.6977 33.145 18.6813 33.145L16.8543 34.2293H16.8378Z" fill="white"/>
</g>
<g opacity="0.75">
<path d="M17.7431 34.1959C17.7266 34.1959 17.7102 34.1959 17.7102 34.1792C17.6937 34.1625 17.7102 34.1292 17.7266 34.1292L18.6319 33.6287C18.6484 33.6121 18.6813 33.6287 18.6813 33.6454C18.6977 33.6621 18.6813 33.6955 18.6648 33.6955L17.7596 34.1959C17.7596 34.1959 17.7596 34.1959 17.7431 34.1959Z" fill="white"/>
</g>
<g opacity="0.75">
<path d="M17.4139 34.8465C17.3974 34.8465 17.381 34.8298 17.381 34.8298C17.3645 34.8131 17.381 34.7798 17.3974 34.7798L20.6234 33.1284C20.6399 33.1117 20.6728 33.1284 20.6728 33.145C20.6893 33.1617 20.6728 33.1951 20.6564 33.1951L17.4303 34.8465C17.4303 34.8465 17.4303 34.8465 17.4139 34.8465Z" fill="white"/>
</g>
<g opacity="0.75">
<path d="M18.3356 34.8464C18.3192 34.8464 18.3027 34.8297 18.3027 34.8297C18.2863 34.813 18.3027 34.7797 18.3192 34.7797L19.5207 34.2292C19.5372 34.2125 19.5701 34.2292 19.5701 34.2459C19.5865 34.2626 19.5701 34.2959 19.5536 34.2959L18.3521 34.8464C18.3521 34.8464 18.3521 34.8464 18.3356 34.8464Z" fill="white"/>
</g>
<path d="M31.2726 23.0698L31.2397 23.003C31.6018 22.7862 31.8816 22.7361 32.1449 22.6861C32.4248 22.6361 32.6716 22.586 33.0173 22.3858C33.3629 22.1857 33.4452 22.0355 33.5275 21.8854C33.6098 21.7186 33.7086 21.5518 34.0707 21.3516C34.4328 21.1348 34.7126 21.0847 34.9759 21.0347C35.1899 21.0013 35.3874 20.9513 35.6343 20.8512L35.6672 20.9346C35.4203 21.0514 35.2064 21.0847 34.9924 21.1181C34.7126 21.1681 34.4657 21.2182 34.1201 21.4183C33.7744 21.6185 33.6921 21.7686 33.6098 21.9188C33.5275 22.0856 33.4288 22.2524 33.0667 22.4526C32.7046 22.6694 32.4247 22.7195 32.1614 22.7695C31.8651 22.8195 31.6182 22.8696 31.2726 23.0698Z" fill="white"/>
<path d="M36.7864 19.8503L36.7371 19.7836C36.77 19.7502 36.8194 19.7336 36.8687 19.7002C37.2308 19.4833 37.5106 19.4333 37.774 19.3833C38.0538 19.3332 38.3007 19.2832 38.6463 19.083L38.6793 19.1497C38.3171 19.3666 38.0373 19.4166 37.774 19.4667C37.4942 19.5167 37.2473 19.5668 36.9017 19.7669C36.8687 19.8003 36.8358 19.817 36.7864 19.8503Z" fill="white"/>
<path d="M28.8695 26.9064L28.8366 26.8396C29.1987 26.6228 29.4785 26.5727 29.7419 26.5227C29.8242 26.506 29.89 26.4893 29.9723 26.4727L29.9888 26.5561C29.9065 26.5727 29.8242 26.5894 29.7583 26.6061C29.4785 26.6561 29.2152 26.7062 28.8695 26.9064Z" fill="white"/>
<path d="M31.1574 25.8388L31.0916 25.7888C31.108 25.7554 31.1245 25.7387 31.1409 25.7053C31.2232 25.5385 31.322 25.3717 31.6841 25.1716C32.0462 24.9547 32.326 24.9047 32.5893 24.8546C32.8692 24.8046 33.116 24.7545 33.4617 24.5544C33.8073 24.3542 33.8896 24.2041 33.9719 24.0539C34.0542 23.8871 34.153 23.7203 34.5151 23.5201C34.8772 23.3033 35.157 23.2533 35.4203 23.2032C35.7001 23.1532 35.947 23.1031 36.2927 22.903L36.3256 22.9697C35.9635 23.1865 35.6837 23.2366 35.4203 23.2866C35.1405 23.3367 34.8936 23.3867 34.548 23.5869C34.2024 23.787 34.1201 23.9372 34.0378 24.0873C33.9555 24.2541 33.8567 24.4209 33.4946 24.6211C33.1325 24.8379 32.8527 24.888 32.5893 24.938C32.3095 24.9881 32.0626 25.0381 31.717 25.2383C31.3714 25.4385 31.2891 25.5886 31.2068 25.7387C31.1739 25.7888 31.1739 25.8221 31.1574 25.8388Z" fill="white"/>
<path d="M4.97072 37.5321L4.93781 37.4653C5.29991 37.2485 5.57972 37.1984 5.84306 37.1484C6.12287 37.0984 6.36976 37.0483 6.7154 36.8481C7.06105 36.648 7.14335 36.4978 7.22564 36.3477C7.30794 36.1809 7.40669 36.0141 7.7688 35.8139L7.80172 35.7972L7.83463 35.864L7.81817 35.8806C7.47253 36.0808 7.39023 36.2309 7.30794 36.3811C7.22564 36.5479 7.12689 36.7147 6.76478 36.9149C6.40268 37.1317 6.12287 37.1818 5.85952 37.2318C5.57972 37.2818 5.31637 37.3319 4.97072 37.5321Z" fill="white"/>
<path d="M9.3818 35.3636L9.34888 35.2802C9.41471 35.2468 9.48055 35.2135 9.52993 35.1801C9.87557 34.9799 9.95787 34.8298 10.0402 34.6797C10.1225 34.5129 10.2212 34.3461 10.5833 34.1459C10.9454 33.929 11.2252 33.879 11.4886 33.8289C11.7684 33.7789 12.0153 33.7289 12.3609 33.5287L12.3938 33.5954C12.0317 33.8123 11.7519 33.8623 11.4886 33.9123C11.2088 33.9624 10.9619 34.0124 10.6162 34.2126C10.2706 34.4128 10.1883 34.5629 10.106 34.713C10.0237 34.8798 9.92495 35.0467 9.56285 35.2468C9.51347 35.2969 9.44763 35.3302 9.3818 35.3636Z" fill="white"/>
<path d="M0.0329185 47.0402L0 46.9735C0.362104 46.7566 0.641911 46.7066 0.905259 46.6565C1.18507 46.6065 1.43196 46.5565 1.7776 46.3563C2.12324 46.1561 2.20554 46.006 2.28784 45.8559C2.37013 45.689 2.46889 45.5222 2.83099 45.3221C3.1931 45.1052 3.4729 45.0552 3.73625 45.0051H3.75271L3.76917 45.0885H3.75271C3.4729 45.1386 3.22601 45.1886 2.88037 45.3888C2.53472 45.589 2.45243 45.7391 2.37013 45.8892C2.28784 46.056 2.18908 46.2228 1.82698 46.423C1.46487 46.6399 1.18507 46.6899 0.921718 46.7399C0.641911 46.79 0.395022 46.84 0.0329185 47.0402Z" fill="white"/>
<path d="M5.02006 44.5047L4.95422 44.4547C5.03652 44.3713 5.06944 44.2879 5.11882 44.2044C5.20111 44.0376 5.29987 43.8708 5.66197 43.6707C6.02408 43.4538 6.30388 43.4038 6.56723 43.3537C6.84704 43.3037 7.09393 43.2536 7.43957 43.0535L7.47249 43.1202C7.11039 43.337 6.83058 43.3871 6.56723 43.4371C6.28742 43.4872 6.04053 43.5372 5.69489 43.7374C5.34925 43.9376 5.26695 44.0877 5.18465 44.2378C5.15173 44.3212 5.10236 44.4213 5.02006 44.5047Z" fill="white"/>
<path d="M55.0233 47.8576L54.9904 47.7909C55.3525 47.5741 55.6323 47.524 55.8956 47.474C56.1754 47.4239 56.4223 47.3739 56.768 47.1737C57.1136 46.9735 57.1959 46.8234 57.2782 46.6733C57.3605 46.5065 57.4592 46.3397 57.8213 46.1395C58.1834 45.9226 58.4633 45.8726 58.7266 45.8226C59.0064 45.7725 59.2533 45.7225 59.5989 45.5223C59.9446 45.3221 60.0269 45.172 60.1092 45.0219C60.1915 44.8717 60.2738 44.7049 60.6194 44.5048L60.6688 44.5715C60.3396 44.7717 60.2738 44.9051 60.1915 45.0719C60.1092 45.2387 60.0104 45.4055 59.6483 45.6057C59.2862 45.8226 59.0064 45.8726 58.7431 45.9226C58.4633 45.9727 58.2164 46.0227 57.8707 46.2229C57.5251 46.4231 57.4428 46.5732 57.3605 46.7233C57.2782 46.8901 57.1794 47.0569 56.8173 47.2571C56.4552 47.474 56.1754 47.524 55.9121 47.5741C55.6323 47.6074 55.3689 47.6575 55.0233 47.8576Z" fill="white"/>
<path d="M70.0341 37.532L70.0012 37.4653C70.3633 37.2485 70.6431 37.1984 70.9065 37.1484C71.1863 37.0983 71.4332 37.0483 71.7788 36.8481C72.1245 36.6479 72.2068 36.4978 72.2891 36.3477C72.3714 36.1809 72.4701 36.0141 72.8322 35.8139C73.1943 35.597 73.4741 35.547 73.7375 35.497C74.0173 35.4469 74.2642 35.3969 74.6098 35.1967C74.9555 34.9965 75.0378 34.8464 75.12 34.6963C75.2023 34.5295 75.3011 34.3627 75.6632 34.1625C76.0253 33.9456 76.3051 33.8956 76.5685 33.8455C76.8483 33.7955 77.0952 33.7455 77.4408 33.5453L77.4737 33.612C77.1116 33.8289 76.8318 33.8789 76.5685 33.9289C76.2887 33.979 76.0418 34.029 75.6961 34.2292C75.3505 34.4294 75.2682 34.5795 75.1859 34.7296C75.1036 34.8964 75.0048 35.0633 74.6427 35.2634C74.2806 35.4803 74.0008 35.5303 73.7375 35.5804C73.4577 35.6304 73.2108 35.6804 72.8651 35.8806C72.5195 36.0808 72.4372 36.2309 72.3549 36.381C72.2726 36.5479 72.1738 36.7147 71.8117 36.9148C71.4496 37.1317 71.1698 37.1817 70.9065 37.2318C70.6431 37.2818 70.3962 37.3319 70.0341 37.532Z" fill="white"/>
<path d="M49.4765 48.6916L49.4436 48.6249C49.8057 48.408 50.0855 48.358 50.3489 48.3079C50.497 48.2746 50.6616 48.2579 50.8426 48.1912L50.8756 48.2746C50.6945 48.3413 50.5299 48.3747 50.3818 48.3913C50.0855 48.4414 49.8222 48.4914 49.4765 48.6916Z" fill="white"/>
<path d="M51.6327 47.7908L51.5668 47.7408C51.6327 47.6574 51.6821 47.5906 51.715 47.5072C51.7973 47.3404 51.896 47.1736 52.2581 46.9734C52.6202 46.7566 52.9 46.7065 53.1634 46.6565C53.4432 46.6065 53.6901 46.5564 54.0357 46.3562C54.3814 46.1561 54.4637 46.0059 54.546 45.8558C54.6283 45.689 54.727 45.5222 55.0891 45.322C55.4512 45.1052 55.731 45.0551 55.9944 45.0051C56.2742 44.955 56.5211 44.905 56.8667 44.7048L56.8996 44.7716C56.5375 44.9884 56.2577 45.0385 55.9944 45.0885C55.7146 45.1385 55.4677 45.1886 55.122 45.3888C54.7764 45.5889 54.6941 45.7391 54.6118 45.8892C54.5295 46.056 54.4307 46.2228 54.0686 46.423C53.7065 46.6398 53.4267 46.6899 53.1634 46.7399C52.8836 46.79 52.6367 46.84 52.291 47.0402C51.9454 47.2403 51.8631 47.3905 51.7808 47.5406C51.7643 47.624 51.715 47.7074 51.6327 47.7908Z" fill="white"/>
<path d="M65.228 23.8871L65.1951 23.8204C65.5572 23.6036 65.837 23.5535 66.1003 23.5035C66.3801 23.4534 66.627 23.4034 66.9727 23.2032C67.3183 23.003 67.4006 22.8529 67.4829 22.7028C67.5652 22.536 67.664 22.3692 68.0261 22.169C68.3882 21.9521 68.668 21.9021 68.9313 21.8521C69.2111 21.802 69.458 21.752 69.8037 21.5518C70.1493 21.3516 70.2316 21.2015 70.3139 21.0514C70.3962 20.8846 70.4949 20.7178 70.8571 20.5176C71.2192 20.3007 71.499 20.2507 71.7623 20.2006C72.0421 20.1506 72.289 20.1006 72.6346 19.9004L72.6676 19.9671C72.3055 20.184 72.0257 20.234 71.7623 20.2841C71.4825 20.3341 71.2356 20.3841 70.89 20.5843C70.5443 20.7845 70.462 20.9346 70.3797 21.0847C70.2974 21.2515 70.1987 21.4184 69.8366 21.6185C69.4745 21.8354 69.1947 21.8854 68.9313 21.9355C68.6515 21.9855 68.4046 22.0355 68.059 22.2357C67.7133 22.4359 67.631 22.586 67.5487 22.7361C67.4664 22.903 67.3677 23.0698 67.0056 23.2699C66.6435 23.4868 66.3637 23.5368 66.1003 23.5869C65.8205 23.6369 65.5736 23.687 65.228 23.8871Z" fill="white"/>
<path d="M62.9896 19.4333L62.9567 19.3666C63.3188 19.1497 63.5986 19.0997 63.8619 19.0496C64.1417 18.9996 64.3886 18.9495 64.7343 18.7494C65.0799 18.5492 65.1622 18.3991 65.2445 18.2489C65.3268 18.0821 65.4256 17.9153 65.7877 17.7151C66.1498 17.4983 66.4296 17.4482 66.6929 17.3982C66.9727 17.3482 67.2196 17.2981 67.5653 17.0979C67.9109 16.8978 67.9932 16.7476 68.0755 16.5975C68.1578 16.4307 68.2565 16.2639 68.6186 16.0637C68.9808 15.8469 69.2606 15.7968 69.5239 15.7468C69.8037 15.6967 70.0506 15.6467 70.3962 15.4465L70.4292 15.5133C70.0671 15.7301 69.7873 15.7802 69.5239 15.8302C69.2441 15.8802 68.9972 15.9303 68.6516 16.1305C68.3059 16.3306 68.2236 16.4808 68.1413 16.6309C68.059 16.7977 67.9603 16.9645 67.5982 17.1647C67.2361 17.3815 66.9563 17.4316 66.6929 17.4816C66.4131 17.5316 66.1662 17.5817 65.8206 17.7819C65.4749 17.982 65.3926 18.1322 65.3103 18.2823C65.228 18.4491 65.1293 18.6159 64.7672 18.8161C64.4051 19.0329 64.1253 19.083 63.8619 19.133C63.5986 19.1831 63.3352 19.2331 62.9896 19.4333Z" fill="white"/>
<path d="M38.3665 21.0513L38.3171 20.9846C38.5146 20.8344 38.5805 20.701 38.6463 20.5676C38.7286 20.4007 38.8274 20.2173 39.1895 20.0004C39.5516 19.7669 39.8314 19.7168 40.0947 19.6668C40.3745 19.6167 40.6214 19.5667 40.9835 19.3498C41.3292 19.133 41.4115 18.9829 41.4938 18.7994C41.5761 18.6326 41.6748 18.4491 42.0369 18.2322C42.399 17.9987 42.6788 17.9486 42.9422 17.8986C43.222 17.8486 43.4689 17.7985 43.831 17.5817L43.8804 17.6484C43.5183 17.8819 43.2385 17.932 42.9751 17.982C42.6953 18.0321 42.4484 18.0821 42.0863 18.2989C41.7407 18.5158 41.6584 18.6659 41.5761 18.8494C41.4938 19.0162 41.395 19.1997 41.0329 19.4166C40.6708 19.6501 40.391 19.7001 40.1277 19.7502C39.8478 19.8002 39.601 19.8503 39.2389 20.0671C38.8932 20.284 38.8109 20.4341 38.7286 20.6009C38.6628 20.751 38.5969 20.8845 38.3665 21.0513Z" fill="white"/>
<path d="M27.0919 32.0108L27.059 31.944C27.4211 31.7272 27.7009 31.6771 27.9643 31.6271C28.1289 31.5937 28.2935 31.5604 28.4745 31.4937L28.5074 31.5771C28.3099 31.6438 28.1453 31.6771 27.9807 31.7105C27.7009 31.7605 27.4376 31.8106 27.0919 32.0108Z" fill="white"/>
<path d="M29.6925 30.5095L29.6431 30.4427C29.709 30.3927 29.7913 30.3427 29.89 30.2759C30.2521 30.0591 30.5319 30.009 30.7953 29.959C31.0751 29.909 31.322 29.8589 31.6676 29.6587C32.0133 29.4586 32.0956 29.3084 32.1779 29.1583C32.2601 28.9915 32.3589 28.8247 32.721 28.6245C33.0831 28.4077 33.3629 28.3576 33.6263 28.3076C33.9061 28.2575 34.153 28.2075 34.4986 28.0073L34.5315 28.074C34.1694 28.2909 33.8896 28.3409 33.6263 28.391C33.3465 28.441 33.0996 28.4911 32.7539 28.6912C32.4083 28.8914 32.326 29.0415 32.2437 29.1917C32.1614 29.3585 32.0626 29.5253 31.7005 29.7255C31.3384 29.9423 31.0586 29.9924 30.7953 30.0424C30.5155 30.0924 30.2686 30.1425 29.9229 30.3427C29.8242 30.4094 29.7583 30.4594 29.6925 30.5095Z" fill="white"/>
<path d="M24.7053 35.8473L24.6724 35.7806C25.0345 35.5638 25.3143 35.5137 25.5777 35.4637C25.8575 35.4136 26.1044 35.3636 26.45 35.1634C26.7957 34.9632 26.878 34.8131 26.9603 34.663C27.0426 34.4962 27.1413 34.3294 27.5034 34.1292C27.8655 33.9124 28.1453 33.8623 28.4087 33.8123C28.6885 33.7622 28.9354 33.7122 29.281 33.512C29.6267 33.3118 29.709 33.1617 29.7913 33.0116C29.8735 32.8448 29.9723 32.678 30.3344 32.4778C30.6965 32.2609 30.9763 32.2109 31.2397 32.1609C31.5195 32.1108 31.7664 32.0608 32.112 31.8606L32.1449 31.9273C31.7828 32.1442 31.503 32.1942 31.2397 32.2443C30.9599 32.2943 30.713 32.3443 30.3673 32.5445C30.0217 32.7447 29.9394 32.8948 29.8571 33.0449C29.7748 33.2118 29.676 33.3786 29.3139 33.5787C28.9518 33.7956 28.672 33.8456 28.4087 33.8957C28.1289 33.9457 27.882 33.9958 27.5363 34.1959C27.1907 34.3961 27.1084 34.5462 27.0261 34.6964C26.9438 34.8632 26.845 35.03 26.4829 35.2301C26.1208 35.447 25.841 35.497 25.5777 35.5471C25.2979 35.5971 25.051 35.6472 24.7053 35.8473Z" fill="white"/>
<path d="M32.2272 30.7763L32.1779 30.7095C32.54 30.476 32.8198 30.426 33.0831 30.3759C33.3629 30.3259 33.6098 30.2758 33.9719 30.059C34.3176 29.8421 34.3999 29.692 34.4822 29.5252C34.5644 29.3584 34.6632 29.1749 35.0253 28.958C35.3874 28.7245 35.6672 28.6745 35.9306 28.6244C36.2104 28.5744 36.4573 28.5243 36.8194 28.3075C37.165 28.0906 37.2473 27.9405 37.3296 27.757C37.4119 27.5902 37.5107 27.4067 37.8728 27.1899C38.2349 26.9563 38.5147 26.9063 38.778 26.8562C39.0578 26.8062 39.3047 26.7562 39.6668 26.5393L39.7162 26.606C39.3541 26.8396 39.0743 26.8896 38.8109 26.9396C38.5311 26.9897 38.2842 27.0397 37.9221 27.2566C37.5765 27.4734 37.4942 27.6236 37.4119 27.8071C37.3296 27.9739 37.2308 28.1574 36.8687 28.3742C36.5066 28.6077 36.2268 28.6578 35.9635 28.7078C35.6837 28.7579 35.4368 28.8079 35.0747 29.0248C34.729 29.2416 34.6467 29.3917 34.5644 29.5586C34.4822 29.7254 34.3834 29.9089 34.0213 30.1257C33.6592 30.3592 33.3794 30.4093 33.116 30.4593C32.8362 30.5094 32.5729 30.5594 32.2272 30.7763Z" fill="white"/>
<path d="M51.4846 45.589L51.4352 45.5223C51.7973 45.2887 52.0771 45.2387 52.3404 45.1887C52.6202 45.1386 52.8671 45.0886 53.2292 44.8717C53.5749 44.6549 53.6572 44.5047 53.7395 44.3379C53.8218 44.1711 53.9205 43.9876 54.2826 43.7708C54.6447 43.5373 54.9245 43.4872 55.1879 43.4372C55.4677 43.3871 55.7146 43.3371 56.0767 43.1202C56.4223 42.9034 56.5046 42.7532 56.5869 42.5698C56.6692 42.4029 56.768 42.2195 57.1301 42.0026C57.4922 41.7691 57.772 41.719 58.0353 41.669C58.3151 41.6189 58.562 41.5689 58.9241 41.3521L58.9735 41.4188C58.6114 41.6523 58.3316 41.7024 58.0683 41.7524C57.7885 41.8024 57.5416 41.8525 57.1795 42.0693C56.8338 42.2862 56.7515 42.4363 56.6692 42.6031C56.5869 42.7699 56.4882 42.9534 56.1261 43.1703C55.764 43.4038 55.4842 43.4538 55.2208 43.5039C54.941 43.5539 54.6941 43.604 54.332 43.8208C53.9864 44.0377 53.9041 44.1878 53.8218 44.3546C53.7395 44.5214 53.6407 44.7049 53.2786 44.9218C52.9165 45.1553 52.6367 45.2053 52.3734 45.2554C52.0936 45.3221 51.8302 45.3722 51.4846 45.589Z" fill="white"/>
<path d="M73.5728 32.7447L73.5399 32.678C73.902 32.4611 74.1818 32.4111 74.4452 32.361C74.725 32.311 74.9719 32.2609 75.3175 32.0608C75.6632 31.8606 75.7455 31.7105 75.8278 31.5603C75.9101 31.3935 76.0088 31.2267 76.3709 31.0265C76.733 30.8097 77.0128 30.7596 77.2762 30.7096C77.556 30.6596 77.8029 30.6095 78.1485 30.4093C78.4942 30.2092 78.5764 30.059 78.6587 29.9089C78.741 29.7421 78.8398 29.5753 79.2019 29.3751C79.564 29.1583 79.8438 29.1082 80.1072 29.0582C80.387 29.0081 80.6339 28.9581 80.9795 28.7579L81.0124 28.8247C80.6503 29.0415 80.3705 29.0916 80.1072 29.1416C79.8274 29.1916 79.5805 29.2417 79.2348 29.4419C78.8892 29.642 78.8069 29.7922 78.7246 29.9423C78.6423 30.1091 78.5435 30.2759 78.1814 30.4761C77.8193 30.6929 77.5395 30.743 77.2762 30.793C76.9964 30.8431 76.7495 30.8931 76.4038 31.0933C76.0582 31.2934 75.9759 31.4436 75.8936 31.5937C75.8113 31.7605 75.7125 31.9273 75.3504 32.1275C74.9883 32.3443 74.7085 32.3944 74.4452 32.4444C74.1654 32.4945 73.9185 32.5278 73.5728 32.7447Z" fill="white"/>
<path d="M68.0261 33.562L67.9932 33.4953C68.3553 33.2785 68.6351 33.2284 68.8984 33.1784C69.1782 33.1283 69.4251 33.0783 69.7708 32.8781C70.1164 32.678 70.1987 32.5278 70.281 32.3777C70.3139 32.3277 70.3468 32.2609 70.3798 32.1942L70.4456 32.2443C70.4127 32.2943 70.3798 32.361 70.3468 32.4111C70.2645 32.5779 70.1658 32.7447 69.8037 32.9449C69.4416 33.1617 69.1618 33.2117 68.8984 33.2618C68.6186 33.3118 68.3717 33.3619 68.0261 33.562Z" fill="white"/>
<path d="M71.7953 31.5937L71.7788 31.5103C72.0257 31.4603 72.2726 31.4102 72.6018 31.2267C72.9474 31.0266 73.0297 30.8764 73.112 30.7263C73.1943 30.5595 73.2931 30.3927 73.6552 30.1925C74.0173 29.9757 74.2971 29.9256 74.5604 29.8756C74.8402 29.8255 75.0871 29.7755 75.4328 29.5753L75.4657 29.642C75.1036 29.8589 74.8238 29.9089 74.5604 29.959C74.2806 30.009 74.0337 30.0591 73.6881 30.2592C73.3424 30.4594 73.2601 30.6095 73.1778 30.7597C73.0955 30.9265 72.9968 31.0933 72.6347 31.2935C72.3055 31.4936 72.0422 31.5603 71.7953 31.5937Z" fill="white"/>
<path d="M70.0176 30.4594L69.9683 30.3926C70.3304 30.1591 70.6102 30.1091 70.8735 30.059C71.1533 30.009 71.4002 29.9589 71.7623 29.7421C72.108 29.5252 72.1903 29.3751 72.2726 29.2083C72.3549 29.0415 72.4536 28.858 72.8157 28.6411C73.1778 28.4076 73.4576 28.3576 73.721 28.3075C74.0008 28.2575 74.2477 28.2074 74.6098 27.9906C74.9554 27.7737 75.0377 27.6236 75.12 27.4401C75.2023 27.2733 75.3011 27.0898 75.6632 26.873C76.0253 26.6394 76.3051 26.5894 76.5684 26.5394C76.8482 26.4893 77.0951 26.4393 77.4572 26.2224L77.5066 26.2891C77.1445 26.5227 76.8647 26.5727 76.6013 26.6228C76.3215 26.6728 76.0746 26.7228 75.7125 26.9397C75.3669 27.1565 75.2846 27.3067 75.2023 27.4902C75.12 27.657 75.0213 27.8405 74.6591 28.0573C74.297 28.2908 74.0172 28.3409 73.7539 28.3909C73.4741 28.441 73.2272 28.491 72.8651 28.7079C72.5194 28.9247 72.4371 29.0749 72.3549 29.2417C72.2726 29.4085 72.1738 29.592 71.8117 29.8088C71.4496 30.0423 71.1698 30.0924 70.9064 30.1424C70.6266 30.1925 70.3633 30.2425 70.0176 30.4594Z" fill="white"/>
<path d="M37.1815 59.5843L37.1486 59.5176C37.5107 59.3007 37.7905 59.2507 38.0538 59.2006C38.3336 59.1506 38.5805 59.1005 38.9262 58.9004C39.2718 58.7002 39.3541 58.5501 39.4364 58.3999C39.5187 58.2331 39.6174 58.0663 39.9796 57.8661C40.3417 57.6493 40.6215 57.5992 40.8848 57.5492C41.1646 57.4992 41.4115 57.4491 41.7572 57.2489C42.1028 57.0488 42.1851 56.8986 42.2674 56.7485C42.3497 56.5817 42.4484 56.4149 42.8105 56.2147C43.0904 56.0479 43.3208 55.9812 43.5841 55.9312L43.6006 56.0146C43.3537 56.0646 43.1233 56.1313 42.8599 56.2981C42.5143 56.4983 42.432 56.6484 42.3497 56.7986C42.2674 56.9654 42.1686 57.1322 41.8065 57.3324C41.4444 57.5492 41.1646 57.5992 40.9013 57.6493C40.6215 57.6993 40.3746 57.7494 40.0289 57.9495C39.6833 58.1497 39.601 58.2998 39.5187 58.45C39.4364 58.6168 39.3376 58.7836 38.9755 58.9838C38.6134 59.2006 38.3336 59.2507 38.0703 59.3007C37.7905 59.3341 37.5271 59.3841 37.1815 59.5843Z" fill="white"/>
<path d="M44.1931 67.4409L44.1602 67.3742C44.5223 67.1573 44.8021 67.1073 45.0654 67.0573C45.2958 67.0072 45.5263 66.9739 45.8061 66.8237L45.839 66.8905C45.5427 67.0406 45.2958 67.0906 45.0654 67.124C44.8021 67.1907 44.5387 67.2241 44.1931 67.4409Z" fill="white"/>
<path d="M46.4151 66.4568L46.3492 66.4067C46.3822 66.3567 46.4151 66.3067 46.448 66.2566C46.5303 66.0898 46.629 65.923 46.9912 65.7228C47.3533 65.506 47.6331 65.4559 47.8964 65.4059C48.1762 65.3559 48.4231 65.3058 48.7688 65.1056C49.1144 64.9055 49.1967 64.7553 49.279 64.6052C49.3613 64.4384 49.46 64.2716 49.8221 64.0714C50.1842 63.8546 50.4641 63.8045 50.7274 63.7545C51.0072 63.7044 51.2541 63.6544 51.5997 63.4542L51.6327 63.5209C51.2706 63.7378 50.9908 63.7878 50.7274 63.8379C50.4476 63.8879 50.2007 63.938 49.8551 64.1381C49.5094 64.3383 49.4271 64.4884 49.3448 64.6386C49.2625 64.8054 49.1638 64.9722 48.8017 65.1724C48.4396 65.3892 48.1598 65.4393 47.8964 65.4893C47.6166 65.5393 47.3697 65.5894 47.0241 65.7896C46.6784 65.9897 46.5961 66.1399 46.5138 66.29C46.4809 66.34 46.448 66.3901 46.4151 66.4568Z" fill="white"/>
<path d="M35.4532 73.2793L35.4203 73.2126C35.7824 72.9958 36.0622 72.9457 36.3255 72.8957C36.6054 72.8456 36.8522 72.7956 37.1979 72.5954C37.5435 72.3953 37.6258 72.2451 37.7081 72.095C37.7904 71.9282 37.8892 71.7614 38.2513 71.5612C38.6134 71.3444 38.8932 71.2943 39.1565 71.2443C39.4363 71.1942 39.6832 71.1442 40.0289 70.944C40.3745 70.7438 40.4568 70.5937 40.5391 70.4436C40.6214 70.2768 40.7202 70.11 41.0823 69.9098C41.4444 69.6929 41.7242 69.6429 41.9875 69.5929C42.2673 69.5428 42.5142 69.4928 42.8599 69.2926L42.8928 69.3593C42.5307 69.5762 42.2509 69.6262 41.9875 69.6763C41.7077 69.7263 41.4608 69.7764 41.1152 69.9765C40.7695 70.1767 40.6872 70.3268 40.605 70.4769C40.5227 70.6438 40.4239 70.8106 40.0618 71.0107C39.6997 71.2276 39.4199 71.2776 39.1565 71.3277C38.8767 71.3777 38.6298 71.4278 38.2842 71.6279C37.9386 71.8281 37.8563 71.9782 37.774 72.1284C37.6917 72.2952 37.5929 72.462 37.2308 72.6622C36.8687 72.879 36.5889 72.929 36.3255 72.9791C36.0622 73.0291 35.7989 73.0792 35.4532 73.2793Z" fill="white"/>
<path d="M40.7202 72.5453L40.6873 72.4786C41.0494 72.2618 41.3292 72.2117 41.5925 72.1617C41.8723 72.1116 42.1192 72.0616 42.4649 71.8614C42.8105 71.6613 42.8928 71.5111 42.9751 71.361C43.0409 71.2442 43.0903 71.1275 43.2549 70.994L43.3043 71.0607C43.1561 71.1775 43.1068 71.2943 43.0409 71.3944C42.9586 71.5612 42.8599 71.728 42.4978 71.9282C42.1357 72.145 41.8559 72.195 41.5925 72.2451C41.3127 72.2951 41.0658 72.3452 40.7202 72.5453Z" fill="white"/>
<path d="M44.4235 70.5937L44.407 70.5103C44.6704 70.4602 44.9337 70.4102 45.2794 70.21C45.625 70.0098 45.7073 69.8597 45.7896 69.7096C45.8719 69.5428 45.9707 69.376 46.3328 69.1758C46.6949 68.9589 46.9747 68.9089 47.238 68.8588C47.5178 68.8088 47.7647 68.7588 48.1104 68.5586L48.1433 68.6253C47.7812 68.8422 47.5014 68.8922 47.238 68.9423C46.9582 68.9923 46.7113 69.0423 46.3657 69.2425C46.0201 69.4427 45.9378 69.5928 45.8555 69.7429C45.7732 69.9097 45.6744 70.0766 45.3123 70.2767C44.9667 70.4936 44.6869 70.5436 44.4235 70.5937Z" fill="white"/>
<path d="M40.9013 54.9469L40.8683 54.8802C41.2305 54.6634 41.5103 54.6133 41.7736 54.5633C42.0534 54.5132 42.3003 54.4632 42.6459 54.263C42.9916 54.0629 43.0739 53.9127 43.1562 53.7626C43.2385 53.5958 43.3372 53.429 43.6993 53.2288C44.0614 53.012 44.3412 52.9619 44.6046 52.9119C44.8844 52.8618 45.1313 52.8118 45.4769 52.6116C45.8226 52.4114 45.9049 52.2613 45.9872 52.1112C46.0695 51.9444 46.1682 51.7776 46.5303 51.5774C46.8924 51.3605 47.1722 51.3105 47.4356 51.2605C47.7154 51.2104 47.9623 51.1604 48.3079 50.9602L48.3408 51.0269C47.9787 51.2438 47.6989 51.2938 47.4356 51.3439C47.1558 51.3939 46.9089 51.444 46.5632 51.6441C46.2176 51.8443 46.1353 51.9944 46.053 52.1446C45.9707 52.3114 45.872 52.4782 45.5099 52.6783C45.1478 52.8952 44.8679 52.9452 44.6046 52.9953C44.3248 53.0453 44.0779 53.0954 43.7323 53.2955C43.3866 53.4957 43.3043 53.6458 43.222 53.796C43.1397 53.9628 43.041 54.1296 42.6789 54.3298C42.3168 54.5466 42.037 54.5966 41.7736 54.6467C41.5103 54.6967 41.2469 54.7468 40.9013 54.9469Z" fill="white"/>
<path d="M31.6347 60.4183L31.6017 60.3516C31.9638 60.1347 32.2437 60.0847 32.507 60.0346C32.7868 59.9846 33.0337 59.9345 33.3793 59.7344C33.725 59.5342 33.8073 59.3841 33.8896 59.2339C33.939 59.1505 33.9883 59.0671 34.0706 58.967L34.1365 59.0171C34.0542 59.1005 34.0048 59.1839 33.9719 59.2673C33.8896 59.4341 33.7908 59.6009 33.4287 59.8011C33.0666 60.0179 32.7868 60.068 32.5235 60.118C32.2437 60.1681 31.9803 60.2181 31.6347 60.4183Z" fill="white"/>
<path d="M35.7824 58.3499L35.7495 58.2665C35.8976 58.2165 36.0457 58.1497 36.1938 58.0663C36.5395 57.8662 36.6218 57.716 36.7041 57.5659C36.7864 57.3991 36.8851 57.2323 37.2472 57.0321C37.6093 56.8153 37.8892 56.7652 38.1525 56.7152C38.4323 56.6651 38.6792 56.6151 39.0248 56.4149L39.0578 56.4816C38.6957 56.6985 38.4159 56.7485 38.1525 56.7986C37.8727 56.8486 37.6258 56.8987 37.2802 57.0988C36.9345 57.299 36.8522 57.4491 36.7699 57.5993C36.6876 57.7661 36.5889 57.9329 36.2268 58.1331C36.0951 58.2331 35.947 58.2999 35.7824 58.3499Z" fill="white"/>
<path d="M37.3954 76.6989L37.3625 76.6322C37.7246 76.4153 38.0044 76.3653 38.2677 76.3153C38.4159 76.2819 38.564 76.2652 38.7451 76.1985L38.778 76.2819C38.6134 76.3319 38.4488 76.3653 38.3007 76.3987C38.0044 76.4487 37.7411 76.4987 37.3954 76.6989Z" fill="white"/>
<path d="M39.7162 75.5312L39.6503 75.4978C39.7326 75.3477 39.8149 75.1809 40.177 74.964C40.5391 74.7472 40.8189 74.6971 41.0823 74.6471C41.3621 74.5971 41.609 74.547 41.9546 74.3469C42.3003 74.1467 42.3826 73.9966 42.4649 73.8464C42.5472 73.6796 42.6459 73.5128 43.008 73.3126C43.3701 73.0958 43.6499 73.0457 43.9133 72.9957C44.1931 72.9457 44.44 72.8956 44.7856 72.6954L44.8185 72.7622C44.4564 72.979 44.1766 73.0291 43.9133 73.0791C43.6335 73.1291 43.3866 73.1792 43.0409 73.3794C42.6953 73.5795 42.613 73.7297 42.5307 73.8798C42.4484 74.0466 42.3496 74.2134 41.9875 74.4136C41.6254 74.6304 41.3456 74.6805 41.0823 74.7305C40.8025 74.7806 40.5556 74.8306 40.2099 75.0308C39.8808 75.2476 39.7985 75.3977 39.7162 75.5312Z" fill="white"/>
<path d="M33.6263 57.3156L33.5769 57.2488C33.939 57.0153 34.2188 56.9653 34.4822 56.9152C34.762 56.8652 35.0089 56.8151 35.371 56.5983C35.7166 56.3814 35.7989 56.2313 35.8812 56.0478C35.9635 55.881 36.0623 55.6975 36.4244 55.4807C36.7865 55.2471 37.0663 55.1971 37.3296 55.147C37.6094 55.097 37.8563 55.047 38.2184 54.8301C38.5641 54.6133 38.6464 54.4631 38.7287 54.2963C38.778 54.2129 38.8109 54.1295 38.8932 54.0294L38.9591 54.0795C38.8932 54.1629 38.8439 54.2463 38.8109 54.3297C38.7287 54.4965 38.6299 54.68 38.2678 54.8968C37.9057 55.1304 37.6259 55.1804 37.3625 55.2304C37.0827 55.2805 36.8358 55.3305 36.4737 55.5474C36.1281 55.7642 36.0458 55.9144 35.9635 56.0812C35.8812 56.248 35.7824 56.4315 35.4203 56.6483C35.0582 56.8819 34.7784 56.9319 34.5151 56.9819C34.2353 57.0487 33.9719 57.0987 33.6263 57.3156Z" fill="white"/>
<path d="M40.0619 53.479L40.0454 53.3956C40.0948 53.3789 40.1442 53.3789 40.1935 53.3622C40.4733 53.3122 40.7202 53.2621 41.0823 53.0453L41.1317 53.112C40.7696 53.3455 40.4898 53.3956 40.2265 53.4456C40.1606 53.4623 40.1112 53.4623 40.0619 53.479Z" fill="white"/>
<path d="M70.8242 8.62407L70.7913 8.55735C71.1534 8.34049 71.4332 8.29045 71.6965 8.24041C71.9763 8.19037 72.2232 8.14032 72.5689 7.94015C72.9145 7.73998 72.9968 7.58985 73.0791 7.43972C73.1614 7.27292 73.2601 7.10611 73.6222 6.90594C73.9844 6.68908 74.2642 6.63904 74.5275 6.589C74.8073 6.53895 75.0542 6.48891 75.3999 6.28874C75.7455 6.08857 75.8278 5.93844 75.9101 5.78831C75.9924 5.6215 76.0911 5.45469 76.4532 5.25452C76.8153 5.03767 77.0952 4.98763 77.3585 4.93759C77.6383 4.88754 77.8852 4.8375 78.2308 4.63733L78.2638 4.70405C77.9017 4.92091 77.6218 4.97095 77.3585 5.02099C77.0787 5.07103 76.8318 5.12108 76.4862 5.32125C76.1405 5.52142 76.0582 5.67155 75.9759 5.82168C75.8936 5.98848 75.7949 6.15529 75.4328 6.35546C75.0707 6.57232 74.7909 6.62236 74.5275 6.6724C74.2477 6.72244 74.0008 6.77249 73.6552 6.97266C73.3095 7.17283 73.2272 7.32296 73.1449 7.47309C73.0626 7.6399 72.9639 7.8067 72.6018 8.00688C72.2397 8.22373 71.9599 8.27377 71.6965 8.32381C71.4332 8.37386 71.1863 8.4239 70.8242 8.62407Z" fill="white"/>
<path d="M74.5604 3.98674L74.5275 3.92002C74.8896 3.70317 75.1694 3.65312 75.4327 3.60308C75.7125 3.55304 75.9594 3.50299 76.3051 3.30282C76.6507 3.10265 76.733 2.95252 76.8153 2.80239C76.8976 2.63559 76.9964 2.46878 77.3585 2.26861C77.7206 2.05175 78.0004 2.00171 78.2637 1.95167C78.5435 1.90163 78.7904 1.85158 79.1361 1.65141C79.4817 1.45124 79.564 1.30111 79.6463 1.15098C79.7286 0.984174 79.8273 0.817365 80.1895 0.617194C80.5516 0.400342 80.8314 0.350299 81.0947 0.300257C81.3745 0.250214 81.6214 0.200171 81.967 0L82 0.0667237C81.6379 0.283576 81.3581 0.333618 81.0947 0.383661C80.8149 0.433704 80.568 0.483747 80.2224 0.683918C79.8767 0.884089 79.7944 1.03422 79.7121 1.18435C79.6298 1.35115 79.5311 1.51796 79.169 1.71814C78.8069 1.93499 78.5271 1.98503 78.2637 2.03507C77.9839 2.08512 77.737 2.13516 77.3914 2.33533C77.0457 2.5355 76.9634 2.68563 76.8811 2.83576C76.7988 3.00257 76.7001 3.16938 76.338 3.36955C75.9759 3.5864 75.6961 3.63644 75.4327 3.68648C75.1529 3.73653 74.906 3.78657 74.5604 3.98674Z" fill="white"/>
<path d="M65.2774 9.45807L65.2445 9.39135C65.6066 9.17449 65.8864 9.12445 66.1498 9.07441C66.4296 9.02437 66.6765 8.97432 67.0221 8.77415C67.3678 8.57398 67.45 8.42385 67.5323 8.27372C67.5817 8.17364 67.6476 8.07355 67.7628 7.95679L67.8122 8.02351C67.6969 8.1236 67.6476 8.22368 67.5982 8.32377C67.5159 8.49058 67.4171 8.65739 67.055 8.85756C66.6929 9.07441 66.4131 9.12445 66.1498 9.17449C65.8864 9.20786 65.6395 9.2579 65.2774 9.45807Z" fill="white"/>
<path d="M69.1618 7.47302L69.1453 7.38962C69.3428 7.35626 69.5733 7.28953 69.8531 7.12273C70.1987 6.92255 70.281 6.77243 70.3633 6.6223C70.4456 6.45549 70.5444 6.28868 70.9065 6.08851C71.2686 5.87166 71.5484 5.82161 71.8117 5.77157C72.0915 5.72153 72.3384 5.67148 72.6841 5.47131L72.717 5.53804C72.3549 5.75489 72.0751 5.80493 71.8117 5.85497C71.5319 5.90502 71.285 5.95506 70.9394 6.15523C70.5937 6.3554 70.5114 6.50553 70.4291 6.65566C70.3468 6.82247 70.2481 6.98928 69.886 7.18945C69.6062 7.35626 69.3758 7.42298 69.1618 7.47302Z" fill="white"/>
<path d="M67.2854 6.35548L67.236 6.28876C67.5981 6.05523 67.8779 6.00519 68.1413 5.95514C68.4211 5.9051 68.668 5.85506 69.0301 5.6382C69.3757 5.42135 69.458 5.27122 69.5403 5.10442C69.6226 4.93761 69.7214 4.75412 70.0835 4.53726C70.4456 4.30373 70.7254 4.25369 70.9887 4.20365C71.2685 4.1536 71.5154 4.10356 71.8775 3.88671C72.2232 3.66986 72.3055 3.51973 72.3878 3.33624C72.4701 3.16943 72.5688 2.98594 72.9309 2.76909C73.293 2.53555 73.5728 2.48551 73.8362 2.43547C74.116 2.38543 74.3629 2.33538 74.725 2.11853L74.7744 2.18525C74.4123 2.41879 74.1324 2.46883 73.8691 2.51887C73.5893 2.56892 73.3424 2.61896 72.9803 2.83581C72.6347 3.05266 72.5524 3.20279 72.4701 3.38628C72.3878 3.55309 72.289 3.73658 71.9269 3.95343C71.5648 4.18696 71.285 4.23701 71.0217 4.28705C70.7418 4.33709 70.495 4.38714 70.1329 4.60399C69.7872 4.82084 69.7049 4.97097 69.6226 5.13778C69.5403 5.30459 69.4416 5.48808 69.0795 5.70493C68.7174 5.93846 68.4376 5.9885 68.1742 6.03855C67.8944 6.08859 67.631 6.13863 67.2854 6.35548Z" fill="white"/>
<path d="M7.93337 49.4589L7.90045 49.3922C8.26256 49.1753 8.54236 49.1253 8.80571 49.0752C8.92093 49.0585 9.0526 49.0252 9.18427 48.9918L9.20073 49.0752C9.06906 49.1086 8.93738 49.1419 8.82217 49.1586C8.5259 49.2087 8.27901 49.2587 7.93337 49.4589Z" fill="white"/>
<path d="M10.106 48.5248L10.0402 48.4747C10.0895 48.408 10.1225 48.3413 10.1718 48.2746C10.2541 48.1078 10.3529 47.9409 10.715 47.7408C11.0771 47.5239 11.3569 47.4739 11.6202 47.4238C11.9001 47.3738 12.1469 47.3237 12.4926 47.1236C12.8382 46.9234 12.9205 46.7733 13.0028 46.6232C13.0851 46.4563 13.1839 46.2895 13.546 46.0894C13.9081 45.8725 14.1879 45.8225 14.4512 45.7724C14.731 45.7224 14.9779 45.6723 15.3236 45.4722L15.3565 45.5389C14.9944 45.7557 14.7146 45.8058 14.4512 45.8558C14.1714 45.9059 13.9245 45.9559 13.5789 46.1561C13.2333 46.3563 13.151 46.5064 13.0687 46.6565C12.9864 46.8233 12.8876 46.9901 12.5255 47.1903C12.1634 47.4072 11.8836 47.4572 11.6202 47.5072C11.3404 47.5573 11.0936 47.6073 10.7479 47.8075C10.4023 48.0077 10.32 48.1578 10.2377 48.3079C10.2048 48.3746 10.1718 48.4414 10.106 48.5248Z" fill="white"/>
<path d="M11.6532 44.8216L11.6202 44.7549C11.9823 44.538 12.2622 44.488 12.5255 44.4379C12.6901 44.4046 12.8547 44.3712 13.0357 44.3212L13.0687 44.4046C12.8876 44.4713 12.723 44.5047 12.5584 44.538C12.2622 44.5714 11.9988 44.6214 11.6532 44.8216Z" fill="white"/>
<path d="M13.9245 43.754L13.8587 43.7207C13.8752 43.704 13.8916 43.6706 13.8916 43.6539C13.9739 43.4871 14.0727 43.3203 14.4348 43.1201C14.7969 42.9033 15.0767 42.8533 15.34 42.8032C15.6198 42.7532 15.8667 42.7031 16.2124 42.503C16.558 42.3028 16.6403 42.1527 16.7226 42.0025C16.8049 41.8357 16.9037 41.6689 17.2658 41.4687C17.3151 41.4354 17.381 41.402 17.4304 41.3687L17.4633 41.4521C17.4139 41.4854 17.3481 41.5021 17.2987 41.5355C16.953 41.7356 16.8707 41.8858 16.7885 42.0359C16.7062 42.2027 16.6074 42.3695 16.2453 42.5697C15.8832 42.7865 15.6034 42.8366 15.34 42.8866C15.0602 42.9367 14.8133 42.9867 14.4677 43.1869C14.1221 43.387 14.0398 43.5372 13.9575 43.6873C13.9575 43.704 13.941 43.7207 13.9245 43.754Z" fill="white"/>
<path d="M2.07387 41.1352L2.04095 41.0685C2.40306 40.8516 2.68287 40.8016 2.94621 40.7515C3.22602 40.7015 3.47291 40.6514 3.81855 40.4513C4.1642 40.2511 4.24649 40.101 4.32879 39.9508C4.41109 39.784 4.50984 39.6172 4.87195 39.417C5.23405 39.2002 5.51386 39.1501 5.7772 39.1001C6.05701 39.0501 6.3039 39 6.64955 38.7999C6.99519 38.5997 7.07749 38.4496 7.15978 38.2994C7.24208 38.1326 7.34083 37.9658 7.70294 37.7656C8.06504 37.5488 8.34485 37.4987 8.6082 37.4487C8.888 37.3987 9.13489 37.3486 9.48054 37.1484L9.51346 37.2152C9.15135 37.432 8.87154 37.4821 8.6082 37.5321C8.32839 37.5821 8.0815 37.6322 7.73586 37.8324C7.39021 38.0325 7.30792 38.1827 7.22562 38.3328C7.14332 38.4996 7.04457 38.6664 6.68246 38.8666C6.32036 39.0834 6.04055 39.1335 5.7772 39.1835C5.4974 39.2336 5.25051 39.2836 4.90486 39.4838C4.55922 39.6839 4.47692 39.8341 4.39463 39.9842C4.31233 40.151 4.21358 40.3178 3.85147 40.518C3.48937 40.7348 3.20956 40.7849 2.94621 40.8349C2.68287 40.885 2.43598 40.9183 2.07387 41.1352Z" fill="white"/>
<path d="M2.38662 50.293L2.3537 50.2263C2.7158 50.0094 2.99561 49.9594 3.25896 49.9094C3.53876 49.8593 3.78565 49.8093 4.1313 49.6091C4.47694 49.4089 4.55924 49.2588 4.64154 49.1087C4.72383 48.9419 4.82259 48.7751 5.18469 48.5749C5.54679 48.358 5.8266 48.308 6.08995 48.2579C6.36976 48.2079 6.61665 48.1579 6.96229 47.9577C7.30793 47.7575 7.39023 47.6074 7.47253 47.4573C7.55482 47.2904 7.65358 47.1236 8.01568 46.9235C8.37779 46.7066 8.65759 46.6566 8.92094 46.6065C9.20075 46.5565 9.44764 46.5064 9.79328 46.3063L9.8262 46.373C9.4641 46.5898 9.18429 46.6399 8.92094 46.6899C8.64113 46.74 8.39425 46.79 8.0486 46.9902C7.70296 47.1904 7.62066 47.3405 7.53836 47.4906C7.45607 47.6574 7.35731 47.8242 6.99521 48.0244C6.6331 48.2413 6.3533 48.2913 6.08995 48.3413C5.81014 48.3914 5.56325 48.4414 5.21761 48.6416C4.87196 48.8418 4.78967 48.9919 4.70737 49.142C4.62508 49.3088 4.52632 49.4756 4.16422 49.6758C3.80211 49.8927 3.52231 49.9427 3.25896 49.9928C2.97915 50.0428 2.73226 50.0762 2.38662 50.293Z" fill="white"/>
<path d="M4.37817 47.1903L4.3288 47.1236C4.6909 46.8901 4.97071 46.84 5.23406 46.79C5.51386 46.7399 5.76075 46.6899 6.12286 46.473C6.4685 46.2562 6.5508 46.1061 6.63309 45.9393C6.71539 45.7724 6.81414 45.589 7.17625 45.3721C7.53835 45.1386 7.81816 45.0885 8.08151 45.0385C8.36131 44.9884 8.6082 44.9384 8.97031 44.7215C9.31595 44.5047 9.39825 44.3546 9.48054 44.1711C9.56284 44.0043 9.66159 43.8208 10.0237 43.6039C10.3858 43.3704 10.6656 43.3203 10.929 43.2703C11.2088 43.2203 11.4557 43.1702 11.8178 42.9534L11.8671 43.0201C11.505 43.2536 11.2252 43.3037 10.9619 43.3537C10.6821 43.4038 10.4352 43.4538 10.0731 43.6706C9.72743 43.8875 9.64513 44.0376 9.56284 44.2211C9.48054 44.3879 9.38179 44.5714 9.01968 44.7883C8.65758 45.0218 8.37777 45.0718 8.11442 45.1219C7.83462 45.1719 7.58773 45.222 7.22563 45.4388C6.87998 45.6557 6.79768 45.8058 6.71539 45.9726C6.63309 46.1394 6.53434 46.3229 6.17223 46.5398C5.81013 46.7733 5.53032 46.8233 5.26697 46.8734C4.98717 46.9234 4.72382 46.9735 4.37817 47.1903Z" fill="white"/>
<path d="M51.3035 10.7425L51.2541 10.6758C51.6162 10.4422 51.896 10.3922 52.1593 10.3421C52.4392 10.2921 52.686 10.2421 53.0481 10.0252C53.3938 9.80836 53.4761 9.65823 53.5584 9.49142C53.6407 9.32461 53.7394 9.14112 54.1015 8.92427C54.4636 8.69074 54.7435 8.64069 55.0068 8.59065C55.2866 8.54061 55.5335 8.49057 55.8956 8.27371C56.2412 8.05686 56.3235 7.90673 56.4058 7.73992C56.4881 7.57312 56.5869 7.38963 56.949 7.17277C57.3111 6.93924 57.5909 6.8892 57.8543 6.83915C58.1341 6.78911 58.3809 6.73907 58.743 6.52222L58.7924 6.58894C58.4303 6.82247 58.1505 6.87252 57.8872 6.92256C57.6074 6.9726 57.3605 7.02264 56.9984 7.2395C56.6527 7.45635 56.5704 7.60648 56.4881 7.78997C56.4058 7.95678 56.3071 8.14027 55.945 8.35712C55.5829 8.59065 55.3031 8.64069 55.0397 8.69074C54.7599 8.74078 54.513 8.79082 54.1509 9.00767C53.8053 9.22453 53.723 9.37466 53.6407 9.54146C53.5584 9.70827 53.4596 9.89176 53.0975 10.1086C52.7354 10.3421 52.4556 10.3922 52.1923 10.4422C51.9125 10.4756 51.6491 10.5256 51.3035 10.7425Z" fill="white"/>
<path d="M45.0325 12.3272L44.9832 12.2605C45.3453 12.027 45.6251 11.9769 45.8884 11.9269C46.1682 11.8768 46.4151 11.8268 46.7772 11.61C47.1229 11.3931 47.2052 11.243 47.2874 11.0762C47.3697 10.9094 47.4685 10.7259 47.8306 10.509C48.1927 10.2755 48.4725 10.2254 48.7359 10.1754C49.0157 10.1253 49.2626 10.0753 49.6247 9.85845C49.9703 9.6416 50.0526 9.49147 50.1349 9.32467C50.1843 9.2079 50.2501 9.09113 50.3818 8.97437L50.4312 9.04109C50.2995 9.15786 50.2501 9.25794 50.2007 9.37471C50.1184 9.54152 50.0197 9.72501 49.6576 9.94186C49.2955 10.1754 49.0157 10.2254 48.7523 10.2755C48.4725 10.3255 48.2256 10.3756 47.8635 10.5924C47.5179 10.8093 47.4356 10.9594 47.3533 11.1429C47.271 11.3097 47.1722 11.4932 46.8101 11.71C46.448 11.9436 46.1682 11.9936 45.9049 12.0437C45.6415 12.0603 45.3782 12.1104 45.0325 12.3272Z" fill="white"/>
<path d="M51.3858 8.50727L51.3693 8.42387C51.4516 8.40718 51.5175 8.3905 51.5998 8.37382C51.8796 8.32378 52.1264 8.27374 52.4886 8.05688L52.5379 8.12361C52.1758 8.35714 51.896 8.40718 51.6327 8.45723C51.5339 8.47391 51.4516 8.49059 51.3858 8.50727Z" fill="white"/>
<path d="M53.1799 6.87257L53.1305 6.80585C53.4926 6.57232 53.7724 6.52228 54.0358 6.47223C54.3156 6.42219 54.5625 6.37215 54.9246 6.1553C55.2702 5.93844 55.3525 5.78831 55.4348 5.62151C55.5171 5.4547 55.6158 5.27121 55.9779 5.05435C56.3401 4.82082 56.6199 4.77078 56.8832 4.72074C57.163 4.67069 57.4099 4.62065 57.772 4.4038C58.1176 4.18695 58.1999 4.03682 58.2822 3.85333C58.3645 3.68652 58.4633 3.50303 58.8254 3.28618C59.1875 3.05264 59.4673 3.0026 59.7307 2.95256C60.0105 2.90251 60.2573 2.85247 60.6195 2.63562L60.6688 2.70234C60.3067 2.93588 60.0269 2.98592 59.7636 3.03596C59.4838 3.08601 59.2369 3.13605 58.8748 3.3529C58.5291 3.56975 58.4468 3.71988 58.3645 3.90337C58.2822 4.07018 58.1835 4.25367 57.8214 4.47052C57.4593 4.70405 57.1795 4.7541 56.9161 4.80414C56.6363 4.85418 56.3894 4.90423 56.0273 5.12108C55.6817 5.33793 55.5994 5.48806 55.5171 5.65487C55.4348 5.82168 55.336 6.00517 54.9739 6.22202C54.6118 6.45555 54.332 6.50559 54.0687 6.55564C53.7889 6.589 53.5255 6.65572 53.1799 6.87257Z" fill="white"/>
<path d="M49.8386 7.90681L49.7892 7.84009C49.9703 7.68996 50.0361 7.57319 50.102 7.43974C50.1843 7.27293 50.283 7.08944 50.6451 6.87259C51.0072 6.63906 51.287 6.58902 51.5504 6.53897C51.8302 6.48893 52.0771 6.43889 52.4392 6.22204C52.7848 6.00518 52.8671 5.85505 52.9494 5.67156C53.0317 5.50476 53.1305 5.32127 53.4926 5.10441C53.8547 4.87088 54.1345 4.82084 54.3978 4.77079C54.6776 4.72075 54.9245 4.67071 55.2866 4.45386L55.336 4.52058C54.9739 4.75411 54.6941 4.80416 54.4308 4.8542C54.1509 4.90424 53.9041 4.95429 53.542 5.17114C53.1963 5.38799 53.114 5.53812 53.0317 5.72161C52.9494 5.88842 52.8507 6.07191 52.4886 6.28876C52.1265 6.52229 51.8467 6.57233 51.5833 6.62238C51.3035 6.67242 51.0566 6.72246 50.6945 6.93931C50.3489 7.15617 50.2666 7.3063 50.1843 7.4731C50.102 7.60655 50.0361 7.74 49.8386 7.90681Z" fill="white"/>
<path d="M60.4384 23.0196L60.389 22.9529C60.7511 22.7193 61.0309 22.6693 61.2942 22.6192C61.574 22.5692 61.8209 22.5192 62.183 22.3023C62.5287 22.0855 62.611 21.9353 62.6933 21.7518C62.7427 21.6684 62.792 21.5683 62.8743 21.4683L62.9402 21.5183C62.8579 21.6184 62.8085 21.7018 62.7591 21.7852C62.6768 21.952 62.5781 22.1355 62.216 22.3524C61.8539 22.5859 61.574 22.6359 61.3107 22.686C61.0473 22.7527 60.784 22.8027 60.4384 23.0196Z" fill="white"/>
<path d="M64.1417 20.9345L64.1252 20.8511H64.1417C64.4215 20.8011 64.6684 20.751 65.0305 20.5342C65.3761 20.3173 65.4584 20.1672 65.5407 19.9837C65.623 19.8169 65.7218 19.6334 66.0839 19.4165C66.446 19.183 66.7258 19.133 66.9892 19.0829C67.269 19.0329 67.5158 18.9828 67.878 18.766L67.9273 18.8327C67.5652 19.0662 67.2854 19.1163 67.0221 19.1663C66.7423 19.2164 66.4954 19.2664 66.1333 19.4833C65.7876 19.7001 65.7053 19.8503 65.623 20.0337C65.5407 20.2006 65.442 20.384 65.0799 20.6009C64.7178 20.8344 64.438 20.8845 64.1746 20.9345H64.1417Z" fill="white"/>
<path d="M52.9494 13.7118L52.9 13.645C53.2621 13.4115 53.5419 13.3615 53.8053 13.3114C54.0193 13.2781 54.2168 13.228 54.4472 13.1279L54.4801 13.2113C54.2332 13.3281 54.0193 13.3615 53.8217 13.4115C53.5584 13.4449 53.295 13.4949 52.9494 13.7118Z" fill="white"/>
<path d="M55.4183 12.2438L55.3525 12.1938C55.4348 12.077 55.5665 11.9769 55.731 11.8769C56.0931 11.6433 56.373 11.5933 56.6363 11.5432C56.9161 11.4932 57.163 11.4432 57.5251 11.2263C57.8707 11.0095 57.953 10.8593 58.0353 10.6758C58.1176 10.509 58.2164 10.3255 58.5785 10.1087C58.9077 9.90851 59.1546 9.84179 59.4179 9.79175L59.4344 9.87515C59.1875 9.9252 58.9406 9.99192 58.6279 10.1754C58.2822 10.3923 58.1999 10.5424 58.1176 10.7259C58.0353 10.8927 57.9366 11.0762 57.5745 11.293C57.2124 11.5266 56.9326 11.5766 56.6692 11.6266C56.3894 11.6767 56.1425 11.7267 55.7804 11.9436C55.6323 12.0437 55.5171 12.1438 55.4183 12.2438Z" fill="white"/>
<path d="M51.0895 17.0146L51.0402 16.9478C51.4023 16.7143 51.6821 16.6643 51.9454 16.6142L52.0606 16.5975L52.0771 16.6809L51.9619 16.6976C51.6985 16.7477 51.4352 16.7977 51.0895 17.0146Z" fill="white"/>
<path d="M53.3116 15.9803L53.2457 15.9302C53.2951 15.8635 53.3116 15.8135 53.3445 15.7467C53.4268 15.5799 53.5255 15.3965 53.8876 15.1796C54.2497 14.9461 54.5295 14.896 54.7929 14.846C55.0727 14.7959 55.3196 14.7459 55.6817 14.529C56.0273 14.3122 56.1096 14.1621 56.1919 13.9786C56.2742 13.8118 56.373 13.6283 56.7351 13.4114C57.0972 13.1779 57.377 13.1278 57.6404 13.0778C57.9202 13.0278 58.167 12.9777 58.5291 12.7609L58.5785 12.8276C58.2164 13.0611 57.9366 13.1112 57.6733 13.1612C57.3935 13.2112 57.1466 13.2613 56.7845 13.4781C56.4388 13.695 56.3565 13.8451 56.2742 14.0286C56.1919 14.1954 56.0932 14.3789 55.7311 14.5958C55.369 14.8293 55.0892 14.8793 54.8258 14.9294C54.546 14.9794 54.2991 15.0295 53.937 15.2463C53.5914 15.4632 53.5091 15.6133 53.4268 15.7801C53.3939 15.8468 53.3609 15.9136 53.3116 15.9803Z" fill="white"/>
<path opacity="0.5" d="M63.0719 33.562C61.1461 33.6454 59.2533 34.0624 57.3934 34.5128C57.0478 34.5962 56.7021 34.6963 56.3565 34.7797L54.8916 33.9624C54.8916 33.9624 17.4139 46.9067 15.34 49.7592C13.2662 52.6116 13.3485 57.4157 13.3485 57.4157C13.3485 57.4157 17.6937 57.4157 23.6355 56.8653C28.2112 56.4482 37.6917 51.0103 43.4854 47.4906L48.2256 54.2297V53.3789L43.8968 47.2404C45.2959 46.3896 46.4645 45.6557 47.2381 45.1719C51.2212 42.7032 57.8543 35.5971 57.8543 35.5971L56.6198 34.9132C56.8997 34.8298 57.163 34.763 57.4428 34.6963C59.2862 34.2126 61.1626 33.7955 63.0719 33.6788C63.1048 33.6788 63.1377 33.6454 63.1377 33.6121C63.1377 33.5954 63.1048 33.562 63.0719 33.562Z" fill="#36B3D6"/>
<path d="M63.4998 33.6455C63.4834 33.6455 63.4669 33.6288 63.4669 33.6121C63.4998 33.4453 63.4011 33.2952 63.1871 33.1617C63.1707 33.1451 63.1707 33.1284 63.1707 33.1284C63.1707 33.1117 63.2036 33.1117 63.2036 33.1117C63.434 33.2451 63.5492 33.4286 63.5163 33.6288C63.5328 33.6455 63.5163 33.6455 63.4998 33.6455Z" fill="white"/>
<path d="M62.4465 34.2126C62.2325 34.2126 62.035 34.1792 61.8539 34.0958C61.8375 34.0958 61.8375 34.0791 61.8375 34.0625C61.8375 34.0458 61.8539 34.0458 61.8704 34.0458C62.3312 34.2459 62.9732 34.1625 63.3188 33.879C63.3353 33.8623 63.3517 33.8623 63.3517 33.879C63.3682 33.8956 63.3682 33.9123 63.3517 33.9123C63.1377 34.0958 62.7921 34.2126 62.4465 34.2126Z" fill="white"/>
<path d="M61.4753 33.7623C61.4589 33.7623 61.4589 33.7623 61.4424 33.7456C61.393 33.6455 61.393 33.5454 61.426 33.4453C61.4753 33.3119 61.607 33.1785 61.7881 33.0784C61.8045 33.0784 61.821 33.0784 61.821 33.095C61.821 33.1117 61.821 33.1284 61.8045 33.1284C61.6399 33.2118 61.5247 33.3286 61.4753 33.462C61.4424 33.5454 61.4589 33.6288 61.4918 33.7122C61.5083 33.7456 61.5083 33.7623 61.4753 33.7623C61.4918 33.7623 61.4753 33.7623 61.4753 33.7623Z" fill="white"/>
<path d="M63.2036 33.1784C62.9567 33.0283 62.611 32.9783 62.2983 33.0116C62.2818 33.0116 62.2654 32.9949 62.2654 32.9783C62.2654 32.9616 62.2818 32.9449 62.2983 32.9449C62.6439 32.8949 62.9896 32.9616 63.2365 33.1117C63.2529 33.1284 63.2529 33.1451 63.2529 33.1451C63.2365 33.1617 63.22 33.1784 63.2036 33.1784Z" fill="white"/>
<path d="M64.1747 33.3786C64.1582 33.3786 64.1582 33.3786 64.1418 33.3619C64.0759 33.1784 63.9113 33.0116 63.6809 32.8782C63.6644 32.8615 63.6644 32.8448 63.6644 32.8448C63.6644 32.8281 63.6973 32.8281 63.6973 32.8281C63.9442 32.9783 64.1088 33.1451 64.1747 33.3452C64.2076 33.3619 64.2076 33.3786 64.1747 33.3786Z" fill="white"/>
<path d="M63.3682 34.4628C63.3517 34.4628 63.3517 34.4628 63.3353 34.4461C63.3353 34.4294 63.3353 34.4128 63.3517 34.4128C63.7797 34.2626 64.0759 34.0291 64.1582 33.7455C64.1582 33.7288 64.1747 33.7122 64.1911 33.7288C64.2076 33.7288 64.2076 33.7455 64.2076 33.7622C64.1253 34.0458 63.829 34.296 63.3682 34.4628Z" fill="white"/>
<path d="M62.4794 34.5963C61.6235 34.5963 60.9158 34.2126 60.7512 33.7623C60.636 33.4453 60.7841 33.1451 61.1462 32.8948C61.1626 32.8782 61.1791 32.8948 61.1791 32.9115C61.1956 32.9282 61.1791 32.9449 61.1626 32.9449C60.817 33.1784 60.6689 33.462 60.7841 33.7456C60.9651 34.246 61.8704 34.663 62.8909 34.4962C62.9073 34.4962 62.9238 34.5129 62.9238 34.5129C62.9238 34.5296 62.9073 34.5463 62.9073 34.5463C62.7757 34.5796 62.6275 34.5963 62.4794 34.5963Z" fill="white"/>
<path d="M63.6974 32.8782C63.1542 32.5613 62.3313 32.4945 61.64 32.7281C61.6235 32.7281 61.6071 32.7281 61.6071 32.7114C61.6071 32.6947 61.6071 32.678 61.6235 32.678C62.3148 32.4445 63.1542 32.5112 63.7138 32.8281C63.7303 32.8448 63.7303 32.8615 63.7303 32.8615C63.7303 32.8782 63.7138 32.8782 63.6974 32.8782Z" fill="white"/>
<path d="M65.1622 33.2785C65.1458 33.2785 65.1458 33.2785 65.1293 33.2619C65.0306 32.9616 64.7672 32.678 64.3887 32.4612C64.3722 32.4445 64.3722 32.4278 64.3722 32.4278C64.3722 32.4111 64.4051 32.4111 64.4051 32.4111C64.8001 32.6447 65.0635 32.9282 65.1622 33.2452C65.1952 33.2619 65.1952 33.2785 65.1622 33.2785C65.1787 33.2785 65.1622 33.2785 65.1622 33.2785Z" fill="white"/>
<path d="M64.2405 34.8298C64.224 34.8298 64.224 34.8298 64.2076 34.8131C64.2076 34.7964 64.2076 34.7798 64.224 34.7798C64.866 34.4628 65.2116 33.9957 65.1787 33.512C65.1787 33.4953 65.1951 33.4786 65.2116 33.4786C65.2281 33.4786 65.2445 33.4953 65.2445 33.512C65.2774 34.0124 64.9153 34.4962 64.2405 34.8298C64.257 34.8298 64.2405 34.8298 64.2405 34.8298Z" fill="white"/>
<path d="M62.4958 35.1968C62.2654 35.1968 62.035 35.1801 61.8045 35.1467C61.7881 35.1467 61.7716 35.1301 61.7881 35.1134C61.7881 35.0967 61.8045 35.08 61.821 35.0967C62.5287 35.1968 63.2694 35.1467 63.8949 34.9132C63.9113 34.9132 63.9278 34.9132 63.9278 34.9299C63.9278 34.9466 63.9278 34.9633 63.9113 34.9633C63.4834 35.1301 62.9896 35.1968 62.4958 35.1968Z" fill="white"/>
<path d="M60.9651 34.9299C60.2903 34.663 59.8459 34.2293 59.7471 33.7455C59.6648 33.3952 59.78 33.0616 60.0434 32.778C60.0599 32.7613 60.0763 32.7613 60.0763 32.778C60.0928 32.7947 60.0928 32.8114 60.0763 32.8114C59.813 33.0783 59.7142 33.3952 59.7965 33.7288C59.8953 34.1792 60.3397 34.6129 60.9651 34.8631C60.9816 34.8631 60.9816 34.8798 60.9816 34.8965C60.9816 34.9132 60.9816 34.9299 60.9651 34.9299Z" fill="white"/>
<path d="M60.3397 32.5946C60.3232 32.5946 60.3232 32.5946 60.3232 32.5779C60.3068 32.5612 60.3232 32.5445 60.3232 32.5445C60.8499 32.1775 61.6564 31.9607 62.5123 31.9607C62.5617 31.9607 62.6275 31.9607 62.6769 31.9607C62.6934 31.9607 62.7098 31.9774 62.7098 31.9941C62.7098 32.0107 62.6934 32.0274 62.6769 32.0274C61.7716 31.9941 60.8828 32.2109 60.3562 32.5946C60.3397 32.5946 60.3397 32.5946 60.3397 32.5946Z" fill="white"/>
<path d="M64.4216 32.4611C64.1582 32.311 63.8455 32.1942 63.4998 32.1108C63.4834 32.1108 63.4669 32.0941 63.4834 32.0774C63.4834 32.0607 63.4998 32.0441 63.5163 32.0607C63.8619 32.1441 64.1911 32.2609 64.438 32.411C64.4545 32.4277 64.4545 32.4444 64.4545 32.4444C64.438 32.4611 64.4216 32.4611 64.4216 32.4611Z" fill="white"/>
<path opacity="0.5" d="M25.4789 38.1827L18.2039 36.4979L18.3027 36.9817C18.3027 36.9817 24.9851 38.4329 25.0345 38.533C25.0839 38.6164 25.4789 38.1827 25.4789 38.1827Z" fill="#36B3D6"/>
<path d="M18.4344 36.8149C18.4344 36.8149 19.6688 36.4479 19.5371 35.6305C19.4219 34.8132 18.4344 34.5129 18.4344 34.5129C18.4344 34.5129 16.6403 34.3127 15.2577 34.6297C13.8751 34.9466 14.1549 35.4971 14.1549 35.4971L18.4344 36.8149Z" fill="#534741"/>
<path d="M56.8996 30.5929C56.8996 30.5929 56.4552 34.9299 47.9622 41.7858C44.9337 44.2212 41.6748 46.0061 38.6134 47.7742C33.0666 50.977 30.0546 53.1789 23.4873 53.9962C16.7061 54.8303 14.7804 51.1938 14.7804 51.1938L28.7214 39.2837L56.8996 30.5929Z" fill="#534741"/>
<path d="M56.8997 30.5929L49.9703 26.6228C43.0574 28.7913 36.6219 31.1767 32.721 33.6455C26.4665 37.6155 20.6399 40.3178 17.167 43.3204C14.3525 45.7391 14.764 51.2105 14.764 51.2105C20.2778 51.7776 24.7877 51.2105 28.2112 50.0428C32.0956 48.725 35.8318 46.1228 42.8764 41.9693C49.0157 38.3328 52.5873 35.3636 56.8997 30.5929Z" fill="white"/>
<path d="M15.3236 50.6433C15.4553 50.66 15.5869 50.66 15.7186 50.6767C16.8214 50.7767 17.9077 50.8101 18.9611 50.8101C22.3352 50.8101 25.3802 50.3597 28.0137 49.4589C28.1289 49.4256 28.2441 49.3755 28.3593 49.3422C31.1245 48.3413 33.8896 46.6732 37.988 44.1878C39.3376 43.3704 40.8683 42.453 42.5636 41.4521C48.2915 38.0659 51.7644 35.3135 55.9615 30.7429L49.9045 27.2733C41.8724 29.7921 36.3585 32.0441 33.0337 34.1459C30.6307 35.6638 28.3593 36.9649 26.1538 38.2327C22.6644 40.2344 19.6524 41.9525 17.5456 43.7707C15.4553 45.5389 15.3071 49.2921 15.3236 50.6433Z" fill="#B59F8A"/>
<path d="M45.5757 37.5154C45.7074 37.3653 46.1188 37.6322 46.2341 37.8657C46.3493 38.0826 46.0036 37.7323 45.872 37.8491C45.872 37.8491 45.872 37.8491 45.8555 37.8657C45.7567 37.7323 45.6744 37.6322 45.5757 37.5154Z" fill="#EA1F3D"/>
<path d="M46.3328 39.0167C46.3328 39.1835 46.2011 38.8499 46.0201 38.8665C45.8555 38.8832 45.7073 39.1168 45.7073 38.9833C45.7238 38.8665 45.8225 38.5996 45.9871 38.5663C46.1682 38.5329 46.3492 38.8332 46.3328 39.0167Z" fill="#999999"/>
<path d="M46.0201 38.7498C45.8884 38.7665 45.7732 38.95 45.7238 38.9166C45.7238 38.9333 45.7073 38.9667 45.7073 38.9834C45.7073 39.1168 45.8555 38.8833 46.0201 38.8666C46.2011 38.8499 46.3163 39.1835 46.3328 39.0167C46.3328 38.9833 46.3328 38.95 46.3163 38.9166C46.2999 38.95 46.1682 38.7331 46.0201 38.7498Z" fill="#EA1F3D"/>
<path d="M45.8555 37.5988C46.2176 38.0159 46.2011 38.7498 46.0201 38.7498C45.8719 38.7498 45.658 38.2327 45.4111 37.9491C45.1806 37.6489 44.9831 37.432 45.049 37.2986C45.1148 37.1318 45.5098 37.1651 45.8555 37.5988Z" fill="#E6E6E6"/>
<path d="M45.5098 37.8324C45.3782 37.9492 45.3946 38.1994 45.4276 38.2995C45.4769 38.3995 45.5098 38.1493 45.658 38.0659H45.6744C45.6251 37.9658 45.5757 37.8991 45.5098 37.8324Z" fill="#EA1F3D"/>
<path d="M45.263 37.2985C45.2794 37.3152 45.2959 37.3486 45.2794 37.3653C45.263 37.3819 45.23 37.3986 45.2136 37.3819C45.1971 37.3653 45.1807 37.3319 45.1971 37.3152C45.1971 37.2985 45.23 37.2819 45.263 37.2985Z" fill="#333333"/>
<path d="M45.1971 37.6822C45.1971 37.6822 45.1971 37.6656 45.1971 37.6822C45.2135 37.6489 45.23 37.6489 45.2465 37.6322C45.2465 37.6322 45.2629 37.6155 45.2794 37.5988C45.2958 37.5822 45.2958 37.5822 45.3123 37.5655C45.3288 37.5488 45.3452 37.5154 45.3617 37.4988C45.3781 37.4821 45.3946 37.4487 45.4111 37.432C45.4111 37.4153 45.4275 37.4153 45.4275 37.3987C45.4275 37.382 45.444 37.382 45.444 37.3653C45.4604 37.3486 45.4604 37.3319 45.4769 37.3153C45.4769 37.2986 45.4933 37.2986 45.4933 37.2986C45.4933 37.2986 45.4933 37.2986 45.4933 37.3153C45.4933 37.3319 45.4933 37.3486 45.4769 37.3653C45.4769 37.382 45.4769 37.382 45.4604 37.3987C45.4604 37.4153 45.444 37.432 45.444 37.432C45.444 37.4487 45.4275 37.4654 45.4275 37.4654C45.4111 37.4821 45.411 37.4988 45.3946 37.4988C45.3781 37.5154 45.3781 37.5154 45.3617 37.5321C45.3452 37.5488 45.3452 37.5488 45.3288 37.5655C45.3123 37.5822 45.3123 37.5822 45.2958 37.5988C45.2794 37.5988 45.2794 37.6155 45.2629 37.6155C45.2465 37.6322 45.23 37.6322 45.2135 37.6489C45.1971 37.6656 45.1971 37.6822 45.1971 37.6822Z" fill="#333333"/>
<path d="M44.3906 39.05C44.4894 39.2169 44.1108 39.5338 43.8475 39.5672C43.6006 39.6005 44.045 39.4003 43.9956 39.2169V39.2002C44.1273 39.1668 44.259 39.1168 44.3906 39.05Z" fill="#EA1F3D"/>
<path d="M42.7447 39.3003C42.5801 39.2335 42.9422 39.2335 42.9751 39.05C43.0081 38.8832 42.8435 38.6664 42.9587 38.7164C43.0739 38.7665 43.2714 38.95 43.255 39.1168C43.255 39.3003 42.9093 39.3837 42.7447 39.3003Z" fill="#999999"/>
<path d="M43.0904 39.0834C43.1233 38.95 42.9916 38.7832 43.0245 38.7498C43.0081 38.7331 42.9916 38.7164 42.9587 38.7164C42.8435 38.6664 43.0081 38.8832 42.9751 39.05C42.9258 39.2169 42.5801 39.2335 42.7447 39.3003C42.7776 39.3169 42.7941 39.3169 42.8435 39.3169C42.827 39.2836 43.0739 39.2335 43.0904 39.0834Z" fill="#EA1F3D"/>
<path d="M44.2425 39.3003C43.7322 39.5171 43.0574 39.2669 43.1232 39.1001C43.1726 38.9667 43.7158 38.9166 44.0614 38.7665C44.4071 38.633 44.6704 38.5163 44.7856 38.633C44.9008 38.7331 44.7363 39.1001 44.2425 39.3003Z" fill="#B3B3B3"/>
<path d="M44.1273 38.8999C44.0614 38.7331 43.8145 38.6664 43.7158 38.6664C43.6006 38.6831 43.831 38.7998 43.8639 38.95V38.9666C43.9462 38.9666 44.045 38.9333 44.1273 38.8999Z" fill="#EA1F3D"/>
<path d="M44.7034 38.8165C44.6869 38.8332 44.654 38.8332 44.6375 38.8165C44.6211 38.7999 44.6211 38.7665 44.654 38.7498C44.6704 38.7331 44.7034 38.7331 44.7198 38.7498C44.7198 38.7665 44.7198 38.7999 44.7034 38.8165Z" fill="#333333"/>
<path d="M44.3742 38.6497C44.3742 38.6497 44.3742 38.6497 44.3906 38.6663C44.3906 38.683 44.4071 38.6997 44.4071 38.7164C44.4071 38.7331 44.4235 38.7331 44.4235 38.7497C44.4235 38.7664 44.44 38.7664 44.44 38.7831C44.4565 38.8165 44.4729 38.8331 44.4894 38.8665C44.5058 38.8832 44.5223 38.9166 44.5388 38.9332C44.5552 38.9499 44.5552 38.9499 44.5552 38.9666C44.5717 38.9833 44.5717 38.9833 44.5717 39C44.5881 39.0166 44.6046 39.0333 44.6046 39.0333C44.6211 39.05 44.6211 39.05 44.6211 39.05C44.6211 39.05 44.6211 39.05 44.6046 39.0333C44.5881 39.0333 44.5717 39.0166 44.5552 39C44.5388 39 44.5388 38.9833 44.5223 38.9833C44.5058 38.9666 44.5058 38.9666 44.4894 38.9499C44.4729 38.9332 44.4729 38.9332 44.4565 38.9166C44.44 38.8999 44.44 38.8832 44.4235 38.8832C44.4235 38.8665 44.4071 38.8498 44.4071 38.8331C44.4071 38.8165 44.3906 38.7998 44.3906 38.7831C44.3906 38.7664 44.3742 38.7497 44.3742 38.7497C44.3742 38.7331 44.3742 38.7164 44.3577 38.7164C44.3577 38.6997 44.3577 38.683 44.3412 38.6663C44.3742 38.6497 44.3742 38.6497 44.3742 38.6497Z" fill="#333333"/>
<path d="M45.0161 38.9332H45.0325C45.2465 39.0166 45.1148 39.6505 44.8679 39.884C44.6539 40.1176 44.9338 39.5504 44.7362 39.417C44.7362 39.417 44.7198 39.417 44.7198 39.4003C44.8515 39.2502 44.9502 39.1 45.0161 38.9332Z" fill="#EA1F3D"/>
<path d="M43.5677 40.518C43.3537 40.5847 43.6993 40.2845 43.6006 40.0843C43.5183 39.8841 43.1726 39.8007 43.3208 39.7507C43.4689 39.7173 43.8145 39.734 43.9298 39.9008C44.0779 40.0843 43.7981 40.4513 43.5677 40.518Z" fill="#999999"/>
<path d="M43.7487 40.0176C43.6664 39.8508 43.4031 39.8007 43.4195 39.734C43.3866 39.734 43.3537 39.734 43.3372 39.7507C43.1726 39.8007 43.5183 39.8841 43.617 40.0843C43.7158 40.3012 43.3701 40.5847 43.5841 40.518C43.617 40.5013 43.6499 40.4847 43.6993 40.468C43.6335 40.4346 43.831 40.1844 43.7487 40.0176Z" fill="#EA1F3D"/>
<path d="M45.0655 39.3003C44.7198 39.9341 43.831 40.2177 43.7652 40.0009C43.7158 39.8174 44.226 39.3503 44.44 38.8999C44.6869 38.4829 44.868 38.166 45.0655 38.1826C45.2794 38.1993 45.4111 38.6997 45.0655 39.3003Z" fill="#CCCCCC"/>
<path d="M44.6375 39C44.621 38.9834 44.621 38.9834 44.6375 39C44.44 38.8833 44.1437 39.0167 44.0449 39.1001C43.9462 39.2002 44.2589 39.1335 44.4235 39.2669C44.4235 39.2669 44.4235 39.2836 44.44 39.2836C44.5058 39.1835 44.5716 39.1001 44.6375 39Z" fill="#EA1F3D"/>
<path d="M45.1477 38.4495C45.1477 38.4829 45.0983 38.4995 45.0654 38.4995C45.0325 38.4829 45.0161 38.4495 45.0161 38.4161C45.0161 38.3828 45.049 38.3661 45.0819 38.3661C45.1313 38.3828 45.1642 38.4161 45.1477 38.4495Z" fill="#333333"/>
<path d="M44.6704 38.533C44.6704 38.533 44.6869 38.533 44.7033 38.5496C44.7198 38.5496 44.7362 38.5663 44.7692 38.583C44.7856 38.583 44.8021 38.5997 44.8185 38.5997C44.835 38.5997 44.8515 38.6164 44.8679 38.6164C44.9008 38.633 44.9338 38.6497 44.9667 38.6664C44.9996 38.6831 45.0325 38.6831 45.0654 38.6998C45.0819 38.6998 45.0984 38.7165 45.1148 38.7165C45.1313 38.7165 45.1477 38.7164 45.1642 38.7331C45.1971 38.7331 45.2136 38.7331 45.23 38.7498C45.2465 38.7498 45.2629 38.7498 45.2629 38.7498C45.2629 38.7498 45.2465 38.7498 45.23 38.7498C45.2136 38.7498 45.1806 38.7665 45.1642 38.7665C45.1477 38.7665 45.1313 38.7665 45.1148 38.7665C45.0984 38.7665 45.0819 38.7665 45.0654 38.7665C45.049 38.7665 45.0325 38.7665 45.0161 38.7498C44.9996 38.7498 44.9831 38.7331 44.9502 38.7331C44.9338 38.7164 44.9173 38.7164 44.9008 38.6998C44.8844 38.6998 44.8679 38.6831 44.8515 38.6664C44.835 38.6497 44.8185 38.6497 44.8021 38.633C44.7856 38.6164 44.7692 38.6164 44.7692 38.5997C44.7527 38.583 44.7363 38.5663 44.7198 38.5496C44.6869 38.5496 44.6704 38.533 44.6704 38.533Z" fill="#333333"/>
<path d="M46.5962 37.749H46.5797C46.2999 37.6489 46.448 36.8649 46.7607 36.5646C47.0241 36.2644 46.6949 36.9817 46.9418 37.1318C46.9418 37.1318 46.9583 37.1318 46.9583 37.1485C46.8101 37.3486 46.6784 37.5488 46.5962 37.749Z" fill="#EA1F3D"/>
<path d="M48.3573 35.7473C48.6206 35.6639 48.1927 36.0309 48.3244 36.2978C48.4396 36.548 48.8675 36.6314 48.67 36.6981C48.489 36.7481 48.061 36.7315 47.8964 36.5146C47.7483 36.2811 48.0775 35.8307 48.3573 35.7473Z" fill="#999999"/>
<path d="M48.1433 36.3811C48.2421 36.5813 48.5713 36.648 48.5548 36.7147C48.5877 36.7147 48.6371 36.698 48.6536 36.698C48.8511 36.6313 48.4232 36.5479 48.3079 36.2977C48.1927 36.0475 48.6042 35.6638 48.3409 35.7472C48.2915 35.7639 48.2586 35.7806 48.2092 35.814C48.2915 35.8473 48.0446 36.1643 48.1433 36.3811Z" fill="#EA1F3D"/>
<path d="M46.5468 37.2987C46.9583 36.5147 48.0446 36.131 48.1434 36.3979C48.2092 36.6147 47.5837 37.2319 47.3204 37.7657C47.0241 38.2828 46.8101 38.6999 46.5633 38.6665C46.2835 38.6665 46.1189 38.0493 46.5468 37.2987Z" fill="#E6E6E6"/>
<path d="M47.0735 37.6656L47.0899 37.6823C47.3204 37.7991 47.6825 37.6489 47.7977 37.5322C47.9129 37.3987 47.5343 37.4821 47.3204 37.332L47.3039 37.3153C47.2216 37.4154 47.1393 37.5322 47.0735 37.6656Z" fill="#EA1F3D"/>
<path d="M46.4481 38.3496C46.4645 38.2995 46.4974 38.2828 46.5468 38.2828C46.5797 38.2995 46.6127 38.3329 46.5962 38.3829C46.5797 38.4163 46.5468 38.4496 46.5139 38.4496C46.4645 38.4496 46.4316 38.3996 46.4481 38.3496Z" fill="#333333"/>
<path d="M47.0241 38.2328C47.0241 38.2328 47.0077 38.2328 46.9912 38.2161C46.9748 38.1994 46.9418 38.1827 46.9089 38.1827C46.8925 38.1827 46.876 38.166 46.8595 38.166C46.8431 38.1494 46.8266 38.1494 46.7937 38.1494C46.7608 38.1327 46.7114 38.116 46.662 38.0993C46.6127 38.0826 46.5797 38.0659 46.5304 38.0659C46.5139 38.0659 46.481 38.0493 46.4645 38.0493C46.4481 38.0493 46.4316 38.0493 46.4151 38.0326C46.3822 38.0326 46.3493 38.0159 46.3328 38.0159C46.3164 38.0159 46.2999 38.0159 46.2999 38.0159C46.2999 38.0159 46.3164 38.0159 46.3328 37.9992C46.3493 37.9992 46.3822 37.9825 46.4151 37.9825C46.4316 37.9825 46.4481 37.9825 46.481 37.9825C46.4974 37.9825 46.5304 37.9825 46.5468 37.9825C46.5633 37.9825 46.5962 37.9825 46.6127 37.9992C46.6291 37.9992 46.662 38.0159 46.6785 38.0159C46.695 38.0326 46.7279 38.0326 46.7443 38.0493C46.7608 38.066 46.7937 38.0659 46.8102 38.0826C46.8266 38.0993 46.8431 38.0993 46.876 38.116C46.8925 38.1327 46.9089 38.1494 46.9254 38.1494C46.9583 38.166 46.9748 38.1994 46.9912 38.2161C47.0241 38.2161 47.0241 38.2328 47.0241 38.2328Z" fill="#333333"/>
<path d="M47.5014 36.5478V36.5312C47.6002 36.2476 48.3737 36.4144 48.67 36.7313C48.9498 36.9982 48.2585 36.6479 48.1104 36.8981C48.1104 36.8981 48.1104 36.9148 48.0939 36.9148C47.9129 36.7647 47.7154 36.6479 47.5014 36.5478Z" fill="#EA1F3D"/>
<path d="M47.9623 36.4978C47.2216 36.0475 46.6126 36.2143 46.5961 36.4812C46.5797 36.7481 46.9747 36.9649 47.4849 37.2652C47.7318 37.3819 47.9787 37.5821 48.1927 37.7489L48.7523 37.3653C48.5877 37.0483 48.3244 36.698 47.9623 36.4978Z" fill="#999999"/>
<path d="M47.5837 37.0316L47.5673 37.0483C47.4356 37.2818 47.6002 37.6488 47.6989 37.7656C47.8306 37.8823 47.7483 37.4987 47.9129 37.2818L47.9294 37.2651C47.8141 37.1817 47.6989 37.0983 47.5837 37.0316Z" fill="#EA1F3D"/>
<path d="M46.9089 36.3811C46.9582 36.3978 46.9747 36.4311 46.9582 36.4812C46.9418 36.5145 46.9089 36.5479 46.8595 36.5312C46.8266 36.5145 46.7936 36.4812 46.7936 36.4478C46.8266 36.3978 46.8595 36.3811 46.9089 36.3811Z" fill="#333333"/>
<path d="M47.0241 36.9816C47.0241 36.9816 47.0241 36.965 47.0406 36.9483C47.057 36.9316 47.0735 36.8982 47.0735 36.8649C47.0735 36.8482 47.0899 36.8315 47.0899 36.8148C47.1064 36.7982 47.1064 36.7815 47.1229 36.7481C47.1393 36.7147 47.1558 36.6647 47.1722 36.6147C47.1887 36.5646 47.2052 36.5313 47.2052 36.4812C47.2052 36.4645 47.2216 36.4312 47.2216 36.4145C47.2216 36.3978 47.2216 36.3811 47.2381 36.3644C47.2545 36.3311 47.2545 36.2977 47.2545 36.281C47.2545 36.2644 47.2545 36.2477 47.2545 36.2477C47.2545 36.2477 47.2545 36.2644 47.271 36.281C47.271 36.2977 47.2875 36.3311 47.2875 36.3644C47.2875 36.3811 47.2875 36.3978 47.2875 36.4312C47.2875 36.4479 47.2875 36.4812 47.2875 36.4979C47.2875 36.5146 47.2875 36.5479 47.271 36.5646C47.271 36.5813 47.2545 36.6147 47.2545 36.6313C47.2381 36.648 47.2381 36.6814 47.2216 36.6981C47.2052 36.7147 47.2052 36.7481 47.1887 36.7648C47.1722 36.7815 47.1722 36.7982 47.1558 36.8148C47.1393 36.8315 47.1229 36.8482 47.1229 36.8649C47.1064 36.8982 47.0735 36.9149 47.057 36.9316C47.0406 36.965 47.0241 36.9816 47.0241 36.9816Z" fill="#333333"/>
<path d="M55.2044 31.5437L49.5588 28.2576L43.4525 30.2426L51.5504 35.0801C52.719 34.0792 53.9535 32.8615 55.2044 31.5437Z" fill="#534741"/>
<path d="M43.4525 30.2426V30.9765L51.0402 35.5304L51.5504 35.0967L43.4525 30.2426Z" fill="white"/>
<path d="M40.7531 42.5198L30.7295 36.6481L27.5693 38.533L37.5765 44.4214L40.7531 42.5198Z" fill="#534741"/>
<path d="M27.5693 38.533V39.3503L36.8523 44.8717L37.5765 44.4213L27.5693 38.533Z" fill="white"/>
<path d="M15.7186 50.6766C16.8214 50.7767 17.9077 50.8101 18.9611 50.8101C22.3352 50.8101 25.3802 50.3597 28.0136 49.4589C28.1289 49.4256 28.2441 49.3755 28.3593 49.3422L18.6812 43.6707C18.6812 43.6707 17.6114 44.121 16.5086 46.5064C15.4388 48.7917 15.6857 50.5599 15.7186 50.6766Z" fill="#534741"/>
<path opacity="0.5" d="M49.3284 36.9317L51.0402 35.5305L43.4525 30.9766C43.4525 30.9766 44.1108 32.6947 45.3617 34.196H44.2261L43.3537 34.7965L41.9547 34.9133L40.0783 35.3803L38.4489 36.2477L39.2554 37.7157L41.7078 38.2494L42.0534 41.6857L45.5099 38.6331L46.9747 36.4646L46.5797 35.397C46.8266 35.5805 47.0735 35.7473 47.3368 35.8974C49.8551 37.282 49.3284 36.9317 49.3284 36.9317Z" fill="#998675"/>
<path opacity="0.5" d="M36.8523 44.8718L33.7579 46.7067C33.7579 46.7067 26.7792 43.4873 27.5528 39.3671L36.8523 44.8718Z" fill="#998675"/>
<path d="M18.3356 36.9816C18.3356 36.9816 19.57 36.6147 19.4384 35.7973C19.3232 34.9799 18.3356 34.6797 18.3356 34.6797C18.3356 34.6797 16.5415 34.4795 15.159 34.7964C13.7764 35.1134 14.0562 35.6638 14.0562 35.6638L18.3356 36.9816Z" fill="white"/>
<path d="M17.1835 35.6472L33.725 33.6788C33.8896 33.6621 34.0377 33.7789 34.0542 33.9457C34.0707 34.1125 33.9554 34.2627 33.7909 34.2793L17.2164 35.9474C17.1341 35.9474 17.0683 35.8974 17.0518 35.814C17.0353 35.7139 17.1012 35.6472 17.1835 35.6472Z" fill="#534741"/>
<path d="M44.868 28.3743L44.7034 27.6737L45.477 27.3401L45.4111 28.2075L44.868 28.3743Z" fill="#E68F5E"/>
<path d="M41.5761 31.9607C40.6544 33.2118 39.5516 34.3627 38.7122 34.5462L36.161 31.9607L38.9426 30.6262L41.5761 31.9607Z" fill="#755F00"/>
<path d="M42.9422 29.7255L42.8928 30.1091L42.7941 30.3593L42.4978 30.4928L42.5472 29.8589L42.9422 29.7255Z" fill="#FFAE80"/>
<path d="M41.9876 29.4752L42.2509 29.5753H42.5966L42.7941 29.7588C42.9093 29.8756 42.7941 29.9923 42.7118 29.9423L42.5307 29.8589L41.9711 30.3593L41.5267 30.4094L41.3621 30.0591L41.9876 29.4752Z" fill="#FFAE80"/>
<path d="M36.4902 28.7746L37.7082 26.9897L39.7162 27.8905L38.7945 29.3584L36.4902 28.7746Z" fill="#FFAE80"/>
<path d="M39.0413 28.5245C39.0413 28.5245 39.2882 29.0249 39.7162 28.6245C40.1441 28.2409 40.8354 26.9565 40.605 25.9222C40.3745 24.888 38.6628 26.2892 38.6628 26.2892L39.0413 28.5245Z" fill="#FFAE80"/>
<path d="M37.2473 27.6737C37.2473 27.6737 38.1361 27.8906 38.7451 28.2909C38.8932 28.391 39.1895 28.341 39.3376 28.2242L39.5681 27.9406L39.6503 27.5403L40.0618 27.3735L40.0289 26.9398C40.2593 26.8731 40.4569 26.7062 40.6379 26.4894C40.7202 26.3226 40.819 26.0557 40.7202 25.672C40.5391 24.9881 39.6997 24.5044 38.778 24.5711C37.1979 24.6545 36.8029 26.3893 37.2473 27.6737Z" fill="black"/>
<path d="M39.8808 27.3734C39.8808 27.3234 39.8808 27.2734 39.8643 27.2233C39.8479 27.1733 39.8149 27.1399 39.7656 27.1066C39.6668 27.0732 39.5516 27.1399 39.5022 27.2233C39.4528 27.3067 39.4693 27.4068 39.4858 27.4902C39.5022 27.5569 39.5022 27.6237 39.5187 27.6904C39.5187 27.7404 39.5351 27.8072 39.5681 27.8572C39.601 27.9072 39.6668 27.9406 39.7326 27.9406C39.782 27.9406 39.8149 27.9072 39.8314 27.8572C39.8479 27.8238 39.8643 27.7738 39.8643 27.7404C39.8643 27.6237 39.8808 27.4902 39.8808 27.3734Z" fill="#FFAE80"/>
<path d="M38.8932 38.8333C38.8274 39.734 38.7287 40.6181 38.6628 41.2853L37.7246 40.7349L36.3585 39.9842L36.3091 38.8666C37.1979 39.4171 37.988 39.3003 38.8932 38.8333Z" fill="black"/>
<path d="M34.3505 35.5138C34.4163 35.6138 38.2842 34.3461 38.3171 34.4462C39.0249 34.7131 39.0249 36.8316 38.8932 38.8333C38.0044 39.2837 37.2144 39.4004 36.3091 38.8666L36.2762 38.0826L33.8896 38.7332L33.3958 38.8333V34.9466C33.8073 35.0634 34.1529 35.2469 34.3505 35.5138Z" fill="#755F00"/>
<path d="M42.0369 39.9175C42.004 40.5347 41.9217 41.2019 41.8559 41.8525L40.7531 42.503L39.4528 41.7524V40.3512C40.3252 40.3845 41.181 40.5013 42.0369 39.9175Z" fill="black"/>
<path d="M33.6427 39.9342C33.7415 39.9842 33.8567 40.0343 33.9719 40.0676L35.0911 40.1344L36.8358 40.2178L39.4693 40.0843V40.3512C40.3252 40.3846 41.1975 40.5013 42.0534 39.9175C42.1357 38.583 42.0205 37.4487 41.3127 37.015C41.2798 36.8983 37.379 37.2152 37.3131 37.1151C36.4737 35.7806 32.9021 35.397 32.9021 35.397C32.507 35.864 32.2272 36.3311 32.0791 36.7648C31.6018 38.1326 32.326 39.317 33.6427 39.9342Z" fill="#755F00"/>
<path d="M50.6122 56.882L50.8262 56.7986C50.8262 56.7986 50.7603 56.1146 50.6286 55.6976C50.497 55.2806 49.2625 52.7951 49.2625 52.7951C49.2625 52.7951 48.8017 51.9111 48.3079 52.278C47.9293 52.5616 48.2256 52.9453 48.2256 52.9453L48.3902 54.3465L50.6122 56.882Z" fill="#534741"/>
<path d="M50.4147 56.882H50.6122C50.6122 56.882 50.5464 56.198 50.4147 55.781C50.2831 55.364 49.0486 52.8785 49.0486 52.8785C49.0486 52.8785 48.5878 52.0111 48.2257 52.3281C47.88 52.645 48.0117 53.0287 48.0117 53.0287L48.1763 54.4299L50.4147 56.882Z" fill="white"/>
<path d="M48.8346 54.1797L41.6584 38.6497C41.5926 38.4996 41.6584 38.3161 41.8065 38.2494C41.9547 38.1827 42.1357 38.2494 42.2015 38.3995L49.098 54.0629C49.1309 54.1463 49.098 54.2297 49.0157 54.2631C48.9498 54.2964 48.8675 54.2631 48.8346 54.1797Z" fill="#534741"/>
<path d="M30.5154 38.1994C31.5195 39.5505 32.6716 41.1853 34.334 41.4689L37.3296 41.7024C38.8603 40.5514 39.5516 38.533 39.1401 37.0651C39.0084 36.5813 39.5516 34.5296 40.0618 32.728C40.1276 32.4945 40.1935 32.2777 40.2593 32.0441C40.5391 31.0433 40.7696 30.2259 40.8354 29.9257C40.8354 29.9257 40.5062 29.7922 40.1276 29.6254C39.6174 29.4085 39.0578 29.1417 38.992 29.0749C38.5969 28.5745 37.0004 28.024 37.0004 28.024C35.8976 27.9406 34.9101 27.607 34.334 28.6579C33.5769 30.4428 32.5235 35.8974 30.5154 38.1994Z" fill="#A18300"/>
<path opacity="0.5" d="M35.0418 31.2934C35.1405 33.0283 35.947 33.0283 35.947 33.0283C36.7536 33.1283 37.379 31.3935 38.2843 30.3426C38.6793 29.9423 39.0085 29.3084 39.3541 29.3418C37.0498 27.2066 37.6259 28.7746 36.6877 28.0407C36.3914 28.0073 35.98 27.5236 35.766 27.5236C35.157 27.5236 34.8443 28.7246 34.7949 29.2917C34.7126 30.326 35.0089 30.8264 35.0418 31.2934Z" fill="#A18300"/>
<path d="M34.8113 30.9098C34.9759 32.3611 35.3216 32.2777 35.3216 32.2777C36.4243 32.4278 37.4284 30.9432 38.3336 29.8923C38.7286 29.4919 38.9591 29.2584 39.3047 29.2918L39.1566 29.1583L38.597 28.6412C37.8563 28.1742 36.6712 27.8072 36.3091 27.5236C36.0129 27.4902 36.1116 27.5069 35.8976 27.4902C35.2887 27.4902 34.9101 28.4077 34.8113 28.6079C34.4492 29.2584 34.762 30.4594 34.8113 30.9098Z" fill="#A18300"/>
<path opacity="0.5" d="M35.3874 29.4252C35.733 29.7088 37.0004 30.0591 38.1196 29.3251C38.383 29.1416 38.7945 29.1083 39.1401 29.1416L38.6792 28.7079C38.169 28.2242 37.3954 28.0574 36.951 27.7905C36.556 27.5403 36.3091 27.4735 36.2268 27.5069C35.4203 27.8572 34.9759 29.0749 35.3874 29.4252Z" fill="#A18300"/>
<path opacity="0.5" d="M43.4524 32.5612L39.4693 31.8439L43.4524 32.5612Z" fill="#A18300"/>
<path d="M65.261 16.6643C65.0634 15.6468 64.8165 14.2623 64.9811 12.2105V12.1438L64.9318 12.1772C63.7961 13.0112 62.8908 13.6451 61.6893 14.0955C60.7347 15.2131 59.171 16.1639 57.6403 17.0146C56.3894 18.566 54.3978 20.234 51.8796 21.8187C50.6945 23.3534 49.0815 24.6211 47.2381 26.089L47.1064 26.2058C47.0899 26.2225 47.0899 26.2392 47.1064 26.2559C47.1229 26.2725 47.1393 26.2725 47.1558 26.2559L47.2874 26.1391C49.1473 24.6712 50.7439 23.4034 51.9454 21.8688C54.4637 20.2841 56.4553 18.616 57.7062 17.0647C59.2369 16.2139 60.784 15.2798 61.7551 14.1455C62.9402 13.7118 63.829 13.0946 64.9482 12.2606C64.7836 14.279 65.047 15.6468 65.228 16.6476C65.4749 17.9488 65.6066 18.6494 64.6684 19.4667C63.3846 20.5843 63.7961 22.1023 64.2076 23.7037C64.5038 24.8547 64.833 26.039 64.5038 27.1066C64.2899 27.8239 63.9442 28.391 63.615 28.9415C62.9731 30.0091 62.3147 31.11 62.4958 33.3953C62.5123 33.3953 62.5123 33.3953 62.5287 33.3953C62.5452 33.3953 62.5452 33.3953 62.5616 33.3953C62.3806 31.1267 63.039 30.0257 63.6644 28.9748C63.9936 28.4244 64.3392 27.8572 64.5532 27.1399C64.8824 26.0557 64.5697 24.8547 64.2569 23.7037C63.8455 22.119 63.4504 20.6344 64.6849 19.5334C65.656 18.7161 65.5078 17.9488 65.261 16.6643Z" fill="white"/>
<path d="M62.5781 33.4453H62.5616H62.5452C62.5287 33.4453 62.5287 33.4453 62.5123 33.4453H62.4958H62.4793V33.4286C62.2983 31.1266 62.9567 30.0257 63.5986 28.9581C63.9278 28.4077 64.2734 27.8572 64.4874 27.1399C64.8001 26.0723 64.4874 24.888 64.1911 23.7537C63.7632 22.1356 63.3681 20.6177 64.652 19.5C65.5737 18.6994 65.442 17.9821 65.1951 16.6976C65.0141 15.6968 64.7507 14.3456 64.8989 12.3439C63.8455 13.1279 62.9237 13.7618 61.7551 14.1955C60.784 15.3298 59.2369 16.2639 57.7062 17.1147C56.4553 18.6827 54.4472 20.3341 51.9454 21.9188C50.7439 23.4534 49.1474 24.7212 47.3039 26.1891L47.1558 26.3059C47.1393 26.3225 47.1064 26.3225 47.0899 26.2892C47.0735 26.2725 47.0735 26.2725 47.0735 26.2558C47.0735 26.2391 47.0899 26.2225 47.0899 26.2225L47.2216 26.1057C49.0815 24.6378 50.6781 23.37 51.8631 21.8354C54.3814 20.234 56.3894 18.5826 57.6239 17.0313C59.171 16.1639 60.7182 15.2297 61.6728 14.1121H61.6893C62.9073 13.6617 63.7961 13.0278 64.9318 12.1938L65.0305 12.1271L65.0141 12.2438C64.8495 14.2956 65.0964 15.6801 65.2939 16.681C65.5408 17.9654 65.6889 18.7327 64.7178 19.5834C63.4834 20.6677 63.8784 22.1523 64.2899 23.737C64.6026 24.888 64.9153 26.089 64.5861 27.1899C64.3722 27.9239 64.0265 28.4911 63.6973 29.0415C63.0554 30.0924 62.4135 31.1767 62.5946 33.4453H62.5781ZM64.9482 12.2438V12.2939C64.7836 14.3123 65.047 15.6801 65.228 16.681C65.4749 17.9821 65.6066 18.6994 64.6684 19.5167C63.4011 20.6177 63.7961 22.1356 64.224 23.7203C64.5368 24.8713 64.8495 26.0556 64.5203 27.1399C64.3063 27.8572 63.9607 28.4243 63.6315 28.9748C62.9896 30.0257 62.3312 31.1266 62.5123 33.3953H62.5287C62.3477 31.1266 63.006 30.0424 63.648 28.9915C63.9771 28.441 64.3228 27.8739 64.5368 27.1566C64.8659 26.0723 64.5532 24.888 64.2405 23.7203C63.8125 22.1356 63.4175 20.6343 64.6849 19.5334C65.6395 18.6994 65.4914 17.932 65.261 16.6643C65.0634 15.6468 64.8166 14.2622 64.9812 12.2105V12.1938L64.9647 12.2105C63.829 13.0445 62.9402 13.6784 61.7222 14.1288C60.7676 15.2464 59.204 16.1972 57.6732 17.0479C56.4223 18.5993 54.4308 20.2674 51.9125 21.8521C50.711 23.3867 49.1144 24.6545 47.271 26.1224L47.1229 26.2391V26.2558H47.1393L47.2875 26.1391C49.1309 24.6711 50.7439 23.4034 51.929 21.8687C54.4472 20.284 56.4388 18.616 57.6897 17.0646C59.2204 16.2139 60.7676 15.2631 61.7387 14.1455C62.9402 13.6951 63.8619 13.0612 64.9318 12.2605L64.9482 12.2438Z" fill="white"/>
<path d="M46.9316 26.0005L46.5369 27.1859L46.8176 27.2819L47.2123 26.0965L46.9316 26.0005Z" fill="#3C3C3B"/>
<path d="M47.1064 26.2558C47.057 25.9722 46.8431 25.9055 46.6291 26.089C46.4151 26.2724 46.2999 26.6561 46.3493 26.923C46.3987 27.2066 46.6126 27.2733 46.8266 27.0898C47.0406 26.9063 47.1558 26.5227 47.1064 26.2558Z" fill="#534741"/>
<path d="M47.3862 26.3391C47.3368 26.0556 47.1229 25.9888 46.9089 26.1723C46.6949 26.3558 46.5797 26.7395 46.6291 27.0064C46.6785 27.29 46.8924 27.3567 47.1064 27.1732C47.3204 26.9897 47.452 26.6227 47.3862 26.3391Z" fill="white"/>
<path d="M47.4027 26.5393C47.3697 26.3725 47.2381 26.3225 47.1064 26.4392C46.9747 26.556 46.9089 26.7895 46.9418 26.9564C46.9747 27.1232 47.1064 27.1732 47.2381 27.0564C47.3697 26.9397 47.4356 26.7061 47.4027 26.5393Z" fill="#3C3C3B"/>
<path d="M47.426 26.0089L46.9366 27.4788L47.0614 27.5214L47.5508 26.0515L47.426 26.0089Z" fill="#706F6F"/>
<path d="M47.6496 26.3224C47.5837 25.9721 47.3204 25.8887 47.057 26.1223C46.7937 26.3558 46.6455 26.8229 46.7114 27.1732C46.7772 27.5235 47.0406 27.6069 47.3039 27.3733C47.5673 27.1231 47.7154 26.6561 47.6496 26.3224Z" fill="#534741"/>
<path d="M47.7812 26.3725C47.7154 26.0222 47.452 25.9388 47.1887 26.1723C46.9253 26.4059 46.7772 26.8729 46.843 27.2232C46.9089 27.5735 47.1722 27.6569 47.4356 27.4234C47.6989 27.1732 47.847 26.7061 47.7812 26.3725Z" fill="white"/>
<path d="M47.6496 26.4892C47.6002 26.239 47.4191 26.1723 47.2216 26.3391C47.0406 26.5059 46.9253 26.8395 46.9747 27.0731C47.0241 27.3233 47.2052 27.39 47.4027 27.2232C47.5837 27.0564 47.6989 26.7228 47.6496 26.4892Z" fill="#534741"/>
<path d="M47.3862 26.7228C47.3697 26.6728 47.3368 26.6561 47.3039 26.6895C47.271 26.7228 47.238 26.7896 47.2545 26.8396C47.271 26.8896 47.3039 26.9063 47.3368 26.873C47.3697 26.8396 47.4026 26.7729 47.3862 26.7228Z" fill="#1A1A1A"/>
<path d="M47.7154 26.2224L47.6495 26.4393L47.8306 26.506L47.8964 26.2891L47.7154 26.2224Z" fill="#534741"/>
<path d="M47.7483 26.2724C47.7318 26.2224 47.6989 26.2057 47.666 26.239C47.6331 26.2724 47.6002 26.3391 47.6166 26.3892C47.6331 26.4392 47.666 26.4559 47.6989 26.4225C47.7483 26.3892 47.7648 26.3224 47.7483 26.2724Z" fill="#534741"/>
<path d="M47.9293 26.3392C47.9129 26.2891 47.88 26.2724 47.847 26.3058C47.8141 26.3392 47.7812 26.4059 47.7977 26.4559C47.8141 26.506 47.847 26.5227 47.8799 26.4893C47.9129 26.4559 47.9293 26.3892 47.9293 26.3392Z" fill="#1A1A1A"/>
<path d="M42.2344 29.7754L46.8101 25.6719C46.843 25.6386 46.8924 25.6386 46.9418 25.6552C47.057 25.6886 47.1722 25.8387 47.2051 25.9555C47.2216 26.0222 47.2051 26.0723 47.1722 26.0889L42.5965 30.1925C42.5636 30.2258 42.5143 30.2258 42.4649 30.2091C42.3497 30.1758 42.2344 30.0256 42.2015 29.9089C42.1851 29.8422 42.2015 29.7921 42.2344 29.7754Z" fill="#534741"/>
<path d="M64.9812 12.2772C63.2365 13.0612 61.6399 14.1454 60.0763 15.263C58.5127 16.3974 57.0149 17.5817 55.5171 18.7994C52.538 21.2348 49.6411 23.7703 46.7443 26.3225C46.662 26.3892 46.5468 26.3892 46.481 26.3058C46.4151 26.2224 46.4151 26.1056 46.4974 26.0389C49.4107 23.5201 52.3405 21.018 55.3525 18.6159C56.8668 17.4149 58.381 16.2472 59.9611 15.1296C61.5412 14.0287 63.1542 12.9611 64.9153 12.1771C64.9482 12.1604 64.9812 12.1771 64.9976 12.2104C65.0305 12.2271 65.0141 12.2605 64.9812 12.2772Z" fill="#534741"/>
<path d="M45.8555 27.24L45.7238 26.9231L45.3782 26.6895C45.2465 26.5895 45.0984 26.7062 45.2465 26.8563L45.4276 27.0732L45.2136 27.4735C45.0984 27.6737 45.0325 27.8906 45.0161 28.1074L44.9832 28.5078C45.3453 28.758 45.7567 28.1408 46.1188 27.6904L46.267 26.8897L46.1024 27.0398L45.8555 27.24Z" fill="#FFAE80"/>
<path d="M38.9261 32.6112C39.0084 32.6612 39.0907 32.6779 39.1895 32.6946C39.4693 32.7113 39.7655 32.7113 40.0618 32.728C41.0823 32.7446 42.1192 32.7446 43.0245 32.6279C43.6006 32.5445 44.1272 32.4277 44.5387 32.2109C45.1806 30.793 45.7073 29.4251 45.7073 28.2575C45.4934 28.0406 45.2465 27.9906 44.8021 28.1908L43.436 30.2258C42.3003 29.9589 41.2469 30.0924 40.1112 29.6086C38.4488 29.4085 37.9386 32.0607 38.9261 32.6112Z" fill="#A18300"/>
<path opacity="0.5" d="M39.1566 37.065C39.0249 36.5813 39.5681 34.5295 40.0783 32.728C41.0988 32.7446 42.1357 32.7446 43.041 32.6279L43.0903 32.5778C40.7696 32.4777 39.9795 32.4777 39.1566 31.8439C39.3706 33.145 39.3376 35.3635 37.593 37.3486C38.169 37.015 38.7122 36.8315 39.1566 37.065Z" fill="#A18300"/>
<path opacity="0.5" d="M50.4147 56.882H49.1803L48.6865 56.3816L48.1763 54.4299L50.4147 56.882Z" fill="#E3CBAE"/>
<path opacity="0.5" d="M18.3356 36.9816L15.1425 37.1985L14.6652 36.9483L14.0727 35.6305L18.3356 36.9816Z" fill="#E3CBAE"/>
<path opacity="0.5" d="M62.611 34.0625L62.5287 33.7789C62.5452 33.7789 62.5781 33.7789 62.5946 33.7622C62.5946 33.7789 62.6275 34.0458 62.611 34.0625Z" fill="#534741"/>
<path opacity="0.5" d="M62.6275 33.4952C62.6275 33.5786 62.6275 33.6454 62.611 33.7288C62.611 33.7455 62.611 33.7455 62.5945 33.7621C62.5781 33.7788 62.5452 33.7788 62.5287 33.7788C62.5122 33.7788 62.5122 33.7621 62.4958 33.7455C62.4629 33.6787 62.43 33.612 62.397 33.5286C62.4464 33.5953 62.5945 33.562 62.6275 33.4952Z" fill="#E6E6E6"/>
<path d="M62.6275 33.4953C62.5946 33.562 62.43 33.5954 62.3971 33.5286C62.3642 33.4286 62.3148 33.3118 62.2819 33.195L62.611 33.1283C62.6275 33.2451 62.6275 33.3785 62.6275 33.4953Z" fill="white"/>
<path d="M62.3148 33.1116C62.2654 33.1616 62.2654 33.2284 62.3477 33.245C62.4135 33.2784 62.5287 33.245 62.5781 33.195C62.6275 33.145 62.6275 33.0782 62.5452 33.0616C62.4794 33.0449 62.3806 33.0616 62.3148 33.1116Z" fill="#E6E6E6"/>
<path d="M62.4135 32.9949C62.5123 32.9782 62.5946 33.0449 62.611 33.1283C62.611 33.145 62.611 33.1784 62.5781 33.2117C62.5123 33.2618 62.4135 33.2785 62.3477 33.2618C62.3148 33.2451 62.2983 33.2284 62.2818 33.1951C62.2654 33.095 62.3312 33.0116 62.4135 32.9949Z" fill="#EA1F3D"/>
<path d="M62.4464 32.9949L62.3806 32.7113C62.3806 32.7113 62.3806 32.7113 62.3641 32.7113C62.3477 32.7113 62.3971 33.0116 62.3971 33.0116C62.3971 33.0282 62.4135 33.0282 62.43 33.0282C62.4464 33.0282 62.4464 33.0116 62.4464 32.9949Z" fill="#534741"/>
<path opacity="0.5" d="M53.2621 30.4094L46.9089 32.311L46.843 33.0116L47.2216 33.2451L47.238 32.5111L53.4761 30.5261L53.5749 29.3751L54.4801 29.2083L54.3814 29.1416L53.4103 29.275L53.2621 30.4094Z" fill="#998675"/>
<path d="M26.0386 42.1361V42.5531L25.3473 42.1528L25.7094 41.9359C25.8904 41.8192 26.0386 41.9026 26.0386 42.1361Z" fill="#616033"/>
<path d="M25.9688 41.9133L25.722 42.3467L26.4775 42.7886L26.7244 42.3552L25.9688 41.9133Z" fill="#4D3D1A"/>
<path d="M23.8001 38.9C23.7836 38.9 23.7672 38.9167 23.7507 38.9333L21.0185 40.5347C20.9856 40.5514 20.9362 40.5848 20.9033 40.6181C20.5905 40.8683 20.3601 41.3187 20.3601 41.6857V41.9526V42.036V42.7032V48.3414C20.3601 48.5582 20.4424 48.725 20.5741 48.7751C20.6893 48.8251 20.8539 48.8251 21.0185 48.725L21.9896 48.1579L23.01 47.5574L23.7507 47.1237C24.1128 46.9068 24.4091 46.3897 24.4091 45.9727V44.9718V44.0544V43.7875V42.2195V41.5522V41.4688V41.2019V40.4513V39.3003C24.4091 39.2836 24.4091 39.267 24.4091 39.2503C24.3926 39.0835 24.3432 38.9667 24.2445 38.9C24.1293 38.8333 23.9811 38.8166 23.8001 38.9Z" fill="#9E927D"/>
<path d="M24.2445 38.9L20.5741 48.7751L22.2036 49.7259L25.874 39.8508L24.2445 38.9Z" fill="#9E927D"/>
<path d="M25.3966 48.0745C25.7588 47.8577 26.055 47.3406 26.055 46.9236V40.2679C26.055 39.8508 25.7588 39.6674 25.3966 39.8842L22.6644 41.4856C22.3023 41.7024 22.006 42.2195 22.006 42.6366V49.2922C22.006 49.7093 22.3023 49.8928 22.6644 49.6759L25.3966 48.0745Z" fill="#CBBBA0"/>
<path d="M24.3597 47.7743C24.5901 47.6408 24.7711 47.3072 24.7711 47.0403V46.5732L23.2569 47.4573V47.9244C23.2569 48.1913 23.4379 48.3081 23.6684 48.1746L24.3597 47.7743Z" fill="#6B5524"/>
<path d="M25.1662 43.604V44.5215L22.8784 45.8726V44.9552L25.1662 43.604Z" fill="#40372E"/>
<path d="M25.446 39.8676L25.4789 43.4206L22.5656 45.122L22.5327 41.569L25.446 39.8676Z" fill="#6B5524"/>
<path d="M26.055 40.6014V41.2687L21.9896 43.6374V42.9701L26.055 40.6014Z" fill="#4D3D1A"/>
<path d="M26.055 40.2678V40.5347L21.9896 42.9034V42.6365L26.055 40.2678Z" fill="#4D3D1A"/>
<path d="M24.5901 45.3555L24.9687 45.1387V41.9026L24.5901 42.1194V45.3555Z" fill="#EBD8B9"/>
<path d="M24.5901 44.0544L24.7877 44.2212L24.9687 43.8376V41.9026L24.5901 42.1194V44.0544Z" fill="#40372E"/>
<path d="M25.0675 42.6866L24.9687 42.7534L24.7547 42.8868L24.5901 42.9869L24.4914 43.0536V43.6208V43.6708L24.5901 43.6041L24.9852 43.3706L25.0839 43.3038V42.6866H25.0675ZM24.9687 42.8535V43.2705L24.5737 43.504V43.3539V43.1037L24.6889 43.0369L24.9687 42.8535Z" fill="#EDEDED"/>
<path d="M23.4544 46.0228L23.0759 46.2397V43.0036L23.4544 42.7867V46.0228Z" fill="#EBD8B9"/>
<path d="M23.4544 44.7217L23.2569 45.1221L23.0759 44.9386V43.0036L23.4544 42.7867V44.7217Z" fill="#40372E"/>
<path d="M23.5532 43.5708L23.4544 43.6375L23.0594 43.8711L22.9606 43.9378V44.5717L23.0594 44.5049L23.4544 44.2714L23.5532 44.2047V43.5708ZM23.4544 43.7376V44.1546L23.0594 44.3882V43.9711C23.0758 43.9545 23.4544 43.7376 23.4544 43.7376Z" fill="#EDEDED"/>
<path d="M24.0305 48.5917L24.1622 48.3748V47.4407L23.8989 47.5908V48.5249L24.0305 48.5917Z" fill="#918F4B"/>
<path d="M24.228 47.7075L24.1622 47.7409L23.8988 47.891L23.833 47.9244V48.0578V48.3247L23.8988 48.2914L24.1622 48.1412L24.228 48.1079V47.841V47.7075ZM24.1622 47.8243V47.891V48.0912L23.8988 48.2413V48.0411V47.9744L24.1622 47.8243Z" fill="#918F4B"/>
<path d="M24.1622 48.8086V47.4574L23.8989 47.6075V48.9587L24.1622 48.8086Z" fill="#AD893A"/>
<path d="M24.0305 48.5917L24.1622 48.3748V47.4407L23.8989 47.5908V48.5249L24.0305 48.5917Z" fill="#40372E"/>
<path d="M24.228 47.7075L24.1622 47.7409L23.8988 47.891L23.833 47.9244V48.0578V48.3247L23.8988 48.2914L24.1622 48.1412L24.228 48.1079V47.841V47.7075ZM24.1622 47.8243V47.891V48.0912L23.8988 48.2413V48.0411V47.9744L24.1622 47.8243Z" fill="#EDEDED"/>
<path d="M21.9896 42.9701L20.3601 42.036V42.7032L21.9896 43.6374V42.9701Z" fill="#4D3D1A"/>
<path d="M21.9896 42.6365L20.3601 41.6857V41.9526L21.9896 42.9034V42.6365Z" fill="#4D3D1A"/>
<path d="M26.6311 42.3029L25.3638 47.2738L25.8575 47.5573L27.1249 42.5864L26.6311 42.3029Z" fill="#4D3D1A"/>
<path d="M25.2485 43.3872V47.0403C25.2485 47.2571 25.3967 47.3405 25.5942 47.2405L26.3842 46.7734C26.5653 46.6566 26.7299 46.3897 26.7299 46.1729V42.5198C26.7299 42.3029 26.5817 42.2028 26.3842 42.3196L25.5942 42.7866C25.3967 42.8867 25.2485 43.1536 25.2485 43.3872Z" fill="#4D3D1A"/>
<path d="M27.2236 42.82V46.4731C27.2236 46.6899 27.0755 46.9568 26.878 47.0736L26.088 47.5407C25.9069 47.6574 25.7423 47.5573 25.7423 47.3405V43.6874C25.7423 43.4705 25.8904 43.2036 26.088 43.0868L26.878 42.6198C27.0755 42.5197 27.2236 42.6031 27.2236 42.82Z" fill="#6B5524"/>
<path d="M26.5982 46.0895L26.2855 46.2729V44.0711L26.5982 43.8876V46.0895Z" fill="#AD893A"/>
<path d="M26.5982 45.4055L26.4336 45.7225L26.2855 45.589V44.0711L26.5982 43.8876V45.4055Z" fill="#40372E"/>
<path d="M26.664 44.5048V44.9885L26.1867 45.2721V44.7883L26.664 44.5048ZM26.5982 44.6215L26.2855 44.805V45.122L26.5982 44.9385V44.6215Z" fill="#EDEDED"/>
<path d="M27.2237 43.4705V43.7374L25.7588 44.6048V44.3212L27.2237 43.4705Z" fill="#AD893A"/>
<path d="M27.2237 45.6057V45.8726L25.7588 46.7233V46.4564L27.2237 45.6057Z" fill="#AD893A"/>
<path d="M22.5657 47.424V46.6567C22.5657 46.5733 22.6315 46.4565 22.6973 46.4231L25.1662 44.9886C25.2485 44.9386 25.2979 44.9886 25.2979 45.072V45.8393C25.2979 45.9227 25.2321 46.0395 25.1662 46.0729L22.6973 47.5074C22.6315 47.5408 22.5657 47.5074 22.5657 47.424Z" fill="#40372E"/>
<path d="M25.265 44.9552L22.5986 47.5074L22.9442 47.7076L25.6106 45.1554L25.265 44.9552Z" fill="#40372E"/>
<path d="M22.9113 47.6242V46.8569C22.9113 46.7735 22.9772 46.6567 23.043 46.6233L25.5119 45.1888C25.5942 45.1387 25.6436 45.1888 25.6436 45.2722V46.0395C25.6436 46.1229 25.5777 46.2397 25.5119 46.273L23.043 47.7076C22.9772 47.741 22.9113 47.7076 22.9113 47.6242Z" fill="#4D3D1A"/>
<path d="M22.0389 44.9051V48.1245C22.0389 48.3413 21.8908 48.6082 21.6933 48.725L20.9033 49.1921C20.7222 49.3088 20.5576 49.2087 20.5576 48.9919V45.3388C20.5576 45.1219 20.7058 44.855 20.9033 44.7383L21.3147 44.488L22.0389 44.9051Z" fill="#4D3D1A"/>
<path d="M21.2489 45.7224V49.3755C21.2489 49.5923 21.397 49.6757 21.5945 49.5757L22.3846 49.1086C22.5656 48.9918 22.7302 48.7249 22.7302 48.5081V44.855C22.7302 44.6381 22.5821 44.538 22.3846 44.6548L21.5945 45.1219C21.397 45.2386 21.2489 45.5055 21.2489 45.7224Z" fill="#4D3D1A"/>
<path d="M22.615 44.6549L20.6729 49.2255L21.8579 49.9094L23.1253 44.9385L22.615 44.6549Z" fill="#4D3D1A"/>
<path d="M21.7592 46.0227V49.6758C21.7592 49.8926 21.9073 49.976 22.1048 49.876L22.8948 49.4089C23.0759 49.2921 23.2405 49.0252 23.2405 48.8084V45.1553C23.2405 44.9384 23.0924 44.8383 22.8948 44.9551L22.1048 45.4221C21.9073 45.5389 21.7592 45.8058 21.7592 46.0227Z" fill="#6B5524"/>
<path d="M22.3846 48.5415L22.6973 48.358V46.1561L22.3846 46.3396V48.5415Z" fill="#AD893A"/>
<path d="M22.3846 47.8576L22.5492 47.991L22.6973 47.6741V46.1561L22.3846 46.3396V47.8576Z" fill="#40372E"/>
<path d="M22.7796 46.7733V47.2571L22.3023 47.5406V47.0569L22.7796 46.7733ZM22.3846 47.4072L22.6973 47.2237V46.9068L22.3846 47.0903V47.4072Z" fill="#EDEDED"/>
<path d="M21.7592 46.6732V46.9401L23.224 46.0894V45.8058L21.7592 46.6732Z" fill="#AD893A"/>
<path d="M21.7592 48.8083V49.0752L23.224 48.2245V47.9409L21.7592 48.8083Z" fill="#AD893A"/>
<path d="M24.442 46.6066C24.6889 46.4564 24.9029 46.2229 24.9029 46.1061C24.9029 45.9894 24.7053 45.9894 24.442 46.1395C24.1951 46.2896 23.9811 46.5232 23.9811 46.6399C23.9811 46.7567 24.1787 46.7567 24.442 46.6066Z" fill="#EDEDED"/>
<path d="M25.446 39.8674L23.8166 38.9166C23.8001 38.9166 23.7836 38.9333 23.7672 38.95L21.035 40.5514C21.002 40.568 20.9527 40.6014 20.9197 40.6348L22.5492 41.5856L22.6315 41.5355L23.4709 41.0518L24.4256 40.4846L25.446 39.8674Z" fill="#BF9C00"/>
<path d="M23.6519 39.0334L23.5038 38.95L23.3886 39.0334L22.22 39.6672L22.0554 39.8674L21.8743 40.0509L22.006 40.1343L22.22 39.9842C22.5327 39.6172 22.8948 39.367 23.224 39.3003L23.6519 39.0334Z" fill="#40372E"/>
<path d="M23.4709 38.9333C22.9936 38.9 22.4175 39.2336 21.9566 39.8174C21.8908 39.9008 21.8579 40.0176 21.8908 40.0509C21.9237 40.0843 21.9895 40.0509 22.0554 39.9675C22.4669 39.4504 22.9606 39.1668 23.3721 39.2002C23.438 39.2002 23.5038 39.1669 23.5367 39.0834C23.5696 39.0167 23.5367 38.95 23.4709 38.9333Z" fill="#40372E"/>
<path d="M23.6519 39.0334C23.6355 39.0334 23.619 39.0167 23.619 39.0167C23.5532 39.0167 23.4709 39.0167 23.405 39.0334C22.9771 39.1001 22.4998 39.4171 22.1048 39.9175C22.0389 40.0009 22.006 40.1177 22.0389 40.1343C22.0718 40.1677 22.1377 40.1343 22.2035 40.0509C22.22 40.0343 22.2364 40.0009 22.2529 39.9842C22.5656 39.6172 22.9277 39.367 23.2569 39.3003C23.3392 39.2836 23.438 39.2836 23.5202 39.2836C23.5861 39.2836 23.6519 39.2503 23.6848 39.1669C23.7178 39.1168 23.7013 39.0668 23.6519 39.0334Z" fill="#5C4F42"/>
<path opacity="0.5" d="M17.99 49.1921C19.6194 48.2412 22.5492 48.7584 23.9976 48.5915C25.6929 48.4081 24.8206 50.8602 23.7672 51.9611C22.7467 53.0287 19.8169 52.9619 18.3521 52.0945C16.8707 51.2438 16.7061 49.9427 17.99 49.1921Z" fill="#CCCCCC"/>
<path d="M21.1501 52.8953C20.1626 52.8953 19.1092 52.645 18.2862 52.178C17.4797 51.7109 17.0189 51.077 17.0189 50.4598C17.0189 49.9427 17.348 49.459 17.9241 49.1254C19.2244 48.3747 21.4958 48.4581 22.9771 49.3422C23.7836 49.8093 24.2445 50.4432 24.2445 51.0604C24.2445 51.5775 23.9153 52.0612 23.3392 52.3948C22.7631 52.7284 21.9731 52.8953 21.1501 52.8953ZM18.0393 49.2755C17.5126 49.5758 17.2328 50.0095 17.2328 50.4598C17.2328 51.027 17.6608 51.5941 18.4014 52.0278C19.8499 52.8786 22.0389 52.962 23.2734 52.2447C23.8001 51.9444 24.0799 51.5107 24.0799 51.0604C24.0799 50.4932 23.6519 49.9261 22.9113 49.4923C21.4629 48.6416 19.2738 48.5415 18.0393 49.2755Z" fill="#534741"/>
<path d="M22.8948 49.3088L39.1236 39.5672C39.2717 39.4838 39.4693 39.5338 39.5515 39.6839C39.6338 39.8341 39.5845 40.0342 39.4363 40.1176L22.9935 49.4923C22.9442 49.5257 22.8783 49.509 22.8454 49.4423C22.8289 49.4089 22.8454 49.3422 22.8948 49.3088Z" fill="#38302C"/>
<path d="M17.9076 53.4123C17.8912 53.4123 17.8912 53.4123 17.8912 53.3956C17.8912 53.3789 17.8912 53.3622 17.9076 53.3622C19.2408 52.8118 20.6728 52.0278 22.1541 51.0102C24.0305 50.1261 25.446 49.3088 26.5981 48.4581C28.3757 47.6407 30.1533 46.7566 31.1244 45.8391L35.7165 43.754C35.733 43.754 35.7495 43.754 35.7495 43.7707C35.7495 43.7874 35.7495 43.8041 35.733 43.8041L31.1573 45.8725C30.1862 46.79 28.4086 47.674 26.6146 48.4914C25.4624 49.3588 24.0634 50.1595 22.1706 51.0436C20.6892 52.0611 19.2573 52.8618 17.9076 53.4123C17.9241 53.4123 17.9241 53.4123 17.9076 53.4123Z" fill="white"/>
<path d="M17.8747 53.3122L40.2099 40.0676C40.3251 40.0009 40.4733 40.0342 40.5391 40.151C40.605 40.2677 40.572 40.4179 40.4568 40.4846L17.9735 53.4624C17.9406 53.479 17.8912 53.479 17.8583 53.429C17.8254 53.379 17.8254 53.3289 17.8747 53.3122Z" fill="#7A6960"/>
<path d="M36.2987 42.6635L35.3635 43.7402L35.6229 43.9717L36.5581 42.8949L36.2987 42.6635Z" fill="#3C3C3B"/>
<path d="M35.733 43.7708C35.4368 43.8709 35.2393 43.7041 35.3051 43.3871C35.3709 43.0702 35.6672 42.7199 35.9635 42.6198C36.2597 42.5197 36.4573 42.6865 36.3914 43.0035C36.3256 43.3371 36.0293 43.6707 35.733 43.7708Z" fill="#534741"/>
<path d="M35.9799 44.0043C35.6837 44.1044 35.4862 43.9376 35.552 43.6206C35.6178 43.3037 35.9141 42.9534 36.2104 42.8533C36.5066 42.7532 36.7041 42.92 36.6383 43.237C36.5889 43.5539 36.2927 43.9042 35.9799 44.0043Z" fill="#E3CBAE"/>
<path d="M36.1774 43.9209C35.9964 43.9876 35.8647 43.8708 35.9141 43.6873C35.947 43.4872 36.1281 43.287 36.3256 43.2203C36.5066 43.1535 36.6383 43.2703 36.5889 43.4538C36.556 43.654 36.3749 43.8541 36.1774 43.9209Z" fill="#3C3C3B"/>
<path d="M36.8299 42.8953L35.6555 44.2476L35.779 44.3578L36.9535 43.0055L36.8299 42.8953Z" fill="#706F6F"/>
<path d="M36.1116 44.2879C35.733 44.4213 35.4862 44.2045 35.5685 43.8041C35.6507 43.4038 36.0129 42.9868 36.3914 42.8533C36.77 42.7199 37.0169 42.9367 36.9346 43.3371C36.8687 43.7374 36.4902 44.1711 36.1116 44.2879Z" fill="#534741"/>
<path d="M36.2268 44.4047C35.8483 44.5382 35.6014 44.3213 35.6837 43.921C35.766 43.5206 36.1281 43.1036 36.5066 42.9702C36.8852 42.8367 37.1321 43.0536 37.0498 43.4539C36.984 43.8376 36.6054 44.2713 36.2268 44.4047Z" fill="#E3CBAE"/>
<path d="M36.2762 44.1878C36.0128 44.2879 35.8318 44.1211 35.8976 43.8375C35.947 43.554 36.2103 43.2537 36.4902 43.1536C36.7535 43.0535 36.9346 43.2203 36.8687 43.5039C36.8029 43.8042 36.5395 44.1044 36.2762 44.1878Z" fill="#534741"/>
<path d="M36.3585 43.7875C36.3091 43.8042 36.2597 43.7708 36.2762 43.7208C36.2926 43.6708 36.342 43.604 36.3914 43.5873C36.4408 43.5707 36.4902 43.604 36.4737 43.6541C36.4572 43.7041 36.4079 43.7708 36.3585 43.7875Z" fill="#1A1A1A"/>
<path d="M36.0622 44.4214L36.2268 44.2212L36.3914 44.3546L36.2268 44.5548L36.0622 44.4214Z" fill="#534741"/>
<path d="M36.1116 44.4213C36.0622 44.438 36.0293 44.4046 36.0293 44.3546C36.0458 44.3045 36.0951 44.2378 36.1445 44.2211C36.1939 44.2045 36.2268 44.2378 36.2268 44.2879C36.2268 44.3379 36.1774 44.4046 36.1116 44.4213Z" fill="#534741"/>
<path d="M36.2762 44.5547C36.2268 44.5714 36.1939 44.5381 36.1939 44.488C36.2104 44.438 36.2597 44.3712 36.3091 44.3546C36.3585 44.3379 36.3914 44.3712 36.3914 44.4213C36.3914 44.4713 36.342 44.5381 36.2762 44.5547Z" fill="#1A1A1A"/>
</svg>
