<svg xmlns="http://www.w3.org/2000/svg" viewBox="0 0 522.46 203.49"><defs><style>.cls-1{opacity:0.5;}.cls-2{fill:#0f8ab5;}.cls-3{fill:#fff;}.cls-4{opacity:0.3;}</style></defs><title>water bubbles</title><g id="Layer_2" data-name="Layer 2"><g id="Layer_1-2" data-name="Layer 1"><g class="cls-1"><path class="cls-2" d="M155.66,88a7.25,7.25,0,1,1,7.19,7.31A7.24,7.24,0,0,1,155.66,88Z"/><path class="cls-3" d="M158,89.11h-.07a1.13,1.13,0,0,1-1-1.21,6.25,6.25,0,0,1,3.23-5.18,1.13,1.13,0,0,1,1.11,2,4,4,0,0,0-2.1,3.38A1.13,1.13,0,0,1,158,89.11Z"/><path class="cls-2" d="M162.5,169.19a7.25,7.25,0,1,1,7.19,7.3A7.26,7.26,0,0,1,162.5,169.19Z"/><path class="cls-3" d="M164.8,170.33h-.07a1.13,1.13,0,0,1-1-1.2,6.29,6.29,0,0,1,3.24-5.19,1.13,1.13,0,0,1,1.53.43,1.11,1.11,0,0,1-.43,1.53,4,4,0,0,0-2.09,3.38A1.12,1.12,0,0,1,164.8,170.33Z"/><path class="cls-2" d="M142.59,110.86a7.25,7.25,0,1,1,7.19,7.3A7.26,7.26,0,0,1,142.59,110.86Z"/><path class="cls-3" d="M144.88,112h-.07a1.12,1.12,0,0,1-1-1.2,6.27,6.27,0,0,1,3.23-5.18,1.13,1.13,0,0,1,1.54.42,1.14,1.14,0,0,1-.43,1.54A4,4,0,0,0,146,111,1.13,1.13,0,0,1,144.88,112Z"/><path class="cls-2" d="M164.6,142.74a8.75,8.75,0,1,1,8.68,8.82A8.75,8.75,0,0,1,164.6,142.74Z"/><path class="cls-3" d="M167.36,144.12h-.08a1.35,1.35,0,0,1-1.26-1.45,7.59,7.59,0,0,1,3.9-6.27,1.36,1.36,0,0,1,1.35,2.37,4.82,4.82,0,0,0-2.54,4.09A1.35,1.35,0,0,1,167.36,144.12Z"/><path class="cls-2" d="M165.55,72.05a5,5,0,1,1,4.95,5A5,5,0,0,1,165.55,72.05Z"/><path class="cls-3" d="M167.13,72.84h0a.77.77,0,0,1-.72-.83,4.35,4.35,0,0,1,2.23-3.58.76.76,0,0,1,1,.3.78.78,0,0,1-.29,1.06,2.75,2.75,0,0,0-1.45,2.33A.77.77,0,0,1,167.13,72.84Z"/><path class="cls-2" d="M164.52,198.45a5,5,0,1,1,4.95,5A5,5,0,0,1,164.52,198.45Z"/><path class="cls-3" d="M166.1,199.24h0a.77.77,0,0,1-.72-.83,4.32,4.32,0,0,1,2.23-3.57.75.75,0,0,1,1.05.29.78.78,0,0,1-.29,1.06,2.74,2.74,0,0,0-1.44,2.33A.78.78,0,0,1,166.1,199.24Z"/><path class="cls-2" d="M148.52,154a5,5,0,1,1,5,5A5,5,0,0,1,148.52,154Z"/><path class="cls-3" d="M150.1,154.79h0a.78.78,0,0,1-.72-.83,4.34,4.34,0,0,1,2.23-3.57.78.78,0,0,1,.77,1.35,2.76,2.76,0,0,0-1.45,2.33A.79.79,0,0,1,150.1,154.79Z"/><path class="cls-2" d="M152.21,57.68A4.87,4.87,0,1,1,157,62.59,4.87,4.87,0,0,1,152.21,57.68Z"/><path class="cls-3" d="M153.75,58.45h-.05a.76.76,0,0,1-.7-.81,4.23,4.23,0,0,1,2.17-3.48.76.76,0,0,1,1,.28.78.78,0,0,1-.29,1,2.68,2.68,0,0,0-1.41,2.27A.76.76,0,0,1,153.75,58.45Z"/><path class="cls-2" d="M150.65,179.89a4.87,4.87,0,1,1,4.83,4.91A4.85,4.85,0,0,1,150.65,179.89Z"/><path class="cls-3" d="M152.19,180.66h-.05a.76.76,0,0,1-.7-.81,4.22,4.22,0,0,1,2.18-3.48.75.75,0,0,1,1,.29.76.76,0,0,1-.29,1A2.68,2.68,0,0,0,153,180,.76.76,0,0,1,152.19,180.66Z"/><path class="cls-2" d="M155.18,125a4.87,4.87,0,1,1,4.83,4.91A4.87,4.87,0,0,1,155.18,125Z"/><path class="cls-3" d="M156.72,125.79h-.05a.75.75,0,0,1-.7-.81,4.21,4.21,0,0,1,2.17-3.48.75.75,0,0,1,1,.29.75.75,0,0,1-.28,1,2.66,2.66,0,0,0-1.41,2.27A.75.75,0,0,1,156.72,125.79Z"/><path class="cls-2" d="M167.43,38.63A3.39,3.39,0,1,1,170.79,42,3.38,3.38,0,0,1,167.43,38.63Z"/><path class="cls-3" d="M168.5,39.17h0a.53.53,0,0,1-.48-.57,2.93,2.93,0,0,1,1.51-2.42.53.53,0,0,1,.52.92,1.86,1.86,0,0,0-1,1.58A.53.53,0,0,1,168.5,39.17Z"/><path class="cls-2" d="M157.54,17.23a3.39,3.39,0,1,1,3.36,3.42A3.37,3.37,0,0,1,157.54,17.23Z"/><path class="cls-3" d="M158.61,17.77h0a.53.53,0,0,1-.49-.56,2.93,2.93,0,0,1,1.51-2.43.53.53,0,0,1,.52.92,1.86,1.86,0,0,0-1,1.58A.53.53,0,0,1,158.61,17.77Z"/></g><g class="cls-4"><path class="cls-2" d="M8.89,20.07a4.93,4.93,0,1,1,4.89,5A4.93,4.93,0,0,1,8.89,20.07Z"/><path class="cls-3" d="M10.45,20.85h0A.77.77,0,0,1,9.69,20a4.27,4.27,0,0,1,2.2-3.52.77.77,0,1,1,.76,1.33,2.7,2.7,0,0,0-1.43,2.3A.77.77,0,0,1,10.45,20.85Z"/><path class="cls-2" d="M13.55,75.34a4.93,4.93,0,1,1,4.89,5A4.93,4.93,0,0,1,13.55,75.34Z"/><path class="cls-3" d="M15.11,76.12h0a.77.77,0,0,1-.71-.82,4.28,4.28,0,0,1,2.2-3.53.76.76,0,0,1,1,.29.77.77,0,0,1-.29,1,2.71,2.71,0,0,0-1.42,2.3A.77.77,0,0,1,15.11,76.12Z"/><path class="cls-2" d="M0,35.65a4.93,4.93,0,1,1,4.89,5A4.93,4.93,0,0,1,0,35.65Z"/><path class="cls-3" d="M1.56,36.43H1.51a.77.77,0,0,1-.71-.82A4.3,4.3,0,0,1,3,32.08a.77.77,0,0,1,1,.29.79.79,0,0,1-.29,1.05,2.7,2.7,0,0,0-1.43,2.3A.77.77,0,0,1,1.56,36.43Z"/><path class="cls-2" d="M15,57.34a6,6,0,1,1,5.91,6A6,6,0,0,1,15,57.34Z"/><path class="cls-3" d="M16.86,58.28H16.8a.92.92,0,0,1-.86-1A5.15,5.15,0,0,1,18.6,53a.92.92,0,0,1,.91,1.61,3.26,3.26,0,0,0-1.72,2.78A.93.93,0,0,1,16.86,58.28Z"/><path class="cls-2" d="M15.62,9.24A3.4,3.4,0,1,1,19,12.67,3.4,3.4,0,0,1,15.62,9.24Z"/><path class="cls-3" d="M16.69,9.78h0a.53.53,0,0,1-.49-.56,3,3,0,0,1,1.52-2.44.53.53,0,0,1,.52.92,1.87,1.87,0,0,0-1,1.59A.53.53,0,0,1,16.69,9.78Z"/><path class="cls-2" d="M14.92,95.25a3.4,3.4,0,1,1,3.37,3.43A3.4,3.4,0,0,1,14.92,95.25Z"/><path class="cls-3" d="M16,95.79h0a.53.53,0,0,1-.49-.57A2.93,2.93,0,0,1,17,92.79a.53.53,0,1,1,.52.92,1.87,1.87,0,0,0-1,1.59A.53.53,0,0,1,16,95.79Z"/><path class="cls-2" d="M4,65a3.4,3.4,0,1,1,3.38,3.43A3.41,3.41,0,0,1,4,65Z"/><path class="cls-3" d="M5.11,65.54h0A.53.53,0,0,1,4.59,65,3,3,0,0,1,6.1,62.54a.53.53,0,0,1,.72.2.52.52,0,0,1-.2.72,1.88,1.88,0,0,0-1,1.59A.53.53,0,0,1,5.11,65.54Z"/><path class="cls-2" d="M5.48,82.63A3.32,3.32,0,1,1,8.77,86,3.32,3.32,0,0,1,5.48,82.63Z"/><path class="cls-3" d="M6.53,83.15h0A.52.52,0,0,1,6,82.6,2.87,2.87,0,0,1,7.5,80.23a.51.51,0,0,1,.51.89,1.84,1.84,0,0,0-1,1.55A.52.52,0,0,1,6.53,83.15Z"/><path class="cls-2" d="M8.56,45.29a3.32,3.32,0,1,1,3.29,3.34A3.32,3.32,0,0,1,8.56,45.29Z"/><path class="cls-3" d="M9.61,45.81h0a.52.52,0,0,1-.48-.55,2.87,2.87,0,0,1,1.48-2.37.51.51,0,0,1,.7.2.52.52,0,0,1-.19.7,1.81,1.81,0,0,0-1,1.54A.51.51,0,0,1,9.61,45.81Z"/></g><g class="cls-1"><path class="cls-2" d="M491.88,86.47a9.25,9.25,0,1,1,9.18,9.32A9.25,9.25,0,0,1,491.88,86.47Z"/><path class="cls-3" d="M494.81,87.93h-.09a1.44,1.44,0,0,1-1.34-1.54,8,8,0,0,1,4.13-6.61,1.44,1.44,0,0,1,1.42,2.5,5.1,5.1,0,0,0-2.68,4.31A1.43,1.43,0,0,1,494.81,87.93Z"/><path class="cls-2" d="M503.75,4.12a4.16,4.16,0,1,1,4.12,4.19A4.15,4.15,0,0,1,503.75,4.12Z"/><path class="cls-3" d="M505.06,4.78h0a.66.66,0,0,1-.6-.69,3.61,3.61,0,0,1,1.86-3,.65.65,0,0,1,.88.25.65.65,0,0,1-.25.88,2.3,2.3,0,0,0-1.2,1.94A.65.65,0,0,1,505.06,4.78Z"/><path class="cls-2" d="M505.07,51.52a8.7,8.7,0,1,1,8.63,8.77A8.7,8.7,0,0,1,505.07,51.52Z"/><path class="cls-3" d="M507.82,52.89h-.08a1.35,1.35,0,0,1-1.25-1.44,7.5,7.5,0,0,1,3.88-6.22,1.35,1.35,0,0,1,1.33,2.35,4.78,4.78,0,0,0-2.52,4.06A1.35,1.35,0,0,1,507.82,52.89Z"/><path class="cls-2" d="M494.45,123.83a6.38,6.38,0,1,1,6.32,6.43A6.38,6.38,0,0,1,494.45,123.83Z"/><path class="cls-3" d="M496.47,124.83h-.07a1,1,0,0,1-.91-1.06,5.49,5.49,0,0,1,2.84-4.56,1,1,0,0,1,1.35.37,1,1,0,0,1-.37,1.36,3.51,3.51,0,0,0-1.85,3A1,1,0,0,1,496.47,124.83Z"/><path class="cls-2" d="M474,67.08a6.38,6.38,0,1,1,6.33,6.43A6.38,6.38,0,0,1,474,67.08Z"/><path class="cls-3" d="M476.05,68.09H476a1,1,0,0,1-.92-1,5.55,5.55,0,0,1,2.85-4.57,1,1,0,0,1,1,1.73,3.5,3.5,0,0,0-1.84,3A1,1,0,0,1,476.05,68.09Z"/><path class="cls-2" d="M476.75,100.14a6.22,6.22,0,1,1,6.16,6.26A6.22,6.22,0,0,1,476.75,100.14Z"/><path class="cls-3" d="M478.72,101.12h-.06a1,1,0,0,1-.9-1,5.4,5.4,0,0,1,2.77-4.45,1,1,0,0,1,1,1.68,3.41,3.41,0,0,0-1.8,2.9A1,1,0,0,1,478.72,101.12Z"/><path class="cls-2" d="M482.53,30.1a6.21,6.21,0,1,1,6.16,6.26A6.21,6.21,0,0,1,482.53,30.1Z"/><path class="cls-3" d="M484.5,31.08h-.07a1,1,0,0,1-.89-1,5.37,5.37,0,0,1,2.77-4.44,1,1,0,0,1,1.32.36,1,1,0,0,1-.37,1.32,3.41,3.41,0,0,0-1.79,2.9A1,1,0,0,1,484.5,31.08Z"/></g></g></g></svg>