<svg width="1847" height="356" viewBox="0 0 1847 356" fill="none" xmlns="http://www.w3.org/2000/svg">
<g opacity="0.6">
<path opacity="0.7" d="M1788.22 267.03C1701.41 260.275 1637.27 256.947 1693.75 254.83C1750.22 252.712 1838.29 244.746 1779.93 243.435C1721.56 242.124 1653.96 248.074 1606.94 245.956C1559.91 243.839 1616.18 242.225 1556.34 241.318C1496.51 240.41 1464.49 240.511 1490.84 237.184C1517.19 233.856 1485.8 232.545 1466.59 232.142C1438.88 231.537 1425.97 232.142 1370.55 232.142C1315.12 232.142 1297.91 239.301 1324.88 242.225C1351.86 245.149 1358.37 246.864 1276.49 250.191C1194.62 253.519 1115.57 256.443 1157.56 260.275C1199.55 264.106 1201.02 263.199 1197.45 265.72C1193.88 268.24 1203.12 268.644 1223.8 268.24C1244.48 267.837 1283.63 271.265 1314.18 271.669C1344.72 272.072 1377.16 276.307 1357.63 278.425C1338.11 280.542 1294.65 285.483 1338.43 288.508C1382.2 291.533 1396.79 293.953 1436.68 295.566C1476.57 297.18 1573.14 291.836 1531.15 287.601C1489.16 283.365 1447.17 279.231 1507.74 276.71C1568.31 274.19 1575.34 272.475 1556.13 270.358C1536.92 268.24 1577.13 269.551 1606.73 270.358C1636.33 271.165 1687.13 274.996 1662.26 276.61C1637.38 278.223 1630.77 284.676 1652.91 286.693C1675.06 288.71 1642.42 292.945 1686.4 292.138C1730.38 291.331 1776.15 292.138 1812.36 288.81C1848.58 285.483 1875.14 273.786 1788.22 267.03ZM1389.86 264.913C1380.65 265.276 1371.43 264.428 1362.46 262.392C1343.88 260.779 1379.89 258.661 1385.24 258.863C1404.45 259.468 1415.16 264.913 1389.86 264.913ZM1416.52 268.543C1403.4 268.543 1412.64 265.82 1418.73 266.022C1437.1 266.627 1429.75 268.946 1416.1 268.543H1416.52ZM1702.77 279.231C1689.65 279.231 1699.63 273.887 1717.05 274.593C1737.73 275.4 1716 279.433 1702.77 279.231ZM1744.76 278.021C1737.94 278.021 1737.62 276.005 1742.98 276.105C1754.42 276.307 1752.01 277.719 1745.18 278.021H1744.76Z" fill="url(#paint0_linear_12_38290)"/>
<path opacity="0.3" d="M1302.42 32.4911C1239.44 29.2645 1214.25 31.1803 1161.97 28.8611C1109.7 26.542 1015.85 25.6345 973.76 25.6345C931.667 25.6345 976.909 18.6769 908.994 18.6769C841.079 18.6769 905.11 14.5427 919.491 13.1311C933.872 11.7194 1031.07 -2.09483 873.409 0.72852C795.312 2.03936 690.762 7.18188 740.728 10.8119C790.693 14.4419 828.167 15.4502 809.378 20.8953C790.588 26.3403 796.886 28.2561 826.593 29.1636C856.299 30.0711 884.326 32.7936 809.378 33.802C734.429 34.8103 778.517 27.5503 702.414 31.0795C626.311 34.6087 630.614 36.1212 639.432 38.8437C648.249 41.5662 654.233 43.9862 605.842 44.4904C557.451 44.9945 432.537 44.4904 438.835 48.1204C445.133 51.7504 422.46 51.3471 406.084 52.2546C389.709 53.1621 370.92 59.6154 430.227 61.0271C489.535 62.4388 548.108 55.8846 565.218 61.0271C582.328 66.1696 576.975 69.7996 619.908 68.388C665.685 66.1812 711.554 66.3495 757.313 68.8921C793.322 74.0072 829.941 73.701 865.852 67.9846C922.01 60.5229 968.932 49.9354 1026.67 48.5237C1084.4 47.112 1160.92 51.7504 1221.07 48.5237C1281.22 45.297 1365.61 35.617 1302.42 32.4911ZM756.578 49.1287C733.17 47.3137 730.756 41.7679 749.545 41.7679C768.335 41.7679 769.069 42.5745 802.03 43.5829C847.377 44.8937 780.196 50.8429 756.788 49.0279L756.578 49.1287Z" fill="url(#paint1_linear_12_38290)"/>
<path opacity="0.3" d="M554.302 290.222C513.679 287.701 444.504 289.214 363.467 287.701C282.43 286.189 240.233 290.726 211.576 283.265C182.919 275.803 170.218 278.727 149.119 276.307C128.02 273.887 137.257 272.778 144.92 270.257C152.583 267.736 129.7 265.316 81.9384 263.804C56.1788 263 30.5065 260.507 5.10057 256.342C-20.512 254.325 -8.75542 355.159 -8.75542 355.159C12.6848 355.508 34.1225 354.329 55.381 351.63C67.2426 351.63 150.798 349.21 133.898 345.177C116.998 341.143 133.059 339.732 146.6 339.227C160.141 338.723 175.256 342.252 192.996 343.16C210.736 344.067 304.474 333.077 283.375 325.716C262.276 318.355 298.491 320.271 317.07 320.271C335.65 320.271 434.426 316.237 413.328 312.305C392.229 308.372 403.985 307.263 442.824 305.347C481.663 303.431 487.541 300.306 515.463 300.81C543.385 301.314 594.82 292.743 554.302 290.222ZM55.381 332.572C44.8841 333.581 40.3704 330.657 52.022 329.648C63.6736 328.64 65.5631 331.665 55.381 332.572ZM79.839 292.239C68.0824 294.76 67.2426 293.247 41.9449 293.751C16.6472 294.256 -3.61191 290.222 3.94591 286.29C11.5037 282.357 36.9064 283.366 57.0606 282.761C92.5403 281.752 91.7005 289.718 79.839 292.239ZM138.097 305.246C124.661 307.162 120.147 300.003 133.059 299.701C154.997 299.196 151.638 303.23 138.097 305.246ZM191.317 318.153C164.34 316.137 198.98 312.103 212.311 313.212C257.133 316.641 218.294 320.17 191.317 318.153Z" fill="url(#paint2_linear_12_38290)"/>
</g>
<defs>
<linearGradient id="paint0_linear_12_38290" x1="1145.7" y1="263.4" x2="1846.58" y2="263.4" gradientUnits="userSpaceOnUse">
<stop stop-color="#F9FBF8"/>
<stop offset="0.81" stop-color="white"/>
</linearGradient>
<linearGradient id="paint1_linear_12_38290" x1="389.919" y1="36.3228" x2="1324.88" y2="36.3228" gradientUnits="userSpaceOnUse">
<stop stop-color="#F9FBF8"/>
<stop offset="0.81" stop-color="#B7D2EF"/>
</linearGradient>
<linearGradient id="paint2_linear_12_38290" x1="-11.4846" y1="305.65" x2="569.208" y2="305.65" gradientUnits="userSpaceOnUse">
<stop stop-color="#F9FBF8"/>
<stop offset="0.81" stop-color="#B7D2EF"/>
</linearGradient>
</defs>
</svg>
