<svg width="60" height="50" viewBox="0 0 60 50" fill="none" xmlns="http://www.w3.org/2000/svg">
<g clip-path="url(#clip0_1_59813)">
<path d="M13.8654 19.5839L15.8611 14.8223L18.359 15.1067L20.0906 20.7327L13.8654 19.5839Z" fill="#EBF2F6"/>
<path d="M42.7522 14.4049L33.7279 12.2963L23.1371 21.9601L36.6062 24.8986L38.6448 13.9721L42.7522 14.4049Z" fill="#EBF2F6"/>
<path d="M48.3754 28.5139C48.3754 28.5139 56.9123 31.4746 59.3337 34.4122C59.3337 34.4122 55.3928 34.9633 47.0896 32.9949C38.7864 31.0265 37.6023 30.9082 37.6023 30.9082L18.1861 28.1325L9.20103 23.7042C9.20103 23.7042 8.55564 22.7727 9.65024 21.9823L11.8326 21.8591L11.0942 21.4647C10.9779 21.1555 10.9622 20.8175 11.0494 20.5008C11.1367 20.1841 11.3224 19.9055 11.5788 19.7063L17.7236 19.4168C17.7236 19.4168 28.512 21.8382 31.9461 22.5769C35.3801 23.3157 42.3352 26.0318 42.3352 26.0318L48.3754 28.5139Z" fill="#DEE5E9"/>
<path d="M48.9091 28.8031C48.9091 28.8031 49.2709 29.6756 47.8227 29.9348C46.3745 30.194 40.1873 28.2363 38.2857 26.4517C38.2857 26.4517 38.6085 25.694 38.9745 25.5082C39.3406 25.3224 45.1915 25.4416 48.9091 28.8031Z" fill="#414E52"/>
<path d="M19.5431 40.4423L11.2446 37.9531L19.5385 26.3155C19.5385 26.3155 25.6787 25.1021 32.0371 29.282L16.7119 38.8304L19.5431 40.4423Z" fill="#EBF2F6"/>
<path d="M17.7952 19.6727L18.0422 9.45127L21.486 10.187L26.1733 21.768L17.7952 19.6727Z" fill="#D1D8DC"/>
<path d="M16.7867 26.2664L10.1531 24.1755L4.05249 28.1745L6.38734 29.6539L16.7867 26.2664Z" fill="#EBF2F6"/>
<path d="M38.3106 31.0303C40.5386 30.7761 46.2123 31.6594 46.2123 31.6594C51.0685 33.1966 59.3337 34.4123 59.3337 34.4123C59.3337 34.4123 55.3928 34.9633 47.0896 32.9949C41.7281 31.7156 39.3404 31.2181 38.3106 31.0303Z" fill="#D1D8DC"/>
<path d="M11.8326 21.8591L11.0942 21.4647C10.9779 21.1555 10.9622 20.8175 11.0494 20.5008C11.1367 20.1841 11.3223 19.9055 11.5788 19.7063L12.7595 19.6501C12.4545 19.925 12.2133 20.2654 12.0532 20.6471C11.893 21.0289 11.8177 21.4426 11.8326 21.8591Z" fill="#414E52"/>
<path d="M9.65024 21.9823L11.501 21.8771C11.501 21.8771 9.74001 22.1924 10.1531 24.1755L9.20103 23.7042C9.20103 23.7042 8.54254 22.7767 9.65024 21.9823Z" fill="#414E52"/>
<path d="M22.1224 26.1565L12.8596 22.7719L8.27171 21.2326L15.0099 24.4324L22.1224 26.1565Z" fill="#D1D8DC"/>
</g>
<defs>
<clipPath id="clip0_1_59813">
<rect width="51" height="36" fill="white" transform="matrix(-0.95575 0.294179 0.294179 0.95575 48.7422 0.00183105)"/>
</clipPath>
</defs>
</svg>
