<svg width="62" height="46" viewBox="0 0 62 46" fill="none" xmlns="http://www.w3.org/2000/svg">
<g clip-path="url(#clip0_1_7639)">
<path d="M49.287 11.9783L50.4061 11.3566L51.7552 12.1772C51.9726 12.2818 52.1591 12.4411 52.2964 12.6395C52.4338 12.8378 52.5172 13.0684 52.5386 13.3087V13.8994L49.287 11.9783Z" fill="#B1B54A"/>
<path d="M47.1794 13.1347C47.1794 13.7066 47.5773 13.9367 48.0684 13.6507C48.3295 13.4819 48.5468 13.2535 48.7024 12.9844C48.8581 12.7153 48.9476 12.4131 48.9637 12.1026C48.9637 11.5368 48.5658 11.3068 48.0684 11.5866C47.8092 11.7568 47.5937 11.9856 47.4392 12.2546C47.2848 12.5235 47.1958 12.825 47.1794 13.1347Z" fill="#6A7316"/>
<path d="M52.1904 16.0256C52.1904 16.5914 52.5945 16.8277 53.0857 16.5417C53.349 16.3693 53.5676 16.1368 53.7232 15.8633C53.8789 15.5898 53.9673 15.2831 53.981 14.9687C53.981 14.3967 53.5769 14.1667 53.0857 14.4527C52.8224 14.625 52.6039 14.8576 52.4482 15.1311C52.2925 15.4046 52.2042 15.7112 52.1904 16.0256Z" fill="#96B074"/>
<path d="M54.4286 16.6225C54.4286 16.8152 54.5654 16.8961 54.7332 16.7966C54.822 16.7402 54.896 16.6633 54.949 16.5725C55.002 16.4816 55.0325 16.3794 55.0379 16.2743C55.0379 16.0816 54.9011 16.0008 54.7332 16.1003C54.6445 16.1567 54.5705 16.2335 54.5175 16.3244C54.4645 16.4152 54.434 16.5175 54.4286 16.6225Z" fill="#96B074"/>
<path d="M48.659 11.5058C48.659 11.5058 52.352 13.6134 53.7385 14.4278C55.1249 15.2423 55.0379 16.293 55.0379 16.293L54.8265 16.722C54.2669 17.2318 53.1789 16.9955 52.4888 16.6287C51.7987 16.2619 47.5151 13.7253 47.5151 13.7253L48.659 11.5058Z" fill="#6A7316"/>
<path d="M47.4218 13.1036L46.3027 13.7253L47.7265 14.5024C48.3343 14.8123 49.0089 14.9682 49.6911 14.9563H50.7169L47.4218 13.1036Z" fill="#B1B54A"/>
<path d="M48.0623 11.7544V10.3369L49.5855 11.2384C50.2129 11.6446 50.7299 12.2 51.09 12.8549L51.6558 13.831L48.0623 11.7544Z" fill="#909438"/>
<path d="M54.9447 15.062C54.7061 14.9062 54.4436 14.7906 54.1675 14.72C54.0697 14.6904 53.9666 14.6828 53.8655 14.6979C53.7644 14.7129 53.668 14.7502 53.5831 14.8071C53.3221 14.9789 53.1051 15.2097 52.9496 15.4807C52.7941 15.7518 52.7045 16.0556 52.6878 16.3676C52.6756 16.4807 52.6946 16.595 52.7428 16.6981C52.7911 16.8011 52.8667 16.889 52.9614 16.952C53.1302 17.1213 53.2822 17.3066 53.4152 17.5053C53.8059 17.5458 54.1996 17.5458 54.5903 17.5053C54.5903 17.5053 55.5726 16.9831 55.585 16.9458C55.5975 16.9085 55.2928 15.3045 54.9447 15.062Z" fill="#A8A140"/>
<path d="M48.4664 14.403L49.0446 15.9448L49.3927 18.0338L53.6329 20.4834L52.7811 18.0089L50.3315 16.0878L49.3927 14.9501L48.4664 14.403Z" fill="#759150"/>
<path d="M47.9938 14.7014L48.4663 14.403L49.3927 14.9501L50.3315 16.0878L49.859 16.38L47.9938 14.7014Z" fill="#809E57"/>
<path d="M47.9938 14.7014L48.572 16.237L48.914 18.326L53.1541 20.7756L52.3086 18.3012L49.859 16.38L48.914 15.2423L47.9938 14.7014Z" fill="#909438"/>
<path d="M52.781 18.0089L50.3315 16.0878L49.8589 16.38L52.3085 18.3011L52.781 18.0089Z" fill="#9FA33E"/>
<path d="M53.1541 20.7756L53.6328 20.4834L52.781 18.0089L52.3085 18.3012L53.1541 20.7756Z" fill="#6A7316"/>
<path d="M46.0789 25.3266L43.7413 26.6819V23.6355L46.0789 22.2864V25.3266Z" fill="#6A7316"/>
<path d="M44.4501 23.7536C44.4446 23.8419 44.4187 23.9277 44.3745 24.0043C44.3303 24.0809 44.2689 24.1462 44.1952 24.195C44.0522 24.2759 43.9402 24.195 43.9402 24.0458C43.9447 23.9573 43.9702 23.8711 44.0145 23.7944C44.0588 23.7177 44.1207 23.6525 44.1952 23.6044C44.3319 23.5236 44.4501 23.592 44.4501 23.7536Z" fill="#334715"/>
<path d="M45.8489 22.9392C45.8444 23.0277 45.8189 23.1139 45.7746 23.1906C45.7303 23.2673 45.6684 23.3325 45.594 23.3806C45.4572 23.4614 45.3391 23.3806 45.3391 23.2376C45.3445 23.1493 45.3704 23.0635 45.4146 22.9869C45.4588 22.9103 45.5202 22.845 45.594 22.7962C45.737 22.7154 45.8489 22.7775 45.8489 22.9392Z" fill="#334715"/>
<path d="M45.1339 23.3557C45.1294 23.4442 45.104 23.5304 45.0596 23.6071C45.0153 23.6839 44.9534 23.749 44.879 23.7971C44.7422 23.878 44.6303 23.7971 44.6303 23.6479C44.6346 23.5601 44.6593 23.4744 44.7025 23.3978C44.7456 23.3212 44.8061 23.2557 44.879 23.2065C45.022 23.1257 45.1339 23.1941 45.1339 23.3557Z" fill="#334715"/>
<path d="M44.4501 24.7297C44.4446 24.818 44.4187 24.9038 44.3745 24.9804C44.3303 25.057 44.2689 25.1223 44.1952 25.1711C44.0522 25.252 43.9402 25.1711 43.9402 25.0219C43.9447 24.9334 43.9702 24.8472 44.0145 24.7705C44.0588 24.6938 44.1207 24.6286 44.1952 24.5805C44.3319 24.4997 44.4501 24.5681 44.4501 24.7297Z" fill="#334715"/>
<path d="M45.8489 23.9153C45.8454 24.004 45.8204 24.0906 45.776 24.1675C45.7315 24.2444 45.6691 24.3093 45.594 24.3567C45.4572 24.4375 45.3391 24.3567 45.3391 24.2137C45.3445 24.1254 45.3704 24.0396 45.4146 23.963C45.4588 23.8864 45.5202 23.8211 45.594 23.7723C45.737 23.6728 45.8489 23.7536 45.8489 23.9153Z" fill="#334715"/>
<path d="M45.1339 24.3318C45.1294 24.4203 45.104 24.5065 45.0596 24.5832C45.0153 24.66 44.9534 24.7251 44.879 24.7732C44.7422 24.8541 44.6303 24.7732 44.6303 24.624C44.6346 24.5362 44.6593 24.4505 44.7025 24.3739C44.7456 24.2973 44.8061 24.2318 44.879 24.1826C45.022 24.1018 45.1339 24.1702 45.1339 24.3318Z" fill="#334715"/>
<path d="M44.4501 25.7058C44.4446 25.7941 44.4187 25.8799 44.3745 25.9565C44.3303 26.0331 44.2689 26.0984 44.1952 26.1472C44.0522 26.228 43.9402 26.1472 43.9402 25.998C43.9447 25.9095 43.9702 25.8233 44.0145 25.7466C44.0588 25.6698 44.1207 25.6047 44.1952 25.5566C44.3319 25.4758 44.4501 25.5379 44.4501 25.7058Z" fill="#334715"/>
<path d="M45.8489 24.9162C45.8454 25.005 45.8204 25.0915 45.776 25.1684C45.7315 25.2453 45.6691 25.3103 45.594 25.3577C45.4572 25.4385 45.3391 25.3577 45.3391 25.2147C45.3445 25.1264 45.3704 25.0406 45.4146 24.964C45.4588 24.8874 45.5202 24.8221 45.594 24.7732C45.737 24.6675 45.8489 24.7297 45.8489 24.9162Z" fill="#334715"/>
<path d="M45.1339 25.3079C45.1294 25.3964 45.104 25.4826 45.0596 25.5593C45.0153 25.6361 44.9534 25.7012 44.879 25.7493C44.7422 25.8302 44.6303 25.7493 44.6303 25.6001C44.6346 25.5123 44.6593 25.4266 44.7025 25.35C44.7456 25.2734 44.8061 25.2079 44.879 25.1587C45.022 25.0779 45.1339 25.1463 45.1339 25.3079Z" fill="#334715"/>
<path d="M40.2099 21.9133L37.8723 23.2625V20.2223L40.2099 18.8731V21.9133Z" fill="#89A364"/>
<path d="M38.5499 20.3404C38.544 20.4277 38.5179 20.5124 38.4736 20.588C38.4294 20.6635 38.3683 20.7277 38.295 20.7756C38.152 20.8564 38.0401 20.7756 38.0401 20.6326C38.0446 20.5441 38.0701 20.4579 38.1144 20.3812C38.1587 20.3044 38.2206 20.2393 38.295 20.1912C38.4567 20.1104 38.5499 20.1725 38.5499 20.3404Z" fill="#445925"/>
<path d="M39.9798 19.5259C39.9744 19.6142 39.9485 19.7 39.9043 19.7766C39.8601 19.8532 39.7987 19.9185 39.7249 19.9674C39.5819 20.0482 39.47 19.9674 39.47 19.8181C39.4745 19.7305 39.5 19.6452 39.5443 19.5694C39.5887 19.4937 39.6507 19.4297 39.7249 19.3829C39.8617 19.3208 39.9798 19.3643 39.9798 19.5259Z" fill="#445925"/>
<path d="M39.2649 19.9425C39.2599 20.0309 39.2342 20.1169 39.19 20.1935C39.1457 20.2702 39.084 20.3354 39.01 20.3839C38.867 20.4647 38.7551 20.3839 38.7551 20.2409C38.7596 20.1524 38.785 20.0662 38.8293 19.9895C38.8736 19.9127 38.9356 19.8476 39.01 19.7995C39.1716 19.7124 39.2649 19.7746 39.2649 19.9425Z" fill="#445925"/>
<path d="M38.5499 21.3165C38.544 21.4038 38.5179 21.4885 38.4736 21.5641C38.4294 21.6396 38.3683 21.7038 38.295 21.7517C38.152 21.8387 38.0401 21.7517 38.0401 21.6087C38.0446 21.5202 38.0701 21.434 38.1144 21.3573C38.1587 21.2805 38.2206 21.2154 38.295 21.1673C38.4567 21.0864 38.5499 21.1486 38.5499 21.3165Z" fill="#445925"/>
<path d="M39.9798 20.502C39.9744 20.5903 39.9485 20.6761 39.9043 20.7527C39.8601 20.8293 39.7987 20.8946 39.7249 20.9435C39.5819 21.0243 39.47 20.9435 39.47 20.7942C39.4745 20.7066 39.5 20.6213 39.5443 20.5455C39.5887 20.4698 39.6507 20.4058 39.7249 20.359C39.8617 20.2782 39.9798 20.3404 39.9798 20.502Z" fill="#445925"/>
<path d="M39.2649 20.9186C39.2589 21.0059 39.2328 21.0907 39.1886 21.1662C39.1444 21.2417 39.0832 21.3059 39.01 21.3538C38.867 21.4408 38.7551 21.3538 38.7551 21.2108C38.7596 21.1223 38.785 21.0361 38.8293 20.9594C38.8736 20.8826 38.9356 20.8175 39.01 20.7694C39.1716 20.6886 39.2649 20.7507 39.2649 20.9186Z" fill="#445925"/>
<path d="M38.5499 22.2926C38.5435 22.3806 38.5173 22.4661 38.4731 22.5425C38.429 22.619 38.3681 22.6844 38.295 22.734C38.152 22.8148 38.0401 22.734 38.0401 22.5848C38.0446 22.4963 38.0701 22.4101 38.1144 22.3334C38.1587 22.2566 38.2206 22.1915 38.295 22.1434C38.4567 22.0625 38.5499 22.1309 38.5499 22.2926Z" fill="#445925"/>
<path d="M39.8994 21.7303C39.9989 21.5579 40.0001 21.3721 39.902 21.3155C39.8039 21.2588 39.6436 21.3527 39.544 21.5252C39.4444 21.6976 39.4433 21.8834 39.5414 21.94C39.6395 21.9967 39.7998 21.9028 39.8994 21.7303Z" fill="#445925"/>
<path d="M39.2649 21.8947C39.2585 21.9827 39.2322 22.0682 39.1881 22.1446C39.1439 22.2211 39.083 22.2866 39.01 22.3361C38.867 22.4169 38.7551 22.3361 38.7551 22.1869C38.7596 22.0984 38.785 22.0122 38.8293 21.9355C38.8736 21.8587 38.9356 21.7936 39.01 21.7455C39.1716 21.6646 39.2649 21.733 39.2649 21.8947Z" fill="#445925"/>
<path d="M37.8723 20.2223L43.7413 23.6355V26.6819L37.8723 23.2625V20.2223Z" fill="#9CBA72"/>
<path d="M40.2099 18.8731L46.0789 22.2864L43.7413 23.6355L37.8723 20.2223L40.2099 18.8731Z" fill="#C7CC65"/>
<path d="M43.4366 23.9837L38.0339 20.8751C38.008 20.8595 37.9865 20.8376 37.9713 20.8116C37.9561 20.7855 37.9477 20.756 37.9468 20.7258C37.9468 20.6699 37.9841 20.645 38.0339 20.6761L43.4366 23.7847C43.4632 23.8 43.4857 23.8216 43.5019 23.8476C43.5182 23.8736 43.5278 23.9033 43.5299 23.9339C43.5237 23.9899 43.4864 24.0147 43.4366 23.9837Z" fill="#BFDB95"/>
<path d="M43.4366 24.5183L38.0339 21.4098C38.0083 21.3924 37.9871 21.3693 37.972 21.3423C37.9569 21.3153 37.9483 21.2852 37.9468 21.2543C37.9468 21.1984 37.9841 21.1735 38.0339 21.2046L43.4366 24.3132C43.4632 24.3285 43.4857 24.3501 43.5019 24.3761C43.5182 24.4021 43.5278 24.4318 43.5299 24.4624C43.5303 24.4735 43.5277 24.4845 43.5224 24.4942C43.5171 24.504 43.5092 24.5121 43.4997 24.5178C43.4902 24.5235 43.4793 24.5266 43.4682 24.5267C43.4571 24.5268 43.4462 24.5239 43.4366 24.5183Z" fill="#BFDB95"/>
<path d="M43.4366 25.0468L38.0339 21.9382C38.0072 21.9221 37.9851 21.8992 37.9698 21.872C37.9546 21.8447 37.9466 21.814 37.9468 21.7828C37.9468 21.7268 37.9841 21.7082 38.0339 21.733L43.4366 24.8416C43.463 24.8587 43.4852 24.8815 43.5013 24.9085C43.5175 24.9354 43.5273 24.9657 43.5299 24.9971C43.5237 25.053 43.4864 25.0779 43.4366 25.0468Z" fill="#BFDB95"/>
<path d="M43.4367 25.5752L38.0339 22.4667C38.0028 22.4525 37.9763 22.4298 37.9576 22.4012C37.9389 22.3726 37.9287 22.3392 37.9282 22.305C37.9282 22.2491 37.9655 22.2242 38.0153 22.2553L43.418 25.3639C43.4506 25.3795 43.4779 25.4043 43.4967 25.4352C43.5155 25.4661 43.5248 25.5018 43.5237 25.5379C43.5237 25.5815 43.4864 25.6063 43.4367 25.5752Z" fill="#BFDB95"/>
<path d="M43.4366 26.1099L38.0339 23.0013C38.0083 22.984 37.9871 22.9609 37.972 22.9339C37.9569 22.9069 37.9483 22.8768 37.9468 22.8459C37.9468 22.79 37.9841 22.7713 38.0339 22.7962L43.4366 25.9048C43.463 25.9218 43.4852 25.9447 43.5013 25.9716C43.5175 25.9986 43.5273 26.0289 43.5299 26.0602C43.5237 26.1162 43.4864 26.1597 43.4366 26.1099Z" fill="#BFDB95"/>
<path d="M46.912 17.0826L47.5338 16.7344L48.2612 17.1758C48.3789 17.2348 48.4795 17.3228 48.5535 17.4317C48.6275 17.5405 48.6724 17.6665 48.684 17.7976V18.1209L46.912 17.0826Z" fill="#797D25"/>
<path d="M45.7743 17.7043C45.7743 18.0152 45.9857 18.1395 46.253 17.9841C46.3941 17.8936 46.5117 17.7709 46.596 17.626C46.6803 17.4812 46.729 17.3183 46.738 17.151C46.738 16.8463 46.5204 16.722 46.253 16.8712C46.1134 16.9627 45.9973 17.0858 45.9142 17.2306C45.831 17.3753 45.7831 17.5376 45.7743 17.7043Z" fill="#6A7316"/>
<path d="M51.8671 21.1859C51.8671 21.4968 52.0847 21.6211 52.3521 21.4657C52.4976 21.3745 52.6189 21.2493 52.7055 21.101C52.7921 20.9527 52.8415 20.7855 52.8494 20.6139C52.8494 20.3031 52.6381 20.1787 52.3707 20.3342C52.2244 20.4251 52.1022 20.55 52.0145 20.6983C51.9268 20.8466 51.8762 21.0139 51.8671 21.1859Z" fill="#96B074"/>
<path d="M53.0795 21.4906C53.0795 21.5963 53.1479 21.6398 53.2411 21.5838C53.2876 21.5526 53.3264 21.5112 53.3544 21.4627C53.3824 21.4142 53.399 21.3599 53.4028 21.3041C53.4028 21.1984 53.3282 21.1548 53.2411 21.2046C53.1934 21.236 53.1539 21.2784 53.1258 21.3281C53.0977 21.3778 53.0818 21.4335 53.0795 21.4906Z" fill="#6A7316"/>
<path d="M46.5701 16.8339C46.5701 16.8339 51.9542 19.8741 52.7065 20.3093C52.9052 20.3968 53.0757 20.538 53.1987 20.717C53.3216 20.896 53.3923 21.1058 53.4028 21.3227L53.2909 21.5527C52.9925 21.8263 52.4018 21.702 52.0474 21.503C51.6931 21.304 45.9608 18.04 45.9608 18.04L46.5701 16.8339Z" fill="#6A7316"/>
<path d="M45.9049 17.6794L45.2831 18.0276L46.0479 18.4504C46.3824 18.6213 46.7541 18.7067 47.1296 18.699H47.683L45.9049 17.6794Z" fill="#B1B54A"/>
<path d="M46.2468 16.9645V16.2122L47.0737 16.7095C47.4094 16.9301 47.6867 17.2288 47.8819 17.58L48.1865 18.1084L46.2468 16.9645Z" fill="#909438"/>
<path d="M53.2101 20.5642C53.0863 20.4779 52.9469 20.4167 52.7997 20.3839C52.7492 20.3658 52.6951 20.3603 52.642 20.3679C52.5889 20.3755 52.5385 20.3959 52.4951 20.4274C52.3556 20.5176 52.2395 20.6396 52.1563 20.7833C52.0731 20.927 52.0251 21.0884 52.0164 21.2543C52.0094 21.3149 52.0197 21.3763 52.0461 21.4313C52.0725 21.4863 52.1139 21.5327 52.1656 21.5652C52.2546 21.6538 52.3338 21.7517 52.4018 21.8574C52.6085 21.8787 52.8168 21.8787 53.0235 21.8574C53.0235 21.8574 53.5396 21.5776 53.5458 21.5652C53.552 21.5527 53.3966 20.6823 53.2101 20.5642Z" fill="#A8A140"/>
<path d="M44.1951 16.094L44.7733 17.6297L45.1215 19.7249L49.3616 22.1744L48.5161 19.7L46.0603 17.7727L45.1215 16.6412L44.1951 16.094Z" fill="#759150"/>
<path d="M43.7164 16.3862L44.1952 16.094L45.1215 16.6412L46.0603 17.7727L45.5878 18.0649L43.7164 16.3862Z" fill="#809E57"/>
<path d="M43.7164 16.3863L44.3008 17.9281L44.6428 20.0171L48.8829 22.4667L48.0374 19.9922L45.5878 18.0649L44.6428 16.9334L43.7164 16.3863Z" fill="#909438"/>
<path d="M48.5161 19.7L46.0603 17.7727L45.5878 18.0649L48.0373 19.9922L48.5161 19.7Z" fill="#9FA33E"/>
<path d="M48.8829 22.4667L49.3616 22.1745L48.5161 19.7L48.0374 19.9922L48.8829 22.4667Z" fill="#6A7316"/>
<path d="M43.2004 19.1094L43.8221 18.7612L44.5495 19.2089C44.6691 19.2652 44.7714 19.3527 44.8458 19.462C44.9201 19.5713 44.9638 19.6986 44.9723 19.8306V20.1476L43.2004 19.1094Z" fill="#797D25"/>
<path d="M42.0626 19.7373C42.0626 20.042 42.274 20.1663 42.5413 20.0109C42.6828 19.9208 42.8006 19.7982 42.885 19.6532C42.9694 19.5083 43.0178 19.3453 43.0263 19.1778C43.0263 18.8731 42.8087 18.7488 42.5413 18.9042C42.4007 18.9946 42.2838 19.1175 42.2005 19.2624C42.1172 19.4074 42.0699 19.5703 42.0626 19.7373Z" fill="#6A7316"/>
<path d="M48.1617 23.1941C48.1617 23.5049 48.3731 23.6293 48.6404 23.4738C48.7797 23.382 48.8955 23.2587 48.9786 23.1141C49.0617 22.9694 49.1099 22.8073 49.1191 22.6407C49.1191 22.3361 48.9015 22.2055 48.6342 22.361C48.4957 22.4532 48.3809 22.5766 48.2988 22.7213C48.2167 22.866 48.1698 23.0279 48.1617 23.1941Z" fill="#96B074"/>
<path d="M49.3679 23.5174C49.3679 23.6231 49.4362 23.6666 49.5295 23.6168C49.5772 23.5854 49.6167 23.543 49.6448 23.4933C49.6729 23.4436 49.6888 23.3879 49.6912 23.3309C49.6912 23.2252 49.6228 23.1816 49.5295 23.2376C49.4816 23.2673 49.4418 23.3084 49.4136 23.3572C49.3853 23.406 49.3697 23.461 49.3679 23.5174Z" fill="#6A7316"/>
<path d="M42.8584 18.8545C42.8584 18.8545 48.2425 21.8947 48.9948 22.3361C49.1935 22.422 49.3641 22.5619 49.4872 22.74C49.6103 22.918 49.681 23.1271 49.6911 23.3433L49.5792 23.5733C49.2808 23.8469 48.6902 23.7225 48.3358 23.5236C47.9814 23.3246 42.2491 20.0606 42.2491 20.0606L42.8584 18.8545Z" fill="#6A7316"/>
<path d="M42.1932 19.7062L41.5715 20.0544L42.3424 20.4772C42.6697 20.6429 43.0325 20.7262 43.3993 20.7196H43.9527L42.1932 19.7062Z" fill="#B1B54A"/>
<path d="M42.5352 18.9913V18.2265L43.362 18.7239C43.6915 18.9471 43.9606 19.2482 44.1454 19.6005L44.45 20.1228L42.5352 18.9913Z" fill="#909438"/>
<path d="M49.5046 22.5848C49.3833 22.5167 49.2537 22.4644 49.1191 22.4294C49.0676 22.4113 49.0125 22.4058 48.9584 22.4134C48.9043 22.4209 48.8528 22.4413 48.8083 22.4729C48.6688 22.5631 48.5527 22.685 48.4695 22.8288C48.3863 22.9725 48.3383 23.1339 48.3295 23.2998C48.3218 23.3605 48.3317 23.4221 48.3582 23.4773C48.3847 23.5324 48.4265 23.5787 48.4787 23.6106C48.565 23.7034 48.646 23.8009 48.7212 23.9028C48.9279 23.9246 49.1363 23.9246 49.3429 23.9028C49.3429 23.9028 49.859 23.6293 49.8714 23.6106C49.8838 23.592 49.6849 22.7154 49.5046 22.5848Z" fill="#A8A140"/>
<path d="M38.4628 25.5628L51.7987 14.5149L48.8455 12.8114L32.7803 22.2801L38.4628 25.5628Z" fill="#9FA33E"/>
<path d="M24.3809 12.0093L24.6483 11.3876C24.7229 11.2322 24.8845 11.1949 25.0648 11.2944L26.5134 12.0902C26.707 12.2125 26.8537 12.3965 26.93 12.6124L27.2781 13.5699C27.319 13.6791 27.3381 13.7953 27.3341 13.9118L27.1289 15.9759C27.0978 16.2246 26.9051 16.3179 26.6689 16.1811L25.4254 15.4723C25.2077 15.3281 25.054 15.1054 24.9964 14.8506L24.3747 12.3637C24.3396 12.2479 24.3418 12.1239 24.3809 12.0093Z" fill="#909438"/>
<path d="M15.0676 15.0247L24.4617 12.5502L26.8554 13.9305L18.9284 17.2567L15.0676 15.0247Z" fill="#9FA33E"/>
<path d="M6.28894 14.0672C6.28894 14.0672 8.02354 12.5254 16.2675 14.6206C24.5115 16.7158 32.7182 18.7674 32.7182 18.7674L41.9196 22.1869L47.7079 31.1334L48.1431 32.8121L47.8757 33.8255L37.1386 30.1449L6.28894 14.0672Z" fill="#B1B559"/>
<path d="M6.49409 14.0672H6.28892L4.82788 14.9501L20.8247 24.4437L28.5651 26.8374L32.7617 22.0936L6.49409 14.0672Z" fill="#B1B559"/>
<path d="M1.68817 11.4187L1.86847 0.0474854L4.03827 1.32823L6.48784 10.1753L11.3248 15.062C11.3248 15.062 7.67533 13.6258 5.72934 14.3719L1.68817 11.4187Z" fill="#7C8F61"/>
<path d="M0.625061 11.9285L0.792925 0.557297L2.97516 1.83804L5.42473 10.6851L10.2679 15.5905C10.2679 15.5905 6.61843 14.1543 4.67245 14.9003L0.625061 11.9285Z" fill="#909438"/>
<path d="M47.5586 33.2721L47.8757 33.8255L36.865 40.1359L33.1472 27.6021L41.9196 22.1869L47.3286 30.5304L47.5586 33.2721Z" fill="#626B11"/>
<path d="M59.6884 40.0178C58.8288 39.3642 57.9229 38.7741 56.9777 38.2521C56.9777 38.2521 56.8471 38.221 55.927 37.2573C54.9382 36.3644 53.88 35.5515 52.7624 34.8264L50.0268 30.4122L40.0793 23.3371L45.5753 34.1798L45.7743 35.8958L45.4696 36.6232L53.123 40.31L53.6328 40.9317L58.0905 42.7347C58.6026 42.396 59.0889 42.0199 59.5454 41.6094C59.7524 41.4032 59.8802 41.1306 59.9064 40.8396C59.9325 40.5485 59.8553 40.2576 59.6884 40.0178Z" fill="#B1B54A"/>
<path d="M48.5969 30.6858V32.638L50.3625 34.1115V32.7499C50.348 32.4673 50.2694 32.1916 50.1326 31.9439C49.9958 31.6961 49.8044 31.4828 49.573 31.3199L48.5969 30.6858Z" fill="#C4B076"/>
<path d="M50.9159 32.3769L50.8165 32.5572C50.7565 32.6833 50.7267 32.8216 50.7294 32.9613V34.0804C50.7346 34.2063 50.778 34.3278 50.8538 34.4285L51.2019 34.901L52.3334 35.2865C52.4143 35.2865 52.4702 35.2865 52.4702 35.1746V34.8637L50.9159 32.3769Z" fill="#C4B076"/>
<path d="M46.9805 29.691L48.2239 30.4184C48.2731 30.4488 48.3141 30.4907 48.3433 30.5406C48.3726 30.5904 48.3892 30.6467 48.3918 30.7044V31.4381C48.3918 31.5438 48.3171 31.5873 48.2239 31.5375L46.9805 30.8226C46.9333 30.7901 46.8938 30.7476 46.8648 30.6982C46.8358 30.6488 46.818 30.5936 46.8126 30.5366V29.7905C46.8064 29.6786 46.8872 29.6351 46.9805 29.691Z" fill="#C4B076"/>
<path d="M53.9997 45.0475C53.9997 45.0475 55.5104 44.861 58.0906 42.7223L59.1537 41.2239L56.2689 38.4075L52.7438 34.8264L47.0986 36.4989L48.7337 39.7256L53.9997 45.0475Z" fill="#B1B54A"/>
<path d="M55.5726 42.3244C54.7086 41.6784 53.7984 41.0966 52.8494 40.5835C52.4557 40.299 52.1004 39.9646 51.7925 39.5888C50.8055 38.6938 49.7471 37.8808 48.628 37.1579L45.8986 32.7437L36.1003 25.8239L41.4782 36.5051L41.6585 38.2272L41.3601 38.9546L49.0134 42.6414L49.5233 43.2632L53.981 45.0599C54.4923 44.7229 54.9766 44.3467 55.4296 43.9346C55.6414 43.7273 55.7722 43.4511 55.7985 43.1559C55.8247 42.8607 55.7446 42.5658 55.5726 42.3244Z" fill="#909438"/>
<path d="M44.4998 32.9986V34.9508L46.2779 36.4242V35.0627C46.2595 34.7772 46.1773 34.4994 46.0375 34.2498C45.8976 34.0002 45.7036 33.7851 45.4696 33.6203L44.4998 32.9986Z" fill="#574C21"/>
<path d="M46.8188 34.7207L46.7255 34.901C46.6593 35.0251 46.6271 35.1646 46.6323 35.3052V36.418C46.638 36.5468 46.6836 36.6707 46.7628 36.7724L47.1048 37.2449L48.2363 37.6242C48.3171 37.6553 48.3731 37.6242 48.3731 37.5123V37.2014L46.8188 34.7207Z" fill="#574C21"/>
<path d="M42.9019 32.0163L44.1454 32.7437C44.194 32.7761 44.2344 32.8194 44.2635 32.8701C44.2926 32.9208 44.3097 32.9775 44.3132 33.0359V33.7633C44.3132 33.8752 44.2386 33.9187 44.1454 33.8628L42.9019 33.154C42.8534 33.1229 42.813 33.0808 42.7838 33.0311C42.7547 32.9814 42.7376 32.9255 42.7341 32.868V32.122C42.7154 32.01 42.79 31.9603 42.9019 32.0163Z" fill="#574C21"/>
<path d="M36.8651 40.1359L49.5419 43.2507L49.1005 42.5606L41.5652 37.4252L37.1883 37.475L36.8651 40.1359Z" fill="#B1B54A"/>
<path d="M4.67865 14.8817C4.67865 14.8817 5.67962 14.403 13.3827 17.9903C21.0858 21.5776 26.5196 23.7661 26.5196 23.7661L33.1347 27.6145L37.1759 37.4874L37.3065 39.2158L36.865 40.1546L29.2552 35.8709L4.67865 14.8817Z" fill="#909438"/>
<path d="M37.7852 37.9164L41.5031 38.2272L45.0966 40.6209L44.4563 40.5898L41.2606 38.9049L38.3696 38.3827L37.7852 37.9164Z" fill="#8F9426"/>
<path d="M43.8283 23.6355C43.9898 23.7677 44.1191 23.9349 44.2064 24.1245C44.2936 24.3141 44.3366 24.5211 44.3319 24.7297C44.3816 25.5442 43.7723 24.108 43.7723 24.108L43.8283 23.6355Z" fill="#C9B466"/>
<path d="M41.8636 27.571C42.1541 27.5746 42.4421 27.5174 42.7092 27.4031C43.0138 27.2477 42.4108 27.1669 42.4108 27.1669L41.9693 27.3098L41.8636 27.571Z" fill="#C9B466"/>
<path d="M43.8283 23.6355L42.2989 22.7838L40.1229 26.6944L41.5093 27.4653L43.8283 23.6355Z" fill="#587039"/>
<path d="M42.8335 23.8406C42.8024 24.3899 42.6428 24.9241 42.3674 25.4004C42.092 25.8766 41.7087 26.2815 41.2482 26.5824C40.3715 27.0922 39.6628 26.6819 39.6628 25.6685C39.6924 25.1189 39.8515 24.5841 40.127 24.1077C40.4025 23.6312 40.7866 23.2266 41.2482 22.9267C42.1186 22.4293 42.8335 22.8272 42.8335 23.8406Z" fill="#909438"/>
<path d="M44.2138 24.6054C44.1846 25.1559 44.0258 25.6918 43.7503 26.1693C43.4748 26.6468 43.0904 27.0525 42.6284 27.3534C41.7518 27.8569 41.043 27.4466 41.043 26.4394C41.0698 25.8858 41.2275 25.3464 41.503 24.8655C41.7786 24.3846 42.1643 23.9758 42.6284 23.6728C43.5237 23.1878 44.2138 23.5982 44.2138 24.6054Z" fill="#C9B466"/>
<path d="M44.3443 24.9162C44.3173 25.4033 44.176 25.8771 43.9319 26.2994C43.6878 26.7217 43.3478 27.0806 42.9393 27.3472C42.1621 27.7948 41.5342 27.4342 41.5342 26.5389C41.5612 26.0519 41.7025 25.5781 41.9466 25.1558C42.1907 24.7335 42.5308 24.3745 42.9393 24.108C43.7164 23.6293 44.3443 23.9899 44.3443 24.9162Z" fill="#635624"/>
<path d="M43.9775 25.1028C43.9574 25.4618 43.8529 25.8111 43.6725 26.1222C43.4921 26.4333 43.2409 26.6975 42.9393 26.8933C42.3673 27.2228 41.901 26.9555 41.901 26.2716C41.9212 25.9117 42.0257 25.5616 42.206 25.2495C42.3864 24.9374 42.6375 24.672 42.9393 24.4748C43.5237 24.1702 43.9775 24.4375 43.9775 25.1028Z" fill="#192606"/>
<path d="M36.1003 25.8239V25.6499L39.7747 23.3433L40.0669 23.3371L50.0082 30.4122L45.9173 32.7437L36.1003 25.8239Z" fill="#B1B559"/>
<path d="M45.9173 32.7437L48.6466 37.1579C50.243 36.8837 51.6927 36.0587 52.7438 34.8264L50.0082 30.4122L45.9173 32.7437Z" fill="#6A7316"/>
<path d="M46.6696 32.9986L49.0632 36.5299C50.2633 36.3447 51.3527 35.7225 52.122 34.7829L50.0144 31.2142L46.6696 32.9986Z" fill="#4A3D16"/>
<path d="M0.792908 0.551078L1.84983 0.0474854L4.03828 1.32823L2.97514 1.83804L0.792908 0.551078Z" fill="#B1B559"/>
<path d="M5.42473 10.6851L6.48787 10.1753L4.0383 1.32823L2.97516 1.83804L5.42473 10.6851Z" fill="#6A7316"/>
<path d="M5.42474 10.6851L10.2679 15.5904C10.6609 15.5224 11.027 15.3458 11.3249 15.0806L6.48788 10.1753L5.42474 10.6851Z" fill="#B1B559"/>
<path d="M28.7516 37.3009L26.4139 38.65V35.6098L28.7516 34.2607V37.3009Z" fill="#6A7316"/>
<path d="M27.1165 35.7279C27.1122 35.8158 27.0875 35.9014 27.0443 35.978C27.0012 36.0547 26.9407 36.1202 26.8678 36.1693C26.7248 36.2502 26.6129 36.1694 26.6129 36.0201C26.6174 35.9316 26.6429 35.8455 26.6872 35.7687C26.7315 35.692 26.7934 35.6269 26.8678 35.5787C27.0046 35.4855 27.1165 35.5663 27.1165 35.7279Z" fill="#334715"/>
<path d="M28.5216 34.9135C28.5171 35.002 28.4916 35.0882 28.4473 35.1649C28.403 35.2416 28.3411 35.3068 28.2667 35.3549C28.1299 35.4357 28.0118 35.3549 28.0118 35.2119C28.0168 35.1235 28.0424 35.0375 28.0867 34.9609C28.131 34.8842 28.1926 34.819 28.2667 34.7705C28.4097 34.6897 28.5216 34.7518 28.5216 34.9135Z" fill="#334715"/>
<path d="M27.8066 35.33C27.8016 35.4184 27.776 35.5044 27.7317 35.5811C27.6874 35.6577 27.6258 35.7229 27.5517 35.7714C27.4149 35.8523 27.303 35.7714 27.303 35.6222C27.3073 35.5344 27.332 35.4488 27.3752 35.3721C27.4184 35.2955 27.4788 35.23 27.5517 35.1808C27.6947 35.1 27.8066 35.1684 27.8066 35.33Z" fill="#334715"/>
<path d="M27.1165 36.7289C27.1122 36.8167 27.0875 36.9024 27.0443 36.979C27.0012 37.0556 26.9407 37.1211 26.8678 37.1703C26.7248 37.2511 26.6129 37.1703 26.6129 37.0211C26.6174 36.9326 26.6429 36.8464 26.6872 36.7697C26.7315 36.6929 26.7934 36.6278 26.8678 36.5797C27.0046 36.474 27.1165 36.5424 27.1165 36.7289Z" fill="#334715"/>
<path d="M28.5216 35.8896C28.5171 35.9781 28.4916 36.0642 28.4473 36.141C28.403 36.2177 28.3411 36.2829 28.2667 36.331C28.1299 36.4118 28.0118 36.331 28.0118 36.188C28.0172 36.0997 28.0431 36.0139 28.0873 35.9373C28.1316 35.8607 28.193 35.7954 28.2667 35.7466C28.4097 35.6657 28.5216 35.7279 28.5216 35.8896Z" fill="#334715"/>
<path d="M27.8066 36.3061C27.8021 36.3946 27.7767 36.4808 27.7324 36.5576C27.688 36.6343 27.6261 36.6994 27.5517 36.7475C27.4149 36.8284 27.303 36.7475 27.303 36.5983C27.3073 36.5105 27.332 36.4249 27.3752 36.3482C27.4184 36.2716 27.4788 36.2061 27.5517 36.1569C27.6947 36.1072 27.8066 36.1445 27.8066 36.3061Z" fill="#334715"/>
<path d="M27.1165 37.6801C27.1122 37.768 27.0875 37.8536 27.0443 37.9302C27.0012 38.0069 26.9407 38.0724 26.8678 38.1215C26.7248 38.2024 26.6129 38.1215 26.6129 37.9723C26.6174 37.8838 26.6429 37.7977 26.6872 37.7209C26.7315 37.6442 26.7934 37.579 26.8678 37.5309C27.0046 37.4501 27.1165 37.5185 27.1165 37.6801Z" fill="#334715"/>
<path d="M28.5216 36.8657C28.5181 36.9544 28.4931 37.041 28.4487 37.1179C28.4043 37.1948 28.3418 37.2597 28.2667 37.3071C28.1299 37.3879 28.0118 37.3071 28.0118 37.1641C28.0172 37.0758 28.0431 36.99 28.0873 36.9134C28.1316 36.8368 28.193 36.7715 28.2667 36.7227C28.4097 36.6419 28.5216 36.7289 28.5216 36.8657Z" fill="#334715"/>
<path d="M27.8066 37.2822C27.8021 37.3707 27.7767 37.4569 27.7324 37.5336C27.688 37.6104 27.6261 37.6755 27.5517 37.7236C27.4149 37.8045 27.303 37.7236 27.303 37.5744C27.3073 37.4866 27.332 37.401 27.3752 37.3243C27.4184 37.2477 27.4788 37.1822 27.5517 37.133C27.6947 37.0522 27.8066 37.1206 27.8066 37.2822Z" fill="#334715"/>
<path d="M22.8826 33.8876L20.5387 35.2368V32.1966L22.8826 30.8474V33.8876Z" fill="#89A364"/>
<path d="M21.2475 32.3085C21.2425 32.3969 21.2168 32.4828 21.1726 32.5595C21.1283 32.6362 21.0666 32.7014 20.9926 32.7499C20.8496 32.8307 20.7377 32.7499 20.7377 32.6069C20.7422 32.5184 20.7676 32.4322 20.8119 32.3555C20.8563 32.2787 20.9182 32.2136 20.9926 32.1655C21.1418 32.0846 21.2475 32.1468 21.2475 32.3085Z" fill="#445925"/>
<path d="M22.6526 31.5002C22.6471 31.5885 22.6212 31.6743 22.577 31.7509C22.5328 31.8275 22.4714 31.8928 22.3977 31.9417C22.2547 32.0225 22.1428 31.9417 22.1428 31.7924C22.1477 31.7041 22.1734 31.6181 22.2177 31.5414C22.262 31.4647 22.3236 31.3995 22.3977 31.351C22.5344 31.2702 22.6526 31.3386 22.6526 31.5002Z" fill="#445925"/>
<path d="M21.9376 31.9106C21.9326 31.999 21.907 32.0849 21.8627 32.1616C21.8184 32.2383 21.7568 32.3035 21.6827 32.352C21.5397 32.4328 21.4278 32.352 21.4278 32.209C21.4323 32.1205 21.4577 32.0343 21.5021 31.9576C21.5464 31.8808 21.6083 31.8157 21.6827 31.7676C21.8195 31.6867 21.9376 31.7551 21.9376 31.9106Z" fill="#445925"/>
<path d="M21.2475 33.2908C21.2415 33.3781 21.2154 33.4628 21.1712 33.5384C21.127 33.6139 21.0658 33.6781 20.9926 33.726C20.8496 33.813 20.7377 33.726 20.7377 33.583C20.7422 33.4945 20.7676 33.4083 20.8119 33.3316C20.8563 33.2548 20.9182 33.1897 20.9926 33.1416C21.1418 33.0607 21.2475 33.1229 21.2475 33.2908Z" fill="#445925"/>
<path d="M22.6526 32.4763C22.6471 32.5646 22.6212 32.6504 22.577 32.727C22.5328 32.8036 22.4714 32.8689 22.3977 32.9178C22.2547 32.9986 22.1428 32.9178 22.1428 32.7685C22.1472 32.6809 22.1727 32.5956 22.2171 32.5198C22.2614 32.4441 22.3234 32.3801 22.3977 32.3333C22.5344 32.2463 22.6526 32.3147 22.6526 32.4763Z" fill="#445925"/>
<path d="M21.9376 32.8867C21.9326 32.9751 21.907 33.0611 21.8627 33.1377C21.8184 33.2144 21.7568 33.2796 21.6827 33.3281C21.5397 33.4089 21.4278 33.3281 21.4278 33.1851C21.4323 33.0966 21.4577 33.0104 21.5021 32.9337C21.5464 32.8569 21.6083 32.7918 21.6827 32.7437C21.8195 32.6629 21.9376 32.725 21.9376 32.8867Z" fill="#445925"/>
<path d="M21.1672 34.5087C21.2668 34.3363 21.268 34.1505 21.1699 34.0939C21.0717 34.0372 20.9115 34.1311 20.8119 34.3036C20.7123 34.476 20.7111 34.6618 20.8093 34.7184C20.9074 34.7751 21.0677 34.6812 21.1672 34.5087Z" fill="#445925"/>
<path d="M22.6526 33.4524C22.6471 33.5407 22.6212 33.6265 22.577 33.7031C22.5328 33.7797 22.4714 33.845 22.3977 33.8939C22.2547 33.9747 22.1428 33.8939 22.1428 33.7446C22.1472 33.657 22.1727 33.5717 22.2171 33.4959C22.2614 33.4202 22.3234 33.3562 22.3977 33.3094C22.5344 33.2286 22.6526 33.2908 22.6526 33.4524Z" fill="#445925"/>
<path d="M21.9376 33.869C21.9317 33.9563 21.9056 34.041 21.8613 34.1165C21.8171 34.1921 21.756 34.2563 21.6827 34.3042C21.5397 34.3912 21.4278 34.3042 21.4278 34.1612C21.4323 34.0727 21.4577 33.9865 21.5021 33.9098C21.5464 33.833 21.6083 33.7679 21.6827 33.7198C21.8195 33.6203 21.9376 33.7011 21.9376 33.869Z" fill="#445925"/>
<path d="M20.5387 32.1966L26.4139 35.6098V38.65L20.5387 35.2368V32.1966Z" fill="#909438"/>
<path d="M22.8826 30.8474L28.7516 34.2607L26.4139 35.6098L20.5387 32.1966L22.8826 30.8474Z" fill="#C7CC65"/>
<path d="M26.1155 35.958L20.7128 32.8494C20.6869 32.8338 20.6654 32.8119 20.6502 32.7859C20.635 32.7598 20.6266 32.7303 20.6257 32.7002C20.6257 32.6442 20.663 32.6193 20.7128 32.6442L26.1155 35.7528C26.1419 35.7698 26.1641 35.7927 26.1802 35.8197C26.1964 35.8466 26.2062 35.8769 26.2088 35.9082C26.2026 35.9642 26.159 35.9891 26.1155 35.958Z" fill="#6A7316"/>
<path d="M26.1155 36.4926L20.7128 33.3841C20.6872 33.3667 20.666 33.3436 20.6509 33.3166C20.6358 33.2896 20.6272 33.2595 20.6257 33.2286C20.6257 33.1727 20.663 33.1478 20.7128 33.1789L26.1155 36.2875C26.1421 36.3028 26.1646 36.3244 26.1808 36.3504C26.1971 36.3764 26.2067 36.4061 26.2088 36.4367C26.2091 36.4478 26.2066 36.4588 26.2013 36.4685C26.196 36.4783 26.1881 36.4864 26.1786 36.4921C26.1691 36.4978 26.1582 36.5009 26.1471 36.501C26.136 36.5011 26.1251 36.4982 26.1155 36.4926Z" fill="#6A7316"/>
<path d="M26.1155 37.0211L20.7128 33.9125C20.6872 33.8951 20.666 33.8721 20.6509 33.8451C20.6358 33.8181 20.6272 33.788 20.6257 33.7571C20.6257 33.7011 20.663 33.6825 20.7128 33.7073L26.1155 36.8159C26.1419 36.833 26.1641 36.8558 26.1802 36.8828C26.1964 36.9097 26.2062 36.94 26.2088 36.9714C26.2026 37.0273 26.159 37.046 26.1155 37.0211Z" fill="#6A7316"/>
<path d="M26.1155 37.5496L20.7128 34.441C20.6869 34.4254 20.6654 34.4035 20.6502 34.3775C20.635 34.3514 20.6266 34.3219 20.6257 34.2918C20.6257 34.2358 20.663 34.2109 20.7128 34.242L26.1155 37.3506C26.1421 37.3659 26.1646 37.3875 26.1808 37.4135C26.1971 37.4396 26.2067 37.4692 26.2088 37.4998C26.2026 37.5558 26.159 37.5806 26.1155 37.5496Z" fill="#6A7316"/>
<path d="M26.1155 38.0842L20.7128 34.9756C20.6872 34.9583 20.666 34.9352 20.6509 34.9082C20.6358 34.8812 20.6272 34.8511 20.6257 34.8202C20.6257 34.7643 20.663 34.7456 20.7128 34.7705L26.1155 37.8791C26.1419 37.8961 26.1641 37.919 26.1802 37.9459C26.1964 37.9729 26.2062 38.0032 26.2088 38.0345C26.2026 38.0905 26.159 38.1091 26.1155 38.0842Z" fill="#6A7316"/>
<path d="M19.6372 32.3831L20.2154 33.9187L20.5574 36.0077L24.7975 38.4573L23.9519 35.9828L21.5024 34.0617L20.5574 32.924L19.6372 32.3831Z" fill="#759150"/>
<path d="M19.1585 32.6753L19.6372 32.3831L20.5574 32.924L21.5024 34.0617L21.0299 34.3539L19.1585 32.6753Z" fill="#809E57"/>
<path d="M19.1585 32.6753L19.7429 34.2109L20.0849 36.2999L24.325 38.7495L23.4795 36.275L21.0299 34.3539L20.0849 33.2162L19.1585 32.6753Z" fill="#909438"/>
<path d="M23.952 35.9828L21.5024 34.0617L20.8309 34.2172L23.4795 36.275L23.952 35.9828Z" fill="#B1B54A"/>
<path d="M24.325 38.7495L24.7975 38.4573L23.9519 35.9828L23.4794 36.275L24.325 38.7495Z" fill="#6A7316"/>
<path d="M18.5989 35.3984L19.2207 35.0502L19.9543 35.4917C20.0719 35.5499 20.1723 35.638 20.2454 35.7471C20.3184 35.8561 20.3617 35.9824 20.3708 36.1134V36.4367L18.5989 35.3984Z" fill="#909438"/>
<path d="M17.4612 36.0201C17.4612 36.331 17.6788 36.4553 17.9461 36.2999C18.0823 36.2092 18.1962 36.0888 18.2791 35.9477C18.362 35.8066 18.4118 35.6486 18.4248 35.4855C18.4248 35.1746 18.2072 35.0502 17.9461 35.2057C17.8081 35.295 17.6926 35.415 17.6085 35.5562C17.5244 35.6975 17.474 35.8562 17.4612 36.0201Z" fill="#6A7316"/>
<path d="M23.5602 39.4831C23.5602 39.7878 23.7778 39.9121 24.0452 39.7629C24.1846 39.6697 24.3004 39.5453 24.3835 39.3997C24.4665 39.254 24.5146 39.091 24.5239 38.9236C24.5239 38.6189 24.3063 38.4946 24.0452 38.65C23.9037 38.7401 23.7859 38.8627 23.7015 39.0077C23.6172 39.1526 23.5687 39.3156 23.5602 39.4831Z" fill="#96B074"/>
<path d="M24.7664 39.8375C24.7664 39.9432 24.841 39.9805 24.9343 39.9307C24.9816 39.8989 25.0209 39.8565 25.0489 39.8068C25.077 39.7572 25.0931 39.7017 25.0959 39.6447C25.0994 39.6247 25.0966 39.6041 25.0879 39.5857C25.0793 39.5673 25.0652 39.552 25.0476 39.5418C25.03 39.5317 25.0097 39.5271 24.9894 39.5289C24.9692 39.5306 24.9499 39.5385 24.9343 39.5515C24.8858 39.5826 24.8453 39.6247 24.8162 39.6744C24.787 39.7241 24.77 39.78 24.7664 39.8375Z" fill="#96B074"/>
<path d="M18.2632 35.1435C18.2632 35.1435 23.6286 38.1837 24.3934 38.594C24.5937 38.6801 24.7658 38.8207 24.89 38.9999C25.0143 39.1791 25.0856 39.3896 25.0959 39.6075L24.984 39.8375C24.6793 40.111 24.0949 39.9867 23.7406 39.7877C23.3862 39.5888 17.6477 36.3186 17.6477 36.3186L18.2632 35.1435Z" fill="#6A7316"/>
<path d="M17.5918 35.9953L16.97 36.3434L17.7347 36.76C18.0607 36.9301 18.4241 37.0156 18.7917 37.0087H19.345L17.5918 35.9953Z" fill="#909438"/>
<path d="M17.9399 35.2741V34.5094L18.7606 35.0129C19.0986 35.2328 19.3782 35.5315 19.5751 35.8834L19.8797 36.4118L17.9399 35.2741Z" fill="#909438"/>
<path d="M15.3598 34.0741L15.9442 35.6098L16.2862 37.6988L20.5263 40.1483L19.6807 37.6739L17.2312 35.7528L16.2862 34.615L15.3598 34.0741Z" fill="#759150"/>
<path d="M14.8873 34.3664L15.3598 34.0741L16.2861 34.615L17.2311 35.7528L16.7586 36.045L14.8873 34.3664Z" fill="#809E57"/>
<path d="M14.8873 34.3664L15.4717 35.902L15.8136 37.991L20.0538 40.4406L19.2082 37.9661L16.7586 36.045L15.8136 34.9073L14.8873 34.3664Z" fill="#909438"/>
<path d="M19.6807 37.6739L17.2312 35.7528L16.5659 35.9144L19.2082 37.9661L19.6807 37.6739Z" fill="#B1B54A"/>
<path d="M20.0538 40.4405L20.5263 40.1483L19.6808 37.6739L19.2083 37.9661L20.0538 40.4405Z" fill="#6A7316"/>
<path d="M15.0054 37.077L15.6272 36.7289L16.3546 37.1765C16.4742 37.2329 16.5765 37.3203 16.6508 37.4297C16.7252 37.539 16.7688 37.6663 16.7773 37.7982V38.1153L15.0054 37.077Z" fill="#797D25"/>
<path d="M13.8677 37.705C13.8677 38.0096 14.0853 38.134 14.3464 37.9848C14.4876 37.8929 14.6052 37.7691 14.6894 37.6232C14.7737 37.4773 14.8223 37.3136 14.8313 37.1454C14.8313 36.8408 14.6137 36.7165 14.3464 36.8719C14.2068 36.9634 14.0907 37.0865 14.0076 37.2313C13.9244 37.376 13.8765 37.5383 13.8677 37.705Z" fill="#6A7316"/>
<path d="M19.9667 41.1617C19.9667 41.4726 20.1843 41.5969 20.4455 41.4415C20.5859 41.3503 20.7029 41.2274 20.7871 41.0827C20.8714 40.938 20.9204 40.7755 20.9304 40.6084C20.9304 40.3038 20.7128 40.1794 20.4455 40.3286C20.3069 40.4212 20.1916 40.5446 20.1085 40.6891C20.0255 40.8336 19.977 40.9954 19.9667 41.1617Z" fill="#96B074"/>
<path d="M21.1729 41.485C21.1729 41.5907 21.2475 41.6343 21.3345 41.5845C21.383 41.5534 21.4234 41.5113 21.4526 41.4616C21.4818 41.4119 21.4988 41.356 21.5024 41.2985C21.5024 41.1928 21.4278 41.1493 21.3345 41.2053C21.288 41.2365 21.2492 41.2779 21.2212 41.3264C21.1932 41.3749 21.1766 41.4292 21.1729 41.485Z" fill="#6A7316"/>
<path d="M14.6635 36.8284C14.6635 36.8284 20.0476 39.8624 20.7998 40.3038C20.9997 40.3887 21.1716 40.5283 21.2959 40.7064C21.4201 40.8845 21.4917 41.094 21.5024 41.311L21.3843 41.541C21.0858 41.8146 20.4952 41.6902 20.1408 41.4913C19.7864 41.2923 14.0542 38.0283 14.0542 38.0283L14.6635 36.8284Z" fill="#6A7316"/>
<path d="M13.9982 37.6739L13.3765 38.0221L14.1475 38.4448C14.4749 38.6101 14.8376 38.6933 15.2044 38.6873H15.7577L13.9982 37.6739Z" fill="#B1B54A"/>
<path d="M14.3464 36.9589V36.1942L15.167 36.6916C15.5058 36.9132 15.7854 37.2141 15.9815 37.5682L16.2861 38.0905L14.3464 36.9589Z" fill="#909438"/>
<path d="M13.7496 22.8086C13.818 22.4853 14.5081 20.7569 15.4282 21.6771C16.3484 22.5972 15.565 22.8521 15.8448 23.7288C16.1245 24.6054 16.4665 26.5638 15.1298 25.4571C14.7297 25.1346 14.4006 24.7328 14.1631 24.277C13.9255 23.8213 13.7848 23.3213 13.7496 22.8086Z" fill="#6A7316"/>
<path d="M16.653 21.8636C15.5898 21.6335 16.4913 23.6168 17.4115 23.5236C18.3316 23.4303 19.0715 22.8086 18.3565 22.0439C17.6415 21.2792 17.2996 22.0004 16.653 21.8636Z" fill="#6A7316"/>
<path d="M15.1049 20.5642C15.764 20.6575 16.3049 20.7258 16.1681 20.1974C16.0313 19.6689 15.335 18.9539 14.8749 19.4389C14.804 19.5235 14.7531 19.623 14.726 19.7301C14.6989 19.8371 14.6963 19.9489 14.7184 20.057C14.7405 20.1652 14.7868 20.267 14.8537 20.3548C14.9206 20.4426 15.0065 20.5142 15.1049 20.5642Z" fill="#6A7316"/>
<path d="M19.3451 23.8469C19.9046 23.5671 19.9232 25.0903 18.9782 25.1338C18.0332 25.1774 18.1949 25.7556 17.7348 26.1721C17.2747 26.5887 16.7649 25.0903 17.4799 24.537C18.0467 24.1794 18.682 23.9444 19.3451 23.8469Z" fill="#6A7316"/>
<path d="M21.5832 25.2706C22.5593 25.7431 20.8248 26.4705 20.8248 27.6456C20.8248 28.8206 19.9916 30.5117 19.2767 28.9823C18.5617 27.4528 18.8166 27.0239 19.5316 26.2654C20.2466 25.5069 20.8248 24.9162 21.5832 25.2706Z" fill="#6A7316"/>
<path d="M23.2867 24.537C24.468 24.0645 25.4565 25.482 24.7664 26.2654C24.0763 27.0487 22.9013 26.9306 22.7147 26.2156C22.6633 25.9103 22.6886 25.597 22.7885 25.304C22.8883 25.0109 23.0596 24.7473 23.2867 24.537Z" fill="#6A7316"/>
<path d="M20.2714 23.0511C20.3408 23.2249 20.4473 23.3815 20.5834 23.51C20.7196 23.6384 20.8821 23.7357 21.0597 23.7949C21.2372 23.854 21.4256 23.8738 21.6116 23.8527C21.7976 23.8316 21.9767 23.7702 22.1366 23.6728C22.578 23.3744 22.9199 23.6293 21.8879 22.8459C20.8558 22.0625 20.0849 22.4853 20.2714 23.0511Z" fill="#6A7316"/>
<path d="M29.9267 33.0607C30.5484 33.6514 31.3815 35.2989 30.2749 34.9259C29.1682 34.5529 29.9516 33.5395 29.1185 33.1043C28.2854 32.6691 29.4418 32.6007 29.9267 33.0607Z" fill="#6A7316"/>
<path d="M32.5068 36.1072C31.8851 35.8212 31.0085 36.6792 31.7235 37.7174C32.4384 38.7557 34.6953 39.2158 34.6953 37.9723C34.6953 36.7289 34.5834 37.0708 32.5068 36.1072Z" fill="#6A7316"/>
<path d="M31.4499 31.5437C32.5628 32.495 31.7919 33.5705 32.9234 34.3104C34.0549 35.0502 35.2984 33.6141 33.9803 32.582C32.6623 31.55 33.3586 30.3873 32.1649 30.0951C30.9712 29.8029 30.965 31.1334 31.4499 31.5437Z" fill="#6A7316"/>
<path d="M29.2242 29.5605C28.5154 29.262 28.8511 27.9937 29.5661 28.3854C30.2811 28.7771 31.2385 30.4122 29.2242 29.5605Z" fill="#6A7316"/>
<path d="M26.2648 26.943C25.7488 26.3213 26.644 24.8478 27.7258 25.4136C28.8076 25.9794 28.6025 26.4394 27.7818 27.3471C26.9611 28.2549 26.5943 29.4921 26.184 28.4662C25.7736 27.4404 26.7684 27.5523 26.2648 26.943Z" fill="#6A7316"/>
<path d="M29.479 30.8723L10.355 38.5692L7.40179 36.8657L23.7965 27.5896L29.479 30.8723Z" fill="#B1B54A"/>
<path d="M10.355 18.0587L6.06512 23.4863L8.45874 24.8665L14.2159 20.2906L10.355 18.0587Z" fill="#B1B559"/>
<path d="M5.91591 22.8646L6.18946 22.2428C6.25785 22.0874 6.42572 22.0501 6.60602 22.1496L8.08571 22.9516C8.27798 23.0754 8.42432 23.2589 8.50226 23.4738L8.85042 24.4375C8.89163 24.5445 8.91067 24.6587 8.90637 24.7732L8.69499 26.8373C8.69499 27.0922 8.47739 27.1793 8.24114 27.0425L6.9977 26.3337C6.78024 26.188 6.62504 25.9663 6.5625 25.712L5.94078 23.2252C5.89696 23.1101 5.8883 22.9846 5.91591 22.8646Z" fill="#909438"/>
<path d="M7.73755 35.8958L8.85043 35.2741L10.2058 36.1072C10.422 36.2126 10.6072 36.3722 10.7434 36.5705C10.8796 36.7688 10.9621 36.999 10.9829 37.2387V37.8293L7.73755 35.8958Z" fill="#B1B54A"/>
<path d="M5.59882 37.0584C5.59882 37.6242 5.99672 37.8542 6.49409 37.5744C6.75331 37.4042 6.96886 37.1754 7.1233 36.9065C7.27774 36.6375 7.36676 36.336 7.38315 36.0264C7.38315 35.4544 6.98525 35.2243 6.49409 35.5103C6.23302 35.6791 6.01574 35.9075 5.8601 36.1766C5.70446 36.4457 5.61491 36.7479 5.59882 37.0584Z" fill="#6A7316"/>
<path d="M10.6409 39.9494C10.6409 40.5152 11.0388 40.7452 11.5362 40.4592C11.7976 40.2917 12.0156 40.0646 12.1723 39.7966C12.329 39.5286 12.4199 39.2273 12.4377 38.9173C12.4377 38.3454 12.0398 38.1153 11.5486 38.4013C11.2853 38.5687 11.0655 38.7964 10.9077 39.0657C10.7498 39.3349 10.6584 39.6378 10.6409 39.9494Z" fill="#96B074"/>
<path d="M12.8792 40.5462C12.8792 40.739 13.0159 40.8198 13.1838 40.7203C13.2722 40.6626 13.3455 40.5845 13.3975 40.4925C13.4494 40.4005 13.4785 40.2974 13.4822 40.1919C13.4822 39.9991 13.3517 39.9245 13.1838 40.0178C13.0956 40.0763 13.0222 40.1545 12.9693 40.2462C12.9164 40.3379 12.8856 40.4406 12.8792 40.5462Z" fill="#96B074"/>
<path d="M7.10337 35.4295C7.10337 35.4295 10.7964 37.5371 12.189 38.3454C13.5817 39.1536 13.4822 40.2105 13.4822 40.2105L13.277 40.6333C12.7175 41.1431 11.6233 40.9131 10.9332 40.5462C10.2431 40.1794 5.95941 37.6428 5.95941 37.6428L7.10337 35.4295Z" fill="#6A7316"/>
<path d="M5.86617 37.0087L4.7533 37.6304L6.17703 38.4138C6.78422 38.7186 7.45611 38.8722 8.13545 38.8614H9.16128L5.86617 37.0087Z" fill="#B1B54A"/>
<path d="M6.50653 35.672V34.242L8.03596 35.1746C8.66193 35.5825 9.17849 36.1375 9.54052 36.791L10.1001 37.7671L6.50653 35.672Z" fill="#909438"/>
<path d="M38.1582 27.2726C38.3196 27.4063 38.4486 27.5747 38.5358 27.7652C38.623 27.9557 38.6661 28.1635 38.6618 28.373C38.7116 29.1874 38.1023 27.7513 38.1023 27.7513L38.1582 27.2726Z" fill="#C9B466"/>
<path d="M36.1936 31.208C36.4818 31.2196 36.7693 31.1731 37.0391 31.0713C37.3438 30.9158 36.7407 30.835 36.7407 30.835L36.2993 30.978L36.1936 31.208Z" fill="#C9B466"/>
<path d="M38.1583 27.2788L36.6288 26.427L34.4528 30.3376L35.8393 31.1085L38.1583 27.2788Z" fill="#909438"/>
<path d="M37.1635 27.4839C37.1339 28.0335 36.9748 28.5683 36.6993 29.0448C36.4238 29.5212 36.0396 29.9259 35.5781 30.2257C34.7015 30.7293 33.9927 30.319 33.9927 29.3118C34.0224 28.7614 34.1814 28.2257 34.4569 27.7482C34.7323 27.2708 35.1165 26.865 35.5781 26.5638C36.4547 26.0602 37.1635 26.4705 37.1635 27.4839Z" fill="#909438"/>
<path d="M38.5499 28.2486C38.5202 28.7991 38.3612 29.3347 38.0858 29.8122C37.8103 30.2896 37.4262 30.6954 36.9645 30.9966C36.0879 31.5002 35.3792 31.0899 35.3792 30.0765C35.4088 29.5269 35.5678 28.9921 35.8433 28.5156C36.1189 28.0392 36.503 27.6346 36.9645 27.3347C37.8349 26.8311 38.5499 27.2414 38.5499 28.2486Z" fill="#C9B466"/>
<path d="M38.6742 28.5284C38.6472 29.0154 38.5059 29.4893 38.2618 29.9116C38.0177 30.3339 37.6777 30.6928 37.2692 30.9593C36.492 31.407 35.8641 31.0464 35.8641 30.1511C35.8911 29.6641 36.0324 29.1903 36.2765 28.768C36.5206 28.3457 36.8607 27.9867 37.2692 27.7202C38.0463 27.2725 38.6742 27.6331 38.6742 28.5284Z" fill="#635624"/>
<path d="M38.3074 28.7398C38.2844 29.0956 38.1785 29.4412 37.9983 29.7488C37.818 30.0564 37.5683 30.3177 37.2692 30.5117C36.6972 30.8412 36.2309 30.5739 36.2309 29.89C36.2501 29.5299 36.3542 29.1794 36.5346 28.8671C36.715 28.5549 36.9667 28.2897 37.2692 28.0932C37.8411 27.8134 38.3074 28.0808 38.3074 28.7398Z" fill="#192606"/>
<path d="M18.4933 22.7029C18.4933 22.9765 18.3006 23.0884 18.0643 22.9516C17.9395 22.8694 17.8358 22.759 17.7613 22.6295C17.6868 22.4999 17.6436 22.3548 17.6353 22.2055C17.6353 21.932 17.828 21.8263 18.0643 21.9631C18.1889 22.044 18.2927 22.1531 18.3673 22.2817C18.4418 22.4102 18.485 22.5546 18.4933 22.7029Z" fill="#F2E98C"/>
<path d="M21.9811 24.7173C21.9811 24.9908 21.7883 25.0965 21.5521 24.966C21.4273 24.8837 21.3235 24.7734 21.2491 24.6439C21.1746 24.5143 21.1314 24.3691 21.1231 24.2199C21.1231 23.9463 21.3158 23.8344 21.5521 23.9712C21.6769 24.0535 21.7806 24.1638 21.8551 24.2933C21.9296 24.4229 21.9728 24.5681 21.9811 24.7173Z" fill="#F2E98C"/>
<path d="M25.4938 26.7317C25.4938 26.999 25.3011 27.1109 25.0649 26.9741C24.9402 26.8932 24.8364 26.7841 24.7619 26.6555C24.6873 26.527 24.6442 26.3826 24.6359 26.2343C24.6359 25.9607 24.8286 25.8488 25.0649 25.9856C25.1896 26.0678 25.2934 26.1782 25.3679 26.3077C25.4424 26.4373 25.4855 26.5824 25.4938 26.7317Z" fill="#F2E98C"/>
<path d="M28.9568 28.6465C28.9568 28.9201 28.7641 29.032 28.5278 28.8952C28.4032 28.8143 28.2994 28.7052 28.2248 28.5766C28.1503 28.4481 28.1071 28.3037 28.0988 28.1554C28.0988 27.8818 28.2916 27.7699 28.5278 27.9067C28.6524 27.9876 28.7562 28.0968 28.8308 28.2253C28.9053 28.3539 28.9485 28.4982 28.9568 28.6465Z" fill="#F2E98C"/>
<path d="M32.9109 23.6293L32.1275 23.1754C31.9915 23.1288 31.8734 23.0408 31.7898 22.9237C31.7062 22.8067 31.6613 22.6664 31.6613 22.5226C31.6613 22.3788 31.7062 22.2385 31.7898 22.1215C31.8734 22.0044 31.9915 21.9165 32.1275 21.8698L32.3078 21.7641C32.6605 21.5893 33.0488 21.4984 33.4425 21.4984C33.8361 21.4984 34.2244 21.5893 34.5771 21.7641L35.3543 22.218C35.4903 22.2646 35.6084 22.3526 35.692 22.4697C35.7756 22.5867 35.8206 22.7269 35.8206 22.8708C35.8206 23.0146 35.7756 23.1548 35.692 23.2719C35.6084 23.3889 35.4903 23.4769 35.3543 23.5236L35.1802 23.6293C34.8291 23.8093 34.4401 23.9032 34.0455 23.9032C33.651 23.9032 33.262 23.8093 32.9109 23.6293Z" fill="#707A0F"/>
<path d="M32.9109 23.3371L32.1275 22.8894C31.9922 22.8412 31.8751 22.7522 31.7922 22.6348C31.7094 22.5174 31.665 22.3772 31.665 22.2335C31.665 22.0898 31.7094 21.9496 31.7922 21.8322C31.8751 21.7148 31.9922 21.6258 32.1275 21.5776L32.3078 21.4781C32.659 21.2981 33.0479 21.2042 33.4425 21.2042C33.8371 21.2042 34.226 21.2981 34.5771 21.4781L35.3543 21.9258C35.4896 21.974 35.6067 22.0629 35.6895 22.1804C35.7724 22.2978 35.8168 22.438 35.8168 22.5817C35.8168 22.7254 35.7724 22.8655 35.6895 22.983C35.6067 23.1004 35.4896 23.1893 35.3543 23.2376L35.1802 23.3371C34.8291 23.5171 34.4401 23.611 34.0455 23.611C33.651 23.611 33.262 23.5171 32.9109 23.3371Z" fill="#8F992F"/>
<path d="M34.0424 23.4241C33.6795 23.4317 33.3204 23.3483 32.998 23.1816L32.2208 22.7278C32.1193 22.6858 32.0307 22.6176 31.9641 22.5303C31.8975 22.4429 31.8552 22.3394 31.8416 22.2304C31.8552 22.1214 31.8975 22.0179 31.9641 21.9306C32.0307 21.8432 32.1193 21.775 32.2208 21.733L32.3949 21.6336C32.7188 21.4702 33.0766 21.385 33.4394 21.385C33.8022 21.385 34.1599 21.4702 34.4839 21.6336L35.261 22.0812C35.3625 22.1232 35.4511 22.1914 35.5177 22.2787C35.5844 22.3661 35.6266 22.4696 35.6403 22.5786C35.6266 22.6876 35.5844 22.7911 35.5177 22.8784C35.4511 22.9658 35.3625 23.034 35.261 23.076L35.0869 23.1816C34.7646 23.3488 34.4054 23.4322 34.0424 23.4241Z" fill="#495200"/>
<path d="M32.2208 21.9942L32.3949 21.8947C32.7189 21.7313 33.0766 21.6461 33.4394 21.6461C33.8022 21.6461 34.16 21.7313 34.4839 21.8947L35.2611 22.3423C35.4192 22.4183 35.545 22.5484 35.6154 22.7091C35.6243 22.6661 35.6243 22.6216 35.6154 22.5786C35.6018 22.4696 35.5595 22.3661 35.4929 22.2787C35.4263 22.1914 35.3377 22.1232 35.2362 22.0812L34.459 21.6336C34.1351 21.4702 33.7774 21.385 33.4146 21.385C33.0517 21.385 32.694 21.4702 32.3701 21.6336L32.196 21.733C32.0945 21.775 32.0059 21.8432 31.9393 21.9306C31.8726 22.0179 31.8304 22.1214 31.8167 22.2304C31.8108 22.2737 31.8108 22.3177 31.8167 22.361C31.9017 22.1932 32.0456 22.0626 32.2208 21.9942Z" fill="#707A0F"/>
<path d="M33.8435 23.1132C34.4719 23.1132 34.9812 22.8182 34.9812 22.4542C34.9812 22.0903 34.4719 21.7952 33.8435 21.7952C33.2151 21.7952 32.7057 22.0903 32.7057 22.4542C32.7057 22.8182 33.2151 23.1132 33.8435 23.1132Z" fill="#606914"/>
<path d="M33.0974 18.5623L32.6995 22.4294L34.9812 22.4169L34.5895 18.5996L33.0974 18.5623Z" fill="#606914"/>
<path d="M32.5876 22.7775C32.5425 22.7759 32.4998 22.7569 32.4685 22.7244C32.4372 22.6919 32.4197 22.6486 32.4197 22.6034V18.6369C32.4274 18.5971 32.4486 18.5612 32.4798 18.5355C32.511 18.5097 32.5502 18.4955 32.5907 18.4955C32.6312 18.4955 32.6704 18.5097 32.7016 18.5355C32.7328 18.5612 32.7541 18.5971 32.7617 18.6369V22.6034C32.7617 22.6496 32.7433 22.6939 32.7107 22.7265C32.6781 22.7592 32.6338 22.7775 32.5876 22.7775Z" fill="#171A05"/>
<path d="M33.9119 23.393C33.8668 23.3914 33.8241 23.3724 33.7928 23.3399C33.7615 23.3074 33.744 23.264 33.744 23.2189V19.3456C33.744 19.3236 33.7484 19.3018 33.7568 19.2814C33.7652 19.261 33.7776 19.2425 33.7932 19.2269C33.8088 19.2113 33.8273 19.199 33.8476 19.1905C33.868 19.1821 33.8898 19.1778 33.9119 19.1778C33.9564 19.1778 33.9991 19.1955 34.0306 19.2269C34.0621 19.2584 34.0797 19.3011 34.0797 19.3456V23.2252C34.0782 23.2692 34.06 23.311 34.0289 23.3421C33.9977 23.3733 33.9559 23.3915 33.9119 23.393Z" fill="#171A05"/>
<path d="M35.0994 22.6967C35.0532 22.6967 35.0089 22.6784 34.9763 22.6457C34.9436 22.6131 34.9253 22.5688 34.9253 22.5226V18.556C34.9269 18.511 34.946 18.4683 34.9784 18.437C35.0109 18.4056 35.0543 18.3882 35.0994 18.3882C35.1214 18.3882 35.1432 18.3925 35.1636 18.401C35.184 18.4094 35.2025 18.4218 35.2181 18.4373C35.2337 18.4529 35.246 18.4714 35.2545 18.4918C35.2629 18.5122 35.2672 18.534 35.2672 18.556V22.5226C35.2681 22.5452 35.2644 22.5677 35.2563 22.5888C35.2482 22.6099 35.236 22.6291 35.2203 22.6454C35.2047 22.6616 35.1859 22.6745 35.1651 22.6834C35.1443 22.6922 35.122 22.6967 35.0994 22.6967Z" fill="#171A05"/>
<path d="M34.9439 17.9903C35.0675 18.0407 35.1732 18.1267 35.2476 18.2375C35.322 18.3482 35.3618 18.4786 35.3618 18.612C35.3618 18.7454 35.322 18.8758 35.2476 18.9865C35.1732 19.0973 35.0675 19.1833 34.9439 19.2337C34.6025 19.4054 34.2256 19.4948 33.8435 19.4948C33.4613 19.4948 33.0845 19.4054 32.743 19.2337C32.6195 19.1833 32.5138 19.0973 32.4394 18.9865C32.3649 18.8758 32.3252 18.7454 32.3252 18.612C32.3252 18.4786 32.3649 18.3482 32.4394 18.2375C32.5138 18.1267 32.6195 18.0407 32.743 17.9903C33.0836 17.8157 33.4608 17.7247 33.8435 17.7247C34.2262 17.7247 34.6034 17.8157 34.9439 17.9903Z" fill="#495200"/>
<path d="M33.8435 19.2399C34.7019 19.2399 35.3978 18.8391 35.3978 18.3447C35.3978 17.8502 34.7019 17.4494 33.8435 17.4494C32.9851 17.4494 32.2892 17.8502 32.2892 18.3447C32.2892 18.8391 32.9851 19.2399 33.8435 19.2399Z" fill="#8F992F"/>
<path d="M33.141 18.3882L33.999 17.897L61.566 33.0856L59.4459 34.3042L33.141 18.3882Z" fill="#5D6934"/>
<path d="M34.0176 18.7053L33.1596 18.2079L59.4645 2.29811L61.5846 3.51668L34.0176 18.7053Z" fill="#5D6934"/>
<path d="M33.6881 17.8846L34.546 18.3758L8.24109 34.298L6.12103 33.0732L33.6881 17.8846Z" fill="#5D6934"/>
<path d="M34.5647 18.2017L33.7067 18.699L6.13971 3.51046L8.25977 2.28568L34.5647 18.2017Z" fill="#5D6934"/>
<path d="M35.0186 17.5116C35.1685 17.5626 35.2987 17.6593 35.391 17.788C35.4832 17.9168 35.5328 18.0713 35.5328 18.2297C35.5328 18.3881 35.4832 18.5425 35.391 18.6713C35.2987 18.8 35.1685 18.8967 35.0186 18.9477C34.6334 19.1437 34.2073 19.2459 33.7751 19.2459C33.3429 19.2459 32.9169 19.1437 32.5317 18.9477C32.3817 18.8967 32.2515 18.8 32.1593 18.6713C32.067 18.5425 32.0175 18.3881 32.0175 18.2297C32.0175 18.0713 32.067 17.9168 32.1593 17.788C32.2515 17.6593 32.3817 17.5626 32.5317 17.5116C32.9169 17.3156 33.3429 17.2134 33.7751 17.2134C34.2073 17.2134 34.6334 17.3156 35.0186 17.5116Z" fill="#707A0F"/>
<path d="M33.7751 18.5809C34.1047 18.5809 34.3719 18.425 34.3719 18.2328C34.3719 18.0405 34.1047 17.8846 33.7751 17.8846C33.4454 17.8846 33.1782 18.0405 33.1782 18.2328C33.1782 18.425 33.4454 18.5809 33.7751 18.5809Z" fill="#7D7D7D"/>
<path d="M35.0186 17.0577C35.1685 17.1087 35.2987 17.2054 35.391 17.3342C35.4832 17.463 35.5328 17.6174 35.5328 17.7758C35.5328 17.9342 35.4832 18.0886 35.391 18.2174C35.2987 18.3462 35.1685 18.4429 35.0186 18.4939C34.6334 18.6899 34.2073 18.7921 33.7751 18.7921C33.3429 18.7921 32.9169 18.6899 32.5317 18.4939C32.3817 18.4429 32.2515 18.3462 32.1593 18.2174C32.067 18.0886 32.0175 17.9342 32.0175 17.7758C32.0175 17.6174 32.067 17.463 32.1593 17.3342C32.2515 17.2054 32.3817 17.1087 32.5317 17.0577C32.9169 16.8617 33.3429 16.7595 33.7751 16.7595C34.2073 16.7595 34.6334 16.8617 35.0186 17.0577Z" fill="#8C962C"/>
<path d="M34.5025 17.2504C34.9067 17.4805 34.9067 17.8722 34.5025 18.0898C34.2768 18.203 34.0277 18.2619 33.7751 18.2619C33.5226 18.2619 33.2735 18.203 33.0477 18.0898C32.6436 17.8535 32.6436 17.468 33.0477 17.2504C33.2725 17.1338 33.5219 17.0729 33.7751 17.0729C34.0283 17.0729 34.2778 17.1338 34.5025 17.2504Z" fill="#707A0F"/>
<path d="M34.5025 16.9831C34.5911 17.012 34.6682 17.0681 34.7229 17.1435C34.7776 17.2189 34.8071 17.3096 34.8071 17.4028C34.8071 17.4959 34.7776 17.5867 34.7229 17.662C34.6682 17.7374 34.5911 17.7936 34.5025 17.8224C34.2768 17.9357 34.0277 17.9946 33.7751 17.9946C33.5225 17.9946 33.2735 17.9357 33.0477 17.8224C32.9592 17.7936 32.882 17.7374 32.8273 17.662C32.7726 17.5867 32.7432 17.4959 32.7432 17.4028C32.7432 17.3096 32.7726 17.2189 32.8273 17.1435C32.882 17.0681 32.9592 17.012 33.0477 16.9831C33.2724 16.8665 33.5219 16.8056 33.7751 16.8056C34.0283 16.8056 34.2778 16.8665 34.5025 16.9831Z" fill="#A7B339"/>
<path d="M23.8027 20.129C24.7037 19.4047 25.7241 18.8429 26.8181 18.469C25.8805 18.0202 24.8476 17.8068 23.8089 17.8473C21.8381 17.8473 22.6899 19.128 22.6899 19.128L23.8027 20.129Z" fill="#878C26"/>
<path d="M23.8028 20.129C23.8028 20.129 24.2504 17.4556 26.8181 18.469C24.1388 17.231 21.2271 16.5761 18.2757 16.5479C18.1307 16.5361 17.9862 16.5756 17.8673 16.6593C17.7484 16.7431 17.6626 16.8659 17.6249 17.0064C17.5872 17.1469 17.5999 17.2962 17.6609 17.4282C17.7219 17.5603 17.8272 17.6668 17.9586 17.7292C19.7851 18.7981 21.7522 19.6059 23.8028 20.129Z" fill="#C7CC65"/>
<path d="M21.3097 40.5525C21.1825 40.4725 21.0442 40.4118 20.8993 40.3722C20.8474 40.3572 20.7928 40.3533 20.7393 40.3608C20.6857 40.3683 20.6343 40.387 20.5885 40.4157C20.45 40.507 20.3347 40.6292 20.2516 40.7727C20.1685 40.9162 20.12 41.0771 20.1097 41.2426C20.102 41.3033 20.1119 41.3649 20.1384 41.4201C20.1649 41.4752 20.2067 41.5215 20.259 41.5534C20.3471 41.6445 20.4282 41.7422 20.5014 41.8456C20.7081 41.8674 20.9165 41.8674 21.1231 41.8456C21.1231 41.8456 21.6392 41.5721 21.6516 41.5534C21.664 41.5348 21.4962 40.683 21.3097 40.5525Z" fill="#A8A140"/>
<path d="M13.389 38.9857C13.1524 38.8303 12.892 38.7148 12.618 38.6438C12.5202 38.6141 12.4171 38.6065 12.316 38.6216C12.215 38.6366 12.1185 38.6739 12.0336 38.7308C11.7708 38.9013 11.5521 39.1315 11.3954 39.4028C11.2387 39.674 11.1485 39.9785 11.1321 40.2913C11.1205 40.4051 11.1405 40.5198 11.1899 40.6229C11.2392 40.726 11.316 40.8135 11.4119 40.8757C11.5788 41.0445 11.7307 41.2276 11.8657 41.4229C12.2562 41.4663 12.6503 41.4663 13.0408 41.4229C13.0408 41.4229 14.0169 40.8944 14.0355 40.8633C14.0542 40.8322 13.7371 39.2158 13.389 38.9857Z" fill="#A8A140"/>
<path d="M24.8721 38.8552C24.7464 38.7738 24.6076 38.7149 24.4618 38.6811C24.4102 38.663 24.3551 38.6575 24.301 38.6651C24.247 38.6726 24.1955 38.6931 24.1509 38.7246C24.0118 38.8152 23.8959 38.9372 23.8128 39.0809C23.7296 39.2245 23.6814 39.3858 23.6722 39.5515C23.6652 39.6121 23.6755 39.6735 23.7019 39.7285C23.7283 39.7835 23.7697 39.8299 23.8214 39.8624C23.9124 39.9508 23.9937 40.0488 24.0639 40.1546C24.2705 40.1764 24.4789 40.1764 24.6856 40.1546C24.6856 40.1546 25.2016 39.8748 25.214 39.8561C25.2265 39.8375 25.0586 38.9857 24.8721 38.8552Z" fill="#A8A140"/>
</g>
<defs>
<clipPath id="clip0_1_7639">
<rect width="60.9595" height="45" fill="white" transform="translate(0.625061 0.0474854)"/>
</clipPath>
</defs>
</svg>
