<svg width="37" height="26" viewBox="0 0 37 26" fill="none" xmlns="http://www.w3.org/2000/svg">
<path opacity="0.5" d="M23.6592 25.2787L27.1704 23.4941L27.5584 23.7656L31.2247 23.3777L34.8135 21.69L36.0162 19.6725L17.5875 9.11967L13.3198 11.4863L12.2334 10.8656L15.667 9.06148L11.6321 6.73364L7.59717 8.7511L7.17039 8.46012L1.27321 12.2235L23.6592 25.2787Z" fill="#675475"/>
<path d="M5.44391 13.7948L11.3217 10.4L11.3411 2.93152L5.46331 6.34568L5.44391 13.7948Z" fill="#C67D31"/>
<path d="M5.46331 6.34565L11.3411 2.93149L6.957 0.409668L1.09862 3.80443L5.46331 6.34565Z" fill="#FBDD5F"/>
<path d="M1.09862 3.80444L1.07922 11.2729L5.44392 13.7947L5.46332 6.34567L1.09862 3.80444Z" fill="#F9D54C"/>
<path d="M1.19561 10.4193L1.44779 10.2642L1.07921 10.0508V9.79858L0.613647 10.0896L1.19561 10.4193Z" fill="#FBDD5F"/>
<path d="M0.613647 10.0895V11.3117L1.19561 11.6608V10.4193L0.613647 10.0895Z" fill="#FBDD5F"/>
<path d="M0.924027 10.4387V11.3893L0.613647 11.1953V10.2448L0.924027 10.4387Z" fill="#52345A"/>
<path d="M1.1956 11.6609L1.44778 11.5057V10.2642L1.1956 10.4193V11.6609Z" fill="#C67D31"/>
<path d="M3.27126 11.6415L2.47592 12.107C2.28194 12.2234 2.16554 12.4562 2.16554 12.8054L2.96089 12.3398C2.96089 11.9907 3.07728 11.7579 3.27126 11.6415Z" fill="#A15C15"/>
<path d="M3.38767 11.9325C3.42646 11.9325 3.52346 11.9325 3.63985 11.9907C3.73685 12.0295 3.79504 12.0489 3.87263 12.1071C4.20241 12.3011 4.4352 12.6114 4.49339 12.689C4.60978 12.8636 4.66798 12.9606 4.76497 13.174C4.76497 13.174 4.80377 13.271 4.84256 13.3874C4.86196 13.465 4.86197 13.4844 4.90076 13.6008C4.93956 13.8336 4.93956 14.1051 4.86196 14.2797C4.84257 14.3379 4.82317 14.3767 4.80377 14.4155C4.78437 14.4543 4.76497 14.4931 4.70678 14.5707C4.60978 14.6871 4.51279 14.7453 4.45459 14.7841C4.64858 14.6677 4.78437 14.4155 4.78437 14.0663C4.78437 13.368 4.2994 12.5145 3.67865 12.1459C3.36827 11.9713 3.09669 11.9519 2.8833 12.0683C3.09669 11.9325 3.29067 11.9325 3.38767 11.9325Z" fill="#3A273A"/>
<path d="M2.86391 12.0489C3.0579 11.9325 3.34887 11.9519 3.65925 12.1265C4.28001 12.4757 4.76497 13.3292 4.76497 14.0469C4.76497 14.3961 4.64858 14.6483 4.43519 14.7647L4.377 14.8035C4.57099 14.6871 4.70678 14.4349 4.70678 14.0857C4.70678 13.3874 4.22181 12.5339 3.60106 12.1653C3.29068 11.9907 3.01909 11.9713 2.80571 12.0877L2.86391 12.0489Z" fill="#260C26"/>
<path d="M2.32074 13.077C2.32074 13.2516 2.37893 13.4456 2.39833 13.5038C2.43713 13.6202 2.49533 13.7754 2.61172 14.0082C2.74751 14.241 2.8833 14.3961 2.9415 14.4543C3.17428 14.7065 3.44586 14.8617 3.69804 14.9199C4.04722 14.9975 4.28 14.8617 4.3576 14.8035C4.55158 14.6871 4.68738 14.4349 4.68738 14.0858C4.68738 13.3874 4.20241 12.5339 3.58165 12.1653C3.27127 11.9907 2.99969 11.9713 2.78631 12.0877C2.74751 12.1265 2.61172 12.1847 2.51473 12.3205C2.43713 12.4369 2.37894 12.5145 2.34014 12.6697C2.34014 12.7473 2.32074 12.8831 2.32074 13.077ZM2.35954 13.0382C2.35954 12.4369 2.78631 12.1847 3.32947 12.4951C3.85323 12.8055 4.28 13.5426 4.28 14.144C4.28 14.7453 3.85323 14.9975 3.31007 14.6871C2.78631 14.3961 2.35954 13.659 2.35954 13.0382Z" fill="#3A273A"/>
<path d="M3.32947 12.4951C2.80571 12.1847 2.35954 12.4369 2.35954 13.0382C2.35954 13.6396 2.78631 14.3961 3.31008 14.6871C3.83384 14.9975 4.28001 14.7453 4.28001 14.1439C4.28001 13.5426 3.85324 12.8054 3.32947 12.4951Z" fill="#2E1F2E"/>
<path d="M2.55353 13.1546C2.55353 13.6396 2.9027 14.241 3.31007 14.4737C3.73684 14.7259 4.06662 14.5125 4.06662 14.0276C4.06662 13.5426 3.71745 12.9413 3.31007 12.7085C2.9027 12.4757 2.55353 12.6697 2.55353 13.1546Z" fill="#E6E3CB"/>
<path d="M3.19368 13.5232C3.19368 13.6202 3.25188 13.7172 3.32947 13.756C3.40707 13.7948 3.46526 13.756 3.46526 13.6784C3.46526 13.6008 3.40707 13.4844 3.32947 13.4456C3.25188 13.4068 3.19368 13.4456 3.19368 13.5232Z" fill="#9C9694"/>
<path d="M3.23248 13.5621C3.23248 13.6202 3.27128 13.6784 3.32948 13.7172C3.38767 13.7366 3.42647 13.7172 3.42647 13.659C3.42647 13.6009 3.38767 13.5427 3.32948 13.5039C3.27128 13.4845 3.23248 13.5039 3.23248 13.5621Z" fill="#3A273A"/>
<path d="M3.29068 13.2323L3.36827 13.2711C3.40707 13.2905 3.42647 13.2711 3.42647 13.2517L3.48466 13.0383C3.50406 12.9995 3.46527 12.9219 3.42647 12.9025L3.25188 12.8055C3.21308 12.7861 3.17428 12.8055 3.19368 12.8637L3.25188 13.1353C3.23248 13.1741 3.25188 13.2129 3.29068 13.2323Z" fill="#3A273A"/>
<path d="M3.60104 13.6202L3.62044 13.7172C3.63984 13.756 3.65924 13.7948 3.69804 13.8142L3.91142 13.9306C3.95022 13.95 3.98902 13.9112 3.96962 13.853L3.91142 13.6202C3.89202 13.5621 3.85323 13.5233 3.81443 13.5233L3.62044 13.5427C3.60104 13.5427 3.60104 13.5815 3.60104 13.6202Z" fill="#3A273A"/>
<path d="M3.54286 13.9888L3.48466 14.0082C3.46527 14.0082 3.44587 14.047 3.46526 14.0858L3.54286 14.3768C3.56226 14.435 3.60106 14.4738 3.63986 14.4738L3.79504 14.435C3.83384 14.435 3.83384 14.3574 3.79504 14.3186L3.62046 14.047C3.60106 14.0082 3.56226 13.9888 3.54286 13.9888Z" fill="#3A273A"/>
<path d="M3.17428 13.8336L3.11609 13.756C3.09669 13.7172 3.05789 13.6978 3.03849 13.7172L2.86391 13.7948C2.82511 13.8142 2.82511 13.8724 2.86391 13.9306L3.01909 14.144C3.05789 14.2022 3.09669 14.2022 3.11609 14.1634L3.19368 13.9694C3.21308 13.9112 3.19368 13.8724 3.17428 13.8336Z" fill="#3A273A"/>
<path d="M3.01909 13.368L3.03849 13.2904C3.05789 13.2516 3.03849 13.2128 2.99969 13.174L2.8057 12.9219C2.7669 12.8637 2.72811 12.8637 2.70871 12.9025L2.65052 13.0771C2.63112 13.1159 2.66991 13.1934 2.70871 13.2128L2.9221 13.368C2.98029 13.3874 2.99969 13.3874 3.01909 13.368Z" fill="#3A273A"/>
<path d="M3.09668 11.3505C3.32946 11.2147 3.67863 11.2341 4.04721 11.4475C4.78436 11.8743 5.36632 12.9024 5.36632 13.7365L4.57097 14.2021C4.57097 13.368 3.96962 12.3398 3.25187 11.9131C2.88329 11.6997 2.55351 11.6803 2.30133 11.8161L3.09668 11.3505Z" fill="#C67D31"/>
<path d="M3.25187 11.9131C2.51472 11.4863 1.91336 11.8355 1.91336 12.6696L2.14615 12.8054C2.14615 12.1071 2.63111 11.8355 3.23247 12.1847C3.83383 12.5338 4.3188 13.368 4.3188 14.0663L4.55158 14.2021C4.57098 13.3486 3.96962 12.3205 3.25187 11.9131Z" fill="#F9D54C"/>
<path d="M1.09862 4.71619V8.96449L4.57097 10.9625V6.73365L1.09862 4.71619Z" fill="#675475"/>
<path d="M1.09862 4.71619V8.96449L4.57097 6.94703V6.73365L1.09862 4.71619Z" fill="#7B658C"/>
<path d="M22.7475 24.0566L28.6059 20.6425V19.5173L22.7475 22.8345V24.0566Z" fill="#291429"/>
<path d="M22.3207 22.0585L28.2567 18.6832L11.3023 8.90625L5.42451 12.301L22.3207 22.0585Z" fill="#675475"/>
<path d="M5.42451 12.301V14.0469L22.7475 24.0566V22.8345L22.3207 22.0585L5.42451 12.301Z" fill="#52345A"/>
<path d="M28.6059 19.5173L28.2567 18.6832L22.3207 22.0779L22.7475 22.8345L28.6059 19.5173Z" fill="#52345A"/>
<path d="M15.7058 19.0323C15.7446 19.0323 15.8416 19.0323 15.958 19.0905C16.055 19.1293 16.1132 19.1487 16.1908 19.2069C16.5205 19.4009 16.7533 19.7113 16.8115 19.7889C16.9279 19.9635 16.9861 20.0605 17.0831 20.2739C17.0831 20.2739 17.1219 20.3709 17.1607 20.4872C17.1801 20.5648 17.1801 20.5842 17.2189 20.7006C17.2577 20.9334 17.2577 21.205 17.1801 21.3796C17.1607 21.4378 17.1413 21.4766 17.1219 21.5154C17.1025 21.5542 17.0831 21.593 17.0249 21.6706C16.9279 21.787 16.8309 21.8452 16.7727 21.8839C16.9667 21.7676 17.1025 21.5154 17.1025 21.1662C17.1025 20.4678 16.6175 19.6143 15.9968 19.2457C15.6864 19.0711 15.4148 19.0517 15.2014 19.1681C15.4148 19.0323 15.6088 19.0323 15.7058 19.0323Z" fill="#3A273A"/>
<path d="M15.182 19.1681C15.376 19.0518 15.667 19.0712 15.9774 19.2457C16.5981 19.5949 17.0831 20.4485 17.0831 21.1662C17.0831 21.5154 16.9667 21.7676 16.7533 21.884L16.6951 21.9228C16.8891 21.8064 17.0249 21.5542 17.0249 21.205C17.0249 20.5067 16.5399 19.6531 15.9192 19.2845C15.6088 19.11 15.3372 19.0906 15.1238 19.2069L15.182 19.1681Z" fill="#260C26"/>
<path d="M14.6389 20.1769C14.6389 20.3515 14.6971 20.5455 14.7165 20.6037C14.7553 20.7201 14.8135 20.8752 14.9298 21.108C15.0656 21.3408 15.2014 21.496 15.2596 21.5542C15.4924 21.8064 15.764 21.9616 16.0162 22.0198C16.3654 22.0974 16.5981 21.9616 16.6757 21.9034C16.8697 21.787 17.0055 21.5348 17.0055 21.1856C17.0055 20.4873 16.5205 19.6337 15.8998 19.2652C15.5894 19.0906 15.3178 19.0712 15.1044 19.1876C15.0656 19.2264 14.9298 19.2846 14.8329 19.4203C14.7553 19.5367 14.6971 19.6143 14.6583 19.7695C14.6583 19.8665 14.6389 19.9829 14.6389 20.1769ZM14.6777 20.1575C14.6777 19.5561 15.1044 19.304 15.6476 19.6143C16.1714 19.9247 16.5981 20.6619 16.5981 21.2632C16.5981 21.8646 16.1714 22.1168 15.6282 21.8064C15.1044 21.496 14.6777 20.7588 14.6777 20.1575Z" fill="#3A273A"/>
<path d="M15.6476 19.5949C15.1238 19.2845 14.6777 19.5367 14.6777 20.1381C14.6777 20.7394 15.1044 21.496 15.6282 21.787C16.152 22.0973 16.5981 21.8452 16.5981 21.2438C16.5981 20.6424 16.1714 19.9053 15.6476 19.5949Z" fill="#2E1F2E"/>
<path d="M14.8717 20.2545C14.8717 20.7395 15.2208 21.3408 15.6282 21.5736C16.055 21.8258 16.3848 21.6124 16.3848 21.1274C16.3848 20.6425 16.0356 20.0411 15.6282 19.8083C15.2208 19.5755 14.8717 19.7695 14.8717 20.2545Z" fill="#E6E3CB"/>
<path d="M15.4924 20.6425C15.4924 20.7395 15.5506 20.8365 15.6282 20.8753C15.7058 20.9141 15.764 20.8753 15.764 20.7977C15.764 20.7201 15.7058 20.6037 15.6282 20.5649C15.5506 20.5067 15.4924 20.5455 15.4924 20.6425Z" fill="#9C9694"/>
<path d="M15.5506 20.6619C15.5506 20.7201 15.5894 20.7783 15.6476 20.8171C15.7058 20.8365 15.7446 20.8171 15.7446 20.7589C15.7446 20.7007 15.7058 20.6425 15.6476 20.6037C15.5894 20.5843 15.5506 20.6037 15.5506 20.6619Z" fill="#3A273A"/>
<path d="M15.5894 20.3321L15.667 20.3709C15.7058 20.3903 15.7252 20.3709 15.7252 20.3515L15.7834 20.1381C15.8028 20.0993 15.764 20.0217 15.7252 20.0023L15.5506 19.9053C15.5118 19.8859 15.473 19.9053 15.4924 19.9635L15.5506 20.2351C15.5312 20.2739 15.57 20.3127 15.5894 20.3321Z" fill="#3A273A"/>
<path d="M15.9192 20.7201L15.9386 20.8171C15.958 20.8559 15.9774 20.8947 16.0162 20.9141L16.2296 21.0305C16.2684 21.0499 16.3072 21.0111 16.2878 20.9529L16.2296 20.7201C16.2102 20.6619 16.1714 20.6231 16.1326 20.6231L15.9386 20.6425C15.9192 20.6619 15.8998 20.6813 15.9192 20.7201Z" fill="#3A273A"/>
<path d="M15.8416 21.108L15.7834 21.1274C15.764 21.1274 15.7446 21.1662 15.764 21.205L15.8416 21.496C15.861 21.5542 15.8998 21.593 15.9386 21.593L16.0938 21.5542C16.1326 21.5542 16.1326 21.4766 16.0938 21.4378L15.9192 21.1662C15.9192 21.108 15.8804 21.0886 15.8416 21.108Z" fill="#3A273A"/>
<path d="M15.4924 20.9529L15.4342 20.8753C15.4148 20.8365 15.376 20.8171 15.3566 20.8365L15.182 20.9141C15.1432 20.9335 15.1432 20.9917 15.182 21.0499L15.3372 21.2632C15.376 21.3214 15.4148 21.3214 15.4342 21.2826L15.5118 21.0887C15.5118 21.0305 15.5118 20.9723 15.4924 20.9529Z" fill="#3A273A"/>
<path d="M15.3372 20.4679L15.3566 20.3903C15.376 20.3515 15.3566 20.3127 15.3178 20.2739L15.1238 20.0217C15.085 19.9635 15.0462 19.9635 15.0268 20.0023L14.9686 20.1769C14.9492 20.2157 14.988 20.2933 15.0268 20.3127L15.2402 20.4679C15.2984 20.5067 15.3178 20.5067 15.3372 20.4679Z" fill="#3A273A"/>
<path d="M18.0336 20.3903C18.0724 20.3903 18.1694 20.3903 18.2858 20.4485C18.3828 20.4873 18.441 20.5066 18.5186 20.5648C18.8484 20.7588 19.0812 21.0692 19.1394 21.1468C19.2557 21.3214 19.3139 21.4184 19.4109 21.6318C19.4109 21.6318 19.4497 21.7288 19.4885 21.8452C19.5079 21.9228 19.5079 21.9422 19.5467 22.0585C19.5855 22.2913 19.5855 22.5629 19.5079 22.7375C19.4885 22.7957 19.4691 22.8345 19.4497 22.8733C19.4303 22.9121 19.4109 22.9509 19.3527 23.0285C19.2558 23.1449 19.1588 23.2031 19.1006 23.2419C19.2945 23.1255 19.4303 22.8733 19.4303 22.5241C19.4303 21.8258 18.9454 20.9722 18.3246 20.6036C18.0142 20.4291 17.7427 20.4097 17.5293 20.526C17.7621 20.3903 17.956 20.3903 18.0336 20.3903Z" fill="#3A273A"/>
<path d="M17.5099 20.5261C17.7039 20.4097 17.9948 20.4291 18.3052 20.6037C18.926 20.9528 19.4109 21.8064 19.4109 22.5241C19.4109 22.8733 19.2945 23.1255 19.0812 23.2419L19.023 23.2807C19.217 23.1643 19.3527 22.9121 19.3527 22.5629C19.3527 21.8646 18.8678 21.011 18.247 20.6425C17.9366 20.4679 17.6651 20.4485 17.4517 20.5649L17.5099 20.5261Z" fill="#260C26"/>
<path d="M16.9861 21.5348C16.9861 21.7094 17.0443 21.9034 17.0637 21.9616C17.1025 22.078 17.1607 22.2332 17.2771 22.4659C17.4129 22.6987 17.5487 22.8539 17.6069 22.9121C17.8397 23.1643 18.1112 23.3195 18.3634 23.3777C18.7126 23.4553 18.9454 23.3195 19.023 23.2613C19.217 23.1449 19.3527 22.8927 19.3527 22.5435C19.3527 21.8452 18.8678 20.9916 18.247 20.6231C17.9366 20.4485 17.6651 20.4291 17.4517 20.5455C17.4129 20.5843 17.2771 20.6425 17.1801 20.7783C17.1025 20.8946 17.0443 20.9722 17.0055 21.1274C16.9861 21.205 16.9667 21.3408 16.9861 21.5348ZM17.0249 21.496C17.0249 20.8946 17.4517 20.6425 17.9948 20.9528C18.5186 21.2632 18.9454 22.0004 18.9454 22.6017C18.9454 23.2031 18.5186 23.4553 17.9754 23.1449C17.4517 22.8539 17.0249 22.1168 17.0249 21.496Z" fill="#3A273A"/>
<path d="M17.9754 20.9528C17.4517 20.6424 17.0055 20.8946 17.0055 21.496C17.0055 22.0973 17.4323 22.8539 17.956 23.1449C18.4798 23.4552 18.926 23.2031 18.926 22.6017C18.9454 22.0004 18.5186 21.2632 17.9754 20.9528Z" fill="#2E1F2E"/>
<path d="M18.5176 22.9988C18.8145 22.8274 18.812 22.2672 18.512 21.7477C18.212 21.2281 17.7282 20.9459 17.4313 21.1173C17.1344 21.2887 17.1369 21.8489 17.4369 22.3684C17.7368 22.888 18.2207 23.1702 18.5176 22.9988Z" fill="#E6E3CB"/>
<path d="M17.8396 21.9809C17.8396 22.0779 17.8978 22.1749 17.9754 22.2137C18.053 22.2525 18.1112 22.2137 18.1112 22.1361C18.1112 22.0585 18.053 21.9421 17.9754 21.9033C17.8978 21.8645 17.8396 21.9033 17.8396 21.9809Z" fill="#9C9694"/>
<path d="M17.8784 22.0198C17.8784 22.0779 17.9172 22.1361 17.9754 22.1749C18.0336 22.1943 18.0724 22.1749 18.0724 22.1167C18.0724 22.0586 18.0336 22.0004 17.9754 21.9616C17.9366 21.9422 17.8784 21.9616 17.8784 22.0198Z" fill="#3A273A"/>
<path d="M17.9366 21.69L18.0142 21.7288C18.053 21.7482 18.0724 21.7288 18.0724 21.7094L18.1306 21.496C18.15 21.4572 18.1112 21.3796 18.0724 21.3602L17.8978 21.2632C17.859 21.2438 17.8202 21.2632 17.8396 21.3214L17.8978 21.593C17.8784 21.6318 17.8978 21.6706 17.9366 21.69Z" fill="#3A273A"/>
<path d="M18.2664 22.078L18.2858 22.1749C18.3052 22.2137 18.3246 22.2525 18.3634 22.2719L18.5768 22.3883C18.6156 22.4077 18.6544 22.3689 18.635 22.3107L18.5768 22.078C18.5574 22.0198 18.5186 21.981 18.4798 21.981L18.2858 22.0004C18.2664 22.0004 18.247 22.0392 18.2664 22.078Z" fill="#3A273A"/>
<path d="M18.1888 22.4465L18.1306 22.4659C18.1112 22.4659 18.0918 22.5047 18.1112 22.5435L18.1888 22.8345C18.2082 22.8927 18.247 22.9315 18.2858 22.9315L18.441 22.8927C18.4798 22.8927 18.4798 22.8151 18.441 22.7763L18.2664 22.5047C18.247 22.4659 18.2082 22.4465 18.1888 22.4465Z" fill="#3A273A"/>
<path d="M17.8202 22.2913L17.7621 22.2137C17.7427 22.1749 17.7039 22.1555 17.6845 22.1749L17.5099 22.2525C17.4711 22.2719 17.4711 22.3301 17.5099 22.3883L17.6651 22.6017C17.7039 22.6599 17.7427 22.6599 17.7621 22.6211L17.8396 22.4271C17.859 22.3689 17.859 22.3301 17.8202 22.2913Z" fill="#3A273A"/>
<path d="M17.6651 21.8257L17.6845 21.7481C17.7039 21.7093 17.6845 21.6705 17.6457 21.6317L17.4517 21.3796C17.4129 21.3214 17.3741 21.3214 17.3547 21.3602L17.2965 21.5348C17.2771 21.5736 17.3159 21.6511 17.3547 21.6705L17.5681 21.8257C17.6263 21.8645 17.6651 21.8451 17.6651 21.8257Z" fill="#3A273A"/>
<path d="M22.2819 22.8151L21.312 20.8946L22.2819 17.8684L24.8232 14.881L27.9657 13.0576L30.507 13.1158L31.4769 15.0362L30.507 18.0624L22.2819 22.8151Z" fill="#F9D54C"/>
<path d="M29.8668 17.5386L30.6428 15.0944L30.022 13.8917L28.1791 13.8529L25.3275 15.4824L22.9803 18.2564L22.1461 20.8364L22.6117 21.7094L29.8668 17.5386Z" fill="#3A273A"/>
<path d="M6.51084 13.6977L22.2819 22.8151L21.312 20.8946L5.54091 11.7966L6.51084 13.6977Z" fill="#FBDD5F"/>
<path d="M6.51084 8.77045L22.2819 17.8684L21.312 20.8946L5.54091 11.7966L6.51084 8.77045Z" fill="#52345A"/>
<path d="M9.05206 5.76367L24.8232 14.881L22.2819 17.8684L6.51083 8.77046L9.05206 5.76367Z" fill="#744A80"/>
<path d="M12.1946 3.95959L27.9657 13.0576L24.8232 14.881L9.05206 5.76367L12.1946 3.95959Z" fill="#675475"/>
<path d="M14.7359 4.01779L30.507 13.1158L27.9657 13.0576L12.1946 3.95959L14.7359 4.01779Z" fill="#744A80"/>
<path d="M12.1559 6.52022C12.1559 7.00518 12.8348 7.39316 13.6883 7.39316C14.5419 7.39316 15.2208 7.00518 15.2208 6.52022C15.2208 6.03525 14.5419 5.64728 13.6883 5.64728C12.8348 5.64728 12.1559 6.03525 12.1559 6.52022Z" fill="url(#paint0_linear_1_50389)"/>
<path d="M12.1559 6.34566C12.1559 6.83062 12.8348 7.2186 13.6883 7.2186C14.5419 7.2186 15.2208 6.83062 15.2208 6.34566C15.2208 5.86069 14.5419 5.47272 13.6883 5.47272C12.8348 5.47272 12.1559 5.84129 12.1559 6.34566Z" fill="#FBDD5F"/>
<path d="M12.6214 6.34568C12.6214 6.67546 13.087 6.94704 13.6689 6.94704C14.2509 6.94704 14.7165 6.67546 14.7165 6.34568C14.7165 6.01591 14.2509 5.74432 13.6689 5.74432C13.087 5.74432 12.6214 5.99651 12.6214 6.34568Z" fill="url(#paint1_linear_1_50389)"/>
<path d="M12.6214 6.13224C12.6214 6.46202 13.087 6.7336 13.6689 6.7336C14.2509 6.7336 14.7165 6.46202 14.7165 6.13224C14.7165 5.80247 14.2509 5.53088 13.6689 5.53088C13.087 5.53088 12.6214 5.78307 12.6214 6.13224Z" fill="#99C4A8"/>
<path d="M12.893 6.13227C12.893 6.38445 13.2422 6.57843 13.669 6.57843C14.0957 6.57843 14.4449 6.38445 14.4449 6.13227C14.4449 5.88008 14.0957 5.6861 13.669 5.6861C13.2422 5.6861 12.893 5.88008 12.893 6.13227Z" fill="#617E6E"/>
<path d="M13.669 5.88008C13.3004 5.88008 13.0094 6.03527 12.9124 6.22926C12.893 6.19046 12.893 6.15166 12.893 6.13227C12.893 5.88008 13.2422 5.6861 13.669 5.6861C14.0957 5.6861 14.4449 5.88008 14.4449 6.13227C14.4449 6.17106 14.4255 6.20986 14.4255 6.22926C14.3479 6.03527 14.0375 5.88008 13.669 5.88008Z" fill="url(#paint2_linear_1_50389)"/>
<path d="M13.5526 6.19043C13.5526 6.22923 13.6107 6.26802 13.6883 6.26802C13.7659 6.26802 13.8241 6.22923 13.8241 6.19043C13.8241 6.15163 13.7853 6.07404 13.6883 6.07404C13.5914 6.07404 13.5526 6.15163 13.5526 6.19043Z" fill="#FBDD5F"/>
<path d="M13.7271 5.99646L13.8047 5.95766C13.8047 5.93826 13.8047 5.93826 13.8047 5.91886L12.7766 5.3175C12.7572 5.3175 12.7378 5.3175 12.7184 5.3175L12.6408 5.3563C12.6408 5.3757 12.6408 5.3757 12.6408 5.3951L13.6689 5.99646C13.6883 5.99646 13.6884 5.99646 13.7271 5.99646Z" fill="#F7CB5A"/>
<path d="M13.6496 5.97705V6.20983H13.7272V5.99645L13.6496 5.97705Z" fill="#6B947E"/>
<path d="M13.8047 5.93823L13.7271 5.99643V6.20981L13.8047 6.15162V5.93823Z" fill="#99C4A8"/>
<path d="M12.6214 5.39508L13.6495 5.97704V6.20982L12.6214 5.60847V5.39508Z" fill="#395E4A"/>
<path d="M18.4216 10.1478C19.268 10.1478 19.9541 9.75697 19.9541 9.27486C19.9541 8.79274 19.268 8.40192 18.4216 8.40192C17.5752 8.40192 16.8891 8.79274 16.8891 9.27486C16.8891 9.75697 17.5752 10.1478 18.4216 10.1478Z" fill="url(#paint3_linear_1_50389)"/>
<path d="M18.4216 9.95382C19.268 9.95382 19.9541 9.563 19.9541 9.08089C19.9541 8.59877 19.268 8.20795 18.4216 8.20795C17.5752 8.20795 16.8891 8.59877 16.8891 9.08089C16.8891 9.563 17.5752 9.95382 18.4216 9.95382Z" fill="#FBDD5F"/>
<path d="M17.3741 9.08091C17.3741 9.41069 17.8397 9.68227 18.4216 9.68227C19.0036 9.68227 19.4691 9.41069 19.4691 9.08091C19.4691 8.75113 19.0036 8.47955 18.4216 8.47955C17.8397 8.47955 17.3741 8.75113 17.3741 9.08091Z" fill="url(#paint4_linear_1_50389)"/>
<path d="M17.3741 8.86747C17.3741 9.19725 17.8397 9.46883 18.4216 9.46883C19.0036 9.46883 19.4691 9.19725 19.4691 8.86747C19.4691 8.5377 19.0036 8.26611 18.4216 8.26611C17.8397 8.26611 17.3741 8.5377 17.3741 8.86747Z" fill="#99C4A8"/>
<path d="M17.6457 8.8675C17.6457 9.11968 17.9948 9.31366 18.4216 9.31366C18.8484 9.31366 19.1976 9.11968 19.1976 8.8675C19.1976 8.61531 18.8484 8.42133 18.4216 8.42133C17.9948 8.42133 17.6457 8.61531 17.6457 8.8675Z" fill="#617E6E"/>
<path d="M18.4216 8.63472C18.053 8.63472 17.7621 8.78991 17.6651 8.9839C17.6457 8.9451 17.6457 8.9063 17.6457 8.8869C17.6457 8.63472 17.9948 8.44073 18.4216 8.44073C18.8484 8.44073 19.1976 8.63472 19.1976 8.8869C19.1976 8.9257 19.1782 8.9645 19.1782 8.9839C19.0812 8.77051 18.7902 8.63472 18.4216 8.63472Z" fill="url(#paint5_linear_1_50389)"/>
<path d="M18.3052 8.92566C18.3052 8.96445 18.3634 9.00325 18.441 9.00325C18.5186 9.00325 18.5768 8.96445 18.5768 8.92566C18.5768 8.88686 18.538 8.80927 18.441 8.80927C18.344 8.82866 18.3052 8.88686 18.3052 8.92566Z" fill="#FBDD5F"/>
<path d="M18.4604 8.73169L18.538 8.69289C18.538 8.67349 18.538 8.67349 18.538 8.65409L17.5099 8.05273C17.4905 8.05273 17.4711 8.05273 17.4517 8.05273L17.3741 8.09153C17.3741 8.11093 17.3741 8.11093 17.3741 8.13033L18.4022 8.73169C18.4216 8.73169 18.441 8.73169 18.4604 8.73169Z" fill="#F7CB5A"/>
<path d="M18.4022 8.73169V8.94508H18.4604V8.73169H18.4022Z" fill="#6B947E"/>
<path d="M18.5574 8.67352L18.4604 8.73172V8.9451L18.5574 8.90631V8.67352Z" fill="#99C4A8"/>
<path d="M17.3741 8.13031L18.4022 8.73167V8.94505L17.3741 8.34369V8.13031Z" fill="#395E4A"/>
<path d="M21.6418 12.01C21.6418 12.495 22.3207 12.883 23.1743 12.883C24.0278 12.883 24.7068 12.495 24.7068 12.01C24.7068 11.5251 24.0278 11.1371 23.1743 11.1371C22.3207 11.1371 21.6418 11.5251 21.6418 12.01Z" fill="url(#paint6_linear_1_50389)"/>
<path d="M23.1743 12.689C24.0206 12.689 24.7068 12.2982 24.7068 11.8161C24.7068 11.3339 24.0206 10.9431 23.1743 10.9431C22.3279 10.9431 21.6418 11.3339 21.6418 11.8161C21.6418 12.2982 22.3279 12.689 23.1743 12.689Z" fill="#FBDD5F"/>
<path d="M22.1268 11.8161C22.1268 12.1459 22.5923 12.4174 23.1743 12.4174C23.7562 12.4174 24.2218 12.1459 24.2218 11.8161C24.2218 11.4863 23.7562 11.2147 23.1743 11.2147C22.5923 11.2147 22.1268 11.4863 22.1268 11.8161Z" fill="url(#paint7_linear_1_50389)"/>
<path d="M22.1268 11.6026C22.1268 11.9324 22.5923 12.204 23.1743 12.204C23.7562 12.204 24.2218 11.9324 24.2218 11.6026C24.2218 11.2729 23.7562 11.0013 23.1743 11.0013C22.5923 11.0013 22.1268 11.2729 22.1268 11.6026Z" fill="#99C4A8"/>
<path d="M22.3983 11.6027C22.3983 11.8548 22.7475 12.0488 23.1743 12.0488C23.601 12.0488 23.9502 11.8548 23.9502 11.6027C23.9502 11.3505 23.601 11.1565 23.1743 11.1565C22.7475 11.1565 22.3983 11.3699 22.3983 11.6027Z" fill="#617E6E"/>
<path d="M23.1743 11.3699C22.8057 11.3699 22.5147 11.5251 22.4177 11.7191C22.3983 11.6803 22.3983 11.6415 22.3983 11.6221C22.3983 11.3699 22.7475 11.1759 23.1743 11.1759C23.601 11.1759 23.9502 11.3699 23.9502 11.6221C23.9502 11.6609 23.9308 11.6997 23.9308 11.7191C23.8338 11.5251 23.5429 11.3699 23.1743 11.3699Z" fill="url(#paint8_linear_1_50389)"/>
<path d="M23.0579 11.6802C23.0579 11.719 23.1161 11.7578 23.1937 11.7578C23.2713 11.7578 23.3295 11.719 23.3295 11.6802C23.3295 11.6414 23.2907 11.5638 23.1937 11.5638C23.0967 11.5638 23.0579 11.6414 23.0579 11.6802Z" fill="#FBDD5F"/>
<path d="M23.2131 11.4669L23.2907 11.4281C23.2907 11.4087 23.2907 11.4087 23.2907 11.3893L22.2625 10.7879C22.2431 10.7879 22.2237 10.7879 22.2043 10.7879L22.1268 10.8267C22.1268 10.8461 22.1268 10.8461 22.1268 10.8655L23.1549 11.4669C23.1743 11.4669 23.1937 11.4669 23.2131 11.4669Z" fill="#F7CB5A"/>
<path d="M22.1073 11.0595V10.8461L22.1267 10.8655V11.0983L22.1073 11.0595Z" fill="#395E4A"/>
<path d="M23.1549 11.4669V11.6802L23.2131 11.6996V11.4669H23.1549Z" fill="#6B947E"/>
<path d="M23.3101 11.428L23.2131 11.4668V11.6996L23.3101 11.6414V11.428Z" fill="#99C4A8"/>
<path d="M22.1268 10.8655L23.1549 11.4668V11.6802L22.1268 11.0983V10.8655Z" fill="#395E4A"/>
<defs>
<linearGradient id="paint0_linear_1_50389" x1="15.196" y1="6.52565" x2="12.1503" y2="6.52565" gradientUnits="userSpaceOnUse">
<stop stop-color="#B09261"/>
<stop offset="1" stop-color="#395E4A"/>
</linearGradient>
<linearGradient id="paint1_linear_1_50389" x1="14.7177" y1="6.33645" x2="12.6287" y2="6.33645" gradientUnits="userSpaceOnUse">
<stop stop-color="#395E4A"/>
<stop offset="1" stop-color="#B09261"/>
</linearGradient>
<linearGradient id="paint2_linear_1_50389" x1="14.4484" y1="5.95349" x2="12.898" y2="5.95349" gradientUnits="userSpaceOnUse">
<stop stop-color="#B09261"/>
<stop offset="1" stop-color="#395E4A"/>
</linearGradient>
<linearGradient id="paint3_linear_1_50389" x1="19.9455" y1="9.26781" x2="16.8998" y2="9.26781" gradientUnits="userSpaceOnUse">
<stop stop-color="#B09261"/>
<stop offset="1" stop-color="#395E4A"/>
</linearGradient>
<linearGradient id="paint4_linear_1_50389" x1="19.4672" y1="9.07856" x2="17.3782" y2="9.07856" gradientUnits="userSpaceOnUse">
<stop stop-color="#395E4A"/>
<stop offset="1" stop-color="#B09261"/>
</linearGradient>
<linearGradient id="paint5_linear_1_50389" x1="19.1978" y1="8.69561" x2="17.6475" y2="8.69561" gradientUnits="userSpaceOnUse">
<stop stop-color="#B09261"/>
<stop offset="1" stop-color="#395E4A"/>
</linearGradient>
<linearGradient id="paint6_linear_1_50389" x1="24.695" y1="12.0099" x2="21.6493" y2="12.0099" gradientUnits="userSpaceOnUse">
<stop stop-color="#B09261"/>
<stop offset="1" stop-color="#395E4A"/>
</linearGradient>
<linearGradient id="paint7_linear_1_50389" x1="24.2167" y1="11.8207" x2="22.1277" y2="11.8207" gradientUnits="userSpaceOnUse">
<stop stop-color="#395E4A"/>
<stop offset="1" stop-color="#B09261"/>
</linearGradient>
<linearGradient id="paint8_linear_1_50389" x1="23.9474" y1="11.4377" x2="22.397" y2="11.4377" gradientUnits="userSpaceOnUse">
<stop stop-color="#B09261"/>
<stop offset="1" stop-color="#395E4A"/>
</linearGradient>
</defs>
</svg>
