<svg width="39" height="32" viewBox="0 0 39 32" fill="none" xmlns="http://www.w3.org/2000/svg">
<path opacity="0.5" d="M15.5283 14.2428L19.0783 13.1177L23.0744 12.9431L34.8493 19.6938L34.1898 22.0217L34.3838 22.1187L33.7242 23.1274L36.1297 24.4271L36.5564 24.2331L36.7892 24.4465L36.343 25.591L38.3993 26.7743L38.9037 28.2874L32.1141 31.333L32.0559 31.5076L31.0666 31.721L30.8726 31.624L30.4071 31.7404C30.4071 31.7404 27.5361 30.2467 26.3139 29.6647C23.4042 31.6046 22.3566 30.6153 22.3566 30.6153L21.7553 25.1061L13.3751 20.8578C13.3751 20.8578 11.474 22.72 10.4847 22.914C9.49532 23.108 8.75817 20.3146 8.75817 20.3146C8.75817 20.3146 7.28388 21.2263 5.65439 20.8384C5.07243 18.1807 3.13257 17.1332 3.13257 17.1332L5.36341 15.4649L15.5283 14.2428Z" fill="#420C21"/>
<path d="M3.46234 14.5532L9.30133 11.1779L8.62238 11.3912L2.78339 14.786L3.46234 14.5532Z" fill="#52345A"/>
<path d="M20.4362 26.0954L26.2558 22.7201L26.2751 20.9742L20.4362 24.3689V26.0954Z" fill="#291429"/>
<path d="M20.4362 24.3689L26.2751 20.9742L9.30133 11.1779L3.46234 14.5532L20.4362 24.3689Z" fill="#675475"/>
<path d="M3.46234 14.5532L2.78339 14.786V15.9111L20.4362 26.0954V24.3689L3.46234 14.5532Z" fill="#52345A"/>
<path d="M5.18881 16.6095L4.10249 17.2497C3.83091 17.4048 3.67572 17.7346 3.67572 18.2002L4.76204 17.56C4.76204 17.0945 4.91723 16.7647 5.18881 16.6095Z" fill="#420C23"/>
<path d="M5.34402 16.9974C5.38282 16.9974 5.51861 17.0168 5.6932 17.0556C5.80959 17.0944 5.90658 17.1332 6.02297 17.2108C6.46914 17.4824 6.77952 17.8898 6.85712 18.0062C7.0317 18.2583 7.0899 18.3747 7.20629 18.6657C7.20629 18.6657 7.26449 18.8015 7.30329 18.9373C7.34208 19.0537 7.34208 19.0731 7.38088 19.2283C7.43908 19.5387 7.41968 19.9266 7.34208 20.1594C7.30329 20.2564 7.28389 20.2952 7.26449 20.3534C7.24509 20.4116 7.20629 20.4698 7.1287 20.5668C6.99291 20.722 6.85712 20.7996 6.77952 20.8578C7.0511 20.7026 7.22569 20.3728 7.22569 19.8878C7.22569 18.9373 6.56614 17.7734 5.73199 17.2884C5.30522 17.0556 4.93665 17.0168 4.66507 17.1914C4.95605 16.9974 5.22763 16.9974 5.34402 16.9974Z" fill="#3A273A"/>
<path d="M4.64567 17.172C4.91725 17.0168 5.30522 17.0362 5.71259 17.269C6.54674 17.754 7.20629 18.9179 7.20629 19.8684C7.20629 20.334 7.0317 20.6832 6.76012 20.8383L6.66313 20.8965C6.93471 20.7413 7.1093 20.4116 7.1093 19.9266C7.1093 18.9761 6.44974 17.8122 5.6156 17.3272C5.18883 17.0944 4.82026 17.0556 4.54868 17.2302L4.64567 17.172Z" fill="#260C26"/>
<path d="M3.90851 18.5687C3.92791 18.8015 3.98611 19.0537 4.0055 19.1313C4.0637 19.2865 4.1219 19.5192 4.29648 19.8102C4.49047 20.14 4.66506 20.334 4.74265 20.4116C5.05303 20.7414 5.4216 20.9741 5.79018 21.0517C6.25575 21.1487 6.58552 20.9741 6.68252 20.8965C6.9541 20.7414 7.12868 20.4116 7.12868 19.9266C7.12868 18.9761 6.46913 17.8122 5.63499 17.3272C5.20822 17.0944 4.83964 17.0556 4.56806 17.2302C4.50987 17.269 4.33528 17.366 4.19949 17.5406C4.0831 17.6958 4.0249 17.8122 3.96671 18.0061C3.92791 18.1225 3.88911 18.2971 3.90851 18.5687ZM3.94731 18.5105C3.94731 17.6764 4.52927 17.3466 5.24702 17.7734C5.96477 18.1807 6.54672 19.1895 6.54672 20.0236C6.54672 20.8578 5.96477 21.1875 5.24702 20.7608C4.52927 20.3534 3.94731 19.3447 3.94731 18.5105Z" fill="#3A273A"/>
<path d="M5.26641 17.7734C4.54866 17.366 3.96671 17.6958 3.96671 18.5105C3.96671 19.3447 4.54866 20.3534 5.26641 20.7608C5.98416 21.1682 6.56612 20.8384 6.56612 20.0236C6.56612 19.1895 5.98416 18.1808 5.26641 17.7734Z" fill="#2E1F2E"/>
<path d="M4.21887 18.6657C4.21887 19.3253 4.68444 20.14 5.2664 20.4698C5.84836 20.7995 6.31393 20.528 6.31393 19.8684C6.31393 19.2089 5.84836 18.3941 5.2664 18.0643C4.68444 17.7346 4.21887 18.0061 4.21887 18.6657Z" fill="#F7CB5A"/>
<path d="M5.07242 19.17C5.07242 19.2864 5.15001 19.4416 5.2664 19.4998C5.3634 19.558 5.46039 19.5192 5.46039 19.3834C5.46039 19.267 5.3828 19.1118 5.2664 19.0537C5.15001 18.9955 5.07242 19.0537 5.07242 19.17Z" fill="#9C9694"/>
<path d="M5.13062 19.2088C5.13062 19.2864 5.18881 19.3834 5.24701 19.4222C5.3052 19.461 5.3634 19.4222 5.3634 19.3446C5.3634 19.267 5.3052 19.17 5.24701 19.1312C5.18881 19.0925 5.13062 19.1312 5.13062 19.2088Z" fill="#3A273A"/>
<path d="M5.20822 18.7627L5.30521 18.8209C5.34401 18.8403 5.3828 18.8403 5.4022 18.7821L5.4798 18.4911C5.4992 18.4329 5.441 18.3359 5.3828 18.2971L5.13062 18.1613C5.07243 18.1225 5.03363 18.1613 5.03363 18.2389L5.11122 18.6269C5.13062 18.6851 5.16942 18.7433 5.20822 18.7627Z" fill="#3A273A"/>
<path d="M5.63498 19.2864L5.67378 19.4222C5.69317 19.4804 5.73197 19.5386 5.77077 19.558L6.08115 19.7132C6.13934 19.752 6.17814 19.6938 6.15874 19.6162L6.08115 19.3058C6.06175 19.2282 6.00355 19.17 5.94536 19.17L5.69318 19.2088C5.65438 19.1894 5.63498 19.2476 5.63498 19.2864Z" fill="#3A273A"/>
<path d="M5.55737 19.8102L5.47978 19.8296C5.44098 19.8296 5.44098 19.8878 5.44098 19.946L5.55737 20.334C5.57677 20.4116 5.65436 20.4698 5.69316 20.4698L5.88715 20.4116C5.94534 20.3922 5.94534 20.3146 5.88715 20.237L5.65437 19.8684C5.63497 19.8296 5.57677 19.7908 5.55737 19.8102Z" fill="#3A273A"/>
<path d="M5.053 19.5968L4.97541 19.4804C4.93661 19.4223 4.89782 19.4029 4.85902 19.4223L4.62624 19.5192C4.58744 19.5386 4.58744 19.6162 4.62624 19.6938L4.82022 19.9654C4.87842 20.043 4.93661 20.043 4.95601 20.0042L5.0724 19.752C5.1112 19.6938 5.0918 19.6356 5.053 19.5968Z" fill="#3A273A"/>
<path d="M4.83963 18.9373L4.87843 18.8403C4.89783 18.8015 4.87843 18.7433 4.83963 18.6851L4.58745 18.3553C4.52925 18.2971 4.47106 18.2777 4.45166 18.3359L4.37406 18.5687C4.35467 18.6269 4.39346 18.7239 4.45166 18.7627L4.76204 18.9567C4.78144 18.9955 4.83963 18.9761 4.83963 18.9373Z" fill="#3A273A"/>
<path d="M4.95604 16.2021C5.28582 16.0081 5.73199 16.0469 6.23635 16.3185C7.22569 16.9005 8.04043 18.2972 8.04043 19.4417L6.9541 20.0818C6.9541 18.9373 6.13936 17.5406 5.15003 16.9587C4.64566 16.6677 4.1995 16.6483 3.86972 16.8423L4.95604 16.2021Z" fill="#60494D"/>
<path d="M5.15002 16.9587C4.16069 16.3767 3.34595 16.8423 3.34595 17.9868L3.67572 18.1808C3.67572 17.2496 4.33528 16.8617 5.15002 17.3272C5.96476 17.7928 6.62432 18.9373 6.62432 19.8879L6.95409 20.0819C6.95409 18.9373 6.15875 17.5406 5.15002 16.9587Z" fill="#4A2C31"/>
<path d="M8.85517 18.7239L7.76884 19.3641C7.49726 19.5193 7.34207 19.8491 7.34207 20.3146L8.4284 19.6745C8.4284 19.2089 8.60298 18.8791 8.85517 18.7239Z" fill="#420C23"/>
<path d="M9.01034 19.1313C9.04914 19.1313 9.18493 19.1507 9.35952 19.1895C9.47591 19.2283 9.5729 19.2671 9.6893 19.3447C10.1355 19.6163 10.4458 20.0236 10.5234 20.14C10.698 20.3922 10.7562 20.5086 10.8726 20.7996C10.8726 20.7996 10.9308 20.9354 10.9696 21.0712C11.0084 21.1876 11.0084 21.207 11.0472 21.3621C11.1054 21.6725 11.086 22.0605 11.0084 22.2933C10.9696 22.3903 10.9502 22.4291 10.9308 22.4873C10.9114 22.5455 10.8726 22.6037 10.795 22.7007C10.6592 22.8558 10.5234 22.9334 10.4458 22.9916C10.7174 22.8364 10.892 22.5067 10.892 22.0217C10.892 21.0712 10.2325 19.9072 9.39832 19.4223C8.97155 19.1895 8.60297 19.1507 8.33139 19.3253C8.62237 19.1119 8.89395 19.1119 9.01034 19.1313Z" fill="#3A273A"/>
<path d="M8.31199 19.2865C8.58357 19.1313 8.97154 19.1507 9.37891 19.3835C10.2131 19.8685 10.8726 21.0324 10.8726 21.9829C10.8726 22.4485 10.698 22.7977 10.4264 22.9528L10.3294 23.011C10.601 22.8559 10.7756 22.5261 10.7756 22.0411C10.7756 21.0906 10.1161 19.9267 9.28192 19.4417C8.85515 19.2089 8.48658 19.1701 8.215 19.3447L8.31199 19.2865Z" fill="#260C26"/>
<path d="M7.57483 20.6832C7.59423 20.916 7.65243 21.1682 7.67182 21.2458C7.73002 21.401 7.78822 21.6337 7.9628 21.9247C8.15679 22.2545 8.33138 22.4485 8.40897 22.5261C8.71935 22.8559 9.08792 23.0886 9.4565 23.1662C9.92207 23.2632 10.2518 23.0886 10.3488 23.011C10.6204 22.8559 10.795 22.5261 10.795 22.0411C10.795 21.0906 10.1355 19.9267 9.30131 19.4417C8.87454 19.2089 8.50597 19.1701 8.23439 19.3447C8.17619 19.3835 8.0016 19.4805 7.86581 19.6551C7.74942 19.8103 7.69122 19.9267 7.63303 20.1207C7.59423 20.237 7.55543 20.4116 7.57483 20.6832ZM7.63303 20.625C7.63303 19.7909 8.21499 19.4611 8.93274 19.8879C9.65049 20.2952 10.2324 21.304 10.2324 22.1381C10.2324 22.9723 9.65049 23.302 8.93274 22.8753C8.21499 22.4679 7.63303 21.4592 7.63303 20.625Z" fill="#3A273A"/>
<path d="M8.93273 19.8878C8.21498 19.4805 7.63303 19.8102 7.63303 20.625C7.63303 21.4591 8.21498 22.4679 8.93273 22.8752C9.65048 23.2826 10.2324 22.9528 10.2324 22.1381C10.2324 21.3039 9.65048 20.2952 8.93273 19.8878Z" fill="#2E1F2E"/>
<path d="M7.88522 20.7802C7.88522 21.4398 8.35079 22.2545 8.93275 22.5843C9.51471 22.914 9.98028 22.6425 9.98028 21.9829C9.98028 21.3234 9.51471 20.5086 8.93275 20.1788C8.35079 19.8491 7.88522 20.1206 7.88522 20.7802Z" fill="#F7CB5A"/>
<path d="M8.73877 21.2846C8.73877 21.401 8.81636 21.5561 8.93276 21.6143C9.02975 21.6725 9.12674 21.6337 9.12674 21.498C9.12674 21.3816 9.04915 21.2264 8.93276 21.1682C8.83576 21.1294 8.73877 21.1682 8.73877 21.2846Z" fill="#9C9694"/>
<path d="M8.81638 21.3234C8.81638 21.401 8.87457 21.4979 8.93277 21.5367C8.99096 21.5755 9.04916 21.5367 9.04916 21.4591C9.04916 21.3816 8.99096 21.2846 8.93277 21.2458C8.85517 21.2264 8.81638 21.2458 8.81638 21.3234Z" fill="#3A273A"/>
<path d="M8.87457 20.8772L8.97156 20.9354C9.01036 20.9548 9.04916 20.9548 9.06855 20.8966L9.14615 20.6056C9.16555 20.5474 9.10735 20.4504 9.04916 20.4116L8.79697 20.2758C8.73878 20.237 8.69998 20.2758 8.69998 20.3534L8.77758 20.7414C8.79697 20.7996 8.83577 20.8578 8.87457 20.8772Z" fill="#3A273A"/>
<path d="M9.32072 21.4203L9.35952 21.5561C9.37892 21.6143 9.41771 21.6725 9.45651 21.6919L9.76689 21.8471C9.82509 21.8859 9.86388 21.8277 9.84448 21.7501L9.76689 21.4397C9.74749 21.3622 9.6893 21.304 9.6311 21.304L9.37892 21.3428C9.32072 21.3234 9.30132 21.3622 9.32072 21.4203Z" fill="#3A273A"/>
<path d="M9.22372 21.9247L9.14613 21.9441C9.10733 21.9441 9.10733 22.0023 9.10733 22.0605L9.22372 22.4485C9.24312 22.5261 9.32071 22.5843 9.35951 22.5843L9.5535 22.5261C9.61169 22.5067 9.61169 22.4291 9.5535 22.3515L9.32071 21.9829C9.30131 21.9441 9.26252 21.9053 9.22372 21.9247Z" fill="#3A273A"/>
<path d="M8.71936 21.7113L8.64176 21.5949C8.60297 21.5368 8.56417 21.5174 8.52537 21.5368L8.29259 21.6337C8.25379 21.6531 8.25379 21.7307 8.29259 21.8083L8.48657 22.0799C8.54477 22.1575 8.60297 22.1575 8.62237 22.1187L8.73876 21.8665C8.77755 21.8277 8.75816 21.7501 8.71936 21.7113Z" fill="#3A273A"/>
<path d="M8.50598 21.0712L8.54478 20.9742C8.56418 20.9354 8.54478 20.8772 8.50598 20.819L8.2538 20.4892C8.1956 20.431 8.13741 20.4116 8.11801 20.4698L8.04042 20.7026C8.02102 20.7608 8.05981 20.8578 8.11801 20.8966L8.42839 21.0906C8.46719 21.11 8.50598 21.11 8.50598 21.0712Z" fill="#3A273A"/>
<path d="M8.62237 18.336C8.95214 18.142 9.39831 18.1808 9.90268 18.4524C10.892 19.0343 11.7067 20.431 11.7067 21.5755L10.6204 22.2157C10.6204 21.0712 9.80568 19.6745 8.81635 19.0925C8.31199 18.8015 7.86582 18.7821 7.53604 18.9761L8.62237 18.336Z" fill="#60494D"/>
<path d="M8.83575 19.0925C7.84642 18.5106 7.03168 18.9761 7.03168 20.1206L7.36146 20.3146C7.36146 19.3835 8.02101 18.9955 8.83575 19.4611C9.65049 19.9267 10.31 21.0712 10.31 22.0217L10.6398 22.2157C10.6398 21.0518 9.82508 19.6551 8.83575 19.0925Z" fill="#4A2C31"/>
<path d="M19.8542 24.7957V20.5086L28.215 15.6783V19.9654L19.8542 24.7957Z" fill="#9C9A5A"/>
<path d="M20.1064 20.9742V24.0198L27.9434 19.4999V16.4543L20.1064 20.9742Z" fill="#7B794A"/>
<path d="M20.1064 21.2845V22.0023L27.9434 17.463L27.4779 16.9974L20.1064 21.2845Z" fill="#BCE670"/>
<path d="M20.1064 21.2845L27.4779 16.9974L27.9434 16.4543L20.1064 20.9936V21.2845Z" fill="#A4C862"/>
<path d="M20.1064 22.3127V23.011L27.9434 18.4717L27.4779 18.0062L20.1064 22.3127Z" fill="#BCE670"/>
<path d="M20.1064 22.3127L27.4779 18.0062L27.9434 17.463L20.1064 22.0023V22.3127Z" fill="#A4C862"/>
<path d="M20.1064 23.3214V24.0197L27.9434 19.4805L27.4779 19.0149L20.1064 23.3214Z" fill="#BCE670"/>
<path d="M20.1064 23.3214L27.4779 19.0149L27.9434 18.4717L20.1064 23.011V23.3214Z" fill="#A4C862"/>
<path d="M19.8542 24.7957L19.4274 24.5435V20.2564L19.8542 20.5086V24.7957Z" fill="#7B794A"/>
<path d="M28.215 15.6783L27.7882 15.4261L19.4274 20.2564L19.8542 20.5086L28.215 15.6783Z" fill="#A7A663"/>
<path d="M4.58747 16.4737V12.1866L0.882324 10.0527V14.3398L4.58747 16.4737Z" fill="#9C9A5A"/>
<path d="M4.3159 12.6715V15.6977L1.13452 13.8549V10.8287L4.3159 12.6715Z" fill="#7B794A"/>
<path d="M4.3159 12.9819V13.6803L1.13452 11.8374L1.61949 11.3718L4.3159 12.9819Z" fill="#BCE670"/>
<path d="M4.3159 12.9819L1.61949 11.3718L1.13452 10.8287L4.3159 12.6715V12.9819Z" fill="#A4C862"/>
<path d="M4.3159 13.9906V14.689L1.13452 12.8461L1.61949 12.3806L4.3159 13.9906Z" fill="#BCE670"/>
<path d="M4.3159 13.9906L1.61949 12.3806L1.13452 11.8374L4.3159 13.6803V13.9906Z" fill="#A4C862"/>
<path d="M4.3159 14.9994V15.6977L1.13452 13.8548L1.61949 13.3893L4.3159 14.9994Z" fill="#BCE670"/>
<path d="M4.3159 14.9994L1.61949 13.3893L1.13452 12.8461L4.3159 14.689V14.9994Z" fill="#A4C862"/>
<path d="M4.58746 16.4737L5.01423 16.2215V11.9538L4.58746 12.1866V16.4737Z" fill="#7B794A"/>
<path d="M0.882324 10.0527L1.3091 9.80054L5.01424 11.9538L4.58747 12.1866L0.882324 10.0527Z" fill="#A7A663"/>
<path d="M8.2926 18.6075V14.3398L4.58746 12.1866V16.4737L8.2926 18.6075Z" fill="#9C9A5A"/>
<path d="M8.02104 14.8054V17.8316L4.83966 16.0081V12.9625L8.02104 14.8054Z" fill="#7B794A"/>
<path d="M8.02104 15.1158V15.8141L4.83966 13.9712L5.32463 13.5057L8.02104 15.1158Z" fill="#BCE670"/>
<path d="M8.02104 15.1158L5.32463 13.5057L4.83966 12.9625L8.02104 14.8054V15.1158Z" fill="#A4C862"/>
<path d="M8.02104 16.1245V16.8228L4.83966 14.9994L5.32463 14.5144L8.02104 16.1245Z" fill="#BCE670"/>
<path d="M8.02104 16.1245L5.32463 14.5144L4.83966 13.9713L8.02104 15.8141V16.1245Z" fill="#A4C862"/>
<path d="M8.02104 17.1332V17.8316L4.83966 16.0081L5.32463 15.5425L8.02104 17.1332Z" fill="#BCE670"/>
<path d="M8.02104 17.1332L5.32463 15.5426L4.83966 14.9994L8.02104 16.8229V17.1332Z" fill="#A4C862"/>
<path d="M8.2926 18.6075L8.71938 18.3747V14.0876L8.2926 14.3398V18.6075Z" fill="#7B794A"/>
<path d="M4.58746 12.1866L5.01423 11.9538L8.71937 14.0876L8.2926 14.3398L4.58746 12.1866Z" fill="#A7A663"/>
<path d="M11.9977 20.7608V16.4737L8.2926 14.3398V18.6075L11.9977 20.7608Z" fill="#9C9A5A"/>
<path d="M11.7456 16.9393V19.9848L8.56418 18.142V15.1158L11.7456 16.9393Z" fill="#7B794A"/>
<path d="M11.7456 17.2496V17.9674L8.56418 16.1245L9.02974 15.6589L11.7456 17.2496Z" fill="#BCE670"/>
<path d="M11.7456 17.2496L9.02974 15.6589L8.56418 15.1158L11.7456 16.9587V17.2496Z" fill="#A4C862"/>
<path d="M11.7456 18.2778V18.9761L8.56418 17.1332L9.02974 16.6677L11.7456 18.2778Z" fill="#BCE670"/>
<path d="M11.7456 18.2778L9.02974 16.6677L8.56418 16.1245L11.7456 17.9674V18.2778Z" fill="#A4C862"/>
<path d="M11.7456 19.2865V19.9848L8.56418 18.142L9.02974 17.6764L11.7456 19.2865Z" fill="#BCE670"/>
<path d="M11.7456 19.2865L9.02974 17.6764L8.56418 17.1332L11.7456 18.9761V19.2865Z" fill="#A4C862"/>
<path d="M11.9977 20.7608L12.4245 20.5086V16.2215L11.9977 16.4737V20.7608Z" fill="#7B794A"/>
<path d="M8.2926 14.3398L8.71938 14.0876L12.4245 16.2215L11.9977 16.4737L8.2926 14.3398Z" fill="#A7A663"/>
<path d="M15.7029 22.8946V18.6075L11.9977 16.4737V20.7608L15.7029 22.8946Z" fill="#9C9A5A"/>
<path d="M15.4507 19.0925V22.1187L12.2693 20.2952V17.2496L15.4507 19.0925Z" fill="#7B794A"/>
<path d="M15.4507 19.4029V20.1012L12.2693 18.2584L12.7543 17.7928L15.4507 19.4029Z" fill="#BCE670"/>
<path d="M15.4507 19.4029L12.7543 17.7928L12.2693 17.2496L15.4507 19.0925V19.4029Z" fill="#A4C862"/>
<path d="M15.4507 20.4116V21.11L12.2693 19.2671L12.7543 18.8015L15.4507 20.4116Z" fill="#BCE670"/>
<path d="M15.4507 20.4116L12.7543 18.8015L12.2693 18.2584L15.4507 20.1012V20.4116Z" fill="#A4C862"/>
<path d="M15.4507 21.4203V22.1187L12.2693 20.2758L12.7543 19.8102L15.4507 21.4203Z" fill="#BCE670"/>
<path d="M15.4507 21.4203L12.7543 19.8103L12.2693 19.2671L15.4507 21.11V21.4203Z" fill="#A4C862"/>
<path d="M15.7029 22.8946L16.149 22.6425V18.3748L15.7029 18.6075V22.8946Z" fill="#7B794A"/>
<path d="M11.9977 16.4737L12.4245 16.2215L16.149 18.3747L15.7029 18.6075L11.9977 16.4737Z" fill="#A7A663"/>
<path d="M19.4274 25.0479V20.7608L15.7029 18.6075V22.8946L19.4274 25.0479Z" fill="#9C9A5A"/>
<path d="M19.1558 21.2264V24.2719L15.9745 22.4291V19.3835L19.1558 21.2264Z" fill="#7B794A"/>
<path d="M19.1558 21.5367V22.2351L15.9745 20.4116L16.4594 19.946L19.1558 21.5367Z" fill="#BCE670"/>
<path d="M19.1558 21.5367L16.4594 19.946L15.9745 19.3835L19.1558 21.2264V21.5367Z" fill="#A4C862"/>
<path d="M19.1558 22.5455V23.2632L15.9745 21.4203L16.4594 20.9548L19.1558 22.5455Z" fill="#BCE670"/>
<path d="M19.1558 22.5455L16.4594 20.9548L15.9745 20.4116L19.1558 22.2351V22.5455Z" fill="#A4C862"/>
<path d="M19.1558 23.5542V24.2719L15.9745 22.4291L16.4594 21.9635L19.1558 23.5542Z" fill="#BCE670"/>
<path d="M19.1558 23.5542L16.4594 21.9635L15.9745 21.4203L19.1558 23.2632V23.5542Z" fill="#A4C862"/>
<path d="M19.4274 25.0479L19.8542 24.7957V20.5086L19.4274 20.7608V25.0479Z" fill="#7B794A"/>
<path d="M15.7029 18.6075L16.149 18.3748L19.8542 20.5086L19.4274 20.7608L15.7029 18.6075Z" fill="#A7A663"/>
<path d="M27.4779 15.6201V10.6153L24.4129 10.9451L22.4924 12.0508L19.4274 15.2516V20.2564L27.4779 15.6201Z" fill="url(#paint0_linear_1_50510)"/>
<path d="M22.4924 12.0508L4.37407 1.59491L1.30908 4.79569L19.4274 15.2516L22.4924 12.0508Z" fill="#4A2C31"/>
<path d="M24.4129 10.9451L22.4924 12.0508L4.37408 1.59492L6.29455 0.489197L24.4129 10.9451Z" fill="#54373D"/>
<path d="M19.4274 20.2564L1.30908 9.80057V4.79572L19.4274 15.2516V20.2564Z" fill="#54373D"/>
<path d="M30.6592 21.2069V18.8209L31.7262 18.2001L31.7456 20.5862L30.6592 21.2069Z" fill="#B56139"/>
<path d="M30.6592 18.8209V21.207L30.3295 21.013V18.627L30.6592 18.8209Z" fill="#F7B75B"/>
<path d="M30.3295 18.6269L31.3964 18.0062L31.7262 18.2002L30.6592 18.8209L30.3295 18.6269Z" fill="#F7CB5A"/>
<path d="M24.8203 24.1556L30.6592 20.7608V18.3748L24.8203 21.7695V24.1556Z" fill="#848F5B"/>
<path d="M24.8203 21.7695L30.6593 18.3747L26.314 15.8723L20.475 19.2671L24.8203 21.7695Z" fill="#A7A663"/>
<path d="M27.9822 26.2118L33.8018 22.8171L30.6592 20.7608L24.8203 24.1556L27.9822 26.2118Z" fill="#A7A663"/>
<path d="M27.9628 31.0226L33.8018 27.6279V22.817L27.9822 26.2118L27.9628 31.0226Z" fill="url(#paint1_linear_1_50510)"/>
<path d="M20.475 19.2671L20.4556 26.6774L27.9628 31.0227L27.9822 26.2118L24.8203 24.1556V21.7695L20.475 19.2671Z" fill="#9C9A5A"/>
<path d="M24.8396 22.1963V24.1555L30.6592 20.7802V18.8209L24.8396 22.1963Z" fill="#823E1E"/>
<path d="M21.3673 20.1982L24.8396 22.1963V24.1556L21.3673 22.1575V20.1982Z" fill="#B56139"/>
<path d="M30.3295 20.5668L30.6592 20.7608V20.7802L28.9716 19.8102L30.3295 19.0149V20.5668Z" fill="#B56139"/>
<path d="M22.0268 26.4058L20.9405 27.0459C20.6689 27.2011 20.5137 27.5309 20.5137 27.9964L21.6001 27.3563C21.5807 26.8907 21.7552 26.561 22.0268 26.4058Z" fill="#420C23"/>
<path d="M22.182 26.8131C22.2208 26.8131 22.3566 26.8325 22.5312 26.8713C22.6476 26.9101 22.7446 26.9489 22.861 27.0265C23.3072 27.2981 23.6175 27.7055 23.6951 27.8219C23.8697 28.074 23.9279 28.1904 24.0443 28.4814C24.0443 28.4814 24.1025 28.6172 24.1413 28.753C24.1801 28.8694 24.1801 28.8888 24.2189 29.044C24.2771 29.3543 24.2577 29.7423 24.1801 29.9751C24.1413 30.0721 24.1219 30.1109 24.1025 30.1691C24.0831 30.2273 24.0443 30.2855 23.9667 30.3825C23.8309 30.5377 23.6951 30.6153 23.6175 30.6735C23.8891 30.5183 24.0637 30.1885 24.0637 29.7035C24.0637 28.753 23.4041 27.5891 22.57 27.1041C22.1432 26.8713 21.7747 26.8325 21.5031 27.0071C21.7941 26.7937 22.0656 26.7937 22.182 26.8131Z" fill="#3A273A"/>
<path d="M21.4643 26.9683C21.7359 26.8131 22.1238 26.8325 22.5312 27.0653C23.3653 27.5503 24.0249 28.7142 24.0249 29.6647C24.0249 30.1303 23.8503 30.4795 23.5787 30.6347L23.4817 30.6929C23.7533 30.5377 23.9279 30.2079 23.9279 29.7229C23.9279 28.7724 23.2683 27.6085 22.4342 27.1235C22.0074 26.8907 21.6389 26.8519 21.3673 27.0265L21.4643 26.9683Z" fill="#260C26"/>
<path d="M20.7465 28.365C20.7659 28.5978 20.8241 28.85 20.8435 28.9276C20.9017 29.0828 20.9599 29.3156 21.1345 29.6065C21.3285 29.9363 21.5031 30.1303 21.5807 30.2079C21.891 30.5377 22.2596 30.7705 22.6282 30.8481C23.0938 30.9451 23.4235 30.7705 23.5205 30.6929C23.7921 30.5377 23.9667 30.2079 23.9667 29.7229C23.9667 28.7724 23.3071 27.6085 22.473 27.1235C22.0462 26.8907 21.6777 26.8519 21.4061 27.0265C21.3479 27.0653 21.1733 27.1623 21.0375 27.3369C20.9211 27.4921 20.8629 27.6085 20.8047 27.8025C20.7659 27.9189 20.7271 28.0935 20.7465 28.365ZM20.7853 28.3068C20.7853 27.4727 21.3673 27.1429 22.085 27.5697C22.8028 27.9771 23.3847 28.9858 23.3847 29.8199C23.3847 30.6541 22.8028 30.9839 22.085 30.5571C21.3673 30.1497 20.7853 29.141 20.7853 28.3068Z" fill="#3A273A"/>
<path d="M22.1044 27.5697C21.3867 27.1623 20.8047 27.4921 20.8047 28.3068C20.8047 29.141 21.3867 30.1497 22.1044 30.5571C22.8222 30.9644 23.4041 30.6346 23.4041 29.8199C23.4041 28.9858 22.8222 27.977 22.1044 27.5697Z" fill="#2E1F2E"/>
<path d="M21.0569 28.462C21.0569 29.1216 21.5225 29.9363 22.1044 30.2661C22.6864 30.5959 23.1519 30.3243 23.1519 29.6647C23.1519 29.0052 22.6864 28.1904 22.1044 27.8607C21.5225 27.5309 21.0569 27.8025 21.0569 28.462Z" fill="#F7CB5A"/>
<path d="M21.9104 28.9664C21.9104 29.0828 21.988 29.238 22.1044 29.2962C22.2014 29.3544 22.2984 29.3156 22.2984 29.1798C22.2984 29.0634 22.2208 28.9082 22.1044 28.85C21.988 28.8112 21.9104 28.85 21.9104 28.9664Z" fill="#9C9694"/>
<path d="M21.9686 29.0052C21.9686 29.0828 22.0268 29.1798 22.085 29.2186C22.1432 29.2574 22.2014 29.2186 22.2014 29.141C22.2014 29.0634 22.1432 28.9664 22.085 28.9276C22.0268 28.9082 21.9686 28.9276 21.9686 29.0052Z" fill="#3A273A"/>
<path d="M22.0462 28.559L22.1432 28.6172C22.182 28.6366 22.2208 28.6366 22.2402 28.5784L22.3178 28.2874C22.3372 28.2292 22.279 28.1323 22.2208 28.0935L21.9686 27.9577C21.9104 27.9189 21.8716 27.9577 21.8716 28.0353L21.9492 28.4232C21.9492 28.4814 21.988 28.5396 22.0462 28.559Z" fill="#3A273A"/>
<path d="M22.473 29.1022L22.5118 29.238C22.5312 29.2962 22.57 29.3544 22.6088 29.3738L22.9192 29.5289C22.9774 29.5677 23.0162 29.5095 22.9968 29.4319L22.9192 29.1216C22.8998 29.044 22.8416 28.9858 22.7834 28.9858L22.5312 29.0246C22.473 29.0052 22.4536 29.044 22.473 29.1022Z" fill="#3A273A"/>
<path d="M22.376 29.6066L22.2984 29.626C22.2596 29.626 22.2596 29.6842 22.2596 29.7424L22.376 30.1303C22.3954 30.2079 22.473 30.2661 22.5118 30.2661L22.7058 30.2079C22.764 30.1885 22.764 30.1109 22.7058 30.0333L22.473 29.6648C22.4536 29.626 22.4148 29.6066 22.376 29.6066Z" fill="#3A273A"/>
<path d="M21.891 29.3932L21.8134 29.2768C21.7746 29.2186 21.7358 29.1992 21.697 29.2186L21.4642 29.3156C21.4255 29.335 21.4255 29.4126 21.4642 29.4902L21.6582 29.7617C21.7164 29.8393 21.7746 29.8393 21.794 29.8005L21.9104 29.5484C21.9298 29.5096 21.9298 29.432 21.891 29.3932Z" fill="#3A273A"/>
<path d="M21.6776 28.753L21.7164 28.656C21.7358 28.6172 21.7164 28.559 21.6776 28.5008L21.4255 28.1711C21.3673 28.1129 21.3091 28.0935 21.2897 28.1517L21.2121 28.3844C21.1927 28.4426 21.2315 28.5396 21.2897 28.5784L21.6001 28.7724C21.6194 28.7918 21.6582 28.7918 21.6776 28.753Z" fill="#3A273A"/>
<path d="M21.7941 26.0178C22.1238 25.8238 22.57 25.8626 23.0744 26.1342C24.0637 26.7161 24.8784 28.1128 24.8784 29.2574L23.7921 29.8975C23.7921 28.753 22.9774 27.3563 21.988 26.7743C21.4837 26.4834 21.0375 26.464 20.7077 26.6579L21.7941 26.0178Z" fill="#60494D"/>
<path d="M21.988 26.7743C20.9987 26.1924 20.184 26.6579 20.184 27.8025L20.5137 27.9965C20.5137 27.0653 21.1733 26.6773 21.988 27.1429C22.8028 27.6085 23.4623 28.753 23.4623 29.7035L23.7921 29.8975C23.7921 28.753 22.9774 27.3369 21.988 26.7743Z" fill="#4A2C31"/>
<path d="M28.021 30.8092L34.2868 27.1623V25.9402L28.021 29.5871V30.8092Z" fill="#420C23"/>
<path d="M28.021 29.5872L34.2868 25.9402L33.8018 25.6492V25.8626L27.9628 29.238L27.6912 29.0828L27.4391 29.238L28.021 29.5872Z" fill="#60494D"/>
<path d="M27.4391 29.238V30.4795L28.021 30.8093V29.5872L27.4391 29.238Z" fill="#4A2C31"/>
<path d="M29.4177 27.9771C29.4953 27.9383 29.5729 27.8025 29.5729 27.6861V26.1536C29.5729 26.0372 29.4953 25.9984 29.4177 26.0372C29.3401 26.076 29.2625 26.2118 29.2625 26.3282V27.8607C29.2625 27.9577 29.3207 28.0159 29.4177 27.9771Z" fill="#420C21"/>
<path d="M29.9027 27.686C29.9803 27.6472 30.0579 27.5115 30.0579 27.3951V25.8626C30.0579 25.7462 29.9803 25.7074 29.9027 25.7462C29.8251 25.785 29.7475 25.9208 29.7475 26.0372V27.5696C29.7669 27.686 29.8251 27.7248 29.9027 27.686Z" fill="#420C21"/>
<path d="M30.407 27.3951C30.4846 27.3563 30.5622 27.2205 30.5622 27.1041V25.5716C30.5622 25.4552 30.4846 25.4164 30.407 25.4552C30.3295 25.494 30.2519 25.6298 30.2519 25.7462V27.2787C30.2519 27.3951 30.3295 27.4533 30.407 27.3951Z" fill="#420C21"/>
<path d="M30.9114 27.1041C30.989 27.0653 31.0666 26.9295 31.0666 26.8131V25.2806C31.0666 25.1642 31.0084 25.1254 30.9114 25.1642C30.8338 25.203 30.7562 25.3388 30.7562 25.4552V26.9877C30.7562 27.1041 30.8144 27.1623 30.9114 27.1041Z" fill="#420C21"/>
<path d="M31.3964 26.8131C31.474 26.7743 31.5516 26.6385 31.5516 26.5221V24.9896C31.5516 24.8733 31.474 24.8345 31.3964 24.8733C31.3188 24.9121 31.2412 25.0478 31.2412 25.1642V26.6967C31.2606 26.8131 31.3188 26.8713 31.3964 26.8131Z" fill="#420C21"/>
<path d="M31.9008 26.5415C31.9784 26.5027 32.056 26.3669 32.056 26.2505V24.718C32.056 24.6016 31.9784 24.5628 31.9008 24.6016C31.8232 24.6404 31.7456 24.7762 31.7456 24.8926V26.4251C31.7456 26.5221 31.8232 26.5803 31.9008 26.5415Z" fill="#420C21"/>
<path d="M32.4051 26.2506C32.4827 26.2118 32.5603 26.076 32.5603 25.9596V24.4271C32.5603 24.3107 32.4827 24.2719 32.4051 24.3107C32.3275 24.3495 32.2499 24.4853 32.2499 24.6017V26.1342C32.2499 26.2506 32.3081 26.2894 32.4051 26.2506Z" fill="#420C21"/>
<path d="M28.215 27.8219C28.215 28.2292 28.4866 28.5008 28.797 28.3068C29.088 28.1322 29.0104 27.6279 29.0104 27.3563C29.0104 27.1041 28.8358 27.0071 28.603 27.1235C28.3896 27.2593 28.215 27.5697 28.215 27.8219Z" fill="url(#paint2_linear_1_50510)"/>
<path d="M28.215 27.8219C28.215 28.074 28.3896 28.171 28.6224 28.0546C28.8358 27.9189 29.0298 27.6085 29.0298 27.3563C29.0298 27.1041 28.8552 27.0071 28.6224 27.1235C28.3896 27.2593 28.215 27.5697 28.215 27.8219Z" fill="#522331"/>
<path d="M28.3314 27.7443C28.3314 27.9188 28.4672 27.9964 28.6224 27.8994C28.7776 27.8025 28.9134 27.5891 28.9134 27.4145C28.9134 27.2399 28.7776 27.1623 28.6224 27.2593C28.4478 27.3563 28.3314 27.5697 28.3314 27.7443Z" fill="#F25847"/>
<path d="M32.7543 25.203C32.7543 25.6104 33.0259 25.882 33.3363 25.688C33.6272 25.5134 33.5496 25.009 33.5496 24.7375C33.5496 24.4853 33.3751 24.3883 33.1423 24.5047C32.9289 24.6405 32.7543 24.9314 32.7543 25.203Z" fill="url(#paint3_linear_1_50510)"/>
<path d="M32.7543 25.203C32.7543 25.4552 32.9289 25.5522 33.1617 25.4358C33.3751 25.3 33.569 24.9896 33.569 24.7375C33.569 24.4853 33.3945 24.3883 33.1617 24.5047C32.9289 24.6405 32.7543 24.9314 32.7543 25.203Z" fill="#522331"/>
<path d="M32.8707 25.1254C32.8707 25.3 33.0065 25.3776 33.1617 25.2806C33.3169 25.1836 33.4527 24.9702 33.4527 24.7956C33.4527 24.6211 33.3169 24.5435 33.1617 24.6405C32.9871 24.7181 32.8707 24.9508 32.8707 25.1254Z" fill="#F25847"/>
<path d="M28.3314 29.7812L28.8164 29.4902V29.8975L28.3314 30.1885V29.7812Z" fill="#522331"/>
<path d="M28.4866 29.8588L28.9328 29.6066V29.9751L28.4866 30.2273V29.8588Z" fill="#E7D3BD"/>
<path d="M28.3508 29.7812L28.4866 29.8588L28.9328 29.6066L28.797 29.529L28.3508 29.7812Z" fill="#F7A42C"/>
<path d="M28.4866 29.8588L28.3508 29.7812V30.1498L28.4866 30.2274V29.8588Z" fill="url(#paint4_linear_1_50510)"/>
<path d="M33.4915 26.7937L33.9764 26.5027V26.9295L33.4915 27.2205V26.7937Z" fill="#522331"/>
<path d="M33.6467 26.8713L34.0928 26.6191V26.9877L33.6467 27.2399V26.8713Z" fill="#E7D3BD"/>
<path d="M33.5109 26.7937L33.6467 26.8713L34.0928 26.6192L33.957 26.5416L33.5109 26.7937Z" fill="#F7A42C"/>
<path d="M33.6467 26.8714L33.5109 26.7938V27.1623L33.6467 27.2399V26.8714Z" fill="url(#paint5_linear_1_50510)"/>
<path d="M23.7533 25.1836V22.817L24.8396 22.1962V24.5629L23.7533 25.1836Z" fill="#B56139"/>
<path d="M23.7533 22.817V25.1836L23.4236 24.9896V22.623L23.7533 22.817Z" fill="#F7B75B"/>
<path d="M23.4236 22.623L24.4905 22.0023L24.8397 22.1962L23.7533 22.817L23.4236 22.623Z" fill="#F7CB5A"/>
<path d="M24.4129 10.9451L27.4779 10.6153L9.35954 0.140015L6.29456 0.489189L24.4129 10.9451Z" fill="#4A2C31"/>
<path d="M20.8241 16.0857L26.3527 12.8655V12.0896L20.8241 15.3098V16.0857Z" fill="#823E1E"/>
<path d="M18.0113 16.0857L12.4827 12.8655V12.0896L18.0113 15.3098V16.0857Z" fill="#823E1E"/>
<path d="M8.97154 10.8481L3.44293 7.64728V6.87134L8.97154 10.0915V10.8481Z" fill="#B56139"/>
<path d="M18.0113 16.0857L12.4827 12.8655V12.0896L18.0113 15.3098V16.0857Z" fill="#B56139"/>
<defs>
<linearGradient id="paint0_linear_1_50510" x1="21.7432" y1="12.4846" x2="24.5303" y2="17.312" gradientUnits="userSpaceOnUse">
<stop stop-color="#47192E"/>
<stop offset="0.3415" stop-color="#491B2E"/>
<stop offset="0.5244" stop-color="#51202D"/>
<stop offset="0.6697" stop-color="#5F292D"/>
<stop offset="0.7952" stop-color="#72362C"/>
<stop offset="0.9068" stop-color="#8B462A"/>
<stop offset="1" stop-color="#A65829"/>
</linearGradient>
<linearGradient id="paint1_linear_1_50510" x1="29.84" y1="25.109" x2="31.9298" y2="28.7288" gradientUnits="userSpaceOnUse">
<stop stop-color="#7B794A"/>
<stop offset="1" stop-color="#B8974F"/>
</linearGradient>
<linearGradient id="paint2_linear_1_50510" x1="28.3902" y1="27.2525" x2="28.9444" y2="28.2124" gradientUnits="userSpaceOnUse">
<stop stop-color="#B53122"/>
<stop offset="0.1639" stop-color="#B63623"/>
<stop offset="0.3468" stop-color="#BB4327"/>
<stop offset="0.5389" stop-color="#C2592E"/>
<stop offset="0.7372" stop-color="#CC7937"/>
<stop offset="0.9386" stop-color="#DAA042"/>
<stop offset="1" stop-color="#DEAE46"/>
</linearGradient>
<linearGradient id="paint3_linear_1_50510" x1="32.9307" y1="24.631" x2="33.4849" y2="25.5909" gradientUnits="userSpaceOnUse">
<stop stop-color="#B53122"/>
<stop offset="0.1639" stop-color="#B63623"/>
<stop offset="0.3468" stop-color="#BB4327"/>
<stop offset="0.5389" stop-color="#C2592E"/>
<stop offset="0.7372" stop-color="#CC7937"/>
<stop offset="0.9386" stop-color="#DAA042"/>
<stop offset="1" stop-color="#DEAE46"/>
</linearGradient>
<linearGradient id="paint4_linear_1_50510" x1="28.4921" y1="30.0022" x2="28.3584" y2="30.0022" gradientUnits="userSpaceOnUse">
<stop stop-color="#B56139"/>
<stop offset="1" stop-color="#B53122"/>
</linearGradient>
<linearGradient id="paint5_linear_1_50510" x1="33.6515" y1="27.0234" x2="33.5177" y2="27.0234" gradientUnits="userSpaceOnUse">
<stop stop-color="#B56139"/>
<stop offset="1" stop-color="#B53122"/>
</linearGradient>
</defs>
</svg>
