<svg width="28" height="25" viewBox="0 0 28 25" fill="none" xmlns="http://www.w3.org/2000/svg">
<path d="M17.4044 15.4198V15.8198L13.2144 18.2498V17.8498L17.4044 15.4198Z" fill="#C0955E"/>
<path d="M13.2145 17.8498V18.2498L9.36446 16.0198L8.13446 16.4298L1.50446 12.5998V11.0898L13.2145 17.8498Z" fill="#56452F"/>
<path d="M17.4045 15.4198L13.2145 17.8498L1.50446 11.0898L5.69446 8.65982L17.4045 15.4198Z" fill="#E2B77A"/>
<path d="M4.35445 13.1498C4.21458 12.8292 4.02566 12.5323 3.79445 12.2698C3.61417 12.0606 3.40147 11.8816 3.16445 11.7398C3.02142 11.6364 2.85356 11.5726 2.67793 11.5551C2.50229 11.5375 2.32513 11.5667 2.16445 11.6398L1.31445 12.1298C1.47513 12.0567 1.65229 12.0275 1.82793 12.0451C2.00356 12.0626 2.17143 12.1264 2.31445 12.2298C2.55341 12.3689 2.76655 12.5482 2.94445 12.7598C3.17566 13.0223 3.36458 13.3192 3.50445 13.6398C3.66183 13.9821 3.74693 14.3532 3.75445 14.7298C3.77438 14.9083 3.74591 15.0888 3.672 15.2524C3.5981 15.4161 3.4815 15.5568 3.33445 15.6598L4.18445 15.1598C4.3315 15.0568 4.4481 14.9161 4.522 14.7524C4.59591 14.5888 4.62438 14.4083 4.60445 14.2298C4.59585 13.8565 4.51076 13.4889 4.35445 13.1498Z" fill="#201F1D"/>
<path d="M2.31445 12.2298C1.51445 11.7698 0.864441 12.1398 0.864441 13.0598C0.891922 13.5588 1.03663 14.0443 1.28682 14.4769C1.53701 14.9096 1.88564 15.2771 2.30444 15.5498C3.10444 16.0198 3.75444 15.6498 3.75444 14.7298C3.73091 14.2285 3.58796 13.7401 3.33748 13.3053C3.087 12.8704 2.73626 12.5017 2.31445 12.2298Z" fill="url(#paint0_linear_1_29705)"/>
<path d="M2.33441 12.9998C1.91441 12.7598 1.58441 12.9498 1.58441 13.4198C1.59502 13.6798 1.66774 13.9336 1.79648 14.1597C1.92522 14.3859 2.10624 14.5779 2.32441 14.7198C2.74441 14.9598 3.07441 14.7198 3.08441 14.2898C3.06798 14.0314 2.99167 13.7803 2.8615 13.5564C2.73134 13.3325 2.55089 13.142 2.33441 12.9998Z" fill="#171512"/>
<path d="M1.58444 13.4098C1.59367 13.6629 1.66174 13.9103 1.78324 14.1325C1.90475 14.3547 2.07635 14.5455 2.28444 14.6898C2.06841 14.5371 1.89027 14.337 1.76372 14.1047C1.63717 13.8724 1.56557 13.6141 1.55444 13.3498L1.58444 13.4098Z" fill="#B5B7B7"/>
<path d="M2.33447 12.9998C2.54446 13.1446 2.71731 13.3368 2.83894 13.561C2.96058 13.7852 3.02757 14.0349 3.03447 14.2898C3.03447 14.7598 2.68447 14.9298 2.28447 14.6898C2.07314 14.5441 1.89947 14.3502 1.77776 14.1242C1.65606 13.8982 1.58981 13.6465 1.58447 13.3898C1.60447 12.9998 1.93447 12.7898 2.33447 12.9998ZM2.33447 13.0798C1.97447 12.8598 1.67447 13.0198 1.65447 13.4398C1.661 13.6691 1.72143 13.8935 1.83089 14.0951C1.94034 14.2966 2.09573 14.4695 2.28447 14.5998C2.64447 14.8198 2.95447 14.6698 2.96447 14.2498C2.95715 14.0193 2.89645 13.7937 2.78712 13.5907C2.6778 13.3877 2.52285 13.2128 2.33447 13.0798Z" fill="#AB804B"/>
<path d="M1.65442 13.4898V13.5798C1.66439 13.7784 1.72012 13.972 1.81726 14.1454C1.9144 14.3189 2.05033 14.4676 2.21442 14.5798H2.28442C2.09588 14.4517 1.94045 14.2806 1.83092 14.0807C1.7214 13.8808 1.66091 13.6577 1.65442 13.4298V13.4898Z" fill="#B5B7B7"/>
<path d="M2.25442 13.2498C2.42075 13.3598 2.55837 13.5079 2.65578 13.6819C2.7532 13.8558 2.8076 14.0506 2.81442 14.2498C2.81442 14.6298 2.53442 14.7698 2.21442 14.5698C2.05139 14.4565 1.91627 14.3075 1.81925 14.1343C1.72224 13.9611 1.66587 13.768 1.65442 13.5698C1.66442 13.1898 1.93442 13.0498 2.25442 13.2498Z" fill="#AB804B"/>
<path d="M2.83442 13.7198C2.73051 13.4749 2.55656 13.2662 2.33442 13.1198L2.21442 13.0598C1.91442 12.9398 1.66442 13.0598 1.65442 13.4798V13.5498C1.65442 13.2198 1.88442 13.0698 2.15442 13.1798L2.25442 13.2398C2.45424 13.3673 2.61105 13.552 2.70442 13.7698C2.78385 13.9241 2.82176 14.0964 2.81442 14.2698C2.81442 14.6498 2.53442 14.7898 2.21442 14.5898H2.28442C2.64442 14.8098 2.95442 14.6598 2.96442 14.2398C2.9605 14.0589 2.91608 13.8813 2.83442 13.7198Z" fill="#C0955E"/>
<path d="M3.01446 13.6698C2.88232 13.3917 2.67872 13.1536 2.42446 12.9798C2.3856 12.949 2.34158 12.9253 2.29446 12.9098C1.93446 12.7598 1.65446 12.9098 1.63446 13.3898C1.63446 12.9798 1.91446 12.7898 2.25446 12.9298L2.38446 12.9998C2.62857 13.1638 2.82242 13.3923 2.94446 13.6598C3.03722 13.8569 3.08503 14.072 3.08446 14.2898C3.08446 14.7598 2.73446 14.9298 2.33446 14.6898C2.76446 14.9498 3.11446 14.7598 3.13446 14.2698C3.13294 14.064 3.09221 13.8604 3.01446 13.6698Z" fill="#C0955E"/>
<path d="M7.39443 14.8998C7.25074 14.5813 7.06216 14.2849 6.83443 14.0198C6.65149 13.8133 6.43923 13.6347 6.20444 13.4898C6.06141 13.3864 5.89355 13.3226 5.71791 13.3051C5.54227 13.2875 5.36512 13.3167 5.20444 13.3898L4.35443 13.8798C4.51511 13.8067 4.69227 13.7775 4.86791 13.7951C5.04355 13.8126 5.2114 13.8764 5.35443 13.9798C5.59361 14.1227 5.80667 14.3053 5.98444 14.5198C6.21769 14.7808 6.40683 15.078 6.54443 15.3998C6.70185 15.7386 6.78699 16.1064 6.79443 16.4798C6.81437 16.6583 6.78589 16.8388 6.71199 17.0024C6.63809 17.1661 6.52149 17.3068 6.37444 17.4098L7.22443 16.9198C7.37149 16.8168 7.48809 16.6761 7.56199 16.5124C7.63589 16.3488 7.66437 16.1683 7.64443 15.9898C7.63692 15.6132 7.55181 15.2421 7.39443 14.8998Z" fill="#201F1D"/>
<path d="M5.35442 13.9998C4.55442 13.5398 3.90442 13.9098 3.90442 14.8298C3.92795 15.3311 4.0709 15.8195 4.32138 16.2544C4.57186 16.6892 4.92261 17.0579 5.34442 17.3298C6.14442 17.7898 6.79442 17.4198 6.79442 16.4998C6.76848 15.9991 6.6245 15.5116 6.37424 15.0771C6.12399 14.6426 5.77454 14.2735 5.35442 13.9998Z" fill="url(#paint1_linear_1_29705)"/>
<path d="M5.37444 14.7798C4.95444 14.5398 4.61444 14.7298 4.61444 15.2098C4.63087 15.4683 4.70718 15.7194 4.83735 15.9432C4.96751 16.1671 5.14797 16.3577 5.36444 16.4998C5.78444 16.7398 6.11444 16.4998 6.11444 16.0698C6.10226 15.8115 6.02881 15.5598 5.90014 15.3355C5.77147 15.1112 5.59127 14.9207 5.37444 14.7798Z" fill="#171512"/>
<path d="M4.62442 15.1598C4.63208 15.4132 4.69947 15.6612 4.82111 15.8837C4.94275 16.1061 5.1152 16.2966 5.32442 16.4398C5.10729 16.2882 4.92834 16.0883 4.80166 15.8558C4.67498 15.6232 4.60404 15.3644 4.59442 15.0998L4.62442 15.1598Z" fill="#B5B7B7"/>
<path d="M5.37439 14.7898C5.58572 14.9355 5.7594 15.1294 5.8811 15.3554C6.00281 15.5815 6.06905 15.8332 6.07439 16.0898C6.07439 16.5498 5.72439 16.7298 5.32439 16.4798C5.1144 16.3351 4.94156 16.1428 4.81992 15.9186C4.69829 15.6945 4.63129 15.4448 4.62439 15.1898C4.63439 14.7198 5.01439 14.5498 5.37439 14.7898ZM5.37439 14.8798C5.01439 14.6498 4.70439 14.8098 4.69439 15.2298C4.70171 15.4603 4.76241 15.6859 4.87173 15.8889C4.98106 16.092 5.136 16.2668 5.32439 16.3998C5.68439 16.6198 5.98439 16.4598 6.00439 16.0398C5.99786 15.8106 5.93743 15.5861 5.82797 15.3846C5.71852 15.183 5.56313 15.0101 5.37439 14.8798Z" fill="#AB804B"/>
<path d="M4.6944 15.2498V15.3298C4.70282 15.5287 4.7579 15.7229 4.85518 15.8966C4.95246 16.0703 5.0892 16.2187 5.25439 16.3298H5.32439C5.13754 16.2 4.98339 16.0285 4.87407 15.829C4.76475 15.6294 4.70324 15.4072 4.6944 15.1798V15.2498Z" fill="#B5B7B7"/>
<path d="M5.2944 14.9998C5.45742 15.1132 5.59255 15.2621 5.68956 15.4353C5.78657 15.6086 5.84294 15.8016 5.85439 15.9998C5.85439 16.3698 5.57439 16.5098 5.25439 16.3098C5.09084 16.197 4.95532 16.0482 4.85825 15.8749C4.76117 15.7015 4.70512 15.5082 4.6944 15.3098C4.7044 14.9398 5.0144 14.7998 5.2944 14.9998Z" fill="#AB804B"/>
<path d="M5.8744 15.4698C5.76101 15.2336 5.58884 15.0304 5.3744 14.8798C5.33878 14.852 5.29798 14.8316 5.25439 14.8198C4.95439 14.6898 4.7044 14.8198 4.6944 15.2298V15.3298C4.6944 14.9998 4.9244 14.8498 5.1944 14.9598H5.2944C5.49224 15.0895 5.64849 15.2736 5.7444 15.4898C5.81803 15.6497 5.85557 15.8238 5.85439 15.9998C5.85439 16.3698 5.57439 16.5098 5.25439 16.3098H5.32439C5.68439 16.5298 5.98439 16.3698 6.00439 15.9498C5.99116 15.7831 5.94708 15.6204 5.8744 15.4698Z" fill="#C0955E"/>
<path d="M6.01441 15.4298C5.89233 15.1456 5.69097 14.9026 5.43441 14.7298L5.30441 14.6598C4.94441 14.5098 4.65441 14.7098 4.64441 15.1398V15.1998C4.64441 14.7798 4.92441 14.5998 5.26441 14.7398L5.39441 14.7998C5.63888 14.9677 5.83259 15.1994 5.95441 15.4698C6.04814 15.6665 6.09601 15.8819 6.09441 16.0998C6.09441 16.5598 5.74441 16.7398 5.34441 16.4898C5.76441 16.7498 6.12441 16.5698 6.13441 16.0798C6.14536 15.8568 6.10427 15.6342 6.01441 15.4298Z" fill="#C0955E"/>
<path d="M9.23442 18.1298L7.34442 17.0298V15.7198L9.23442 16.8198V18.1298Z" fill="#AB804B"/>
<path d="M9.23442 16.8198L7.34442 15.7198L7.52442 15.4098L9.41442 16.5198L9.23442 16.8198Z" fill="#8E693B"/>
<path d="M9.41441 16.5198L7.52441 15.4098L8.23441 14.9998L10.1244 16.0998L9.41441 16.5198Z" fill="#8E693B"/>
<path d="M10.1244 16.0998V17.6098L9.23444 18.1298V16.8198L9.41444 16.5198L10.1244 16.0998Z" fill="#7C5A31"/>
<path d="M11.4244 19.3998L9.54443 18.2998L9.53442 16.9898L11.4244 18.0898V19.3998Z" fill="#AB804B"/>
<path d="M11.4244 18.0898L9.53442 16.9898L9.71442 16.6798L11.6044 17.7798L11.4244 18.0898Z" fill="#8E693B"/>
<path d="M11.6044 17.7798L9.71442 16.6798L10.4344 16.2698L12.3244 17.3698L11.6044 17.7798Z" fill="#8E693B"/>
<path d="M12.3244 17.3698V18.8798L11.4244 19.3998V18.0898L11.6044 17.7798L12.3244 17.3698Z" fill="#7C5A31"/>
<g style="mix-blend-mode:multiply" opacity="0.5">
<path style="mix-blend-mode:multiply" d="M10.4345 16.2698L10.1245 16.4398V16.0998L8.23445 14.9998L7.56446 15.3898C7.51676 15.2235 7.46 15.0599 7.39445 14.8998C7.25075 14.5813 7.06218 14.2849 6.83445 14.0198C6.65151 13.8133 6.43925 13.6347 6.20446 13.4898C6.06143 13.3864 5.89357 13.3226 5.71793 13.3051C5.54229 13.2875 5.36513 13.3167 5.20446 13.3898L4.57445 13.7498C4.53403 13.5433 4.4703 13.342 4.38446 13.1498C4.24459 12.8292 4.05566 12.5323 3.82445 12.2698C3.64417 12.0606 3.43147 11.8816 3.19445 11.7398C3.05143 11.6364 2.88356 11.5726 2.70793 11.5551C2.53229 11.5375 2.35513 11.5667 2.19445 11.6398L1.34445 12.1298C1.1974 12.2328 1.0808 12.3736 1.0069 12.5372C0.932998 12.7009 0.904523 12.8814 0.924456 13.0598C0.951938 13.5588 1.09664 14.0443 1.34683 14.4769C1.59702 14.9096 1.94565 15.2771 2.36445 15.5498C2.50748 15.6533 2.67534 15.717 2.85098 15.7346C3.02662 15.7521 3.20377 15.7229 3.36445 15.6498L3.99446 15.2798C4.17259 16.1024 4.66862 16.8213 5.37445 17.2798C5.51748 17.3833 5.68534 17.447 5.86098 17.4646C6.03662 17.4821 6.21377 17.4529 6.37445 17.3798L7.22445 16.8898L7.34445 16.7798V16.9998L9.23445 18.0998L9.54445 17.9198V18.2698L11.4245 19.3698L12.3245 18.8498V17.3698L10.4345 16.2698Z" fill="url(#paint2_linear_1_29705)"/>
</g>
<path d="M0.0444336 10.5398V11.1198L11.7444 17.8798V17.2998L0.0444336 10.5398Z" fill="#AB804B"/>
<path d="M7.33443 6.30982L0.0444336 10.5398L11.7444 17.2998L19.0344 13.0598L7.33443 6.30982Z" fill="#E2B77A"/>
<path d="M0.224426 9.17982V10.4398L11.9244 17.1898V15.9298L0.224426 9.17982Z" fill="#AB804B"/>
<path d="M1.09447 9.43982V10.9298L0.954468 11.0098V9.51982L1.09447 9.43982Z" fill="#C0955E"/>
<path d="M0.734436 9.39982V10.8898L0.954437 11.0098V9.51982L0.734436 9.39982Z" fill="#AB804B"/>
<path d="M0.874435 9.31982L0.734436 9.39982L0.954437 9.51982L1.09444 9.43982L0.874435 9.31982Z" fill="#E2B77A"/>
<path d="M2.44444 10.2298V11.7198L2.30444 11.7998V10.3098L2.44444 10.2298Z" fill="#C0955E"/>
<path d="M2.09442 10.1798V11.6698L2.30442 11.7998V10.3098L2.09442 10.1798Z" fill="#AB804B"/>
<path d="M2.23442 10.0998L2.09442 10.1798L2.30442 10.3098L2.44442 10.2298L2.23442 10.0998Z" fill="#E2B77A"/>
<path d="M3.79443 11.0098V12.4998L3.66443 12.5798V11.0898L3.79443 11.0098Z" fill="#C0955E"/>
<path d="M3.44446 10.9598V12.4498L3.66446 12.5798V11.0898L3.44446 10.9598Z" fill="#AB804B"/>
<path d="M3.58446 10.8798L3.44446 10.9598L3.66446 11.0898L3.79446 11.0098L3.58446 10.8798Z" fill="#E2B77A"/>
<path d="M5.1544 11.7898V13.2798L5.0144 13.3598V11.8698L5.1544 11.7898Z" fill="#C0955E"/>
<path d="M4.80444 11.7398L4.79443 13.2298L5.01443 13.3598V11.8698L4.80444 11.7398Z" fill="#AB804B"/>
<path d="M4.93444 11.6598L4.80444 11.7398L5.01444 11.8698L5.15444 11.7898L4.93444 11.6598Z" fill="#E2B77A"/>
<path d="M6.50439 12.5698V14.0598L6.37439 14.1398V12.6498L6.50439 12.5698Z" fill="#C0955E"/>
<path d="M6.15442 12.5298V14.0198L6.37442 14.1398V12.6498L6.15442 12.5298Z" fill="#AB804B"/>
<path d="M6.29442 12.4498L6.15442 12.5298L6.37442 12.6498L6.50442 12.5698L6.29442 12.4498Z" fill="#E2B77A"/>
<path d="M7.86449 13.3498V14.8398L7.72449 14.9198V13.4298L7.86449 13.3498Z" fill="#C0955E"/>
<path d="M7.51446 13.3098L7.50446 14.7998L7.72446 14.9198V13.4298L7.51446 13.3098Z" fill="#AB804B"/>
<path d="M7.64446 13.2298L7.51447 13.3098L7.72446 13.4298L7.86446 13.3498L7.64446 13.2298Z" fill="#E2B77A"/>
<path d="M9.21443 14.1398V15.6298L9.07443 15.6998V14.2198L9.21443 14.1398Z" fill="#C0955E"/>
<path d="M8.86444 14.0898V15.5798L9.07444 15.6998V14.2198L8.86444 14.0898Z" fill="#AB804B"/>
<path d="M9.00444 14.0098L8.86444 14.0898L9.07444 14.2198L9.21444 14.1398L9.00444 14.0098Z" fill="#E2B77A"/>
<path d="M10.5744 14.9198V16.4098L10.4344 16.4898V14.9998L10.5744 14.9198Z" fill="#C0955E"/>
<path d="M10.2144 14.8698V16.3598L10.4344 16.4898V14.9998L10.2144 14.8698Z" fill="#AB804B"/>
<path d="M10.3544 14.7898L10.2144 14.8698L10.4344 14.9998L10.5744 14.9198L10.3544 14.7898Z" fill="#E2B77A"/>
<path d="M11.5744 15.6498V17.1398L11.7844 17.2698V15.7798L11.5744 15.6498Z" fill="#AB804B"/>
<path d="M11.7044 15.5698L11.5744 15.6498L11.7844 15.7798L11.9244 15.6998L11.7044 15.5698Z" fill="#E2B77A"/>
<path d="M16.4244 13.2898L19.0344 11.7698V11.1898L11.7444 15.4198V16.0098L11.7844 15.9798V17.2698L11.7444 17.2998V17.8798L19.0344 13.6498V13.0598L16.4244 14.5798V13.2898Z" fill="#7C5A31"/>
<path d="M11.7444 15.4198V16.0098L0.0444336 9.24982V8.66982L11.7444 15.4198Z" fill="#AB804B"/>
<path d="M19.0344 11.1898L11.7444 15.4198L0.0444336 8.66982L7.33443 4.43982L19.0344 11.1898Z" fill="#E2B77A"/>
<path d="M6.43443 1.08982L6.28442 0.999816C6.38363 0.925436 6.50129 0.879597 6.62467 0.867259C6.74805 0.854921 6.87246 0.876554 6.98443 0.929816L7.14442 1.01982C7.03093 0.965685 6.90481 0.943594 6.77968 0.955931C6.65455 0.968269 6.53516 1.01456 6.43443 1.08982Z" fill="#594831"/>
<path d="M0.274445 8.70982L0.114441 8.61982V5.69982L0.274445 5.77982V8.70982Z" fill="#51412C"/>
<path d="M1.25443 4.07982L1.10443 3.98982L6.28443 0.999817L6.43443 1.08982L1.25443 4.07982Z" fill="#594831"/>
<path d="M0.274445 5.77982L0.114441 5.69982C0.132629 5.35569 0.232896 5.0209 0.40686 4.72342C0.580825 4.42594 0.823436 4.17441 1.11444 3.98982L1.26444 4.07982C0.973059 4.26158 0.729947 4.51109 0.555824 4.8071C0.381702 5.10311 0.281732 5.43683 0.264442 5.77982H0.274445Z" fill="#56452F"/>
<path d="M6.43441 1.08982C6.98441 0.769819 7.43441 1.01982 7.43441 1.64982V4.57982L0.274414 8.70982V5.77982C0.291704 5.43683 0.391666 5.10311 0.565788 4.8071C0.739911 4.51109 0.983031 4.26158 1.27441 4.07982L6.43441 1.08982Z" fill="#56452F"/>
<path d="M8.58445 1.84982C8.06209 1.7351 7.58127 1.47912 7.19445 1.10982C7.11965 1.04796 7.03005 1.00661 6.93445 0.989819C6.7656 0.975925 6.59689 1.0181 6.45445 1.10982L1.31445 4.10982C1.02729 4.29853 0.787616 4.55106 0.614151 4.84768C0.440686 5.14431 0.338121 5.47701 0.314453 5.81982V8.69982L1.78445 9.53982C1.83826 9.57146 1.90197 9.58182 1.96304 9.56887C2.0241 9.55591 2.07811 9.52058 2.11445 9.46982L8.58445 1.84982Z" fill="url(#paint3_linear_1_29705)"/>
<path d="M8.07443 1.99982L7.92444 1.90982C8.02456 1.83741 8.14205 1.79279 8.265 1.78049C8.38795 1.7682 8.51196 1.78867 8.62444 1.83982L8.77444 1.92982C8.66196 1.87867 8.53795 1.8582 8.415 1.87049C8.29205 1.88279 8.17455 1.92741 8.07443 1.99982Z" fill="#594831"/>
<path d="M1.90446 9.65982L1.75446 9.56982V6.63982L1.90446 6.72982V9.65982Z" fill="#51412C"/>
<path d="M2.89444 5.01982L2.74445 4.92982L7.92445 1.93982L8.07444 2.02982L2.89444 5.01982Z" fill="#594831"/>
<path d="M1.90446 6.72982L1.75446 6.63982C1.77425 6.29607 1.8752 5.9619 2.04901 5.66467C2.22283 5.36745 2.46457 5.11562 2.75446 4.92982L2.90446 5.01982C2.61458 5.20562 2.37283 5.45745 2.19901 5.75467C2.0252 6.0519 1.92425 6.38607 1.90446 6.72982Z" fill="#56452F"/>
<path d="M8.07443 1.99982C8.62443 1.68982 9.07443 1.93982 9.07443 2.56982V5.49982L1.92444 9.62982V6.72982C1.94424 6.38607 2.04517 6.0519 2.21899 5.75467C2.3928 5.45745 2.63456 5.20562 2.92444 5.01982L8.07443 1.99982Z" fill="#56452F"/>
<path d="M10.2245 2.79982C9.69765 2.68348 9.21318 2.42394 8.82446 2.04982C8.75386 1.98921 8.66685 1.95093 8.57446 1.93981C8.4033 1.91824 8.22998 1.95715 8.08447 2.04982L2.95447 5.04982C2.66888 5.2402 2.43039 5.49313 2.25713 5.78942C2.08386 6.0857 1.98036 6.41756 1.95447 6.75981V9.67982L3.42447 10.5298C3.47944 10.5605 3.54396 10.5693 3.60513 10.5544C3.66631 10.5396 3.71963 10.5022 3.75446 10.4498L10.2245 2.79982Z" fill="url(#paint4_linear_1_29705)"/>
<path d="M9.70441 2.99982L9.55441 2.90982C9.65515 2.83456 9.77453 2.78827 9.89967 2.77593C10.0248 2.76359 10.1509 2.78568 10.2644 2.83982L10.4144 2.92982C10.3009 2.87568 10.1748 2.85359 10.0497 2.86593C9.92453 2.87827 9.80515 2.92456 9.70441 2.99982Z" fill="#594831"/>
<path d="M3.54441 10.5998L3.39441 10.5098V7.58982L3.54441 7.66982V10.5998Z" fill="#51412C"/>
<path d="M4.53439 5.96982L4.37439 5.87982L9.55439 2.88982L9.70439 2.97982L4.53439 5.96982Z" fill="#594831"/>
<path d="M3.54441 7.66982L3.39441 7.57982C3.4117 7.23683 3.51167 6.90311 3.68579 6.6071C3.85991 6.31109 4.10303 6.06157 4.39441 5.87982L4.55441 5.96982C4.26417 6.15282 4.02195 6.40264 3.84798 6.69838C3.67401 6.99413 3.57335 7.32722 3.55441 7.66982H3.54441Z" fill="#56452F"/>
<path d="M9.70444 2.99982C10.2544 2.67982 10.7044 2.92982 10.7044 3.55982V6.48982L3.54443 10.6198V7.66982C3.56337 7.32722 3.66403 6.99413 3.838 6.69839C4.01197 6.40264 4.25419 6.15283 4.54443 5.96982L9.70444 2.99982Z" fill="#56452F"/>
<path d="M11.8544 3.73982C11.3308 3.62274 10.8497 3.36318 10.4644 2.98982C10.389 2.93075 10.2993 2.89278 10.2044 2.87982C10.0322 2.86286 9.85931 2.90519 9.71441 2.99982L4.58441 5.99982C4.29725 6.18853 4.05758 6.44106 3.88412 6.73768C3.71065 7.03431 3.60808 7.36701 3.58441 7.70982V10.6198L5.05441 11.4698C5.10725 11.4986 5.16869 11.5074 5.22747 11.4945C5.28625 11.4817 5.33843 11.448 5.37441 11.3998L11.8544 3.73982Z" fill="url(#paint5_linear_1_29705)"/>
<path d="M11.3444 3.91981L11.1944 3.82982C11.2945 3.75741 11.412 3.71279 11.535 3.70049C11.6579 3.6882 11.7819 3.70866 11.8944 3.75981L12.0444 3.84981C11.9319 3.79866 11.8079 3.7782 11.685 3.79049C11.562 3.80279 11.4445 3.8474 11.3444 3.91981Z" fill="#594831"/>
<path d="M5.17442 11.5498L5.02441 11.4598V8.52982L5.17442 8.61982V11.5498Z" fill="#51412C"/>
<path d="M6.16441 6.90982L6.0144 6.81982L11.1944 3.82982L11.3444 3.91982L6.16441 6.90982Z" fill="#594831"/>
<path d="M5.17442 8.61982L5.02441 8.52982C5.04421 8.18607 5.14515 7.8519 5.31896 7.55467C5.49278 7.25745 5.73453 7.00562 6.02441 6.81982L6.17442 6.90982C5.88453 7.09562 5.64278 7.34745 5.46896 7.64467C5.29515 7.9419 5.19421 8.27607 5.17442 8.61982Z" fill="#56452F"/>
<path d="M11.3444 3.91982C11.8944 3.59982 12.3444 3.85982 12.3444 4.47982V7.40982L5.18439 11.5498V8.61982C5.20419 8.27607 5.30513 7.9419 5.47894 7.64467C5.65276 7.34745 5.89451 7.09562 6.18439 6.90982L11.3444 3.91982Z" fill="#56452F"/>
<path d="M13.4944 4.67982C12.9682 4.5678 12.4834 4.31158 12.0944 3.93981C12.022 3.87429 11.9313 3.83243 11.8344 3.81982C11.6657 3.80739 11.4974 3.84945 11.3544 3.93981L6.22443 6.93981C5.93779 7.12909 5.69852 7.38176 5.52512 7.67827C5.35173 7.97478 5.24884 8.3072 5.22443 8.64982V11.5698L6.69443 12.4098C6.74758 12.4439 6.81203 12.4557 6.8738 12.4426C6.93557 12.4295 6.98969 12.3926 7.02443 12.3398L13.4944 4.67982Z" fill="url(#paint6_linear_1_29705)"/>
<path d="M13.0144 4.85982L12.8644 4.76982C12.9645 4.69741 13.082 4.65279 13.205 4.64049C13.3279 4.6282 13.4519 4.64867 13.5644 4.69982L13.7244 4.78982C13.6102 4.7388 13.4846 4.71842 13.3601 4.73069C13.2356 4.74297 13.1165 4.78747 13.0144 4.85982Z" fill="#594831"/>
<path d="M6.81442 12.4898L6.65442 12.3998V9.46982L6.81442 9.55982V12.4898Z" fill="#51412C"/>
<path d="M7.79441 7.84982L7.64441 7.75982L12.8244 4.76982L12.9744 4.85982L7.79441 7.84982Z" fill="#594831"/>
<path d="M6.81442 9.55982L6.65442 9.46982C6.67422 9.12607 6.77516 8.7919 6.94897 8.49467C7.12279 8.19745 7.36454 7.94562 7.65442 7.75982L7.80442 7.84982C7.51564 8.03681 7.27474 8.28892 7.10107 8.5859C6.92739 8.88288 6.82579 9.21645 6.80442 9.55982H6.81442Z" fill="#56452F"/>
<path d="M13.0144 4.85982C13.5644 4.54982 14.0144 4.79982 14.0144 5.42982V8.35982L6.85443 12.4898V9.55982C6.8758 9.21645 6.97741 8.88288 7.15108 8.5859C7.32476 8.28892 7.56565 8.03681 7.85443 7.84982L13.0144 4.85982Z" fill="#56452F"/>
<path d="M15.1244 5.62982C14.5989 5.51013 14.1152 5.25105 13.7244 4.87982C13.6538 4.81921 13.5668 4.78093 13.4744 4.76982C13.3034 4.7499 13.1306 4.78869 12.9844 4.87982L7.85443 7.87982C7.5651 8.06622 7.32378 8.31819 7.15004 8.61529C6.9763 8.91239 6.87502 9.24626 6.85443 9.58982V12.4998L8.32443 13.3498C8.37727 13.3786 8.43872 13.3874 8.4975 13.3745C8.55628 13.3617 8.60845 13.328 8.64443 13.2798L15.1244 5.62982Z" fill="url(#paint7_linear_1_29705)"/>
<path d="M14.6144 5.80982L14.4544 5.71982C14.5552 5.64456 14.6745 5.59827 14.7997 5.58593C14.9248 5.57359 15.0509 5.59569 15.1644 5.64982L15.3144 5.73982C15.2025 5.68656 15.0781 5.66492 14.9547 5.67726C14.8313 5.6896 14.7136 5.73544 14.6144 5.80982Z" fill="#594831"/>
<path d="M8.44444 13.4298L8.29443 13.3398V10.4198L8.44444 10.5098V13.4298Z" fill="#51412C"/>
<path d="M9.43443 8.79982L9.28442 8.70982L14.4544 5.71982L14.6144 5.80982L9.43443 8.79982Z" fill="#594831"/>
<path d="M8.44444 10.5098L8.29443 10.4198C8.31262 10.0757 8.41289 9.7409 8.58685 9.44342C8.76082 9.14594 9.00343 8.8944 9.29443 8.70982L9.44444 8.79982C9.15343 8.98441 8.91081 9.23594 8.73685 9.53342C8.56288 9.8309 8.46262 10.1657 8.44444 10.5098Z" fill="#56452F"/>
<path d="M14.6144 5.80982C15.1644 5.48982 15.6144 5.73981 15.6144 6.36981V9.29981L8.45444 13.4298V10.5098C8.47263 10.1657 8.57288 9.8309 8.74685 9.53342C8.92081 9.23594 9.16343 8.9844 9.45444 8.79981L14.6144 5.80982Z" fill="#56452F"/>
<path d="M16.7644 6.56982C16.2399 6.45299 15.7564 6.19742 15.3644 5.82982C15.2945 5.7606 15.2025 5.71812 15.1044 5.70982C14.9353 5.69272 14.7656 5.73516 14.6244 5.82982L9.49445 8.82982C9.20781 9.0191 8.96854 9.27176 8.79514 9.56827C8.62174 9.86478 8.51886 10.1972 8.49445 10.5398V13.4598L9.96444 14.2998C10.0188 14.3293 10.0819 14.3384 10.1423 14.3256C10.2028 14.3128 10.2567 14.2788 10.2944 14.2298L16.7644 6.56982Z" fill="url(#paint8_linear_1_29705)"/>
<path d="M16.2444 6.74982L16.0944 6.65982C16.1945 6.58741 16.312 6.54279 16.435 6.53049C16.5579 6.5182 16.6819 6.53867 16.7944 6.58982L16.9544 6.67982C16.8402 6.6288 16.7146 6.60842 16.5901 6.62069C16.4656 6.63297 16.3465 6.67747 16.2444 6.74982Z" fill="#594831"/>
<path d="M10.0844 14.3798L9.93443 14.2898L9.92444 11.3598L10.0844 11.4498V14.3798Z" fill="#51412C"/>
<path d="M11.0644 9.73982L10.9144 9.64982L16.0944 6.65982L16.2444 6.74982L11.0644 9.73982Z" fill="#594831"/>
<path d="M10.0844 11.4498L9.92444 11.3598C9.94424 11.0161 10.0452 10.6819 10.219 10.3847C10.3928 10.0874 10.6346 9.83562 10.9244 9.64982L11.0744 9.73982C10.7857 9.92681 10.5448 10.1789 10.3711 10.4759C10.1974 10.7729 10.0958 11.1064 10.0744 11.4498H10.0844Z" fill="#56452F"/>
<path d="M16.2444 6.74982C16.7944 6.42982 17.2444 6.68981 17.2444 7.31981V10.2398L10.0844 14.3798V11.4498C10.1058 11.1064 10.2074 10.7729 10.3811 10.4759C10.5548 10.1789 10.7957 9.92681 11.0844 9.73982L16.2444 6.74982Z" fill="#56452F"/>
<path d="M18.3944 7.51982C17.8689 7.40013 17.3853 7.14105 16.9945 6.76982C16.922 6.71019 16.8363 6.66902 16.7445 6.64982C16.5726 6.63733 16.4011 6.67932 16.2544 6.76982L11.1245 9.76982C10.8357 9.95681 10.5948 10.2089 10.4211 10.5059C10.2474 10.8029 10.1458 11.1364 10.1245 11.4798V14.3998L11.5945 15.2398C11.62 15.2564 11.6486 15.2678 11.6786 15.2733C11.7085 15.2788 11.7393 15.2783 11.7691 15.2718C11.7989 15.2652 11.8271 15.2529 11.852 15.2354C11.877 15.2179 11.8982 15.1956 11.9145 15.1698L18.3944 7.51982Z" fill="url(#paint9_linear_1_29705)"/>
<path d="M17.8845 7.68982L17.7245 7.59982C17.827 7.52814 17.9467 7.48484 18.0714 7.4743C18.1961 7.46377 18.3213 7.48637 18.4345 7.53982L18.5845 7.61982C18.4715 7.57064 18.3479 7.55125 18.2253 7.5635C18.1028 7.57576 17.9854 7.61925 17.8845 7.68982Z" fill="#594831"/>
<path d="M11.7144 15.3198L11.5645 15.2298V12.2998L11.7144 12.3898V15.3198Z" fill="#51412C"/>
<path d="M12.7044 10.6898L12.5444 10.5898L17.7244 7.59982L17.8844 7.68982L12.7044 10.6898Z" fill="#594831"/>
<path d="M11.7144 12.3898L11.5645 12.2998C11.5842 11.9574 11.6852 11.6246 11.8591 11.329C12.033 11.0334 12.2748 10.7834 12.5645 10.5998L12.7244 10.6798C12.4346 10.8656 12.1928 11.1174 12.019 11.4147C11.8452 11.7119 11.7442 12.0461 11.7244 12.3898H11.7144Z" fill="#56452F"/>
<path d="M17.8845 7.68982C18.4345 7.37982 18.8845 7.62982 18.8845 8.25982V11.1898L11.7245 15.3198V12.3898C11.7443 12.0461 11.8452 11.7119 12.019 11.4147C12.1928 11.1174 12.4346 10.8656 12.7245 10.6798L17.8845 7.68982Z" fill="#56452F"/>
<path d="M22.2844 13.6998V12.6298L22.1944 12.5798V13.6498C22.1864 13.667 22.1822 13.6858 22.1822 13.7048C22.1822 13.7238 22.1864 13.7426 22.1944 13.7598L22.2844 13.8098C22.2764 13.7926 22.2722 13.7738 22.2722 13.7548C22.2722 13.7358 22.2764 13.717 22.2844 13.6998Z" fill="#AB804B"/>
<path d="M22.7344 12.1398C22.7166 12.1282 22.6957 12.122 22.6744 12.122C22.6531 12.122 22.6323 12.1282 22.6144 12.1398L22.3644 12.2798C22.3152 12.3113 22.2741 12.354 22.2446 12.4044C22.215 12.4548 22.1979 12.5115 22.1944 12.5698L22.2844 12.6198C22.2893 12.5619 22.3072 12.5057 22.3366 12.4556C22.366 12.4054 22.4063 12.3624 22.4544 12.3298L22.6944 12.1898C22.7123 12.1782 22.7331 12.172 22.7544 12.172C22.7757 12.172 22.7966 12.1782 22.8144 12.1898L22.7344 12.1398Z" fill="#E2B77A"/>
<path d="M22.6944 12.1998C22.7944 12.1398 22.8644 12.1998 22.8644 12.2998V13.3598C22.8618 13.4197 22.845 13.4781 22.8154 13.5302C22.7859 13.5823 22.7444 13.6268 22.6944 13.6598L22.4544 13.7998C22.3544 13.8498 22.2844 13.7998 22.2844 13.6998V12.6298C22.2893 12.5719 22.3072 12.5157 22.3366 12.4656C22.366 12.4154 22.4063 12.3724 22.4544 12.3398L22.6944 12.1998Z" fill="#C0955E"/>
<path d="M21.6844 13.6398C21.6782 13.6352 21.6732 13.6291 21.6697 13.6222C21.6662 13.6152 21.6644 13.6076 21.6644 13.5998C21.6644 13.5921 21.6662 13.5844 21.6697 13.5775C21.6732 13.5705 21.6782 13.5645 21.6844 13.5598L22.2444 12.7798C22.2444 12.7798 22.3444 12.7798 22.3344 12.8498L21.7744 13.6298C21.7714 13.6388 21.7658 13.6468 21.7584 13.6527C21.751 13.6587 21.742 13.6624 21.7326 13.6634C21.7232 13.6645 21.7136 13.6628 21.7051 13.6586C21.6965 13.6544 21.6894 13.6479 21.6844 13.6398Z" fill="#37393A"/>
<path d="M26.3244 18.1598C26.1846 17.8392 25.9956 17.5423 25.7644 17.2798C25.5865 17.0682 25.3734 16.8889 25.1344 16.7498C24.9914 16.6464 24.8235 16.5826 24.6479 16.5651C24.4723 16.5475 24.2951 16.5767 24.1344 16.6498L23.2944 17.1398C23.4551 17.0667 23.6323 17.0375 23.8079 17.0551C23.9835 17.0726 24.1514 17.1364 24.2944 17.2398C24.5292 17.3847 24.7415 17.5633 24.9244 17.7698C25.1522 18.0349 25.3407 18.3313 25.4844 18.6498C25.6418 18.9921 25.7269 19.3632 25.7344 19.7398C25.7544 19.9183 25.7259 20.0988 25.652 20.2624C25.5781 20.4261 25.4615 20.5668 25.3144 20.6698L26.1544 20.1698C26.2999 20.0676 26.4155 19.9285 26.4893 19.7668C26.5631 19.6051 26.5925 19.4267 26.5744 19.2498C26.5718 18.8726 26.4865 18.5005 26.3244 18.1598Z" fill="url(#paint10_linear_1_29705)"/>
<path style="mix-blend-mode:screen" opacity="0.9" d="M26.0144 18.5998L26.1244 18.6998C26.119 18.753 26.119 18.8066 26.1244 18.8598L26.0244 18.7598C26.0244 18.7598 26.0144 18.6498 26.0144 18.5998ZM26.1344 18.5998C26.1344 18.5998 26.1344 18.4798 26.1344 18.4398L26.0244 18.3398C26.0244 18.3398 26.0244 18.4598 26.0244 18.4998L26.1344 18.5998ZM26.0444 18.1198C26.0497 18.1697 26.0497 18.22 26.0444 18.2698L26.1644 18.3698C26.1644 18.3698 26.1644 18.2598 26.1644 18.2098L26.0444 18.1198ZM26.1344 18.8498L26.2244 18.9498C26.2244 18.8998 26.2244 18.8298 26.2244 18.7898L26.1344 18.6898C26.1244 18.7798 26.1144 18.8498 26.1044 18.8898L26.1344 18.8498ZM26.0144 17.7298C26.0191 17.7797 26.0191 17.8299 26.0144 17.8798L26.1444 17.9698V17.8198L26.0144 17.7298ZM26.0144 18.0998L26.1344 18.1898V17.9998L26.0044 17.8998C26.0156 17.9659 26.0189 18.033 26.0144 18.0998ZM25.7744 17.4198C25.7786 17.4664 25.7786 17.5132 25.7744 17.5598L25.9244 17.6398C25.9196 17.5933 25.9196 17.5464 25.9244 17.4998L25.7744 17.4198ZM25.6344 17.7298C25.6344 17.7298 25.6344 17.8298 25.6344 17.8698L25.7744 17.9598C25.7744 17.9098 25.7744 17.8498 25.7744 17.8098L25.6344 17.7298ZM25.8244 17.8298C25.8244 17.8798 25.8244 17.9398 25.8244 17.9798L25.9544 18.0698V17.9198L25.8244 17.8298ZM25.8244 17.6298C25.8244 17.6298 25.8244 17.7298 25.8244 17.7698L25.9644 17.8598C25.9644 17.8598 25.9644 17.7498 25.9644 17.7098L25.8244 17.6298ZM25.8244 18.1998L25.9544 18.2898V18.1398L25.8244 18.0398C25.8327 18.0927 25.8361 18.1463 25.8344 18.1998H25.8244ZM25.9244 18.9898L26.0144 19.0898C26.0144 19.0298 26.0144 18.9698 26.0144 18.9298L25.9244 18.8298C25.9544 18.8798 25.9444 18.9998 25.9344 18.9998L25.9244 18.9898ZM26.5344 19.5098L26.4844 19.4298C26.4652 19.4784 26.4417 19.5252 26.4144 19.5698V19.6398L26.5344 19.5098ZM26.5344 19.2498C26.524 19.2921 26.5071 19.3326 26.4844 19.3698V19.4398C26.5644 19.3698 26.5744 19.3098 26.5744 19.2498H26.5344ZM26.5344 18.9098C26.5301 18.953 26.5301 18.9966 26.5344 19.0398L26.5944 19.1198C26.5644 19.0498 26.5644 18.9998 26.5544 18.9098H26.5344ZM26.4544 18.5598C26.4504 18.6031 26.4504 18.6466 26.4544 18.6898L26.5244 18.7698C26.5125 18.6988 26.4958 18.6286 26.4744 18.5598H26.4544ZM26.4544 19.2598L26.5144 19.3398C26.5144 19.3398 26.5144 19.2298 26.5744 19.1898L26.5044 19.0998C26.5044 19.0998 26.4544 19.2098 26.4444 19.2598H26.4544ZM26.2844 18.7898L26.3744 18.8898V18.7298L26.2744 18.6298C26.2744 18.6298 26.2844 18.7498 26.2744 18.7898H26.2844ZM26.4944 19.0098C26.4944 19.0098 26.4944 18.8898 26.4944 18.8498L26.4044 18.7498C26.4044 18.7498 26.4044 18.8698 26.4044 18.9098L26.4944 19.0098ZM26.1944 18.2098L26.3044 18.3098C26.3044 18.2598 26.3044 18.1998 26.3044 18.1498L26.1844 18.0598L26.1944 18.2098ZM26.1944 18.4398L26.3044 18.5398C26.299 18.4866 26.299 18.433 26.3044 18.3798L26.1844 18.2798C26.1831 18.3337 26.1764 18.3873 26.1644 18.4398H26.1944ZM26.1944 18.6598L26.2944 18.7598C26.289 18.7066 26.289 18.653 26.2944 18.5998L26.1944 18.4998C26.1944 18.4998 26.1544 18.6198 26.1444 18.6598H26.1944ZM26.3944 19.1398L26.4644 19.2298C26.4587 19.18 26.4587 19.1297 26.4644 19.0798L26.3844 18.9798C26.3744 18.9998 26.3544 19.0998 26.3444 19.1398H26.3944ZM25.2944 16.9998H25.4544V16.8898H25.2844C25.2904 16.9262 25.2938 16.963 25.2944 16.9998ZM25.2944 16.9998C25.2973 17.0398 25.2973 17.0799 25.2944 17.1198L25.4544 17.1798C25.451 17.1399 25.451 17.0997 25.4544 17.0598L25.2944 16.9998ZM25.2944 17.1698V17.2998L25.4544 17.3698C25.4566 17.3265 25.4566 17.2831 25.4544 17.2398L25.2944 17.1698ZM25.4944 17.1698L25.6544 17.2398C25.6566 17.1965 25.6566 17.1531 25.6544 17.1098L25.4944 17.0398C25.5306 17.1149 25.551 17.1966 25.5544 17.2798L25.4944 17.1698ZM25.3044 17.4398C25.3044 17.4398 25.3044 17.3398 25.3044 17.3098L25.1444 17.2398V17.3698C25.226 17.419 25.3001 17.4796 25.3644 17.5498L25.3044 17.4398ZM25.3044 17.6298V17.4998L25.1544 17.4298V17.5598L25.3044 17.6298ZM25.4744 17.5298C25.4697 17.4866 25.4697 17.443 25.4744 17.3998L25.3144 17.3298V17.4598L25.4744 17.5298ZM24.9144 16.7198H25.0844C25.0805 16.6866 25.0805 16.653 25.0844 16.6198H24.9044L24.9144 16.7198ZM26.3744 19.2998L26.3144 19.2098C26.3144 19.2098 26.3144 19.3198 26.2544 19.3598V19.4398L26.3744 19.2998ZM24.7344 16.8198H24.9144C24.9105 16.7866 24.9105 16.753 24.9144 16.7198H24.7344C24.7344 16.7198 24.8444 16.9298 24.8344 16.9298L24.7344 16.8198ZM24.9244 16.8198C24.9284 16.853 24.9284 16.8866 24.9244 16.9198H25.0944C25.09 16.8866 25.09 16.853 25.0944 16.8198H24.9244ZM24.9844 16.9598C24.9844 16.9598 24.9844 17.0398 24.9844 17.0698H25.1444V16.9598H24.9844ZM25.2344 17.2998C25.231 17.2599 25.231 17.2197 25.2344 17.1798L25.0644 17.1198C25.0679 17.1597 25.0679 17.1999 25.0644 17.2398L25.2344 17.2998ZM24.6444 16.6698V16.7498H24.8144C24.8118 16.7232 24.8118 16.6964 24.8144 16.6698H24.6444ZM25.5244 18.2798L25.3944 18.1798V18.3398L25.5144 18.4298C25.6144 18.4398 25.6244 18.3798 25.6244 18.3398L25.5244 18.2798ZM24.7344 17.0098C24.73 16.9766 24.73 16.943 24.7344 16.9098H24.5544V16.9898L24.7344 17.0098ZM25.5144 18.4898L25.3944 18.3998V18.5498L25.5044 18.6498C25.5439 18.6197 25.5807 18.5863 25.6144 18.5498L25.5144 18.4898ZM25.5144 18.7198L25.4244 18.6398C25.4244 18.7098 25.4244 18.7798 25.4944 18.8398C25.5644 18.8998 25.5944 18.8098 25.6044 18.7798L25.5144 18.7198ZM24.8044 17.1598V17.0598H24.6344V17.1598H24.8044ZM25.0644 17.3998C25.0644 17.3998 25.0644 17.3098 25.0644 17.2798L24.9044 17.2198C24.9079 17.2597 24.9079 17.2999 24.9044 17.3398L25.0644 17.3998ZM25.0644 17.2198C25.0599 17.1833 25.0599 17.1463 25.0644 17.1098L24.8944 17.0598C24.8978 17.0964 24.8978 17.1332 24.8944 17.1698L25.0644 17.2198ZM25.5544 17.4598C25.5586 17.5064 25.5586 17.5532 25.5544 17.5998L25.6944 17.6798C25.6944 17.6798 25.6944 17.5798 25.6944 17.5398L25.5544 17.4598ZM25.0144 17.0598V16.9598H24.8444C24.8484 16.993 24.8484 17.0266 24.8444 17.0598H25.0144ZM24.5244 16.7698V16.8498H24.6944V16.7698H24.5244ZM25.5244 17.2798V17.4098L25.6744 17.4798C25.6697 17.4366 25.6697 17.393 25.6744 17.3498L25.5244 17.2798ZM24.0144 16.7298H24.1644H24.0144ZM25.6544 20.1898L25.7144 20.0998V20.0498C25.7057 20.0977 25.6923 20.1446 25.6744 20.1898H25.6544ZM25.7244 19.7398C25.7244 19.7998 25.7244 19.8598 25.7244 19.9198C25.719 19.8834 25.719 19.8463 25.7244 19.8098V19.7398ZM25.9444 18.3498L25.8244 18.2598C25.8244 18.3098 25.8244 18.3698 25.8244 18.4098L25.9444 18.5098C25.9623 18.4542 25.9857 18.4006 26.0144 18.3498H25.9444ZM24.5344 16.7998H24.7044C24.6993 16.7768 24.6993 16.7529 24.7044 16.7298H24.5344V16.7998ZM25.8044 18.6398L25.9144 18.7398C25.9144 18.6898 25.9144 18.6198 25.9144 18.5798L25.8044 18.4798C25.8344 18.5298 25.8244 18.5998 25.8244 18.6398H25.8044ZM26.0744 19.4598L26.1344 19.5398C26.157 19.4909 26.177 19.4408 26.1944 19.3898L26.1344 19.2998L26.0744 19.4598ZM26.2444 18.8498C26.2444 18.8498 26.2444 18.9698 26.2444 19.0098L26.3244 19.1098C26.3244 19.1098 26.3244 18.9898 26.3244 18.9498L26.2444 18.8498ZM26.0444 19.1098L26.1144 19.2098C26.1144 19.1598 26.1144 19.0898 26.1144 19.0498L26.0244 18.9498C26.0244 18.9498 26.0744 19.0698 26.0644 19.1098H26.0444ZM26.1544 19.2398L26.2144 19.3298C26.2144 19.3298 26.2144 19.2198 26.2744 19.1798L26.1944 19.0798C26.2044 19.1298 26.1844 19.1998 26.1744 19.2398H26.1544ZM26.3044 19.4398L26.3744 19.2898L26.3044 19.1998C26.2833 19.2517 26.2666 19.3052 26.2544 19.3598L26.3044 19.4398ZM23.6344 16.9098L23.7844 16.8398H23.7144L23.6344 16.9098ZM24.4044 16.5798H24.5144H24.3844H24.4044ZM23.4844 17.0898L23.3444 17.1598H23.4844V17.0898ZM26.0944 20.2698H26.1444H26.0944ZM23.8844 16.9598H23.7344H23.8844ZM26.0144 19.3898L26.0844 19.4798C26.0873 19.4299 26.0873 19.3798 26.0844 19.3298L26.0144 19.2298C26.0144 19.2298 26.0144 19.2998 26.0144 19.3398V19.3898ZM23.8644 16.9398L23.7244 16.9998L23.8644 16.9398ZM23.8644 16.8598L24.0144 16.7898H23.9444L23.8644 16.8598ZM23.8644 16.8598L23.7344 16.9198H23.8644V16.8598ZM26.1244 19.5298L26.0544 19.6798V19.7598L26.1244 19.6198C26.1124 19.5844 26.0956 19.5507 26.0744 19.5198L26.1244 19.5298ZM25.9544 20.0098V19.9498L25.8744 20.0798V20.1398L25.9544 20.0098ZM25.9544 19.6298L25.8844 19.7798L25.9344 19.8598L26.0044 19.7198C26.0044 19.7198 25.9144 19.6498 25.9044 19.6198L25.9544 19.6298ZM25.8644 19.7498L25.9244 19.5998L25.8544 19.5098C25.8423 19.5645 25.8256 19.618 25.8044 19.6698L25.8644 19.7498ZM26.0744 19.8198V19.7398C26.056 19.7907 26.029 19.8381 25.9944 19.8798V19.9498L26.0744 19.8198ZM25.8244 19.4898L25.7644 19.4098C25.7699 19.4764 25.7699 19.5433 25.7644 19.6098C25.7644 19.5663 25.7677 19.5228 25.7744 19.4798L25.8244 19.4898ZM25.9044 19.9198V19.8398C25.8822 19.8889 25.8554 19.9357 25.8244 19.9798V20.0498L25.9044 19.9198ZM26.2944 19.4298C26.2944 19.4298 26.2944 19.5398 26.2344 19.5798V19.6598C26.2344 19.6598 26.2344 19.5598 26.3144 19.5198L26.2944 19.4298ZM26.2944 19.8098V19.7498L26.2044 19.8798V19.9398L26.2944 19.8098ZM26.4144 19.6198C26.3955 19.5946 26.3788 19.5678 26.3644 19.5398L26.2944 19.6798C26.2893 19.7029 26.2893 19.7268 26.2944 19.7498L26.4144 19.6198ZM26.2444 19.7198C26.2256 19.6946 26.2088 19.6678 26.1944 19.6398C26.1752 19.6884 26.1518 19.7352 26.1244 19.7798V19.8498L26.2444 19.7198ZM26.1244 19.9098V19.8498L26.0144 19.9998V20.0598L26.1244 19.9098ZM25.7544 19.1398C25.7331 19.1083 25.7059 19.0812 25.6744 19.0598C25.6779 19.1264 25.6779 19.1932 25.6744 19.2598C25.6744 19.2598 25.7044 19.1598 25.7144 19.1298L25.7544 19.1398ZM25.8344 18.8698L25.9344 18.9698C25.9344 18.9198 25.9344 18.8498 25.9344 18.8098L25.8244 18.7098C25.8194 18.7607 25.8093 18.8109 25.7944 18.8598L25.8344 18.8698ZM26.0844 19.4998L26.0144 19.3998L25.9544 19.5598L26.0144 19.6398C26.0144 19.6398 26.0144 19.5298 26.0144 19.4898L26.0844 19.4998ZM25.9244 19.2198L26.0044 19.3198C26.0044 19.2698 26.0044 19.1998 26.0044 19.1598L25.9144 19.0598C25.9096 19.1107 25.8995 19.161 25.8844 19.2098L25.9244 19.2198ZM25.7944 19.1598C25.7944 19.2098 25.7944 19.2798 25.7944 19.3198L25.8744 19.4198V19.2598L25.7944 19.1598ZM25.9844 19.3898L25.9144 19.2898C25.9144 19.2898 25.9144 19.3998 25.9144 19.4498L25.9844 19.5398C25.9745 19.4857 25.9611 19.4323 25.9444 19.3798L25.9844 19.3898ZM25.7044 18.3098L25.8344 18.3998V18.2498L25.7044 18.1498V18.3098ZM25.8044 19.0998L25.8944 19.1998C25.8944 19.1398 25.8944 19.0798 25.8944 19.0398C25.8637 19.004 25.8302 18.9706 25.7944 18.9398C25.7894 18.9907 25.7793 19.0409 25.7644 19.0898L25.8044 19.0998ZM25.6944 17.9398C25.6944 17.9398 25.6944 18.0498 25.6944 18.0898L25.8244 18.1798C25.8244 18.1298 25.8244 18.0698 25.8244 18.0298L25.6944 17.9398ZM25.7944 18.8498C25.7944 18.7998 25.7944 18.7298 25.7944 18.6898L25.6844 18.5898C25.6798 18.643 25.6798 18.6966 25.6844 18.7498L25.7944 18.8498ZM25.6644 18.9698L25.7644 19.0698C25.7644 19.0198 25.7644 18.9498 25.7644 18.9098L25.6544 18.8098C25.6523 18.8741 25.6422 18.938 25.6244 18.9998L25.6644 18.9698ZM25.6644 18.3698V18.5198L25.7844 18.6198C25.7795 18.5666 25.7795 18.513 25.7844 18.4598L25.6644 18.3698ZM24.2044 16.6198H24.2644H24.2044ZM26.4144 18.6198C26.4187 18.5666 26.4187 18.5131 26.4144 18.4598L26.3144 18.3598C26.3144 18.4098 26.3144 18.4798 26.3144 18.5198L26.4144 18.6198ZM26.3444 18.1698C26.3494 18.213 26.3494 18.2566 26.3444 18.2998L26.4444 18.3898L26.3444 18.1698ZM26.3444 19.5998L26.2544 19.7298V19.7898L26.3444 19.6598V19.5998ZM24.6244 16.5998H24.7544H24.5944H24.6244ZM26.2344 18.0698L26.1344 17.8598V17.9998L26.2344 18.0698ZM26.4344 19.6598C26.4316 19.6099 26.4316 19.5598 26.4344 19.5098V19.6598ZM24.8944 16.6598H25.0444L24.8644 16.5798C24.9065 16.6116 24.935 16.658 24.9444 16.7098L24.8944 16.6598ZM25.8944 17.6598L26.0044 17.7298C25.9645 17.6642 25.9212 17.6008 25.8744 17.5398C25.8744 17.5398 26.0144 17.6298 26.0144 17.6698L25.8944 17.6598ZM25.1344 16.8698H25.2844L25.1044 16.7498C25.1596 16.7795 25.2048 16.8247 25.2344 16.8798L25.1344 16.8698ZM25.3844 16.9898V17.0898H25.5244L25.3844 16.9898ZM25.6444 17.2398C25.6484 17.2797 25.6484 17.3199 25.6444 17.3598L25.7744 17.4198L25.6444 17.2698V17.2398ZM26.3744 19.7598V19.7098L26.2844 19.8298L26.3744 19.7598ZM25.9144 20.1998L25.8044 20.2898L25.9144 20.2098V20.1998ZM25.9144 20.1998L25.8044 20.2998L25.9144 20.1998ZM26.0344 19.9798L26.0144 19.9998V20.0498L26.0344 19.9798ZM25.8944 20.1498L25.7944 20.2598L25.8944 20.1498ZM25.8944 20.0798L25.8044 20.1998L25.8944 20.0798ZM26.1244 20.0798L26.0144 20.1698L26.1344 20.0898L26.1244 20.0798ZM26.2644 19.9098L26.1644 20.0198L26.2644 19.9098ZM26.2644 19.8398L26.1744 19.9598V20.0098C26.2189 19.9672 26.2591 19.9203 26.2944 19.8698L26.2644 19.8398ZM26.1244 20.0098L26.0244 20.1198L26.1244 20.0098ZM26.1244 20.0598L26.0144 20.1598L26.1244 20.0598ZM26.2944 19.9598L26.1844 20.0598L26.2944 19.9598ZM25.3644 20.6198L25.4644 20.5598L25.3344 20.6498L25.3644 20.6198ZM25.6344 20.4598H25.5744H25.6344ZM25.4644 20.5598H25.3944H25.4644ZM25.6344 20.4598L25.4944 20.5498L25.6344 20.4598ZM25.8044 20.3598L25.6644 20.4498L25.8044 20.3598ZM26.0144 20.2498L25.8744 20.3398H25.9244L26.0144 20.2498ZM25.8344 20.3098L25.7244 20.3998L25.8344 20.3198V20.3098ZM24.0544 16.6698H23.9844L24.1344 16.5998L24.0544 16.6698ZM26.3744 19.9098C26.3999 19.8711 26.4233 19.8311 26.4444 19.7898C26.4321 19.8332 26.4118 19.8739 26.3844 19.9098H26.3744ZM26.0244 20.2498H25.9744H26.0244ZM24.7144 16.6998H24.8844V16.6398H24.7244L24.7144 16.6998ZM23.6344 16.9498L23.5044 17.0098H23.6344V16.9498ZM23.4744 17.0098L23.6244 16.9398H23.5444L23.4744 17.0098ZM23.3044 17.1098L23.4544 17.0398H23.3844H23.3144L23.3044 17.1098ZM24.4844 17.2698C24.4861 17.2365 24.4861 17.2031 24.4844 17.1698H24.3144C24.3111 17.1997 24.3111 17.2299 24.3144 17.2598L24.4844 17.2698ZM24.7744 17.5398H24.6444L24.7944 17.6798C24.8003 17.6329 24.7969 17.5854 24.7844 17.5398H24.7744ZM25.0244 17.8098L24.9044 17.7498C24.9044 17.7498 24.9944 17.8598 25.0444 17.9198C25.0304 17.8844 25.0204 17.8475 25.0144 17.8098H25.0244ZM23.7144 16.9998H23.6344H23.7344H23.7144ZM23.7144 16.9298L23.5644 16.9898H23.7144V16.9298ZM23.9844 16.9898H23.8244H23.9844ZM23.9144 16.8098H24.0644H23.9144ZM23.9144 16.8098L24.0544 16.7598L23.9144 16.8098ZM24.0944 16.7098L24.2244 16.6598C24.1522 16.665 24.0813 16.6819 24.0144 16.7098H24.0944ZM23.9644 16.8798H24.1144H23.9644ZM23.9644 17.0498H23.8544H23.9944H23.9644ZM24.4544 17.1298V17.0498H24.2844V17.1298H24.4544ZM24.2444 17.1298H24.1144L24.2744 17.1998L24.2444 17.1298ZM24.1744 16.9898H24.0144H24.1744ZM24.1744 17.0898V17.0198H24.0144V17.0798L24.1744 17.0898ZM24.0444 16.7698H24.2044H24.0544H24.0444ZM24.4044 16.5898H24.5544H24.4044ZM24.2944 16.8898H24.1444H24.2944ZM24.2944 16.9898V16.9198H24.1344C24.1344 16.9198 24.1344 16.9198 24.1344 16.9798L24.2944 16.9898ZM24.4144 16.7898H24.2544V16.8398L24.4144 16.7898ZM23.8344 16.8898H23.9944H23.8344ZM24.1944 16.7998H24.0444H24.1944ZM24.4844 16.9398H24.3144C24.3163 16.9665 24.3163 16.9932 24.3144 17.0198H24.4844V16.9398ZM24.1544 16.6498H24.3144H24.1544ZM24.1544 16.6498H24.3144H24.1544ZM24.0944 16.5798H24.2444H24.0944ZM24.4344 16.8498V16.7798H24.2644C24.2644 16.7798 24.2644 16.7798 24.2644 16.8398L24.4344 16.8498ZM24.3644 16.6098V16.6598H24.5244V16.6098H24.3644ZM25.0844 17.6098C25.081 17.5666 25.081 17.5231 25.0844 17.4798L24.9244 17.4098V17.5398L25.0844 17.6098ZM25.5044 18.0198C25.4998 17.9699 25.4998 17.9197 25.5044 17.8698L25.3544 17.7898C25.3593 17.8364 25.3593 17.8833 25.3544 17.9298L25.5044 18.0198ZM25.5044 17.7998C25.5044 17.7998 25.5044 17.6998 25.5044 17.6598L25.3544 17.5798C25.3489 17.6263 25.3489 17.6733 25.3544 17.7198L25.5044 17.7998ZM25.3644 18.3998L25.2544 18.3198C25.2918 18.3844 25.3251 18.4512 25.3544 18.5198C25.3838 18.4885 25.4175 18.4616 25.4544 18.4398L25.3644 18.3998ZM25.3644 18.1198C25.3598 18.0699 25.3598 18.0197 25.3644 17.9698L25.2144 17.8798C25.2187 17.9297 25.2187 17.9799 25.2144 18.0298L25.3644 18.1198ZM25.5444 18.2298C25.5398 18.1799 25.5398 18.1297 25.5444 18.0798L25.4144 17.9898C25.4091 18.0397 25.4091 18.09 25.4144 18.1398L25.5444 18.2298ZM25.3644 18.3298V18.1798L25.2244 18.0898C25.2291 18.1397 25.2291 18.1899 25.2244 18.2398L25.3644 18.3298ZM24.5844 17.1298V17.0298H24.4144V17.1098L24.5844 17.1298ZM25.7344 20.1998L25.6344 20.3098L25.7344 20.1998ZM25.5644 20.2998L25.5144 20.3898L25.5644 20.2998ZM25.5644 20.3698L25.4444 20.4598L25.5644 20.3798V20.3698ZM25.5644 20.3698L25.4644 20.4698L25.5644 20.3698ZM25.6844 20.1498V20.0998L25.5844 20.2198L25.6844 20.1498ZM24.8444 17.3598V17.2498L24.6844 17.1998C24.6878 17.2364 24.6878 17.2732 24.6844 17.3098L24.8444 17.3598ZM24.6744 17.4598C24.6703 17.4233 24.6703 17.3864 24.6744 17.3498H24.5044C24.5071 17.3864 24.5071 17.4232 24.5044 17.4598H24.6744ZM24.8844 17.5398C24.8844 17.5398 24.8844 17.4498 24.8844 17.4198L24.7244 17.3598C24.7244 17.3598 24.7244 17.4498 24.7244 17.4798L24.8844 17.5398ZM24.6244 17.2998C24.6205 17.2666 24.6205 17.233 24.6244 17.1998H24.4544V17.2998H24.6244ZM25.3244 17.9198C25.3244 17.9198 25.3244 17.8198 25.3244 17.7798L25.1744 17.6998V17.8398L25.3244 17.9198ZM24.3244 17.2698L24.4844 17.3798C24.4818 17.3532 24.4818 17.3264 24.4844 17.2998L24.3244 17.2698ZM24.9644 17.7298C24.9666 17.6865 24.9666 17.6431 24.9644 17.5998L24.8144 17.5298C24.8192 17.573 24.8192 17.6166 24.8144 17.6598L24.9644 17.7298ZM25.1944 18.0898L25.0844 18.0198L25.2044 18.2098C25.2252 18.1787 25.242 18.1451 25.2544 18.1098L25.1944 18.0898ZM25.1944 18.0198C25.1944 18.0198 25.1944 17.9198 25.1944 17.8798L25.0444 17.7998C25.0486 17.8464 25.0486 17.8932 25.0444 17.9398L25.1944 18.0198ZM25.7744 20.2698L25.6644 20.3698L25.7744 20.2698ZM25.1644 17.8198C25.1692 17.7766 25.1692 17.733 25.1644 17.6898L25.0144 17.6198C25.0192 17.663 25.0192 17.7066 25.0144 17.7498L25.1644 17.8198Z" fill="url(#paint11_linear_1_29705)"/>
<path d="M24.2944 17.2398C23.4944 16.7798 22.8444 17.1498 22.8344 18.0698C22.8639 18.5709 23.0104 19.0581 23.2622 19.4922C23.514 19.9264 23.8641 20.2955 24.2844 20.5698C25.0844 21.0298 25.7344 20.6598 25.7344 19.7398C25.7085 19.2391 25.5645 18.7516 25.3143 18.3171C25.064 17.8826 24.7146 17.5135 24.2944 17.2398Z" fill="url(#paint12_linear_1_29705)"/>
<path d="M24.3044 17.9998C23.8944 17.7598 23.5544 17.9998 23.5544 18.4298C23.5685 18.6888 23.6439 18.9408 23.7742 19.1651C23.9046 19.3893 24.0863 19.5794 24.3044 19.7198C24.7144 19.9598 25.0544 19.7698 25.0544 19.2898C25.0404 19.0308 24.965 18.7788 24.8347 18.5546C24.7043 18.3303 24.5226 18.1402 24.3044 17.9998Z" fill="#171512"/>
<path d="M22.7445 17.0698C22.3445 17.2998 22.2545 17.9198 22.2545 18.8298L23.4045 18.1598C23.4045 17.2498 23.5045 16.6298 23.8945 16.3998L22.7445 17.0698Z" fill="#88643E"/>
<path d="M26.9744 18.4098L25.8244 19.0798V19.7798L26.9744 19.1198V18.4098Z" fill="#C0955E"/>
<path d="M27.0145 18.3898C27.0145 18.3898 27.0145 18.3198 27.0145 18.2798C26.8662 17.9591 26.6707 17.6625 26.4344 17.3998C26.1151 17.0328 25.7365 16.7218 25.3145 16.4798C25.0134 16.289 24.6699 16.1756 24.3145 16.1498C24.1573 16.1456 24.0019 16.1836 23.8644 16.2598L22.7144 16.9298C22.8519 16.8536 23.0073 16.8156 23.1645 16.8198C23.5193 16.8488 23.8621 16.9619 24.1645 17.1498C24.5834 17.3921 24.9586 17.7031 25.2745 18.0698C25.5138 18.3322 25.7126 18.6288 25.8644 18.9498C25.8644 18.9498 25.8644 19.0298 25.8644 19.0598L27.0145 18.3898Z" fill="#E2B77A"/>
<path d="M26.3445 17.3998L25.1844 18.0698C25.4238 18.3322 25.6226 18.6288 25.7745 18.9498L26.9245 18.2798C26.7762 17.9591 26.5807 17.6625 26.3445 17.3998Z" fill="#EBC080"/>
<path d="M25.8244 19.0798C25.463 18.2738 24.8533 17.6046 24.0844 17.1698C23.7821 16.9819 23.4393 16.8688 23.0844 16.8398C22.2744 16.8398 22.0844 17.5798 22.0844 18.8398L22.1944 18.8998C22.1944 17.7198 22.3444 17.0298 23.1044 17.0398C23.4245 17.0715 23.7328 17.1776 24.0044 17.3498C24.7203 17.7569 25.293 18.3751 25.6444 19.1198V19.7898L25.7644 19.8598L25.8244 19.0798Z" fill="url(#paint13_linear_1_29705)"/>
<path d="M22.0145 16.2198V13.8298L16.0145 17.3498V19.6098C17.8845 18.3898 19.9245 17.2898 22.0145 16.2198Z" fill="#C0955E"/>
<path d="M14.8644 14.3098L20.9144 10.7898L21.9744 13.8298L15.9244 17.3398L14.8644 14.3098Z" fill="#EBC080"/>
<path d="M12.3145 12.8398L18.3644 9.31982L20.9145 10.7898L14.8644 14.3098L12.3145 12.8398Z" fill="#E2B77A"/>
<path d="M21.6744 14.3298C21.571 14.2795 21.4557 14.2585 21.3411 14.2691C21.2265 14.2796 21.117 14.3214 21.0244 14.3898L25.0244 17.3898C25.2237 17.4679 25.4451 17.4679 25.6444 17.3898L21.6744 14.3298Z" fill="#EBC080"/>
<path d="M15.9245 18.3998V17.3398L14.8644 14.3098L12.3145 12.8398L12.3244 19.4398L16.7445 21.9898L17.0945 21.8098L20.6645 22.7598V20.7698L15.9245 18.3998Z" fill="#AB804B"/>
<path d="M21.0244 14.3898L16.8344 16.8098L21.4444 19.4098L25.0444 17.3398L21.0244 14.3898Z" fill="#E2B77A"/>
<path d="M16.8344 16.8098C16.5684 16.9822 16.3471 17.2154 16.1889 17.4901C16.0307 17.7648 15.94 18.0732 15.9244 18.3898L20.6644 20.7698L21.4444 19.4098L16.8344 16.8098Z" fill="#CEA269"/>
<path d="M25.0144 17.3398C25.4544 17.0898 25.8044 17.2898 25.8144 17.7898V19.7898L20.6444 22.7898V20.7898C20.659 20.5179 20.7371 20.2532 20.8726 20.017C21.0081 19.7808 21.1971 19.5797 21.4244 19.4298L25.0144 17.3398Z" fill="#C0955E"/>
<path d="M17.9344 12.9998L18.8044 15.4798L16.0144 17.1498L15.1444 14.6698L17.9344 12.9998ZM18.1744 12.8698L19.0144 15.3998L21.8144 13.7698L21.0144 11.2898L18.1744 12.8698Z" fill="url(#paint14_linear_1_29705)"/>
<path d="M14.5844 16.4898L12.6444 15.3698V13.4698L14.4544 14.5198L14.5844 14.8898V16.4898ZM14.7644 15.3998V16.5998L15.2844 16.8998L14.7644 15.3998Z" fill="#212322"/>
<g style="mix-blend-mode:multiply" opacity="0.3">
<g style="mix-blend-mode:multiply">
<path d="M15.6444 17.2198L14.7244 14.5098L12.5544 13.2598V18.4398L15.6544 20.2298V17.2298L15.6444 17.2198ZM15.6444 20.2198L12.6444 18.4598V13.3098L14.7644 14.5398L15.6944 17.2298L15.6444 20.2198Z" fill="#AB804B"/>
</g>
</g>
<path d="M25.6344 19.2598V17.9998C25.6344 17.5598 25.3244 17.3798 24.9344 17.5998L21.5944 19.5298C21.3906 19.662 21.2209 19.8405 21.0992 20.0508C20.9776 20.2611 20.9074 20.4972 20.8944 20.7398V21.9998L25.6344 19.2598Z" fill="#9E7644"/>
<path d="M20.9444 19.9998L25.4744 17.3798L25.5244 17.4598L21.0644 19.9998H20.9444ZM20.9444 20.3498L25.6944 17.5998V17.5198L20.9444 20.2598V20.3498ZM20.8744 20.6098L25.7644 17.7898V17.7098L20.8644 20.5298L20.8744 20.6098ZM20.8744 20.8398L25.7744 18.0198V17.9398L20.8844 20.7598L20.8744 20.8398ZM20.8744 21.0698L25.7744 18.2498V18.1598L20.8044 20.9998L20.8744 21.0698ZM20.8744 21.2998L25.7544 18.4798V18.3998L20.8744 21.2098V21.2998ZM20.8744 21.5298L25.7944 18.6898V18.6098L20.8744 21.4498V21.5298ZM20.8744 21.7598L25.7944 18.9198V18.8398L20.8644 21.6798L20.8744 21.7598ZM20.7944 22.0298L25.7944 19.1398V19.0598L20.7944 21.9498V22.0298Z" fill="#C0955E"/>
<path d="M16.4345 20.7098C16.0345 20.9398 15.9445 21.5598 15.9445 22.4798L17.0945 21.8098C17.0945 20.8898 17.1945 20.2698 17.5845 20.0398L16.4345 20.7098Z" fill="#88643E"/>
<path d="M19.6745 21.9998C19.5346 21.6792 19.3457 21.3823 19.1145 21.1198C18.9366 20.9082 18.7234 20.7289 18.4845 20.5898C18.3414 20.4864 18.1736 20.4226 17.9979 20.4051C17.8223 20.3875 17.6451 20.4167 17.4845 20.4898L16.6345 20.9798C16.9045 20.8298 18.9445 24.3498 18.6345 24.5098L19.4845 24.0098C19.6315 23.9068 19.7481 23.7661 19.822 23.6024C19.8959 23.4388 19.9244 23.2583 19.9045 23.0798C19.9022 22.7079 19.8239 22.3404 19.6745 21.9998Z" fill="#201F1D"/>
<path d="M17.6345 21.0798C16.8445 20.6198 16.1944 20.9898 16.1844 21.9098C16.2135 22.4084 16.3589 22.8934 16.6089 23.3257C16.859 23.7581 17.2068 24.126 17.6245 24.3998C18.4245 24.8698 19.0744 24.4998 19.0844 23.5798C19.0566 23.0784 18.9108 22.5906 18.6588 22.1562C18.4068 21.7218 18.0559 21.353 17.6345 21.0798Z" fill="url(#paint15_linear_1_29705)"/>
<path d="M17.6544 21.8798C17.2444 21.6398 16.9044 21.8298 16.9044 22.2998C16.917 22.5606 16.9916 22.8145 17.122 23.0406C17.2525 23.2668 17.435 23.4585 17.6544 23.5998C18.0644 23.8398 18.4044 23.5998 18.4044 23.1698C18.3928 22.9102 18.3185 22.6573 18.1879 22.4327C18.0573 22.208 17.8743 22.0184 17.6544 21.8798Z" fill="#171512"/>
<path d="M16.9044 22.2598C16.9121 22.5118 16.9795 22.7584 17.1012 22.9793C17.2229 23.2001 17.3954 23.3888 17.6044 23.5298C17.3855 23.3793 17.2046 23.1798 17.0761 22.9472C16.9477 22.7146 16.8752 22.4553 16.8644 22.1898L16.9044 22.2598Z" fill="#B5B7B7"/>
<path d="M17.6645 21.8898C17.8732 22.0351 18.0445 22.2277 18.1644 22.4519C18.2844 22.6761 18.3495 22.9256 18.3544 23.1798C18.3544 23.6498 18.0044 23.8198 17.6044 23.5698C17.3945 23.4251 17.2216 23.2328 17.1 23.0086C16.9783 22.7845 16.9113 22.5348 16.9044 22.2798C16.9244 21.8198 17.2645 21.6398 17.6645 21.8898ZM17.6645 21.9698C17.3045 21.7498 17.0045 21.9098 16.9945 22.3298C16.9966 22.5588 17.0541 22.7839 17.162 22.9859C17.27 23.1879 17.4252 23.3608 17.6144 23.4898C17.9744 23.7098 18.2844 23.5598 18.2944 23.1398C18.2911 22.9085 18.2321 22.6815 18.1225 22.4778C18.0128 22.2741 17.8557 22.0999 17.6645 21.9698Z" fill="#AB804B"/>
<path d="M17.0144 22.3398V22.4298C17.028 22.6275 17.0853 22.8198 17.1821 22.9927C17.279 23.1656 17.4129 23.3149 17.5744 23.4298H17.6444C17.4592 23.2983 17.3063 23.1265 17.1971 22.9273C17.088 22.7281 17.0255 22.5067 17.0144 22.2798V22.3398Z" fill="#B5B7B7"/>
<path d="M17.5844 22.0998C17.748 22.2126 17.8835 22.3614 17.9806 22.5348C18.0777 22.7081 18.1337 22.9014 18.1444 23.0998C18.1444 23.4798 17.8544 23.6198 17.5344 23.4198C17.3714 23.3065 17.2363 23.1576 17.1393 22.9843C17.0422 22.8111 16.9859 22.618 16.9744 22.4198C17.0144 21.9998 17.2644 21.8998 17.5844 22.0998Z" fill="#AB804B"/>
<path d="M18.1544 22.5698C18.0505 22.3249 17.8766 22.1162 17.6544 21.9698L17.5444 21.9098C17.2344 21.7898 16.9944 21.9098 16.9844 22.3298V22.3998C16.9844 22.0698 17.2144 21.9198 17.4844 22.0298L17.5944 22.0898C17.789 22.2206 17.9417 22.4046 18.0344 22.6198C18.1117 22.7753 18.1527 22.9462 18.1544 23.1198C18.1544 23.4998 17.8644 23.6398 17.5444 23.4398H17.6144C17.9744 23.6598 18.2844 23.5098 18.2944 23.0898C18.2874 22.9082 18.2396 22.7304 18.1544 22.5698Z" fill="#C0955E"/>
<path d="M18.2844 22.5198C18.1617 22.2387 17.9603 21.9991 17.7045 21.8298L17.5645 21.7598C17.2045 21.6098 16.9244 21.7598 16.9044 22.2398C16.9044 21.8298 17.1944 21.6398 17.5344 21.7798L17.6645 21.8498C17.9056 22.0144 18.096 22.243 18.2144 22.5098C18.3117 22.7053 18.3598 22.9215 18.3544 23.1398C18.3544 23.6098 18.0044 23.7798 17.6044 23.5298C18.0244 23.7898 18.3744 23.5998 18.3944 23.1098C18.3987 22.9077 18.3613 22.7068 18.2844 22.5198Z" fill="#C0955E"/>
<path d="M20.6644 22.0598L19.5144 22.7298V23.4298L20.6644 22.7598V22.0598Z" fill="#C0955E"/>
<path d="M20.6544 21.9998C20.6544 21.9998 20.6544 21.9198 20.6544 21.8898C20.4905 21.5606 20.2744 21.26 20.0144 20.9998C19.6924 20.6355 19.3143 20.325 18.8944 20.0798C18.5938 19.8898 18.2496 19.7797 17.8944 19.7598C17.7378 19.7477 17.5812 19.7825 17.4444 19.8598L16.2944 20.5298C16.4312 20.4525 16.5878 20.4177 16.7444 20.4298C17.0996 20.4497 17.4438 20.5598 17.7444 20.7498C18.1612 20.9953 18.5359 21.3059 18.8544 21.6698C19.0965 21.9317 19.2925 22.2326 19.4344 22.5598C19.4399 22.5963 19.4399 22.6334 19.4344 22.6698L20.5844 21.9998H20.6544Z" fill="#E2B77A"/>
<path d="M20.0144 20.9998L18.8544 21.6698C19.0965 21.9317 19.2925 22.2326 19.4344 22.5598L20.5944 21.8898C20.4488 21.5647 20.2531 21.2644 20.0144 20.9998Z" fill="#EBC080"/>
<path d="M19.5144 22.7298C19.1566 21.9189 18.5463 21.2455 17.7744 20.8098C17.4738 20.6198 17.1296 20.5097 16.7744 20.4898C15.9644 20.4898 15.7744 21.2198 15.7744 22.4298L15.8944 22.4998C15.8944 21.3098 16.0444 20.6298 16.8044 20.6398C17.1246 20.6638 17.4339 20.7669 17.7044 20.9398C18.4218 21.3496 18.9947 21.9714 19.3444 22.7198V23.3798L19.4644 23.4498L19.5144 22.7298Z" fill="url(#paint16_linear_1_29705)"/>
<path d="M15.6544 17.1798L14.9444 16.9898C14.9337 16.9852 14.9246 16.9775 14.9182 16.9677C14.9118 16.9579 14.9084 16.9465 14.9084 16.9348C14.9084 16.9231 14.9118 16.9117 14.9182 16.9019C14.9246 16.8922 14.9337 16.8845 14.9444 16.8798L15.6544 17.0698C15.6651 17.0745 15.6743 17.0822 15.6806 17.0919C15.687 17.1017 15.6905 17.1131 15.6905 17.1248C15.6905 17.1365 15.687 17.1479 15.6806 17.1577C15.6743 17.1675 15.6651 17.1751 15.6544 17.1798Z" fill="#37393A"/>
<path d="M14.6344 18.1198V17.0498H14.5444V18.1198C14.5364 18.137 14.5322 18.1558 14.5322 18.1748C14.5322 18.1938 14.5364 18.2126 14.5444 18.2298H14.6344C14.6264 18.2126 14.6222 18.1938 14.6222 18.1748C14.6222 18.1558 14.6264 18.137 14.6344 18.1198Z" fill="#B3874F"/>
<path d="M15.0844 16.5598C15.0666 16.5482 15.0457 16.542 15.0244 16.542C15.0031 16.542 14.9823 16.5482 14.9644 16.5598L14.7144 16.6998C14.6652 16.7313 14.6241 16.774 14.5946 16.8244C14.565 16.8748 14.5479 16.9315 14.5444 16.9898H14.6344C14.6379 16.9315 14.6551 16.8748 14.6846 16.8244C14.7141 16.774 14.7552 16.7313 14.8044 16.6998L15.0444 16.5598C15.0623 16.5482 15.0831 16.542 15.1044 16.542C15.1257 16.542 15.1466 16.5482 15.1644 16.5598H15.0844Z" fill="#E2B77A"/>
<path d="M15.0144 16.6198C15.1144 16.5598 15.1844 16.6198 15.1944 16.7198V17.7798C15.1937 17.8387 15.1776 17.8965 15.1478 17.9473C15.118 17.9981 15.0755 18.0404 15.0244 18.0698L14.7844 18.2198C14.6944 18.2698 14.6144 18.2198 14.6144 18.1198V17.0498C14.6179 16.9915 14.6351 16.9348 14.6646 16.8844C14.6942 16.834 14.7352 16.7913 14.7844 16.7598L15.0144 16.6198Z" fill="#C0955E"/>
<path d="M25.8444 19.1998V19.6198L26.8644 19.0198V18.5998L25.8444 19.1998Z" fill="#323232"/>
<path d="M26.5244 19.1598L25.8544 19.5398V19.1998L26.5244 18.8198V19.1598Z" fill="#CDD3D7"/>
<path d="M26.8044 18.9998L26.5244 19.1598V18.8198L26.8044 18.6598V18.9998Z" fill="#BB6926"/>
<path d="M20.6544 22.1898V22.6098L19.6245 23.1998V22.7798L20.6544 22.1898Z" fill="#323232"/>
<path d="M19.9244 22.9698L20.5944 22.5798V22.2498L19.9244 22.6298V22.9698Z" fill="#CDD3D7"/>
<path d="M19.6444 23.1298L19.9244 22.9698V22.6298L19.6444 22.7898V23.1298Z" fill="#BB6926"/>
<path d="M25.3544 19.5798L21.2344 21.9598V22.2798L25.3544 19.8998V19.5798Z" fill="#37393A"/>
<defs>
<linearGradient id="paint0_linear_1_29705" x1="3.16444" y1="12.4198" x2="1.77444" y2="14.8298" gradientUnits="userSpaceOnUse">
<stop stop-color="#2A2A2A"/>
<stop offset="1" stop-color="#323232"/>
</linearGradient>
<linearGradient id="paint1_linear_1_29705" x1="6.20442" y1="14.1698" x2="4.80442" y2="16.5798" gradientUnits="userSpaceOnUse">
<stop stop-color="#2A2A2A"/>
<stop offset="1" stop-color="#323232"/>
</linearGradient>
<linearGradient id="paint2_linear_1_29705" x1="6.98445" y1="15.0998" x2="6.34445" y2="16.2098" gradientUnits="userSpaceOnUse">
<stop stop-color="#655039"/>
<stop offset="0.51" stop-color="#C5BBAF"/>
<stop offset="0.83" stop-color="#FFFFFC"/>
<stop offset="1" stop-color="white"/>
</linearGradient>
<linearGradient id="paint3_linear_1_29705" x1="6.23445" y1="0.48982" x2="1.20445" y2="9.21982" gradientUnits="userSpaceOnUse">
<stop offset="0.47" stop-color="#56452F"/>
<stop offset="0.67" stop-color="#4A3B28"/>
</linearGradient>
<linearGradient id="paint4_linear_1_29705" x1="7.86447" y1="1.43981" x2="2.83446" y2="10.1598" gradientUnits="userSpaceOnUse">
<stop offset="0.47" stop-color="#56452F"/>
<stop offset="0.67" stop-color="#4A3B28"/>
</linearGradient>
<linearGradient id="paint5_linear_1_29705" x1="9.50441" y1="2.37982" x2="4.46441" y2="11.0998" gradientUnits="userSpaceOnUse">
<stop offset="0.47" stop-color="#56452F"/>
<stop offset="0.67" stop-color="#4A3B28"/>
</linearGradient>
<linearGradient id="paint6_linear_1_29705" x1="11.1344" y1="3.32982" x2="6.10443" y2="12.0498" gradientUnits="userSpaceOnUse">
<stop offset="0.47" stop-color="#56452F"/>
<stop offset="0.67" stop-color="#4A3B28"/>
</linearGradient>
<linearGradient id="paint7_linear_1_29705" x1="12.7744" y1="4.26982" x2="7.73444" y2="12.9898" gradientUnits="userSpaceOnUse">
<stop offset="0.47" stop-color="#56452F"/>
<stop offset="0.67" stop-color="#4A3B28"/>
</linearGradient>
<linearGradient id="paint8_linear_1_29705" x1="14.4044" y1="5.20981" x2="9.37444" y2="13.9298" gradientUnits="userSpaceOnUse">
<stop offset="0.47" stop-color="#56452F"/>
<stop offset="0.67" stop-color="#4A3B28"/>
</linearGradient>
<linearGradient id="paint9_linear_1_29705" x1="16.0444" y1="6.15982" x2="11.0044" y2="14.8798" gradientUnits="userSpaceOnUse">
<stop offset="0.47" stop-color="#56452F"/>
<stop offset="0.67" stop-color="#4A3B28"/>
</linearGradient>
<linearGradient id="paint10_linear_1_29705" x1="25.6844" y1="17.0598" x2="24.0344" y2="19.9298" gradientUnits="userSpaceOnUse">
<stop stop-color="#3D3D3D"/>
<stop offset="0.25" stop-color="#353534"/>
<stop offset="0.66" stop-color="#201F1D"/>
<stop offset="1" stop-color="#262624"/>
</linearGradient>
<linearGradient id="paint11_linear_1_29705" x1="24.1944" y1="16.5998" x2="26.6344" y2="20.8098" gradientUnits="userSpaceOnUse">
<stop stop-color="#121212"/>
<stop offset="0.48" stop-color="#0E0E0E"/>
<stop offset="0.9" stop-color="#040404"/>
<stop offset="1"/>
</linearGradient>
<linearGradient id="paint12_linear_1_29705" x1="25.0844" y1="17.6798" x2="23.5344" y2="20.0498" gradientUnits="userSpaceOnUse">
<stop stop-color="#323232"/>
<stop offset="0.19" stop-color="#292928"/>
<stop offset="0.49" stop-color="#222120"/>
<stop offset="1" stop-color="#201F1D"/>
</linearGradient>
<linearGradient id="paint13_linear_1_29705" x1="22.3444" y1="17.5598" x2="25.8744" y2="19.4098" gradientUnits="userSpaceOnUse">
<stop stop-color="#C19157"/>
<stop offset="1" stop-color="#AB804B"/>
</linearGradient>
<linearGradient id="paint14_linear_1_29705" x1="20.9744" y1="12.4098" x2="10.4644" y2="20.0598" gradientUnits="userSpaceOnUse">
<stop stop-color="#353837"/>
<stop offset="0.5" stop-color="#2D302F"/>
<stop offset="1" stop-color="#212322"/>
</linearGradient>
<linearGradient id="paint15_linear_1_29705" x1="18.4844" y1="21.2698" x2="17.0944" y2="23.6798" gradientUnits="userSpaceOnUse">
<stop stop-color="#2A2A2A"/>
<stop offset="1" stop-color="#323232"/>
</linearGradient>
<linearGradient id="paint16_linear_1_29705" x1="16.0344" y1="21.1998" x2="19.5644" y2="23.0598" gradientUnits="userSpaceOnUse">
<stop stop-color="#C19157"/>
<stop offset="1" stop-color="#AB804B"/>
</linearGradient>
</defs>
</svg>
