<svg width="33" height="22" viewBox="0 0 33 22" fill="none" xmlns="http://www.w3.org/2000/svg">
<path d="M17.8449 18.4086L16.3379 19.2471V19.1659L17.931 17.3927C17.943 17.3794 17.9489 17.3621 17.9477 17.3445C17.9464 17.327 17.9379 17.3107 17.9242 17.2992C17.9104 17.2877 17.8925 17.2819 17.8743 17.2831C17.8561 17.2844 17.8392 17.2925 17.8273 17.3058L16.2185 19.0998C16.2085 19.1115 16.2029 19.1262 16.2028 19.1413V19.3623C16.2028 19.3737 16.2059 19.3849 16.2117 19.3948C16.2176 19.4048 16.2259 19.4131 16.2361 19.4189C16.247 19.4217 16.2585 19.4217 16.2694 19.4189C16.2809 19.4216 16.293 19.4216 16.3046 19.4189L17.9134 18.5219C17.9223 18.5182 17.9304 18.5128 17.9369 18.5059C17.9435 18.499 17.9485 18.4908 17.9515 18.4819C17.9546 18.473 17.9556 18.4636 17.9546 18.4543C17.9536 18.4449 17.9505 18.4359 17.9456 18.4279C17.9408 18.4198 17.9341 18.4128 17.9262 18.4073C17.9183 18.4019 17.9093 18.3981 17.8998 18.3963C17.8902 18.3945 17.8804 18.3947 17.871 18.3968C17.8615 18.3989 17.8526 18.4029 17.8449 18.4086Z" fill="#6A6D6D"/>
<path d="M16.2224 18.9828C16.0873 18.9091 15.9797 18.9677 15.9777 19.1169C15.9824 19.1979 16.0067 19.2767 16.0489 19.347C16.0911 19.4172 16.1498 19.4768 16.2204 19.521C16.3555 19.5965 16.4631 19.5361 16.4631 19.3869C16.459 19.306 16.435 19.2271 16.3932 19.1569C16.3513 19.0866 16.2928 19.0269 16.2224 18.9828Z" fill="#9CA2A2"/>
<path opacity="0.9" d="M16.2224 19.0432C16.2058 19.0328 16.1871 19.0258 16.1676 19.0226C16.1481 19.0193 16.1281 19.0199 16.1089 19.0243C16.0954 19.0378 16.085 19.0538 16.0783 19.0714C16.0715 19.0889 16.0686 19.1076 16.0697 19.1263C16.0743 19.1898 16.0945 19.2513 16.1285 19.3057C16.1625 19.3602 16.2094 19.4062 16.2654 19.4398C16.282 19.4503 16.3006 19.4575 16.32 19.4611C16.3395 19.4646 16.3595 19.4645 16.379 19.4605C16.392 19.4465 16.402 19.4301 16.4084 19.4122C16.4148 19.3944 16.4174 19.3755 16.4161 19.3567C16.4124 19.2932 16.3928 19.2316 16.3591 19.177C16.3253 19.1225 16.2784 19.0765 16.2224 19.0432Z" fill="#8A9293"/>
<path opacity="0.5" d="M16.2576 19.4397C16.2016 19.4061 16.1547 19.3602 16.1207 19.3057C16.0866 19.2512 16.0665 19.1897 16.0619 19.1263C16.0608 19.1076 16.0637 19.0889 16.0704 19.0713C16.0772 19.0538 16.0876 19.0378 16.101 19.0243C16.076 19.0335 16.0549 19.0507 16.0414 19.073C16.0279 19.0953 16.0227 19.1215 16.0267 19.147C16.0306 19.2107 16.0505 19.2724 16.0846 19.327C16.1187 19.3816 16.166 19.4274 16.2224 19.4605C16.2441 19.4763 16.2706 19.4848 16.2977 19.4848C16.3249 19.4848 16.3514 19.4763 16.3731 19.4605C16.3333 19.4681 16.2919 19.4607 16.2576 19.4397Z" fill="#E1E6E6"/>
<path d="M16.2224 18.8656C16.3239 18.9292 16.4083 19.015 16.4689 19.1161C16.5294 19.2172 16.5643 19.3307 16.5708 19.4473C16.5708 19.6607 16.4142 19.7475 16.2204 19.6361C16.1192 19.5724 16.035 19.4865 15.9748 19.3854C15.9146 19.2844 15.88 19.1709 15.874 19.0545C15.874 18.8449 16.0306 18.7656 16.2224 18.8656ZM16.2224 19.5134C16.3535 19.5851 16.4572 19.5266 16.4592 19.3831C16.4544 19.3047 16.4307 19.2286 16.3899 19.1607C16.3491 19.0928 16.2924 19.0351 16.2243 18.9922C16.0952 18.9204 15.9895 18.9789 15.9895 19.1225C15.9939 19.2007 16.0173 19.2768 16.0577 19.3447C16.0982 19.4126 16.1546 19.4703 16.2224 19.5134Z" fill="#2B2927"/>
<path d="M16.6941 19.0923C16.6605 19.0178 16.6149 18.949 16.559 18.8883C16.5154 18.8392 16.4638 18.7971 16.4064 18.7637C16.3709 18.7386 16.3291 18.7232 16.2853 18.7192C16.2415 18.7152 16.1975 18.7227 16.1578 18.7411L15.9758 18.843C16.0152 18.8253 16.0589 18.818 16.1023 18.822C16.1456 18.826 16.1871 18.8411 16.2224 18.8657C16.2803 18.8985 16.3319 18.9407 16.375 18.9903C16.431 19.051 16.4765 19.1198 16.5101 19.1943C16.5483 19.2736 16.5689 19.3598 16.5708 19.4473C16.5753 19.4887 16.5683 19.5305 16.5504 19.5684C16.5325 19.6063 16.5044 19.6388 16.469 19.6626L16.653 19.5606C16.6884 19.5368 16.7165 19.5043 16.7344 19.4664C16.7523 19.4286 16.7593 19.3867 16.7547 19.3453C16.7522 19.2579 16.7315 19.1719 16.6941 19.0923Z" fill="url(#paint0_linear_1_43458)"/>
<path d="M16.3105 19.2188C16.3017 19.2005 16.2905 19.1834 16.2772 19.1679C16.2683 19.1588 16.2584 19.1505 16.2478 19.1433C16.2385 19.1383 16.2281 19.1357 16.2175 19.1357C16.2069 19.1357 16.1964 19.1383 16.1872 19.1433L16.1617 19.1584C16.171 19.1535 16.1814 19.1508 16.192 19.1508C16.2027 19.1508 16.2131 19.1535 16.2224 19.1584C16.2357 19.1674 16.2482 19.1775 16.2596 19.1886C16.2718 19.2038 16.2823 19.2203 16.2909 19.2377C16.3004 19.2573 16.3058 19.2785 16.3065 19.3C16.3077 19.3103 16.3059 19.3206 16.3014 19.3299C16.2969 19.3392 16.2899 19.3472 16.2811 19.3529L16.3065 19.3378C16.3154 19.332 16.3224 19.3241 16.3269 19.3148C16.3313 19.3055 16.3331 19.2951 16.332 19.2849C16.3295 19.2617 16.3222 19.2393 16.3105 19.2188Z" fill="#E0E5E5"/>
<path d="M16.2146 19.1527C16.1676 19.1263 16.1284 19.1527 16.1284 19.1999C16.1306 19.2281 16.1393 19.2554 16.1538 19.2799C16.1684 19.3045 16.1885 19.3255 16.2126 19.3415C16.2209 19.3482 16.231 19.3523 16.2418 19.3532C16.2525 19.3542 16.2633 19.3519 16.2727 19.3468C16.282 19.3417 16.2896 19.3339 16.2942 19.3245C16.2989 19.3151 16.3004 19.3046 16.2987 19.2943C16.2966 19.2661 16.2879 19.2388 16.2733 19.2143C16.2588 19.1898 16.2387 19.1687 16.2146 19.1527Z" fill="#C5CBCB"/>
<path d="M7.7986 13.2892C7.66551 13.2156 7.55591 13.276 7.55591 13.4233C7.56016 13.5042 7.58419 13.583 7.62603 13.6532C7.66787 13.7234 7.72633 13.7831 7.79664 13.8274C7.93169 13.9029 8.04129 13.8425 8.04129 13.6933C8.03651 13.6123 8.01205 13.5335 7.9699 13.4633C7.92774 13.3931 7.86906 13.3335 7.7986 13.2892Z" fill="#9CA2A2"/>
<path opacity="0.9" d="M7.79861 13.3478C7.78228 13.3367 7.76372 13.3292 7.74415 13.3256C7.72459 13.322 7.70446 13.3225 7.68509 13.327C7.67203 13.341 7.66202 13.3575 7.65563 13.3753C7.64924 13.3931 7.64662 13.412 7.6479 13.4308C7.65234 13.4941 7.67242 13.5554 7.70648 13.6096C7.74053 13.6638 7.78756 13.7094 7.84362 13.7424C7.85995 13.7534 7.8785 13.761 7.89807 13.7646C7.91764 13.7681 7.93777 13.7677 7.95714 13.7632C7.97054 13.7493 7.98092 13.7329 7.98764 13.7151C7.99437 13.6973 7.9973 13.6783 7.99628 13.6593C7.99179 13.5959 7.97148 13.5344 7.93706 13.4801C7.90264 13.4259 7.85514 13.3805 7.79861 13.3478Z" fill="#8A9293"/>
<path opacity="0.5" d="M7.83188 13.7424C7.77582 13.7093 7.72879 13.6637 7.69474 13.6095C7.66068 13.5553 7.6406 13.494 7.63616 13.4308C7.63488 13.4119 7.6375 13.3931 7.64389 13.3752C7.65028 13.3574 7.66029 13.341 7.67335 13.3269C7.6485 13.3364 7.62767 13.3536 7.61419 13.3759C7.60071 13.3981 7.59535 13.4241 7.59897 13.4497C7.60249 13.5123 7.62114 13.5732 7.65342 13.6277C7.68571 13.6821 7.73073 13.7285 7.78491 13.7631C7.80635 13.7795 7.8329 13.7884 7.86026 13.7884C7.88762 13.7884 7.91417 13.7795 7.93561 13.7631C7.89955 13.7695 7.86234 13.762 7.83188 13.7424Z" fill="#E1E6E6"/>
<path d="M7.80056 13.1683C7.9012 13.2327 7.98502 13.3188 8.04545 13.4197C8.10589 13.5206 8.14131 13.6336 8.14894 13.7499C8.14894 13.9633 7.99041 14.0502 7.79861 13.9388C7.697 13.8753 7.61245 13.7895 7.55189 13.6884C7.49133 13.5873 7.45649 13.4738 7.45023 13.3571C7.45023 13.1475 7.6068 13.0625 7.80056 13.1683ZM7.80056 13.816C7.92974 13.8878 8.03543 13.8292 8.03543 13.6857C8.03218 13.6063 8.00915 13.5288 7.96826 13.4597C7.92738 13.3907 7.86985 13.3322 7.80056 13.2892C7.66943 13.2174 7.5657 13.2741 7.56374 13.4176C7.56837 13.4959 7.59205 13.5721 7.63285 13.6401C7.67365 13.708 7.73043 13.7657 7.79861 13.8085L7.80056 13.816Z" fill="#2B2927"/>
<path d="M8.27029 13.3949C8.2363 13.3207 8.19076 13.2519 8.13525 13.191C8.09212 13.1413 8.04048 13.0992 7.98258 13.0663C7.94729 13.0417 7.90583 13.0267 7.86247 13.0227C7.81912 13.0187 7.77545 13.0259 7.73598 13.0437L7.552 13.1457C7.59182 13.1279 7.63579 13.1207 7.67945 13.1247C7.7231 13.1287 7.76489 13.1437 7.80057 13.1683C7.85763 13.2023 7.9091 13.2443 7.95323 13.293C8.00853 13.3548 8.05403 13.4241 8.08827 13.4988C8.12574 13.5777 8.14638 13.6632 8.14895 13.7499C8.15268 13.7915 8.14529 13.8333 8.12747 13.8714C8.10964 13.9094 8.082 13.9424 8.04717 13.9671L8.22332 13.8557C8.25872 13.8319 8.28684 13.7994 8.30475 13.7615C8.32265 13.7236 8.32968 13.6818 8.32509 13.6404C8.32407 13.5559 8.30543 13.4724 8.27029 13.3949Z" fill="url(#paint1_linear_1_43458)"/>
<path d="M7.88668 13.5214C7.87911 13.5031 7.8678 13.4864 7.85341 13.4723C7.84298 13.4602 7.83038 13.45 7.81622 13.4421C7.80706 13.4368 7.79657 13.434 7.78588 13.434C7.77519 13.434 7.7647 13.4368 7.75555 13.4421L7.7301 13.4553C7.73939 13.4504 7.74983 13.4478 7.76044 13.4478C7.77105 13.4478 7.78149 13.4504 7.79078 13.4553C7.80538 13.4612 7.81918 13.4689 7.83188 13.478C7.8452 13.4935 7.85638 13.5107 7.86515 13.529C7.87313 13.5483 7.87776 13.5687 7.87885 13.5894C7.8802 13.5996 7.87853 13.61 7.87403 13.6194C7.86952 13.6287 7.86238 13.6367 7.85341 13.6423L7.88081 13.6272C7.89646 13.6272 7.90429 13.6007 7.90429 13.5743C7.902 13.5557 7.89602 13.5378 7.88668 13.5214Z" fill="#E0E5E5"/>
<path d="M7.79077 13.4553C7.7438 13.4308 7.70661 13.4553 7.70465 13.5026C7.70703 13.5309 7.71601 13.5584 7.73092 13.5829C7.74583 13.6074 7.76629 13.6284 7.79077 13.6442C7.83774 13.6706 7.87493 13.6442 7.87493 13.597C7.87277 13.5688 7.86409 13.5414 7.84953 13.5169C7.83496 13.4924 7.81488 13.4714 7.79077 13.4553Z" fill="#C5CBCB"/>
<path d="M8.00018 12.3734L7.79076 13.6953C7.79175 13.7147 7.7876 13.7341 7.7787 13.7517C7.7698 13.7692 7.75644 13.7842 7.73987 13.7954L7.93559 13.6858C7.95223 13.6751 7.96579 13.6604 7.97503 13.6433C7.98426 13.6261 7.98887 13.607 7.98843 13.5876L8.19785 12.2657L8.00018 12.3734Z" fill="#929696"/>
<path d="M7.72812 12.0051L7.53436 12.1147L8.00017 12.3734L8.19394 12.2657L7.72812 12.0051Z" fill="#AAAFAF"/>
<path d="M7.53438 12.1146L7.44043 13.6839L7.61658 13.7821C7.71248 13.835 7.79077 13.7972 7.79664 13.6952L8.00606 12.3733L7.53438 12.1146Z" fill="#6A6D6D"/>
<path d="M7.35042 13.5365C7.21733 13.461 7.10773 13.5214 7.10773 13.6687C7.11204 13.7498 7.1363 13.8288 7.1785 13.899C7.2207 13.9693 7.27963 14.0289 7.35042 14.0728C7.48351 14.1484 7.59311 14.0879 7.59311 13.9406C7.58879 13.8595 7.56453 13.7806 7.52233 13.7103C7.48013 13.64 7.4212 13.5805 7.35042 13.5365Z" fill="#9CA2A2"/>
<path opacity="0.9" d="M7.35042 13.597C7.3341 13.586 7.31554 13.5785 7.29597 13.5749C7.27641 13.5713 7.25627 13.5718 7.23691 13.5762C7.22385 13.5903 7.21383 13.6067 7.20745 13.6246C7.20106 13.6424 7.19843 13.6613 7.19972 13.6801C7.20383 13.7434 7.22379 13.8049 7.25787 13.8591C7.29196 13.9134 7.33916 13.9589 7.39544 13.9917C7.41176 14.0027 7.43032 14.0102 7.44989 14.0138C7.46946 14.0174 7.48959 14.0169 7.50896 14.0125C7.52236 13.9986 7.53274 13.9822 7.53946 13.9644C7.54619 13.9465 7.54912 13.9276 7.5481 13.9086C7.54329 13.8452 7.52284 13.7839 7.48845 13.7297C7.45407 13.6755 7.40674 13.63 7.35042 13.597Z" fill="#8A9293"/>
<path opacity="0.5" d="M7.38566 13.9916C7.32938 13.9588 7.28217 13.9133 7.24809 13.859C7.214 13.8048 7.19405 13.7434 7.18994 13.68C7.18865 13.6612 7.19128 13.6423 7.19766 13.6245C7.20405 13.6066 7.21407 13.5902 7.22712 13.5762C7.20212 13.586 7.18124 13.6036 7.16777 13.6262C7.1543 13.6487 7.14901 13.675 7.15275 13.7008C7.15703 13.7641 7.17705 13.8255 7.21112 13.8797C7.24519 13.9339 7.2923 13.9795 7.34847 14.0124C7.36961 14.0286 7.39583 14.0375 7.42284 14.0375C7.44986 14.0375 7.47608 14.0286 7.49722 14.0124C7.47815 14.0166 7.45838 14.0169 7.43917 14.0133C7.41996 14.0098 7.40174 14.0024 7.38566 13.9916Z" fill="#E1E6E6"/>
<path d="M7.35238 13.4195C7.45362 13.4829 7.53792 13.5684 7.59846 13.6691C7.65899 13.7699 7.69404 13.883 7.70076 13.9992C7.70076 14.2145 7.54223 14.2995 7.35043 14.1881C7.24886 14.125 7.1643 14.0396 7.10373 13.9387C7.04315 13.8379 7.0083 13.7247 7.00204 13.6083C7.00204 13.3968 7.15862 13.3118 7.35238 13.4195ZM7.35238 14.0653C7.48156 14.1371 7.58725 14.0804 7.58725 13.9369C7.58299 13.8587 7.55968 13.7825 7.51921 13.7146C7.47875 13.6467 7.42226 13.5889 7.35434 13.546C7.22516 13.4742 7.11948 13.5309 7.11948 13.6744C7.12327 13.7527 7.14638 13.8291 7.18688 13.8971C7.22739 13.965 7.28413 14.0227 7.35238 14.0653Z" fill="#2B2927"/>
<path d="M7.8319 13.6461C7.79839 13.5711 7.75282 13.5016 7.69685 13.4403C7.65316 13.3912 7.60163 13.3491 7.54419 13.3157C7.50824 13.2887 7.4652 13.2719 7.4199 13.2672C7.3746 13.2625 7.32885 13.2702 7.2878 13.2892L7.10382 13.3912C7.14372 13.3734 7.18785 13.3662 7.2316 13.3705C7.27534 13.3749 7.31706 13.3905 7.35239 13.4157C7.40984 13.4484 7.4614 13.4899 7.50505 13.5385C7.55929 13.6017 7.60349 13.6723 7.63618 13.7481C7.67365 13.8271 7.69428 13.9125 7.69685 13.9993C7.70098 14.0409 7.69375 14.0828 7.6759 14.1209C7.65805 14.159 7.63019 14.1919 7.59508 14.2164L7.7771 14.1145C7.81235 14.0901 7.84033 14.0572 7.8582 14.0191C7.87607 13.9809 7.8832 13.9389 7.87887 13.8973C7.88157 13.8113 7.86557 13.7258 7.8319 13.6461Z" fill="url(#paint2_linear_1_43458)"/>
<path d="M7.44045 13.7708C7.43239 13.7527 7.42114 13.7361 7.40718 13.7217C7.39719 13.7091 7.3845 13.6988 7.36999 13.6915C7.36121 13.6861 7.35103 13.6832 7.34063 13.6832C7.33024 13.6832 7.32005 13.6861 7.31128 13.6915L7.28387 13.7066C7.29303 13.7012 7.30352 13.6984 7.31421 13.6984C7.3249 13.6984 7.33539 13.7012 7.34455 13.7066C7.35871 13.7144 7.3713 13.7246 7.38173 13.7368C7.39612 13.7508 7.40744 13.7675 7.41501 13.7859C7.42299 13.8052 7.42761 13.8256 7.42871 13.8463C7.42984 13.8563 7.42827 13.8665 7.42416 13.8757C7.42005 13.885 7.41352 13.8931 7.40522 13.8992L7.43066 13.8841C7.43931 13.8786 7.44626 13.871 7.45074 13.862C7.45522 13.853 7.45708 13.843 7.45611 13.8331C7.45557 13.8115 7.45023 13.7902 7.44045 13.7708Z" fill="#E0E5E5"/>
<path d="M7.34258 13.7066C7.29561 13.6801 7.25842 13.7066 7.25842 13.7519C7.25935 13.7803 7.26751 13.8081 7.28219 13.8328C7.29686 13.8575 7.3176 13.8784 7.34258 13.8935C7.38956 13.92 7.42674 13.8935 7.42674 13.8463C7.42534 13.8182 7.41696 13.7909 7.40231 13.7665C7.38767 13.7422 7.36718 13.7217 7.34258 13.7066Z" fill="#C5CBCB"/>
<path d="M18.3166 17.6326L16.882 18.1122L17.5298 18.471C17.5298 18.471 19.2913 20.3254 19.7473 20.7371C20.0199 20.981 20.3417 21.1681 20.6926 21.2866C20.6926 21.2866 18.481 17.7799 18.3166 17.6326Z" fill="#9F7643"/>
<path d="M21.2054 16.1785L17.5141 18.2349L20.6926 21.2696L24.3761 19.2188L24.3819 19.215L21.2054 16.1785Z" fill="#D9AD6F"/>
<path d="M17.6414 18.1632L21.1819 16.3503L24.2136 19.2547L20.7807 21.1677L17.6414 18.1632Z" fill="url(#paint3_linear_1_43458)"/>
<path d="M20.902 16.1785L17.3028 18.1632L17.6179 18.3313L20.8707 16.5392L20.902 16.1785Z" fill="#2C2E31"/>
<path style="mix-blend-mode:multiply" opacity="0.2" d="M21.5558 16.5145L21.3972 16.4258L21.0802 16.2483L20.8844 16.3559L20.9001 16.1803L17.3028 18.165L17.6179 18.3331L19.0505 19.7022C19.4674 19.7116 20.3208 19.4133 21.1506 18.9468L21.5969 18.6976C22.0708 18.4595 22.4954 18.1394 22.8495 17.7533L21.5558 16.5145Z" fill="url(#paint4_linear_1_43458)"/>
<path d="M21.3365 16.2199L7.9826 8.78334C7.86125 8.71535 7.74969 8.73046 7.69685 8.82111L6.86895 10.2223C6.63213 10.2072 6.44816 9.46694 6.24265 9.5878C5.83947 9.81252 5.8062 10.4565 5.8062 10.4565C5.8062 10.7718 5.77292 11.7387 7.10382 12.4808L17.2969 18.1574C17.2969 18.1574 21.3463 16.7071 21.315 16.7071C21.3681 16.6429 21.402 16.5658 21.4129 16.4843V16.3445C21.4104 16.3196 21.4023 16.2955 21.3892 16.274C21.376 16.2524 21.358 16.234 21.3365 16.2199Z" fill="url(#paint5_linear_1_43458)"/>
<path d="M8.28205 8.58515L8.18615 8.30189C8.08293 8.29243 7.97917 8.31351 7.88866 8.36232L7.44046 8.61348C7.48333 8.58877 7.53036 8.57151 7.57942 8.56249C7.53036 8.57151 7.48333 8.58877 7.44046 8.61348C6.88462 8.93073 6.24657 9.38017 5.95886 9.88627C5.86687 10.0487 5.98626 10.1658 6.15458 10.1771L6.86309 10.2224C6.65758 9.87116 7.29563 9.13468 8.28205 8.58515Z" fill="#BA8C54"/>
<path d="M7.72818 8.40381L7.68512 8.47368L7.64402 8.54544L7.60292 8.61531L7.56181 8.68329L7.52071 8.75316L7.47961 8.82304L7.44047 8.89102L7.39937 8.96089L7.35827 9.02887L7.31912 9.09497L7.27998 9.16295L7.24083 9.22904L7.20169 9.29514L7.16255 9.35934L7.12536 9.42355L7.08817 9.48776L7.04903 9.55007L7.01184 9.61239L6.97661 9.67282L6.94138 9.73325C6.88651 9.80175 6.85084 9.88274 6.83781 9.9684C6.82478 10.0541 6.83484 10.1415 6.86701 10.2223L7.6949 8.82115C7.60879 8.72295 7.62444 8.57754 7.72818 8.40381Z" fill="#A87C47"/>
<path d="M9.62859 6.91764L9.17452 7.17068C8.45623 7.58802 8.00021 7.97892 7.72816 8.40193C7.62442 8.57566 7.60877 8.72296 7.69684 8.82116C7.74968 8.73051 7.86124 8.7154 7.98259 8.78339C7.98259 8.47369 8.78308 7.77498 9.76755 7.22167L10.2138 6.9724C11.0319 6.51352 11.7208 6.30013 11.9303 6.41721C11.3255 6.0924 10.2295 6.59094 9.62859 6.91764Z" fill="#BA8C54"/>
<path d="M24.1491 15.3834L23.7028 15.6327C22.7242 16.186 21.6928 16.507 21.4129 16.3522V16.4995C21.4129 16.6014 21.27 16.6883 21.2661 16.6883C21.1917 16.7865 19.8041 17.2548 19.8041 17.2548C19.9962 17.2993 20.1941 17.3159 20.3912 17.3039C21.4156 17.2433 22.4104 16.9488 23.2938 16.4447L23.74 16.1935C24.2387 15.929 24.688 15.5856 25.0689 15.1776L25.1218 15.119C25.1413 15.0945 25.1648 15.0699 25.1825 15.0454C25.3547 14.8518 25.4637 14.6132 25.4956 14.3599C25.4965 14.3674 25.4965 14.375 25.4956 14.3826C25.4965 14.3744 25.4965 14.3662 25.4956 14.358V14.2183C25.4976 14.4543 24.9632 14.9264 24.1491 15.3834Z" fill="url(#paint6_linear_1_43458)"/>
<path d="M25.2822 13.8557H25.2509H25.2744L23.9396 13.1116L22.6048 12.3676L21.268 11.6236L19.9332 10.8795L18.5984 10.1355L17.2636 9.39147L15.9288 8.64932L14.592 7.90529L13.2572 7.16125L11.9224 6.41722C11.713 6.30014 11.0241 6.51353 10.206 6.97241L9.75972 7.22168C8.78113 7.77499 7.97476 8.4737 7.97476 8.7834L21.3365 16.22C21.3593 16.2346 21.3783 16.2542 21.3919 16.2771C21.4055 16.3001 21.4133 16.3258 21.4148 16.3522C21.6947 16.507 22.7183 16.186 23.7047 15.6327L24.151 15.3834C24.9671 14.9264 25.4995 14.4524 25.4995 14.2145C25.4995 14.1415 25.4794 14.0697 25.4412 14.0067C25.4031 13.9436 25.3482 13.8915 25.2822 13.8557Z" fill="url(#paint7_linear_1_43458)"/>
<path d="M19.716 12.3317C17.794 12.343 16.1206 12.3317 15.2614 12.8378L20.3599 15.6704C21.0038 15.3966 21.4833 15.1926 22.5833 15.3324L19.716 12.3317Z" fill="#CB9F63"/>
<path d="M9.76754 7.22166C8.78894 7.77497 7.98257 8.47368 7.98257 8.78338L9.87127 9.83334C10.6972 9.6445 11.3529 9.52175 12.3647 9.70304L9.78907 7.21411L9.76754 7.22166Z" fill="#CB9F63"/>
<path d="M18.4634 10.23L17.6061 12.6679C17.6063 12.6991 17.6158 12.7296 17.6335 12.7557C17.6512 12.7819 17.6764 12.8025 17.7059 12.8152L22.274 15.2871C22.8357 15.561 24.3017 14.7962 24.3036 14.3241V11.4574L18.4634 10.23Z" fill="url(#paint8_linear_1_43458)"/>
<path d="M24.2116 11.2913L20.6143 9.22538C20.3286 9.06675 19.6749 9.27637 19.1601 9.56341C18.6454 9.85045 18.2774 10.2187 18.573 10.3773L22.2916 12.3753C22.9023 12.6793 24.7597 11.6388 24.2116 11.2913Z" fill="url(#paint9_linear_1_43458)"/>
<path d="M11.5212 7.81279C10.9595 7.49931 9.64817 6.98566 9.15104 6.70807C9.12275 6.69145 9.0993 6.66819 9.08287 6.64044C9.06643 6.6127 9.05757 6.58139 9.0571 6.54944V8.0715C9.05736 8.10327 9.06593 8.13446 9.08201 8.16219C9.09809 8.18992 9.12116 8.21329 9.14909 8.23012C9.64817 8.50772 11.531 9.33862 12.0849 9.6521L11.5212 7.81279Z" fill="#AC804A"/>
<path d="M13.1868 7.04419C13.1868 7.37277 11.9087 8.03561 11.5212 7.82033L12.0888 9.65964C12.4802 9.87681 13.7524 9.21209 13.7544 8.8835L13.1868 7.04419Z" fill="url(#paint10_linear_1_43458)"/>
<path d="M13.1163 6.93089C12.5292 6.60797 11.6113 5.88094 11.0926 5.59201C10.5739 5.30308 8.62066 6.34737 9.15497 6.71561C9.6521 6.99321 10.9634 7.50686 11.5251 7.82033C11.9616 8.06583 13.5508 7.1745 13.1163 6.93089Z" fill="url(#paint11_linear_1_43458)"/>
<path d="M18.479 17.7383C18.5084 17.6892 15.8603 16.1539 14.0479 15.1379L13.9833 15.0983C12.1886 14.0917 10.705 13.3137 10.6463 13.3458C10.5277 13.4212 10.4289 13.5222 10.3579 13.6409C10.2869 13.7596 10.2456 13.8926 10.2373 14.0294V14.2334C10.251 14.4222 10.3293 14.4751 10.5015 14.5846C10.6131 14.6564 11.2844 15.0794 13.5978 16.3748L13.6604 16.4126C16.0893 17.7722 16.7763 18.1122 16.8037 18.1122L16.9994 18.2255C17.2401 18.3595 17.8097 18.131 18.1424 17.9686C18.5514 17.7798 18.479 17.7383 18.479 17.7383Z" fill="url(#paint12_linear_1_43458)"/>
<path d="M16.6549 11.3687C16.5848 11.3365 16.5071 11.3228 16.4297 11.3291C16.3523 11.3354 16.2781 11.3615 16.2146 11.4045C16.0292 11.5184 15.8744 11.6728 15.7625 11.8552C15.6506 12.0376 15.5849 12.243 15.5706 12.4545C15.5611 12.532 15.5734 12.6106 15.6061 12.682C15.6388 12.7534 15.6908 12.8151 15.7566 12.8605L16.4768 13.2646C16.4118 13.219 16.3605 13.1575 16.3282 13.0865C16.2959 13.0155 16.2837 12.9375 16.2928 12.8605C16.3065 12.6486 16.3719 12.4428 16.4838 12.2599C16.5958 12.0771 16.751 11.9225 16.9368 11.8087C17.0002 11.7661 17.074 11.7404 17.151 11.7341C17.2279 11.7278 17.3052 11.7411 17.3752 11.7728L16.6549 11.3687Z" fill="url(#paint13_linear_1_43458)"/>
<path d="M17.4907 11.8823C17.385 11.718 17.1775 11.6803 16.9368 11.8087C16.751 11.9225 16.5958 12.0772 16.4838 12.26C16.3719 12.4428 16.3065 12.6486 16.2928 12.8605C16.2928 13.1362 16.4279 13.3005 16.6314 13.3062L17.2069 13.3232C17.0679 13.3232 16.974 13.208 16.9759 13.0192C16.9866 12.8746 17.0326 12.7346 17.1102 12.6106C17.1877 12.4865 17.2947 12.3819 17.4221 12.3053C17.5866 12.2166 17.7294 12.243 17.7999 12.3544L17.4907 11.8823Z" fill="#A87C47"/>
<path d="M20.5165 13.8557L17.7118 12.2846C17.664 12.263 17.6112 12.2539 17.5587 12.2582C17.5062 12.2626 17.4557 12.2801 17.4124 12.3091C17.2867 12.3867 17.1817 12.4918 17.1059 12.6158C17.0301 12.7398 16.9855 12.8792 16.9759 13.0229C16.9692 13.0755 16.9772 13.1289 16.9993 13.1774C17.0213 13.2259 17.0565 13.2678 17.1012 13.2986L19.9039 14.8717C19.9518 14.8929 20.0047 14.9017 20.0573 14.8971C20.1098 14.8924 20.1602 14.8746 20.2033 14.8452C20.3297 14.7682 20.4353 14.6633 20.5115 14.5392C20.5877 14.4151 20.6324 14.2754 20.6417 14.1314C20.6481 14.0789 20.6398 14.0257 20.6178 13.9772C20.5958 13.9288 20.5608 13.8868 20.5165 13.8557Z" fill="url(#paint14_linear_1_43458)"/>
<path d="M20.217 13.8765C20.0893 13.9532 19.9822 14.0581 19.9046 14.1825C19.8271 14.3069 19.7812 14.4473 19.7708 14.5922C19.7708 14.8584 19.9665 14.9699 20.1955 14.8415C20.3219 14.7644 20.4275 14.6595 20.5037 14.5354C20.5799 14.4113 20.6245 14.2716 20.6339 14.1276C20.6456 13.8557 20.4538 13.7499 20.217 13.8765Z" fill="#A87C47"/>
<path d="M20.2151 13.9841C20.1172 14.0445 20.0354 14.1262 19.9763 14.2226C19.9171 14.319 19.8823 14.4275 19.8745 14.5393C19.8745 14.7471 20.0193 14.8339 20.2053 14.7282C20.3041 14.6696 20.3872 14.5892 20.4478 14.4937C20.5083 14.3982 20.5446 14.2903 20.5537 14.1786C20.5537 13.9728 20.399 13.8859 20.2151 13.9841Z" fill="#232321"/>
<path d="M11.2609 6.30215C11.1513 6.53631 10.7227 6.67983 10.3038 6.61185C10.1801 6.59546 10.0607 6.55704 9.95153 6.49854C9.88801 6.47135 9.83313 6.42833 9.79254 6.3739C9.75196 6.31947 9.72712 6.2556 9.72058 6.18884V6.3909C9.72712 6.45766 9.75196 6.52153 9.79254 6.57596C9.83313 6.63039 9.88801 6.67341 9.95153 6.7006C10.0607 6.7591 10.1801 6.79752 10.3038 6.81391C10.7227 6.87622 11.1513 6.73837 11.2609 6.50421C11.2781 6.46935 11.2874 6.43138 11.2883 6.39279V6.19073C11.2883 6.22943 11.2789 6.26759 11.2609 6.30215Z" fill="url(#paint15_linear_1_43458)"/>
<path d="M11.0578 5.87909C10.9483 5.82141 10.829 5.78304 10.7055 5.76578C10.2867 5.70535 9.85806 5.84321 9.74846 6.07737C9.67408 6.23222 9.7602 6.39274 9.94418 6.49849C10.0533 6.55698 10.1728 6.5954 10.2965 6.61179C10.7153 6.67411 11.1439 6.53626 11.2535 6.30209C11.3377 6.14535 11.2496 5.98673 11.0578 5.87909Z" fill="#EEC280"/>
<path d="M10.9458 5.94135C10.8589 5.89516 10.7641 5.86446 10.6659 5.85071C10.3312 5.80161 9.98674 5.91114 9.89867 6.09809C9.83995 6.22461 9.89867 6.35114 10.0631 6.438C10.1497 6.48441 10.2447 6.51453 10.343 6.52676C10.6796 6.57775 11.0221 6.46633 11.1102 6.27938C11.1708 6.15474 11.1004 6.02633 10.9458 5.94135Z" fill="#A27640"/>
<path d="M11.0475 6.03198V6.16984C11.0476 6.19597 11.0415 6.22177 11.0299 6.24537C10.9555 6.40589 10.662 6.50031 10.3782 6.45688C10.294 6.44549 10.2125 6.41992 10.1374 6.38134C10.0954 6.36158 10.0593 6.33177 10.0326 6.29475C10.0059 6.25773 9.9894 6.21473 9.98477 6.16984V6.03198C9.98978 6.07752 10.007 6.12099 10.0349 6.15809C10.0627 6.1952 10.1001 6.22463 10.1433 6.24348C10.2171 6.28319 10.2982 6.30884 10.3821 6.31902C10.6659 6.36245 10.9595 6.26803 11.0338 6.10941C11.0453 6.08509 11.0513 6.0587 11.0514 6.03198H11.0475Z" fill="#262729"/>
<path d="M10.891 5.82048C11.0201 5.89413 11.0867 6.00932 11.0299 6.10941C10.9556 6.26804 10.662 6.36246 10.3782 6.31902C10.2943 6.30884 10.2132 6.2832 10.1394 6.24349C10.0083 6.16984 9.94368 6.05465 10.0004 5.95456C10.0748 5.79593 10.3664 5.70151 10.6522 5.74495C10.7357 5.75658 10.8165 5.78214 10.891 5.82048Z" fill="#313337"/>
<path d="M10.8832 5.52972V5.99238C10.8828 6.01058 10.8789 6.02854 10.8714 6.04526C10.8182 6.10842 10.7473 6.15565 10.6673 6.1814C10.5872 6.20715 10.5012 6.21036 10.4193 6.19066C10.3615 6.18316 10.3058 6.16522 10.2549 6.13779C10.2253 6.12408 10.1997 6.10341 10.1806 6.07766C10.1614 6.05192 10.1493 6.02195 10.1453 5.99049V5.52783C10.1493 5.55928 10.1614 5.58926 10.1806 5.615C10.1997 5.64074 10.2253 5.66142 10.2549 5.67513C10.3058 5.70256 10.3615 5.7205 10.4193 5.728C10.5014 5.74796 10.5876 5.74469 10.6678 5.71856C10.748 5.69244 10.8187 5.64458 10.8714 5.58071C10.879 5.5647 10.883 5.54733 10.8832 5.52972Z" fill="#2C2E31"/>
<path d="M10.7677 5.38245C10.8597 5.43344 10.9008 5.50709 10.8655 5.58074C10.8128 5.64461 10.7421 5.69247 10.662 5.71859C10.5818 5.74472 10.4955 5.74799 10.4134 5.72803C10.3557 5.72053 10.2999 5.70259 10.249 5.67516C10.159 5.62417 10.1179 5.54863 10.1531 5.47499C10.2058 5.41161 10.2762 5.3642 10.356 5.33841C10.4359 5.31263 10.5217 5.30956 10.6033 5.32958C10.661 5.33708 10.7168 5.35502 10.7677 5.38245Z" fill="#45474D"/>
<g style="mix-blend-mode:multiply" opacity="0.5">
<g style="mix-blend-mode:multiply" opacity="0.2">
<path d="M18.9096 2.53283L10.5719 5.45798L7.56374 0.274292L4.99786 0.918241L10.523 5.45232L0.952332 7.01215L2.17558 8.40391L10.5113 5.47876L13.5214 10.6624L16.0854 10.0204L10.5622 5.48631L20.1329 3.92648L18.9096 2.53283Z" fill="#9D9E9F"/>
</g>
<g style="mix-blend-mode:multiply" opacity="0.6">
<path d="M17.9388 1.85671L10.568 5.45602L6.0978 0.582031L3.757 1.43371L10.5172 5.45413L1.53754 7.8071L3.14635 9.07989L10.5152 5.48246L14.9854 10.3565L17.3282 9.50478L10.5661 5.48435L19.5477 3.13139L17.9388 1.85671Z" fill="#9D9E9F"/>
</g>
<g style="mix-blend-mode:multiply" opacity="0.9">
<path d="M16.7841 1.26945L10.5641 5.45417L4.74343 1.00696L2.6825 2.04936L10.5132 5.45606L2.3439 8.54361L4.3011 9.66722L10.5191 5.48438L16.3418 9.9297L18.4027 8.88919L10.57 5.48061L18.7413 2.39494L16.7841 1.26945Z" fill="#9D9E9F"/>
</g>
<g style="mix-blend-mode:multiply" opacity="0.6">
<path d="M15.4767 0.786011L10.5602 5.45228L3.52996 1.54326L1.80176 2.74996L10.5113 5.45983L3.35381 9.20455L5.6085 10.1525L10.525 5.48627L17.5552 9.39339L19.2834 8.18859L10.5739 5.47871L17.7314 1.73399L15.4767 0.786011Z" fill="#9D9E9F"/>
</g>
<g style="mix-blend-mode:multiply" opacity="0.2">
<path d="M14.046 0.417725L10.5543 5.45034L2.4907 2.17772L1.13632 3.51661L10.5074 5.46167L4.53989 9.77292L7.03922 10.5207L10.5289 5.48622L18.5945 8.76073L19.9489 7.42184L10.5759 5.47678L16.5434 1.16554L14.046 0.417725Z" fill="#9D9E9F"/>
</g>
<g style="mix-blend-mode:multiply" opacity="0.1">
<path d="M9.72645 0.0665283L10.5387 5.4485L0.705734 4.31357L0.537415 5.84318L10.5054 5.47116L8.52277 10.7625L11.3587 10.872L10.5446 5.48816L20.3795 6.62498L20.5458 5.09537L10.5778 5.46739L12.5624 0.176056L9.72645 0.0665283Z" fill="#9D9E9F"/>
</g>
<g style="mix-blend-mode:multiply" opacity="0.4">
<path d="M17.7255 1.80574L10.5719 5.48248L17.015 1.37329L17.7255 1.80574ZM18.2657 9.01003L10.5719 5.48248L17.475 9.38771L18.2657 9.01003ZM4.1269 9.58977L10.5719 5.48248L3.41644 9.15732L4.1269 9.58977ZM2.87625 1.9587L10.5719 5.48248L3.66892 1.58102L2.87625 1.9587Z" fill="#515253"/>
</g>
<g style="mix-blend-mode:multiply" opacity="0.9">
<path d="M18.4634 2.27406L10.572 5.48247L17.6179 1.55835L18.4634 2.27406ZM17.5787 9.33672L10.572 5.48247L16.6177 9.7805L17.5787 9.33672ZM3.55932 9.34805L10.572 5.48247L2.68054 8.69277L3.55932 9.34805ZM3.55932 1.62634L10.572 5.48247L4.52618 1.18445L3.55932 1.62634Z" fill="#515253"/>
</g>
<g style="mix-blend-mode:multiply" opacity="0.6">
<path d="M19.0408 2.73107L10.572 5.48249L18.5182 2.22687L19.0408 2.73107ZM16.7039 9.80884L10.572 5.48249L15.7742 10.0789L16.7039 9.80884ZM2.6238 8.73811L10.572 5.48249L2.10123 8.23391L2.6238 8.73811ZM4.43812 1.15425L10.572 5.48249L5.36583 0.87854L4.43812 1.15425Z" fill="#515253"/>
</g>
</g>
<path d="M10.7774 5.19922V5.50514C10.7802 5.51759 10.7802 5.53046 10.7774 5.54291C10.7402 5.58675 10.6908 5.61945 10.635 5.63717C10.5792 5.6549 10.5193 5.65692 10.4623 5.643C10.4218 5.63823 10.3826 5.62605 10.3469 5.60712C10.3264 5.59776 10.3088 5.58345 10.2958 5.56558C10.2827 5.54771 10.2747 5.52689 10.2725 5.50514V5.19922C10.2747 5.22074 10.2827 5.24134 10.2957 5.25891C10.3088 5.27649 10.3264 5.29042 10.3469 5.2993C10.3825 5.3189 10.4217 5.33172 10.4623 5.33707C10.5195 5.35126 10.5796 5.34918 10.6355 5.33108C10.6915 5.31298 10.7407 5.27965 10.7774 5.2351C10.7802 5.22329 10.7802 5.21103 10.7774 5.19922Z" fill="#2C2E31"/>
<path d="M10.7031 5.09724C10.7657 5.13123 10.7931 5.18411 10.7696 5.23509C10.7329 5.27964 10.6836 5.31298 10.6277 5.33107C10.5718 5.34917 10.5116 5.35125 10.4545 5.33707C10.4139 5.33171 10.3747 5.31889 10.339 5.2993C10.2764 5.26531 10.249 5.21243 10.2725 5.16144C10.3094 5.11708 10.3587 5.08388 10.4145 5.0658C10.4704 5.04772 10.5305 5.04553 10.5876 5.05947C10.628 5.06571 10.6671 5.07848 10.7031 5.09724Z" fill="#45474D"/>
<path d="M10.8832 5.1463V5.24072C10.883 5.25893 10.879 5.27692 10.8714 5.29359C10.8185 5.35713 10.7477 5.40462 10.6675 5.43041C10.5873 5.45619 10.5012 5.45917 10.4193 5.439C10.3615 5.4315 10.3058 5.41356 10.2549 5.38613C10.2255 5.37259 10.2001 5.3522 10.181 5.32682C10.1619 5.30143 10.1496 5.27184 10.1453 5.24072V5.14441C10.1493 5.17586 10.1614 5.20584 10.1806 5.23158C10.1997 5.25732 10.2253 5.278 10.2549 5.29171C10.3058 5.31914 10.3615 5.33708 10.4193 5.34458C10.5012 5.36428 10.5872 5.36107 10.6673 5.33531C10.7473 5.30956 10.8182 5.26234 10.8714 5.19917C10.8789 5.18245 10.8828 5.16449 10.8832 5.1463Z" fill="#2C2E31"/>
<path d="M10.7677 4.99903C10.8597 5.05002 10.9008 5.12556 10.8655 5.1992C10.8123 5.26237 10.7415 5.30959 10.6614 5.33535C10.5813 5.3611 10.4953 5.36431 10.4134 5.34461C10.3557 5.33711 10.2999 5.31917 10.249 5.29174C10.159 5.24075 10.1179 5.16521 10.1531 5.09156C10.2058 5.02819 10.2762 4.98077 10.356 4.95499C10.4359 4.9292 10.5217 4.92614 10.6033 4.94616C10.661 4.95366 10.7168 4.9716 10.7677 4.99903Z" fill="#45474D"/>
<path d="M23.6656 11.5027C23.556 11.7369 23.1254 11.8804 22.7066 11.8143C22.5836 11.7976 22.4648 11.7592 22.3562 11.701C22.2913 11.6744 22.2351 11.6315 22.1934 11.5766C22.1517 11.5218 22.1262 11.4571 22.1194 11.3894V11.5896C22.1256 11.6567 22.1503 11.7209 22.1909 11.7757C22.2315 11.8305 22.2866 11.8738 22.3504 11.9012C22.4598 11.9591 22.5791 11.9975 22.7027 12.0145C23.1215 12.0768 23.5521 11.937 23.6617 11.7048C23.6781 11.6685 23.6861 11.6292 23.6852 11.5896V11.4007C23.685 11.4356 23.6784 11.4701 23.6656 11.5027Z" fill="url(#paint16_linear_1_43458)"/>
<path d="M23.4601 11.0816C23.3515 11.0234 23.2328 10.985 23.1098 10.9683C22.6909 10.906 22.2603 11.0439 22.1507 11.278C22.0764 11.4348 22.1644 11.5934 22.3562 11.701C22.4648 11.7593 22.5836 11.7977 22.7066 11.8143C23.1254 11.8748 23.556 11.7369 23.6656 11.5028C23.74 11.3479 23.6519 11.1874 23.4601 11.0816Z" fill="#EEC280"/>
<path d="M23.3505 11.1439C23.2636 11.0961 23.1679 11.0653 23.0686 11.0533C22.734 11.0023 22.3915 11.1137 22.3034 11.3006C22.2427 11.4253 22.3132 11.5537 22.4658 11.6387C22.5535 11.6846 22.6489 11.7153 22.7477 11.7293C23.0823 11.7784 23.4268 11.6689 23.5149 11.4819C23.5736 11.3554 23.5031 11.2289 23.3505 11.1439Z" fill="#A27640"/>
<path d="M23.4523 11.2347V11.3725C23.4519 11.3986 23.4459 11.4243 23.4346 11.4481C23.3603 11.6067 23.0686 11.7011 22.7829 11.6596C22.6992 11.6476 22.6183 11.6214 22.5441 11.5821C22.5008 11.5637 22.4633 11.5343 22.4358 11.4971C22.4083 11.4599 22.3916 11.4162 22.3875 11.3706V11.2328C22.3916 11.2784 22.4083 11.322 22.4358 11.3592C22.4633 11.3964 22.5008 11.4258 22.5441 11.4443C22.6183 11.4835 22.6992 11.5098 22.7829 11.5217C23.0686 11.5633 23.3701 11.4688 23.4346 11.3102C23.4475 11.287 23.4542 11.261 23.4542 11.2347H23.4523Z" fill="#262729"/>
<path d="M23.2937 11.0231C23.4249 11.0949 23.4895 11.212 23.4327 11.3102C23.3583 11.4688 23.0667 11.5632 22.781 11.5217C22.6972 11.5097 22.6164 11.4835 22.5422 11.4442C22.411 11.3725 22.3465 11.2554 22.4032 11.1572C22.4776 10.9967 22.7692 10.9042 23.055 10.9457C23.1387 10.9577 23.2195 10.9839 23.2937 11.0231Z" fill="#313337"/>
<path d="M23.2937 10.7303V11.193C23.2936 11.2112 23.2896 11.2292 23.282 11.2459C23.2295 11.3094 23.1591 11.357 23.0792 11.3828C22.9993 11.4086 22.9134 11.4116 22.8318 11.3913C22.7735 11.3835 22.7172 11.3656 22.6655 11.3384C22.6358 11.3255 22.6102 11.3053 22.5913 11.2797C22.5724 11.2542 22.5608 11.2243 22.5578 11.193V10.7303C22.5608 10.7616 22.5724 10.7915 22.5913 10.8171C22.6102 10.8426 22.6358 10.8629 22.6655 10.8758C22.7172 10.9029 22.7735 10.9208 22.8318 10.9286C22.9134 10.9491 22.9994 10.9463 23.0793 10.9205C23.1592 10.8947 23.2297 10.847 23.282 10.7832C23.2902 10.7667 23.2949 10.7487 23.2957 10.7303H23.2937Z" fill="#2C2E31"/>
<path d="M23.1783 10.585C23.2683 10.6341 23.3094 10.7096 23.2742 10.7738C23.2218 10.8376 23.1514 10.8853 23.0715 10.9111C22.9916 10.9369 22.9056 10.9397 22.824 10.9192C22.7657 10.9114 22.7094 10.8935 22.6577 10.8664C22.5676 10.8154 22.5265 10.7417 22.5617 10.6775C22.6145 10.6136 22.6852 10.5658 22.7653 10.5397C22.8455 10.5135 22.9318 10.5103 23.0139 10.5302C23.0715 10.5395 23.127 10.558 23.1783 10.585Z" fill="#45474D"/>
<g style="mix-blend-mode:multiply" opacity="0.5">
<g style="mix-blend-mode:multiply" opacity="0.2">
<path d="M31.3123 7.73535L22.9766 10.6605L19.9665 5.47681L17.4026 6.11887L22.9258 10.6548L13.3551 12.2128L14.5783 13.6064L22.916 10.6813L25.9242 15.865L28.4901 15.221L22.9669 10.6869L32.5356 9.12711L31.3123 7.73535Z" fill="#9D9E9F"/>
</g>
<g style="mix-blend-mode:multiply" opacity="0.6">
<path d="M30.3416 7.05928L22.9727 10.6567L18.5025 5.78271L16.1597 6.63439L22.9218 10.6567L13.9403 13.0078L15.551 14.2825L22.9199 10.6831L27.3901 15.559L29.7329 14.7055L22.9708 10.685L31.9524 8.33207L30.3416 7.05928Z" fill="#9D9E9F"/>
</g>
<g style="mix-blend-mode:multiply" opacity="0.9">
<path d="M29.1868 6.47196L22.9688 10.6548L17.1462 6.20947L15.0852 7.24999L22.9179 10.6586L14.7466 13.7442L16.7038 14.8697L22.9238 10.685L28.7445 15.1322L30.8074 14.0898L22.9747 10.6831L31.144 7.59557L29.1868 6.47196Z" fill="#9D9E9F"/>
</g>
<g style="mix-blend-mode:multiply" opacity="0.6">
<path d="M27.8794 5.98853L22.9629 10.6529L15.9347 6.74578L14.2045 7.95059L22.914 10.6605L15.7566 14.4052L18.0132 15.3532L22.9277 10.6869L29.958 14.5959L31.6862 13.3911L22.9767 10.6793L30.1341 6.93462L27.8794 5.98853Z" fill="#9D9E9F"/>
</g>
<g style="mix-blend-mode:multiply" opacity="0.2">
<path d="M26.4487 5.62036L22.959 10.653L14.8954 7.37847L13.541 8.71736L22.9121 10.6643L16.9446 14.9737L19.442 15.7215L22.9336 10.6889L30.9972 13.9615L32.3516 12.6226L22.9806 10.6775L28.9481 6.36628L26.4487 5.62036Z" fill="#9D9E9F"/>
</g>
<g style="mix-blend-mode:multiply" opacity="0.1">
<path d="M22.1292 5.26721L22.9434 10.6511L13.1085 9.51425L12.9421 11.0439L22.9101 10.6718L20.9255 15.9632L23.7634 16.0727L22.9493 10.6907L32.7822 11.8257L32.9505 10.2961L22.9825 10.67L24.9652 5.37674L22.1292 5.26721Z" fill="#9D9E9F"/>
</g>
<g style="mix-blend-mode:multiply" opacity="0.4">
<path d="M30.1282 7.00831L22.9747 10.6832L29.4197 6.57397L30.1282 7.00831ZM30.6704 14.2107L22.9747 10.6832L29.8758 14.5884L30.6704 14.2107ZM16.5296 14.7999L22.9747 10.6832L15.8192 14.358L16.5296 14.7999ZM15.279 7.16316L22.9747 10.6832L16.0736 6.77792L15.279 7.16316Z" fill="#515253"/>
</g>
<g style="mix-blend-mode:multiply" opacity="0.9">
<path d="M30.8661 7.47475L22.9747 10.685L30.0206 6.76093L30.8661 7.47475ZM29.9815 14.5393L22.9747 10.6832L29.0185 14.9887L29.9815 14.5393ZM15.9621 14.5506L22.9747 10.6832L15.0833 13.8935L15.9621 14.5506ZM15.9621 6.82891L22.9688 10.6832L16.9309 6.38513L15.9621 6.82891Z" fill="#515253"/>
</g>
<g style="mix-blend-mode:multiply" opacity="0.6">
<path d="M31.4435 7.93176L22.9747 10.6832L30.9268 7.4351L31.4435 7.93176ZM29.1066 15.0114L22.9747 10.6832L28.1867 15.2871L29.1066 15.0114ZM15.0285 13.9388L22.9747 10.6832L14.5059 13.4346L15.0285 13.9388ZM16.835 6.35493L22.9747 10.6832L17.7705 6.07922L16.835 6.35493Z" fill="#515253"/>
</g>
</g>
<path d="M23.1822 10.3999V10.7077C23.1817 10.7202 23.1784 10.7325 23.1724 10.7436C23.1362 10.7882 23.0872 10.8216 23.0316 10.8397C22.976 10.8578 22.9161 10.8598 22.8593 10.8456C22.8188 10.8393 22.7798 10.8266 22.7438 10.8078C22.7227 10.799 22.7045 10.7849 22.691 10.767C22.6776 10.749 22.6695 10.7279 22.6674 10.7058V10.3999C22.67 10.4218 22.6784 10.4427 22.6918 10.4605C22.7052 10.4784 22.7231 10.4926 22.7438 10.5019C22.7796 10.5208 22.8187 10.533 22.8593 10.5378C22.9159 10.5518 22.9755 10.5498 23.031 10.532C23.0866 10.5143 23.1356 10.4815 23.1724 10.4377C23.1784 10.4259 23.1817 10.413 23.1822 10.3999Z" fill="#2C2E31"/>
<path d="M23.098 10.2979C23.1607 10.3338 23.19 10.3867 23.1646 10.4376C23.1278 10.4815 23.0787 10.5143 23.0232 10.532C22.9677 10.5498 22.9081 10.5517 22.8514 10.5377C22.8109 10.533 22.7717 10.5208 22.7359 10.5019C22.6733 10.466 22.644 10.415 22.6694 10.3621C22.7062 10.3182 22.7552 10.2855 22.8108 10.2678C22.8663 10.25 22.9259 10.248 22.9825 10.262C23.0231 10.2668 23.0622 10.279 23.098 10.2979Z" fill="#45474D"/>
<path d="M23.2937 10.347V10.4434C23.2936 10.461 23.2896 10.4783 23.282 10.4943C23.2297 10.5582 23.1594 10.6062 23.0795 10.6323C22.9996 10.6584 22.9136 10.6617 22.8318 10.6416C22.7734 10.6332 22.717 10.6147 22.6655 10.5869C22.6358 10.574 22.6102 10.5537 22.5913 10.5282C22.5724 10.5026 22.5608 10.4727 22.5578 10.4415V10.347C22.5608 10.3783 22.5724 10.4082 22.5913 10.4338C22.6102 10.4593 22.6358 10.4796 22.6655 10.4925C22.7172 10.5196 22.7735 10.5375 22.8318 10.5453C22.9134 10.5658 22.9994 10.563 23.0793 10.5372C23.1592 10.5114 23.2297 10.4637 23.282 10.3999C23.2902 10.3834 23.2949 10.3654 23.2957 10.347H23.2937Z" fill="#2C2E31"/>
<path d="M23.1783 10.2017C23.2683 10.2508 23.3094 10.3263 23.2742 10.3999C23.2218 10.4637 23.1514 10.5114 23.0715 10.5372C22.9916 10.563 22.9056 10.5659 22.824 10.5454C22.7657 10.5375 22.7094 10.5196 22.6577 10.4925C22.5676 10.4415 22.5265 10.3678 22.5617 10.3036C22.6144 10.2397 22.6852 10.192 22.7654 10.1661C22.8457 10.1403 22.932 10.1376 23.0139 10.1582C23.0709 10.1631 23.1266 10.1778 23.1783 10.2017Z" fill="#45474D"/>
<path d="M20.3579 9.38203L18.8881 10.1997L18.7941 10.1487L20.2601 9.32349L20.3579 9.38203ZM20.4617 9.43868L18.9879 10.2677L19.0799 10.3187L20.5536 9.49155L20.4617 9.43868ZM20.6574 9.54821L19.1836 10.3678L19.2776 10.4188L20.7494 9.60108L20.6574 9.54821ZM20.8531 9.65774L19.3793 10.4773L19.4733 10.5283L20.9451 9.71061L20.8531 9.65774ZM21.0488 9.76726L19.5751 10.5868L19.669 10.6378L21.1408 9.82014L21.0488 9.76726ZM21.2445 9.87679L19.7708 10.6964L19.8647 10.7473L21.3365 9.92967L21.2445 9.87679ZM21.4403 9.98632L19.9665 10.8059L20.0585 10.8569L21.5322 10.0392L21.4403 9.98632ZM21.636 10.0958L20.1622 10.9154L20.2562 10.9664L21.728 10.1487L21.636 10.0958Z" fill="#A27640"/>
<g style="mix-blend-mode:multiply" opacity="0.3">
<g style="mix-blend-mode:multiply">
<path d="M8.4523 11.854L18.8059 17.6326L18.8391 17.6212L8.4523 11.8257C8.45132 11.8351 8.45132 11.8446 8.4523 11.854Z" fill="#A27640"/>
</g>
</g>
<path d="M9.67165 12.1806L9.43092 12.0466C9.37659 12.0167 9.33048 11.9747 9.29643 11.9241C9.26237 11.8735 9.24138 11.8158 9.2352 11.7557V11.2799C9.2352 11.1779 9.32132 11.1439 9.43092 11.2024L9.67165 11.3365C9.72598 11.3664 9.7721 11.4084 9.80615 11.459C9.8402 11.5096 9.86119 11.5673 9.86737 11.6273V12.1032C9.86346 12.2052 9.77734 12.2392 9.67165 12.1806ZM11.9831 13.2891V12.8095C11.9769 12.7494 11.9559 12.6917 11.9219 12.6411C11.8878 12.5905 11.8417 12.5485 11.7874 12.5187L11.5506 12.3827C11.4468 12.3242 11.3548 12.36 11.3548 12.462V12.936C11.361 12.996 11.382 13.0538 11.4161 13.1044C11.4501 13.155 11.4962 13.1969 11.5506 13.2268L11.7933 13.3628C11.8989 13.4213 11.9831 13.3854 11.9831 13.2891ZM14.1047 14.4713V13.9897C14.0985 13.9297 14.0775 13.872 14.0435 13.8214C14.0094 13.7708 13.9633 13.7288 13.909 13.6989L13.6663 13.5648C13.5606 13.5063 13.4706 13.5403 13.4706 13.6423V14.1181C13.4767 14.1782 13.4977 14.2359 13.5318 14.2865C13.5658 14.3371 13.612 14.3791 13.6663 14.409L13.909 14.543C14.0186 14.611 14.1047 14.5676 14.1047 14.4656V14.4713ZM16.2263 15.6534V15.1775C16.2201 15.1175 16.1991 15.0598 16.1651 15.0092C16.131 14.9586 16.0849 14.9166 16.0306 14.8867L15.7898 14.7526C15.6842 14.6922 15.5941 14.7281 15.5941 14.8301V15.306C15.6006 15.3657 15.6217 15.423 15.6558 15.4733C15.6898 15.5235 15.7358 15.5652 15.7898 15.5949L16.0306 15.7308C16.1402 15.7837 16.2263 15.7441 16.2263 15.6478V15.6534ZM18.342 16.8318V16.3502C18.3359 16.2902 18.3149 16.2325 18.2808 16.1819C18.2468 16.1313 18.2006 16.0893 18.1463 16.0594L17.9095 15.9329C17.8038 15.8744 17.7138 15.9084 17.7138 16.0103V16.4862C17.72 16.5462 17.7409 16.604 17.775 16.6546C17.809 16.7052 17.8552 16.7472 17.9095 16.777L18.1502 16.9111C18.2559 16.9621 18.342 16.9281 18.342 16.8261V16.8318Z" fill="#232321"/>
<path d="M18.3283 16.8866C18.299 16.9376 18.2305 16.949 18.1502 16.9036L17.9095 16.7696C17.8552 16.7397 17.809 16.6977 17.775 16.6471C17.7409 16.5965 17.7199 16.5388 17.7138 16.4788V16.0029C17.7121 15.9904 17.7132 15.9777 17.7169 15.9656C17.7207 15.9535 17.727 15.9423 17.7354 15.9327C17.7439 15.9231 17.7544 15.9153 17.7661 15.9098C17.7779 15.9044 17.7907 15.9013 17.8038 15.9009C17.7931 15.9193 17.7877 15.9402 17.7881 15.9613V16.4372C17.7943 16.4972 17.8153 16.555 17.8494 16.6056C17.8834 16.6562 17.9295 16.6982 17.9839 16.728L18.2246 16.8621C18.2555 16.8809 18.2919 16.8895 18.3283 16.8866ZM11.8696 13.3213L11.6269 13.1854C11.5728 13.1557 11.5269 13.114 11.4928 13.0637C11.4588 13.0135 11.4376 12.9561 11.4312 12.8964V12.4206C11.4311 12.3991 11.4358 12.3779 11.4449 12.3582C11.4319 12.3592 11.4192 12.3626 11.4077 12.3684C11.3962 12.3742 11.386 12.3822 11.3777 12.3919C11.3695 12.4016 11.3634 12.4129 11.3598 12.4249C11.3562 12.437 11.3552 12.4496 11.3568 12.4621V12.9361C11.363 12.9961 11.384 13.0539 11.418 13.1045C11.4521 13.155 11.4982 13.197 11.5525 13.2269L11.7952 13.3629C11.8754 13.4063 11.944 13.3969 11.9714 13.3459C11.935 13.3481 11.8988 13.3396 11.8676 13.3213H11.8696ZM9.74602 12.1392L9.50528 12.0051C9.45096 11.9752 9.40484 11.9332 9.37079 11.8826C9.33674 11.8321 9.31574 11.7743 9.30957 11.7143V11.2384C9.30952 11.2175 9.3142 11.1969 9.32327 11.178C9.31038 11.1787 9.29777 11.1819 9.28623 11.1875C9.2747 11.1931 9.26447 11.2009 9.25621 11.2105C9.24795 11.22 9.24181 11.2311 9.2382 11.2431C9.23458 11.2551 9.23356 11.2676 9.23519 11.28V11.7558C9.24137 11.8159 9.26237 11.8736 9.29642 11.9242C9.33047 11.9748 9.37659 12.0168 9.43091 12.0466L9.67165 12.1807C9.75189 12.226 9.82039 12.2147 9.84975 12.1637C9.81342 12.1656 9.77732 12.1571 9.74602 12.1392ZM13.9873 14.5016L13.7465 14.3675C13.6922 14.3376 13.6461 14.2956 13.612 14.2451C13.578 14.1945 13.557 14.1367 13.5508 14.0767V13.6008C13.5504 13.5797 13.5558 13.5588 13.5665 13.5404C13.5534 13.5408 13.5406 13.5439 13.5288 13.5493C13.517 13.5548 13.5066 13.5626 13.4981 13.5722C13.4896 13.5818 13.4833 13.593 13.4796 13.6051C13.4759 13.6171 13.4748 13.6298 13.4764 13.6424V14.1182C13.4826 14.1783 13.5036 14.236 13.5377 14.2866C13.5717 14.3372 13.6178 14.3792 13.6722 14.4091L13.9148 14.5431C13.9931 14.5885 14.0616 14.579 14.091 14.5261C14.0546 14.529 14.0182 14.5204 13.9873 14.5016ZM16.1089 15.6837L15.8662 15.5553C15.8118 15.5254 15.7657 15.4835 15.7317 15.4329C15.6976 15.3823 15.6766 15.3245 15.6705 15.2645V14.783C15.6701 14.7621 15.6748 14.7414 15.6842 14.7225C15.6713 14.7232 15.6587 14.7264 15.6471 14.732C15.6356 14.7376 15.6254 14.7454 15.6171 14.755C15.6088 14.7646 15.6027 14.7757 15.5991 14.7876C15.5955 14.7996 15.5944 14.8121 15.5961 14.8245V15.3004C15.6026 15.3601 15.6237 15.4174 15.6577 15.4677C15.6918 15.5179 15.7377 15.5596 15.7918 15.5893L16.0325 15.7253C16.1128 15.7687 16.1813 15.7593 16.2087 15.7083C16.1737 15.7095 16.139 15.701 16.1089 15.6837Z" fill="#C2965B"/>
<path d="M7.99043 11.0702L6.98834 10.5113L7.49526 9.50098L8.19593 9.88999L7.99043 11.0702Z" fill="#232321"/>
<path d="M7.1136 10.4433L7.56571 9.53874L7.49526 9.50098L6.98834 10.5113L7.99043 11.0702L8.01195 10.9456L7.1136 10.4433Z" fill="#C2965B"/>
<path d="M7.1136 10.4433L7.56571 9.53874L7.49526 9.50098L6.98834 10.5113L7.1136 10.4433Z" fill="#AC804A"/>
<defs>
<linearGradient id="paint0_linear_1_43458" x1="16.1911" y1="18.7222" x2="16.6564" y2="19.558" gradientUnits="userSpaceOnUse">
<stop stop-color="#494644"/>
<stop offset="0.08" stop-color="#4F4C4A"/>
<stop offset="0.31" stop-color="#5D5957"/>
<stop offset="0.5" stop-color="#625E5C"/>
<stop offset="0.92" stop-color="#4E4A48"/>
<stop offset="1" stop-color="#494644"/>
</linearGradient>
<linearGradient id="paint1_linear_1_43458" x1="7.76729" y1="13.0248" x2="8.23262" y2="13.8625" gradientUnits="userSpaceOnUse">
<stop stop-color="#494644"/>
<stop offset="0.08" stop-color="#4F4C4A"/>
<stop offset="0.31" stop-color="#5D5957"/>
<stop offset="0.5" stop-color="#625E5C"/>
<stop offset="0.92" stop-color="#4E4A48"/>
<stop offset="1" stop-color="#494644"/>
</linearGradient>
<linearGradient id="paint2_linear_1_43458" x1="7.31911" y1="13.276" x2="7.78638" y2="14.112" gradientUnits="userSpaceOnUse">
<stop stop-color="#494644"/>
<stop offset="0.08" stop-color="#4F4C4A"/>
<stop offset="0.31" stop-color="#5D5957"/>
<stop offset="0.5" stop-color="#625E5C"/>
<stop offset="0.92" stop-color="#4E4A48"/>
<stop offset="1" stop-color="#494644"/>
</linearGradient>
<linearGradient id="paint3_linear_1_43458" x1="19.8608" y1="16.9282" x2="21.8818" y2="20.5543" gradientUnits="userSpaceOnUse">
<stop stop-color="#2C2E31"/>
<stop offset="1" stop-color="#45474D"/>
</linearGradient>
<linearGradient id="paint4_linear_1_43458" x1="17.3028" y1="17.9403" x2="22.8495" y2="17.9403" gradientUnits="userSpaceOnUse">
<stop stop-color="#2C2E31"/>
<stop offset="1" stop-color="#45474D"/>
</linearGradient>
<linearGradient id="paint5_linear_1_43458" x1="14.2554" y1="12.2769" x2="12.4718" y2="15.4783" gradientUnits="userSpaceOnUse">
<stop stop-color="#CB9F63"/>
<stop offset="0.13" stop-color="#BB8F56"/>
<stop offset="0.29" stop-color="#B0844D"/>
<stop offset="0.45" stop-color="#AC804A"/>
<stop offset="0.81" stop-color="#A77B45"/>
<stop offset="1" stop-color="#A27640"/>
</linearGradient>
<linearGradient id="paint6_linear_1_43458" x1="25.2764" y1="14.5771" x2="20.7064" y2="17.5957" gradientUnits="userSpaceOnUse">
<stop stop-color="#D0A367"/>
<stop offset="0.68" stop-color="#AC804A"/>
<stop offset="1" stop-color="#A27640"/>
</linearGradient>
<linearGradient id="paint7_linear_1_43458" x1="17.8155" y1="9.6955" x2="15.8373" y2="13.2466" gradientUnits="userSpaceOnUse">
<stop stop-color="#EEC280"/>
<stop offset="0.51" stop-color="#ECC07E"/>
<stop offset="0.73" stop-color="#E5B978"/>
<stop offset="0.89" stop-color="#D8AC6E"/>
<stop offset="1" stop-color="#CB9F63"/>
</linearGradient>
<linearGradient id="paint8_linear_1_43458" x1="21.0899" y1="12.7869" x2="23.5834" y2="12.7869" gradientUnits="userSpaceOnUse">
<stop stop-color="#AC804A"/>
<stop offset="0.2" stop-color="#B0844D"/>
<stop offset="0.4" stop-color="#BC8F57"/>
<stop offset="0.59" stop-color="#CEA066"/>
</linearGradient>
<linearGradient id="paint9_linear_1_43458" x1="21.9198" y1="9.95431" x2="20.4198" y2="12.6465" gradientUnits="userSpaceOnUse">
<stop stop-color="#FFD38C"/>
<stop offset="0.46" stop-color="#EFC380"/>
<stop offset="1" stop-color="#D8AC6E"/>
</linearGradient>
<linearGradient id="paint10_linear_1_43458" x1="11.8383" y1="8.75131" x2="13.4819" y2="8.08838" gradientUnits="userSpaceOnUse">
<stop stop-color="#AC804A"/>
<stop offset="0.04" stop-color="#BA8D55"/>
<stop offset="0.11" stop-color="#C5985F"/>
<stop offset="0.2" stop-color="#CC9E64"/>
<stop offset="0.46" stop-color="#CEA066"/>
</linearGradient>
<linearGradient id="paint11_linear_1_43458" x1="11.6524" y1="5.90548" x2="10.1691" y2="8.56691" gradientUnits="userSpaceOnUse">
<stop stop-color="#FFD38C"/>
<stop offset="0.46" stop-color="#EFC380"/>
<stop offset="1" stop-color="#D8AC6E"/>
</linearGradient>
<linearGradient id="paint12_linear_1_43458" x1="14.5803" y1="15.4306" x2="14.0241" y2="16.4317" gradientUnits="userSpaceOnUse">
<stop stop-color="#CB9F63"/>
<stop offset="0.36" stop-color="#C4985E"/>
<stop offset="0.87" stop-color="#B2864F"/>
<stop offset="1" stop-color="#AC804A"/>
</linearGradient>
<linearGradient id="paint13_linear_1_43458" x1="16.79" y1="11.4442" x2="15.9427" y2="12.9661" gradientUnits="userSpaceOnUse">
<stop offset="0.22" stop-color="#FFD38C"/>
<stop offset="0.23" stop-color="#F1C581"/>
<stop offset="0.24" stop-color="#CB9F63"/>
<stop offset="0.32" stop-color="#C69A5F"/>
<stop offset="0.72" stop-color="#B38750"/>
<stop offset="1" stop-color="#AC804A"/>
</linearGradient>
<linearGradient id="paint14_linear_1_43458" x1="19.1151" y1="13.0626" x2="18.5348" y2="14.1041" gradientUnits="userSpaceOnUse">
<stop stop-color="#CB9F63"/>
<stop offset="0.4" stop-color="#C2965C"/>
<stop offset="1" stop-color="#AC804A"/>
</linearGradient>
<linearGradient id="paint15_linear_1_43458" x1="9.72058" y1="6.50798" x2="11.2883" y2="6.50798" gradientUnits="userSpaceOnUse">
<stop stop-color="#AC804A"/>
<stop offset="0.33" stop-color="#B2854F"/>
<stop offset="0.76" stop-color="#C1945C"/>
<stop offset="1" stop-color="#CEA066"/>
</linearGradient>
<linearGradient id="paint16_linear_1_43458" x1="22.1233" y1="11.7104" x2="23.693" y2="11.7104" gradientUnits="userSpaceOnUse">
<stop stop-color="#AC804A"/>
<stop offset="0.33" stop-color="#B2854F"/>
<stop offset="0.76" stop-color="#C1945C"/>
<stop offset="1" stop-color="#CEA066"/>
</linearGradient>
</defs>
</svg>
