<svg width="63" height="39" viewBox="0 0 63 39" fill="none" xmlns="http://www.w3.org/2000/svg">
<path d="M16.5944 9.99982V10.2398C16.5988 10.2492 16.6012 10.2594 16.6012 10.2698C16.6012 10.2802 16.5988 10.2904 16.5944 10.2998V10.0998C16.5997 10.0907 16.6024 10.0803 16.6024 10.0698C16.6024 10.0593 16.5997 10.0489 16.5944 10.0398V9.99982Z" fill="#A29C71"/>
<path d="M16.5544 10.0998L12.7844 12.8598V13.0998L16.5544 10.3398C16.5588 10.3304 16.5611 10.3202 16.5611 10.3098C16.5611 10.2994 16.5588 10.2892 16.5544 10.2798V9.99982C16.5626 10.0053 16.5694 10.0127 16.5741 10.0214C16.5788 10.0302 16.5812 10.0399 16.5812 10.0498C16.5812 10.0597 16.5788 10.0695 16.5741 10.0782C16.5694 10.0869 16.5626 10.0943 16.5544 10.0998Z" fill="#C0955E"/>
<path d="M12.7844 12.8598V13.0998L11.0344 12.0898V11.8498L12.7844 12.8598Z" fill="#57543D"/>
<path d="M16.5444 9.99982C16.6044 9.99982 16.6144 10.0898 16.5444 10.1298L12.7744 12.8898L11.0244 11.8898L15.2644 9.41982C15.3032 9.40045 15.346 9.39037 15.3894 9.39037C15.4328 9.39037 15.4756 9.40045 15.5144 9.41982L16.5444 9.99982Z" fill="#EBC080"/>
<path d="M38.7844 19.5198C38.695 19.467 38.5932 19.4392 38.4894 19.4392C38.3856 19.4392 38.2837 19.467 38.1944 19.5198C37.9527 19.6779 37.7517 19.8906 37.6075 20.1408C37.4633 20.3909 37.3801 20.6715 37.3644 20.9598C37.3523 21.0631 37.3682 21.1677 37.4105 21.2627C37.4527 21.3577 37.5197 21.4396 37.6044 21.4998L41.6044 23.8598C41.5212 23.7982 41.4554 23.716 41.4133 23.6214C41.3712 23.5268 41.3544 23.4229 41.3644 23.3198C41.3785 23.0311 41.4611 22.7499 41.6054 22.4995C41.7497 22.2491 41.9516 22.0367 42.1944 21.8798C42.2795 21.8205 42.3784 21.7838 42.4816 21.7733C42.5849 21.7628 42.6891 21.7788 42.7844 21.8198L38.7844 19.5198Z" fill="url(#paint0_linear_1_31749)"/>
<path d="M42.2444 21.9298C42.0016 22.0867 41.7997 22.2991 41.6554 22.5495C41.5111 22.7999 41.4284 23.0811 41.4144 23.3698C41.4144 23.8998 41.7844 24.1098 42.2444 23.8498C42.486 23.6917 42.687 23.479 42.8312 23.2289C42.9754 22.9787 43.0587 22.6981 43.0744 22.4098C43.0744 21.8798 42.7044 21.6698 42.2444 21.9298Z" fill="#AB804B"/>
<g style="mix-blend-mode:multiply" opacity="0.5">
<g style="mix-blend-mode:multiply">
<path d="M42.8444 22.3998C42.9244 22.3998 42.9844 22.3998 42.9844 22.4698C42.9804 22.5152 42.9667 22.5592 42.9443 22.5989C42.9218 22.6385 42.8912 22.6729 42.8544 22.6998C42.7744 22.6998 42.7244 22.6998 42.7144 22.6198C42.7178 22.5757 42.7313 22.5329 42.7539 22.4947C42.7764 22.4566 42.8074 22.4241 42.8444 22.3998Z" fill="#AB804B"/>
</g>
<g style="mix-blend-mode:multiply">
<path d="M42.6744 22.9998C42.6744 22.9998 42.7444 22.9998 42.7644 22.9998C42.7844 22.9998 42.8144 23.1198 42.7644 23.2098C42.745 23.2488 42.7134 23.2804 42.6744 23.2998C42.6611 23.3088 42.6455 23.3137 42.6294 23.3137C42.6134 23.3137 42.5977 23.3088 42.5844 23.2998C42.5844 23.2998 42.5844 23.1798 42.5844 23.0898C42.6074 23.0535 42.6381 23.0228 42.6744 22.9998Z" fill="#AB804B"/>
</g>
<g style="mix-blend-mode:multiply">
<path d="M42.2544 22.6298C42.3744 22.5598 42.4744 22.6298 42.4744 22.7598C42.4699 22.8387 42.4478 22.9155 42.4097 22.9847C42.3716 23.0539 42.3186 23.1138 42.2544 23.1598C42.1244 23.2298 42.0244 23.1598 42.0244 23.0198C42.0286 22.9411 42.0516 22.8646 42.0917 22.7967C42.1317 22.7288 42.1875 22.6715 42.2544 22.6298Z" fill="#AB804B"/>
</g>
<g style="mix-blend-mode:multiply">
<path d="M42.2544 23.4298C42.3244 23.4298 42.3844 23.4298 42.3844 23.5098C42.381 23.554 42.3675 23.5968 42.3449 23.6349C42.3224 23.673 42.2914 23.7055 42.2544 23.7298C42.1844 23.7298 42.1244 23.7298 42.1244 23.6598C42.1255 23.6137 42.1379 23.5686 42.1606 23.5285C42.1832 23.4884 42.2155 23.4545 42.2544 23.4298Z" fill="#AB804B"/>
</g>
<g style="mix-blend-mode:multiply">
<path d="M41.8244 22.4998C41.8384 22.4928 41.8538 22.4891 41.8694 22.4891C41.885 22.4891 41.9004 22.4928 41.9144 22.4998C41.9144 22.4998 41.9144 22.6198 41.9144 22.7098C41.8956 22.7517 41.8641 22.7867 41.8244 22.8098C41.8104 22.8169 41.795 22.8205 41.7794 22.8205C41.7638 22.8205 41.7484 22.8169 41.7344 22.8098C41.6844 22.8098 41.6844 22.6898 41.7344 22.5998C41.7532 22.5579 41.7847 22.5229 41.8244 22.4998Z" fill="#AB804B"/>
</g>
<g style="mix-blend-mode:multiply">
<path d="M41.8244 23.4698C41.8244 23.4698 41.8944 23.4698 41.9144 23.4698C41.9344 23.4698 41.9744 23.5898 41.9144 23.6798C41.8889 23.7175 41.8545 23.7484 41.8144 23.7698C41.8011 23.7788 41.7854 23.7837 41.7694 23.7837C41.7533 23.7837 41.7377 23.7788 41.7244 23.7698C41.6744 23.7698 41.6744 23.6498 41.7244 23.5598C41.7502 23.5224 41.7845 23.4916 41.8244 23.4698Z" fill="#AB804B"/>
</g>
<g style="mix-blend-mode:multiply">
<path d="M41.7844 23.1598C41.7825 23.2057 41.7697 23.2505 41.7471 23.2905C41.7245 23.3305 41.6927 23.3645 41.6544 23.3898C41.5744 23.3898 41.5144 23.3898 41.5144 23.3098C41.5178 23.2657 41.5313 23.2229 41.5539 23.1847C41.5764 23.1466 41.6074 23.1141 41.6444 23.0898C41.7244 23.0498 41.7844 23.0798 41.7844 23.1598Z" fill="#AB804B"/>
</g>
<g style="mix-blend-mode:multiply">
<path d="M42.2444 22.3498C42.1744 22.3498 42.1144 22.3498 42.1144 22.2798C42.1171 22.2341 42.1302 22.1896 42.1527 22.1497C42.1753 22.1099 42.2066 22.0757 42.2444 22.0498C42.3244 22.0498 42.3744 22.0498 42.3744 22.1298C42.3735 22.1746 42.3611 22.2183 42.3383 22.2569C42.3155 22.2954 42.2832 22.3274 42.2444 22.3498Z" fill="#AB804B"/>
</g>
<g style="mix-blend-mode:multiply">
<path d="M42.6744 22.3098C42.6605 22.3169 42.645 22.3205 42.6294 22.3205C42.6138 22.3205 42.5984 22.3169 42.5844 22.3098C42.5844 22.3098 42.5844 22.1898 42.5844 22.0998C42.6032 22.0579 42.6347 22.0229 42.6744 21.9998C42.6884 21.9928 42.7038 21.9891 42.7194 21.9891C42.735 21.9891 42.7504 21.9928 42.7644 21.9998C42.8144 21.9998 42.8144 22.1198 42.7644 22.2098C42.7456 22.2517 42.7141 22.2867 42.6744 22.3098Z" fill="#AB804B"/>
</g>
</g>
<path d="M37.7244 21.2898L37.7644 21.2598L38.6344 21.7598L38.5844 21.7898L37.7244 21.2898Z" fill="#4D5057"/>
<path d="M40.5844 22.5198C40.5844 22.5198 40.3444 22.8698 40.3744 22.8798L37.5844 21.2698C37.5844 21.2698 37.5844 21.2198 37.5844 21.1798C37.5833 21.1281 37.5957 21.077 37.6202 21.0314C37.6447 20.9858 37.6806 20.9474 37.7244 20.9198C37.7411 20.9102 37.7601 20.9051 37.7794 20.9051C37.7987 20.9051 37.8177 20.9102 37.8344 20.9198L40.5844 22.5198Z" fill="#5C5E5E"/>
<path d="M41.0144 22.9998C41.0144 23.1498 40.6544 23.0698 40.3544 22.8998C40.3544 22.8998 40.3544 22.8998 40.3544 22.8098C40.3542 22.7583 40.367 22.7075 40.3914 22.6621C40.4159 22.6167 40.4513 22.5781 40.4944 22.5498C40.5111 22.5402 40.5301 22.5351 40.5494 22.5351C40.5687 22.5351 40.5876 22.5402 40.6044 22.5498C40.8344 22.6698 41.0144 22.8798 41.0144 22.9998Z" fill="#878989"/>
<path d="M37.7544 20.8198L37.8044 20.7998L38.2244 21.0398L38.1744 21.0698L37.7544 20.8198Z" fill="#4D5057"/>
<path d="M39.0544 22.7698L39.7844 22.3398V22.5398L39.0544 22.9698V22.7698Z" fill="#C0955E"/>
<path d="M37.9444 21.2798L37.2044 21.7098L39.0544 22.7698L39.7844 22.3398L37.9444 21.2798Z" fill="#CBA067"/>
<path d="M36.7844 21.8298L36.8244 21.7998L37.6944 22.2998L37.6444 22.3298L36.7844 21.8298Z" fill="#4D5057"/>
<path d="M39.6444 23.0598C39.6444 23.0598 39.4144 23.4098 39.4344 23.4198L36.6444 21.8098C36.638 21.7957 36.6348 21.7803 36.6348 21.7648C36.6348 21.7493 36.638 21.734 36.6444 21.7198C36.6453 21.6673 36.6596 21.6159 36.6858 21.5704C36.7121 21.525 36.7494 21.4869 36.7944 21.4598C36.7944 21.4598 36.8644 21.4598 36.8944 21.4598L39.6444 23.0598Z" fill="#5C5E5E"/>
<path d="M40.1044 23.5298C40.1044 23.6698 39.7344 23.5898 39.4344 23.4198C39.4274 23.4059 39.4237 23.3904 39.4237 23.3748C39.4237 23.3592 39.4274 23.3438 39.4344 23.3298C39.4367 23.2787 39.4505 23.2288 39.4747 23.1838C39.4989 23.1388 39.533 23.0998 39.5744 23.0698C39.5744 23.0698 39.6544 23.0698 39.6844 23.0698C39.8944 23.2098 40.0944 23.4198 40.1044 23.5298Z" fill="#878989"/>
<path d="M36.8244 21.3698L36.8644 21.3398L37.2844 21.5798L37.2444 21.6098L36.8244 21.3698Z" fill="#4D5057"/>
<path d="M37.7244 20.4598L37.7644 20.4398L38.6344 20.9398L38.5844 20.9698L37.7244 20.4598Z" fill="#4D5057"/>
<path d="M40.5844 21.6998C40.5844 21.6998 40.3444 22.0498 40.3744 22.0598L37.5844 20.4498C37.5773 20.4359 37.5737 20.4204 37.5737 20.4048C37.5737 20.3892 37.5773 20.3738 37.5844 20.3598C37.5833 20.3081 37.5956 20.257 37.6202 20.2114C37.6447 20.1658 37.6806 20.1274 37.7244 20.0998C37.7401 20.0877 37.7595 20.0811 37.7794 20.0811C37.7993 20.0811 37.8186 20.0877 37.8344 20.0998L40.5844 21.6998Z" fill="#5C5E5E"/>
<path d="M41.0144 22.1598C41.0144 22.2998 40.6544 22.2198 40.3544 22.0598C40.3544 22.0598 40.3544 22.0098 40.3544 21.9698C40.3533 21.9181 40.3656 21.867 40.3902 21.8214C40.4147 21.7758 40.4506 21.7374 40.4944 21.7098C40.5101 21.6977 40.5295 21.6911 40.5494 21.6911C40.5693 21.6911 40.5886 21.6977 40.6044 21.7098C40.8344 21.8398 41.0144 22.0498 41.0144 22.1598Z" fill="#878989"/>
<path d="M37.7544 19.9998L37.8044 19.9798L38.2244 20.2198L38.1744 20.2398L37.7544 19.9998Z" fill="#4D5057"/>
<path d="M39.0544 21.9498L39.7844 21.5198V21.7198L39.0544 22.1498V21.9498Z" fill="#C0955E"/>
<path d="M37.9444 20.4498L37.2044 20.8798L39.0544 21.9498L39.7844 21.5198L37.9444 20.4498Z" fill="#CBA067"/>
<path d="M36.7844 21.0098L36.8244 20.9798L37.6944 21.4798L37.6444 21.5098L36.7844 21.0098Z" fill="#4D5057"/>
<path d="M39.6444 22.2398C39.6444 22.2398 39.4144 22.5898 39.4344 22.5998L36.6444 20.9998C36.6337 20.9708 36.6337 20.9389 36.6444 20.9098C36.6453 20.8573 36.6596 20.8059 36.6858 20.7605C36.7121 20.715 36.7494 20.6769 36.7944 20.6498C36.8086 20.6385 36.8262 20.6323 36.8444 20.6323C36.8626 20.6323 36.8802 20.6385 36.8944 20.6498L39.6444 22.2398Z" fill="#5C5E5E"/>
<path d="M40.1044 22.6998C40.1044 22.8498 39.7344 22.7598 39.4344 22.5998C39.428 22.5857 39.4247 22.5703 39.4247 22.5548C39.4247 22.5393 39.428 22.524 39.4344 22.5098C39.4359 22.4586 39.4494 22.4084 39.4737 22.3633C39.498 22.3182 39.5324 22.2793 39.5744 22.2498C39.5744 22.2498 39.6544 22.2498 39.6844 22.2498C39.8944 22.3898 40.0944 22.5898 40.1044 22.6998Z" fill="#878989"/>
<path d="M36.8244 20.5398L36.8644 20.5198L37.2844 20.7598L37.2444 20.7798L36.8244 20.5398Z" fill="#4D5057"/>
<path d="M35.7944 22.3998L35.8344 22.3698L36.7044 22.8698L36.6644 22.8998L35.7944 22.3998Z" fill="#4D5057"/>
<path d="M38.6544 23.6298C38.5656 23.7378 38.4947 23.8594 38.4444 23.9898L35.6544 22.3798C35.6473 22.3659 35.6437 22.3504 35.6437 22.3348C35.6437 22.3192 35.6473 22.3038 35.6544 22.2898C35.6562 22.2375 35.6708 22.1865 35.697 22.1411C35.7231 22.0958 35.76 22.0576 35.8044 22.0298C35.8044 22.0298 35.8844 22.0298 35.9044 22.0298L38.6544 23.6298Z" fill="#5C5E5E"/>
<path d="M39.1144 24.0998C39.1144 24.2398 38.7444 24.1598 38.4444 23.9898C38.4373 23.9759 38.4337 23.9604 38.4337 23.9448C38.4337 23.9292 38.4373 23.9138 38.4444 23.8998C38.4462 23.8475 38.4609 23.7965 38.487 23.7511C38.5132 23.7058 38.55 23.6676 38.5944 23.6398C38.6101 23.6326 38.6271 23.6289 38.6444 23.6289C38.6617 23.6289 38.6787 23.6326 38.6944 23.6398C38.9044 23.7798 39.1044 23.9998 39.1144 24.0998Z" fill="#878989"/>
<path d="M35.8344 21.9398L35.8744 21.9098L36.2944 22.1498L36.2544 22.1798L35.8344 21.9398Z" fill="#4D5057"/>
<path d="M37.1244 23.8798L37.8644 23.4498V23.6598L37.1244 24.0898V23.8798Z" fill="#BF945D"/>
<path d="M36.0144 22.3898L35.2844 22.8198L37.1244 23.8798L37.8644 23.4498L36.0144 22.3898Z" fill="#CBA067"/>
<path d="M34.8544 22.9398L34.9044 22.9098L35.7644 23.4098L35.7244 23.4398L34.8544 22.9398Z" fill="#4D5057"/>
<path d="M37.7244 24.1698C37.6261 24.2748 37.5542 24.4016 37.5144 24.5398L34.7244 22.9198C34.7244 22.9198 34.6744 22.9198 34.6744 22.8298C34.6785 22.7781 34.6941 22.7279 34.7201 22.6829C34.746 22.6379 34.7817 22.5993 34.8244 22.5698C34.8411 22.5602 34.8601 22.5551 34.8794 22.5551C34.8987 22.5551 34.9176 22.5602 34.9344 22.5698L37.7244 24.1698Z" fill="#5C5E5E"/>
<path d="M38.1744 24.6398C38.1744 24.7798 37.8044 24.6998 37.5144 24.5398C37.4979 24.5291 37.4845 24.5142 37.4757 24.4966C37.4669 24.4791 37.463 24.4594 37.4644 24.4398C37.4685 24.3881 37.4841 24.3379 37.5101 24.2929C37.536 24.248 37.5717 24.2093 37.6144 24.1798C37.6318 24.1724 37.6505 24.1686 37.6694 24.1686C37.6883 24.1686 37.707 24.1724 37.7244 24.1798C38.0144 24.3198 38.1744 24.5298 38.1744 24.6398Z" fill="#878989"/>
<path d="M34.8944 22.4798L34.9444 22.4498L35.3644 22.6898L35.3144 22.7198L34.8944 22.4798Z" fill="#4D5057"/>
<path d="M35.7944 21.5798L35.8344 21.5498L36.7044 22.0498L36.6644 22.0798L35.7944 21.5798Z" fill="#4D5057"/>
<path d="M38.6544 22.8098C38.5634 22.9163 38.4923 23.0382 38.4444 23.1698L35.6544 21.5598C35.6481 21.5457 35.6448 21.5303 35.6448 21.5148C35.6448 21.4993 35.6481 21.484 35.6544 21.4698C35.6553 21.4173 35.6696 21.3659 35.6958 21.3204C35.7221 21.275 35.7594 21.2369 35.8044 21.2098C35.8044 21.2098 35.8844 21.2098 35.9044 21.2098L38.6544 22.8098Z" fill="#5C5E5E"/>
<path d="M39.1144 23.2698C39.1144 23.4198 38.7444 23.3398 38.4444 23.1698C38.438 23.1557 38.4348 23.1403 38.4348 23.1248C38.4348 23.1093 38.438 23.094 38.4444 23.0798C38.4453 23.0273 38.4596 22.9759 38.4858 22.9305C38.512 22.885 38.5494 22.8469 38.5944 22.8198C38.5944 22.8198 38.6744 22.8198 38.6944 22.8198C38.9044 22.9998 39.1044 23.1598 39.1144 23.2698Z" fill="#878989"/>
<path d="M35.8344 21.1098L35.8744 21.0898L36.2944 21.3298L36.2544 21.3598L35.8344 21.1098Z" fill="#4D5057"/>
<path d="M37.1244 23.0598L37.8644 22.6298V22.8298L37.1244 23.2598V23.0598Z" fill="#777248"/>
<path d="M36.0144 21.5698L35.2844 21.9998L37.1244 23.0598L37.8644 22.6298L36.0144 21.5698Z" fill="#CBA067"/>
<path d="M34.8544 22.1198L34.9044 22.0898L35.7644 22.5898L35.7244 22.6198L34.8544 22.1198Z" fill="#4D5057"/>
<path d="M37.7244 23.3498C37.7244 23.3498 37.4844 23.6998 37.5144 23.7098L34.7244 22.0998C34.7079 22.0917 34.6942 22.0788 34.6852 22.0627C34.6763 22.0466 34.6725 22.0281 34.6744 22.0098C34.6778 21.9579 34.6931 21.9074 34.7191 21.8624C34.7451 21.8173 34.7811 21.7788 34.8244 21.7498C34.8401 21.7377 34.8595 21.7311 34.8794 21.7311C34.8993 21.7311 34.9186 21.7377 34.9344 21.7498L37.7244 23.3498Z" fill="#5C5E5E"/>
<path d="M38.1744 23.8098C38.1744 23.9598 37.8044 23.8798 37.5144 23.7098C37.5144 23.7098 37.4644 23.7098 37.4644 23.6198C37.4678 23.5679 37.4831 23.5174 37.5091 23.4724C37.5351 23.4273 37.5712 23.3888 37.6144 23.3598C37.6311 23.3502 37.6501 23.3451 37.6694 23.3451C37.6887 23.3451 37.7077 23.3502 37.7244 23.3598C38.0144 23.4998 38.1744 23.7098 38.1744 23.8098Z" fill="#878989"/>
<path d="M34.8944 21.6498L34.9444 21.6298L35.3644 21.8698L35.3144 21.8998L34.8944 21.6498Z" fill="#4D5057"/>
<path d="M41.3244 21.5198L41.2544 20.2998C41.2544 20.2998 41.2544 20.2398 41.2544 20.2298L38.8744 18.8398C38.8791 18.8509 38.8815 18.8628 38.8815 18.8748C38.8815 18.8868 38.8791 18.8987 38.8744 18.9098L38.9444 20.1298L41.3244 21.5098V21.5198Z" fill="#AB804B"/>
<path d="M39.3244 20.8298L36.9444 19.4498V20.4098L39.3244 21.7898V20.8298Z" fill="#AB804B"/>
<path d="M37.4144 21.4598L35.0244 20.0798L35.0344 21.5098L37.4144 22.8898V21.4598Z" fill="#AB804B"/>
<path d="M41.4444 19.7498L34.6944 21.5498V22.3598L37.4144 21.4598V22.8898L37.5244 22.8298V21.4198L39.3244 20.8298V21.8298L39.4344 21.7698V20.8298L41.1544 20.2598C41.1664 20.2567 41.179 20.2564 41.1912 20.259C41.2033 20.2616 41.2147 20.267 41.2244 20.2748C41.2341 20.2826 41.2419 20.2925 41.2471 20.3038C41.2523 20.315 41.2548 20.3274 41.2544 20.3398L41.3244 21.5598C41.3244 21.5598 41.3244 21.5598 41.4044 21.5598C41.4844 21.5598 41.4944 21.4898 41.4944 21.4698L41.5644 19.9098C41.5644 19.7698 41.5244 19.7298 41.4444 19.7498Z" fill="#C0955E"/>
<path d="M34.6944 22.3598L32.3144 20.9698V20.1698L34.6944 21.5498V22.3598Z" fill="#312F1C"/>
<path d="M39.1444 18.3698H39.0644L32.3144 20.1698L34.6944 21.5498L41.4444 19.7498C41.4565 19.7428 41.4703 19.7391 41.4844 19.7391C41.4984 19.7391 41.5122 19.7428 41.5244 19.7498L39.1444 18.3698Z" fill="url(#paint1_linear_1_31749)"/>
<path d="M29.7644 31.3398L26.5844 33.1698V32.9998L29.9444 29.1198C29.9562 29.1054 29.9651 29.0887 29.9705 29.0709C29.9758 29.053 29.9777 29.0342 29.9758 29.0157C29.974 28.9971 29.9685 28.9791 29.9596 28.9626C29.9508 28.9462 29.9388 28.9316 29.9244 28.9198C29.9099 28.908 29.8933 28.8991 29.8754 28.8937C29.8576 28.8884 29.8388 28.8865 29.8202 28.8884C29.8017 28.8903 29.7836 28.8957 29.7672 28.9046C29.7507 28.9134 29.7362 28.9254 29.7244 28.9398L26.3344 32.8498C26.3245 32.879 26.3245 32.9106 26.3344 32.9398V33.4198C26.3346 33.4442 26.3412 33.4681 26.3535 33.4891C26.3657 33.5102 26.3833 33.5276 26.4044 33.5398C26.427 33.5483 26.4518 33.5483 26.4744 33.5398C26.4853 33.5451 26.4973 33.5479 26.5094 33.5479C26.5215 33.5479 26.5335 33.5451 26.5444 33.5398L29.9344 31.5898C29.9667 31.5692 29.9899 31.537 29.9992 31.4998C30.0085 31.4626 30.0032 31.4232 29.9844 31.3898C29.9756 31.3697 29.9623 31.3519 29.9453 31.3379C29.9284 31.3239 29.9085 31.314 29.887 31.3092C29.8656 31.3043 29.8434 31.3045 29.8221 31.3099C29.8007 31.3152 29.781 31.3254 29.7644 31.3398Z" fill="#5C5E5E"/>
<path d="M26.3444 32.5998C26.0644 32.4298 25.8344 32.5998 25.8344 32.8898C25.8423 33.0667 25.8928 33.2391 25.9816 33.3923C26.0704 33.5455 26.1948 33.675 26.3444 33.7698C26.6244 33.9298 26.8544 33.7698 26.8544 33.4798C26.8457 33.3031 26.7948 33.131 26.7061 32.978C26.6174 32.8249 26.4934 32.6952 26.3444 32.5998Z" fill="#9CA2A2"/>
<path opacity="0.9" d="M26.3444 32.7298C26.3152 32.6999 26.2768 32.6804 26.2354 32.6744C26.194 32.6685 26.1517 32.6764 26.1152 32.6969C26.0788 32.7174 26.0501 32.7494 26.0337 32.7879C26.0172 32.8264 26.014 32.8693 26.0244 32.9098C26.0324 33.0456 26.0718 33.1777 26.1395 33.2956C26.2072 33.4136 26.3012 33.5143 26.4144 33.5898C26.4914 33.621 26.5774 33.621 26.6544 33.5898C26.6828 33.5611 26.7047 33.5266 26.7185 33.4886C26.7323 33.4506 26.7377 33.4101 26.7344 33.3698C26.7226 33.2404 26.6813 33.1155 26.6137 33.0045C26.5461 32.8936 26.454 32.7996 26.3444 32.7298Z" fill="#8A9293"/>
<path opacity="0.5" d="M26.4144 33.5898C26.3012 33.5143 26.2072 33.4136 26.1395 33.2956C26.0718 33.1777 26.0324 33.0456 26.0244 32.9098C26.021 32.8695 26.0265 32.829 26.0403 32.7911C26.0541 32.7531 26.076 32.7185 26.1044 32.6898C26.0527 32.7094 26.009 32.7455 25.9801 32.7926C25.9511 32.8396 25.9386 32.8949 25.9444 32.9498C25.9528 33.088 25.9933 33.2223 26.0628 33.3421C26.1322 33.4619 26.2286 33.5638 26.3444 33.6398C26.3885 33.6747 26.4431 33.6937 26.4994 33.6937C26.5556 33.6937 26.6102 33.6747 26.6544 33.6398C26.6131 33.6477 26.5706 33.6473 26.5294 33.6387C26.4882 33.6301 26.4491 33.6135 26.4144 33.5898Z" fill="#E1E6E6"/>
<path d="M26.3444 32.3398C26.5601 32.4762 26.7394 32.6632 26.8666 32.8845C26.9938 33.1058 27.0651 33.3547 27.0744 33.6098C27.0744 34.0698 26.7444 34.2598 26.3444 34.0298C26.1292 33.8928 25.9504 33.7057 25.8233 33.4845C25.6962 33.2634 25.6245 33.0147 25.6144 32.7598C25.6144 32.2898 25.9444 32.1098 26.3444 32.3398ZM26.3444 33.7498C26.6144 33.9098 26.8344 33.7498 26.8344 33.4698C26.8256 33.2995 26.7766 33.1337 26.6915 32.986C26.6063 32.8382 26.4874 32.7128 26.3444 32.6198C26.0744 32.4598 25.8544 32.6198 25.8544 32.8998C25.8647 33.0698 25.9143 33.235 25.9994 33.3825C26.0844 33.53 26.2025 33.6557 26.3444 33.7498Z" fill="#2B2927"/>
<path d="M27.3344 32.8298C27.2626 32.6705 27.1683 32.5224 27.0544 32.3898C26.9629 32.2832 26.8549 32.1921 26.7344 32.1198C26.6561 32.0721 26.5661 32.0469 26.4744 32.0469C26.3827 32.0469 26.2927 32.0721 26.2144 32.1198L25.8244 32.3398C25.9073 32.2994 25.9997 32.2827 26.0914 32.2915C26.1832 32.3003 26.2708 32.3344 26.3444 32.3898C26.4663 32.46 26.5747 32.5515 26.6644 32.6598C26.7849 32.793 26.8829 32.945 26.9544 33.1098C27.032 33.2829 27.0729 33.4702 27.0744 33.6598C27.0832 33.7496 27.0685 33.8402 27.0316 33.9226C26.9948 34.005 26.9372 34.0764 26.8644 34.1298L27.2544 33.9098C27.328 33.8549 27.3861 33.7817 27.4229 33.6976C27.4597 33.6134 27.474 33.5212 27.4644 33.4298C27.4641 33.2229 27.4198 33.0183 27.3344 32.8298Z" fill="url(#paint2_linear_1_31749)"/>
<path d="M26.5244 33.1098C26.5105 33.0702 26.4902 33.033 26.4644 32.9998L26.3844 32.9298C26.3641 32.9201 26.3419 32.915 26.3194 32.915C26.2969 32.915 26.2747 32.9201 26.2544 32.9298H26.2044C26.2044 32.9298 26.2744 32.9298 26.3244 32.9298C26.3568 32.9408 26.3848 32.9618 26.4044 32.9898C26.4335 33.0225 26.4571 33.0596 26.4744 33.0998C26.4836 33.1427 26.4836 33.187 26.4744 33.2298C26.4764 33.2524 26.4729 33.2751 26.4642 33.296C26.4555 33.3169 26.4418 33.3353 26.4244 33.3498H26.4744C26.4744 33.3498 26.4744 33.2898 26.5344 33.2298C26.5385 33.1895 26.5351 33.1489 26.5244 33.1098Z" fill="#E0E5E5"/>
<path d="M26.3244 32.9998C26.2244 32.9398 26.1444 32.9998 26.1444 33.0998C26.1482 33.1619 26.1665 33.2223 26.1977 33.2761C26.229 33.3299 26.2724 33.3757 26.3244 33.4098C26.4244 33.4098 26.5044 33.4098 26.5044 33.2998C26.5015 33.2388 26.4835 33.1795 26.4521 33.1272C26.4207 33.0749 26.3768 33.0311 26.3244 32.9998Z" fill="#C5CBCB"/>
<path d="M41.7444 35.9998C41.4644 35.8398 41.2344 35.9998 41.2344 36.2998C41.2462 36.4758 41.2984 36.6467 41.3868 36.7993C41.4752 36.9519 41.5976 37.0821 41.7444 37.1798C42.0244 37.3398 42.2544 37.1798 42.2544 36.8898C42.244 36.7121 42.1926 36.5392 42.1041 36.3848C42.0156 36.2304 41.8925 36.0986 41.7444 35.9998Z" fill="#9CA2A2"/>
<path opacity="0.9" d="M41.7444 36.1298C41.7108 36.1038 41.6717 36.0858 41.6301 36.0772C41.5886 36.0685 41.5456 36.0694 41.5044 36.0798C41.4485 36.1429 41.4197 36.2256 41.4244 36.3098C41.4335 36.4465 41.4745 36.5791 41.5439 36.6972C41.6133 36.8152 41.7094 36.9154 41.8244 36.9898C41.8624 37.0058 41.9032 37.014 41.9444 37.014C41.9856 37.014 42.0264 37.0058 42.0644 36.9898C42.0928 36.9611 42.1147 36.9266 42.1285 36.8886C42.1423 36.8506 42.1477 36.8101 42.1444 36.7698C42.1308 36.6397 42.0876 36.5145 42.0183 36.4036C41.949 36.2927 41.8553 36.1991 41.7444 36.1298Z" fill="#8A9293"/>
<path opacity="0.5" d="M41.8244 36.9998C41.7094 36.9254 41.6134 36.8252 41.5439 36.7072C41.4745 36.5891 41.4336 36.4565 41.4244 36.3198C41.4197 36.2356 41.4485 36.1529 41.5044 36.0898C41.4538 36.1129 41.412 36.1515 41.385 36.2001C41.358 36.2487 41.3472 36.3047 41.3544 36.3598C41.3575 36.4967 41.3948 36.6307 41.4629 36.7494C41.531 36.8682 41.6278 36.968 41.7444 37.0398C41.7877 37.0765 41.8426 37.0966 41.8994 37.0966C41.9561 37.0966 42.0111 37.0765 42.0544 37.0398C42.0154 37.0495 41.9748 37.0509 41.9352 37.044C41.8956 37.0371 41.8579 37.0221 41.8244 36.9998Z" fill="#E1E6E6"/>
<path d="M41.7444 35.7398C41.9603 35.877 42.1401 36.0638 42.2689 36.2848C42.3976 36.5058 42.4715 36.7544 42.4844 37.0098C42.4844 37.4698 42.1544 37.6598 41.7444 37.4298C41.5321 37.2898 41.3555 37.102 41.2287 36.8814C41.1019 36.6609 41.0286 36.4138 41.0144 36.1598C41.0144 35.6898 41.3444 35.4998 41.7444 35.7398ZM41.7444 37.1498C42.0144 37.3098 42.2344 37.1498 42.2444 36.8698C42.237 36.698 42.1876 36.5307 42.1004 36.3825C42.0132 36.2343 41.891 36.1097 41.7444 36.0198C41.4744 35.8598 41.2544 36.0198 41.2544 36.2998C41.2647 36.4698 41.3144 36.635 41.3994 36.7825C41.4844 36.93 41.6025 37.0557 41.7444 37.1498Z" fill="#2B2927"/>
<path d="M42.7444 36.2298C42.6691 36.0701 42.5715 35.922 42.4544 35.7898C42.3651 35.681 42.2567 35.5895 42.1344 35.5198C42.0603 35.4657 41.9735 35.4317 41.8823 35.4211C41.7912 35.4106 41.6988 35.4239 41.6144 35.4598L41.2244 35.6898C41.3073 35.6494 41.3997 35.6327 41.4914 35.6415C41.5832 35.6503 41.6707 35.6844 41.7444 35.7398C41.8675 35.8124 41.9788 35.9035 42.0744 36.0098C42.1905 36.1444 42.285 36.2962 42.3544 36.4598C42.4352 36.6322 42.4795 36.8195 42.4844 37.0098C42.4921 37.1006 42.4758 37.1917 42.4372 37.2742C42.3986 37.3567 42.339 37.4276 42.2644 37.4798L42.6544 37.2498C42.7279 37.1971 42.7861 37.1259 42.823 37.0433C42.8599 36.9607 42.8742 36.8697 42.8644 36.7798C42.862 36.5902 42.8212 36.4031 42.7444 36.2298Z" fill="url(#paint3_linear_1_31749)"/>
<path d="M41.9344 36.5098C41.9171 36.4696 41.8934 36.4325 41.8644 36.3998L41.7844 36.3298C41.765 36.3173 41.7424 36.3107 41.7194 36.3107C41.6963 36.3107 41.6738 36.3173 41.6544 36.3298C41.6729 36.3202 41.6935 36.3151 41.7144 36.3151C41.7353 36.3151 41.7559 36.3202 41.7744 36.3298C41.8054 36.3476 41.8326 36.3714 41.8544 36.3998C41.8834 36.4325 41.9071 36.4696 41.9244 36.5098C41.9336 36.5527 41.9336 36.597 41.9244 36.6398C41.9333 36.6586 41.9379 36.6791 41.9379 36.6998C41.9379 36.7206 41.9333 36.7411 41.9244 36.7598H41.9844C41.9933 36.7411 41.9979 36.7206 41.9979 36.6998C41.9979 36.6791 41.9933 36.6586 41.9844 36.6398C41.9778 36.5933 41.9607 36.5488 41.9344 36.5098Z" fill="#E0E5E5"/>
<path d="M41.7244 36.3598C41.6344 36.3598 41.5544 36.3598 41.5544 36.4698C41.5578 36.5295 41.575 36.5876 41.6044 36.6396C41.6339 36.6916 41.675 36.7362 41.7244 36.7698C41.8244 36.8298 41.9044 36.7698 41.9044 36.6698C41.9006 36.6077 41.8823 36.5473 41.8511 36.4935C41.8198 36.4397 41.7764 36.3939 41.7244 36.3598Z" fill="#C5CBCB"/>
<path d="M41.8444 34.9998L41.7344 36.8498C41.734 36.891 41.7238 36.9316 41.7047 36.9681C41.6856 37.0046 41.6581 37.036 41.6244 37.0598L42.0244 36.8298C42.0617 36.8073 42.0918 36.7747 42.1113 36.7358C42.1307 36.6968 42.1388 36.6531 42.1344 36.6098L42.2444 34.7598L41.8444 34.9998Z" fill="#929696"/>
<path d="M41.2644 34.2298L40.8544 34.4698L41.8444 35.0398L42.2444 34.7998L41.2644 34.2298Z" fill="#AAAFAF"/>
<path d="M40.8644 34.4698L40.9844 36.8598L41.3544 37.0798C41.5544 37.1898 41.7144 37.0798 41.7344 36.8898L41.8444 35.0398L40.8644 34.4698Z" fill="#5C5E5E"/>
<path d="M40.8044 36.5398C40.5244 36.3798 40.2944 36.5398 40.2944 36.8298C40.3023 37.0067 40.3528 37.1791 40.4416 37.3323C40.5303 37.4855 40.6548 37.615 40.8044 37.7098C41.0844 37.8698 41.3144 37.7098 41.3144 37.4198C41.3041 37.2435 41.2526 37.072 41.164 36.9192C41.0754 36.7664 40.9522 36.6364 40.8044 36.5398Z" fill="#9CA2A2"/>
<path opacity="0.9" d="M40.8044 36.6698C40.7664 36.6539 40.7256 36.6456 40.6844 36.6456C40.6432 36.6456 40.6024 36.6539 40.5644 36.6698C40.536 36.6985 40.5141 36.7331 40.5003 36.7711C40.4865 36.809 40.4811 36.8495 40.4844 36.8898C40.4924 37.0256 40.5318 37.1577 40.5995 37.2756C40.6672 37.3936 40.7613 37.4943 40.8744 37.5698C40.9121 37.5869 40.953 37.5958 40.9944 37.5958C41.0358 37.5958 41.0767 37.5869 41.1144 37.5698C41.1704 37.5067 41.1991 37.424 41.1944 37.3398C41.1864 37.2054 41.1469 37.0748 41.0792 36.9584C41.0114 36.842 40.9173 36.7432 40.8044 36.6698Z" fill="#8A9293"/>
<path opacity="0.5" d="M40.8744 37.5298C40.7612 37.4543 40.6671 37.3536 40.5995 37.2356C40.5318 37.1177 40.4924 36.9856 40.4844 36.8498C40.4817 36.8096 40.4874 36.7693 40.5012 36.7314C40.515 36.6935 40.5365 36.6589 40.5644 36.6298C40.5119 36.6512 40.4679 36.6892 40.439 36.738C40.4102 36.7867 40.398 36.8435 40.4044 36.8998C40.4135 37.0365 40.4544 37.1691 40.5239 37.2872C40.5933 37.4052 40.6894 37.5054 40.8044 37.5798C40.9344 37.6498 41.0444 37.6498 41.1144 37.5798C41.0731 37.5895 41.0303 37.5901 40.9888 37.5814C40.9474 37.5728 40.9083 37.5552 40.8744 37.5298Z" fill="#E1E6E6"/>
<path d="M40.8044 36.2798C41.0196 36.4168 41.1983 36.6039 41.3255 36.8251C41.4526 37.0463 41.5243 37.2949 41.5344 37.5498C41.5344 38.0198 41.2044 38.1998 40.8044 37.9698C40.5886 37.8334 40.4094 37.6465 40.2822 37.4252C40.155 37.2039 40.0837 36.9549 40.0744 36.6998C40.0744 36.2398 40.4044 36.0498 40.8044 36.2798ZM40.8044 37.6898C41.0744 37.8498 41.2944 37.6898 41.2944 37.4098C41.2841 37.2399 41.2344 37.0747 41.1494 36.9272C41.0644 36.7797 40.9463 36.6539 40.8044 36.5598C40.5344 36.3998 40.3144 36.5598 40.3144 36.8398C40.3224 37.0103 40.371 37.1764 40.4562 37.3243C40.5415 37.4722 40.6609 37.5975 40.8044 37.6898Z" fill="#2B2927"/>
<path d="M41.7944 36.7798C41.7227 36.6174 41.6284 36.4659 41.5144 36.3298C41.4202 36.226 41.3126 36.1352 41.1944 36.0598C41.1187 36.0045 41.0296 35.9706 40.9363 35.9618C40.843 35.953 40.749 35.9696 40.6644 36.0098L40.2844 36.2298C40.368 36.1925 40.4598 36.1775 40.551 36.1863C40.6421 36.1951 40.7294 36.2273 40.8044 36.2798C40.9263 36.35 41.0347 36.4415 41.1244 36.5498C41.2449 36.683 41.3429 36.835 41.4144 36.9998C41.492 37.1729 41.5329 37.3602 41.5344 37.5498C41.5442 37.6397 41.5299 37.7307 41.493 37.8133C41.4561 37.8958 41.3979 37.9671 41.3244 38.0198L41.7144 37.7998C41.7872 37.7464 41.8448 37.675 41.8816 37.5926C41.9184 37.5102 41.9332 37.4196 41.9244 37.3298C41.9195 37.1395 41.8752 36.9522 41.7944 36.7798Z" fill="url(#paint4_linear_1_31749)"/>
<path d="M41.0144 37.0498C41.0008 37.0078 40.9767 36.9699 40.9444 36.9398L40.8744 36.8798C40.8539 36.8707 40.8318 36.866 40.8094 36.866C40.787 36.866 40.7648 36.8707 40.7444 36.8798C40.7622 36.8682 40.7831 36.862 40.8044 36.862C40.8257 36.862 40.8465 36.8682 40.8644 36.8798L40.9444 36.9398L41.0144 37.0498C41.0238 37.096 41.0238 37.1436 41.0144 37.1898C41.0224 37.207 41.0266 37.2258 41.0266 37.2448C41.0266 37.2638 41.0224 37.2826 41.0144 37.2998C41.0318 37.2853 41.0455 37.2669 41.0542 37.246C41.0629 37.2251 41.0664 37.2024 41.0644 37.1798C41.0566 37.1336 41.0396 37.0894 41.0144 37.0498Z" fill="#E0E5E5"/>
<path d="M40.7844 36.9098C40.6844 36.8498 40.6044 36.9098 40.6044 37.0098C40.6082 37.0719 40.6265 37.1323 40.6577 37.1861C40.6889 37.2399 40.7323 37.2857 40.7844 37.3198C40.8844 37.3798 40.9644 37.3198 40.9644 37.2198C40.9613 37.1575 40.9434 37.0969 40.9121 37.0429C40.8808 36.989 40.837 36.9433 40.7844 36.9098Z" fill="#C5CBCB"/>
<path d="M25.6544 18.6598L8.95441 10.3898L7.3844 5.78982C7.3844 5.78982 7.3844 5.78982 7.3844 5.72982C7.34645 5.64057 7.2922 5.55917 7.22441 5.48982C7.18129 5.43263 7.12681 5.38497 7.06441 5.34982L5.81441 4.62982C5.78285 4.61035 5.7465 4.60004 5.70941 4.60004C5.67233 4.60004 5.63596 4.61035 5.6044 4.62982L5.3044 4.80982C5.3044 4.80982 5.18441 4.86982 5.22441 5.08982L6.4344 11.1398C6.4651 11.3023 6.55398 11.4481 6.6844 11.5498L23.4844 24.4898L25.6544 18.6598Z" fill="#AB804B"/>
<path d="M25.1944 19.6198C25.3444 19.3098 25.4844 18.9898 25.6444 18.6898L9.64439 10.6898C9.26119 10.4925 8.96785 10.1563 8.82439 9.74982L7.42439 5.87982C7.42439 5.87982 7.42439 5.87982 7.42439 5.81982C7.38644 5.73057 7.33218 5.64917 7.26439 5.57982C7.22127 5.52263 7.16679 5.47497 7.10439 5.43982L5.85439 4.71982C5.82282 4.70035 5.78647 4.69004 5.74939 4.69004C5.71231 4.69004 5.67596 4.70035 5.64439 4.71982L5.34439 4.89982C5.34439 4.89982 5.25439 4.94982 5.25439 5.12982C5.25439 5.12982 6.33439 5.71982 6.71439 5.94982C6.86139 6.03352 6.97191 6.169 7.02438 6.32982C7.36438 7.32982 8.23439 10.5998 8.31439 10.8098C8.61439 10.9998 24.8844 20.8598 24.9044 20.9098C24.9244 20.9598 25.1544 19.7198 25.1944 19.6198Z" fill="url(#paint5_linear_1_31749)"/>
<path d="M25.1044 18.1698L22.7044 16.9998L25.1044 18.1498V18.1698Z" fill="#45474D"/>
<path d="M44.9344 32.3998C44.7474 31.5256 44.3759 30.7013 43.8448 29.9822C43.3136 29.263 42.635 28.6656 41.8544 28.2298C41.7344 28.1508 41.6487 28.0293 41.6144 27.8898C41.5643 27.7009 41.4974 27.5168 41.4144 27.3398C41.1793 26.8476 40.8377 26.4138 40.4144 26.0698L39.4144 25.1998L38.8444 23.9998L38.7944 23.3598C38.5266 22.7895 38.1294 22.2896 37.6344 21.8998C36.7644 21.0798 37.7744 21.5298 36.7344 20.8998C30.7844 17.4898 28.7344 17.3798 26.3244 17.2998C25.9144 17.2998 23.1144 18.8998 22.9644 19.4498L22.5244 21.0498C22.3568 21.5022 22.2915 21.9861 22.333 22.4667C22.3745 22.9473 22.5218 23.4128 22.7644 23.8298C26.8244 30.3698 26.9444 30.1298 35.7644 34.8898C37.8544 36.0998 42.2244 36.8898 44.0844 35.3898C44.4661 35.0032 44.7442 34.5264 44.8927 34.0038C45.0413 33.4811 45.0556 32.9295 44.9344 32.3998Z" fill="url(#paint6_linear_1_31749)"/>
<path d="M45.0144 32.6398C45.0144 33.8098 43.6844 34.6398 41.7544 34.6398C38.4444 34.5698 38.7544 30.6398 38.2144 28.8098C37.8147 27.9837 37.3178 27.2082 36.7344 26.4998C36.5644 25.8698 37.5144 25.6898 37.8644 25.4098C38.1773 25.1669 38.439 24.8644 38.6344 24.5198L38.8844 23.9798L38.8344 23.3398C38.8202 23.261 38.7895 23.186 38.7444 23.1198C38.7444 23.1198 38.7444 23.2998 38.6544 23.3298C38.5044 22.9898 37.6544 23.1598 37.3644 23.9698C37.3441 24.0125 37.3155 24.0508 37.2804 24.0824C37.2452 24.1141 37.2042 24.1385 37.1596 24.1543C37.115 24.17 37.0678 24.1769 37.0206 24.1744C36.9734 24.1719 36.9271 24.1602 36.8844 24.1398C36.7804 24.1033 36.6693 24.0916 36.56 24.1055C36.4506 24.1193 36.346 24.1585 36.2544 24.2198C36.1635 24.2725 36.0795 24.3363 36.0044 24.4098C35.3644 24.9598 33.8744 25.4098 32.0044 24.3398L23.2444 19.6598L23.0144 19.5298L22.5344 21.1098C22.3866 21.5594 22.3359 22.0353 22.3859 22.506C22.4359 22.9766 22.5854 23.4313 22.8244 23.8398C26.8844 30.3798 27.0044 30.1398 35.8244 34.8998C37.9144 36.1098 42.2844 36.8998 44.1444 35.3998C44.5008 35.0438 44.7661 34.6069 44.9175 34.1264C45.069 33.6459 45.1022 33.1359 45.0144 32.6398Z" fill="#AB804B"/>
<path d="M40.9044 35.2798C36.9044 35.0098 26.9044 28.8598 25.3344 27.8998C27.3344 30.3698 29.3344 31.5598 35.7844 34.8998C39.0844 36.6198 42.2644 36.8998 44.1244 35.3698C44.5994 34.9129 44.9 34.3046 44.9744 33.6498C44.8544 34.1098 44.0144 35.4998 40.9044 35.2798Z" fill="#5C5E5E"/>
<path d="M44.9444 33.8198V33.6298C44.5984 34.2079 44.055 34.6412 43.4144 34.8498C42.3544 35.2398 40.9744 35.4598 38.1144 34.3898C37.5044 34.1698 36.8644 33.8998 36.1944 33.6098C36.031 31.7217 36.2003 29.8195 36.6944 27.9898L37.4844 28.3198C37.9393 28.5009 38.4248 28.5925 38.9144 28.5898C39.859 28.592 40.7787 28.2866 41.5344 27.7198V27.6398C40.9751 28.0744 40.3139 28.3586 39.6138 28.4653C38.9136 28.5721 38.1978 28.4979 37.5344 28.2498C32.427 25.9443 27.4734 23.3122 22.7044 20.3698V20.4398C23.8444 21.1298 26.1444 22.4998 29.0144 24.0898C29.0144 24.1698 28.4244 25.2198 28.5744 29.6198C27.3544 28.9098 26.2344 28.2398 25.3144 27.6798L25.4344 27.8298C29.4771 30.3873 33.725 32.6049 38.1344 34.4598C39.2657 34.9279 40.471 35.192 41.6944 35.2398C42.3088 35.2427 42.9186 35.1342 43.4944 34.9198C44.08 34.7121 44.5866 34.3278 44.9444 33.8198ZM28.6344 29.6598C28.4744 25.2598 29.0244 24.1698 29.0544 24.1198C31.5544 25.4998 34.3044 26.9398 36.6644 27.9598C36.164 29.7849 35.9913 31.6844 36.1544 33.5698C33.5834 32.3942 31.0735 31.0892 28.6344 29.6598Z" fill="#916B41"/>
<path d="M37.7144 21.5498C37.7161 21.4811 37.7037 21.4129 37.6779 21.3492C37.6521 21.2855 37.6135 21.2279 37.5644 21.1798C35.6344 19.3798 29.5644 16.5598 27.6744 16.7298C26.7344 16.8198 25.1744 17.8698 25.1644 18.3098V18.7498C25.6144 19.0998 33.1644 23.1098 33.9444 23.4398C34.9444 23.8598 37.6244 23.1098 37.7244 22.0398L37.7144 21.5498Z" fill="url(#paint7_linear_1_31749)"/>
<path d="M37.7144 21.5498C37.2891 22.0559 36.7449 22.4486 36.1306 22.6929C35.5164 22.9372 34.8511 23.0255 34.1944 22.9498C32.7744 22.7698 25.1944 18.1698 25.1944 18.3098V18.7498C25.6444 19.0998 32.4144 23.1298 33.9744 23.5798C35.3744 23.9798 37.6544 23.1098 37.7544 22.0398L37.7144 21.5498Z" fill="#AB804B"/>
<path d="M19.0144 30.9198C18.9203 30.8736 18.8151 30.8547 18.7108 30.8653C18.6065 30.8759 18.5072 30.9156 18.4244 30.9798C18.1818 31.1345 17.9799 31.3451 17.8355 31.5939C17.691 31.8427 17.6084 32.1225 17.5944 32.4098C17.5823 32.5131 17.5982 32.6177 17.6404 32.7127C17.6827 32.8077 17.7497 32.8896 17.8344 32.9498L21.8344 35.3098C21.7512 35.2482 21.6853 35.166 21.6433 35.0714C21.6012 34.9768 21.5844 34.8729 21.5944 34.7698C21.61 34.4815 21.6933 34.2009 21.8375 33.9508C21.9817 33.7006 22.1827 33.4879 22.4244 33.3298C22.5095 33.2705 22.6083 33.2338 22.7116 33.2233C22.8148 33.2128 22.919 33.2288 23.0144 33.2698L19.0144 30.9198Z" fill="url(#paint8_linear_1_31749)"/>
<path d="M22.4944 33.3298C22.2527 33.4879 22.0517 33.7006 21.9075 33.9508C21.7633 34.2009 21.68 34.4815 21.6644 34.7698C21.6644 35.2998 22.0444 35.5098 22.5044 35.2498C22.746 35.0917 22.947 34.879 23.0912 34.6289C23.2354 34.3787 23.3187 34.0981 23.3344 33.8098C23.3244 33.2798 22.9544 33.0698 22.4944 33.3298Z" fill="#AB804B"/>
<g style="mix-blend-mode:multiply" opacity="0.5">
<g style="mix-blend-mode:multiply">
<path d="M23.1044 33.7998C23.1744 33.7998 23.2344 33.7998 23.2344 33.8698C23.2303 33.9152 23.2166 33.9592 23.1942 33.9989C23.1718 34.0385 23.1412 34.0729 23.1044 34.0998C23.0344 34.0998 22.9744 34.0998 22.9744 34.0198C22.9778 33.9757 22.9913 33.9329 23.0139 33.8947C23.0364 33.8566 23.0674 33.8241 23.1044 33.7998Z" fill="#AB804B"/>
</g>
<g style="mix-blend-mode:multiply">
<path d="M22.9344 34.3898C22.9476 34.3808 22.9633 34.376 22.9794 34.376C22.9954 34.376 23.0111 34.3808 23.0244 34.3898C23.0744 34.3898 23.0744 34.5098 23.0244 34.5998L22.9344 34.6898C22.9344 34.6898 22.8644 34.6898 22.8344 34.6898C22.8044 34.6898 22.8344 34.5698 22.8344 34.4798C22.8569 34.4397 22.8921 34.408 22.9344 34.3898Z" fill="#AB804B"/>
</g>
<g style="mix-blend-mode:multiply">
<path d="M22.5044 33.9998C22.6344 33.9298 22.7344 33.9998 22.7344 34.1298C22.7302 34.2099 22.7072 34.2878 22.6672 34.3573C22.6272 34.4268 22.5715 34.4859 22.5044 34.5298C22.3744 34.5998 22.2744 34.5298 22.2744 34.3998C22.2769 34.3194 22.2992 34.2408 22.3394 34.1711C22.3795 34.1013 22.4362 34.0425 22.5044 33.9998Z" fill="#AB804B"/>
</g>
<g style="mix-blend-mode:multiply">
<path d="M22.5044 34.8298C22.5744 34.8298 22.6344 34.8298 22.6344 34.9098C22.631 34.954 22.6175 34.9968 22.5949 35.0349C22.5724 35.073 22.5414 35.1055 22.5044 35.1298C22.4344 35.1298 22.3744 35.1298 22.3744 35.0598C22.3771 35.0141 22.3902 34.9696 22.4127 34.9297C22.4352 34.8899 22.4666 34.8557 22.5044 34.8298Z" fill="#AB804B"/>
</g>
<g style="mix-blend-mode:multiply">
<path d="M22.0744 33.8998C22.0901 33.8926 22.1071 33.8889 22.1244 33.8889C22.1417 33.8889 22.1587 33.8926 22.1744 33.8998C22.2244 33.8998 22.2244 34.0198 22.1744 34.1098C22.1519 34.1524 22.117 34.1873 22.0744 34.2098C22.0604 34.2168 22.045 34.2205 22.0294 34.2205C22.0138 34.2205 21.9984 34.2168 21.9844 34.2098C21.9344 34.2098 21.9344 34.0898 21.9844 33.9998C22.0064 33.9601 22.0372 33.9259 22.0744 33.8998Z" fill="#AB804B"/>
</g>
<g style="mix-blend-mode:multiply">
<path d="M22.0844 34.8798C22.0976 34.8708 22.1133 34.866 22.1294 34.866C22.1454 34.866 22.1611 34.8708 22.1744 34.8798C22.2244 34.8798 22.2244 34.9998 22.1744 35.0898L22.0844 35.1798C22.0844 35.1798 22.0144 35.1798 21.9844 35.1798C21.9544 35.1798 21.9344 35.0598 21.9844 34.9698C22.0069 34.9297 22.0421 34.898 22.0844 34.8798Z" fill="#AB804B"/>
</g>
<g style="mix-blend-mode:multiply">
<path d="M22.0144 34.5598C22.0125 34.6057 21.9997 34.6505 21.9771 34.6905C21.9545 34.7305 21.9227 34.7645 21.8844 34.7898C21.8144 34.7898 21.7544 34.7898 21.7544 34.7098C21.7578 34.6657 21.7713 34.6229 21.7939 34.5847C21.8164 34.5466 21.8474 34.5141 21.8844 34.4898C22.0144 34.4498 22.0144 34.4798 22.0144 34.5598Z" fill="#AB804B"/>
</g>
<g style="mix-blend-mode:multiply">
<path d="M22.5044 33.7498C22.4344 33.7498 22.3744 33.7498 22.3744 33.6798C22.3755 33.6337 22.3879 33.5886 22.4106 33.5485C22.4332 33.5084 22.4655 33.4745 22.5044 33.4498C22.5744 33.4498 22.6344 33.4498 22.6344 33.5298C22.631 33.574 22.6175 33.6168 22.5949 33.6549C22.5724 33.693 22.5414 33.7255 22.5044 33.7498Z" fill="#AB804B"/>
</g>
<g style="mix-blend-mode:multiply">
<path d="M22.9244 33.7098C22.9105 33.7168 22.895 33.7205 22.8794 33.7205C22.8638 33.7205 22.8484 33.7168 22.8344 33.7098C22.8344 33.7098 22.8344 33.5898 22.8344 33.4998C22.8565 33.4601 22.8872 33.4259 22.9244 33.3998C22.9384 33.3928 22.9538 33.3891 22.9694 33.3891C22.985 33.3891 23.0004 33.3928 23.0144 33.3998C23.0744 33.3998 23.0744 33.5198 23.0144 33.6098C22.9985 33.6535 22.9662 33.6894 22.9244 33.7098Z" fill="#AB804B"/>
</g>
</g>
<path d="M23.9344 29.2398L23.9844 29.2198L24.8444 29.7198L24.8044 29.7398L23.9344 29.2398Z" fill="#4D5057"/>
<path d="M26.8044 30.4798C26.7045 30.5797 26.6322 30.7037 26.5944 30.8398L23.8044 29.2298C23.798 29.2157 23.7948 29.2003 23.7948 29.1848C23.7948 29.1693 23.798 29.154 23.8044 29.1398C23.8078 29.0879 23.8231 29.0374 23.8491 28.9924C23.8751 28.9473 23.9112 28.9088 23.9544 28.8798C23.9714 28.871 23.9902 28.8665 24.0094 28.8665C24.0285 28.8665 24.0474 28.871 24.0644 28.8798L26.8044 30.4798Z" fill="#5C5E5E"/>
<path d="M27.2544 30.9398C27.2544 31.0798 26.8844 30.9998 26.5944 30.8398C26.5793 30.83 26.5669 30.8167 26.5582 30.801C26.5495 30.7853 26.5447 30.7678 26.5444 30.7498C26.5478 30.6979 26.5631 30.6474 26.5891 30.6024C26.6151 30.5573 26.6511 30.5188 26.6944 30.4898C26.7101 30.4777 26.7295 30.4711 26.7494 30.4711C26.7693 30.4711 26.7886 30.4777 26.8044 30.4898C27.0144 30.6198 27.2544 30.8298 27.2544 30.9398Z" fill="#878989"/>
<path d="M23.9744 28.7798L24.0244 28.7598L24.4444 28.9998L24.3944 29.0198L23.9744 28.7798Z" fill="#4D5057"/>
<path d="M25.2644 30.7298L26.0044 30.2998V30.4998L25.2744 30.9298L25.2644 30.7298Z" fill="#B58C58"/>
<path d="M24.1644 29.2298L23.4244 29.6598L25.2644 30.7298L26.0044 30.2998L24.1644 29.2298Z" fill="#CBA067"/>
<path d="M23.0044 29.7798L23.0444 29.7598L23.9144 30.2598L23.8644 30.2798L23.0044 29.7798Z" fill="#4D5057"/>
<path d="M25.8644 30.9998C25.8644 30.9998 25.6244 31.3498 25.6544 31.3598L22.8644 29.7498C22.8537 29.7208 22.8537 29.6889 22.8644 29.6598C22.8659 29.6086 22.8794 29.5584 22.9037 29.5133C22.928 29.4682 22.9625 29.4293 23.0044 29.3998C23.0544 29.3998 23.0844 29.3998 23.1144 29.3998L25.8644 30.9998Z" fill="#5C5E5E"/>
<path d="M26.3144 31.4798C26.3144 31.6198 25.9544 31.5398 25.6544 31.3798C25.6544 31.3798 25.6544 31.3298 25.6544 31.2898C25.6559 31.2386 25.6694 31.1884 25.6937 31.1433C25.718 31.0982 25.7525 31.0593 25.7944 31.0298C25.8101 31.0177 25.8295 31.0111 25.8494 31.0111C25.8693 31.0111 25.8886 31.0177 25.9044 31.0298C26.1144 31.1598 26.3144 31.3698 26.3144 31.4798Z" fill="#878989"/>
<path d="M23.0444 29.3198L23.0844 29.2998L23.5044 29.5398L23.4644 29.5598L23.0444 29.3198Z" fill="#4D5057"/>
<path d="M23.9344 28.4198L23.9844 28.3998L24.8444 28.8998L24.8044 28.9198L23.9344 28.4198Z" fill="#4D5057"/>
<path d="M26.8044 29.6498C26.7061 29.7548 26.6342 29.8816 26.5944 30.0198L23.8044 28.4098C23.7965 28.3943 23.7924 28.3772 23.7924 28.3598C23.7924 28.3424 23.7965 28.3253 23.8044 28.3098C23.8085 28.2581 23.8241 28.2079 23.8501 28.1629C23.876 28.118 23.9117 28.0793 23.9544 28.0498C23.9718 28.0424 23.9905 28.0386 24.0094 28.0386C24.0283 28.0386 24.047 28.0424 24.0644 28.0498L26.8044 29.6498Z" fill="#5C5E5E"/>
<path d="M27.2544 30.1198C27.2544 30.2598 26.8844 30.1798 26.5944 30.0198C26.5779 30.0091 26.5645 29.9942 26.5557 29.9766C26.547 29.9591 26.543 29.9394 26.5444 29.9198C26.5485 29.8681 26.5642 29.8179 26.5901 29.7729C26.6161 29.7279 26.6517 29.6893 26.6944 29.6598C26.7118 29.6524 26.7305 29.6486 26.7494 29.6486C26.7683 29.6486 26.787 29.6524 26.8044 29.6598C27.0144 29.7998 27.2544 29.9998 27.2544 30.1198Z" fill="#878989"/>
<path d="M23.9744 27.9598L24.0244 27.9298L24.4444 28.1698L24.3944 28.1998L23.9744 27.9598Z" fill="#4D5057"/>
<path d="M25.2644 29.8998L26.0044 29.4698V29.6798L25.2744 30.1098L25.2644 29.8998Z" fill="#B58C58"/>
<path d="M24.1644 28.4098L23.4244 28.8398L25.2644 29.8998L26.0044 29.4698L24.1644 28.4098Z" fill="#CBA067"/>
<path d="M23.0044 28.9598L23.0444 28.9398L23.9144 29.4398L23.8644 29.4598L23.0044 28.9598Z" fill="#4D5057"/>
<path d="M25.8644 30.1898C25.7661 30.2948 25.6942 30.4216 25.6544 30.5598L22.8644 28.9998C22.8578 28.984 22.8544 28.967 22.8544 28.9498C22.8544 28.9327 22.8578 28.9157 22.8644 28.8998C22.8667 28.8487 22.8804 28.7988 22.9047 28.7538C22.9289 28.7088 22.963 28.6698 23.0044 28.6398C23.0397 28.6259 23.079 28.6259 23.1144 28.6398L25.8644 30.1898Z" fill="#5C5E5E"/>
<path d="M26.3144 30.6598C26.3144 30.7998 25.9544 30.7198 25.6544 30.5598C25.6465 30.5443 25.6424 30.5272 25.6424 30.5098C25.6424 30.4924 25.6465 30.4753 25.6544 30.4598C25.6559 30.41 25.6694 30.3612 25.6938 30.3177C25.7181 30.2741 25.7527 30.2371 25.7944 30.2098C25.8101 30.1977 25.8295 30.1911 25.8494 30.1911C25.8693 30.1911 25.8886 30.1977 25.9044 30.2098C26.1144 30.3398 26.3144 30.5498 26.3144 30.6598Z" fill="#878989"/>
<path d="M23.0444 28.4998L23.0844 28.4698L23.5044 28.7198L23.4644 28.7398L23.0444 28.4998Z" fill="#4D5057"/>
<path d="M22.0144 30.3498L22.0544 30.3298L22.9244 30.8298L22.8744 30.8598L22.0144 30.3498Z" fill="#4D5057"/>
<path d="M24.8744 31.5898C24.8744 31.5898 24.6444 31.9398 24.6644 31.9498L21.8744 30.3398C21.868 30.3257 21.8647 30.3103 21.8647 30.2948C21.8647 30.2793 21.868 30.264 21.8744 30.2498C21.8774 30.2003 21.8916 30.1521 21.9158 30.1088C21.9401 30.0655 21.9737 30.0283 22.0144 29.9998C22.0144 29.9998 22.0944 29.9998 22.1244 29.9998L24.8744 31.5898Z" fill="#5C5E5E"/>
<path d="M25.3344 32.0498C25.3344 32.1998 24.9644 32.1198 24.6644 31.9498C24.6581 31.9357 24.6548 31.9203 24.6548 31.9048C24.6548 31.8893 24.6581 31.874 24.6644 31.8598C24.6659 31.8086 24.6794 31.7584 24.7037 31.7133C24.728 31.6682 24.7625 31.6293 24.8044 31.5998C24.8544 31.5998 24.8844 31.5998 24.9144 31.5998C25.1244 31.7398 25.3244 31.9398 25.3344 32.0498Z" fill="#878989"/>
<path d="M22.0544 29.8898L22.0944 29.8698L22.5144 30.1098L22.4744 30.1298L22.0544 29.8898Z" fill="#4D5057"/>
<path d="M23.3444 31.8398L24.0744 31.4098L24.0844 31.6098L23.3444 32.0398V31.8398Z" fill="#BA905B"/>
<path d="M22.2344 30.3498L21.5044 30.7698L23.3444 31.8398L24.0744 31.4098L22.2344 30.3498Z" fill="#CBA067"/>
<path d="M21.0744 30.8998L21.1244 30.8698L21.9844 31.3698L21.9444 31.3998L21.0744 30.8998Z" fill="#4D5057"/>
<path d="M23.9344 32.1298C23.8435 32.2346 23.7754 32.3572 23.7344 32.4898L20.9444 30.8798C20.9278 30.8717 20.9142 30.8588 20.9052 30.8427C20.8963 30.8266 20.8925 30.8081 20.8944 30.7898C20.8978 30.7379 20.9131 30.6874 20.9391 30.6424C20.9651 30.5973 21.0011 30.5588 21.0444 30.5298C21.0444 30.5298 21.1244 30.5298 21.1444 30.5298L23.9344 32.1298Z" fill="#5C5E5E"/>
<path d="M24.3944 32.5898C24.3944 32.7398 24.0244 32.6598 23.7344 32.4898C23.7178 32.4817 23.7042 32.4688 23.6952 32.4527C23.6863 32.4366 23.6825 32.4181 23.6844 32.3998C23.6878 32.3479 23.7031 32.2974 23.7291 32.2524C23.7551 32.2073 23.7911 32.1688 23.8344 32.1398C23.8511 32.1302 23.8701 32.1251 23.8894 32.1251C23.9087 32.1251 23.9276 32.1302 23.9444 32.1398C24.1844 32.2798 24.3944 32.4798 24.3944 32.5898Z" fill="#878989"/>
<path d="M21.1144 30.4298L21.1544 30.4098L21.5744 30.6498L21.5344 30.6798L21.1144 30.4298Z" fill="#4D5057"/>
<path d="M22.0144 29.5298L22.0544 29.5098L22.9244 30.0098L22.8744 30.0298L22.0144 29.5298Z" fill="#4D5057"/>
<path d="M24.8744 30.7598C24.7786 30.8667 24.707 30.9928 24.6644 31.1298L21.8744 29.5198C21.8678 29.504 21.8644 29.487 21.8644 29.4698C21.8644 29.4527 21.8678 29.4357 21.8744 29.4198C21.8759 29.37 21.8894 29.3212 21.9138 29.2777C21.9381 29.2341 21.9726 29.1971 22.0144 29.1698C22.0314 29.161 22.0502 29.1565 22.0694 29.1565C22.0885 29.1565 22.1074 29.161 22.1244 29.1698L24.8744 30.7598Z" fill="#5C5E5E"/>
<path d="M25.3344 31.2298C25.3344 31.3698 24.9644 31.2898 24.6644 31.1298C24.6537 31.1008 24.6537 31.0689 24.6644 31.0398C24.6659 30.9886 24.6794 30.9384 24.7037 30.8933C24.728 30.8482 24.7625 30.8093 24.8044 30.7798C24.8544 30.7798 24.8844 30.7798 24.9144 30.7798C25.1244 30.9098 25.3244 31.1198 25.3344 31.2298Z" fill="#878989"/>
<path d="M22.0544 29.0698L22.0944 29.0398L22.5144 29.2898L22.4744 29.3098L22.0544 29.0698Z" fill="#4D5057"/>
<path d="M23.3444 31.0198L24.0744 30.5898L24.0844 30.7898L23.3444 31.2198V31.0198Z" fill="#BA905B"/>
<path d="M22.2344 29.5198L21.5044 29.9498L23.3444 31.0198L24.0744 30.5898L22.2344 29.5198Z" fill="#CBA067"/>
<path d="M21.0744 30.0698L21.1244 30.0498L21.9844 30.5498L21.9444 30.5698L21.0744 30.0698Z" fill="#4D5057"/>
<path d="M23.9344 31.3098C23.8411 31.413 23.7727 31.5361 23.7344 31.6698L20.9444 30.0598C20.9279 30.0491 20.9145 30.0342 20.9057 30.0166C20.8969 29.9991 20.893 29.9794 20.8944 29.9598C20.8978 29.9092 20.9132 29.8602 20.9393 29.8167C20.9654 29.7733 21.0014 29.7366 21.0444 29.7098C21.0596 29.701 21.0768 29.6964 21.0944 29.6964C21.112 29.6964 21.1292 29.701 21.1444 29.7098L23.9344 31.3098Z" fill="#5C5E5E"/>
<path d="M24.3944 31.7698C24.3944 31.9098 24.0244 31.8298 23.7344 31.6698C23.7193 31.66 23.7069 31.6467 23.6982 31.631C23.6895 31.6153 23.6847 31.5978 23.6844 31.5798C23.6878 31.5279 23.7031 31.4774 23.7291 31.4324C23.7551 31.3873 23.7912 31.3488 23.8344 31.3198C23.8502 31.3077 23.8695 31.3011 23.8894 31.3011C23.9093 31.3011 23.9286 31.3077 23.9444 31.3198C24.1844 31.4498 24.3944 31.6598 24.3944 31.7698Z" fill="#878989"/>
<path d="M21.1144 29.6098L21.1544 29.5898L21.5744 29.8298L21.5344 29.8498L21.1144 29.6098Z" fill="#4D5057"/>
<path d="M25.5444 28.3398L23.1644 26.9498V28.3598L25.5444 29.7398V28.3398Z" fill="#AB804B"/>
<path d="M23.6344 29.9098L21.2544 28.5298L21.2644 29.4598L23.6444 30.8398L23.6344 29.9098Z" fill="#AB804B"/>
<path d="M21.5844 32.9098L21.5144 31.4398L19.1344 30.0598L19.2044 31.5298L21.5844 32.9098Z" fill="#AB804B"/>
<path d="M25.9844 23.8198L19.2344 29.8198L21.6144 31.1998L28.3744 25.1998L25.9844 23.8198Z" fill="url(#paint9_linear_1_31749)"/>
<path d="M21.5144 31.4398L19.1344 30.0598C19.132 30.0149 19.1397 29.97 19.1571 29.9284C19.1744 29.8869 19.2008 29.8498 19.2344 29.8198L21.6144 31.1998C21.5824 31.231 21.557 31.2683 21.5398 31.3096C21.5226 31.3508 21.514 31.3951 21.5144 31.4398Z" fill="#CEA36A"/>
<path d="M28.3744 25.9998V25.1998L21.6144 31.1998C21.5824 31.231 21.557 31.2683 21.5398 31.3096C21.5226 31.3508 21.514 31.3951 21.5144 31.4398L21.5844 32.9098C21.5844 32.9098 21.6344 32.9098 21.6744 32.9098C21.7144 32.9098 21.7644 32.8498 21.7644 32.8198L21.8244 31.5298C21.8267 31.4953 21.8359 31.4617 21.8513 31.4308C21.8668 31.3998 21.8882 31.3723 21.9144 31.3498L23.6344 29.9198V30.8498L23.7444 30.7898V29.7898L25.5344 28.3098V29.7098L25.6444 29.6498V28.2498L28.3744 25.9998Z" fill="url(#paint10_linear_1_31749)"/>
<path d="M44.7444 32.3898C44.8944 33.2498 43.1144 34.2298 41.8644 34.1298C41.4544 34.1298 41.5444 33.8198 41.5044 33.3998C41.4015 32.9599 41.4432 32.4985 41.6233 32.0841C41.8035 31.6698 42.1125 31.3246 42.5044 31.0998C44.5844 29.7898 44.7444 32.3898 44.7444 32.3898Z" fill="#292927"/>
<path d="M44.7444 32.3898C44.7188 31.8398 44.495 31.3177 44.1144 30.9198C44.4406 31.3169 44.6331 31.8069 44.6644 32.3198C44.8144 33.1798 43.0344 34.1598 41.7844 34.0598C41.7141 34.0551 41.6457 34.0346 41.5844 33.9998C41.6175 34.042 41.6601 34.0758 41.7088 34.0984C41.7575 34.121 41.8108 34.1318 41.8644 34.1298C43.1144 34.2298 44.8944 33.2498 44.7444 32.3898Z" fill="#AB804B"/>
<path d="M43.7044 30.3998C43.2571 30.407 42.8186 30.5261 42.4291 30.7462C42.0396 30.9663 41.7114 31.2803 41.4744 31.6598C41.2144 32.0398 40.9044 31.4198 39.5944 30.3198C38.9244 29.7598 41.3444 28.1798 42.1144 28.6398C42.8844 29.0998 44.2144 30.4698 43.7044 30.3998Z" fill="url(#paint11_linear_1_31749)"/>
<path d="M42.1344 28.7398C42.796 29.1634 43.367 29.714 43.8144 30.3598C43.8944 30.1398 42.8144 29.0298 42.1144 28.6398C41.4144 28.2498 39.3144 29.5198 39.4944 30.1598C39.5344 29.4898 41.4644 28.3398 42.1344 28.7398Z" fill="#AB804B"/>
<path d="M40.0144 30.9998C39.4944 30.5098 39.2544 30.1698 39.3744 30.8398C39.5331 31.9688 40.073 33.0097 40.9044 33.7898C41.1844 33.9898 41.1344 33.6698 41.1244 33.4698C41.0144 32.1198 41.1444 32.1598 40.0144 30.9998Z" fill="#1C1C1B"/>
<path d="M40.9544 33.7898C40.123 33.0097 39.5831 31.9688 39.4244 30.8398C39.4072 30.7338 39.4072 30.6258 39.4244 30.5198C39.3244 30.4698 39.2944 30.5198 39.3544 30.8798C39.5131 32.0088 40.053 33.0497 40.8844 33.8298C41.0044 33.9098 41.0644 33.8998 41.0944 33.8298C41.0453 33.8271 40.9975 33.8134 40.9544 33.7898Z" fill="#AB804B"/>
<path d="M38.5044 25.5598L37.5044 24.9698C37.4317 24.9235 37.3734 24.8577 37.3363 24.7799C37.2992 24.7021 37.2846 24.6155 37.2944 24.5298C37.3064 24.282 37.3782 24.0407 37.5035 23.8265C37.6289 23.6124 37.8042 23.4317 38.0144 23.2998C38.0865 23.2456 38.1717 23.2115 38.2613 23.2009C38.3509 23.1904 38.4417 23.2038 38.5244 23.2398L39.5244 23.8298C39.0595 24.3231 38.711 24.9142 38.5044 25.5598Z" fill="url(#paint12_linear_1_31749)"/>
<path d="M39.4944 23.8298L38.4944 23.2398C38.4117 23.2038 38.3209 23.1904 38.2313 23.2009C38.1417 23.2115 38.0565 23.2456 37.9844 23.2998C37.8482 23.3868 37.7267 23.4948 37.6244 23.6198L39.0444 24.4398C39.2344 24.0898 39.4444 23.7998 39.4944 23.8298Z" fill="#EBC080"/>
<path d="M39.4744 23.8198C39.3932 23.7907 39.3061 23.7819 39.2207 23.7941C39.1353 23.8063 39.0542 23.8392 38.9844 23.8898C38.7797 24.0251 38.6103 24.2072 38.4903 24.4212C38.3703 24.6351 38.3031 24.8747 38.2944 25.1198C38.2875 25.2017 38.3013 25.284 38.3345 25.3591C38.3677 25.4342 38.4192 25.4998 38.4844 25.5498C39.0244 25.8998 39.7844 25.0698 39.7644 24.3698C39.7758 24.2597 39.7544 24.1488 39.7027 24.0509C39.6511 23.953 39.5717 23.8726 39.4744 23.8198Z" fill="#C0955E"/>
<path d="M36.7744 26.5598L35.7744 25.9698C35.7017 25.9211 35.6437 25.8534 35.6067 25.7741C35.5697 25.6948 35.555 25.6068 35.5644 25.5198C35.5739 25.2762 35.6415 25.0384 35.7615 24.8262C35.8815 24.6139 36.0505 24.4335 36.2544 24.2998C36.3265 24.2456 36.4117 24.2115 36.5013 24.2009C36.5909 24.1904 36.6817 24.2038 36.7644 24.2398L37.7644 24.8298C37.314 25.3287 36.9763 25.9188 36.7744 26.5598Z" fill="url(#paint13_linear_1_31749)"/>
<path d="M37.7644 24.8298L36.7644 24.2398C36.6817 24.2038 36.5909 24.1904 36.5013 24.2009C36.4117 24.2115 36.3265 24.2456 36.2544 24.2998C36.1171 24.3815 35.998 24.4904 35.9044 24.6198L37.3144 25.4398C37.5044 25.0898 37.7144 24.7998 37.7644 24.8298Z" fill="#EBC080"/>
<path d="M37.7444 24.8198C37.6649 24.7907 37.5793 24.7819 37.4955 24.7941C37.4117 24.8063 37.3323 24.8392 37.2644 24.8898C37.0609 25.0247 36.8916 25.2053 36.7701 25.417C36.6486 25.6288 36.5782 25.866 36.5644 26.1098C36.5601 26.1914 36.575 26.2728 36.608 26.3475C36.641 26.4222 36.6912 26.4881 36.7544 26.5398C37.2944 26.8898 38.0644 26.0698 38.0444 25.3698C38.0523 25.259 38.0282 25.1483 37.975 25.0508C37.9219 24.9533 37.8418 24.8731 37.7444 24.8198Z" fill="#C0955E"/>
<path d="M34.5444 20.2798C34.341 20.5337 34.0686 20.7235 33.7599 20.8264C33.4513 20.9293 33.1195 20.9409 32.8044 20.8598C32.58 20.8296 32.3631 20.7584 32.1644 20.6498C32.0486 20.5999 31.9485 20.5197 31.8746 20.4176C31.8007 20.3155 31.7557 20.1954 31.7444 20.0698V20.4498C31.7557 20.5754 31.8007 20.6955 31.8746 20.7976C31.9485 20.8997 32.0486 20.9799 32.1644 21.0298C32.3611 21.1428 32.5789 21.2143 32.8044 21.2398C33.1195 21.3209 33.4513 21.3093 33.7599 21.2064C34.0686 21.1035 34.341 20.9137 34.5444 20.6598C34.575 20.5939 34.592 20.5225 34.5944 20.4498V20.0698C34.5968 20.143 34.5795 20.2155 34.5444 20.2798Z" fill="#AB804B"/>
<path d="M34.1744 19.4798C33.9757 19.3712 33.7588 19.3001 33.5344 19.2698C33.2193 19.1888 32.8875 19.2004 32.5789 19.3032C32.2702 19.4061 31.9978 19.5959 31.7944 19.8498C31.6544 20.1498 31.7944 20.4498 32.1644 20.6498C32.3631 20.7584 32.58 20.8296 32.8044 20.8598C33.1195 20.9409 33.4513 20.9293 33.7599 20.8264C34.0686 20.7235 34.341 20.5337 34.5444 20.2798C34.6844 19.9998 34.5244 19.6798 34.1744 19.4798Z" fill="url(#paint14_linear_1_31749)"/>
<path d="M33.7144 19.7498C33.6047 19.694 33.4864 19.6568 33.3644 19.6398C33.1946 19.594 33.015 19.5989 32.848 19.654C32.6809 19.7091 32.5337 19.8119 32.4244 19.9498C32.3544 20.1098 32.4244 20.2698 32.6244 20.3798C32.7354 20.4348 32.8531 20.4751 32.9744 20.4998C33.1453 20.542 33.3247 20.5342 33.4913 20.4775C33.6579 20.4208 33.8047 20.3175 33.9144 20.1798C34.0144 19.9998 33.8944 19.8598 33.7144 19.7498Z" fill="#AB804B"/>
<path d="M33.7544 19.8498V19.9998C33.7591 20.0296 33.7591 20.06 33.7544 20.0898C33.6686 20.1957 33.5541 20.2746 33.4247 20.3171C33.2952 20.3597 33.1563 20.3641 33.0244 20.3298C32.9314 20.3228 32.8418 20.2918 32.7644 20.2398C32.716 20.2191 32.6739 20.1861 32.6423 20.1439C32.6107 20.1018 32.5907 20.0521 32.5844 19.9998V19.8398C32.5918 19.893 32.6121 19.9435 32.6434 19.9871C32.6748 20.0307 32.7163 20.0659 32.7644 20.0898C32.8446 20.1342 32.9331 20.1615 33.0244 20.1698C33.1563 20.2041 33.2952 20.1997 33.4247 20.1571C33.5541 20.1146 33.6686 20.0357 33.7544 19.9298C33.7591 19.9 33.7591 19.8696 33.7544 19.8398V19.8498Z" fill="#262729"/>
<path d="M33.5744 19.6098C33.7244 19.6898 33.7944 19.8198 33.7344 19.9398C33.6486 20.0457 33.5341 20.1246 33.4047 20.1671C33.2752 20.2097 33.1363 20.2141 33.0044 20.1798C32.9131 20.1715 32.8246 20.1442 32.7444 20.0998C32.5944 20.0098 32.5344 19.8898 32.5844 19.7598C32.671 19.655 32.7855 19.5768 32.9147 19.5343C33.0439 19.4918 33.1825 19.4868 33.3144 19.5198C33.4052 19.536 33.493 19.5664 33.5744 19.6098Z" fill="#313337"/>
<path d="M33.5744 18.7898V19.7898C33.5787 19.8096 33.5787 19.8301 33.5744 19.8498C33.5744 19.9698 33.2944 20.0498 33.0744 20.0098C33.011 20.002 32.9498 19.9816 32.8944 19.9498C32.8144 19.9498 32.7644 19.8498 32.7744 19.7798V18.7798C32.7779 18.8161 32.7908 18.8509 32.8119 18.8807C32.8329 18.9105 32.8614 18.9343 32.8944 18.9498C32.932 18.9718 32.9723 18.9887 33.0144 18.9998C33.2344 18.9998 33.4644 18.9998 33.5144 18.8298C33.5187 18.8101 33.5187 18.7896 33.5144 18.7698L33.5744 18.7898Z" fill="#2C2E31"/>
<path d="M33.4544 18.6198C33.5544 18.6798 33.5944 18.7698 33.5544 18.8498C33.5144 18.9298 33.2744 19.0498 33.0544 19.0198C32.991 19.012 32.9298 18.9916 32.8744 18.9598C32.7744 18.8998 32.7244 18.8098 32.7644 18.7298C32.8228 18.6567 32.9009 18.6018 32.9895 18.5717C33.0781 18.5416 33.1735 18.5374 33.2644 18.5598C33.3309 18.5676 33.3954 18.588 33.4544 18.6198Z" fill="#45474D"/>
<g style="mix-blend-mode:multiply" opacity="0.5">
<g style="mix-blend-mode:multiply" opacity="0.2">
<path d="M57.7544 9.79982L33.2244 18.7198L24.3644 2.90982L16.8244 4.86982L33.0744 18.6998L4.9144 23.4498L8.5144 27.6998L33.0444 18.7798L41.8944 34.5798L49.4444 32.6298L33.1944 18.7998L61.3544 14.0398L57.7544 9.79982Z" fill="#9D9E9F"/>
</g>
<g style="mix-blend-mode:multiply" opacity="0.6">
<path d="M54.8944 7.72982L33.2144 18.7098L20.0544 3.83982L13.1644 6.43982L33.0644 18.6998L6.6344 25.8798L11.3744 29.7598L33.0544 18.7898L46.2044 33.6498L53.0944 31.0498L33.2044 18.7898L59.6244 11.6198L54.8944 7.72982Z" fill="#9D9E9F"/>
</g>
<g style="mix-blend-mode:multiply" opacity="0.9">
<path d="M51.4944 5.93982L33.2044 18.6998L16.0744 5.13982L10.0044 8.31982L33.0444 18.7098L9.0144 28.1198L14.7644 31.5498L33.0644 18.7898L50.1944 32.3498L56.2644 29.1698L33.2144 18.7798L57.2544 9.36982L51.4944 5.93982Z" fill="#9D9E9F"/>
</g>
<g style="mix-blend-mode:multiply" opacity="0.6">
<path d="M47.6444 4.46982L33.1844 18.6998L12.5044 6.77982L7.4144 10.4498L33.0444 18.7198L11.9844 30.1398L18.6144 33.0298L33.0844 18.7998L53.7644 30.7198L58.8544 27.0398L33.2244 18.7798L54.2844 7.35982L47.6444 4.46982Z" fill="#9D9E9F"/>
</g>
<g style="mix-blend-mode:multiply" opacity="0.2">
<path d="M43.4444 3.33982L33.1744 18.6898L9.4444 8.70982L5.45441 12.7898L33.0344 18.7298L15.4744 31.8698L22.8244 34.1498L33.0944 18.7998L56.8244 28.7798L60.8044 24.6998L33.2344 18.7698L50.7944 5.61982L43.4444 3.33982Z" fill="#9D9E9F"/>
</g>
<g style="mix-blend-mode:multiply" opacity="0.1">
<path d="M30.7344 2.26982L33.1244 18.6898L4.1944 15.2198L3.70441 19.8898L33.0244 18.7498L27.1844 34.8898L35.5344 35.2198L33.1444 18.8098L62.0744 22.2698L62.5644 17.6098L33.2344 18.7398L39.0744 2.60982L30.7344 2.26982Z" fill="#9D9E9F"/>
</g>
<g style="mix-blend-mode:multiply" opacity="0.4">
<path d="M54.2644 7.57982L33.2144 18.7798L52.2144 6.25982L54.2644 7.57982ZM55.8544 29.5798L33.2144 18.7798L53.5244 30.6898L55.8544 29.5798ZM14.2544 31.3498L33.2544 18.8198L12.1644 29.9998L14.2544 31.3498ZM10.5744 7.99982L33.2144 18.7798L12.9144 6.86982L10.5744 7.99982Z" fill="#515253"/>
</g>
<g style="mix-blend-mode:multiply" opacity="0.9">
<path d="M56.4344 8.99982L33.2144 18.7798L53.9244 6.77982L56.4344 8.99982ZM53.8344 30.5398L33.2144 18.7798L51.0144 31.8898L53.8344 30.5398ZM12.5844 30.5398L33.2144 18.7398L10.0144 28.5698L12.5844 30.5398ZM12.5844 6.98982L33.2144 18.7798L15.4344 5.67982L12.5844 6.98982Z" fill="#515253"/>
</g>
<g style="mix-blend-mode:multiply" opacity="0.6">
<path d="M58.1344 10.3998L33.2144 18.7798L56.5944 8.85982L58.1344 10.3998ZM51.2544 31.9998L33.2544 18.7998L48.5644 32.7998L51.2544 31.9998ZM9.83441 28.7298L33.2144 18.7998L8.2944 27.1898L9.83441 28.7298ZM15.1744 5.60982L33.1744 18.7998L17.8644 4.79982L15.1744 5.60982Z" fill="#515253"/>
</g>
</g>
<path d="M33.5744 18.6098V18.7198C33.5787 18.7396 33.5787 18.7601 33.5744 18.7798C33.5744 18.8998 33.2944 18.9798 33.0744 18.9498C33.0121 18.9374 32.9517 18.9173 32.8944 18.8898C32.8144 18.8898 32.7644 18.7798 32.7744 18.7198V18.6098C32.7779 18.6461 32.7908 18.6809 32.8119 18.7107C32.8329 18.7405 32.8614 18.7643 32.8944 18.7798C32.9517 18.8073 33.0121 18.8274 33.0744 18.8398C33.2944 18.8398 33.5244 18.8398 33.5744 18.6698C33.5787 18.6501 33.5787 18.6296 33.5744 18.6098Z" fill="#2C2E31"/>
<path d="M33.4544 18.4398C33.5544 18.4998 33.5944 18.5798 33.5544 18.6698C33.5144 18.7598 33.2744 18.8698 33.0544 18.8398C32.9921 18.8274 32.9316 18.8073 32.8744 18.7798C32.7744 18.7198 32.7244 18.6298 32.7644 18.5498C32.8211 18.4747 32.8991 18.4183 32.9882 18.388C33.0774 18.3576 33.1736 18.3548 33.2644 18.3798C33.3309 18.3876 33.3954 18.408 33.4544 18.4398Z" fill="#45474D"/>
<path d="M29.9444 26.4698V27.2998C29.9444 27.4598 29.8244 27.5198 29.6844 27.4398L29.4244 27.2898C29.3513 27.2434 29.2904 27.1802 29.2469 27.1053C29.2034 27.0305 29.1785 26.9463 29.1744 26.8598V25.9998C29.1744 25.8298 29.2844 25.7698 29.4244 25.8498L29.6744 25.9998C29.7561 26.0482 29.824 26.1169 29.8713 26.1992C29.9186 26.2816 29.9438 26.3748 29.9444 26.4698ZM31.5244 27.0898L31.2644 26.9398C31.1244 26.8598 31.0144 26.9398 31.0144 27.0798V27.9198C31.0185 28.0063 31.0434 28.0905 31.0869 28.1653C31.1304 28.2401 31.1913 28.3034 31.2644 28.3498L31.5244 28.4998C31.6644 28.5798 31.7744 28.4998 31.7744 28.3598V27.5198C31.7702 27.4334 31.7453 27.3492 31.7018 27.2743C31.6583 27.1995 31.5975 27.1362 31.5244 27.0898ZM33.3644 28.1498L33.1044 27.9998C32.9644 27.9198 32.8544 27.9998 32.8544 28.1398V28.9998C32.8569 29.088 32.8811 29.1742 32.9246 29.2509C32.9682 29.3276 33.0299 29.3925 33.1044 29.4398L33.3644 29.5898C33.5044 29.6698 33.6244 29.5898 33.6244 29.4398V28.6098C33.6241 28.5173 33.6 28.4264 33.5545 28.3458C33.5089 28.2653 33.4435 28.1978 33.3644 28.1498ZM35.1944 29.2098L34.9344 29.0598C34.7944 28.9798 34.6844 29.0598 34.6844 29.1998V29.9998C34.6869 30.088 34.7111 30.1742 34.7546 30.2509C34.7982 30.3276 34.8599 30.3925 34.9344 30.4398L35.1944 30.5898C35.3344 30.6698 35.4444 30.5898 35.4444 30.4398V29.6098C35.4357 29.5286 35.4087 29.4504 35.3654 29.3811C35.3221 29.3118 35.2636 29.2532 35.1944 29.2098Z" fill="url(#paint15_linear_1_31749)"/>
<g style="mix-blend-mode:screen" opacity="0.9">
<path style="mix-blend-mode:screen" d="M31.6144 28.4598L31.3544 28.3098C31.2813 28.2634 31.2204 28.2001 31.1769 28.1253C31.1334 28.0505 31.1085 27.9663 31.1044 27.8798V27.0498C31.095 27.0277 31.0902 27.0039 31.0902 26.9798C31.0902 26.9558 31.095 26.932 31.1044 26.9098C31.0244 26.9098 30.9644 26.9698 30.9644 27.0798V27.9198C30.9685 28.0063 30.9934 28.0905 31.0369 28.1653C31.0804 28.2401 31.1413 28.3034 31.2144 28.3498L31.4744 28.4998C31.5019 28.5244 31.5375 28.538 31.5744 28.538C31.6113 28.538 31.6469 28.5244 31.6744 28.4998C31.6524 28.4897 31.6321 28.4762 31.6144 28.4598Z" fill="url(#paint16_linear_1_31749)"/>
<path style="mix-blend-mode:screen" d="M29.7744 27.3998L29.5144 27.2498C29.4413 27.2034 29.3804 27.1402 29.3369 27.0653C29.2934 26.9905 29.2685 26.9063 29.2644 26.8198V25.9998C29.2623 25.9743 29.2656 25.9486 29.2742 25.9244C29.2829 25.9003 29.2966 25.8782 29.3144 25.8598C29.2244 25.8598 29.1744 25.9198 29.1744 26.0398V26.8698C29.1785 26.9563 29.2034 27.0405 29.2469 27.1153C29.2904 27.1901 29.3513 27.2534 29.4244 27.2998L29.6844 27.4498C29.7119 27.4744 29.7475 27.488 29.7844 27.488C29.8213 27.488 29.8569 27.4744 29.8844 27.4498L29.7744 27.3998Z" fill="url(#paint17_linear_1_31749)"/>
<path style="mix-blend-mode:screen" d="M35.2844 30.5798L35.0244 30.4298C34.9513 30.3834 34.8904 30.3202 34.8469 30.2453C34.8034 30.1705 34.7785 30.0863 34.7744 29.9998V29.1698C34.7723 29.1443 34.7756 29.1186 34.7843 29.0944C34.7929 29.0703 34.8066 29.0482 34.8244 29.0298C34.7444 29.0298 34.6844 29.0898 34.6844 29.1998V29.9998C34.6869 30.088 34.7111 30.1742 34.7547 30.2509C34.7982 30.3276 34.8599 30.3925 34.9344 30.4398L35.1944 30.5898C35.2228 30.6125 35.258 30.6249 35.2944 30.6249C35.3307 30.6249 35.366 30.6125 35.3944 30.5898C35.3575 30.5955 35.3197 30.592 35.2844 30.5798Z" fill="url(#paint18_linear_1_31749)"/>
<path style="mix-blend-mode:screen" d="M33.4444 29.5198L33.1844 29.3698C33.1113 29.3234 33.0504 29.2601 33.0069 29.1853C32.9634 29.1105 32.9385 29.0263 32.9344 28.9398V28.1098C32.925 28.0877 32.9202 28.0639 32.9202 28.0398C32.9202 28.0158 32.925 27.992 32.9344 27.9698C32.8544 27.9698 32.7944 28.0298 32.7944 28.1398V28.9998C32.7969 29.088 32.8211 29.1742 32.8646 29.2509C32.9082 29.3276 32.9699 29.3925 33.0444 29.4398L33.3044 29.5898C33.3844 29.5898 33.4644 29.5898 33.5044 29.5898L33.4444 29.5198Z" fill="url(#paint19_linear_1_31749)"/>
</g>
<path d="M5.79439 7.12982C5.79439 7.36982 5.63439 7.45982 5.43439 7.33982C5.38323 7.31327 5.3361 7.2796 5.29439 7.23982C5.15819 7.09542 5.07682 6.90792 5.06439 6.70982C5.06439 6.47982 5.23439 6.38982 5.43439 6.49982C5.53925 6.56961 5.62638 6.66289 5.68887 6.77225C5.75137 6.88161 5.7875 7.00405 5.79439 7.12982Z" fill="#AB804B"/>
<path d="M5.17438 6.47982L5.83438 6.09982C5.87355 6.07597 5.91851 6.06336 5.96437 6.06336C6.01023 6.06336 6.05521 6.07597 6.09438 6.09982C6.19923 6.16961 6.28637 6.26289 6.34886 6.37225C6.41136 6.48162 6.44749 6.60405 6.45438 6.72982C6.46132 6.77514 6.45567 6.82151 6.43803 6.86384C6.4204 6.90617 6.39145 6.94283 6.35437 6.96982L5.69437 7.34982C5.72989 7.32146 5.75768 7.2846 5.77516 7.24265C5.79264 7.20069 5.79925 7.15501 5.79437 7.10982C5.78748 6.98405 5.75135 6.86161 5.68886 6.75225C5.62636 6.64289 5.53923 6.54961 5.43437 6.47982C5.39454 6.45793 5.34982 6.44646 5.30437 6.44646C5.25892 6.44646 5.21421 6.45793 5.17438 6.47982Z" fill="#DEB377"/>
<g style="mix-blend-mode:multiply" opacity="0.5">
<g style="mix-blend-mode:multiply" opacity="0.2">
<path d="M2.69437 0.919817L5.29437 6.97982L8.54437 4.91982L9.43437 6.60982L5.32437 6.99982L8.97438 12.7298L7.92438 13.0798L5.31438 7.01982L2.07437 9.07982L1.17438 7.38982L5.29437 6.99982L1.64438 1.26982L2.69437 0.919817Z" fill="#9D9E9F"/>
</g>
<g style="mix-blend-mode:multiply" opacity="0.6">
<path d="M3.3744 0.939817L5.3044 6.97982L9.0744 5.83982L9.7944 7.55982L5.3244 6.99982L8.42441 12.9798L7.2444 13.0598L5.31441 7.01982L1.5444 8.15982L0.824402 6.43982L5.2944 6.99982L2.1944 1.01982L3.3744 0.939817Z" fill="#9D9E9F"/>
</g>
<g style="mix-blend-mode:multiply" opacity="0.9">
<path d="M4.1044 1.09982L5.3044 6.97982L9.5144 6.78982L10.0444 8.49982L5.3244 7.00982L7.7944 13.0898L6.5144 12.8998L5.31441 7.01982L1.1044 7.20982L0.574402 5.49982L5.2944 6.99982L2.8244 0.909817L4.1044 1.09982Z" fill="#9D9E9F"/>
</g>
<g style="mix-blend-mode:multiply" opacity="0.6">
<path d="M4.8544 1.40982L5.3044 6.97982L9.8544 7.74982L10.1744 9.40982L5.3244 7.00982L7.1044 13.0498L5.75441 12.5898L5.31441 7.01982L0.764404 6.24982L0.444397 4.58982L5.2944 6.98982L3.5144 0.949818L4.8544 1.40982Z" fill="#9D9E9F"/>
</g>
<g style="mix-blend-mode:multiply" opacity="0.2">
<path d="M5.62439 1.84982L5.31439 6.97982L10.0844 8.67982L10.1844 10.2598L5.32439 7.00982L6.37439 12.8598L4.99438 12.1498L5.30438 7.01982L0.534393 5.31982L0.434387 3.73982L5.29439 6.98982L4.24438 1.13982L5.62439 1.84982Z" fill="#9D9E9F"/>
</g>
<g style="mix-blend-mode:multiply" opacity="0.1">
<path d="M7.66438 3.71982L5.31439 6.98982L10.0844 11.0098L9.5844 12.1298L5.32439 7.01982L4.24438 11.5898L2.95439 10.2798L5.30438 7.00982L0.534393 2.98982L1.02438 1.86982L5.29439 6.97982L6.37439 2.40982L7.66438 3.71982Z" fill="#9D9E9F"/>
</g>
<g style="mix-blend-mode:multiply" opacity="0.4">
<path d="M4.0144 1.05982L5.2944 6.99982L3.48441 0.999817L4.0144 1.05982ZM0.854401 6.28982L5.34441 6.98982L0.644409 5.63982L0.854401 6.28982ZM7.09441 12.9998L5.2944 6.99982L6.6244 12.9398L7.09441 12.9998ZM9.78441 7.71982L5.2944 6.99982L9.9944 8.35982L9.78441 7.71982Z" fill="#515253"/>
</g>
<g style="mix-blend-mode:multiply" opacity="0.9">
<path d="M3.63438 0.889816L5.29439 6.98982L3.01439 0.999817L3.63438 0.889816ZM1.01439 6.99982H5.27438L0.754395 6.20982L1.01439 6.99982ZM7.59439 12.9998L5.29439 6.99982L7.01439 13.0498L7.59439 12.9998ZM9.54439 6.99982H5.29439L9.81439 7.79982L9.54439 6.99982Z" fill="#515253"/>
</g>
<g style="mix-blend-mode:multiply" opacity="0.6">
<path d="M3.0144 0.909817L5.2944 6.99982L2.56441 0.999817L3.0144 0.909817ZM1.3244 7.58982L5.3244 6.98982L1.0144 6.99982L1.3244 7.58982ZM8.0144 12.9998L5.2944 6.99982L7.6044 13.0998L8.0144 12.9998ZM9.2944 6.39982L5.2944 6.98982L9.59441 7.03982L9.2944 6.39982Z" fill="#515253"/>
</g>
</g>
<path d="M5.4244 7.34982C5.4244 7.57982 5.2644 7.66982 5.0644 7.55982C4.95823 7.49055 4.86955 7.39761 4.80535 7.2883C4.74116 7.17899 4.70317 7.05628 4.69439 6.92982C4.68866 6.88459 4.6965 6.83867 4.71691 6.79791C4.73733 6.75714 4.7694 6.72336 4.80905 6.70086C4.8487 6.67835 4.89413 6.66814 4.9396 6.67151C4.98507 6.67489 5.02851 6.6917 5.0644 6.71982C5.16981 6.78902 5.25736 6.88217 5.31993 6.99166C5.38249 7.10114 5.4183 7.22387 5.4244 7.34982Z" fill="#AB804B"/>
<path d="M4.80438 6.68982L5.06439 6.53982C5.10356 6.51597 5.14852 6.50336 5.19438 6.50336C5.24024 6.50336 5.28522 6.51597 5.32439 6.53982C5.43095 6.6078 5.5194 6.70066 5.58211 6.81041C5.64482 6.92015 5.67992 7.0435 5.68439 7.16982C5.68757 7.21338 5.68014 7.25707 5.66272 7.29713C5.6453 7.33719 5.61843 7.37243 5.5844 7.39982L5.32439 7.54982C5.35842 7.52243 5.38529 7.48719 5.40271 7.44713C5.42013 7.40707 5.42757 7.36338 5.42439 7.31982C5.41828 7.19386 5.38248 7.07114 5.31992 6.96165C5.25735 6.85217 5.1698 6.75902 5.06439 6.68982C5.02522 6.66597 4.98024 6.65336 4.93439 6.65336C4.88853 6.65336 4.84355 6.66597 4.80438 6.68982Z" fill="#DEB377"/>
<path d="M5.27438 15.3198V15.5598C5.25759 15.5539 5.24293 15.5432 5.23225 15.5289C5.22157 15.5147 5.21536 15.4976 5.21439 15.4798V15.2498C5.20908 15.2607 5.20633 15.2727 5.20633 15.2848C5.20633 15.2969 5.20908 15.3089 5.21439 15.3198H5.27438Z" fill="#A29C71"/>
<path d="M11.1044 13.7898L11.0944 14.0298L6.52438 16.1498V15.9098L11.1044 13.7898Z" fill="#C0955E"/>
<path d="M6.28438 15.9098L5.28438 15.3198C5.27907 15.3089 5.27631 15.2969 5.27631 15.2848C5.27631 15.2727 5.27907 15.2607 5.28438 15.2498V15.4798C5.28535 15.4976 5.29157 15.5147 5.30225 15.5289C5.31293 15.5432 5.32758 15.5539 5.34438 15.5598L6.34438 16.1398C6.38206 16.1569 6.42297 16.1658 6.46437 16.1658C6.50577 16.1658 6.54669 16.1569 6.58438 16.1398V15.8998C6.54005 15.9287 6.48866 15.9449 6.43578 15.9467C6.3829 15.9484 6.33054 15.9357 6.28438 15.9098Z" fill="#AB804B"/>
<path d="M11.0944 13.7898L6.52436 15.9098C6.48668 15.9269 6.44576 15.9358 6.40437 15.9358C6.36297 15.9358 6.32206 15.9269 6.28437 15.9098L5.28437 15.3198C5.21437 15.3198 5.21437 15.2198 5.28437 15.1798L9.52436 12.7098L11.0944 13.7898Z" fill="#EBC080"/>
<path d="M22.6944 16.7398C22.7385 16.7398 22.7744 16.7219 22.7744 16.6998C22.7744 16.6777 22.7385 16.6598 22.6944 16.6598C22.6502 16.6598 22.6144 16.6777 22.6144 16.6998C22.6144 16.7219 22.6502 16.7398 22.6944 16.7398Z" fill="#66676B"/>
<path d="M22.6144 16.6998V18.1098C22.6311 18.1195 22.6501 18.1246 22.6694 18.1246C22.6887 18.1246 22.7077 18.1195 22.7244 18.1098V16.6998C22.7077 16.7095 22.6887 16.7146 22.6694 16.7146C22.6501 16.7146 22.6311 16.7095 22.6144 16.6998Z" fill="#45474D"/>
<path d="M22.6944 16.9098L6.40439 15.8198L22.6944 16.9098Z" fill="#45474D"/>
<path d="M22.7144 16.8798L16.3444 9.99982L22.6944 16.8298L22.7144 16.8798Z" fill="#45474D"/>
<path d="M6.50441 15.6998C6.50441 15.6998 6.45441 15.6998 6.42441 15.6998C6.39902 15.7164 6.37773 15.7385 6.36214 15.7645C6.34655 15.7904 6.33707 15.8196 6.33441 15.8498C6.33628 15.8272 6.34362 15.8053 6.35582 15.7862C6.36802 15.767 6.38469 15.7511 6.4044 15.7398C6.40971 15.7531 6.42007 15.7637 6.4332 15.7693C6.44632 15.7749 6.46115 15.7751 6.47441 15.7698C6.48767 15.7645 6.49828 15.7542 6.50391 15.741C6.50953 15.7279 6.50971 15.7131 6.50441 15.6998Z" fill="#45474D"/>
<path d="M41.4544 27.9998C41.4603 28.0215 41.4615 28.0443 41.458 28.0665C41.4545 28.0888 41.4464 28.11 41.4341 28.1289C41.4218 28.1478 41.4057 28.1638 41.3868 28.1761C41.3679 28.1883 41.3466 28.1964 41.3244 28.1998C40.5664 28.423 39.878 28.8361 39.3244 29.3998C39.31 29.4124 39.2925 29.4211 39.2737 29.4248C39.2549 29.4286 39.2354 29.4274 39.2172 29.4214C39.199 29.4153 39.1827 29.4046 39.17 29.3903C39.1572 29.376 39.1484 29.3586 39.1444 29.3398C39.0544 28.4398 38.7244 27.6998 39.7944 26.9998C40.7144 26.4298 41.2744 27.2898 41.4544 27.9998Z" fill="#292927"/>
<path d="M41.4544 27.9998C41.4096 27.7665 41.3138 27.546 41.1737 27.3541C41.0337 27.1622 40.8529 27.0036 40.6444 26.8898C41.0112 27.138 41.2689 27.5173 41.3644 27.9498C41.3703 27.9722 41.3716 27.9955 41.3682 28.0183C41.3648 28.0412 41.3567 28.0631 41.3446 28.0828C41.3324 28.1025 41.3164 28.1194 41.2974 28.1327C41.2785 28.1459 41.257 28.1551 41.2344 28.1598C40.4731 28.3753 39.7828 28.7895 39.2344 29.3598C39.2235 29.3651 39.2115 29.3679 39.1994 29.3679C39.1872 29.3679 39.1753 29.3651 39.1644 29.3598C39.1737 29.3722 39.1858 29.3823 39.1996 29.3893C39.2135 29.3962 39.2288 29.3998 39.2444 29.3998C39.2599 29.3998 39.2752 29.3962 39.2891 29.3893C39.303 29.3823 39.3151 29.3722 39.3244 29.3598C39.878 28.7961 40.5664 28.383 41.3244 28.1598C41.3614 28.1528 41.3948 28.1328 41.4186 28.1035C41.4424 28.0743 41.455 28.0375 41.4544 27.9998Z" fill="#AB804B"/>
<path d="M39.6344 25.6398C39.1444 25.2798 37.5044 26.6398 37.9344 26.9498L38.7744 27.4898C38.7941 27.5061 38.8189 27.515 38.8444 27.515C38.87 27.515 38.8947 27.5061 38.9144 27.4898C39.7044 26.5698 40.2044 26.5998 40.4744 26.5698C40.5444 26.5698 40.4744 26.4798 40.4744 26.4198C40.2316 26.1225 39.9489 25.86 39.6344 25.6398Z" fill="url(#paint20_linear_1_31749)"/>
<path d="M39.6344 25.7198C39.9387 25.9375 40.2171 26.1891 40.4644 26.4698V26.5298C40.4644 26.5298 40.4644 26.4398 40.4644 26.3898C40.2226 26.1038 39.9434 25.8515 39.6344 25.6398C39.1844 25.3098 37.7744 26.4398 37.8744 26.8598C37.9544 26.3898 39.2144 25.4198 39.6344 25.7198Z" fill="#AB804B"/>
<defs>
<linearGradient id="paint0_linear_1_31749" x1="40.5144" y1="20.5198" x2="39.3344" y2="22.5698" gradientUnits="userSpaceOnUse">
<stop stop-color="#E2B77A"/>
<stop offset="0.38" stop-color="#D9AE72"/>
<stop offset="1" stop-color="#C0955E"/>
</linearGradient>
<linearGradient id="paint1_linear_1_31749" x1="37.6744" y1="18.6598" x2="32.3744" y2="27.8298" gradientUnits="userSpaceOnUse">
<stop stop-color="#E2B77A"/>
<stop offset="0.38" stop-color="#D9AE72"/>
<stop offset="1" stop-color="#C0955E"/>
</linearGradient>
<linearGradient id="paint2_linear_1_31749" x1="26.2744" y1="32.0298" x2="27.3144" y2="33.8198" gradientUnits="userSpaceOnUse">
<stop stop-color="#494644"/>
<stop offset="0.08" stop-color="#4F4C4A"/>
<stop offset="0.31" stop-color="#5D5957"/>
<stop offset="0.5" stop-color="#625E5C"/>
<stop offset="0.92" stop-color="#4E4A48"/>
<stop offset="1" stop-color="#494644"/>
</linearGradient>
<linearGradient id="paint3_linear_1_31749" x1="41.6844" y1="35.4298" x2="42.7144" y2="37.2198" gradientUnits="userSpaceOnUse">
<stop stop-color="#494644"/>
<stop offset="0.08" stop-color="#4F4C4A"/>
<stop offset="0.31" stop-color="#5D5957"/>
<stop offset="0.5" stop-color="#625E5C"/>
<stop offset="0.92" stop-color="#4E4A48"/>
<stop offset="1" stop-color="#494644"/>
</linearGradient>
<linearGradient id="paint4_linear_1_31749" x1="40.7344" y1="35.9698" x2="41.7744" y2="37.7598" gradientUnits="userSpaceOnUse">
<stop stop-color="#494644"/>
<stop offset="0.08" stop-color="#4F4C4A"/>
<stop offset="0.31" stop-color="#5D5957"/>
<stop offset="0.5" stop-color="#625E5C"/>
<stop offset="0.92" stop-color="#4E4A48"/>
<stop offset="1" stop-color="#494644"/>
</linearGradient>
<linearGradient id="paint5_linear_1_31749" x1="15.4644" y1="10.2098" x2="14.9544" y2="28.3298" gradientUnits="userSpaceOnUse">
<stop stop-color="#E2B77A"/>
<stop offset="0.38" stop-color="#D9AE72"/>
<stop offset="1" stop-color="#C0955E"/>
</linearGradient>
<linearGradient id="paint6_linear_1_31749" x1="36.6044" y1="22.2098" x2="29.6844" y2="34.1998" gradientUnits="userSpaceOnUse">
<stop stop-color="#E2B77A"/>
<stop offset="0.38" stop-color="#D9AE72"/>
<stop offset="1" stop-color="#C0955E"/>
</linearGradient>
<linearGradient id="paint7_linear_1_31749" x1="31.7944" y1="19.1998" x2="30.7844" y2="22.0298" gradientUnits="userSpaceOnUse">
<stop stop-color="#E2B77A"/>
<stop offset="0.38" stop-color="#D9AE72"/>
<stop offset="1" stop-color="#C0955E"/>
</linearGradient>
<linearGradient id="paint8_linear_1_31749" x1="20.7744" y1="31.9198" x2="19.5944" y2="33.9698" gradientUnits="userSpaceOnUse">
<stop stop-color="#E2B77A"/>
<stop offset="0.38" stop-color="#D9AE72"/>
<stop offset="1" stop-color="#C0955E"/>
</linearGradient>
<linearGradient id="paint9_linear_1_31749" x1="20.5144" y1="30.9698" x2="28.0444" y2="23.0398" gradientUnits="userSpaceOnUse">
<stop stop-color="#E2B77A"/>
<stop offset="0.38" stop-color="#D9AE72"/>
<stop offset="1" stop-color="#C0955E"/>
</linearGradient>
<linearGradient id="paint10_linear_1_31749" x1="21.5144" y1="29.0598" x2="28.3744" y2="29.0598" gradientUnits="userSpaceOnUse">
<stop stop-color="#C0955E"/>
<stop offset="1" stop-color="#AD8654"/>
</linearGradient>
<linearGradient id="paint11_linear_1_31749" x1="42.6344" y1="29.0198" x2="40.6944" y2="31.1798" gradientUnits="userSpaceOnUse">
<stop stop-color="#292927"/>
<stop offset="0.36" stop-color="#40403D"/>
<stop offset="0.55" stop-color="#3E3E3B"/>
<stop offset="0.61" stop-color="#373735"/>
<stop offset="0.66" stop-color="#2C2C29"/>
<stop offset="0.67" stop-color="#262624"/>
<stop offset="0.69" stop-color="#252523"/>
<stop offset="1" stop-color="#1C1C1B"/>
</linearGradient>
<linearGradient id="paint12_linear_1_31749" x1="41.2644" y1="21.6898" x2="37.4844" y2="25.0998" gradientUnits="userSpaceOnUse">
<stop stop-color="#E2B77A"/>
<stop offset="0.38" stop-color="#D9AE72"/>
<stop offset="1" stop-color="#C0955E"/>
</linearGradient>
<linearGradient id="paint13_linear_1_31749" x1="39.5444" y1="22.6898" x2="35.7544" y2="26.0898" gradientUnits="userSpaceOnUse">
<stop stop-color="#E2B77A"/>
<stop offset="0.38" stop-color="#D9AE72"/>
<stop offset="1" stop-color="#C0955E"/>
</linearGradient>
<linearGradient id="paint14_linear_1_31749" x1="33.5544" y1="19.4198" x2="30.7044" y2="24.2298" gradientUnits="userSpaceOnUse">
<stop stop-color="#E2B77A"/>
<stop offset="0.38" stop-color="#D9AE72"/>
<stop offset="1" stop-color="#C0955E"/>
</linearGradient>
<linearGradient id="paint15_linear_1_31749" x1="29.1344" y1="26.7098" x2="37.4644" y2="30.7498" gradientUnits="userSpaceOnUse">
<stop stop-color="#1C1C1B"/>
<stop offset="0.77" stop-color="#252524"/>
<stop offset="1" stop-color="#292927"/>
</linearGradient>
<linearGradient id="paint16_linear_1_31749" x1="30.8544" y1="27.4698" x2="32.2444" y2="28.1398" gradientUnits="userSpaceOnUse">
<stop stop-color="#1C1C1B"/>
<stop offset="0.77" stop-color="#252524"/>
<stop offset="1" stop-color="#292927"/>
</linearGradient>
<linearGradient id="paint17_linear_1_31749" x1="29.0144" y1="26.4098" x2="30.4144" y2="27.0798" gradientUnits="userSpaceOnUse">
<stop stop-color="#1C1C1B"/>
<stop offset="0.77" stop-color="#252524"/>
<stop offset="1" stop-color="#292927"/>
</linearGradient>
<linearGradient id="paint18_linear_1_31749" x1="34.5244" y1="29.5898" x2="35.9144" y2="30.2598" gradientUnits="userSpaceOnUse">
<stop stop-color="#1C1C1B"/>
<stop offset="0.77" stop-color="#252524"/>
<stop offset="1" stop-color="#292927"/>
</linearGradient>
<linearGradient id="paint19_linear_1_31749" x1="32.6844" y1="28.5298" x2="34.0844" y2="29.1998" gradientUnits="userSpaceOnUse">
<stop stop-color="#1C1C1B"/>
<stop offset="0.77" stop-color="#252524"/>
<stop offset="1" stop-color="#292927"/>
</linearGradient>
<linearGradient id="paint20_linear_1_31749" x1="39.8744" y1="25.8098" x2="38.4944" y2="27.3498" gradientUnits="userSpaceOnUse">
<stop stop-color="#292927"/>
<stop offset="0.36" stop-color="#40403D"/>
<stop offset="0.55" stop-color="#3E3E3B"/>
<stop offset="0.61" stop-color="#373735"/>
<stop offset="0.66" stop-color="#2C2C29"/>
<stop offset="0.67" stop-color="#262624"/>
<stop offset="0.69" stop-color="#252523"/>
<stop offset="1" stop-color="#1C1C1B"/>
</linearGradient>
</defs>
</svg>
