<svg width="204" height="124" viewBox="0 0 204 124" fill="none" xmlns="http://www.w3.org/2000/svg">
<g clip-path="url(#clip0_1_35649)">
<path d="M168.79 2.84301C169.23 2.84301 170.11 3.49909 170.55 3.93648C170.11 3.2804 169.67 2.18692 169.45 1.74953C169.23 1.31214 169.67 0.874753 170.11 1.09345C170.55 1.31214 170.99 1.74953 171.21 2.40562C171.21 2.84301 171.21 3.71779 171.21 4.15518C171.65 3.93648 172.311 3.93648 172.751 3.93648C173.191 4.15518 173.631 4.59257 173.851 5.24865C174.071 5.68604 173.631 6.12343 173.191 5.90474C172.751 5.90474 171.871 5.24865 171.43 4.81126C171.871 5.46735 172.311 6.56082 172.531 6.99821C172.751 7.4356 172.311 7.87299 171.871 7.65429C171.43 7.4356 170.99 6.99821 170.77 6.34213C170.77 5.90474 170.77 5.02996 170.77 4.59257C170.33 4.81126 169.67 4.81126 169.23 4.81126C168.79 4.59257 168.35 4.15518 168.129 3.49909C168.129 3.0617 168.35 2.62431 168.79 2.84301Z" fill="#313837"/>
<path d="M192.557 16.4021C192.997 16.6208 193.877 17.2769 194.537 17.7143C194.097 17.0582 193.657 15.9648 193.437 15.5274C193.217 15.09 193.657 14.6526 194.097 14.8713C194.537 14.8713 194.977 15.5274 194.977 15.9648C194.977 16.4021 194.977 17.2769 194.977 17.7143C195.417 17.7143 196.078 17.4956 196.518 17.4956C196.958 17.7143 197.398 18.3704 197.618 18.8078C197.618 19.4639 197.398 19.6826 196.958 19.4639C196.518 19.4639 195.638 18.8078 195.197 18.3704C195.638 19.0265 196.078 20.12 196.298 20.5573C196.298 20.9947 196.078 21.4321 195.638 21.2134C195.197 21.2134 194.537 20.5573 194.537 20.12C194.537 19.6826 194.537 18.8078 194.537 18.3704C194.317 18.3704 193.437 18.5891 192.997 18.3704C192.557 18.1517 192.116 17.7143 191.896 17.0582C191.896 16.6208 192.117 16.4021 192.557 16.4021Z" fill="#313837"/>
<path d="M155.586 3.93652V4.8113L159.107 11.3721V10.4974L155.586 3.93652Z" fill="#454545"/>
<path d="M159.107 10.4973V11.3721L166.369 15.5273V14.6525L159.107 10.4973Z" fill="#5C5C5C"/>
<path d="M166.369 14.6525V15.5273L180.453 11.3721V10.4973L166.369 14.6525Z" fill="#1E2221"/>
<path d="M155.586 3.93651L159.107 10.4974L166.369 14.6526L180.453 10.4974L162.408 0L155.586 3.93651Z" fill="#5C5C5C"/>
<path d="M173.411 29.0864L172.751 28.649L176.712 34.9912L177.372 35.4286L173.411 29.0864Z" fill="#73787A"/>
<path d="M173.411 23.4004L172.751 22.963V28.6491L173.411 29.0865V23.4004Z" fill="#272C2B"/>
<path d="M184.194 13.5591L183.534 13.1217L172.751 22.963L173.411 23.4004L184.194 13.5591Z" fill="#303736"/>
<path d="M184.194 13.5591L173.411 23.4004V29.0864L177.372 35.4286L184.194 31.4921V13.5591Z" fill="#8C9193"/>
<path d="M22.0065 79.3863C22.0065 79.1676 22.0065 79.1676 22.0065 79.3863C22.6667 78.7302 23.987 77.8554 25.5275 76.7619C27.288 75.6685 28.8285 75.2311 29.0485 75.2311L40.0518 81.5732C39.8317 81.3545 38.2913 82.0106 36.5307 83.1041C34.9903 83.9789 33.6699 84.8536 33.2298 85.5097C33.2298 85.5097 33.2298 85.7284 33.0097 85.7284L22.0065 79.3863Z" fill="url(#paint0_linear_1_35649)"/>
<path d="M36.5307 83.1041C38.5113 82.0107 40.0518 81.3546 40.0518 81.5733C40.0518 82.0107 38.5113 83.1041 36.5307 84.1976C34.5502 85.2911 33.0097 85.9472 33.0097 85.7285C33.0097 85.5098 34.5502 84.1976 36.5307 83.1041Z" fill="#303635"/>
<path d="M8.36247 93.164L123.676 27.3369C143.482 16.4021 161.968 10.4974 183.974 8.31042C184.194 8.31042 184.634 8.52912 185.074 8.74781C186.395 9.4039 187.275 11.3722 187.275 12.6843C187.275 13.1217 187.055 13.5591 187.055 13.7778C174.291 31.4921 159.767 44.3951 140.181 55.9859C142.162 54.8924 142.162 54.8924 140.181 55.9859L24.8673 121.813C23.5469 122.469 20.6861 124 16.7249 124C15.4045 124 11.8835 124 8.14241 121.594C3.08092 118.533 -0.220047 112.847 1.52588e-05 107.161C1.52588e-05 103.88 1.3204 97.3192 8.36247 93.164Z" fill="url(#paint1_linear_1_35649)"/>
<path opacity="0.3" d="M8.36247 93.164L123.676 27.3369C143.482 16.4021 161.968 10.4974 183.974 8.31042C184.194 8.31042 184.634 8.52912 185.074 8.74781C186.395 9.4039 187.275 11.3722 187.275 12.6843C187.275 13.1217 187.055 13.5591 187.055 13.7778C174.291 31.4921 159.767 44.3951 140.181 55.9859C142.162 54.8924 142.162 54.8924 140.181 55.9859L24.8673 121.813C23.5469 122.469 20.6861 124 16.7249 124C15.4045 124 11.8835 124 8.14241 121.594C3.08092 118.533 -0.220047 112.847 1.52588e-05 107.161C1.52588e-05 103.88 1.3204 97.3192 8.36247 93.164Z" fill="url(#paint2_radial_1_35649)"/>
<path d="M0.660202 110.222C2.20065 113.503 5.28157 115.908 9.02267 117.002C13.644 118.314 20.9062 118.97 27.9482 114.815L142.822 46.582C162.848 36.0847 176.052 25.5873 187.275 12.2469C187.275 12.4656 187.275 12.6843 187.275 12.903C187.275 13.3404 187.055 13.7778 187.055 13.9965C174.291 31.7108 159.767 44.6138 140.181 56.2046C140.401 55.9859 140.841 55.9859 141.061 55.7672C140.841 55.9859 140.621 55.9859 140.181 56.2046L24.8673 122.032C23.5469 122.688 20.6861 124.219 16.7249 124.219C15.4045 124.219 11.8835 124.219 8.14241 121.813C3.08092 118.97 1.52588e-05 113.284 1.52588e-05 107.598C1.52588e-05 108.473 0.44014 109.347 0.660202 110.222Z" fill="#444546"/>
<path d="M115.094 38.709C119.055 39.8025 121.916 41.9894 121.916 41.9894L86.0453 62.5467C84.5049 61.8906 82.9644 61.4533 82.9644 61.4533L115.094 38.709Z" fill="#262A29"/>
<path d="M75.7023 51.1747L106.951 33.2417C108.052 32.5856 109.592 32.5856 110.693 33.2417L115.534 36.0847C116.634 36.7408 117.515 38.053 117.515 39.3652V41.7708L82.9644 61.672C80.5437 59.2664 77.4628 57.0794 74.1618 56.6421V54.0177C74.1618 52.7055 74.822 51.6121 75.7023 51.1747Z" fill="url(#paint3_linear_1_35649)"/>
<path d="M75.7023 51.1747L106.951 33.2417C108.052 32.5856 109.592 32.5856 110.693 33.2417L115.534 36.0847C116.414 36.7408 117.074 37.6156 117.295 38.7091C115.974 36.9595 106.071 36.0847 106.071 36.0847C105.631 36.0847 82.9644 52.0495 82.9644 52.0495C85.6052 52.2682 89.7864 52.2682 92.6473 53.5803L84.2848 58.3916C83.4045 58.829 82.3042 58.829 81.424 58.3916L73.7217 54.0177C74.1618 52.7055 74.822 51.6121 75.7023 51.1747Z" fill="url(#paint4_linear_1_35649)"/>
<path opacity="0.4" d="M140.841 55.5485C141.942 54.8924 141.942 54.8924 140.841 55.5485V55.5485Z" fill="#821211"/>
<path d="M81.8641 39.1464C83.1845 40.0212 85.6052 40.0212 86.9256 39.3651L96.1683 33.8978C99.9094 31.7108 106.951 26.8995 106.951 25.3687V37.8343C106.951 39.3651 99.9094 44.1764 96.1683 46.3634L86.9256 51.8307C85.3851 52.7055 83.1845 52.7055 81.8641 51.612C81.4239 51.1747 81.2039 50.7373 81.2039 50.2999V37.8343C81.2039 38.2716 81.4239 38.709 81.8641 39.1464Z" fill="url(#paint5_linear_1_35649)"/>
<path d="M82.3042 36.3033L91.5469 31.0547C95.5081 28.8677 105.191 24.0564 106.951 25.1499C108.492 26.0247 100.35 31.7108 96.3884 33.8977L87.1456 39.3651C85.6052 40.2399 83.4045 40.2399 82.0841 39.1464C80.7638 38.2716 80.9838 36.9594 82.3042 36.3033Z" fill="url(#paint6_linear_1_35649)"/>
<path d="M51.9353 96.4445C52.5955 95.7884 53.9159 94.9136 55.4563 93.8202C57.2168 92.7267 58.7573 92.2893 58.9773 92.2893L69.9806 98.6315C69.7605 98.4128 68.2201 99.0688 66.4595 100.162C64.9191 101.037 63.5987 101.912 63.1586 102.568C63.1586 102.568 63.1586 102.787 62.9385 102.787L51.9353 96.4445C51.9353 96.6632 51.9353 96.6632 51.9353 96.4445C51.9353 96.6632 51.9353 96.6632 51.9353 96.4445Z" fill="url(#paint7_linear_1_35649)"/>
<path d="M66.4595 100.381C68.4401 99.2875 69.9806 98.6314 69.9806 98.8501C69.9806 99.2875 68.4401 100.381 66.4595 101.474C64.479 102.568 62.9385 103.224 62.9385 103.005C62.9385 102.568 64.479 101.474 66.4595 100.381Z" fill="#303635"/>
<path d="M178.472 21.6509V22.5257L185.735 26.6809V25.8061L178.472 21.6509Z" fill="#5C5C5C"/>
<path d="M185.735 25.806V26.6808L197.178 28.8678V27.993L185.735 25.806Z" fill="#7E7E7E"/>
<path d="M197.178 27.993V28.8678L204 24.9313V24.0565L197.178 27.993Z" fill="#444546"/>
<path d="M204 24.0565L185.955 13.7778L178.472 21.6508L185.735 25.8061L197.178 27.993L204 24.0565Z" fill="#5C5C5C"/>
<path d="M193.217 16.6208C193.657 16.4021 194.097 16.4021 194.757 16.8395C195.858 17.4956 196.738 18.8078 196.738 19.9012C193.657 21.6508 189.036 23.4004 187.935 22.7443C186.835 22.0882 190.136 18.3704 193.217 16.6208Z" fill="url(#paint8_linear_1_35649)"/>
<path d="M169.45 2.84299C169.89 2.6243 170.33 2.6243 170.77 3.06169C171.871 3.71777 172.751 5.02994 172.751 6.12341C169.67 7.87297 165.049 9.62253 163.948 8.96645C162.848 8.31036 166.369 4.59255 169.45 2.84299Z" fill="url(#paint9_linear_1_35649)"/>
<path d="M93.7476 31.2734C93.9676 31.9295 95.068 32.3669 96.1683 32.1482C96.6084 32.1482 96.8285 31.9295 97.0485 31.9295C97.4887 31.7108 97.7087 31.4921 97.7087 31.0547V31.4921C97.7087 31.7108 97.4887 32.1482 97.0485 32.3669C96.8285 32.5856 96.3883 32.5856 96.1683 32.5856C95.068 32.8042 93.9676 32.3669 93.7476 31.7108C93.7476 31.4921 93.7476 31.4921 93.7476 31.2734V31.0547C93.7476 31.0547 93.7476 31.2734 93.7476 31.2734Z" fill="url(#paint10_linear_1_35649)"/>
<path d="M94.4078 30.1799C94.6278 29.9612 95.068 29.9612 95.288 29.9612C96.3883 29.7425 97.4887 30.1799 97.7087 30.836C97.9288 31.2734 97.7087 31.7107 97.2686 31.9294C97.0485 32.1481 96.6084 32.1481 96.3883 32.1481C95.288 32.3668 94.1877 31.9294 93.9676 31.2734C93.5275 30.836 93.7476 30.3986 94.4078 30.1799Z" fill="#787677"/>
<path d="M97.4887 30.1799C97.4887 30.3986 97.4887 30.3986 97.4887 30.1799L97.2686 30.3986L97.4887 30.1799Z" fill="#77233D"/>
<path d="M96.1683 29.9613L97.0485 30.6174V30.3987L96.1683 29.9613Z" fill="#8F2A4A"/>
<path d="M96.1683 29.9612L97.0485 30.3986L97.2686 30.1799L96.6084 29.7426H96.3883L96.1683 29.9612Z" fill="#787677"/>
<path d="M87.5858 34.7726C87.8058 35.4287 88.9061 35.8661 90.0065 35.6474C90.4466 35.6474 90.6667 35.4287 90.8867 35.4287C91.3269 35.21 91.5469 34.9913 91.5469 34.554V34.9913C91.5469 35.21 91.3269 35.6474 90.8867 35.8661C90.6667 36.0848 90.2265 36.0848 90.0065 36.0848C88.9061 36.3035 87.8058 35.8661 87.5858 35.21C87.5858 35.21 87.5858 34.9913 87.5858 34.7726V34.554V34.7726Z" fill="url(#paint11_linear_1_35649)"/>
<path d="M88.0259 33.6791C88.246 33.4605 88.6861 33.4605 88.9062 33.4605C90.0065 33.2418 91.1068 33.6791 91.3269 34.3352C91.5469 34.7726 91.3269 35.21 90.8867 35.4287C90.6667 35.6474 90.2265 35.6474 90.0065 35.6474C88.9062 35.8661 87.8058 35.4287 87.5858 34.7726C87.3657 34.3352 87.5858 33.8978 88.0259 33.6791Z" fill="#787677"/>
<path d="M91.1068 33.8977C91.3269 33.8977 91.3269 33.679 91.1068 33.8977C91.3269 33.8977 91.3269 33.8977 91.1068 33.8977L90.8867 34.1164L91.1068 33.8977Z" fill="#77233D"/>
<path d="M90.0065 33.4604V33.6791L90.8867 34.1165V33.8978L90.0065 33.4604Z" fill="#8F2A4A"/>
<path d="M90.0065 33.4604L90.8867 33.8978L91.1068 33.6791L90.4466 33.2417H90.2265L90.0065 33.4604Z" fill="#787677"/>
<path d="M104.531 22.0883C104.288 22.0883 104.091 21.9904 104.091 21.8696C104.091 21.7488 104.288 21.6509 104.531 21.6509C104.774 21.6509 104.971 21.7488 104.971 21.8696C104.971 21.9904 104.774 22.0883 104.531 22.0883Z" fill="#787677"/>
<path d="M104.091 21.8696V26.4622C104.091 26.4622 104.091 26.6809 104.311 26.6809C104.531 26.6809 104.751 26.6809 104.751 26.6809C104.751 26.6809 104.751 26.6809 104.971 26.4622V21.8696C104.971 21.8696 104.971 22.0883 104.751 22.0883C104.751 22.0883 104.531 22.0883 104.091 21.8696C104.311 22.0883 104.091 21.8696 104.091 21.8696Z" fill="url(#paint12_linear_1_35649)"/>
<path d="M84.0647 28.6491C84.2848 28.6491 84.5049 28.6491 84.5049 28.6491C84.7249 28.6491 84.7249 28.4304 84.5049 28.4304C84.2848 28.4304 84.0647 28.4304 84.0647 28.4304V28.6491Z" fill="#7E2F48"/>
<path d="M84.0647 28.4304V36.5221C84.0647 36.5221 84.0647 36.7408 84.2848 36.7408C84.5048 36.7408 84.7249 36.7408 84.7249 36.7408C84.7249 36.7408 84.7249 36.7408 84.945 36.5221V28.4304C84.945 28.4304 84.945 28.6491 84.7249 28.6491C84.5048 28.6491 84.2848 28.6491 84.0647 28.4304C84.0647 28.6491 84.0647 28.4304 84.0647 28.4304Z" fill="url(#paint13_linear_1_35649)"/>
<path d="M84.0647 27.993C84.2848 28.2117 84.5048 28.2117 84.7249 27.993C84.945 27.7743 84.945 27.7743 84.7249 27.5556C84.5048 27.3369 84.2848 27.3369 84.0647 27.5556C83.8447 27.5556 83.8447 27.7743 84.0647 27.993Z" fill="#787677"/>
<path d="M83.8447 27.7743V28.8678C83.8447 28.8678 83.8447 29.0865 84.0647 29.0865C84.2848 29.3052 84.5048 29.3052 84.7249 29.0865L84.945 28.8678V27.7743C84.945 27.7743 84.945 27.993 84.7249 27.993C84.5048 27.993 84.2848 27.993 83.8447 27.7743C84.0647 27.7743 83.8447 27.7743 83.8447 27.7743Z" fill="url(#paint14_linear_1_35649)"/>
<path d="M86.7055 29.9613C86.4624 29.9613 86.2654 29.8634 86.2654 29.7426C86.2654 29.6218 86.4624 29.5239 86.7055 29.5239C86.9486 29.5239 87.1456 29.6218 87.1456 29.7426C87.1456 29.8634 86.9486 29.9613 86.7055 29.9613Z" fill="#7E2F48"/>
<path d="M86.2654 29.7427V37.8344C86.2654 37.8344 86.2654 38.0531 86.4854 38.0531C86.7055 38.0531 86.9256 38.0531 86.9256 38.0531C86.9256 38.0531 86.9256 38.0531 87.1456 37.8344V29.7427C87.1456 29.7427 87.1456 29.9614 86.9256 29.9614C86.7055 29.9614 86.4854 29.9614 86.2654 29.7427C86.2654 29.9614 86.2654 29.7427 86.2654 29.7427Z" fill="url(#paint15_linear_1_35649)"/>
<path d="M86.7055 29.3052C86.4624 29.3052 86.2654 29.2073 86.2654 29.0865C86.2654 28.9657 86.4624 28.8678 86.7055 28.8678C86.9486 28.8678 87.1456 28.9657 87.1456 29.0865C87.1456 29.2073 86.9486 29.3052 86.7055 29.3052Z" fill="#787677"/>
<path d="M86.2654 29.0865V30.18C86.2654 30.18 86.2654 30.3987 86.4854 30.3987C86.7055 30.6174 86.9256 30.6174 87.1456 30.3987L87.3657 30.18V29.0865C87.3657 29.0865 87.3657 29.3052 87.1456 29.3052C86.9256 29.3052 86.4854 29.3052 86.2654 29.0865Z" fill="url(#paint16_linear_1_35649)"/>
<path d="M100.129 27.1182C100.35 27.3369 101.01 27.3369 101.23 27.1182C101.45 26.8995 101.45 26.6808 101.23 26.4621C101.01 26.2434 100.35 26.2434 100.129 26.4621C99.6893 26.6808 99.6893 27.1182 100.129 27.1182Z" fill="#787677"/>
<path d="M99.9094 26.8995V28.6491C99.9094 28.8678 99.9094 28.8678 100.129 29.0865C100.35 29.3052 101.01 29.3052 101.23 29.0865C101.45 29.0865 101.45 28.8678 101.45 28.6491V26.8995C101.45 27.1182 101.45 27.1182 101.23 27.3369C101.01 27.5556 100.35 27.5556 100.129 27.3369C99.9094 27.1182 99.9094 26.8995 99.9094 26.8995Z" fill="url(#paint17_linear_1_35649)"/>
<path d="M92.4272 32.5856C92.6472 32.8043 92.8673 32.8043 92.8673 32.8043C92.8673 32.8043 92.8673 32.8043 92.8673 32.5856L93.0874 33.2417C93.0874 33.2417 93.0874 33.4604 92.8673 33.4604C92.6472 33.4604 92.4272 33.679 92.2071 33.4604C91.9871 33.4604 91.987 33.2417 91.987 33.2417L92.4272 32.5856Z" fill="url(#paint18_linear_1_35649)"/>
<path d="M92.4272 32.5856C92.4272 32.5856 92.6472 32.5856 92.8673 32.5856V32.8043C92.8673 32.8043 92.6472 32.8043 92.4272 32.5856Z" fill="#787677"/>
<path d="M92.6472 18.1517C92.8673 18.1517 92.8673 18.1517 92.6472 18.1517C92.8673 18.1517 92.8673 18.1517 92.6472 18.1517L92.8673 32.5856C92.8673 32.5856 92.8673 32.5856 92.6472 32.5856V18.1517Z" fill="#323436"/>
<path d="M83.1845 36.9595C83.4045 37.1782 84.0647 37.1782 84.2848 36.9595C84.5048 36.7408 84.5048 36.5221 84.2848 36.3034C84.0647 36.0847 83.4045 36.0847 83.1845 36.3034C82.9644 36.5221 82.7443 36.7408 83.1845 36.9595Z" fill="#787677"/>
<path d="M82.9644 36.5221V38.2717C82.9644 38.4903 82.9644 38.4903 83.1845 38.709C83.4045 38.9277 84.0647 38.9277 84.2848 38.709C84.5048 38.709 84.5049 38.4903 84.5049 38.2717V36.5221C84.5049 36.7408 84.5048 36.7408 84.2848 36.9595C84.0647 37.1782 83.4045 37.1782 83.1845 36.9595C82.9644 36.7408 82.9644 36.7408 82.9644 36.5221Z" fill="url(#paint19_linear_1_35649)"/>
<g opacity="0.7">
<path d="M-3.01164e-06 107.16C-3.01164e-06 103.661 1.32038 97.3192 8.36245 93.164L27.288 82.448L22.2265 79.3862C22.2265 79.3862 22.2265 79.1675 22.4466 79.1675C22.8867 78.7302 24.2071 77.6367 25.7476 76.7619C27.5081 75.6684 29.0485 75.231 29.2686 75.231L34.5502 78.2928L74.1618 55.5485V53.7989C74.1618 52.7055 74.822 51.612 75.7023 50.9559L81.2039 48.1129V37.8342C81.2039 37.1781 81.644 36.7407 82.3042 36.3034L84.0647 35.2099V28.8677L83.8447 28.649V27.5556C83.8447 27.5556 83.8447 27.3369 84.0647 27.3369C84.2848 27.1182 84.5048 27.1182 84.7249 27.3369C84.945 27.5556 84.945 27.5556 84.7249 27.7742L84.945 27.5556V28.649C84.945 28.649 84.945 28.8677 84.7249 28.8677V34.7725L86.2654 33.8977V30.1799L86.0453 29.9612V28.8677C86.0453 28.8677 86.0453 28.649 86.2654 28.649C86.4854 28.4303 86.7055 28.4303 86.9256 28.649C87.1456 28.8677 87.1456 28.8677 86.9256 29.0864L87.1456 28.8677V29.9612C87.1456 29.9612 87.1456 30.1799 86.9256 30.1799V33.4603L91.3269 30.836C91.5469 30.6173 91.987 30.3986 92.4272 30.1799V17.933C92.4272 17.933 92.4272 17.933 92.6472 17.933V29.9612C94.6278 28.8677 97.2686 27.5556 99.6893 26.4621C99.6893 26.2434 99.6893 26.2434 99.9094 26.0247C100.129 25.806 100.35 25.806 100.79 26.0247C101.89 25.5873 103.21 25.1499 104.091 24.9312V21.8695V21.6508C104.311 21.6508 104.531 21.6508 104.531 21.6508C104.751 21.6508 104.751 21.8695 104.531 21.8695C104.531 21.8695 104.531 21.8695 104.751 21.6508V24.9312C105.631 24.7125 106.291 24.7125 106.731 24.9312C106.951 24.9312 106.951 25.1499 106.951 25.3686C106.951 25.3686 106.951 25.3686 106.951 25.1499V33.0229C107.172 32.8042 107.612 32.8042 107.832 32.5855C108.492 32.3668 109.152 32.3668 109.812 32.5855C110.032 32.5855 110.472 32.8042 110.693 33.0229L112.013 33.679L123.456 27.1182C136 20.1199 148.104 15.3086 160.647 12.0282L158.887 10.9347L155.366 4.3739V3.49912L162.408 0L168.129 3.28042C168.129 2.84303 168.35 2.62434 168.79 2.62434C168.79 2.62434 169.01 2.62434 169.23 2.84303C169.23 2.84303 169.45 2.84303 169.45 2.62434C169.67 2.62434 169.89 2.62434 170.11 2.62434C169.89 2.18695 169.67 1.74956 169.67 1.74956C169.45 1.31217 169.89 0.87478 170.33 1.09347C170.77 1.31217 171.21 1.74956 171.43 2.40564C171.43 2.62434 171.43 3.06173 171.43 3.49912C171.65 3.71781 171.871 3.71781 171.871 3.93651C172.311 3.93651 172.531 3.93651 172.751 3.93651C173.191 4.1552 173.631 4.59259 173.851 5.24868C174.071 5.68607 173.631 6.12346 173.191 5.90476C172.971 5.90476 172.971 5.68607 172.751 5.68607C172.751 5.90476 172.751 5.90476 172.751 6.12346L178.252 9.18518C180.233 8.96649 181.994 8.7478 183.974 8.5291C184.194 8.31041 184.634 8.5291 185.074 8.7478C186.175 9.40388 187.055 10.9347 187.275 12.2469C187.275 12.4656 187.275 12.6843 187.275 12.903C187.275 13.1217 187.275 13.3404 187.275 13.5591C187.275 13.7778 187.055 13.9965 187.055 13.9965L186.835 14.2152L191.896 17.0582C191.896 16.6208 192.117 16.1834 192.557 16.4021C192.777 16.4021 192.997 16.6208 193.217 16.6208C193.217 16.6208 193.437 16.6208 193.437 16.4021C193.657 16.4021 193.657 16.4021 193.877 16.4021C193.657 15.9647 193.437 15.5273 193.437 15.3086C193.217 14.8713 193.657 14.4339 194.097 14.6526C194.537 14.8713 194.977 15.5273 194.977 15.9647C194.977 16.1834 194.977 16.6208 194.977 17.0582C195.197 17.2769 195.417 17.4956 195.638 17.7143C195.858 17.4956 196.298 17.4956 196.518 17.4956C196.958 17.7143 197.398 18.3704 197.618 18.8078C197.618 19.4638 197.398 19.6825 196.958 19.4638C196.958 19.4638 196.738 19.4638 196.518 19.2451C196.518 19.4638 196.518 19.4638 196.518 19.6825L204 24.0564V24.9312L197.178 28.8677L185.735 26.6808L184.194 25.806V31.4921L177.372 35.4286L176.712 34.9912L173.631 29.9612C171.21 32.5855 168.79 34.9912 166.149 37.1781C158.447 43.9577 150.084 50.0811 140.181 55.9859C140.401 55.7672 140.841 55.7672 141.061 55.5485C140.841 55.7672 140.621 55.7672 140.401 55.9859C140.841 55.7672 141.061 55.5485 141.282 55.5485C141.061 55.7672 140.621 55.7672 140.401 56.2046L67.7799 97.5379L70.2006 98.8501C70.2006 99.2875 68.6602 100.381 66.6796 101.474C64.699 102.568 63.1586 103.224 63.1586 103.005C63.1586 103.005 63.1586 103.005 63.1586 102.787L60.5178 101.256L24.8673 121.594C24.2071 122.032 23.1068 122.469 21.7864 122.907C20.466 123.344 18.7055 123.781 16.7249 123.781C15.4045 123.781 11.8835 123.781 8.14239 121.376C8.14239 121.376 8.14239 121.376 7.92232 121.157C7.26213 120.72 6.82199 120.501 6.38186 120.063C6.1618 119.845 5.72168 119.626 5.50162 119.189C5.28155 118.97 5.06148 118.751 4.84141 118.533C4.40128 118.095 4.18122 117.658 3.74109 117.22C3.74109 117.002 3.52103 117.002 3.30097 116.783C2.86084 116.346 2.64077 115.69 2.20064 115.034C2.20064 115.034 2.20064 115.034 2.20064 114.815C0.880256 112.409 -3.01164e-06 109.566 -3.01164e-06 106.723C-3.01164e-06 107.379 -3.01164e-06 107.379 -3.01164e-06 107.16ZM63.1586 102.568C62.9385 102.787 63.1586 102.787 63.1586 102.568C63.1586 102.787 63.1586 102.787 63.1586 102.568Z" fill="url(#paint20_linear_1_35649)"/>
<path d="M140.841 55.5485C141.942 54.8924 141.942 54.8924 140.841 55.5485V55.5485Z" fill="url(#paint21_linear_1_35649)"/>
</g>
<path d="M193.217 16.6208C193.657 16.4021 194.097 16.4021 194.757 16.8395C195.858 17.4956 196.738 18.8078 196.738 19.9012C193.657 21.6508 189.036 23.4004 187.935 22.7443C186.835 22.0882 190.136 18.3704 193.217 16.6208Z" fill="url(#paint22_linear_1_35649)"/>
<path d="M169.45 2.84299C169.89 2.6243 170.33 2.6243 170.77 3.06169C171.871 3.71777 172.751 5.02994 172.751 6.12341C169.67 7.87297 165.049 9.62253 163.948 8.96645C162.848 8.31036 166.369 4.59255 169.45 2.84299Z" fill="url(#paint23_linear_1_35649)"/>
<path d="M93.7476 31.2733C93.9676 31.9293 95.068 32.3667 96.1683 32.148C96.6084 32.148 96.8285 31.9293 97.0485 31.9293C97.4887 31.7107 97.7087 31.492 97.7087 31.0546V31.492C97.7087 31.7106 97.4887 32.148 97.0485 32.3667C96.8285 32.5854 96.3884 32.5854 96.1683 32.5854C95.068 32.8041 93.9676 32.3667 93.7476 31.7107C93.7476 31.492 93.7476 31.492 93.7476 31.2733V31.0546C93.7476 31.0546 93.7476 31.2733 93.7476 31.2733Z" fill="url(#paint24_linear_1_35649)"/>
<path d="M94.4078 30.1798C94.6278 29.9611 95.068 29.9611 95.288 29.9611C96.3883 29.7424 97.4887 30.1798 97.7087 30.8358C97.9288 31.2732 97.7087 31.7106 97.2686 31.9293C97.0485 32.148 96.6084 32.148 96.3883 32.148C95.288 32.3667 94.1877 31.9293 93.9676 31.2732C93.5275 30.8358 93.7476 30.3985 94.4078 30.1798Z" fill="#787677"/>
<path d="M97.4887 30.1798C97.4887 30.3985 97.4887 30.3985 97.4887 30.1798L97.2686 30.3985L97.4887 30.1798Z" fill="#77233D"/>
<path d="M96.1683 29.9612L97.0485 30.6173V30.3986L96.1683 29.9612Z" fill="#8F2A4A"/>
<path d="M96.1683 29.9611L97.0485 30.3985L97.2686 30.1798L96.6084 29.7424H96.3883L96.1683 29.9611Z" fill="#787677"/>
<path d="M87.5858 34.7725C87.8058 35.4286 88.9061 35.866 90.0065 35.6473C90.4466 35.6473 90.6667 35.4286 90.8867 35.4286C91.3269 35.2099 91.5469 34.9912 91.5469 34.5538V34.9912C91.5469 35.2099 91.3269 35.6473 90.8867 35.866C90.6667 36.0847 90.2265 36.0847 90.0065 36.0847C88.9061 36.3034 87.8058 35.866 87.5858 35.2099C87.5858 35.2099 87.5858 34.9912 87.5858 34.7725V34.5538V34.7725Z" fill="url(#paint25_linear_1_35649)"/>
<path d="M88.0259 33.679C88.246 33.4603 88.6861 33.4603 88.9062 33.4603C90.0065 33.2416 91.1068 33.679 91.3269 34.3351C91.5469 34.7725 91.3269 35.2099 90.8867 35.4286C90.6667 35.6473 90.2265 35.6473 90.0065 35.6473C88.9062 35.866 87.8058 35.4286 87.5858 34.7725C87.3657 34.3351 87.5858 33.8977 88.0259 33.679Z" fill="#787677"/>
<path d="M91.1068 33.8976C91.3269 33.8976 91.3269 33.6789 91.1068 33.8976C91.3269 33.8976 91.3269 33.8976 91.1068 33.8976L90.8867 34.1163L91.1068 33.8976Z" fill="#77233D"/>
<path d="M90.0065 33.4603V33.679L90.8867 34.1164V33.8977L90.0065 33.4603Z" fill="#8F2A4A"/>
<path d="M90.0065 33.4603L90.8867 33.8977L91.1068 33.679L90.4466 33.2416H90.2265L90.0065 33.4603Z" fill="#787677"/>
<path d="M104.531 22.0881C104.288 22.0881 104.091 21.9902 104.091 21.8695C104.091 21.7487 104.288 21.6508 104.531 21.6508C104.774 21.6508 104.971 21.7487 104.971 21.8695C104.971 21.9902 104.774 22.0881 104.531 22.0881Z" fill="#787677"/>
<path d="M104.091 21.8695V26.4621C104.091 26.4621 104.091 26.6808 104.311 26.6808C104.531 26.6808 104.751 26.6808 104.751 26.6808C104.751 26.6808 104.751 26.6808 104.971 26.4621V21.8695C104.971 21.8695 104.971 22.0882 104.751 22.0882C104.751 22.0882 104.531 22.0882 104.091 21.8695C104.311 22.0882 104.091 21.8695 104.091 21.8695Z" fill="url(#paint26_linear_1_35649)"/>
<path d="M84.0647 28.649C84.2848 28.649 84.5049 28.649 84.5049 28.649C84.7249 28.649 84.7249 28.4303 84.5049 28.4303C84.2848 28.4303 84.0647 28.4303 84.0647 28.4303V28.649Z" fill="#7E2F48"/>
<path d="M84.0647 28.4303V36.522C84.0647 36.522 84.0647 36.7407 84.2848 36.7407C84.5049 36.7407 84.7249 36.7407 84.7249 36.7407C84.7249 36.7407 84.7249 36.7407 84.945 36.522V28.4303C84.945 28.4303 84.945 28.649 84.7249 28.649C84.5049 28.649 84.2848 28.649 84.0647 28.4303C84.0647 28.649 84.0647 28.4303 84.0647 28.4303Z" fill="url(#paint27_linear_1_35649)"/>
<path d="M84.0647 27.9929C84.2848 28.2116 84.5049 28.2116 84.7249 27.9929C84.945 27.7742 84.945 27.7742 84.7249 27.5555C84.5049 27.3368 84.2848 27.3368 84.0647 27.5555C83.8447 27.5555 83.8447 27.7742 84.0647 27.9929Z" fill="#787677"/>
<path d="M83.8447 27.7742V28.8676C83.8447 28.8676 83.8447 29.0863 84.0647 29.0863C84.2848 29.305 84.5049 29.305 84.7249 29.0863L84.945 28.8676V27.7742C84.945 27.7742 84.945 27.9929 84.7249 27.9929C84.5049 27.9929 84.2848 27.9929 83.8447 27.7742C84.0647 27.7742 83.8447 27.7742 83.8447 27.7742Z" fill="url(#paint28_linear_1_35649)"/>
<path d="M86.7055 29.9612C86.4624 29.9612 86.2654 29.8633 86.2654 29.7425C86.2654 29.6217 86.4624 29.5238 86.7055 29.5238C86.9486 29.5238 87.1456 29.6217 87.1456 29.7425C87.1456 29.8633 86.9486 29.9612 86.7055 29.9612Z" fill="#7E2F48"/>
<path d="M86.2654 29.7426V37.8343C86.2654 37.8343 86.2654 38.053 86.4854 38.053C86.7055 38.053 86.9256 38.053 86.9256 38.053C86.9256 38.053 86.9256 38.053 87.1456 37.8343V29.7426C87.1456 29.7426 87.1456 29.9612 86.9256 29.9612C86.7055 29.9612 86.4854 29.9612 86.2654 29.7426C86.2654 29.9612 86.2654 29.7426 86.2654 29.7426Z" fill="url(#paint29_linear_1_35649)"/>
<path d="M86.7055 29.3051C86.4624 29.3051 86.2654 29.2072 86.2654 29.0864C86.2654 28.9656 86.4624 28.8677 86.7055 28.8677C86.9486 28.8677 87.1456 28.9656 87.1456 29.0864C87.1456 29.2072 86.9486 29.3051 86.7055 29.3051Z" fill="#787677"/>
<path d="M86.2654 29.0864V30.1799C86.2654 30.1799 86.2654 30.3986 86.4854 30.3986C86.7055 30.6173 86.9256 30.6173 87.1456 30.3986L87.3657 30.1799V29.0864C87.3657 29.0864 87.3657 29.3051 87.1456 29.3051C86.9256 29.3051 86.4854 29.3051 86.2654 29.0864Z" fill="url(#paint30_linear_1_35649)"/>
<path d="M100.129 27.1181C100.35 27.3368 101.01 27.3368 101.23 27.1181C101.45 26.8994 101.45 26.6807 101.23 26.462C101.01 26.2433 100.35 26.2433 100.129 26.462C99.6893 26.6807 99.6893 27.1181 100.129 27.1181Z" fill="#787677"/>
<path d="M99.9094 26.8994V28.649C99.9094 28.8677 99.9094 28.8677 100.129 29.0864C100.35 29.3051 101.01 29.3051 101.23 29.0864C101.45 29.0864 101.45 28.8677 101.45 28.649V26.8994C101.45 27.1181 101.45 27.1181 101.23 27.3368C101.01 27.5555 100.35 27.5555 100.129 27.3368C99.9094 27.1181 99.9094 26.8994 99.9094 26.8994Z" fill="url(#paint31_linear_1_35649)"/>
<path d="M92.4272 32.5854C92.6472 32.8041 92.8673 32.8041 92.8673 32.8041C92.8673 32.8041 92.8673 32.8041 92.8673 32.5854L93.0874 33.2415C93.0874 33.2415 93.0874 33.4602 92.8673 33.4602C92.6472 33.4602 92.4272 33.6789 92.2071 33.4602C91.9871 33.4602 91.987 33.2415 91.987 33.2415L92.4272 32.5854Z" fill="url(#paint32_linear_1_35649)"/>
<path d="M92.4272 32.5854C92.4272 32.5854 92.6472 32.5854 92.8673 32.5854V32.8041C92.8673 32.8041 92.6472 32.8041 92.4272 32.5854Z" fill="#787677"/>
<path d="M92.6472 18.1516C92.8673 18.1516 92.8673 18.1516 92.6472 18.1516C92.8673 18.1516 92.8673 18.1516 92.6472 18.1516L92.8673 32.5855C92.8673 32.5855 92.8673 32.5855 92.6472 32.5855V18.1516Z" fill="#323436"/>
<path d="M83.1845 36.9594C83.4045 37.1781 84.0647 37.1781 84.2848 36.9594C84.5048 36.7407 84.5048 36.522 84.2848 36.3033C84.0647 36.0846 83.4045 36.0846 83.1845 36.3033C82.9644 36.522 82.7443 36.7407 83.1845 36.9594Z" fill="#787677"/>
<path d="M82.9644 36.522V38.2715C82.9644 38.4902 82.9644 38.4902 83.1845 38.7089C83.4045 38.9276 84.0647 38.9276 84.2848 38.7089C84.5048 38.7089 84.5049 38.4902 84.5049 38.2715V36.522C84.5049 36.7407 84.5048 36.7407 84.2848 36.9594C84.0647 37.1781 83.4045 37.1781 83.1845 36.9594C82.9644 36.7407 82.9644 36.7407 82.9644 36.522Z" fill="url(#paint33_linear_1_35649)"/>
</g>
<defs>
<linearGradient id="paint0_linear_1_35649" x1="27.9306" y1="75.3691" x2="33.6808" y2="85.3915" gradientUnits="userSpaceOnUse">
<stop stop-color="#4E5958"/>
<stop offset="1" stop-color="#47504F"/>
</linearGradient>
<linearGradient id="paint1_linear_1_35649" x1="85.9941" y1="48.6168" x2="102.612" y2="77.5803" gradientUnits="userSpaceOnUse">
<stop stop-color="#4E5958"/>
<stop offset="0.6779" stop-color="#252928"/>
<stop offset="0.8707" stop-color="#282D2C"/>
<stop offset="1" stop-color="#2F3433"/>
</linearGradient>
<radialGradient id="paint2_radial_1_35649" cx="0" cy="0" r="1" gradientUnits="userSpaceOnUse" gradientTransform="translate(13.4944 97.5119) rotate(180) scale(33.3638 33.1561)">
<stop stop-color="#3E4544"/>
<stop offset="0.1254" stop-color="#333838"/>
<stop offset="0.4833" stop-color="#171A19"/>
<stop offset="0.7875" stop-color="#060707"/>
<stop offset="1"/>
</radialGradient>
<linearGradient id="paint3_linear_1_35649" x1="92.4991" y1="41.5571" x2="98.8033" y2="52.5448" gradientUnits="userSpaceOnUse">
<stop stop-color="#323938"/>
<stop offset="1" stop-color="#252928"/>
</linearGradient>
<linearGradient id="paint4_linear_1_35649" x1="90.1929" y1="38.8648" x2="105.04" y2="57.4493" gradientUnits="userSpaceOnUse">
<stop stop-color="#3E4544"/>
<stop offset="0.1254" stop-color="#333838"/>
<stop offset="0.4833" stop-color="#171A19"/>
<stop offset="0.7875" stop-color="#060707"/>
<stop offset="1"/>
</linearGradient>
<linearGradient id="paint5_linear_1_35649" x1="107.51" y1="38.7709" x2="82.403" y2="38.7709" gradientUnits="userSpaceOnUse">
<stop stop-color="#272D2C"/>
<stop offset="0.3654" stop-color="#262B2A"/>
<stop offset="0.7148" stop-color="#292E2D"/>
<stop offset="0.969" stop-color="#313736"/>
<stop offset="1" stop-color="#323938"/>
</linearGradient>
<linearGradient id="paint6_linear_1_35649" x1="93.1541" y1="30.0552" x2="95.5853" y2="34.2925" gradientUnits="userSpaceOnUse">
<stop stop-color="#47504F"/>
<stop offset="1" stop-color="#47504F"/>
</linearGradient>
<linearGradient id="paint7_linear_1_35649" x1="57.9303" y1="92.5817" x2="63.6805" y2="102.604" gradientUnits="userSpaceOnUse">
<stop stop-color="#47504F"/>
<stop offset="1" stop-color="#4E5958"/>
</linearGradient>
<linearGradient id="paint8_linear_1_35649" x1="190.653" y1="18.216" x2="192.652" y2="21.6994" gradientUnits="userSpaceOnUse">
<stop stop-color="#923351"/>
<stop offset="0.2993" stop-color="#AB2F56"/>
<stop offset="0.7478" stop-color="#923250"/>
<stop offset="1" stop-color="#A53659"/>
</linearGradient>
<linearGradient id="paint9_linear_1_35649" x1="166.726" y1="4.48736" x2="168.725" y2="7.97082" gradientUnits="userSpaceOnUse">
<stop stop-color="#803049"/>
<stop offset="0.2993" stop-color="#8A314D"/>
<stop offset="0.7478" stop-color="#973352"/>
<stop offset="1" stop-color="#A7375A"/>
</linearGradient>
<linearGradient id="paint10_linear_1_35649" x1="97.8377" y1="31.7786" x2="93.7025" y2="31.7786" gradientUnits="userSpaceOnUse">
<stop stop-color="#262B2A"/>
<stop offset="0.5506" stop-color="#292E2D"/>
<stop offset="0.9512" stop-color="#313736"/>
<stop offset="1" stop-color="#323938"/>
</linearGradient>
<linearGradient id="paint11_linear_1_35649" x1="91.6435" y1="35.3327" x2="87.5081" y2="35.3327" gradientUnits="userSpaceOnUse">
<stop stop-color="#262B2A"/>
<stop offset="0.5506" stop-color="#292E2D"/>
<stop offset="0.9512" stop-color="#313736"/>
<stop offset="1" stop-color="#323938"/>
</linearGradient>
<linearGradient id="paint12_linear_1_35649" x1="104.953" y1="24.2886" x2="104.197" y2="24.2886" gradientUnits="userSpaceOnUse">
<stop stop-color="#262B2A"/>
<stop offset="0.5506" stop-color="#292E2D"/>
<stop offset="0.9512" stop-color="#313736"/>
<stop offset="1" stop-color="#323938"/>
</linearGradient>
<linearGradient id="paint13_linear_1_35649" x1="84.8057" y1="32.6735" x2="84.0502" y2="32.6735" gradientUnits="userSpaceOnUse">
<stop stop-color="#262B2A"/>
<stop offset="0.5506" stop-color="#292E2D"/>
<stop offset="0.9512" stop-color="#313736"/>
<stop offset="1" stop-color="#323938"/>
</linearGradient>
<linearGradient id="paint14_linear_1_35649" x1="84.9329" y1="28.4024" x2="83.923" y2="28.4024" gradientUnits="userSpaceOnUse">
<stop stop-color="#262B2A"/>
<stop offset="0.5506" stop-color="#292E2D"/>
<stop offset="0.9512" stop-color="#313736"/>
<stop offset="1" stop-color="#323938"/>
</linearGradient>
<linearGradient id="paint15_linear_1_35649" x1="87.0657" y1="33.9703" x2="86.3103" y2="33.9703" gradientUnits="userSpaceOnUse">
<stop stop-color="#262B2A"/>
<stop offset="0.5506" stop-color="#292E2D"/>
<stop offset="0.9512" stop-color="#313736"/>
<stop offset="1" stop-color="#323938"/>
</linearGradient>
<linearGradient id="paint16_linear_1_35649" x1="87.1929" y1="29.6991" x2="86.1831" y2="29.6991" gradientUnits="userSpaceOnUse">
<stop stop-color="#262B2A"/>
<stop offset="0.5506" stop-color="#292E2D"/>
<stop offset="0.9512" stop-color="#313736"/>
<stop offset="1" stop-color="#323938"/>
</linearGradient>
<linearGradient id="paint17_linear_1_35649" x1="101.49" y1="27.9801" x2="99.8253" y2="27.9801" gradientUnits="userSpaceOnUse">
<stop stop-color="#262B2A"/>
<stop offset="0.5506" stop-color="#292E2D"/>
<stop offset="0.9512" stop-color="#313736"/>
<stop offset="1" stop-color="#323938"/>
</linearGradient>
<linearGradient id="paint18_linear_1_35649" x1="93.1519" y1="33.0555" x2="92.2058" y2="33.0555" gradientUnits="userSpaceOnUse">
<stop stop-color="#262B2A"/>
<stop offset="0.5506" stop-color="#292E2D"/>
<stop offset="0.9512" stop-color="#313736"/>
<stop offset="1" stop-color="#323938"/>
</linearGradient>
<linearGradient id="paint19_linear_1_35649" x1="84.5462" y1="37.7017" x2="82.8817" y2="37.7017" gradientUnits="userSpaceOnUse">
<stop stop-color="#262B2A"/>
<stop offset="0.5506" stop-color="#292E2D"/>
<stop offset="0.9512" stop-color="#313736"/>
<stop offset="1" stop-color="#323938"/>
</linearGradient>
<linearGradient id="paint20_linear_1_35649" x1="204" y1="62.0247" x2="-0.046435" y2="62.0247" gradientUnits="userSpaceOnUse">
<stop stop-color="#A6244C"/>
<stop offset="1" stop-color="#851C3D"/>
</linearGradient>
<linearGradient id="paint21_linear_1_35649" x1="141.709" y1="55.4011" x2="140.82" y2="55.4011" gradientUnits="userSpaceOnUse">
<stop stop-color="#C02B5A"/>
<stop offset="1" stop-color="#A8224C"/>
</linearGradient>
<linearGradient id="paint22_linear_1_35649" x1="190.653" y1="18.216" x2="192.652" y2="21.6994" gradientUnits="userSpaceOnUse">
<stop stop-color="#923351"/>
<stop offset="0.2993" stop-color="#AB2F56"/>
<stop offset="0.7478" stop-color="#923250"/>
<stop offset="1" stop-color="#A53659"/>
</linearGradient>
<linearGradient id="paint23_linear_1_35649" x1="166.726" y1="4.48736" x2="168.725" y2="7.97082" gradientUnits="userSpaceOnUse">
<stop stop-color="#803049"/>
<stop offset="0.2993" stop-color="#8A314D"/>
<stop offset="0.7478" stop-color="#973352"/>
<stop offset="1" stop-color="#A7375A"/>
</linearGradient>
<linearGradient id="paint24_linear_1_35649" x1="97.8377" y1="31.7784" x2="93.7025" y2="31.7784" gradientUnits="userSpaceOnUse">
<stop stop-color="#262B2A"/>
<stop offset="0.5506" stop-color="#292E2D"/>
<stop offset="0.9512" stop-color="#313736"/>
<stop offset="1" stop-color="#323938"/>
</linearGradient>
<linearGradient id="paint25_linear_1_35649" x1="91.6435" y1="35.3326" x2="87.5081" y2="35.3326" gradientUnits="userSpaceOnUse">
<stop stop-color="#262B2A"/>
<stop offset="0.5506" stop-color="#292E2D"/>
<stop offset="0.9512" stop-color="#313736"/>
<stop offset="1" stop-color="#323938"/>
</linearGradient>
<linearGradient id="paint26_linear_1_35649" x1="104.953" y1="24.2885" x2="104.197" y2="24.2885" gradientUnits="userSpaceOnUse">
<stop stop-color="#262B2A"/>
<stop offset="0.5506" stop-color="#292E2D"/>
<stop offset="0.9512" stop-color="#313736"/>
<stop offset="1" stop-color="#323938"/>
</linearGradient>
<linearGradient id="paint27_linear_1_35649" x1="84.8057" y1="32.6734" x2="84.0502" y2="32.6734" gradientUnits="userSpaceOnUse">
<stop stop-color="#262B2A"/>
<stop offset="0.5506" stop-color="#292E2D"/>
<stop offset="0.9512" stop-color="#313736"/>
<stop offset="1" stop-color="#323938"/>
</linearGradient>
<linearGradient id="paint28_linear_1_35649" x1="84.9329" y1="28.4023" x2="83.923" y2="28.4023" gradientUnits="userSpaceOnUse">
<stop stop-color="#262B2A"/>
<stop offset="0.5506" stop-color="#292E2D"/>
<stop offset="0.9512" stop-color="#313736"/>
<stop offset="1" stop-color="#323938"/>
</linearGradient>
<linearGradient id="paint29_linear_1_35649" x1="87.0657" y1="33.9701" x2="86.3103" y2="33.9701" gradientUnits="userSpaceOnUse">
<stop stop-color="#262B2A"/>
<stop offset="0.5506" stop-color="#292E2D"/>
<stop offset="0.9512" stop-color="#313736"/>
<stop offset="1" stop-color="#323938"/>
</linearGradient>
<linearGradient id="paint30_linear_1_35649" x1="87.1929" y1="29.699" x2="86.1831" y2="29.699" gradientUnits="userSpaceOnUse">
<stop stop-color="#262B2A"/>
<stop offset="0.5506" stop-color="#292E2D"/>
<stop offset="0.9512" stop-color="#313736"/>
<stop offset="1" stop-color="#323938"/>
</linearGradient>
<linearGradient id="paint31_linear_1_35649" x1="101.49" y1="27.98" x2="99.8253" y2="27.98" gradientUnits="userSpaceOnUse">
<stop stop-color="#262B2A"/>
<stop offset="0.5506" stop-color="#292E2D"/>
<stop offset="0.9512" stop-color="#313736"/>
<stop offset="1" stop-color="#323938"/>
</linearGradient>
<linearGradient id="paint32_linear_1_35649" x1="93.1519" y1="33.0554" x2="92.2058" y2="33.0554" gradientUnits="userSpaceOnUse">
<stop stop-color="#262B2A"/>
<stop offset="0.5506" stop-color="#292E2D"/>
<stop offset="0.9512" stop-color="#313736"/>
<stop offset="1" stop-color="#323938"/>
</linearGradient>
<linearGradient id="paint33_linear_1_35649" x1="84.5462" y1="37.7016" x2="82.8817" y2="37.7016" gradientUnits="userSpaceOnUse">
<stop stop-color="#262B2A"/>
<stop offset="0.5506" stop-color="#292E2D"/>
<stop offset="0.9512" stop-color="#313736"/>
<stop offset="1" stop-color="#323938"/>
</linearGradient>
<clipPath id="clip0_1_35649">
<rect width="204" height="124" fill="white" transform="matrix(-1 0 0 1 204 0)"/>
</clipPath>
</defs>
</svg>
