<svg width="105" height="73" viewBox="0 0 105 73" fill="none" xmlns="http://www.w3.org/2000/svg">
<g clip-path="url(#clip0_1_34075)">
<path d="M65.699 55.7043L16.359 27.2143L-0.000976562 16.2343L6.69902 27.3943C13.115 32.1231 19.7923 36.4866 26.699 40.4643L65.699 62.9643V62.8243V62.9843C76.299 69.1243 91.999 72.8443 99.509 72.8443L104.289 67.5843C102.289 68.6643 76.319 61.8243 65.699 55.7043Z" fill="#9AA0A4"/>
<path d="M83.649 45.2444C95.219 51.9743 106.049 66.3344 104.199 67.4144C102.349 68.4944 76.319 61.8243 65.679 55.6843L16.359 27.2143L-0.000976562 16.2344L15.309 7.33435L34.309 16.7644L83.649 45.2444Z" fill="#30333A"/>
<path opacity="0.7" d="M23.769 15.0344C22.2582 14.2339 20.5685 13.8312 18.859 13.8644C17.1462 13.83 15.453 14.2326 13.939 15.0344C13.3824 15.297 12.9047 15.7013 12.5536 16.2067C12.2026 16.7122 11.9907 17.3011 11.939 17.9144C11.9907 18.5276 12.2026 19.1165 12.5536 19.622C12.9047 20.1275 13.3824 20.5318 13.939 20.7944C15.452 21.5996 17.1454 22.0057 18.859 21.9744C20.5685 22.0075 22.2582 21.6049 23.769 20.8044C24.3362 20.5503 24.8253 20.1494 25.1856 19.6431C25.546 19.1368 25.7647 18.5435 25.819 17.9244C25.7664 17.3035 25.5486 16.7081 25.1881 16.1999C24.8276 15.6917 24.3376 15.2892 23.769 15.0344ZM23.709 20.6744C22.2189 21.4715 20.5485 21.871 18.859 21.8344C17.166 21.8741 15.4916 21.4745 13.999 20.6744C13.4492 20.4354 12.9736 20.0532 12.6218 19.5677C12.27 19.0823 12.0549 18.5113 11.999 17.9144C12.0549 17.3175 12.27 16.7465 12.6218 16.261C12.9736 15.7755 13.4492 15.3934 13.999 15.1544C15.4897 14.3473 17.1642 13.9408 18.859 13.9744C20.5485 13.9377 22.2189 14.3372 23.709 15.1344C24.2576 15.3751 24.7321 15.7578 25.0837 16.2429C25.4352 16.728 25.6511 17.2981 25.709 17.8944C25.6545 18.4942 25.4402 19.0684 25.0885 19.5574C24.7367 20.0463 24.2604 20.432 23.709 20.6744ZM20.059 17.8844L18.739 18.6544L20.479 19.6544L19.299 20.3344L14.689 17.6644L15.859 16.9744L17.609 17.9744L18.939 17.2044L17.189 16.2044L18.359 15.5244L22.999 18.2144L21.819 18.8844L20.059 17.8844Z" fill="#FFFFFD"/>
<path d="M30.069 33.6244L16.349 25.7044L1.34902 15.6344L15.349 7.51437L34.239 16.8844L42.239 21.4844L43.239 20.4844L34.289 15.3144L15.329 5.97437L0.209023 14.7344V14.8644L-0.000976562 14.7244V16.2944L16.339 27.2944L29.069 34.6444L30.069 33.6244Z" fill="#9AA0A4"/>
<path d="M30.219 33.4644L16.509 25.5444L0.409023 14.7344L15.409 6.04437L34.189 15.4144L43.119 20.5644L43.269 20.4144L34.349 15.2544L15.349 5.82437L-0.000976562 14.7244L16.349 25.7244L30.069 33.6444L30.219 33.4644Z" fill="#EDEEF0"/>
<path d="M75.339 32.0244L79.999 43.0644L75.319 50.8944L71.619 38.9144L75.339 32.0244Z" fill="#B9BFC2"/>
<path d="M71.619 38.9144L75.319 50.8944L61.949 53.5644L59.749 41.0944L71.619 38.9144Z" fill="#ACB2B4"/>
<path d="M59.749 41.0944L61.949 53.5644L19.379 28.9844L23.299 20.0544L59.749 41.0944Z" fill="#9AA0A4"/>
<path d="M75.339 32.0244L71.619 38.9144L59.749 41.0944L23.299 20.0544L38.889 10.9844L75.339 32.0244Z" fill="#EDEEF0"/>
<path d="M23.7191 20.0544L38.8991 11.2244L75.0391 32.0944L71.4891 38.7244L59.7791 40.8744L23.7191 20.0544Z" fill="#30333A"/>
<path d="M30.239 23.1844H30.169V23.9744H30.259V23.2544L30.239 23.1844Z" fill="#5F5F60"/>
<path d="M28.589 22.2344H28.519V22.9744H28.599V22.2644L28.589 22.2344Z" fill="#5F5F60"/>
<path d="M26.939 21.2744H26.859V21.9744H26.949V21.2544L26.939 21.2744Z" fill="#5F5F60"/>
<path d="M25.279 20.3244H25.209V21.0344H25.299V20.3244H25.279Z" fill="#5F5F60"/>
<path d="M23.629 19.3744H23.559V20.0944H23.639V19.3744C23.639 19.3744 23.639 19.3744 23.629 19.3744Z" fill="#5F5F60"/>
<path d="M45.699 14.2644H45.629V14.9744H45.709V14.2444L45.699 14.2644Z" fill="#5F5F60"/>
<path d="M43.999 13.3144H43.929V14.0344H44.019V13.3144H43.999Z" fill="#5F5F60"/>
<path d="M42.389 12.3544H42.319V13.0644H42.399V12.3344L42.389 12.3544Z" fill="#5F5F60"/>
<path d="M40.739 11.4044H40.669V12.1244H40.749V11.4044H40.739Z" fill="#5F5F60"/>
<path d="M39.089 10.4444H39.019V11.1644H39.099V10.4444H39.089Z" fill="#5F5F60"/>
<path d="M24.689 18.5944H24.759V19.3144H24.679V18.5944C24.679 18.5944 24.679 18.5944 24.689 18.5944Z" fill="#5F5F60"/>
<path d="M26.339 17.6344H26.409V18.3444H26.329V17.6144L26.339 17.6344Z" fill="#5F5F60"/>
<path d="M27.999 16.6844H28.069V17.4044H27.979V16.6844H27.999Z" fill="#5F5F60"/>
<path d="M29.649 15.7244H29.719V16.4344H29.639V15.6944L29.649 15.7244Z" fill="#5F5F60"/>
<path d="M31.299 14.7744H31.369V15.4844H31.289V14.7744H31.299Z" fill="#5F5F60"/>
<path d="M32.999 13.8244H33.069V14.5444H32.989V13.8244H32.999Z" fill="#5F5F60"/>
<path d="M34.599 12.8744H34.669V13.5944H34.579V12.8744H34.599Z" fill="#5F5F60"/>
<path d="M36.249 11.9144H36.319V12.6344H36.229V11.9744L36.249 11.9144Z" fill="#5F5F60"/>
<path d="M37.899 10.9744H37.999V11.6844H37.909V10.9744H37.899Z" fill="#5F5F60"/>
<path d="M31.469 24.0544L23.469 19.4444C23.4606 19.4218 23.4606 19.3969 23.469 19.3744C23.4637 19.3634 23.4609 19.3515 23.4609 19.3394C23.4609 19.3272 23.4637 19.3153 23.469 19.3044L38.979 10.3044H38.999L45.789 14.2244C45.7973 14.2309 45.804 14.2393 45.8087 14.2488C45.8133 14.2583 45.8157 14.2688 45.8157 14.2794C45.8157 14.2899 45.8133 14.3004 45.8087 14.3099C45.804 14.3194 45.7973 14.3278 45.789 14.3344C45.7741 14.3484 45.7545 14.3563 45.734 14.3563C45.7135 14.3563 45.6939 14.3484 45.679 14.3344L38.999 10.5044L23.619 19.3644L31.509 23.9044C31.5231 23.9192 31.5309 23.9389 31.5309 23.9594C31.5309 23.9798 31.5231 23.9995 31.509 24.0144C31.501 24.0321 31.4868 24.0463 31.469 24.0544Z" fill="#5F5F60"/>
<path d="M46.569 12.6844L31.879 21.2244L55.499 34.8644L66.679 32.8044L70.189 26.3144L46.569 12.6844Z" fill="#EDEEF0"/>
<path d="M32.299 21.2244L46.569 12.9244L69.909 26.3944L66.549 32.6144L55.539 34.6444L32.299 21.2244Z" fill="#30333A"/>
<path d="M71.679 29.9044L70.189 26.3144L66.679 32.8044L67.879 36.9344L71.679 29.9044Z" fill="#B9BFC2"/>
<path d="M67.879 36.9444L66.679 32.8044L55.499 34.8644L56.249 39.0844L67.879 36.9444Z" fill="#ACB2B4"/>
<path d="M56.259 39.1344L55.499 34.8644L31.879 21.2244L30.539 24.2844L56.259 39.1344Z" fill="#9AA0A4"/>
<path d="M104.329 65.9743V65.5743C104.329 64.4543 102.479 61.2544 98.849 57.0144C96.619 54.4044 90.659 47.8943 83.529 43.7743L79.079 41.3344L79.859 43.2243L83.529 45.3443C90.659 49.4743 96.609 55.9743 98.849 58.5943C100.924 60.8502 102.674 63.3846 104.049 66.1244C100.909 66.7844 76.049 60.1244 65.669 54.1244L61.369 51.6443L60.369 52.6443L65.659 55.6944C76.289 61.8344 102.349 68.6943 104.259 67.5643C104.333 67.5148 104.392 67.4455 104.43 67.3642C104.467 67.283 104.48 67.193 104.469 67.1043V65.5944C104.473 65.7344 104.423 65.8706 104.329 65.9743Z" fill="#9AA0A4"/>
<path d="M83.639 43.7344L79.189 41.1644L79.079 41.3544L83.479 43.8844C90.559 47.9744 96.479 54.4844 98.769 57.0944C102.549 61.5144 104.369 64.7744 104.209 65.7144C104.207 65.7501 104.198 65.7849 104.18 65.8162C104.163 65.8474 104.139 65.8742 104.109 65.8944C103.914 65.9659 103.706 65.9933 103.499 65.9744C101.669 65.9744 96.279 64.9744 88.339 62.6544C78.839 59.9044 70.429 56.6544 65.829 54.0244L61.999 51.7844L61.679 51.8544L65.679 54.1744C76.309 60.3144 102.369 67.1744 104.279 66.0544C106.189 64.9344 95.199 50.4144 83.639 43.7344Z" fill="#EDEEF0"/>
<path d="M91.679 57.1244C93.519 57.4044 94.619 58.5044 94.119 59.5644C93.619 60.6244 91.739 61.2544 89.889 60.9744C88.039 60.6944 86.999 59.5944 87.449 58.5344C87.899 57.4744 89.839 56.8344 91.679 57.1244Z" fill="#EDEEF0"/>
<path d="M91.829 57.9743C91.51 58.1368 91.157 58.2215 90.799 58.2215C90.441 58.2215 90.088 58.1368 89.769 57.9743C89.6497 57.9199 89.547 57.8347 89.4715 57.7275C89.3959 57.6203 89.3502 57.495 89.339 57.3643V58.8544C89.3488 58.9842 89.394 59.1088 89.4699 59.2146C89.5457 59.3204 89.6492 59.4034 89.769 59.4543C90.088 59.6168 90.441 59.7015 90.799 59.7015C91.157 59.7015 91.51 59.6168 91.829 59.4543C91.9474 59.4042 92.0499 59.3228 92.1256 59.2189C92.2014 59.1149 92.2475 58.9924 92.259 58.8643V57.3744C92.2471 57.5036 92.201 57.6272 92.1254 57.7327C92.0498 57.8382 91.9475 57.9216 91.829 57.9743Z" fill="#84898C"/>
<path d="M91.819 56.7744C91.5 56.6119 91.147 56.5272 90.789 56.5272C90.431 56.5272 90.0781 56.6119 89.759 56.7744C89.6319 56.8151 89.5209 56.8951 89.4422 57.0029C89.3635 57.1108 89.3211 57.2408 89.3211 57.3744C89.3211 57.5079 89.3635 57.6379 89.4422 57.7458C89.5209 57.8536 89.6319 57.9336 89.759 57.9744C90.0781 58.1368 90.431 58.2215 90.789 58.2215C91.147 58.2215 91.5 58.1368 91.819 57.9744C91.9462 57.9336 92.0571 57.8536 92.1358 57.7458C92.2145 57.6379 92.2569 57.5079 92.2569 57.3744C92.2569 57.2408 92.2145 57.1108 92.1358 57.0029C92.0571 56.8951 91.9462 56.8151 91.819 56.7744Z" fill="#EDEEF0"/>
<path d="M91.749 54.4844C91.6188 54.3915 91.4682 54.3312 91.3098 54.3086C91.1515 54.286 90.99 54.3017 90.839 54.3544C90.9792 54.316 91.1261 54.3086 91.2694 54.3328C91.4128 54.357 91.5491 54.4121 91.669 54.4944C92.0528 54.7351 92.3736 55.0639 92.6049 55.4535C92.8362 55.8431 92.9713 56.2822 92.999 56.7344V58.4344C93.0166 58.4179 93.0302 58.3976 93.0389 58.3751C93.0475 58.3526 93.051 58.3284 93.049 58.3044V56.6644C93.0267 56.2225 92.8966 55.7928 92.67 55.4128C92.4434 55.0327 92.1272 54.714 91.749 54.4844Z" fill="#D9DBDD"/>
<path d="M92.739 55.7644C92.6118 55.478 92.4433 55.2119 92.239 54.9744C92.0766 54.7842 91.8841 54.622 91.669 54.4944C91.5362 54.3977 91.3798 54.3383 91.2163 54.3225C91.0528 54.3067 90.8879 54.335 90.739 54.4044L89.059 55.4044C89.2079 55.335 89.3728 55.3067 89.5363 55.3225C89.6998 55.3383 89.8562 55.3977 89.989 55.4944C90.1996 55.6283 90.3913 55.7897 90.559 55.9744C90.7635 56.2155 90.9319 56.4849 91.059 56.7744C91.2062 57.087 91.2814 57.4288 91.279 57.7744V59.4644L92.959 58.4644V56.7644C92.9555 56.4194 92.8806 56.0789 92.739 55.7644Z" fill="url(#paint0_linear_1_34075)"/>
<g style="mix-blend-mode:screen" opacity="0.5">
<path d="M92.239 54.9744L90.559 55.9744C90.7635 56.2155 90.9319 56.4849 91.059 56.7744L92.739 55.7744C92.6127 55.4845 92.4442 55.215 92.239 54.9744Z" fill="#DEDDDD"/>
</g>
<path d="M89.999 55.4644C89.8662 55.3677 89.7098 55.3083 89.5463 55.2925C89.3827 55.2767 89.2179 55.305 89.069 55.3744C88.549 55.7044 88.639 56.2044 88.639 57.8544V57.9744L91.159 59.4244C91.099 59.4244 91.229 59.4844 91.289 59.4244V57.7144C91.2681 57.2638 91.1402 56.8248 90.9158 56.4335C90.6915 56.0422 90.3772 55.71 89.999 55.4644Z" fill="#9AA0A4"/>
<path d="M91.939 57.3344V58.1544L92.439 57.8644V57.0444C92.4323 56.6987 92.354 56.3582 92.209 56.0444C92.0818 55.7581 91.9134 55.4919 91.709 55.2544C91.5578 55.0806 91.3827 54.9291 91.189 54.8044L90.689 55.1044C90.8794 55.2257 91.0511 55.3739 91.199 55.5444C91.4078 55.7842 91.5797 56.0539 91.709 56.3444C91.8532 56.655 91.9315 56.992 91.939 57.3344Z" fill="#84898C"/>
<path d="M93.479 56.8043C93.4583 56.753 93.4559 56.6961 93.4723 56.6433C93.4887 56.5905 93.5229 56.5449 93.569 56.5143H93.639H92.089H92.029C91.9829 56.5449 91.9488 56.5905 91.9324 56.6433C91.916 56.6961 91.9183 56.753 91.939 56.8043C91.9492 56.8398 91.97 56.8713 91.9986 56.8945C92.0272 56.9178 92.0623 56.9317 92.099 56.9343H93.639C93.6027 56.9304 93.5683 56.916 93.5399 56.8929C93.5115 56.8699 93.4904 56.8391 93.479 56.8043Z" fill="#CBCED0"/>
<path d="M93.569 56.5143C93.591 56.503 93.6152 56.497 93.6399 56.4966C93.6646 56.4962 93.6891 56.5016 93.7113 56.5122C93.7336 56.5229 93.7531 56.5386 93.7683 56.558C93.7835 56.5775 93.7941 56.6002 93.799 56.6243C93.8198 56.6757 93.8221 56.7325 93.8057 56.7854C93.7893 56.8382 93.7552 56.8838 93.709 56.9143C93.6871 56.9257 93.6628 56.9317 93.6381 56.9321C93.6134 56.9325 93.589 56.9271 93.5667 56.9165C93.5444 56.9058 93.5249 56.8901 93.5097 56.8707C93.4945 56.8512 93.484 56.8285 93.479 56.8044C93.4583 56.753 93.4559 56.6962 93.4723 56.6433C93.4887 56.5905 93.5229 56.5449 93.569 56.5143Z" fill="#E1E7E9"/>
<path d="M96.429 56.7643C96.4149 56.7251 96.4141 56.6823 96.4268 56.6425C96.4394 56.6027 96.4648 56.5682 96.499 56.5443H93.609C93.5734 56.567 93.5469 56.6014 93.5341 56.6416C93.5213 56.6819 93.5231 56.7253 93.539 56.7643C93.5473 56.7899 93.5632 56.8123 93.5847 56.8284C93.6062 56.8445 93.6322 56.8536 93.659 56.8543H96.549C96.5225 56.8523 96.4972 56.8427 96.476 56.8268C96.4547 56.8108 96.4384 56.7892 96.429 56.7643Z" fill="#CBCED0"/>
<path d="M96.669 56.6344C96.6662 56.6159 96.659 56.5984 96.6482 56.5831C96.6374 56.5679 96.6231 56.5555 96.6066 56.5467C96.5901 56.538 96.5718 56.5332 96.5531 56.5328C96.5344 56.5324 96.5159 56.5363 96.499 56.5444C96.4648 56.5682 96.4394 56.6027 96.4268 56.6425C96.4141 56.6823 96.4149 56.7251 96.429 56.7644C96.429 56.8444 96.529 56.8844 96.599 56.8444C96.6339 56.8235 96.6601 56.7908 96.6729 56.7523C96.6857 56.7138 96.6844 56.6719 96.669 56.6344Z" fill="#E1E7E9"/>
<path d="M96.629 56.6543C96.6257 56.6421 96.6198 56.6308 96.6118 56.621C96.6038 56.6112 96.5938 56.6032 96.5825 56.5975C96.5711 56.5919 96.5587 56.5886 96.5461 56.5881C96.5334 56.5876 96.5208 56.5897 96.509 56.5943C96.4936 56.6163 96.4852 56.6425 96.4852 56.6693C96.4852 56.6962 96.4936 56.7224 96.509 56.7443C96.509 56.7443 96.579 56.8243 96.619 56.7443C96.627 56.7309 96.632 56.7159 96.6337 56.7004C96.6355 56.6849 96.6339 56.6692 96.629 56.6543Z" fill="#84898C"/>
<g style="mix-blend-mode:multiply" opacity="0.4">
<path d="M90.999 59.0244L88.939 57.8244V56.4144C88.939 55.9444 89.179 55.6344 89.559 55.6344C89.7292 55.6427 89.8944 55.6943 90.039 55.7844C90.3351 55.9898 90.5795 56.261 90.753 56.5768C90.9265 56.8926 91.0244 57.2443 91.039 57.6044V58.9744L90.999 59.0244ZM88.999 57.7644L90.999 58.9144V57.6044C90.9823 57.2558 90.8829 56.9162 90.709 56.6137C90.5351 56.3112 90.2918 56.0543 89.999 55.8644C89.8665 55.7815 89.7151 55.7333 89.559 55.7244C89.229 55.7244 89.029 55.9844 89.029 56.4144L88.999 57.7644Z" fill="#9AA0A4"/>
</g>
<path d="M71.479 41.1044L61.139 42.9744L61.499 45.0244L72.029 43.0744L71.479 41.1044Z" fill="#30333A"/>
<path d="M75.839 34.6144L72.789 40.2544L73.369 42.1144L76.539 36.2544L75.839 34.6144Z" fill="#30333A"/>
<path d="M59.329 50.8444L37.629 38.3144L39.229 34.0044L58.199 44.9544L59.329 50.8444Z" fill="#30333A"/>
<path d="M42.139 35.6844L39.229 34.0044L37.649 38.2744L42.139 35.6844Z" fill="#868B8E"/>
<path d="M64.8591 30.9144C64.6222 31.0355 64.36 31.0986 64.0941 31.0986C63.8281 31.0986 63.5659 31.0355 63.3291 30.9144C63.2434 30.8758 63.17 30.8143 63.1171 30.7366C63.0641 30.659 63.0337 30.5682 63.0291 30.4744V31.1644C63.0384 31.2569 63.072 31.3454 63.1264 31.4209C63.1809 31.4964 63.2542 31.5562 63.3391 31.5944C63.5741 31.7154 63.8347 31.7786 64.0991 31.7786C64.3634 31.7786 64.624 31.7154 64.8591 31.5944C64.9505 31.5575 65.0298 31.4958 65.0881 31.4163C65.1464 31.3368 65.1813 31.2426 65.1891 31.1444V30.4744C65.1785 30.5705 65.1423 30.6621 65.0843 30.7395C65.0262 30.8169 64.9484 30.8773 64.8591 30.9144Z" fill="url(#paint1_linear_1_34075)"/>
<path d="M64.879 30.0344C64.6422 29.9133 64.38 29.8501 64.114 29.8501C63.848 29.8501 63.5858 29.9133 63.349 30.0344C62.919 30.2744 62.909 30.6744 63.349 30.9244C63.5858 31.0455 63.848 31.1087 64.114 31.1087C64.38 31.1087 64.6422 31.0455 64.879 30.9244C64.972 30.8928 65.0527 30.8329 65.1099 30.7531C65.167 30.6733 65.1978 30.5776 65.1978 30.4794C65.1978 30.3812 65.167 30.2855 65.1099 30.2057C65.0527 30.1259 64.972 30.066 64.879 30.0344Z" fill="#C4C4C4"/>
<path d="M64.6791 29.1344C64.5169 29.0371 64.3322 28.9836 64.1431 28.9793C63.9541 28.9749 63.7671 29.0199 63.6007 29.1096C63.4342 29.1994 63.294 29.331 63.1938 29.4913C63.0936 29.6517 63.0368 29.8354 63.0291 30.0244V30.3044C63.0377 30.3971 63.0698 30.4861 63.1222 30.5631C63.1747 30.6401 63.2459 30.7024 63.3291 30.7444C63.5659 30.8655 63.8281 30.9287 64.0941 30.9287C64.36 30.9287 64.6222 30.8655 64.8591 30.7444C64.9466 30.7059 65.0223 30.6449 65.0785 30.5676C65.1347 30.4903 65.1694 30.3995 65.1791 30.3044V30.0144C65.1757 29.8376 65.1282 29.6645 65.0409 29.5108C64.9535 29.3571 64.8292 29.2277 64.6791 29.1344Z" fill="url(#paint2_radial_1_34075)"/>
<path d="M64.169 29.2544C64.1505 29.264 64.1299 29.269 64.109 29.269C64.0881 29.269 64.0675 29.264 64.049 29.2544C64.049 29.2544 64.049 29.2044 64.049 29.1844C64.0675 29.1747 64.0881 29.1697 64.109 29.1697C64.1299 29.1697 64.1505 29.1747 64.169 29.1844C64.169 29.1844 64.199 29.2344 64.169 29.2544Z" fill="#DCDCDC"/>
<path d="M42.719 18.1344C42.4822 18.2555 42.22 18.3186 41.954 18.3186C41.688 18.3186 41.4259 18.2555 41.189 18.1344C41.1047 18.094 41.0325 18.0321 40.9798 17.9548C40.9271 17.8775 40.8958 17.7876 40.889 17.6944V18.3844C40.8975 18.4759 40.9295 18.5637 40.9821 18.6391C41.0347 18.7144 41.106 18.7749 41.189 18.8144C41.4259 18.9355 41.688 18.9986 41.954 18.9986C42.22 18.9986 42.4822 18.9355 42.719 18.8144C42.8105 18.7775 42.8898 18.7158 42.9481 18.6363C43.0064 18.5568 43.0413 18.4626 43.049 18.3644V17.6844C43.0413 17.7826 43.0064 17.8768 42.9481 17.9563C42.8898 18.0358 42.8105 18.0975 42.719 18.1344Z" fill="url(#paint3_linear_1_34075)"/>
<path d="M42.739 17.2544C42.504 17.1333 42.2434 17.0702 41.979 17.0702C41.7146 17.0702 41.4541 17.1333 41.219 17.2544C40.789 17.4944 40.779 17.8944 41.219 18.1444C41.4558 18.2655 41.718 18.3286 41.984 18.3286C42.25 18.3286 42.5122 18.2655 42.749 18.1444C43.149 17.8944 43.159 17.5044 42.739 17.2544Z" fill="#C4C4C4"/>
<path d="M42.539 16.3544C42.3769 16.2571 42.1922 16.2036 42.0031 16.1993C41.8141 16.1949 41.6271 16.2399 41.4607 16.3296C41.2942 16.4194 41.154 16.551 41.0538 16.7113C40.9535 16.8717 40.8968 17.0554 40.889 17.2444V17.5244C40.8977 17.6171 40.9298 17.7061 40.9822 17.7831C41.0347 17.8601 41.1059 17.9224 41.189 17.9644C41.4268 18.0824 41.6886 18.1439 41.954 18.1439C42.2195 18.1439 42.4813 18.0824 42.719 17.9644C42.809 17.9282 42.8874 17.8681 42.9456 17.7905C43.0038 17.7129 43.0396 17.6209 43.049 17.5244V17.2344C43.0505 17.0555 43.004 16.8795 42.9143 16.7247C42.8246 16.5699 42.695 16.442 42.539 16.3544Z" fill="url(#paint4_radial_1_34075)"/>
<path d="M98.099 67.3443C98.499 67.4143 98.799 67.6844 98.749 67.9544C98.699 68.2244 98.339 68.3743 97.929 68.3043C97.519 68.2343 97.229 67.9543 97.279 67.6943C97.329 67.4343 97.689 67.2743 98.099 67.3443Z" fill="#30333A"/>
<path d="M95.379 62.6644V63.1344C95.3837 63.1507 95.3837 63.168 95.379 63.1844C95.379 63.2744 95.179 63.3244 95.019 63.3044H94.889C94.8642 63.295 94.8425 63.2787 94.8266 63.2574C94.8106 63.2362 94.8011 63.2108 94.799 63.1844V62.7144C94.8022 62.7405 94.8121 62.7654 94.8279 62.7864C94.8437 62.8075 94.8648 62.824 94.889 62.8344C94.9321 62.8415 94.976 62.8415 95.019 62.8344C95.0841 62.8524 95.1532 62.8506 95.2173 62.8293C95.2814 62.8079 95.3377 62.7679 95.379 62.7144V62.6644Z" fill="url(#paint5_linear_1_34075)"/>
<path d="M95.299 62.5444C95.369 62.5444 95.399 62.6444 95.369 62.7044C95.3277 62.7579 95.2714 62.7979 95.2073 62.8193C95.1432 62.8406 95.0742 62.8424 95.009 62.8244C94.966 62.8315 94.9221 62.8315 94.879 62.8244C94.809 62.8244 94.769 62.7144 94.799 62.6544C94.829 62.5944 95.009 62.5144 95.159 62.5344C95.2059 62.5305 95.2531 62.5339 95.299 62.5444Z" fill="#E1E7E9"/>
<path d="M95.529 62.4944V62.6744C95.5339 62.6974 95.5339 62.7213 95.529 62.7444C95.4724 62.8299 95.3922 62.8971 95.2981 62.9379C95.204 62.9787 95.1001 62.9914 94.999 62.9744C94.9273 62.9694 94.8582 62.9452 94.799 62.9044C94.7627 62.8895 94.7313 62.8648 94.7083 62.8329C94.6853 62.8011 94.6717 62.7635 94.669 62.7244V62.5444C94.6737 62.5829 94.6881 62.6196 94.7108 62.6511C94.7336 62.6826 94.7639 62.7078 94.799 62.7244C94.8602 62.7612 94.9282 62.785 94.999 62.7944C95.0983 62.8196 95.2028 62.8161 95.3002 62.7843C95.3975 62.7524 95.4839 62.6935 95.549 62.6144C95.5531 62.5912 95.5531 62.5675 95.549 62.5444L95.529 62.4944Z" fill="url(#paint6_linear_1_34075)"/>
<path d="M95.399 62.3044C95.509 62.3744 95.559 62.4644 95.519 62.5644C95.4539 62.6435 95.3676 62.7024 95.2702 62.7343C95.1728 62.7661 95.0683 62.7696 94.969 62.7444C94.8983 62.735 94.8302 62.7112 94.769 62.6744C94.7206 62.6563 94.681 62.6201 94.6587 62.5735C94.6363 62.5269 94.6328 62.4735 94.649 62.4244C94.7134 62.3443 94.7996 62.2846 94.8973 62.2527C94.9949 62.2207 95.0998 62.2178 95.199 62.2444C95.2691 62.2506 95.3371 62.271 95.399 62.3044Z" fill="#E1E7E9"/>
<path d="M95.299 62.0244C95.3148 62.0309 95.3291 62.0405 95.3411 62.0526C95.3532 62.0647 95.3627 62.0791 95.3692 62.0949C95.3757 62.1107 95.379 62.1276 95.379 62.1446C95.379 62.1617 95.3756 62.1786 95.369 62.1944C95.369 62.2844 95.169 62.3344 95.009 62.3144C94.9618 62.3104 94.9167 62.293 94.879 62.2644C94.809 62.2644 94.769 62.1644 94.799 62.1044C94.8411 62.0519 94.8975 62.0126 94.9613 61.9913C95.0252 61.9701 95.0938 61.9676 95.159 61.9844L95.299 62.0244Z" fill="#E1E7E9"/>
<path d="M95.529 62.0544V62.2344C95.5332 62.2575 95.5332 62.2812 95.529 62.3044C95.4632 62.3825 95.3768 62.4408 95.2796 62.4726C95.1825 62.5044 95.0784 62.5084 94.979 62.4844C94.9083 62.475 94.8402 62.4512 94.779 62.4144C94.7439 62.3978 94.7136 62.3726 94.6909 62.3411C94.6682 62.3096 94.6538 62.2729 94.649 62.2344V62.0444C94.6531 62.0844 94.6671 62.1228 94.6898 62.156C94.7125 62.1892 94.7432 62.2161 94.779 62.2344C94.8422 62.2668 94.9095 62.2904 94.979 62.3044C95.219 62.3044 95.469 62.3044 95.529 62.1144C95.5337 62.0946 95.5337 62.0741 95.529 62.0544Z" fill="url(#paint7_linear_1_34075)"/>
<path d="M95.399 61.8644C95.509 61.9344 95.559 62.0244 95.519 62.1144C95.479 62.2044 95.209 62.3344 94.969 62.3044C94.8995 62.2904 94.8322 62.2668 94.769 62.2344C94.7206 62.2163 94.681 62.1801 94.6587 62.1335C94.6363 62.0869 94.6328 62.0335 94.649 61.9844C94.7138 61.9044 94.7996 61.8442 94.8968 61.8107C94.9941 61.7771 95.0988 61.7714 95.199 61.7944C95.2686 61.8084 95.3359 61.8319 95.399 61.8644Z" fill="#E1E7E9"/>
<path d="M97.859 61.2344V61.7044C97.859 61.7044 97.659 61.8544 97.499 61.8344H97.369C97.3442 61.825 97.3225 61.8087 97.3066 61.7874C97.2906 61.7662 97.2811 61.7409 97.279 61.7144V61.2444C97.2821 61.2705 97.2921 61.2954 97.3079 61.3164C97.3237 61.3375 97.3448 61.354 97.369 61.3644C97.412 61.3715 97.4559 61.3715 97.499 61.3644C97.5641 61.3824 97.6332 61.3806 97.6973 61.3593C97.7614 61.3379 97.8177 61.2979 97.859 61.2444V61.2344Z" fill="url(#paint8_linear_1_34075)"/>
<path d="M97.779 61.1144C97.849 61.1144 97.879 61.2144 97.849 61.2744C97.8077 61.3279 97.7514 61.3679 97.6873 61.3893C97.6232 61.4106 97.5541 61.4124 97.489 61.3944C97.446 61.4014 97.402 61.4014 97.359 61.3944C97.289 61.3944 97.249 61.2844 97.279 61.2244C97.309 61.1644 97.479 61.0844 97.639 61.1044C97.6859 61.0979 97.7335 61.1013 97.779 61.1144Z" fill="#E1E7E9"/>
<path d="M97.999 61.0644V61.2444C98.0031 61.2675 98.0031 61.2912 97.999 61.3144C97.9347 61.3944 97.8484 61.4541 97.7508 61.4861C97.6531 61.518 97.5483 61.5209 97.449 61.4944C97.3782 61.485 97.3102 61.4612 97.249 61.4244C97.2139 61.4078 97.1836 61.3826 97.1609 61.3511C97.1381 61.3196 97.1237 61.2829 97.119 61.2444V61.0644C97.1237 61.1029 97.1381 61.1396 97.1609 61.1711C97.1836 61.2026 97.2139 61.2278 97.249 61.2444C97.3102 61.2812 97.3782 61.305 97.449 61.3144C97.5493 61.3385 97.6543 61.3335 97.7518 61.2998C97.8493 61.2661 97.935 61.2052 97.999 61.1244C98.0037 61.1046 98.0037 61.0841 97.999 61.0644Z" fill="url(#paint9_linear_1_34075)"/>
<path d="M97.879 60.8744C97.989 60.9444 98.039 61.0344 97.999 61.1244C97.9351 61.2053 97.8493 61.2661 97.7518 61.2998C97.6543 61.3335 97.5493 61.3385 97.449 61.3144C97.3783 61.305 97.3102 61.2812 97.249 61.2444C97.2006 61.2263 97.161 61.1902 97.1387 61.1435C97.1163 61.0969 97.1128 61.0435 97.129 60.9944C97.189 60.8544 97.439 60.7744 97.679 60.8144C97.7491 60.8206 97.8171 60.8411 97.879 60.8744Z" fill="#E1E7E9"/>
<path d="M97.779 60.5944C97.7948 60.6009 97.8091 60.6105 97.8211 60.6226C97.8332 60.6347 97.8427 60.6491 97.8492 60.6649C97.8557 60.6806 97.859 60.6976 97.859 60.7146C97.859 60.7317 97.8556 60.7486 97.849 60.7644C97.849 60.8544 97.649 60.9044 97.489 60.8844H97.359C97.289 60.8844 97.249 60.7844 97.279 60.7244C97.3203 60.6708 97.3766 60.6308 97.4407 60.6095C97.5048 60.5881 97.5739 60.5863 97.639 60.6044L97.779 60.5944Z" fill="#E1E7E9"/>
<path d="M97.999 60.6244V60.8044C98.0037 60.8241 98.0037 60.8446 97.999 60.8643C97.935 60.9452 97.8493 61.0061 97.7518 61.0398C97.6543 61.0734 97.5493 61.0785 97.449 61.0544C97.3782 61.045 97.3102 61.0212 97.249 60.9843C97.2139 60.9678 97.1836 60.9425 97.1609 60.9111C97.1381 60.8796 97.1237 60.8429 97.119 60.8044V60.6143C97.123 60.6544 97.137 60.6928 97.1597 60.726C97.1825 60.7592 97.2132 60.7861 97.249 60.8044C97.3121 60.8368 97.3794 60.8603 97.449 60.8744C97.5493 60.8973 97.654 60.8916 97.7512 60.858C97.8484 60.8245 97.9343 60.7643 97.999 60.6843C98.0037 60.6646 98.0037 60.6441 97.999 60.6244Z" fill="url(#paint10_linear_1_34075)"/>
<path d="M97.879 60.4344C97.9275 60.4524 97.967 60.4886 97.9894 60.5352C98.0118 60.5818 98.0152 60.6353 97.999 60.6844C97.9343 60.7643 97.8484 60.8245 97.7512 60.858C97.654 60.8916 97.5493 60.8973 97.449 60.8744C97.3795 60.8604 97.3122 60.8368 97.249 60.8044C97.139 60.7344 97.089 60.6444 97.129 60.5544C97.169 60.4644 97.439 60.3344 97.679 60.3644C97.7486 60.3784 97.8159 60.4019 97.879 60.4344Z" fill="#E1E7E9"/>
<path d="M38.739 24.3144H38.669V25.0244H38.749V24.3144C38.749 24.3144 38.749 24.3144 38.739 24.3144Z" fill="#5F5F60"/>
<path d="M37.089 23.3543H37.019V24.0744H37.099V23.3344L37.089 23.3543Z" fill="#5F5F60"/>
<path d="M35.439 22.4044H35.359V23.1144H35.449V22.3844L35.439 22.4044Z" fill="#5F5F60"/>
<path d="M33.779 21.4444H33.709V22.1644H33.789V21.4244L33.779 21.4444Z" fill="#5F5F60"/>
<path d="M32.129 20.4944H32.059V21.2044H32.139V20.4744L32.129 20.4944Z" fill="#5F5F60"/>
<path d="M53.279 15.9744H53.199V16.6944H53.289V15.9744C53.289 15.9744 53.289 15.9744 53.279 15.9744Z" fill="#5F5F60"/>
<path d="M51.619 14.9744H51.549V15.6944H51.629V14.9744H51.619Z" fill="#5F5F60"/>
<path d="M49.999 13.9744H49.929V14.6844H50.009V13.9744H49.999Z" fill="#5F5F60"/>
<path d="M48.319 13.0544H48.239V13.7744H48.329V13.0344L48.319 13.0544Z" fill="#5F5F60"/>
<path d="M46.659 12.1044H46.5891V12.8144H46.6791V12.1044H46.659Z" fill="#5F5F60"/>
<path d="M47.139 29.1644H47.069V29.8844H47.149V29.1744C47.149 29.1744 47.149 29.1644 47.139 29.1644Z" fill="#5F5F60"/>
<path d="M45.489 28.2044H45.409V28.9744H45.499V28.2644L45.489 28.2044Z" fill="#5F5F60"/>
<path d="M43.829 27.2544H43.759V27.9744H43.839V27.2544C43.839 27.2544 43.839 27.2544 43.829 27.2544Z" fill="#5F5F60"/>
<path d="M42.179 26.2944H42.109V27.0044H42.189V26.2844L42.179 26.2944Z" fill="#5F5F60"/>
<path d="M40.529 25.3444H40.459V26.0544H40.539V25.3444H40.529Z" fill="#5F5F60"/>
<path d="M61.669 20.7744H61.599V21.4944H61.689V20.7744H61.669Z" fill="#5F5F60"/>
<path d="M59.999 19.8144H59.929V20.5244H60.009V19.7944L59.999 19.8144Z" fill="#5F5F60"/>
<path d="M58.369 18.8644H58.289V19.5844H58.379V18.8744C58.379 18.8744 58.379 18.8644 58.369 18.8644Z" fill="#5F5F60"/>
<path d="M56.709 17.9044H56.639V18.6144H56.719V17.8844L56.709 17.9044Z" fill="#5F5F60"/>
<path d="M55.059 16.9744H54.999V17.6844H55.079V16.9744C55.079 16.9744 55.069 16.9744 55.059 16.9744Z" fill="#5F5F60"/>
<path d="M55.539 33.9744H55.459V34.6944H55.549V33.9744H55.539Z" fill="#5F5F60"/>
<path d="M57.999 33.5044H57.929V34.2144H58.009V33.4844L57.999 33.5044Z" fill="#5F5F60"/>
<path d="M60.129 33.1244H60.059V33.8344H60.139V33.1244C60.139 33.1244 60.139 33.1244 60.129 33.1244Z" fill="#5F5F60"/>
<path d="M62.289 32.7344H62.219V33.4544H62.299V32.7344C62.299 32.7344 62.299 32.7344 62.289 32.7344Z" fill="#5F5F60"/>
<path d="M64.459 32.3344H64.389V33.0544H64.469V32.3144L64.459 32.3344Z" fill="#5F5F60"/>
<path d="M66.619 31.9744H66.549V32.6844H66.639V31.9744H66.619Z" fill="#5F5F60"/>
<path d="M67.3491 30.6444H67.2791V31.3544H67.3591V30.6444H67.3491Z" fill="#5F5F60"/>
<path d="M68.089 29.2744H68.019V29.9744H68.099V29.2544L68.089 29.2744Z" fill="#5F5F60"/>
<path d="M68.839 27.9144H68.769V28.6244H68.849V27.9744L68.839 27.9144Z" fill="#5F5F60"/>
<path d="M69.579 26.5444H69.509V27.2644H69.589V26.5444H69.579Z" fill="#5F5F60"/>
<path d="M53.879 33.0544H53.809V33.7644H53.889V33.0344L53.879 33.0544Z" fill="#5F5F60"/>
<path d="M52.229 32.1044H52.159V32.8244H52.239V32.1044H52.229Z" fill="#5F5F60"/>
<path d="M50.579 31.1444H50.499V31.8544H50.589V31.1444H50.579Z" fill="#5F5F60"/>
<path d="M48.919 30.1944H48.849V30.9744H48.939V30.2544L48.919 30.1944Z" fill="#5F5F60"/>
<path d="M70.069 25.6144H69.999V26.3344H70.079V25.6144H70.069Z" fill="#5F5F60"/>
<path d="M68.419 24.6644H68.339V25.3744H68.429V24.6644C68.429 24.6644 68.429 24.6644 68.419 24.6644Z" fill="#5F5F60"/>
<path d="M66.759 23.7044H66.689V24.4244H66.769V23.7044H66.759Z" fill="#5F5F60"/>
<path d="M65.109 22.7544H65.039V23.4644H65.119V22.7744L65.109 22.7544Z" fill="#5F5F60"/>
<path d="M63.459 21.8044H63.389V22.5244H63.469V21.8044C63.469 21.8044 63.469 21.8044 63.459 21.8044Z" fill="#5F5F60"/>
<path d="M33.729 19.4944H33.799V20.2144H33.719V19.4744L33.729 19.4944Z" fill="#5F5F60"/>
<path d="M35.379 18.5444H35.449V19.2544H35.369V18.5444C35.369 18.5444 35.369 18.5444 35.379 18.5444Z" fill="#5F5F60"/>
<path d="M36.999 17.5844H37.069V18.3043H36.979V17.5844H36.999Z" fill="#5F5F60"/>
<path d="M38.689 16.6344H38.759V17.3444H38.679V16.6144L38.689 16.6344Z" fill="#5F5F60"/>
<path d="M40.339 15.6844H40.409V16.4044H40.329V15.6844H40.339Z" fill="#5F5F60"/>
<path d="M41.999 14.7244H42.069V15.4444H41.989V14.7044L41.999 14.7244Z" fill="#5F5F60"/>
<path d="M43.639 13.7744H43.709V14.4944H43.619V13.7744H43.639Z" fill="#5F5F60"/>
<path d="M45.289 12.8244H45.359V13.5344H45.269V12.8244H45.289Z" fill="#5F5F60"/>
<path d="M55.519 34.0744L32.049 20.5444C32.0406 20.5218 32.0406 20.4969 32.049 20.4744C32.0437 20.4635 32.041 20.4515 32.041 20.4394C32.041 20.4272 32.0437 20.4153 32.049 20.4044L46.529 11.9744C46.54 11.9645 46.5543 11.9591 46.569 11.9591C46.5838 11.9591 46.598 11.9645 46.609 11.9744L70.089 25.5344C70.1031 25.5492 70.1109 25.5689 70.1109 25.5894C70.1109 25.6098 70.1031 25.6295 70.089 25.6444L66.629 32.0444C66.6096 32.0512 66.5884 32.0512 66.569 32.0444L55.499 34.0444L55.519 34.0744ZM32.249 20.4744L55.529 33.9144L66.529 31.9144L69.929 25.6144L46.569 12.1444L32.249 20.4744Z" fill="#5F5F60"/>
<path d="M63.599 23.7044V27.0344L56.889 30.9344L56.899 27.6044L63.599 23.7044Z" fill="#B9BFC2"/>
<path d="M56.899 27.6044L56.889 30.9344L48.109 25.8644L48.119 22.5344L56.899 27.6044Z" fill="#9AA0A4"/>
<path d="M63.599 23.7044L56.899 27.6044L48.119 22.5344L54.829 18.6344L63.599 23.7044Z" fill="#EDEEF0"/>
<path d="M64.3091 23.7244V23.9644L56.9891 28.2244V27.9844L64.3091 23.7244Z" fill="#C3CACD"/>
<path d="M56.989 27.9844V28.2244L47.399 22.6944V22.4544L56.989 27.9844Z" fill="#A3AAAE"/>
<path d="M64.309 23.7244L56.989 27.9844L47.399 22.4544L54.729 18.1944L64.309 23.7244Z" fill="#EDEEF0"/>
<path d="M47.829 22.4444L54.729 18.4344L63.889 23.7244L56.989 27.7344L47.829 22.4444Z" fill="#30333A"/>
<path d="M56.479 26.7944H56.409V27.5044H56.489V26.7944C56.489 26.7944 56.489 26.7944 56.479 26.7944Z" fill="#5F5F60"/>
<path d="M54.829 25.8344H54.749V26.5544H54.839V25.8144L54.829 25.8344Z" fill="#5F5F60"/>
<path d="M53.169 24.8844H53.099V25.5944C53.099 25.5944 53.179 25.5944 53.189 25.5944V24.8644L53.169 24.8844Z" fill="#5F5F60"/>
<path d="M51.519 23.9744H51.449V24.6944H51.529V23.9744H51.519Z" fill="#5F5F60"/>
<path d="M49.869 22.9744H49.789V23.6844H49.879V22.9744H49.869Z" fill="#5F5F60"/>
<path d="M48.209 22.0244H48.139V22.7444H48.219V22.0244H48.209Z" fill="#5F5F60"/>
<path d="M63.5991 22.6844H63.5291V23.3944H63.6091V22.6844C63.6091 22.6844 63.6091 22.6844 63.5991 22.6844Z" fill="#5F5F60"/>
<path d="M61.939 21.7244H61.869V22.4444H61.959V21.7244H61.939Z" fill="#5F5F60"/>
<path d="M60.289 20.7744H60.219V21.4844H60.299V20.7744H60.289Z" fill="#5F5F60"/>
<path d="M58.639 19.8144H58.569V20.5344H58.649V19.7944L58.639 19.8144Z" fill="#5F5F60"/>
<path d="M56.999 18.8644H56.929V19.5744H57.019V18.8644H56.999Z" fill="#5F5F60"/>
<path d="M55.329 17.9144H55.259V18.6344H55.339V17.9744C55.339 17.9744 55.339 17.9144 55.329 17.9144Z" fill="#5F5F60"/>
<path d="M48.679 21.0844H48.749V21.7944H48.669V21.0544L48.679 21.0844Z" fill="#5F5F60"/>
<path d="M50.329 20.1344H50.409V20.8544H50.319V20.1444C50.319 20.1444 50.319 20.1344 50.329 20.1344Z" fill="#5F5F60"/>
<path d="M51.999 19.1744H52.069V19.8944H51.979V19.1744H51.999Z" fill="#5F5F60"/>
<path d="M53.639 18.2244H53.709V18.9744H53.629V18.2644C53.629 18.2644 53.629 18.2244 53.639 18.2244Z" fill="#5F5F60"/>
<path d="M57.999 26.4844H58.069V27.2044H57.979V26.4844H57.999Z" fill="#5F5F60"/>
<path d="M59.689 25.5344H59.759V26.2444H59.679V25.5144L59.689 25.5344Z" fill="#5F5F60"/>
<path d="M61.339 24.5844H61.419V25.3043H61.329V24.5844H61.339Z" fill="#5F5F60"/>
<path d="M62.999 23.6244H63.069V24.3344C63.069 24.3344 62.989 24.3344 62.979 24.3344V23.6244H62.999Z" fill="#5F5F60"/>
<path d="M56.999 27.2244L47.639 21.8244C47.6343 21.8133 47.6319 21.8014 47.6319 21.7894C47.6319 21.7773 47.6343 21.7654 47.639 21.7544C47.6329 21.7437 47.6296 21.7316 47.6296 21.7194C47.6296 21.7071 47.6329 21.695 47.639 21.6844L54.759 17.5344C54.7847 17.5243 54.8133 17.5243 54.839 17.5344L64.129 22.9744C64.1352 22.985 64.1384 22.9971 64.1384 23.0094C64.1384 23.0216 64.1352 23.0337 64.129 23.0444C64.1343 23.0535 64.1371 23.0638 64.1371 23.0744C64.1371 23.0849 64.1343 23.0952 64.129 23.1044L56.999 27.2144V27.2244ZM47.799 21.7444L56.999 27.0544L63.999 23.0544L54.799 17.7444L47.799 21.7444Z" fill="#5F5F60"/>
<path d="M55.679 12.6044L55.319 12.3944L59.129 10.1944L59.489 10.4044L55.679 12.6044Z" fill="url(#paint11_linear_1_34075)"/>
<path d="M55.679 13.5644L55.319 13.3444V12.3944L55.679 12.6044V13.5644Z" fill="#3B3A3A"/>
<path d="M55.679 12.6044L59.489 10.4044L55.679 13.5644V12.6044Z" fill="#B9BFC2"/>
<path d="M54.459 24.0844L52.049 22.6744L52.479 13.0544L54.889 14.4544L54.459 24.0844Z" fill="#9AA0A4"/>
<path d="M54.889 14.4544L52.479 13.0544L54.489 11.8944L56.899 13.2944L54.889 14.4544Z" fill="url(#paint12_linear_1_34075)"/>
<path d="M56.899 13.2944L57.379 22.3944L54.459 24.0844L54.889 14.4544L56.899 13.2944Z" fill="#B9BFC2"/>
<path d="M49.8891 15.9444L49.5291 15.7344L53.3291 13.5344L53.6891 13.7544L49.8891 15.9444Z" fill="url(#paint13_linear_1_34075)"/>
<path d="M53.699 14.7044L49.889 15.9444L53.689 13.7544L53.699 14.7044Z" fill="#B9BFC2"/>
<path d="M59.979 10.0344V10.2144L56.439 12.2644V12.0944L59.979 10.0344Z" fill="#C3CACD"/>
<path d="M52.079 12.9744C52.0398 12.9541 52.0063 12.9242 51.9818 12.8875C51.9573 12.8508 51.9426 12.8084 51.939 12.7644V12.9744C51.9433 13.0169 51.9584 13.0576 51.983 13.0926C52.0075 13.1276 52.0405 13.1558 52.079 13.1744L52.709 13.5444V13.3644L52.079 12.9744Z" fill="#A3AAAE"/>
<path d="M57.379 13.0344L55.139 14.3444C55.0304 14.3989 54.9106 14.4273 54.789 14.4273C54.6675 14.4273 54.5476 14.3989 54.439 14.3444L53.499 13.8044V13.9744L54.439 14.5144C54.5464 14.573 54.6667 14.6038 54.789 14.6038C54.9113 14.6038 55.0317 14.573 55.139 14.5144L57.379 13.2144C57.479 13.1544 57.529 13.0844 57.529 13.0144V12.8344C57.5248 12.8783 57.5086 12.9202 57.4821 12.9555C57.4557 12.9907 57.42 13.018 57.379 13.0344Z" fill="url(#paint14_linear_1_34075)"/>
<path d="M49.959 15.8544V16.0244L49.179 15.5744V15.4044L49.959 15.8544Z" fill="#A3AAAE"/>
<path d="M59.999 10.0344L56.459 12.0344L57.399 12.5844C57.599 12.6944 57.599 12.8744 57.399 12.9844L55.159 14.2944C55.0504 14.3489 54.9305 14.3773 54.809 14.3773C54.6875 14.3773 54.5676 14.3489 54.459 14.2944L53.519 13.7544L49.999 15.8544L49.219 15.4044L52.749 13.3444L52.079 12.9744C51.889 12.8644 51.889 12.6844 52.079 12.5644L54.329 11.2644C54.4376 11.2098 54.5575 11.1814 54.679 11.1814C54.8005 11.1814 54.9204 11.2098 55.029 11.2644L55.659 11.6244L59.189 9.57437L59.999 10.0344Z" fill="#EDEEF0"/>
<path d="M53.499 13.7944V13.9744L49.959 16.0244V15.8544L53.499 13.7944Z" fill="#C3CACD"/>
<path d="M58.109 5.69436C58.0887 5.67538 58.0619 5.66483 58.034 5.66483C58.0062 5.66483 57.9794 5.67538 57.959 5.69436L54.749 8.78436C54.7363 8.79947 54.7279 8.81772 54.7246 8.83722C54.7214 8.85671 54.7235 8.87672 54.7306 8.89513C54.7378 8.91355 54.7498 8.9297 54.7653 8.94188C54.7809 8.95406 54.7995 8.96183 54.819 8.96436C54.8448 8.9744 54.8733 8.9744 54.8991 8.96436L58.099 5.87436C58.1141 5.86504 58.1267 5.85223 58.1357 5.83701C58.1447 5.8218 58.1499 5.80463 58.1509 5.78696C58.1519 5.7693 58.1486 5.75165 58.1413 5.73553C58.134 5.71941 58.123 5.70529 58.109 5.69436Z" fill="#B9BFC2"/>
<path d="M52.119 12.0844H52.049V12.8044H52.139V12.0844H52.119Z" fill="#5F5F60"/>
<path d="M53.439 12.8344H53.359V13.5544H53.449V12.8344H53.439Z" fill="#5F5F60"/>
<path d="M54.749 13.5944H54.679V14.3044H54.759V13.5744L54.749 13.5944Z" fill="#5F5F60"/>
<path d="M54.779 10.5444H54.709V11.2544H54.789V10.5444H54.779Z" fill="#5F5F60"/>
<path d="M56.089 11.3044H56.019V12.0144H56.099V11.2844L56.089 11.3044Z" fill="#5F5F60"/>
<path d="M57.399 12.0644H57.329V12.7844H57.419V12.0744L57.399 12.0644Z" fill="#5F5F60"/>
<path d="M55.999 12.9744H56.069V13.6144H55.989V12.9744H55.999Z" fill="#5F5F60"/>
<path d="M53.329 11.2844C53.329 11.2844 53.409 11.2844 53.399 11.2844V11.9744H53.319V11.2444L53.329 11.2844Z" fill="#5F5F60"/>
<path d="M54.789 13.7044C54.6708 13.7064 54.554 13.6789 54.449 13.6244L52.099 12.2644C52.0621 12.2491 52.0297 12.2245 52.0052 12.1929C51.9806 12.1614 51.9647 12.1239 51.959 12.0844C51.9638 12.0458 51.9782 12.0091 52.0009 11.9776C52.0236 11.9462 52.0539 11.9209 52.089 11.9044L54.339 10.5944C54.4439 10.5453 54.5583 10.5198 54.674 10.5198C54.7898 10.5198 54.9042 10.5453 55.009 10.5944L57.369 11.9744C57.4047 11.9901 57.4356 12.0151 57.4584 12.0467C57.4813 12.0784 57.4953 12.1155 57.499 12.1544C57.4964 12.1935 57.4828 12.2311 57.4598 12.2629C57.4368 12.2948 57.4054 12.3195 57.369 12.3344L55.129 13.6444C55.022 13.6909 54.9055 13.7114 54.789 13.7044ZM52.119 12.0844H52.179L54.529 13.4444C54.6107 13.4814 54.6994 13.5005 54.789 13.5005C54.8787 13.5005 54.9674 13.4814 55.049 13.4444L57.289 12.1344C57.3055 12.1382 57.3226 12.1382 57.339 12.1344H57.289L54.929 10.7344C54.8499 10.6947 54.7626 10.6741 54.674 10.6741C54.5855 10.6741 54.4982 10.6947 54.419 10.7344L52.179 12.0344H52.119V12.0844Z" fill="#5F5F60"/>
<path d="M54.999 7.22437C54.9472 7.20685 54.8909 7.20685 54.839 7.22437C54.7601 7.20082 54.6759 7.20157 54.5975 7.22655C54.519 7.25152 54.4498 7.29954 54.399 7.36437C54.399 7.44437 54.399 7.51437 54.489 7.56437C54.5862 7.61971 54.699 7.64091 54.8096 7.6246C54.9201 7.60828 55.0221 7.55539 55.099 7.47437C55.109 7.35437 55.069 7.27437 54.999 7.22437Z" fill="url(#paint15_linear_1_34075)"/>
<path d="M54.439 8.87437L51.339 9.51437C51.3246 9.51655 51.3109 9.52184 51.2988 9.52986C51.2867 9.53789 51.2765 9.54845 51.2689 9.56082C51.2612 9.5732 51.2564 9.58708 51.2547 9.60151C51.253 9.61594 51.2545 9.63056 51.259 9.64437C51.2637 9.6673 51.2762 9.68786 51.2945 9.70248C51.3128 9.71709 51.3356 9.72484 51.359 9.72437L54.459 9.08437C54.4864 9.08187 54.5119 9.06918 54.5304 9.04882C54.5489 9.02845 54.5591 9.00189 54.559 8.97437C54.5593 8.95937 54.5562 8.9445 54.55 8.93085C54.5438 8.9172 54.5346 8.90513 54.523 8.89552C54.5115 8.88592 54.498 8.87903 54.4834 8.87537C54.4689 8.87171 54.4537 8.87137 54.439 8.87437Z" fill="#B9BFC2"/>
<path d="M49.959 10.4244V10.5944L59.979 4.77439V4.59439L49.959 10.4244Z" fill="#C3CACD"/>
<path d="M49.959 10.4244V10.5944L49.169 10.1444L49.179 9.96439L49.959 10.4244Z" fill="#A3AAAE"/>
<path d="M59.199 4.14438L49.179 9.96438L49.959 10.4244L59.979 4.59438L59.199 4.14438Z" fill="#EDEEF0"/>
<path d="M54.999 1.72437C54.999 1.80437 54.829 1.85437 54.699 1.83437C54.6594 1.84148 54.6187 1.84148 54.579 1.83437C54.579 1.83437 54.509 1.77437 54.509 1.73437V7.14437C54.509 7.14437 54.509 7.21437 54.579 7.24437H54.689C54.7449 7.25698 54.8032 7.25435 54.8577 7.23676C54.9122 7.21917 54.961 7.18726 54.999 7.14437V1.72437Z" fill="url(#paint16_linear_1_34075)"/>
<path d="M54.909 1.62435C54.8694 1.61724 54.8287 1.61724 54.789 1.62435C54.659 1.62435 54.519 1.62435 54.489 1.72435C54.479 1.75092 54.4797 1.78033 54.4909 1.80642C54.5021 1.83251 54.5229 1.85327 54.549 1.86435C54.5887 1.87147 54.6294 1.87147 54.669 1.86435C54.799 1.86435 54.939 1.86435 54.969 1.75435C54.9738 1.74189 54.976 1.7286 54.9756 1.71527C54.9751 1.70193 54.972 1.68882 54.9664 1.67671C54.9608 1.66459 54.9529 1.65372 54.943 1.64473C54.9332 1.63574 54.9216 1.62881 54.909 1.62435Z" fill="url(#paint17_linear_1_34075)"/>
<path d="M55.229 1.47438C55.229 1.57327 55.1997 1.66994 55.1447 1.75216C55.0898 1.83439 55.0117 1.89847 54.9203 1.93632C54.829 1.97416 54.7284 1.98406 54.6315 1.96477C54.5345 1.94548 54.4454 1.89786 54.3754 1.82793C54.3055 1.75801 54.2579 1.66891 54.2386 1.57192C54.2193 1.47493 54.2292 1.3744 54.2671 1.28304C54.3049 1.19167 54.369 1.11358 54.4512 1.05864C54.5334 1.0037 54.6301 0.974378 54.729 0.974378C54.795 0.973016 54.8607 0.985018 54.9219 1.00966C54.9832 1.03431 55.0389 1.07109 55.0856 1.11779C55.1323 1.16449 55.1691 1.22016 55.1937 1.28144C55.2184 1.34271 55.2304 1.40834 55.229 1.47438Z" fill="url(#paint18_radial_1_34075)"/>
<path d="M58.269 25.1844L57.229 24.5844L57.409 20.4344L58.449 21.0344L58.269 25.1844Z" fill="#9AA0A4"/>
<path d="M58.449 21.0344L57.409 20.4344L58.279 19.9344L59.319 20.5344L58.449 21.0344Z" fill="url(#paint19_linear_1_34075)"/>
<path d="M59.319 20.5344L59.519 24.4644L58.269 25.1844L58.449 21.0344L59.319 20.5344Z" fill="#B9BFC2"/>
<path d="M58.849 17.9544L62.449 17.7044L61.879 17.8444L58.749 18.0944L58.849 17.9544Z" fill="url(#paint20_linear_1_34075)"/>
<path d="M58.849 17.8644L62.449 17.6144L61.879 17.7444L58.749 17.9944L58.849 17.8644Z" fill="#EDEEF0"/>
<path d="M58.579 18.0244C58.4179 18.061 58.2492 18.0435 58.099 17.9744C58.0462 17.9417 58.0017 17.8972 57.969 17.8444C57.9642 17.8179 57.9642 17.7908 57.969 17.7644V20.3244C57.9635 20.3474 57.9635 20.3714 57.969 20.3944C57.9992 20.4491 58.0443 20.4942 58.099 20.5244C58.2473 20.599 58.4146 20.6269 58.579 20.6044C58.799 20.6044 58.939 20.4544 58.939 20.3244V17.7544C58.939 17.8744 58.799 17.9744 58.579 18.0244Z" fill="url(#paint21_linear_1_34075)"/>
<path d="M58.799 17.5444C58.8519 17.577 58.8964 17.6215 58.929 17.6744C58.999 17.8244 58.839 17.9844 58.579 18.0244C58.4179 18.061 58.2492 18.0435 58.099 17.9744C58.0462 17.9417 58.0017 17.8972 57.969 17.8444C57.899 17.6944 58.059 17.5344 58.319 17.4944C58.4802 17.4577 58.6489 17.4753 58.799 17.5444Z" fill="#EDEEF0"/>
<path d="M58.179 18.2544L57.599 19.9344L57.759 20.0344L58.299 18.3244V18.1844L58.179 18.2544Z" fill="#C2C9CC"/>
<path d="M58.139 18.1444L57.409 20.2844L57.789 19.7144L58.299 18.1844L58.139 18.1444Z" fill="#EDEEF0"/>
<path d="M59.549 18.5244C58.5393 18.9536 57.7238 19.7406 57.259 20.7344V22.7344C57.809 21.2044 60.029 19.9244 62.649 19.5944V17.5944C61.5701 17.725 60.5216 18.0395 59.549 18.5244Z" fill="#30333A"/>
<path d="M57.109 20.7144L57.099 22.7644L57.259 22.7844V20.7344L57.109 20.7144Z" fill="#202226"/>
<path d="M62.629 17.5144C59.939 17.8444 57.629 19.1644 57.109 20.7144H57.259C57.819 19.1944 60.029 17.9044 62.659 17.5844L62.629 17.5144Z" fill="#515661"/>
<g style="mix-blend-mode:screen" opacity="0.5">
<path d="M62.659 17.9744H62.419V17.6944V17.9744L61.739 18.1044V17.8044V18.1044C61.509 18.1044 61.279 18.2044 61.059 18.2744V17.9744V18.2744C60.8283 18.3423 60.6013 18.4224 60.379 18.5144V18.2144V18.5144C60.1464 18.6004 59.9194 18.7005 59.699 18.8144V18.5144V18.8144C59.468 18.9208 59.2471 19.048 59.039 19.1944V18.8944V19.1944C58.7989 19.3457 58.5715 19.5162 58.359 19.7044V19.4744V19.7544C58.1031 19.9845 57.8779 20.2466 57.689 20.5344V20.3244V20.3844V20.5844L57.539 20.8544V20.9744L57.689 20.6844V20.9744L57.539 21.2444V21.3244L57.689 21.0344V21.3244L57.539 21.6044V21.6744L57.689 21.3844V21.6844L57.539 21.9644V22.0344L57.689 21.7444V22.0444L57.539 22.3144V22.3944L57.689 22.1044V22.4444V22.3944V22.0444C57.8772 21.7531 58.1024 21.4875 58.359 21.2544V21.5544V21.2544C58.5693 21.0606 58.7969 20.8865 59.039 20.7344V20.9744V20.6744C59.254 20.5305 59.4778 20.4002 59.709 20.2844V20.5744V20.2944C59.919 20.1844 60.149 20.0844 60.389 19.9844V20.2744V19.9744C60.609 19.8944 60.829 19.8144 61.069 19.7444V19.9744V19.6844C61.289 19.6144 61.519 19.5544 61.749 19.5044V19.7944V19.5044L62.429 19.3744V19.6744V19.3744H62.659H62.429V19.0444H62.669H62.429V18.6744H62.669H62.429V18.3444H62.669H62.429V17.9744H62.659ZM58.119 21.2444C57.8631 21.4745 57.6379 21.7366 57.449 22.0244V21.7344C57.6345 21.4382 57.86 21.169 58.119 20.9344V21.2444ZM58.119 20.8944C57.8631 21.1245 57.6379 21.3866 57.449 21.6744V21.3744C57.6372 21.0831 57.8624 20.8175 58.119 20.5844V20.8944ZM58.119 20.5344C57.8631 20.7645 57.6379 21.0266 57.449 21.3144V20.9744C57.6345 20.6782 57.86 20.409 58.119 20.1744V20.5344ZM58.119 20.1844C57.8631 20.4145 57.6379 20.6766 57.449 20.9644V20.6644C57.6371 20.3701 57.8623 20.1012 58.119 19.8644V20.1844ZM58.839 20.7044C58.5987 20.859 58.3713 21.0329 58.159 21.2244V20.9044C58.3718 20.7136 58.5992 20.5398 58.839 20.3844V20.7044ZM58.839 20.3444C58.601 20.5023 58.3738 20.676 58.159 20.8644V20.5544C58.3693 20.3606 58.5969 20.1865 58.839 20.0344V20.3444ZM58.839 19.9944C58.5987 20.149 58.3713 20.3229 58.159 20.5144V20.1944C58.3718 20.0036 58.5992 19.8298 58.839 19.6744V19.9944ZM58.839 19.6344C58.601 19.7923 58.3738 19.966 58.159 20.1544V19.8444C58.369 19.6473 58.5966 19.4699 58.839 19.3144V19.6344ZM59.549 20.2944C59.3221 20.4085 59.1017 20.5354 58.889 20.6744V20.3544C59.104 20.2105 59.3278 20.0802 59.559 19.9644L59.549 20.2944ZM59.549 19.9344C59.3221 20.0485 59.1017 20.1754 58.889 20.3144V19.9744C59.099 19.8344 59.319 19.7044 59.559 19.5744L59.549 19.9344ZM59.549 19.5844C59.3221 19.6985 59.1017 19.8254 58.889 19.9644V19.6444C59.104 19.5005 59.3278 19.3702 59.559 19.2544L59.549 19.5844ZM59.549 19.2244C59.3221 19.3385 59.1017 19.4654 58.889 19.6044V19.2844L59.559 18.8944L59.549 19.2244ZM60.259 19.9744C60.0262 20.0637 59.7991 20.1672 59.579 20.2844V19.9544C59.7994 19.8405 60.0264 19.7404 60.259 19.6544V19.9744ZM60.259 19.6144C60.019 19.7144 59.789 19.8144 59.579 19.9244V19.6044C59.789 19.4944 60.019 19.3944 60.259 19.2944V19.6144ZM60.259 19.2644C60.0264 19.3504 59.7994 19.4505 59.579 19.5644V19.2444C59.7994 19.1305 60.0264 19.0304 60.259 18.9444V19.2644ZM60.259 18.9044C60.019 19.0044 59.789 19.1044 59.579 19.2144V18.8944C59.789 18.7844 60.019 18.6844 60.259 18.5844V18.9044ZM60.969 19.7344C60.7385 19.799 60.5115 19.8757 60.289 19.9644V19.6444C60.5113 19.5524 60.7383 19.4723 60.969 19.4044V19.7344ZM60.969 19.3744C60.729 19.4444 60.509 19.5244 60.289 19.6044V19.2844C60.5196 19.1676 60.7567 19.0641 60.999 18.9744L60.969 19.3744ZM60.999 18.9744C60.7683 19.0423 60.5413 19.1224 60.319 19.2144V18.8744C60.539 18.7944 60.759 18.7144 60.999 18.6444V18.9744ZM60.999 18.6244C60.759 18.6944 60.539 18.7744 60.319 18.8544V18.5344C60.5415 18.4457 60.7685 18.369 60.999 18.3044V18.6244ZM61.709 19.5044L61.029 19.6744V19.3544C61.249 19.2844 61.479 19.2344 61.709 19.1844V19.5044ZM61.709 19.1444C61.479 19.2044 61.249 19.2544 61.029 19.3244V18.9744C61.249 18.9044 61.479 18.8444 61.709 18.7944V19.1444ZM61.709 18.7944L60.999 18.9744V18.6544C61.219 18.5844 61.449 18.5344 61.679 18.4744L61.709 18.7944ZM61.709 18.4344C61.479 18.4844 61.249 18.5444 61.029 18.6144V18.2944C61.249 18.2244 61.479 18.1644 61.709 18.1144V18.4344ZM62.419 19.3644L61.739 19.4944V19.1744L62.419 19.0444V19.3644ZM62.419 19.0144C62.189 19.0144 61.959 19.0844 61.739 19.1344V18.8144L62.419 18.6844V19.0144ZM62.419 18.6544L61.739 18.7844V18.4644C61.959 18.4144 62.189 18.3644 62.419 18.3344V18.6544ZM62.419 18.3044C62.189 18.3044 61.959 18.3744 61.739 18.4244V18.1044L62.419 17.9744V18.3044Z" fill="#30333A"/>
</g>
<path d="M60.089 17.9744L58.699 17.1744C58.6618 17.1502 58.6184 17.1374 58.574 17.1374C58.5297 17.1374 58.4863 17.1502 58.449 17.1744C58.4103 17.1967 58.3779 17.2287 58.3551 17.2673C58.3324 17.3058 58.3199 17.3496 58.319 17.3944V17.7344C58.319 17.8544 58.549 17.8544 58.549 17.7344V17.3944L59.939 18.2044C59.98 18.2267 60.0139 18.2601 60.0369 18.3008C60.0599 18.3414 60.071 18.3877 60.069 18.4344V21.1844C60.069 21.1844 60.069 21.2344 60.069 21.2444C60.0588 21.2517 60.0466 21.2556 60.034 21.2556C60.0215 21.2556 60.0092 21.2517 59.999 21.2444L59.229 20.8044L58.999 20.8744L59.879 21.3844C59.9265 21.4159 59.982 21.4332 60.039 21.4344C60.0926 21.4314 60.1444 21.4141 60.189 21.3844C60.2372 21.3602 60.2777 21.323 60.306 21.2771C60.3343 21.2312 60.3492 21.1783 60.349 21.1244V18.3744C60.3416 18.2915 60.314 18.2118 60.2687 18.1421C60.2234 18.0724 60.1617 18.0148 60.089 17.9744Z" fill="url(#paint22_linear_1_34075)"/>
<path d="M46.059 14.4144V14.6544L47.209 15.3244V15.0844L46.059 14.4144Z" fill="#9AA0A4"/>
<path d="M47.209 15.0843V15.3243L47.499 15.1543V14.9243L47.209 15.0843Z" fill="#B9BFC2"/>
<path d="M46.059 14.4144L47.209 15.0844L47.499 14.9244L46.349 14.2444L46.059 14.4144Z" fill="#EDEEF0"/>
<path d="M46.449 7.07435C46.438 7.08419 46.4238 7.08963 46.409 7.08963C46.3943 7.08963 46.38 7.08419 46.369 7.07435V14.4744C46.3812 14.4814 46.395 14.4851 46.409 14.4851C46.4231 14.4851 46.4369 14.4814 46.449 14.4744V7.05435V7.07435Z" fill="url(#paint23_linear_1_34075)"/>
<path d="M47.199 7.51435H47.119V14.9144H47.199V7.49435V7.51435Z" fill="url(#paint24_linear_1_34075)"/>
<path d="M47.199 7.46436H47.119H47.199C47.199 7.46436 47.219 7.48436 47.199 7.46436Z" fill="#EDEEF0"/>
<path d="M34.929 20.8444V21.0844L36.079 21.7544V21.5144L34.929 20.8444Z" fill="#9AA0A4"/>
<path d="M36.079 21.5144V21.7544L36.369 21.5844V21.3444L36.079 21.5144Z" fill="#B9BFC2"/>
<path d="M34.929 20.8444L36.079 21.5144L36.369 21.3444L35.219 20.6744L34.929 20.8444Z" fill="#EDEEF0"/>
<path d="M35.319 13.4544H35.239H35.319C35.319 13.4544 35.339 13.4744 35.319 13.4544Z" fill="#EDEEF0"/>
<path d="M36.069 13.9744C36.0588 13.9817 36.0466 13.9856 36.034 13.9856C36.0215 13.9856 36.0092 13.9817 35.999 13.9744V21.3744C36.01 21.3842 36.0243 21.3896 36.039 21.3896C36.0538 21.3896 36.068 21.3842 36.079 21.3744V13.9744H36.069Z" fill="url(#paint25_linear_1_34075)"/>
<path d="M4.16904 15.6944V16.1744C4.1239 16.2258 4.06569 16.2642 4.00056 16.2853C3.93543 16.3064 3.8658 16.3096 3.79904 16.2944H3.66904C3.60904 16.2944 3.57904 16.2144 3.57904 16.1644V15.6944C3.58219 15.7205 3.59217 15.7454 3.60796 15.7664C3.62376 15.7875 3.64483 15.804 3.66904 15.8144C3.71269 15.8385 3.75997 15.8554 3.80904 15.8644C3.8752 15.8787 3.94407 15.8742 4.00775 15.8512C4.07143 15.8282 4.12733 15.7877 4.16904 15.7344V15.6944Z" fill="url(#paint26_linear_1_34075)"/>
<path d="M4.07905 15.5744C4.14905 15.5744 4.18905 15.6744 4.15905 15.7344C4.11734 15.7877 4.06143 15.8282 3.99775 15.8512C3.93408 15.8742 3.8652 15.8787 3.79905 15.8644C3.74998 15.8554 3.70269 15.8385 3.65905 15.8144C3.62914 15.8012 3.60477 15.778 3.59016 15.7488C3.57555 15.7196 3.57162 15.6862 3.57905 15.6544C3.62595 15.5906 3.69205 15.5436 3.76764 15.5202C3.84324 15.4968 3.92434 15.4983 3.99905 15.5244L4.07905 15.5744Z" fill="#E1E7E9"/>
<path d="M4.31903 15.5244V15.7044C4.32495 15.7273 4.32495 15.7514 4.31903 15.7744C4.25903 15.9144 4.00903 15.9944 3.76903 15.9544C3.6996 15.9451 3.63209 15.9249 3.56903 15.8944C3.53317 15.8761 3.50247 15.8492 3.47976 15.816C3.45704 15.7828 3.44304 15.7444 3.43903 15.7044V15.5244C3.44171 15.5635 3.45531 15.6012 3.47829 15.633C3.50127 15.6648 3.5327 15.6895 3.56903 15.7044C3.62965 15.7423 3.69798 15.7662 3.76903 15.7744C4.00903 15.7744 4.25903 15.7744 4.31903 15.5944C4.32336 15.5713 4.32336 15.5475 4.31903 15.5244Z" fill="url(#paint27_linear_1_34075)"/>
<path d="M4.17904 15.3444C4.29904 15.4044 4.34904 15.4944 4.29904 15.5944C4.24904 15.6944 3.98904 15.8144 3.74904 15.7744C3.678 15.7662 3.60966 15.7423 3.54904 15.7044C3.43904 15.6444 3.38904 15.5544 3.43904 15.4544C3.50238 15.3702 3.59021 15.3077 3.69048 15.2755C3.79075 15.2433 3.89854 15.2429 3.99904 15.2744C4.06289 15.2863 4.12394 15.31 4.17904 15.3444Z" fill="#E1E7E9"/>
<path d="M4.16904 15.1844V15.4944C4.12574 15.5485 4.0681 15.5894 4.00268 15.6124C3.93726 15.6354 3.8667 15.6395 3.79904 15.6244H3.66904C3.6442 15.615 3.62255 15.5987 3.60661 15.5774C3.59068 15.5562 3.58111 15.5308 3.57904 15.5044V15.1944C3.58386 15.2199 3.59449 15.244 3.61009 15.2648C3.62569 15.2856 3.64586 15.3026 3.66904 15.3144H3.80904C3.87423 15.3311 3.94286 15.3287 4.00671 15.3074C4.07056 15.2861 4.12692 15.2469 4.16904 15.1944V15.1844Z" fill="url(#paint28_linear_1_34075)"/>
<path d="M4.07902 15.0644C4.14902 15.0644 4.18902 15.1644 4.15902 15.2244C4.1169 15.2769 4.06054 15.3161 3.99669 15.3374C3.93284 15.3587 3.86421 15.3611 3.79902 15.3444H3.65902C3.62832 15.3294 3.60365 15.3043 3.58911 15.2734C3.57456 15.2425 3.571 15.2076 3.57902 15.1744C3.61698 15.0992 3.67882 15.0388 3.75484 15.0026C3.83086 14.9664 3.91675 14.9565 3.99902 14.9744C4.03169 14.9984 4.05894 15.0291 4.07902 15.0644Z" fill="#E1E7E9"/>
<path d="M4.31903 15.0844V15.2644C4.32336 15.2875 4.32336 15.3112 4.31903 15.3344C4.25903 15.4744 4.00903 15.5544 3.76903 15.5144C3.69798 15.5062 3.62965 15.4823 3.56903 15.4444C3.5327 15.4295 3.50127 15.4048 3.47829 15.373C3.45531 15.3412 3.44171 15.3035 3.43903 15.2644V15.0844C3.44374 15.1229 3.45814 15.1596 3.48087 15.1911C3.5036 15.2226 3.53393 15.2478 3.56903 15.2644C3.63163 15.298 3.69911 15.3216 3.76903 15.3344C3.86833 15.3597 3.97278 15.3562 4.07017 15.3243C4.16756 15.2924 4.25388 15.2335 4.31903 15.1544C4.32231 15.1312 4.32231 15.1076 4.31903 15.0844Z" fill="url(#paint29_linear_1_34075)"/>
<path d="M4.17904 14.8944C4.29904 14.9644 4.34904 15.0544 4.29904 15.1544C4.23389 15.2335 4.14758 15.2924 4.05019 15.3243C3.9528 15.3561 3.84835 15.3596 3.74904 15.3344C3.67913 15.3216 3.61164 15.298 3.54904 15.2644C3.43904 15.2044 3.38904 15.1044 3.43904 15.0144C3.50238 14.9302 3.59021 14.8677 3.69048 14.8355C3.79075 14.8033 3.89854 14.8029 3.99904 14.8344C4.06222 14.8432 4.12323 14.8635 4.17904 14.8944Z" fill="#E1E7E9"/>
<path d="M15.739 8.97437V9.44437C15.739 9.44437 15.539 9.59437 15.379 9.57437H15.249C15.2242 9.56496 15.2025 9.54868 15.1866 9.52744C15.1706 9.50619 15.1611 9.48084 15.159 9.45436V8.97437C15.1621 9.00051 15.1721 9.02536 15.1879 9.04642C15.2037 9.06749 15.2248 9.08402 15.249 9.09437C15.292 9.10145 15.336 9.10145 15.379 9.09437C15.4441 9.11241 15.5132 9.11064 15.5773 9.08926C15.6414 9.06789 15.6977 9.02789 15.739 8.97437Z" fill="url(#paint30_linear_1_34075)"/>
<path d="M15.659 8.88436C15.729 8.88436 15.759 8.99436 15.729 9.05436C15.6877 9.10788 15.6314 9.14788 15.5673 9.16925C15.5032 9.19063 15.4341 9.1924 15.369 9.17436C15.326 9.18145 15.282 9.18145 15.239 9.17436C15.169 9.17436 15.129 9.06436 15.159 9.00436C15.189 8.94436 15.369 8.86436 15.519 8.88436H15.659Z" fill="#E1E7E9"/>
<path d="M15.899 8.84436V9.02436C15.9031 9.04751 15.9031 9.07121 15.899 9.09436C15.8331 9.17251 15.7468 9.23075 15.6496 9.26255C15.5525 9.29434 15.4484 9.29843 15.349 9.27436C15.2783 9.265 15.2102 9.24117 15.149 9.20436C15.1102 9.19055 15.0758 9.16656 15.0494 9.13489C15.023 9.10323 15.0056 9.06505 14.999 9.02436V8.84436C15.0037 8.8829 15.0181 8.91961 15.0409 8.95109C15.0636 8.98256 15.0939 9.00777 15.129 9.02436C15.1921 9.0568 15.2594 9.08036 15.329 9.09436C15.569 9.09436 15.819 9.09436 15.879 8.90436C15.8834 8.8846 15.8834 8.86413 15.879 8.84436H15.899Z" fill="url(#paint31_linear_1_34075)"/>
<path d="M15.759 8.65437C15.869 8.72437 15.919 8.81437 15.879 8.90437C15.839 8.99437 15.569 9.12437 15.329 9.09437C15.2595 9.08036 15.1922 9.05681 15.129 9.02437C15.0788 9.00828 15.0369 8.97298 15.0125 8.92615C14.9882 8.87932 14.9833 8.82476 14.999 8.77437C15.0634 8.69428 15.1497 8.63463 15.2473 8.60268C15.345 8.57072 15.4498 8.56783 15.549 8.59437C15.6225 8.59928 15.6941 8.61973 15.759 8.65437Z" fill="#E1E7E9"/>
<path d="M15.659 8.37438C15.6908 8.38764 15.7161 8.413 15.7292 8.44488C15.7423 8.47676 15.7423 8.51255 15.729 8.54438C15.729 8.63438 15.529 8.68438 15.369 8.66438L15.239 8.61438C15.169 8.61438 15.129 8.51438 15.159 8.45438C15.2011 8.40188 15.2575 8.36264 15.3213 8.34136C15.3852 8.32007 15.4538 8.31765 15.519 8.33438C15.5683 8.33559 15.6165 8.34936 15.659 8.37438Z" fill="#E1E7E9"/>
<path d="M15.899 8.40435V8.58435C15.9037 8.60407 15.9037 8.62462 15.899 8.64435C15.8343 8.72428 15.7484 8.78446 15.6512 8.81804C15.554 8.85163 15.4493 8.85728 15.349 8.83435C15.2783 8.82499 15.2102 8.80116 15.149 8.76435C15.1102 8.75054 15.0758 8.72655 15.0494 8.69488C15.023 8.66322 15.0056 8.62504 14.999 8.58435V8.39435C15.003 8.43438 15.017 8.47275 15.0398 8.50595C15.0625 8.53915 15.0932 8.56611 15.129 8.58435C15.1909 8.61767 15.259 8.63808 15.329 8.64435C15.569 8.64435 15.819 8.64435 15.879 8.46435C15.8834 8.44458 15.8834 8.42411 15.879 8.40435H15.899Z" fill="url(#paint32_linear_1_34075)"/>
<path d="M15.759 8.21436C15.8075 8.23244 15.847 8.26858 15.8694 8.31519C15.8918 8.3618 15.8952 8.41526 15.879 8.46436C15.819 8.60436 15.569 8.68436 15.329 8.64436C15.259 8.63809 15.1909 8.61768 15.129 8.58436C14.999 8.51436 14.999 8.42436 14.999 8.33436C15.0638 8.25443 15.1496 8.19425 15.2468 8.16067C15.3441 8.12708 15.4488 8.12143 15.549 8.14436C15.622 8.15746 15.6928 8.18104 15.759 8.21436Z" fill="#E1E7E9"/>
<path d="M8.47903 13.4344C9.73903 13.6244 10.479 14.3744 10.149 15.0944C9.81903 15.8144 8.51903 16.2544 7.25903 16.0944C5.99903 15.9344 5.25903 15.1544 5.59903 14.4244C5.93903 13.6944 7.22903 13.2444 8.47903 13.4344Z" fill="#EDEEF0"/>
<path d="M8.74899 13.8544C8.48907 13.9877 8.20113 14.0573 7.90899 14.0573C7.61685 14.0573 7.32891 13.9877 7.06899 13.8544C6.97383 13.8092 6.89175 13.7405 6.83051 13.6547C6.76927 13.569 6.73089 13.4691 6.71899 13.3644V14.5744C6.73089 14.6791 6.76927 14.779 6.83051 14.8647C6.89175 14.9505 6.97383 15.0192 7.06899 15.0644C7.32891 15.1977 7.61685 15.2673 7.90899 15.2673C8.20113 15.2673 8.48907 15.1977 8.74899 15.0644C8.84409 15.0203 8.92571 14.9516 8.98547 14.8655C9.04523 14.7794 9.08096 14.6789 9.08899 14.5744V13.3644C9.079 13.4683 9.04249 13.568 8.98296 13.6538C8.92343 13.7396 8.84287 13.8086 8.74899 13.8544Z" fill="#84898C"/>
<path d="M8.749 12.8744C8.48908 12.741 8.20114 12.6714 7.909 12.6714C7.61687 12.6714 7.32893 12.741 7.06901 12.8744C6.96035 12.9054 6.86475 12.971 6.7967 13.0612C6.72865 13.1514 6.69183 13.2614 6.69183 13.3744C6.69183 13.4874 6.72865 13.5973 6.7967 13.6875C6.86475 13.7777 6.96035 13.8433 7.06901 13.8744C7.32893 14.0077 7.61687 14.0773 7.909 14.0773C8.20114 14.0773 8.48908 14.0077 8.749 13.8744C8.85766 13.8433 8.95326 13.7777 9.02131 13.6875C9.08936 13.5973 9.12618 13.4874 9.12618 13.3744C9.12618 13.2614 9.08936 13.1514 9.02131 13.0612C8.95326 12.971 8.85766 12.9054 8.749 12.8744Z" fill="#EDEEF0"/>
<path d="M4.74902 8.58435C4.74902 8.58435 4.74902 8.58435 4.68902 8.58435H4.61902C4.56724 8.61511 4.52555 8.66028 4.49902 8.71435L6.24902 11.0744C6.24902 11.0744 6.24902 10.9944 6.36902 10.9444C6.38797 10.9223 6.41199 10.9051 6.43902 10.8944C6.43902 10.8944 6.43902 10.8944 6.49902 10.8944L4.74902 8.58435Z" fill="#CCCFD1"/>
<path d="M6.43902 10.8943C6.41199 10.9051 6.38797 10.9223 6.36902 10.9443C6.29902 10.9443 6.23902 11.0543 6.24902 11.0743H6.31902H6.38902C6.45902 11.0143 6.51902 10.9543 6.50902 10.9443C6.49902 10.9343 6.47902 10.8743 6.43902 10.8943Z" fill="#B0B5B8"/>
<path d="M6.30902 10.5444C6.30902 10.5444 6.30902 10.5444 6.22902 10.5444L6.13902 10.6044C6.07743 10.6592 6.02949 10.7277 5.99902 10.8044L6.99902 12.0144C7.03566 11.944 7.09103 11.8852 7.15902 11.8444L7.23902 11.7844H7.31902L6.30902 10.5444Z" fill="#CCCFD1"/>
<path d="M7.17903 11.7844L7.09903 11.8444C7.03372 11.8884 6.97906 11.9465 6.93903 12.0144C6.93903 12.0144 6.93903 12.0144 7.02903 12.0144L7.11903 11.9744C7.20903 11.9044 7.27903 11.8344 7.27903 11.8044C7.27903 11.7744 7.23903 11.7544 7.17903 11.7844Z" fill="#272727"/>
<path d="M8.68902 10.9744C8.58611 10.913 8.471 10.8749 8.35179 10.8628C8.23258 10.8507 8.11216 10.8649 7.99902 10.9044C8.11177 10.871 8.2306 10.8636 8.34662 10.8826C8.46264 10.9017 8.57286 10.9467 8.66902 11.0144C8.97752 11.2142 9.23438 11.4841 9.41861 11.8022C9.60283 12.1202 9.7092 12.4774 9.72902 12.8444V14.2244C9.73621 14.2087 9.73994 14.1916 9.73994 14.1744C9.73994 14.1571 9.73621 14.1401 9.72902 14.1244V12.7844C9.72091 12.4198 9.62145 12.063 9.43976 11.7468C9.25806 11.4306 8.99994 11.165 8.68902 10.9744Z" fill="#D9DBDD"/>
<path d="M9.49902 12.0544C9.39211 11.8203 9.25421 11.6017 9.08902 11.4044C8.95753 11.2358 8.79866 11.0904 8.61902 10.9744C8.50608 10.9055 8.37633 10.869 8.24402 10.869C8.11172 10.869 7.98197 10.9055 7.86902 10.9744L6.49902 11.7644C6.61996 11.7103 6.75307 11.6892 6.88481 11.7032C7.01655 11.7173 7.14222 11.766 7.24902 11.8444C7.4277 11.9453 7.58688 12.0774 7.71902 12.2344C7.88227 12.4295 8.02004 12.6445 8.12902 12.8744C8.23979 13.127 8.3009 13.3986 8.30902 13.6744V15.0544L9.67902 14.2544V12.8444C9.67088 12.5719 9.60974 12.3035 9.49902 12.0544Z" fill="url(#paint33_linear_1_34075)"/>
<g style="mix-blend-mode:screen" opacity="0.5">
<path d="M9.08899 11.4044L7.71899 12.2044C7.88224 12.3994 8.02001 12.6145 8.12899 12.8444L9.49899 12.0544C9.39209 11.8203 9.25418 11.6017 9.08899 11.4044Z" fill="#DEDDDD"/>
</g>
<path d="M7.249 11.8144C7.14219 11.736 7.01653 11.6873 6.88479 11.6732C6.75305 11.6592 6.61994 11.6803 6.499 11.7344C6.069 12.0044 6.149 12.4144 6.139 13.7344V13.7944L8.199 14.9744C8.199 14.9744 8.249 15.0244 8.309 14.9744V13.6444C8.28918 13.2774 8.18281 12.9202 7.99858 12.6022C7.81436 12.2841 7.5575 12.0142 7.249 11.8144Z" fill="#9AA0A4"/>
<g style="mix-blend-mode:multiply" opacity="0.4">
<path d="M7.99903 14.7144L6.31903 13.7144V12.5844C6.31903 12.1944 6.50903 11.9544 6.81903 11.9544C6.9573 11.9595 7.09178 12.0009 7.20903 12.0744C7.46041 12.2342 7.66974 12.452 7.8194 12.7096C7.96905 12.9671 8.05467 13.2568 8.06903 13.5544C8.06903 14.0044 8.06903 14.4344 8.06903 14.6344L7.99903 14.7144ZM6.34903 13.7144L7.99903 14.6144V13.5544C7.98298 13.27 7.90043 12.9934 7.75801 12.7468C7.61559 12.5002 7.41728 12.2904 7.17903 12.1344C7.07177 12.0646 6.94699 12.0264 6.81903 12.0244C6.54903 12.0244 6.38903 12.2344 6.38903 12.5844L6.34903 13.7144Z" fill="#9AA0A4"/>
</g>
<path d="M7.43902 11.1944L6.99902 11.4244C7.12171 11.3704 7.25636 11.3494 7.38965 11.3634C7.52294 11.3775 7.65026 11.426 7.75902 11.5044L8.16902 11.2644C8.06313 11.1921 7.94066 11.1477 7.81302 11.1355C7.68539 11.1233 7.55673 11.1435 7.43902 11.1944Z" fill="#84898C"/>
<path d="M13.139 10.7444C14.389 10.9444 15.139 11.6844 14.799 12.4144C14.459 13.1444 13.169 13.5644 11.919 13.4144C10.669 13.2644 9.91904 12.4744 10.249 11.7444C10.579 11.0144 11.879 10.5544 13.139 10.7444Z" fill="#EDEEF0"/>
<path d="M13.409 11.1643C13.1491 11.2977 12.8612 11.3673 12.569 11.3673C12.2769 11.3673 11.9889 11.2977 11.729 11.1643C11.6321 11.1216 11.5484 11.0536 11.4868 10.9674C11.4252 10.8811 11.388 10.7799 11.379 10.6743V11.8843C11.39 11.9893 11.428 12.0897 11.4894 12.1755C11.5507 12.2614 11.6333 12.3299 11.729 12.3743C11.9889 12.5077 12.2769 12.5773 12.569 12.5773C12.8612 12.5773 13.1491 12.5077 13.409 12.3743C13.5046 12.3324 13.5874 12.2659 13.6488 12.1816C13.7103 12.0973 13.7484 11.9982 13.759 11.8943V10.6843C13.7494 10.7885 13.7118 10.8881 13.6501 10.9726C13.5885 11.0571 13.5052 11.1233 13.409 11.1643Z" fill="#84898C"/>
<path d="M13.399 10.1944C13.1391 10.061 12.8512 9.99142 12.559 9.99142C12.2669 9.99142 11.9789 10.061 11.719 10.1944C11.259 10.4644 11.259 10.8944 11.719 11.1944C11.9789 11.3277 12.2669 11.3973 12.559 11.3973C12.8512 11.3973 13.1391 11.3277 13.399 11.1944C13.869 10.8944 13.869 10.4644 13.399 10.1944Z" fill="#EDEEF0"/>
<path d="M9.39904 5.89437C9.37936 5.88929 9.35872 5.88929 9.33904 5.89437L9.25904 5.97437C9.20726 6.00513 9.16556 6.0503 9.13904 6.10437L10.899 8.38437C10.9201 8.33285 10.9546 8.28794 10.999 8.25437H11.069H11.129L9.39904 5.89437Z" fill="#CCCFD1"/>
<path d="M11.089 8.20436H11.019C10.9673 8.23512 10.9256 8.28029 10.899 8.33436C10.899 8.33436 10.899 8.33436 10.979 8.33436H11.049C11.119 8.33436 11.169 8.22436 11.159 8.20436C11.149 8.18436 11.129 8.18436 11.089 8.20436Z" fill="#B0B5B8"/>
<path d="M10.999 7.86438C10.999 7.86438 10.999 7.86438 10.919 7.86438L10.789 7.97438C10.699 8.04438 10.629 8.12438 10.639 8.15438L11.639 9.36438C11.639 9.36438 11.699 9.25438 11.789 9.18438L11.879 9.12438C11.879 9.12438 11.949 9.12438 11.959 9.12438L10.999 7.86438Z" fill="#CCCFD1"/>
<path d="M11.839 9.09438L11.749 9.15438C11.659 9.22438 11.589 9.30438 11.599 9.33438C11.609 9.36438 11.599 9.33438 11.689 9.33438L11.779 9.28438C11.869 9.21438 11.939 9.13438 11.929 9.10438C11.919 9.07438 11.889 9.06438 11.839 9.09438Z" fill="#272727"/>
<path d="M13.3491 8.32435C13.2414 8.24852 13.1175 8.19905 12.9872 8.17994C12.8569 8.16083 12.7239 8.17262 12.5991 8.21435C12.7137 8.18294 12.8337 8.1765 12.951 8.19548C13.0683 8.21446 13.1802 8.2584 13.2791 8.32435C13.5876 8.52566 13.8438 8.79754 14.0263 9.11751C14.2089 9.43747 14.3127 9.79632 14.3291 10.1644V11.5344C14.3291 11.5344 14.3291 11.4844 14.3291 11.4444V10.1044C14.3184 9.75124 14.224 9.40572 14.0536 9.09625C13.8832 8.78678 13.6417 8.52221 13.3491 8.32435Z" fill="#D9DBDD"/>
<path d="M14.149 9.36436C14.0473 9.12755 13.9089 8.90821 13.739 8.71436C13.6029 8.56538 13.4483 8.43433 13.279 8.32436C13.1698 8.24671 13.0419 8.19934 12.9085 8.18704C12.775 8.17475 12.6406 8.19797 12.519 8.25436L11.149 9.05436C11.2701 8.99587 11.4049 8.97149 11.5388 8.98382C11.6727 8.99615 11.8007 9.04474 11.909 9.12436C12.0806 9.23121 12.2356 9.3626 12.369 9.51436C12.541 9.70661 12.6796 9.92632 12.779 10.1644C12.9106 10.4151 12.9857 10.6915 12.999 10.9744V12.3544L14.369 11.5544V10.1644C14.3594 9.88414 14.284 9.61012 14.149 9.36436Z" fill="url(#paint34_linear_1_34075)"/>
<g style="mix-blend-mode:screen" opacity="0.5">
<path d="M13.739 8.71436L12.369 9.51436C12.541 9.70661 12.6796 9.92632 12.779 10.1644L14.149 9.36436C14.0472 9.12755 13.9089 8.9082 13.739 8.71436Z" fill="#DEDDDD"/>
</g>
<path d="M11.909 9.12434C11.8007 9.04472 11.6727 8.99613 11.5388 8.9838C11.4049 8.97147 11.2701 8.99585 11.149 9.05434C10.719 9.31434 10.799 9.72434 10.799 11.0543V11.1243L12.859 12.3043C12.859 12.3043 12.909 12.3543 12.959 12.3043V10.9743C12.941 10.6053 12.8367 10.2457 12.6543 9.92433C12.4719 9.60301 12.2167 9.32899 11.909 9.12434Z" fill="#9AA0A4"/>
<g style="mix-blend-mode:multiply" opacity="0.4">
<path d="M12.689 12.0243L11.009 11.0243V9.89434C11.009 9.51434 11.209 9.26434 11.509 9.26434C11.6506 9.26822 11.7887 9.30963 11.909 9.38434C12.1569 9.54708 12.3629 9.76583 12.5106 10.0229C12.6583 10.28 12.7434 10.5683 12.759 10.8643V11.9743L12.689 12.0243ZM11.049 11.0243L12.659 11.9543V10.8643C12.6446 10.5796 12.5627 10.3024 12.4201 10.0555C12.2776 9.80867 12.0784 9.59919 11.839 9.44434C11.7303 9.37767 11.6064 9.33981 11.479 9.33434C11.219 9.33434 11.049 9.54434 11.049 9.89434V11.0243Z" fill="#9AA0A4"/>
</g>
<path d="M12.099 8.50437L11.689 8.74437C11.8083 8.68565 11.9415 8.66111 12.0739 8.67346C12.2063 8.68582 12.3327 8.73459 12.439 8.81437L12.849 8.57437C12.7417 8.49662 12.6155 8.44911 12.4836 8.4368C12.3517 8.42448 12.2189 8.44782 12.099 8.50437Z" fill="#84898C"/>
<path d="M86.4491 53.4144L81.2391 56.4244L77.4091 54.2144L82.6291 51.2044L86.4491 53.4144Z" fill="#9AA0A4"/>
<path d="M82.989 51.2044V51.6044L82.179 52.0744V51.6744L82.989 51.2044Z" fill="#E0E0E0"/>
<path d="M82.179 51.6744V52.0744L81.719 51.8144V51.4044L82.179 51.6744Z" fill="#D3D3D3"/>
<path d="M81.719 51.4044L82.529 50.9344L82.989 51.2044L82.179 51.6744L81.719 51.4044Z" fill="#FFFFFD"/>
<path d="M83.609 51.5644V51.9644L82.799 52.4344V52.0344L83.609 51.5644Z" fill="#E0E0E0"/>
<path d="M82.799 52.0344V52.4344L82.339 52.1644V51.7644L82.799 52.0344Z" fill="#D3D3D3"/>
<path d="M82.339 51.7644L83.149 51.2944L83.609 51.5644L82.799 52.0344L82.339 51.7644Z" fill="#FFFFFD"/>
<path d="M84.229 51.9144V52.3244L83.419 52.7944V52.3844L84.229 51.9144Z" fill="#E0E0E0"/>
<path d="M83.419 52.3844V52.7944L82.949 52.5244L82.959 52.1244L83.419 52.3844Z" fill="#D3D3D3"/>
<path d="M82.959 52.1244L83.769 51.6443L84.229 51.9143L83.419 52.3843L82.959 52.1244Z" fill="#FFFFFD"/>
<path d="M84.849 52.2744V52.6844L84.039 53.1544V52.7444L84.849 52.2744Z" fill="#E0E0E0"/>
<path d="M84.039 52.7444V53.1544L83.579 52.8844V52.4844L84.039 52.7444Z" fill="#D3D3D3"/>
<path d="M83.579 52.4844L84.389 52.0044L84.849 52.2744L84.039 52.7444L83.579 52.4844Z" fill="#FFFFFD"/>
<path d="M85.4691 52.6344V53.0344L84.6591 53.5044V53.1044L85.4691 52.6344Z" fill="#E0E0E0"/>
<path d="M84.659 53.1044V53.5043L84.199 53.2444V52.8344L84.659 53.1044Z" fill="#D3D3D3"/>
<path d="M84.199 52.8344L85.009 52.3644L85.469 52.6344L84.659 53.1044L84.199 52.8344Z" fill="#FFFFFD"/>
<path d="M86.0891 52.9944V53.3944L85.2791 53.8644V53.4644L86.0891 52.9944Z" fill="#E0E0E0"/>
<path d="M85.279 53.4644V53.8644L84.819 53.6044V53.1944L85.279 53.4644Z" fill="#D3D3D3"/>
<path d="M84.819 53.1944L85.629 52.7244L86.089 52.9944L85.279 53.4644L84.819 53.1944Z" fill="#FFFFFD"/>
<path d="M81.979 51.7844V52.1944L81.169 52.6644V52.2544L81.979 51.7844Z" fill="#E0E0E0"/>
<path d="M81.169 52.2544V52.6644L80.709 52.3944V51.9944L81.169 52.2544Z" fill="#D3D3D3"/>
<path d="M80.709 51.9944L81.519 51.5244L81.979 51.7844L81.169 52.2544L80.709 51.9944Z" fill="#FFFFFD"/>
<path d="M82.599 52.1443V52.5544L81.789 53.0243V52.6143L82.599 52.1443Z" fill="#E0E0E0"/>
<path d="M81.789 52.6144V53.0244L81.329 52.7544V52.3544L81.789 52.6144Z" fill="#D3D3D3"/>
<path d="M81.329 52.3544L82.139 51.8744L82.599 52.1444L81.789 52.6144L81.329 52.3544Z" fill="#FFFFFD"/>
<path d="M83.2191 52.5044V52.9044L82.4091 53.3844V52.9744L83.2191 52.5044Z" fill="#E0E0E0"/>
<path d="M82.409 52.9744V53.3844L81.949 53.1144V52.7044L82.409 52.9744Z" fill="#D3D3D3"/>
<path d="M81.949 52.7044L82.759 52.2344L83.219 52.5044L82.409 52.9744L81.949 52.7044Z" fill="#FFFFFD"/>
<path d="M83.8391 52.8644V53.2644L83.0291 53.7344V53.3344L83.8391 52.8644Z" fill="#E0E0E0"/>
<path d="M83.029 53.3344V53.7344L82.569 53.4744V53.0644L83.029 53.3344Z" fill="#D3D3D3"/>
<path d="M82.569 53.0644L83.379 52.5944L83.839 52.8644L83.029 53.3344L82.569 53.0644Z" fill="#FFFFFD"/>
<path d="M84.459 53.2144V53.6244L83.649 54.0944V53.6944L84.459 53.2144Z" fill="#E0E0E0"/>
<path d="M83.649 53.6944V54.0944L83.189 53.8244V53.4244L83.649 53.6944Z" fill="#D3D3D3"/>
<path d="M83.189 53.4244L83.999 52.9544L84.459 53.2144L83.649 53.6944L83.189 53.4244Z" fill="#FFFFFD"/>
<path d="M85.079 53.5744V53.9844L84.269 54.4544V54.0544L85.079 53.5744Z" fill="#E0E0E0"/>
<path d="M84.269 54.0544V54.4544L83.809 54.1844V53.7844L84.269 54.0544Z" fill="#D3D3D3"/>
<path d="M83.809 53.7844L84.619 53.3144L85.079 53.5744L84.269 54.0544L83.809 53.7844Z" fill="#FFFFFD"/>
<path d="M80.9691 52.3744V52.7744L80.1591 53.2444V52.8444L80.9691 52.3744Z" fill="#E0E0E0"/>
<path d="M80.159 52.8444V53.2444L79.699 52.9844V52.5744L80.159 52.8444Z" fill="#D3D3D3"/>
<path d="M79.699 52.5744L80.509 52.1044L80.969 52.3744L80.159 52.8444L79.699 52.5744Z" fill="#FFFFFD"/>
<path d="M81.5891 52.7344V53.1344L80.7791 53.6044V53.2044L81.5891 52.7344Z" fill="#E0E0E0"/>
<path d="M80.779 53.2044V53.6044L80.319 53.3444V52.9344L80.779 53.2044Z" fill="#D3D3D3"/>
<path d="M80.319 52.9344L81.129 52.4644L81.589 52.7344L80.779 53.2044L80.319 52.9344Z" fill="#FFFFFD"/>
<path d="M82.209 53.0944V53.4944L81.399 53.9644V53.5644L82.209 53.0944Z" fill="#E0E0E0"/>
<path d="M81.399 53.5644V53.9644L80.939 53.6944V53.2944L81.399 53.5644Z" fill="#D3D3D3"/>
<path d="M80.939 53.2944L81.749 52.8244L82.209 53.0944L81.399 53.5644L80.939 53.2944Z" fill="#FFFFFD"/>
<path d="M82.829 53.4444V53.8544L82.019 54.3244V53.9244L82.829 53.4444Z" fill="#E0E0E0"/>
<path d="M82.019 53.9244V54.3244L81.559 54.0544V53.6544L82.019 53.9244Z" fill="#D3D3D3"/>
<path d="M81.559 53.6544L82.369 53.1844L82.829 53.4444L82.019 53.9244L81.559 53.6544Z" fill="#FFFFFD"/>
<path d="M83.449 53.8044V54.2144L82.639 54.6844V54.2744L83.449 53.8044Z" fill="#E0E0E0"/>
<path d="M82.639 54.2744V54.6844L82.179 54.4144V54.0044L82.639 54.2744Z" fill="#D3D3D3"/>
<path d="M82.179 54.0044L82.989 53.5344L83.449 53.8044L82.639 54.2744L82.179 54.0044Z" fill="#FFFFFD"/>
<path d="M84.079 54.1644L84.069 54.5744L83.259 55.0444L83.269 54.6344L84.079 54.1644Z" fill="#E0E0E0"/>
<path d="M83.269 54.6344L83.259 55.0444L82.799 54.7744V54.3644L83.269 54.6344Z" fill="#D3D3D3"/>
<path d="M82.799 54.3643L83.609 53.8943L84.079 54.1643L83.269 54.6343L82.799 54.3643Z" fill="#FFFFFD"/>
<path d="M79.969 52.9544V53.3644L79.149 53.8344L79.159 53.4244L79.969 52.9544Z" fill="#E0E0E0"/>
<path d="M79.159 53.4244L79.149 53.8344L78.689 53.5644V53.1644L79.159 53.4244Z" fill="#D3D3D3"/>
<path d="M78.689 53.1644L79.499 52.6944L79.969 52.9544L79.159 53.4244L78.689 53.1644Z" fill="#FFFFFD"/>
<path d="M80.5891 53.3144V53.7244L79.7791 54.1944V53.7844L80.5891 53.3144Z" fill="#E0E0E0"/>
<path d="M79.779 53.7844V54.1944L79.309 53.9244V53.5244L79.779 53.7844Z" fill="#D3D3D3"/>
<path d="M79.309 53.5244L80.119 53.0544L80.589 53.3144L79.779 53.7844L79.309 53.5244Z" fill="#FFFFFD"/>
<path d="M81.209 53.6744L81.199 54.0744L80.389 54.5544L80.399 54.1444L81.209 53.6744Z" fill="#E0E0E0"/>
<path d="M80.399 54.1444L80.389 54.5544L79.929 54.2844V53.8744L80.399 54.1444Z" fill="#D3D3D3"/>
<path d="M79.929 53.8744L80.739 53.4044L81.209 53.6744L80.399 54.1444L79.929 53.8744Z" fill="#FFFFFD"/>
<path d="M81.829 54.0344V54.4344L81.019 54.9144V54.5044L81.829 54.0344Z" fill="#E0E0E0"/>
<path d="M81.019 54.5044V54.9144L80.549 54.6444L80.559 54.2344L81.019 54.5044Z" fill="#D3D3D3"/>
<path d="M80.559 54.2344L81.359 53.7644L81.829 54.0344L81.019 54.5044L80.559 54.2344Z" fill="#FFFFFD"/>
<path d="M82.449 54.3943V54.7943L81.639 55.2644V54.8643L82.449 54.3943Z" fill="#E0E0E0"/>
<path d="M81.639 54.8644V55.2644L81.169 54.9944V54.5944L81.639 54.8644Z" fill="#D3D3D3"/>
<path d="M81.169 54.5944L81.979 54.1244L82.449 54.3944L81.639 54.8644L81.169 54.5944Z" fill="#FFFFFD"/>
<path d="M83.069 54.7444V55.1544L82.259 55.6244V55.2244L83.069 54.7444Z" fill="#E0E0E0"/>
<path d="M82.259 55.2244V55.6244L81.799 55.3544V54.9544L82.259 55.2244Z" fill="#D3D3D3"/>
<path d="M81.799 54.9544L82.609 54.4844L83.069 54.7444L82.259 55.2244L81.799 54.9544Z" fill="#FFFFFD"/>
<path d="M78.959 53.5444V53.9544L78.139 54.4244L78.149 54.0144L78.959 53.5444Z" fill="#E0E0E0"/>
<path d="M78.149 54.0144L78.139 54.4244L77.679 54.1544V53.7444L78.149 54.0144Z" fill="#D3D3D3"/>
<path d="M77.679 53.7444L78.489 53.2744L78.959 53.5444L78.149 54.0144L77.679 53.7444Z" fill="#FFFFFD"/>
<path d="M79.579 53.9044V54.3044L78.769 54.7744V54.3744L79.579 53.9044Z" fill="#E0E0E0"/>
<path d="M78.769 54.3744V54.7744L78.299 54.5144L78.309 54.1044L78.769 54.3744Z" fill="#D3D3D3"/>
<path d="M78.309 54.1044L79.109 53.6344L79.579 53.9044L78.769 54.3744L78.309 54.1044Z" fill="#FFFFFD"/>
<path d="M80.199 54.2644V54.6644L79.389 55.1344V54.7344L80.199 54.2644Z" fill="#E0E0E0"/>
<path d="M79.389 54.7344V55.1344L78.919 54.8744V54.4644L79.389 54.7344Z" fill="#D3D3D3"/>
<path d="M78.919 54.4644L79.729 53.9944L80.199 54.2644L79.389 54.7344L78.919 54.4644Z" fill="#FFFFFD"/>
<path d="M80.819 54.6244V55.0244L80.009 55.4944V55.0944L80.819 54.6244Z" fill="#E0E0E0"/>
<path d="M80.009 55.0944V55.4944L79.549 55.2244V54.8244L80.009 55.0944Z" fill="#D3D3D3"/>
<path d="M79.549 54.8244L80.359 54.3544L80.819 54.6244L80.009 55.0944L79.549 54.8244Z" fill="#FFFFFD"/>
<path d="M81.439 54.9744V55.3844L80.629 55.8544V55.4444L81.439 54.9744Z" fill="#E0E0E0"/>
<path d="M80.6291 55.4444V55.8544L80.1591 55.5844L80.1691 55.1844L80.6291 55.4444Z" fill="#D3D3D3"/>
<path d="M80.169 55.1844L80.969 54.7044L81.439 54.9744L80.629 55.4444L80.169 55.1844Z" fill="#FFFFFD"/>
<path d="M82.059 55.3344V55.7444L81.249 56.2144V55.8044L82.059 55.3344Z" fill="#E0E0E0"/>
<path d="M81.249 55.8044V56.2144L80.789 55.9444V55.5344L81.249 55.8044Z" fill="#D3D3D3"/>
<path d="M80.789 55.5344L81.599 55.0644L82.059 55.3344L81.249 55.8044L80.789 55.5344Z" fill="#FFFFFD"/>
<path d="M74.209 32.6244C74.0045 32.728 73.7784 32.7821 73.549 32.7821C73.3197 32.7821 73.0936 32.728 72.889 32.6244C72.8154 32.5892 72.752 32.5358 72.7048 32.4694C72.6575 32.4029 72.628 32.3254 72.619 32.2444V32.4244C72.6251 32.505 72.6524 32.5825 72.6981 32.6492C72.7437 32.716 72.8061 32.7695 72.879 32.8044C73.0846 32.9105 73.3126 32.9659 73.544 32.9659C73.7754 32.9659 74.0034 32.9105 74.209 32.8044C74.2851 32.7714 74.351 32.7188 74.4002 32.6521C74.4494 32.5853 74.48 32.5068 74.489 32.4244V32.2344C74.4817 32.3185 74.4518 32.3992 74.4026 32.4678C74.3533 32.5365 74.2864 32.5905 74.209 32.6244Z" fill="url(#paint35_linear_1_34075)"/>
<path d="M74.229 31.8544C74.0227 31.7506 73.795 31.6966 73.564 31.6966C73.3331 31.6966 73.1053 31.7506 72.899 31.8544C72.8201 31.8833 72.752 31.9357 72.7039 32.0045C72.6558 32.0734 72.63 32.1554 72.63 32.2394C72.63 32.3234 72.6558 32.4054 72.7039 32.4742C72.752 32.5431 72.8201 32.5955 72.899 32.6244C73.1036 32.728 73.3297 32.7821 73.559 32.7821C73.7884 32.7821 74.0145 32.728 74.219 32.6244C74.579 32.4144 74.589 32.0744 74.229 31.8544Z" fill="#898E92"/>
<path d="M74.049 31.0844C73.9096 30.999 73.7502 30.9514 73.5868 30.9464C73.4233 30.9414 73.2614 30.9792 73.1169 31.0559C72.9725 31.1327 72.8506 31.2458 72.7633 31.3841C72.676 31.5223 72.6263 31.681 72.619 31.8444V32.0944C72.628 32.1754 72.6575 32.2529 72.7048 32.3193C72.752 32.3858 72.8154 32.4392 72.889 32.4744C73.0936 32.578 73.3197 32.6321 73.549 32.6321C73.7784 32.6321 74.0045 32.578 74.209 32.4744C74.2864 32.4405 74.3533 32.3864 74.4026 32.3178C74.4518 32.2492 74.4817 32.1685 74.489 32.0844V31.8444C74.4857 31.6909 74.4437 31.5407 74.3668 31.4078C74.2898 31.2749 74.1805 31.1636 74.049 31.0844Z" fill="url(#paint36_radial_1_34075)"/>
<path d="M76.689 33.5344L74.319 32.1544C74.2985 32.1672 74.2815 32.1849 74.2693 32.2058C74.2571 32.2267 74.2501 32.2502 74.249 32.2744C74.2437 32.2906 74.2437 32.3081 74.249 32.3244L76.619 33.6944C76.622 33.6682 76.6307 33.6429 76.6445 33.6205C76.6584 33.598 76.677 33.5788 76.699 33.5644L76.689 33.5344Z" fill="#CBCED0"/>
<path d="M76.639 33.5344C76.617 33.5489 76.5984 33.568 76.5846 33.5905C76.5707 33.6129 76.562 33.6382 76.559 33.6644C76.559 33.6644 76.559 33.7244 76.639 33.6644C76.6603 33.6499 76.6777 33.6306 76.6899 33.6079C76.7021 33.5853 76.7087 33.5601 76.709 33.5344C76.709 33.5344 76.679 33.5144 76.639 33.5344Z" fill="#9AA0A4"/>
<path d="M61.099 40.1944C60.8945 40.298 60.6684 40.3521 60.439 40.3521C60.2097 40.3521 59.9836 40.298 59.779 40.1944C59.7048 40.1612 59.6413 40.1082 59.5954 40.0411C59.5495 39.974 59.5231 39.8955 59.519 39.8144V39.9744C59.5281 40.0554 59.5576 40.1328 59.6048 40.1993C59.6521 40.2658 59.7155 40.3192 59.789 40.3544C59.9936 40.458 60.2197 40.5121 60.449 40.5121C60.6784 40.5121 60.9045 40.458 61.109 40.3544C61.1871 40.3214 61.2546 40.2676 61.304 40.1988C61.3534 40.13 61.3828 40.0488 61.389 39.9644V39.7844C61.3822 39.8725 61.3516 39.9572 61.3006 40.0293C61.2495 40.1015 61.1799 40.1585 61.099 40.1944Z" fill="url(#paint37_linear_1_34075)"/>
<path d="M61.119 39.4244C60.9145 39.3207 60.6884 39.2667 60.459 39.2667C60.2297 39.2667 60.0036 39.3207 59.799 39.4244C59.719 39.4507 59.6493 39.5016 59.5999 39.5698C59.5505 39.638 59.5239 39.7201 59.5239 39.8044C59.5239 39.8886 59.5505 39.9707 59.5999 40.0389C59.6493 40.1072 59.719 40.1581 59.799 40.1844C60.0036 40.288 60.2297 40.3421 60.459 40.3421C60.6884 40.3421 60.9145 40.288 61.119 40.1844C61.469 39.9744 61.479 39.6444 61.119 39.4244Z" fill="#898E92"/>
<path d="M60.999 38.6444C60.8589 38.5586 60.6986 38.5111 60.5344 38.5066C60.3701 38.5021 60.2075 38.5407 60.0628 38.6186C59.9181 38.6965 59.7964 38.811 59.7098 38.9506C59.6231 39.0902 59.5746 39.2501 59.569 39.4144V39.6544C59.573 39.7355 59.5995 39.814 59.6454 39.8811C59.6913 39.9482 59.7548 40.0012 59.829 40.0344C60.0336 40.138 60.2597 40.1921 60.489 40.1921C60.7184 40.1921 60.9445 40.138 61.149 40.0344C61.2271 40.0002 61.2949 39.9463 61.3458 39.8779C61.3966 39.8095 61.4288 39.729 61.439 39.6444V39.3944C61.4341 39.2426 61.3913 39.0944 61.3144 38.9634C61.2376 38.8324 61.1291 38.7227 60.999 38.6444Z" fill="url(#paint38_radial_1_34075)"/>
<path d="M63.529 41.1044C63.5086 41.1173 63.4915 41.1349 63.4793 41.1558C63.4671 41.1767 63.4602 41.2002 63.459 41.2244C63.459 41.2244 63.459 41.2944 63.529 41.2244C63.5514 41.2127 63.5704 41.1956 63.5844 41.1746C63.5984 41.1537 63.6069 41.1295 63.609 41.1044C63.609 41.0944 63.569 41.0844 63.529 41.1044Z" fill="#9AA0A4"/>
<path d="M26.2991 19.4444V19.9144C26.2991 20.0044 26.0991 20.0544 25.9391 20.0344L25.8091 19.9844C25.7842 19.975 25.7626 19.9587 25.7466 19.9374C25.7307 19.9162 25.7211 19.8909 25.7191 19.8644V19.3944C25.7239 19.4199 25.7345 19.444 25.7501 19.4648C25.7657 19.4856 25.7859 19.5026 25.8091 19.5144C25.8518 19.5246 25.8963 19.5246 25.9391 19.5144C26.0057 19.5319 26.0761 19.5299 26.1417 19.5087C26.2073 19.4874 26.2654 19.4477 26.3091 19.3944L26.2991 19.4444Z" fill="url(#paint39_linear_1_34075)"/>
<path d="M26.2091 19.3244C26.239 19.3375 26.2633 19.3607 26.2779 19.3899C26.2926 19.4192 26.2965 19.4526 26.2891 19.4844C26.2454 19.5377 26.1872 19.5774 26.1217 19.5987C26.0561 19.6199 25.9857 19.6219 25.9191 19.6044C25.8763 19.6146 25.8318 19.6146 25.7891 19.6044C25.7191 19.6044 25.6791 19.5044 25.7091 19.4344C25.7391 19.3644 25.9191 19.2944 26.0691 19.3144C26.116 19.3105 26.1632 19.3139 26.2091 19.3244Z" fill="#E1E7E9"/>
<path d="M26.449 19.2744V19.4544C26.4534 19.4775 26.4534 19.5012 26.449 19.5244C26.389 19.6644 26.139 19.7444 25.899 19.7044C25.8276 19.6981 25.7588 19.674 25.699 19.6344C25.6627 19.6195 25.6313 19.5948 25.6083 19.5629C25.5853 19.5311 25.5717 19.4935 25.569 19.4544V19.2744C25.5737 19.3129 25.5881 19.3496 25.6109 19.3811C25.6336 19.4126 25.6639 19.4378 25.699 19.4544C25.7609 19.4896 25.8287 19.5133 25.899 19.5244C25.9983 19.5496 26.1028 19.5461 26.2002 19.5142C26.2976 19.4824 26.3839 19.4235 26.449 19.3444C26.4523 19.3211 26.4523 19.2976 26.449 19.2744Z" fill="url(#paint40_linear_1_34075)"/>
<path d="M26.309 19.0844C26.419 19.1544 26.469 19.2444 26.429 19.3444C26.3639 19.4235 26.2775 19.4824 26.1802 19.5143C26.0828 19.5461 25.9783 19.5496 25.879 19.5244C25.8087 19.5133 25.7409 19.4896 25.679 19.4544C25.6306 19.4363 25.591 19.4001 25.5686 19.3535C25.5463 19.3069 25.5428 19.2535 25.559 19.2044C25.6234 19.1243 25.7096 19.0646 25.8073 19.0327C25.9049 19.0007 26.0098 18.9978 26.109 19.0244C26.179 19.0306 26.2471 19.051 26.309 19.0844Z" fill="#E1E7E9"/>
<path d="M26.2091 18.8044C26.2791 18.8544 26.3091 18.9144 26.2891 18.9744C26.2439 19.0259 26.1857 19.0642 26.1206 19.0853C26.0554 19.1064 25.9858 19.1096 25.9191 19.0944H25.7891C25.7191 19.0944 25.6791 18.9844 25.7091 18.9244C25.7512 18.8719 25.8075 18.8326 25.8714 18.8114C25.9352 18.7901 26.0039 18.7877 26.0691 18.8044H26.2091Z" fill="#E1E7E9"/>
<path d="M26.449 18.8344V18.9744C26.4523 18.9976 26.4523 19.0212 26.449 19.0444C26.3839 19.1235 26.2976 19.1824 26.2002 19.2143C26.1028 19.2461 25.9983 19.2496 25.899 19.2244C25.8287 19.2133 25.7609 19.1896 25.699 19.1544C25.6639 19.1378 25.6336 19.1126 25.6109 19.0811C25.5881 19.0496 25.5737 19.0129 25.569 18.9744V18.7944C25.5737 18.8329 25.5881 18.8696 25.6109 18.9011C25.6336 18.9326 25.6639 18.9578 25.699 18.9744C25.7609 19.0096 25.8287 19.0333 25.899 19.0444C26.139 19.0444 26.389 18.9944 26.449 18.8544C26.4534 18.8346 26.4534 18.8141 26.449 18.7944V18.8344Z" fill="url(#paint41_linear_1_34075)"/>
<path d="M26.309 18.6444C26.419 18.7144 26.469 18.8044 26.429 18.8944C26.389 18.9844 26.119 19.1144 25.879 19.0844C25.8087 19.0733 25.7409 19.0496 25.679 19.0144C25.6306 18.9963 25.591 18.9601 25.5686 18.9135C25.5463 18.8669 25.5428 18.8135 25.559 18.7644C25.6234 18.6843 25.7096 18.6246 25.8073 18.5927C25.9049 18.5607 26.0098 18.5578 26.109 18.5844C26.179 18.5906 26.2471 18.611 26.309 18.6444Z" fill="#E1E7E9"/>
<path d="M39.1091 12.0444V12.5144C39.1138 12.5307 39.1138 12.548 39.1091 12.5644C39.1091 12.6544 38.9091 12.7044 38.7491 12.6844L38.6191 12.6344C38.5942 12.625 38.5726 12.6087 38.5566 12.5874C38.5407 12.5662 38.5311 12.5409 38.5291 12.5144V12.0444C38.5322 12.0705 38.5422 12.0954 38.558 12.1164C38.5738 12.1375 38.5948 12.154 38.6191 12.1644C38.6616 12.1758 38.7065 12.1758 38.7491 12.1644C38.8142 12.1824 38.8832 12.1806 38.9474 12.1593C39.0115 12.1379 39.0678 12.0979 39.1091 12.0444Z" fill="url(#paint42_linear_1_34075)"/>
<path d="M38.999 11.9744C39.069 11.9744 39.099 12.0744 39.069 12.1344C39.0277 12.1879 38.9715 12.2279 38.9073 12.2493C38.8432 12.2706 38.7742 12.2724 38.709 12.2544C38.6665 12.2658 38.6216 12.2658 38.579 12.2544C38.509 12.2544 38.469 12.1444 38.499 12.0844C38.529 12.0244 38.699 11.9444 38.859 11.9644L38.999 11.9744Z" fill="#E1E7E9"/>
<path d="M39.259 11.8744V12.0544C39.2639 12.0774 39.2639 12.1013 39.259 12.1244C39.1947 12.2044 39.1084 12.2641 39.0108 12.2961C38.9131 12.328 38.8083 12.3309 38.709 12.3044C38.6373 12.2994 38.5682 12.2752 38.509 12.2344C38.4727 12.2195 38.4413 12.1948 38.4183 12.1629C38.3953 12.1311 38.3817 12.0935 38.379 12.0544V11.8744C38.3837 11.9129 38.3981 11.9496 38.4209 11.9811C38.4436 12.0126 38.4739 12.0378 38.509 12.0544C38.5702 12.0912 38.6383 12.115 38.709 12.1244C38.8084 12.1484 38.9125 12.1443 39.0096 12.1125C39.1068 12.0808 39.1931 12.0225 39.259 11.9444C39.2631 11.9212 39.2631 11.8975 39.259 11.8744Z" fill="url(#paint43_linear_1_34075)"/>
<path d="M39.129 11.6844C39.239 11.7544 39.289 11.8444 39.249 11.9444C39.1831 12.0225 39.0968 12.0808 38.9996 12.1126C38.9025 12.1443 38.7984 12.1484 38.699 12.1244C38.6283 12.115 38.5602 12.0912 38.499 12.0544C38.4506 12.0363 38.411 12.0002 38.3887 11.9535C38.3663 11.9069 38.3628 11.8535 38.379 11.8044C38.4434 11.7243 38.5296 11.6646 38.6273 11.6327C38.7249 11.6007 38.8298 11.5978 38.929 11.6244C38.9991 11.6306 39.0671 11.651 39.129 11.6844Z" fill="#E1E7E9"/>
<path d="M38.999 11.4044C39.0309 11.4176 39.0561 11.443 39.0692 11.4749C39.0824 11.5068 39.0823 11.5425 39.069 11.5744C39.069 11.6644 38.869 11.7144 38.709 11.6944C38.666 11.7015 38.6221 11.7015 38.579 11.6944C38.509 11.6944 38.469 11.5844 38.499 11.5244C38.5403 11.4709 38.5966 11.4309 38.6607 11.4095C38.7249 11.3881 38.7939 11.3863 38.859 11.4044H38.999Z" fill="#E1E7E9"/>
<path d="M39.259 11.4344V11.6144C39.2631 11.6375 39.2631 11.6612 39.259 11.6844C39.1931 11.7625 39.1068 11.8207 39.0096 11.8525C38.9125 11.8843 38.8084 11.8884 38.709 11.8644C38.6383 11.855 38.5702 11.8312 38.509 11.7944C38.4739 11.7778 38.4436 11.7526 38.4209 11.7211C38.3981 11.6896 38.3837 11.6529 38.379 11.6144V11.4344C38.3846 11.4726 38.3993 11.509 38.422 11.5403C38.4446 11.5716 38.4745 11.597 38.509 11.6144C38.5721 11.6468 38.6395 11.6704 38.709 11.6844C38.8093 11.7073 38.914 11.7016 39.0112 11.668C39.1084 11.6345 39.1943 11.5743 39.259 11.4944C39.2637 11.4746 39.2637 11.4541 39.259 11.4344Z" fill="url(#paint44_linear_1_34075)"/>
<path d="M39.129 11.2444C39.239 11.3144 39.289 11.4044 39.249 11.4944C39.1843 11.5743 39.0984 11.6345 39.0012 11.6681C38.904 11.7016 38.7993 11.7073 38.699 11.6844C38.6294 11.6704 38.5621 11.6468 38.499 11.6144C38.4506 11.5963 38.411 11.5601 38.3887 11.5135C38.3663 11.4669 38.3628 11.4135 38.379 11.3644C38.4438 11.2844 38.5296 11.2243 38.6268 11.1907C38.7241 11.1571 38.8287 11.1514 38.929 11.1744C38.9986 11.1884 39.0659 11.2119 39.129 11.2444Z" fill="#E1E7E9"/>
<path d="M43.759 20.6944L43.749 21.0044L40.509 22.8844V22.5744L43.759 20.6944Z" fill="#2B2E33"/>
<path d="M40.509 22.5744V22.8844L38.799 21.9044V21.5844L40.509 22.5744Z" fill="#25272B"/>
<path d="M43.759 20.6944L40.509 22.5744L38.799 21.5844L42.039 19.7044L43.759 20.6944Z" fill="#30333A"/>
<path d="M49.579 17.3244V17.6444L46.339 19.5244V19.2144L49.579 17.3244Z" fill="#2B2E33"/>
<path d="M46.339 19.2144V19.5244L44.619 18.5344L44.629 18.2244L46.339 19.2144Z" fill="#25272B"/>
<path d="M49.579 17.3244L46.339 19.2144L44.629 18.2244L47.869 16.3444L49.579 17.3244Z" fill="#30333A"/>
</g>
<defs>
<linearGradient id="paint0_linear_1_34075" x1="90.319" y1="54.6444" x2="92.619" y2="58.6344" gradientUnits="userSpaceOnUse">
<stop stop-color="#C0C4C6"/>
<stop offset="0.4" stop-color="#D9DBDD"/>
<stop offset="0.46" stop-color="#D4D6D8"/>
<stop offset="0.8" stop-color="#BABEC1"/>
<stop offset="1" stop-color="#B0B5B8"/>
</linearGradient>
<linearGradient id="paint1_linear_1_34075" x1="65.2891" y1="31.1244" x2="63.3091" y2="31.1244" gradientUnits="userSpaceOnUse">
<stop stop-color="#E0E0E0"/>
<stop offset="1" stop-color="#D3D3D3"/>
</linearGradient>
<radialGradient id="paint2_radial_1_34075" cx="0" cy="0" r="1" gradientUnits="userSpaceOnUse" gradientTransform="translate(64.3191 29.1644) scale(1.91 1.91)">
<stop stop-color="#FFFFFD"/>
<stop offset="0.29" stop-color="#F2F2F1"/>
<stop offset="0.58" stop-color="#E0E0E0"/>
<stop offset="1" stop-color="#D3D3D3"/>
</radialGradient>
<linearGradient id="paint3_linear_1_34075" x1="43.159" y1="18.3444" x2="41.179" y2="18.3444" gradientUnits="userSpaceOnUse">
<stop stop-color="#E0E0E0"/>
<stop offset="1" stop-color="#D3D3D3"/>
</linearGradient>
<radialGradient id="paint4_radial_1_34075" cx="0" cy="0" r="1" gradientUnits="userSpaceOnUse" gradientTransform="translate(42.189 16.3844) scale(1.91)">
<stop stop-color="#FFFFFD"/>
<stop offset="0.29" stop-color="#F2F2F1"/>
<stop offset="0.58" stop-color="#E0E0E0"/>
<stop offset="1" stop-color="#D3D3D3"/>
</radialGradient>
<linearGradient id="paint5_linear_1_34075" x1="94.789" y1="62.9844" x2="95.379" y2="62.9844" gradientUnits="userSpaceOnUse">
<stop stop-color="#9AA0A4"/>
<stop offset="1" stop-color="#B9BFC2"/>
</linearGradient>
<linearGradient id="paint6_linear_1_34075" x1="94.639" y1="62.7144" x2="95.529" y2="62.7144" gradientUnits="userSpaceOnUse">
<stop stop-color="#B4BCC0"/>
<stop offset="1" stop-color="#CBD2D5"/>
</linearGradient>
<linearGradient id="paint7_linear_1_34075" x1="94.639" y1="62.2744" x2="95.529" y2="62.2744" gradientUnits="userSpaceOnUse">
<stop stop-color="#B4BCC0"/>
<stop offset="1" stop-color="#CBD2D5"/>
</linearGradient>
<linearGradient id="paint8_linear_1_34075" x1="97.269" y1="61.5544" x2="97.859" y2="61.5544" gradientUnits="userSpaceOnUse">
<stop stop-color="#9AA0A4"/>
<stop offset="1" stop-color="#B9BFC2"/>
</linearGradient>
<linearGradient id="paint9_linear_1_34075" x1="97.119" y1="61.2844" x2="98.009" y2="61.2844" gradientUnits="userSpaceOnUse">
<stop stop-color="#B4BCC0"/>
<stop offset="1" stop-color="#CBD2D5"/>
</linearGradient>
<linearGradient id="paint10_linear_1_34075" x1="97.119" y1="60.8444" x2="98.009" y2="60.8444" gradientUnits="userSpaceOnUse">
<stop stop-color="#B4BCC0"/>
<stop offset="1" stop-color="#CBD2D5"/>
</linearGradient>
<linearGradient id="paint11_linear_1_34075" x1="55.319" y1="11.3944" x2="59.489" y2="11.3944" gradientUnits="userSpaceOnUse">
<stop stop-color="#9AA0A4"/>
<stop offset="1" stop-color="#B9BFC2"/>
</linearGradient>
<linearGradient id="paint12_linear_1_34075" x1="52.479" y1="13.1744" x2="56.899" y2="13.1744" gradientUnits="userSpaceOnUse">
<stop stop-color="#9AA0A4"/>
<stop offset="1" stop-color="#B9BFC2"/>
</linearGradient>
<linearGradient id="paint13_linear_1_34075" x1="49.5291" y1="14.7444" x2="53.6891" y2="14.7444" gradientUnits="userSpaceOnUse">
<stop stop-color="#9AA0A4"/>
<stop offset="1" stop-color="#B9BFC2"/>
</linearGradient>
<linearGradient id="paint14_linear_1_34075" x1="54.339" y1="13.7244" x2="55.249" y2="13.7244" gradientUnits="userSpaceOnUse">
<stop stop-color="#A3AAAE"/>
<stop offset="1" stop-color="#C3CACD"/>
</linearGradient>
<linearGradient id="paint15_linear_1_34075" x1="54.369" y1="7.37437" x2="55.089" y2="7.37437" gradientUnits="userSpaceOnUse">
<stop stop-color="#9AA0A4"/>
<stop offset="1" stop-color="#B9BFC2"/>
</linearGradient>
<linearGradient id="paint16_linear_1_34075" x1="54.479" y1="4.50436" x2="54.989" y2="4.50436" gradientUnits="userSpaceOnUse">
<stop stop-color="#9AA0A4"/>
<stop offset="1" stop-color="#B9BFC2"/>
</linearGradient>
<linearGradient id="paint17_linear_1_34075" x1="54.479" y1="1.72435" x2="54.979" y2="1.72435" gradientUnits="userSpaceOnUse">
<stop stop-color="#9AA0A4"/>
<stop offset="1" stop-color="#B9BFC2"/>
</linearGradient>
<radialGradient id="paint18_radial_1_34075" cx="0" cy="0" r="1" gradientUnits="userSpaceOnUse" gradientTransform="translate(54.919 1.14438) scale(1.16 1.16)">
<stop stop-color="#EDEEF0"/>
<stop offset="0.52" stop-color="#C3CACD"/>
<stop offset="1" stop-color="#A3AAAE"/>
</radialGradient>
<linearGradient id="paint19_linear_1_34075" x1="57.409" y1="20.4844" x2="59.319" y2="20.4844" gradientUnits="userSpaceOnUse">
<stop stop-color="#9AA0A4"/>
<stop offset="1" stop-color="#B9BFC2"/>
</linearGradient>
<linearGradient id="paint20_linear_1_34075" x1="58.749" y1="17.8944" x2="62.449" y2="17.8944" gradientUnits="userSpaceOnUse">
<stop stop-color="#A3AAAE"/>
<stop offset="1" stop-color="#C3CACD"/>
</linearGradient>
<linearGradient id="paint21_linear_1_34075" x1="57.959" y1="19.1744" x2="58.939" y2="19.1744" gradientUnits="userSpaceOnUse">
<stop stop-color="#A3AAAE"/>
<stop offset="1" stop-color="#C3CACD"/>
</linearGradient>
<linearGradient id="paint22_linear_1_34075" x1="58.109" y1="19.9844" x2="59.979" y2="18.8744" gradientUnits="userSpaceOnUse">
<stop stop-color="#A3AAAE"/>
<stop offset="0.42" stop-color="#C3CACD"/>
<stop offset="0.65" stop-color="#CFD4D6"/>
<stop offset="1" stop-color="#DCDFE1"/>
</linearGradient>
<linearGradient id="paint23_linear_1_34075" x1="46.349" y1="10.7744" x2="46.469" y2="10.7744" gradientUnits="userSpaceOnUse">
<stop stop-color="#9AA0A4"/>
<stop offset="1" stop-color="#B9BFC2"/>
</linearGradient>
<linearGradient id="paint24_linear_1_34075" x1="47.109" y1="11.2044" x2="47.219" y2="11.2044" gradientUnits="userSpaceOnUse">
<stop stop-color="#9AA0A4"/>
<stop offset="1" stop-color="#B9BFC2"/>
</linearGradient>
<linearGradient id="paint25_linear_1_34075" x1="35.969" y1="17.6344" x2="36.089" y2="17.6344" gradientUnits="userSpaceOnUse">
<stop stop-color="#9AA0A4"/>
<stop offset="1" stop-color="#B9BFC2"/>
</linearGradient>
<linearGradient id="paint26_linear_1_34075" x1="3.56904" y1="16.0144" x2="4.16904" y2="16.0144" gradientUnits="userSpaceOnUse">
<stop stop-color="#9AA0A4"/>
<stop offset="1" stop-color="#B9BFC2"/>
</linearGradient>
<linearGradient id="paint27_linear_1_34075" x1="3.41903" y1="15.7444" x2="4.31903" y2="15.7444" gradientUnits="userSpaceOnUse">
<stop stop-color="#9AA0A4"/>
<stop offset="1" stop-color="#B9BFC2"/>
</linearGradient>
<linearGradient id="paint28_linear_1_34075" x1="3.56904" y1="15.4244" x2="4.16904" y2="15.4244" gradientUnits="userSpaceOnUse">
<stop stop-color="#9AA0A4"/>
<stop offset="1" stop-color="#B9BFC2"/>
</linearGradient>
<linearGradient id="paint29_linear_1_34075" x1="3.41903" y1="15.3044" x2="4.31903" y2="15.3044" gradientUnits="userSpaceOnUse">
<stop stop-color="#9AA0A4"/>
<stop offset="1" stop-color="#B9BFC2"/>
</linearGradient>
<linearGradient id="paint30_linear_1_34075" x1="15.149" y1="9.33437" x2="15.739" y2="9.33437" gradientUnits="userSpaceOnUse">
<stop stop-color="#9AA0A4"/>
<stop offset="1" stop-color="#B9BFC2"/>
</linearGradient>
<linearGradient id="paint31_linear_1_34075" x1="14.999" y1="9.06436" x2="15.899" y2="9.06436" gradientUnits="userSpaceOnUse">
<stop stop-color="#9AA0A4"/>
<stop offset="1" stop-color="#B9BFC2"/>
</linearGradient>
<linearGradient id="paint32_linear_1_34075" x1="14.999" y1="8.61435" x2="15.899" y2="8.61435" gradientUnits="userSpaceOnUse">
<stop stop-color="#9AA0A4"/>
<stop offset="1" stop-color="#B9BFC2"/>
</linearGradient>
<linearGradient id="paint33_linear_1_34075" x1="7.52902" y1="11.1344" x2="9.39902" y2="14.3844" gradientUnits="userSpaceOnUse">
<stop stop-color="#C0C4C6"/>
<stop offset="0.4" stop-color="#D9DBDD"/>
<stop offset="0.46" stop-color="#D4D6D8"/>
<stop offset="0.8" stop-color="#BABEC1"/>
<stop offset="1" stop-color="#B0B5B8"/>
</linearGradient>
<linearGradient id="paint34_linear_1_34075" x1="12.179" y1="8.45436" x2="14.059" y2="11.7044" gradientUnits="userSpaceOnUse">
<stop stop-color="#C0C4C6"/>
<stop offset="0.4" stop-color="#D9DBDD"/>
<stop offset="0.46" stop-color="#D4D6D8"/>
<stop offset="0.8" stop-color="#BABEC1"/>
<stop offset="1" stop-color="#B0B5B8"/>
</linearGradient>
<linearGradient id="paint35_linear_1_34075" x1="72.619" y1="32.5944" x2="74.489" y2="32.5944" gradientUnits="userSpaceOnUse">
<stop stop-color="#9AA0A4"/>
<stop offset="1" stop-color="#B9BFC2"/>
</linearGradient>
<radialGradient id="paint36_radial_1_34075" cx="0" cy="0" r="1" gradientUnits="userSpaceOnUse" gradientTransform="translate(73.749 31.1044) scale(1.66 1.66)">
<stop stop-color="#EDEEF0"/>
<stop offset="0.18" stop-color="#E0E2E4"/>
<stop offset="0.53" stop-color="#BCC2C5"/>
<stop offset="0.56" stop-color="#B9BFC2"/>
<stop offset="1" stop-color="#9AA0A4"/>
</radialGradient>
<linearGradient id="paint37_linear_1_34075" x1="59.509" y1="40.1644" x2="61.389" y2="40.1644" gradientUnits="userSpaceOnUse">
<stop stop-color="#9AA0A4"/>
<stop offset="1" stop-color="#B9BFC2"/>
</linearGradient>
<radialGradient id="paint38_radial_1_34075" cx="0" cy="0" r="1" gradientUnits="userSpaceOnUse" gradientTransform="translate(60.639 38.6744) scale(1.66)">
<stop stop-color="#EDEEF0"/>
<stop offset="0.18" stop-color="#E0E2E4"/>
<stop offset="0.53" stop-color="#BCC2C5"/>
<stop offset="0.56" stop-color="#B9BFC2"/>
<stop offset="1" stop-color="#9AA0A4"/>
</radialGradient>
<linearGradient id="paint39_linear_1_34075" x1="25.6991" y1="19.7644" x2="26.2991" y2="19.7644" gradientUnits="userSpaceOnUse">
<stop stop-color="#9AA0A4"/>
<stop offset="1" stop-color="#B9BFC2"/>
</linearGradient>
<linearGradient id="paint40_linear_1_34075" x1="25.549" y1="19.4944" x2="26.449" y2="19.4944" gradientUnits="userSpaceOnUse">
<stop stop-color="#9AA0A4"/>
<stop offset="1" stop-color="#B9BFC2"/>
</linearGradient>
<linearGradient id="paint41_linear_1_34075" x1="25.549" y1="19.0544" x2="26.449" y2="19.0544" gradientUnits="userSpaceOnUse">
<stop stop-color="#9AA0A4"/>
<stop offset="1" stop-color="#B9BFC2"/>
</linearGradient>
<linearGradient id="paint42_linear_1_34075" x1="38.5191" y1="12.3644" x2="39.1091" y2="12.3644" gradientUnits="userSpaceOnUse">
<stop stop-color="#9AA0A4"/>
<stop offset="1" stop-color="#B9BFC2"/>
</linearGradient>
<linearGradient id="paint43_linear_1_34075" x1="38.369" y1="12.0944" x2="39.259" y2="12.0944" gradientUnits="userSpaceOnUse">
<stop stop-color="#9AA0A4"/>
<stop offset="1" stop-color="#B9BFC2"/>
</linearGradient>
<linearGradient id="paint44_linear_1_34075" x1="38.369" y1="11.6544" x2="39.259" y2="11.6544" gradientUnits="userSpaceOnUse">
<stop stop-color="#9AA0A4"/>
<stop offset="1" stop-color="#B9BFC2"/>
</linearGradient>
<clipPath id="clip0_1_34075">
<rect width="104.48" height="71.87" fill="white" transform="translate(-0.000976562 0.974365)"/>
</clipPath>
</defs>
</svg>
